<svg width="457" height="115" viewBox="0 0 457 115" fill="none" xmlns="http://www.w3.org/2000/svg">
<path d="M41.4512 82.3926H27.1309L24.1348 91H17.457L31.4219 54.0312H37.1855L51.1758 91H44.4727L41.4512 82.3926ZM28.9336 77.2129H39.6484L34.291 61.877L28.9336 77.2129ZM55.3906 91V54.0312H68.0605C72.2415 54.0312 75.4238 54.8691 77.6074 56.5449C79.791 58.2207 80.8828 60.7174 80.8828 64.0352C80.8828 65.7279 80.4258 67.2513 79.5117 68.6055C78.5977 69.9596 77.2604 71.0091 75.5 71.7539C77.4974 72.2956 79.0378 73.3197 80.1211 74.8262C81.2214 76.3158 81.7715 78.11 81.7715 80.209C81.7715 83.679 80.6543 86.3451 78.4199 88.207C76.2025 90.069 73.0202 91 68.873 91H55.3906ZM61.8145 74.3184V85.8711H68.9492C70.9635 85.8711 72.5378 85.3717 73.6719 84.373C74.806 83.3743 75.373 81.9863 75.373 80.209C75.373 76.3665 73.4095 74.403 69.4824 74.3184H61.8145ZM61.8145 69.5957H68.1113C70.1087 69.5957 71.666 69.1471 72.7832 68.25C73.9173 67.3359 74.4844 66.0495 74.4844 64.3906C74.4844 62.5625 73.9596 61.2422 72.9102 60.4297C71.8776 59.6172 70.2611 59.2109 68.0605 59.2109H61.8145V69.5957ZM116.404 78.9648C116.032 82.9089 114.576 85.9896 112.037 88.207C109.498 90.4076 106.121 91.5078 101.906 91.5078C98.9609 91.5078 96.3626 90.8138 94.1113 89.4258C91.877 88.0208 90.1504 86.0319 88.9316 83.459C87.7129 80.8861 87.0781 77.8984 87.0273 74.4961V71.043C87.0273 67.556 87.6452 64.4837 88.8809 61.8262C90.1165 59.1686 91.8854 57.1204 94.1875 55.6816C96.5065 54.2428 99.181 53.5234 102.211 53.5234C106.29 53.5234 109.574 54.6322 112.062 56.8496C114.551 59.0671 115.998 62.1986 116.404 66.2441H110.006C109.701 63.5866 108.923 61.6738 107.67 60.5059C106.434 59.321 104.615 58.7285 102.211 58.7285C99.418 58.7285 97.2682 59.7526 95.7617 61.8008C94.2721 63.832 93.5104 66.8197 93.4766 70.7637V74.0391C93.4766 78.0339 94.1875 81.0807 95.6094 83.1797C97.0482 85.2786 99.1471 86.3281 101.906 86.3281C104.428 86.3281 106.324 85.7611 107.594 84.627C108.863 83.4928 109.667 81.6055 110.006 78.9648H116.404Z" fill="#000AFF"/>
<rect x="0.5" y="31.9719" width="135.456" height="82.5281" rx="2.5" stroke="black"/>
<path d="M249.475 90H243.33V60.3184L234.266 63.416V58.2109L248.688 52.9043H249.475V90ZM287.18 90H262.322V85.7598L274.637 72.3281C276.414 70.3477 277.675 68.6973 278.42 67.377C279.182 66.0397 279.562 64.7025 279.562 63.3652C279.562 61.6048 279.063 60.1829 278.064 59.0996C277.083 58.0163 275.754 57.4746 274.078 57.4746C272.081 57.4746 270.532 58.084 269.432 59.3027C268.331 60.5215 267.781 62.1888 267.781 64.3047H261.611C261.611 62.0534 262.119 60.0306 263.135 58.2363C264.167 56.4251 265.632 55.0202 267.527 54.0215C269.44 53.0228 271.641 52.5234 274.129 52.5234C277.717 52.5234 280.544 53.429 282.609 55.2402C284.691 57.0345 285.732 59.5228 285.732 62.7051C285.732 64.5501 285.208 66.4883 284.158 68.5195C283.126 70.5339 281.424 72.8275 279.055 75.4004L270.016 85.0742H287.18V90ZM299.012 68.6973H302.77C304.665 68.6803 306.163 68.1895 307.264 67.2246C308.381 66.2598 308.939 64.8633 308.939 63.0352C308.939 61.2747 308.474 59.9121 307.543 58.9473C306.629 57.9655 305.224 57.4746 303.328 57.4746C301.669 57.4746 300.307 57.957 299.24 58.9219C298.174 59.8698 297.641 61.1139 297.641 62.6543H291.471C291.471 60.7585 291.97 59.0319 292.969 57.4746C293.984 55.9173 295.389 54.707 297.184 53.8438C298.995 52.9635 301.018 52.5234 303.252 52.5234C306.942 52.5234 309.837 53.4544 311.936 55.3164C314.051 57.1615 315.109 59.7344 315.109 63.0352C315.109 64.694 314.576 66.2598 313.51 67.7324C312.46 69.1882 311.098 70.2884 309.422 71.0332C311.453 71.7272 312.993 72.819 314.043 74.3086C315.109 75.7982 315.643 77.5755 315.643 79.6406C315.643 82.9583 314.5 85.599 312.215 87.5625C309.947 89.526 306.959 90.5078 303.252 90.5078C299.697 90.5078 296.786 89.5599 294.518 87.6641C292.249 85.7682 291.115 83.2461 291.115 80.0977H297.285C297.285 81.7227 297.827 83.043 298.91 84.0586C300.01 85.0742 301.483 85.582 303.328 85.582C305.241 85.582 306.747 85.0742 307.848 84.0586C308.948 83.043 309.498 81.5703 309.498 79.6406C309.498 77.694 308.923 76.196 307.771 75.1465C306.62 74.097 304.911 73.5723 302.643 73.5723H299.012V68.6973ZM342.303 76.8223H346.898V81.7734H342.303V90H336.133V81.7734H320.162L319.984 78.0156L335.93 53.0312H342.303V76.8223ZM326.459 76.8223H336.133V61.3848L335.676 62.1973L326.459 76.8223ZM352.637 71.668L354.643 53.0312H374.498V58.3633H359.771L358.756 67.1992C360.465 66.2174 362.395 65.7266 364.545 65.7266C368.066 65.7266 370.799 66.8522 372.746 69.1035C374.71 71.3548 375.691 74.3848 375.691 78.1934C375.691 81.9512 374.608 84.9473 372.441 87.1816C370.275 89.3991 367.304 90.5078 363.529 90.5078C360.144 90.5078 357.334 89.5514 355.1 87.6387C352.882 85.709 351.68 83.1699 351.494 80.0215H357.461C357.698 81.8158 358.341 83.1953 359.391 84.1602C360.44 85.1081 361.811 85.582 363.504 85.582C365.4 85.582 366.872 84.9049 367.922 83.5508C368.988 82.1966 369.521 80.3516 369.521 78.0156C369.521 75.7643 368.938 73.987 367.77 72.6836C366.602 71.3633 364.993 70.7031 362.945 70.7031C361.828 70.7031 360.88 70.8555 360.102 71.1602C359.323 71.4479 358.477 72.0234 357.562 72.8867L352.637 71.668ZM399.736 52.8535V57.957H398.975C395.521 58.0078 392.762 58.9557 390.697 60.8008C388.632 62.6458 387.405 65.2611 387.016 68.6465C388.996 66.5645 391.527 65.5234 394.607 65.5234C397.874 65.5234 400.447 66.6745 402.326 68.9766C404.222 71.2786 405.17 74.2493 405.17 77.8887C405.17 81.6465 404.061 84.6934 401.844 87.0293C399.643 89.3483 396.749 90.5078 393.16 90.5078C389.47 90.5078 386.474 89.1452 384.172 86.4199C381.887 83.6947 380.744 80.123 380.744 75.7051V73.5977C380.744 67.1146 382.318 62.0365 385.467 58.3633C388.632 54.6901 393.177 52.8535 399.102 52.8535H399.736ZM393.109 70.5C391.755 70.5 390.511 70.8809 389.377 71.6426C388.26 72.4043 387.439 73.4199 386.914 74.6895V76.5684C386.914 79.3105 387.49 81.4941 388.641 83.1191C389.792 84.7272 391.281 85.5312 393.109 85.5312C394.938 85.5312 396.385 84.8457 397.451 83.4746C398.518 82.1035 399.051 80.3008 399.051 78.0664C399.051 75.832 398.509 74.0124 397.426 72.6074C396.342 71.2025 394.904 70.5 393.109 70.5Z" fill="#000AFF"/>
<path d="M184.513 31.9719H454C455.381 31.9719 456.5 33.0912 456.5 34.4719V112C456.5 113.381 455.381 114.5 454 114.5H184.513C183.132 114.5 182.013 113.381 182.013 112V34.4719C182.013 33.0912 183.132 31.9719 184.513 31.9719Z" stroke="black"/>
<rect x="144.18" y="72.573" width="28.3211" height="5.30337" fill="#000AFF"/>
<path d="M12.3527 14.4856C12.2238 15.8508 11.7198 16.9172 10.8409 17.6848C9.96204 18.4465 8.79309 18.8274 7.33411 18.8274C6.31458 18.8274 5.41516 18.5872 4.63586 18.1067C3.86243 17.6204 3.26477 16.9319 2.8429 16.0413C2.42102 15.1506 2.20129 14.1165 2.18372 12.9387V11.7434C2.18372 10.5364 2.39758 9.4729 2.82532 8.55298C3.25305 7.63306 3.86536 6.92407 4.66223 6.42603C5.46497 5.92798 6.39075 5.67896 7.43958 5.67896C8.85168 5.67896 9.9884 6.06274 10.8497 6.83032C11.7111 7.5979 12.212 8.68188 12.3527 10.0823H10.1378C10.0323 9.16235 9.76282 8.50024 9.32922 8.09595C8.90149 7.68579 8.27161 7.48071 7.43958 7.48071C6.47278 7.48071 5.72864 7.83521 5.20715 8.54419C4.69153 9.24731 4.42786 10.2815 4.41614 11.6467V12.7805C4.41614 14.1633 4.66223 15.218 5.15442 15.9446C5.65247 16.6711 6.37903 17.0344 7.33411 17.0344C8.20715 17.0344 8.8634 16.8381 9.30286 16.4456C9.74231 16.053 10.0206 15.3997 10.1378 14.4856H12.3527ZM19.9025 17.72C19.2755 18.4583 18.3849 18.8274 17.2306 18.8274C16.1993 18.8274 15.4171 18.5256 14.8839 17.9221C14.3566 17.3186 14.0929 16.4456 14.0929 15.303V9.14185H16.2286V15.2766C16.2286 16.4836 16.7296 17.0872 17.7316 17.0872C18.7687 17.0872 19.4689 16.7151 19.8322 15.9709V9.14185H21.9679V18.6516H19.9552L19.9025 17.72ZM29.4738 16.0676C29.4738 15.6868 29.3156 15.3967 28.9991 15.1975C28.6886 14.9983 28.17 14.8225 27.4435 14.6702C26.7169 14.5178 26.1105 14.3245 25.6241 14.0901C24.5577 13.5745 24.0245 12.8274 24.0245 11.8489C24.0245 11.0286 24.3702 10.343 25.0616 9.79224C25.7531 9.24146 26.632 8.96606 27.6984 8.96606C28.8351 8.96606 29.7521 9.24731 30.4493 9.80981C31.1525 10.3723 31.504 11.1018 31.504 11.9983H29.3683C29.3683 11.5881 29.2159 11.2483 28.9113 10.9788C28.6066 10.7034 28.2023 10.5657 27.6984 10.5657C27.2296 10.5657 26.8458 10.6741 26.547 10.8909C26.254 11.1077 26.1075 11.3977 26.1075 11.761C26.1075 12.0891 26.2452 12.344 26.5206 12.5256C26.796 12.7073 27.3527 12.8918 28.1906 13.0793C29.0284 13.261 29.6847 13.4807 30.1593 13.7385C30.6398 13.9905 30.9943 14.2952 31.2228 14.6526C31.4572 15.01 31.5743 15.4436 31.5743 15.9534C31.5743 16.8088 31.2198 17.5032 30.5109 18.0364C29.8019 18.5637 28.8732 18.8274 27.7247 18.8274C26.9454 18.8274 26.2511 18.6868 25.6417 18.4055C25.0323 18.1243 24.5577 17.7375 24.2179 17.2454C23.8781 16.7532 23.7081 16.2229 23.7081 15.6545H25.7823C25.8116 16.1584 26.0021 16.5481 26.3536 16.8235C26.7052 17.093 27.171 17.2278 27.7511 17.2278C28.3136 17.2278 28.7413 17.1223 29.0343 16.9114C29.3273 16.6946 29.4738 16.4133 29.4738 16.0676ZM36.1183 6.83032V9.14185H37.797V10.7239H36.1183V16.0325C36.1183 16.3958 36.1886 16.6594 36.3292 16.8235C36.4757 16.9817 36.7335 17.0608 37.1027 17.0608C37.3488 17.0608 37.5978 17.0315 37.8497 16.9729V18.6252C37.3634 18.76 36.8947 18.8274 36.4435 18.8274C34.8029 18.8274 33.9825 17.9221 33.9825 16.1116V10.7239H32.4181V9.14185H33.9825V6.83032H36.1183ZM38.7726 13.8088C38.7726 12.8772 38.9572 12.0393 39.3263 11.2952C39.6954 10.5452 40.214 9.97095 40.882 9.57251C41.5499 9.16821 42.3175 8.96606 43.1847 8.96606C44.4679 8.96606 45.5079 9.37915 46.3048 10.2053C47.1075 11.0315 47.5411 12.1272 47.6056 13.4924L47.6144 13.9934C47.6144 14.9309 47.4327 15.7688 47.0695 16.5071C46.712 17.2454 46.1964 17.8167 45.5226 18.2209C44.8546 18.6252 44.0812 18.8274 43.2023 18.8274C41.8605 18.8274 40.7853 18.3821 39.9767 17.4915C39.174 16.595 38.7726 15.4026 38.7726 13.9143V13.8088ZM40.9083 13.9934C40.9083 14.9719 41.1105 15.7395 41.5148 16.2961C41.9191 16.8469 42.4816 17.1223 43.2023 17.1223C43.923 17.1223 44.4825 16.8411 44.881 16.2786C45.2853 15.7161 45.4874 14.8928 45.4874 13.8088C45.4874 12.8479 45.2794 12.0862 44.8634 11.5237C44.4532 10.9612 43.8937 10.6799 43.1847 10.6799C42.4874 10.6799 41.9337 10.9583 41.5236 11.5149C41.1134 12.0657 40.9083 12.8918 40.9083 13.9934ZM51.4288 9.14185L51.4904 10.135C52.1583 9.35571 53.0724 8.96606 54.2325 8.96606C55.504 8.96606 56.3741 9.45239 56.8429 10.425C57.5343 9.45239 58.507 8.96606 59.7609 8.96606C60.8097 8.96606 61.589 9.2561 62.0988 9.83618C62.6144 10.4163 62.8781 11.2717 62.8898 12.4026V18.6516H60.754V12.4641C60.754 11.8606 60.6222 11.4182 60.3585 11.137C60.0948 10.8557 59.6583 10.7151 59.049 10.7151C58.5626 10.7151 58.1642 10.8469 57.8536 11.1106C57.549 11.3684 57.3351 11.7083 57.212 12.1301L57.2208 18.6516H55.0851V12.3938C55.0558 11.2747 54.4845 10.7151 53.3712 10.7151C52.5157 10.7151 51.9093 11.0637 51.5519 11.761V18.6516H49.4161V9.14185H51.4288ZM69.2706 18.8274C67.9171 18.8274 66.8185 18.4026 65.9747 17.553C65.1368 16.6975 64.7179 15.5608 64.7179 14.1428V13.8792C64.7179 12.9299 64.8995 12.0833 65.2628 11.3391C65.632 10.5891 66.1476 10.0061 66.8097 9.59009C67.4718 9.17407 68.2101 8.96606 69.0245 8.96606C70.3195 8.96606 71.3185 9.37915 72.0216 10.2053C72.7306 11.0315 73.0851 12.2004 73.0851 13.7122V14.5735H66.8712C66.9357 15.3586 67.1964 15.9797 67.6534 16.4368C68.1163 16.8938 68.6964 17.1223 69.3937 17.1223C70.3722 17.1223 71.1691 16.7268 71.7843 15.9358L72.9357 17.0344C72.5548 17.6028 72.045 18.0452 71.4064 18.3616C70.7736 18.6721 70.0616 18.8274 69.2706 18.8274ZM69.0157 10.6799C68.4298 10.6799 67.9552 10.885 67.5919 11.2952C67.2345 11.7053 67.006 12.2766 66.9064 13.009H70.9757V12.8508C70.9288 12.136 70.7384 11.5969 70.4044 11.2336C70.0704 10.8645 69.6075 10.6799 69.0157 10.6799ZM79.7296 11.093C79.4484 11.0461 79.1583 11.0227 78.8595 11.0227C77.881 11.0227 77.2218 11.3977 76.882 12.1477V18.6516H74.7462V9.14185H76.7853L76.838 10.2053C77.3536 9.37915 78.0685 8.96606 78.9825 8.96606C79.2872 8.96606 79.5392 9.00708 79.7384 9.08911L79.7296 11.093ZM87.9913 13.8967V18.6516H85.7677V5.85474H90.6632C92.0929 5.85474 93.2267 6.22681 94.0646 6.97095C94.9083 7.71509 95.3302 8.69946 95.3302 9.92407C95.3302 11.178 94.9171 12.1536 94.0909 12.8508C93.2706 13.5481 92.1193 13.8967 90.6368 13.8967H87.9913ZM87.9913 12.1125H90.6632C91.4542 12.1125 92.0577 11.928 92.4738 11.5588C92.8898 11.1838 93.0978 10.6448 93.0978 9.94165C93.0978 9.25024 92.8868 8.69946 92.465 8.28931C92.0431 7.87329 91.463 7.65942 90.7247 7.64771H87.9913V12.1125ZM102.054 11.093C101.773 11.0461 101.483 11.0227 101.184 11.0227C100.205 11.0227 99.546 11.3977 99.2062 12.1477V18.6516H97.0704V9.14185H99.1095L99.1622 10.2053C99.6779 9.37915 100.393 8.96606 101.307 8.96606C101.611 8.96606 101.863 9.00708 102.063 9.08911L102.054 11.093ZM107.415 18.8274C106.062 18.8274 104.963 18.4026 104.119 17.553C103.281 16.6975 102.862 15.5608 102.862 14.1428V13.8792C102.862 12.9299 103.044 12.0833 103.407 11.3391C103.776 10.5891 104.292 10.0061 104.954 9.59009C105.616 9.17407 106.355 8.96606 107.169 8.96606C108.464 8.96606 109.463 9.37915 110.166 10.2053C110.875 11.0315 111.23 12.2004 111.23 13.7122V14.5735H105.016C105.08 15.3586 105.341 15.9797 105.798 16.4368C106.261 16.8938 106.841 17.1223 107.538 17.1223C108.517 17.1223 109.314 16.7268 109.929 15.9358L111.08 17.0344C110.699 17.6028 110.19 18.0452 109.551 18.3616C108.918 18.6721 108.206 18.8274 107.415 18.8274ZM107.16 10.6799C106.574 10.6799 106.1 10.885 105.736 11.2952C105.379 11.7053 105.151 12.2766 105.051 13.009H109.12V12.8508C109.073 12.136 108.883 11.5969 108.549 11.2336C108.215 10.8645 107.752 10.6799 107.16 10.6799ZM113.462 18.6516V10.7239H112.012V9.14185H113.462V8.49146C113.468 7.74731 113.626 7.10864 113.937 6.57544C114.247 6.04224 114.687 5.64087 115.255 5.37134C115.823 5.10181 116.506 4.96704 117.303 4.96704C117.772 4.96704 118.22 5.01685 118.648 5.11646C119.081 5.21606 119.529 5.34204 119.992 5.49438L119.667 7.26099C118.859 6.97974 118.12 6.83911 117.452 6.83911C116.802 6.83911 116.33 6.98267 116.037 7.26978C115.744 7.55103 115.598 7.97583 115.598 8.54419V9.14185H117.47V10.7239H115.598V18.6516H113.462ZM121.003 18.6516H118.867V9.14185H121.003V18.6516ZM126.786 12.2708L128.597 9.14185H130.97L128.061 13.8264L131.067 18.6516H128.711L126.813 15.3997L124.923 18.6516H122.55L125.556 13.8264L122.655 9.14185H125.011L126.786 12.2708Z" fill="black"/>
<path d="M252.152 12.834C252.024 14.1992 251.52 15.2656 250.641 16.0332C249.762 16.7949 248.593 17.1758 247.134 17.1758C246.114 17.1758 245.215 16.9355 244.436 16.4551C243.662 15.9688 243.065 15.2803 242.643 14.3896C242.221 13.499 242.001 12.4648 241.984 11.2871V10.0918C241.984 8.88477 242.197 7.82129 242.625 6.90137C243.053 5.98145 243.665 5.27246 244.462 4.77441C245.265 4.27637 246.191 4.02734 247.239 4.02734C248.651 4.02734 249.788 4.41113 250.65 5.17871C251.511 5.94629 252.012 7.03027 252.152 8.43066H249.938C249.832 7.51074 249.563 6.84863 249.129 6.44434C248.701 6.03418 248.071 5.8291 247.239 5.8291C246.273 5.8291 245.528 6.18359 245.007 6.89258C244.491 7.5957 244.228 8.62988 244.216 9.99512V11.1289C244.216 12.5117 244.462 13.5664 244.954 14.293C245.452 15.0195 246.179 15.3828 247.134 15.3828C248.007 15.3828 248.663 15.1865 249.103 14.7939C249.542 14.4014 249.82 13.748 249.938 12.834H252.152ZM256.371 12.2451V17H254.148V4.20312H259.043C260.473 4.20312 261.607 4.5752 262.444 5.31934C263.288 6.06348 263.71 7.04785 263.71 8.27246C263.71 9.52637 263.297 10.502 262.471 11.1992C261.651 11.8965 260.499 12.2451 259.017 12.2451H256.371ZM256.371 10.4609H259.043C259.834 10.4609 260.438 10.2764 260.854 9.90723C261.27 9.53223 261.478 8.99316 261.478 8.29004C261.478 7.59863 261.267 7.04785 260.845 6.6377C260.423 6.22168 259.843 6.00781 259.105 5.99609H256.371V10.4609ZM275.813 17H273.589L267.885 7.9209V17H265.661V4.20312H267.885L273.607 13.3174V4.20312H275.813V17ZM284.988 17H282.853V7.49023H284.988V17ZM282.721 5.02051C282.721 4.69238 282.823 4.41992 283.028 4.20312C283.239 3.98633 283.538 3.87793 283.925 3.87793C284.312 3.87793 284.61 3.98633 284.821 4.20312C285.032 4.41992 285.138 4.69238 285.138 5.02051C285.138 5.34277 285.032 5.6123 284.821 5.8291C284.61 6.04004 284.312 6.14551 283.925 6.14551C283.538 6.14551 283.239 6.04004 283.028 5.8291C282.823 5.6123 282.721 5.34277 282.721 5.02051ZM292.652 14.416C292.652 14.0352 292.494 13.7451 292.178 13.5459C291.867 13.3467 291.349 13.1709 290.622 13.0186C289.896 12.8662 289.289 12.6729 288.803 12.4385C287.736 11.9229 287.203 11.1758 287.203 10.1973C287.203 9.37695 287.549 8.69141 288.24 8.14062C288.932 7.58984 289.811 7.31445 290.877 7.31445C292.014 7.31445 292.931 7.5957 293.628 8.1582C294.331 8.7207 294.683 9.4502 294.683 10.3467H292.547C292.547 9.93652 292.395 9.59668 292.09 9.32715C291.785 9.05176 291.381 8.91406 290.877 8.91406C290.408 8.91406 290.025 9.02246 289.726 9.23926C289.433 9.45605 289.286 9.74609 289.286 10.1094C289.286 10.4375 289.424 10.6924 289.699 10.874C289.975 11.0557 290.531 11.2402 291.369 11.4277C292.207 11.6094 292.863 11.8291 293.338 12.0869C293.818 12.3389 294.173 12.6436 294.401 13.001C294.636 13.3584 294.753 13.792 294.753 14.3018C294.753 15.1572 294.399 15.8516 293.69 16.3848C292.981 16.9121 292.052 17.1758 290.903 17.1758C290.124 17.1758 289.43 17.0352 288.82 16.7539C288.211 16.4727 287.736 16.0859 287.397 15.5938C287.057 15.1016 286.887 14.5713 286.887 14.0029H288.961C288.99 14.5068 289.181 14.8965 289.532 15.1719C289.884 15.4414 290.35 15.5762 290.93 15.5762C291.492 15.5762 291.92 15.4707 292.213 15.2598C292.506 15.043 292.652 14.7617 292.652 14.416ZM306.864 16.0684C306.237 16.8066 305.347 17.1758 304.193 17.1758C303.161 17.1758 302.379 16.874 301.846 16.2705C301.318 15.667 301.055 14.7939 301.055 13.6514V7.49023H303.191V13.625C303.191 14.832 303.692 15.4355 304.693 15.4355C305.731 15.4355 306.431 15.0635 306.794 14.3193V7.49023H308.93V17H306.917L306.864 16.0684ZM316.436 14.416C316.436 14.0352 316.277 13.7451 315.961 13.5459C315.651 13.3467 315.132 13.1709 314.405 13.0186C313.679 12.8662 313.072 12.6729 312.586 12.4385C311.52 11.9229 310.986 11.1758 310.986 10.1973C310.986 9.37695 311.332 8.69141 312.024 8.14062C312.715 7.58984 313.594 7.31445 314.66 7.31445C315.797 7.31445 316.714 7.5957 317.411 8.1582C318.114 8.7207 318.466 9.4502 318.466 10.3467H316.33C316.33 9.93652 316.178 9.59668 315.873 9.32715C315.568 9.05176 315.164 8.91406 314.66 8.91406C314.192 8.91406 313.808 9.02246 313.509 9.23926C313.216 9.45605 313.069 9.74609 313.069 10.1094C313.069 10.4375 313.207 10.6924 313.483 10.874C313.758 11.0557 314.315 11.2402 315.152 11.4277C315.99 11.6094 316.647 11.8291 317.121 12.0869C317.602 12.3389 317.956 12.6436 318.185 13.001C318.419 13.3584 318.536 13.792 318.536 14.3018C318.536 15.1572 318.182 15.8516 317.473 16.3848C316.764 16.9121 315.835 17.1758 314.687 17.1758C313.907 17.1758 313.213 17.0352 312.604 16.7539C311.994 16.4727 311.52 16.0859 311.18 15.5938C310.84 15.1016 310.67 14.5713 310.67 14.0029H312.744C312.774 14.5068 312.964 14.8965 313.316 15.1719C313.667 15.4414 314.133 15.5762 314.713 15.5762C315.276 15.5762 315.703 15.4707 315.996 15.2598C316.289 15.043 316.436 14.7617 316.436 14.416ZM324.592 17.1758C323.238 17.1758 322.14 16.751 321.296 15.9014C320.458 15.0459 320.039 13.9092 320.039 12.4912V12.2275C320.039 11.2783 320.221 10.4316 320.584 9.6875C320.953 8.9375 321.469 8.35449 322.131 7.93848C322.793 7.52246 323.531 7.31445 324.346 7.31445C325.641 7.31445 326.64 7.72754 327.343 8.55371C328.052 9.37988 328.406 10.5488 328.406 12.0605V12.9219H322.193C322.257 13.707 322.518 14.3281 322.975 14.7852C323.438 15.2422 324.018 15.4707 324.715 15.4707C325.693 15.4707 326.49 15.0752 327.106 14.2842L328.257 15.3828C327.876 15.9512 327.366 16.3936 326.728 16.71C326.095 17.0205 325.383 17.1758 324.592 17.1758ZM324.337 9.02832C323.751 9.02832 323.276 9.2334 322.913 9.64355C322.556 10.0537 322.327 10.625 322.228 11.3574H326.297V11.1992C326.25 10.4844 326.06 9.94531 325.726 9.58203C325.392 9.21289 324.929 9.02832 324.337 9.02832ZM329.672 12.1748C329.672 10.71 330.012 9.53516 330.692 8.65039C331.371 7.75977 332.282 7.31445 333.425 7.31445C334.433 7.31445 335.247 7.66602 335.868 8.36914V3.5H338.004V17H336.07L335.965 16.0156C335.326 16.7891 334.474 17.1758 333.407 17.1758C332.294 17.1758 331.392 16.7275 330.7 15.8311C330.015 14.9346 329.672 13.7158 329.672 12.1748ZM331.808 12.3594C331.808 13.3262 331.992 14.082 332.361 14.627C332.736 15.166 333.267 15.4355 333.952 15.4355C334.825 15.4355 335.464 15.0459 335.868 14.2666V10.2061C335.476 9.44434 334.843 9.06348 333.97 9.06348C333.278 9.06348 332.745 9.33887 332.37 9.88965C331.995 10.4346 331.808 11.2578 331.808 12.3594ZM350.397 17C350.303 16.8184 350.221 16.5225 350.151 16.1123C349.471 16.8213 348.639 17.1758 347.654 17.1758C346.699 17.1758 345.92 16.9033 345.317 16.3584C344.713 15.8135 344.411 15.1396 344.411 14.3369C344.411 13.3232 344.786 12.5469 345.536 12.0078C346.292 11.4629 347.37 11.1904 348.771 11.1904H350.08V10.5664C350.08 10.0742 349.943 9.68164 349.667 9.38867C349.392 9.08984 348.973 8.94043 348.41 8.94043C347.924 8.94043 347.526 9.06348 347.215 9.30957C346.904 9.5498 346.749 9.85742 346.749 10.2324H344.613C344.613 9.71094 344.786 9.22461 345.132 8.77344C345.478 8.31641 345.946 7.95898 346.538 7.70117C347.136 7.44336 347.801 7.31445 348.533 7.31445C349.647 7.31445 350.534 7.5957 351.196 8.1582C351.859 8.71484 352.198 9.5 352.216 10.5137V14.8027C352.216 15.6582 352.336 16.3408 352.576 16.8506V17H350.397ZM348.05 15.4619C348.472 15.4619 348.867 15.3594 349.236 15.1543C349.611 14.9492 349.893 14.6738 350.08 14.3281V12.5352H348.929C348.138 12.5352 347.543 12.6729 347.145 12.9482C346.746 13.2236 346.547 13.6133 346.547 14.1172C346.547 14.5273 346.682 14.8555 346.951 15.1016C347.227 15.3418 347.593 15.4619 348.05 15.4619ZM359.783 14.416C359.783 14.0352 359.625 13.7451 359.309 13.5459C358.998 13.3467 358.48 13.1709 357.753 13.0186C357.026 12.8662 356.42 12.6729 355.934 12.4385C354.867 11.9229 354.334 11.1758 354.334 10.1973C354.334 9.37695 354.68 8.69141 355.371 8.14062C356.063 7.58984 356.942 7.31445 358.008 7.31445C359.145 7.31445 360.062 7.5957 360.759 8.1582C361.462 8.7207 361.814 9.4502 361.814 10.3467H359.678C359.678 9.93652 359.526 9.59668 359.221 9.32715C358.916 9.05176 358.512 8.91406 358.008 8.91406C357.539 8.91406 357.155 9.02246 356.857 9.23926C356.564 9.45605 356.417 9.74609 356.417 10.1094C356.417 10.4375 356.555 10.6924 356.83 10.874C357.106 11.0557 357.662 11.2402 358.5 11.4277C359.338 11.6094 359.994 11.8291 360.469 12.0869C360.949 12.3389 361.304 12.6436 361.532 13.001C361.767 13.3584 361.884 13.792 361.884 14.3018C361.884 15.1572 361.529 15.8516 360.82 16.3848C360.111 16.9121 359.183 17.1758 358.034 17.1758C357.255 17.1758 356.561 17.0352 355.951 16.7539C355.342 16.4727 354.867 16.0859 354.527 15.5938C354.188 15.1016 354.018 14.5713 354.018 14.0029H356.092C356.121 14.5068 356.312 14.8965 356.663 15.1719C357.015 15.4414 357.481 15.5762 358.061 15.5762C358.623 15.5762 359.051 15.4707 359.344 15.2598C359.637 15.043 359.783 14.7617 359.783 14.416ZM370.787 17H368.572V4.20312H370.787V17ZM375.744 12.2451V17H373.521V4.20312H378.416C379.846 4.20312 380.98 4.5752 381.818 5.31934C382.661 6.06348 383.083 7.04785 383.083 8.27246C383.083 9.52637 382.67 10.502 381.844 11.1992C381.024 11.8965 379.872 12.2451 378.39 12.2451H375.744ZM375.744 10.4609H378.416C379.207 10.4609 379.811 10.2764 380.227 9.90723C380.643 9.53223 380.851 8.99316 380.851 8.29004C380.851 7.59863 380.64 7.04785 380.218 6.6377C379.796 6.22168 379.216 6.00781 378.478 5.99609H375.744V10.4609ZM395.186 17H392.962L387.258 7.9209V17H385.034V4.20312H387.258L392.98 13.3174V4.20312H395.186V17Z" fill="black"/>
</svg>
