<svg width="608" height="195" viewBox="0 0 608 195" fill="none" xmlns="http://www.w3.org/2000/svg">
<g style="mix-blend-mode:darken">
<path d="M4.19214 147.802H115.024C116.404 147.802 117.524 148.921 117.524 150.302V190.597C117.524 191.978 116.404 193.097 115.024 193.097H4.19214C2.81143 193.097 1.69214 191.978 1.69214 190.597V150.302C1.69214 148.921 2.81143 147.802 4.19214 147.802Z" fill="white" fill-opacity="0.8"/>
<path d="M4.19214 147.802H115.024C116.404 147.802 117.524 148.921 117.524 150.302V190.597C117.524 191.978 116.404 193.097 115.024 193.097H4.19214C2.81143 193.097 1.69214 191.978 1.69214 190.597V150.302C1.69214 148.921 2.81143 147.802 4.19214 147.802Z" stroke="#4F4F4F"/>
</g>
<g style="mix-blend-mode:darken">
<path d="M131.753 147.802H242.584C243.965 147.802 245.084 148.921 245.084 150.302V190.597C245.084 191.978 243.965 193.097 242.584 193.097H131.753C130.372 193.097 129.253 191.978 129.253 190.597V150.302C129.253 148.921 130.372 147.802 131.753 147.802Z" fill="white" fill-opacity="0.8"/>
<path d="M131.753 147.802H242.584C243.965 147.802 245.084 148.921 245.084 150.302V190.597C245.084 191.978 243.965 193.097 242.584 193.097H131.753C130.372 193.097 129.253 191.978 129.253 190.597V150.302C129.253 148.921 130.372 147.802 131.753 147.802Z" stroke="#4F4F4F"/>
</g>
<g style="mix-blend-mode:darken">
<path d="M268.851 147.802H605C606.381 147.802 607.5 148.921 607.5 150.302V190.597C607.5 191.978 606.381 193.097 605 193.097H268.851C267.47 193.097 266.351 191.978 266.351 190.597V150.302C266.351 148.921 267.47 147.802 268.851 147.802Z" fill="white" fill-opacity="0.8"/>
<path d="M268.851 147.802H605C606.381 147.802 607.5 148.921 607.5 150.302V190.597C607.5 191.978 606.381 193.097 605 193.097H268.851C267.47 193.097 266.351 191.978 266.351 190.597V150.302C266.351 148.921 267.47 147.802 268.851 147.802Z" stroke="#4F4F4F"/>
</g>
<g style="mix-blend-mode:darken">
<path d="M3 108.522H605C606.381 108.522 607.5 109.641 607.5 111.022V138.691C607.5 140.071 606.381 141.191 605 141.191H2.99999C1.61928 141.191 0.5 140.071 0.5 138.691V111.022C0.5 109.641 1.61929 108.522 3 108.522Z" fill="#FFFF6A" fill-opacity="0.8"/>
<path d="M3 108.522H605C606.381 108.522 607.5 109.641 607.5 111.022V138.691C607.5 140.071 606.381 141.191 605 141.191H2.99999C1.61928 141.191 0.5 140.071 0.5 138.691V111.022C0.5 109.641 1.61929 108.522 3 108.522Z" stroke="#4F4F4F"/>
</g>
<path d="M52.1031 169.676H47.525V174.496H45.5485V163.121H52.775V164.715H47.525V168.098H52.1031V169.676ZM59.2125 171.848H54.8063L53.8844 174.496H51.8297L56.1266 163.121H57.9L62.2047 174.496H60.1422L59.2125 171.848ZM55.361 170.254H58.6578L57.0094 165.536L55.361 170.254ZM63.5016 174.496V163.121H67.4C68.6865 163.121 69.6656 163.379 70.3375 163.895C71.0094 164.411 71.3453 165.179 71.3453 166.2C71.3453 166.72 71.2047 167.189 70.9235 167.606C70.6422 168.023 70.2307 168.345 69.6891 168.575C70.3037 168.741 70.7776 169.056 71.111 169.52C71.4495 169.978 71.6188 170.53 71.6188 171.176C71.6188 172.244 71.275 173.064 70.5875 173.637C69.9052 174.21 68.9261 174.496 67.65 174.496H63.5016ZM65.4781 169.364V172.918H67.6735C68.2932 172.918 68.7776 172.765 69.1266 172.457C69.4755 172.15 69.65 171.723 69.65 171.176C69.65 169.994 69.0458 169.39 67.8375 169.364H65.4781ZM65.4781 167.911H67.4156C68.0302 167.911 68.5094 167.773 68.8531 167.496C69.2021 167.215 69.3766 166.819 69.3766 166.309C69.3766 165.746 69.2151 165.34 68.8922 165.09C68.5745 164.84 68.0771 164.715 67.4 164.715H65.4781V167.911Z" fill="black"/>
<path d="M168.391 171.673V175.899H166.414V164.524H170.766C172.036 164.524 173.044 164.855 173.789 165.516C174.539 166.178 174.914 167.053 174.914 168.141C174.914 169.256 174.547 170.123 173.812 170.743C173.083 171.363 172.06 171.673 170.742 171.673H168.391ZM168.391 170.087H170.766C171.469 170.087 172.005 169.923 172.375 169.595C172.745 169.261 172.93 168.782 172.93 168.157C172.93 167.543 172.742 167.053 172.367 166.688C171.992 166.319 171.476 166.128 170.82 166.118H168.391V170.087ZM185.328 172.196C185.213 173.41 184.766 174.358 183.984 175.04C183.203 175.717 182.164 176.056 180.867 176.056C179.961 176.056 179.161 175.842 178.469 175.415C177.781 174.983 177.25 174.371 176.875 173.579C176.5 172.787 176.305 171.868 176.289 170.821V169.759C176.289 168.686 176.479 167.74 176.859 166.923C177.24 166.105 177.784 165.475 178.492 165.032C179.206 164.589 180.029 164.368 180.961 164.368C182.216 164.368 183.226 164.709 183.992 165.391C184.758 166.074 185.203 167.037 185.328 168.282H183.359C183.266 167.464 183.026 166.876 182.641 166.516C182.26 166.152 181.7 165.97 180.961 165.97C180.101 165.97 179.44 166.285 178.976 166.915C178.518 167.54 178.284 168.459 178.273 169.673V170.681C178.273 171.91 178.492 172.847 178.93 173.493C179.372 174.139 180.018 174.462 180.867 174.462C181.643 174.462 182.226 174.287 182.617 173.938C183.008 173.589 183.255 173.009 183.359 172.196H185.328ZM187.101 175.899V164.524H191C192.286 164.524 193.266 164.782 193.937 165.298C194.609 165.813 194.945 166.582 194.945 167.602C194.945 168.123 194.805 168.592 194.523 169.009C194.242 169.425 193.831 169.748 193.289 169.977C193.904 170.144 194.378 170.459 194.711 170.923C195.049 171.381 195.219 171.933 195.219 172.579C195.219 173.647 194.875 174.467 194.187 175.04C193.505 175.613 192.526 175.899 191.25 175.899H187.101ZM189.078 170.766V174.321H191.273C191.893 174.321 192.378 174.168 192.726 173.86C193.075 173.553 193.25 173.126 193.25 172.579C193.25 171.397 192.646 170.793 191.437 170.766H189.078ZM189.078 169.313H191.016C191.63 169.313 192.109 169.175 192.453 168.899C192.802 168.618 192.976 168.222 192.976 167.712C192.976 167.149 192.815 166.743 192.492 166.493C192.174 166.243 191.677 166.118 191 166.118H189.078V169.313ZM203.562 173.251H199.156L198.234 175.899H196.18L200.476 164.524H202.25L206.555 175.899H204.492L203.562 173.251ZM199.711 171.657H203.008L201.359 166.938L199.711 171.657Z" fill="black"/>
<path d="M279.827 166.524C279.827 167.082 279.684 167.579 279.398 168.016C279.111 168.449 278.721 168.79 278.226 169.04C278.82 169.316 279.275 169.694 279.593 170.173C279.916 170.652 280.077 171.194 280.077 171.798C280.077 172.798 279.739 173.592 279.062 174.181C278.385 174.764 277.484 175.056 276.359 175.056C275.228 175.056 274.322 174.761 273.64 174.173C272.963 173.584 272.624 172.793 272.624 171.798C272.624 171.188 272.786 170.641 273.109 170.157C273.432 169.673 273.885 169.3 274.468 169.04C273.978 168.79 273.59 168.449 273.304 168.016C273.023 167.579 272.882 167.082 272.882 166.524C272.882 165.556 273.195 164.787 273.82 164.22C274.445 163.652 275.288 163.368 276.351 163.368C277.419 163.368 278.265 163.652 278.89 164.22C279.515 164.787 279.827 165.556 279.827 166.524ZM278.179 171.704C278.179 171.141 278.01 170.688 277.671 170.345C277.338 169.996 276.895 169.821 276.343 169.821C275.791 169.821 275.348 169.993 275.015 170.337C274.687 170.681 274.523 171.136 274.523 171.704C274.523 172.261 274.684 172.707 275.007 173.04C275.335 173.373 275.786 173.54 276.359 173.54C276.932 173.54 277.377 173.378 277.695 173.056C278.017 172.733 278.179 172.282 278.179 171.704ZM277.937 166.595C277.937 166.1 277.794 165.694 277.507 165.376C277.221 165.053 276.835 164.891 276.351 164.891C275.866 164.891 275.484 165.045 275.202 165.352C274.921 165.655 274.781 166.069 274.781 166.595C274.781 167.115 274.921 167.53 275.202 167.837C275.489 168.144 275.874 168.298 276.359 168.298C276.843 168.298 277.226 168.144 277.507 167.837C277.794 167.53 277.937 167.115 277.937 166.595ZM288.023 173.321H293.187V174.899H286.046V163.524H288.023V173.321ZM299.57 174.899C299.486 174.738 299.413 174.475 299.351 174.11C298.747 174.74 298.007 175.056 297.132 175.056C296.283 175.056 295.59 174.813 295.054 174.329C294.517 173.845 294.249 173.246 294.249 172.532C294.249 171.631 294.583 170.941 295.249 170.462C295.921 169.977 296.879 169.735 298.124 169.735H299.288V169.181C299.288 168.743 299.166 168.394 298.921 168.134C298.676 167.868 298.304 167.735 297.804 167.735C297.372 167.735 297.017 167.845 296.741 168.063C296.465 168.277 296.327 168.55 296.327 168.884H294.429C294.429 168.42 294.583 167.988 294.89 167.587C295.197 167.181 295.614 166.863 296.14 166.634C296.671 166.405 297.262 166.29 297.913 166.29C298.903 166.29 299.692 166.54 300.281 167.04C300.869 167.535 301.171 168.233 301.187 169.134V172.946C301.187 173.707 301.294 174.313 301.507 174.766V174.899H299.57ZM297.484 173.532C297.859 173.532 298.21 173.441 298.538 173.259C298.872 173.076 299.122 172.832 299.288 172.524V170.931H298.265C297.562 170.931 297.033 171.053 296.679 171.298C296.325 171.543 296.148 171.889 296.148 172.337C296.148 172.701 296.267 172.993 296.507 173.212C296.752 173.425 297.077 173.532 297.484 173.532ZM306.007 172.181L307.726 166.446H309.749L306.39 176.181C305.874 177.602 304.999 178.313 303.765 178.313C303.489 178.313 303.184 178.266 302.851 178.173V176.704L303.21 176.727C303.689 176.727 304.049 176.639 304.288 176.462C304.533 176.29 304.726 175.998 304.866 175.587L305.14 174.86L302.171 166.446H304.218L306.007 172.181ZM314.46 175.056C313.257 175.056 312.281 174.678 311.531 173.923C310.786 173.162 310.413 172.152 310.413 170.891V170.657C310.413 169.813 310.575 169.061 310.898 168.399C311.226 167.733 311.684 167.214 312.273 166.845C312.861 166.475 313.517 166.29 314.241 166.29C315.392 166.29 316.281 166.657 316.906 167.391C317.536 168.126 317.851 169.165 317.851 170.509V171.274H312.327C312.385 171.972 312.616 172.524 313.023 172.931C313.434 173.337 313.95 173.54 314.57 173.54C315.439 173.54 316.148 173.188 316.695 172.485L317.718 173.462C317.379 173.967 316.926 174.36 316.359 174.641C315.796 174.918 315.163 175.056 314.46 175.056ZM314.234 167.813C313.713 167.813 313.291 167.996 312.968 168.36C312.65 168.725 312.447 169.233 312.359 169.884H315.976V169.743C315.934 169.108 315.765 168.628 315.468 168.306C315.171 167.977 314.76 167.813 314.234 167.813ZM323.757 168.181C323.507 168.139 323.249 168.118 322.984 168.118C322.114 168.118 321.528 168.451 321.226 169.118V174.899H319.327V166.446H321.14L321.187 167.391C321.645 166.657 322.281 166.29 323.093 166.29C323.364 166.29 323.588 166.326 323.765 166.399L323.757 168.181ZM323.866 177.462L322.843 176.852C323.145 176.378 323.351 175.964 323.46 175.61C323.575 175.261 323.635 174.905 323.64 174.54V173.063H325.351L325.343 174.431C325.338 174.983 325.197 175.535 324.921 176.087C324.65 176.644 324.299 177.102 323.866 177.462ZM339.999 173.423C339.588 173.959 339.017 174.365 338.288 174.641C337.559 174.918 336.731 175.056 335.804 175.056C334.851 175.056 334.007 174.839 333.273 174.407C332.538 173.975 331.971 173.358 331.57 172.556C331.174 171.748 330.968 170.808 330.952 169.735V168.845C330.952 167.126 331.364 165.785 332.187 164.821C333.01 163.852 334.158 163.368 335.632 163.368C336.898 163.368 337.903 163.681 338.648 164.306C339.392 164.931 339.84 165.832 339.991 167.009H338.054C337.835 165.639 337.041 164.954 335.671 164.954C334.786 164.954 334.111 165.274 333.648 165.915C333.189 166.55 332.952 167.485 332.937 168.72V169.595C332.937 170.824 333.195 171.78 333.71 172.462C334.231 173.139 334.952 173.477 335.874 173.477C336.885 173.477 337.603 173.248 338.031 172.79V170.563H335.687V169.063H339.999V173.423ZM346.413 168.181C346.163 168.139 345.906 168.118 345.64 168.118C344.77 168.118 344.184 168.451 343.882 169.118V174.899H341.984V166.446H343.796L343.843 167.391C344.301 166.657 344.937 166.29 345.749 166.29C346.02 166.29 346.244 166.326 346.421 166.399L346.413 168.181ZM351.179 175.056C349.976 175.056 348.999 174.678 348.249 173.923C347.504 173.162 347.132 172.152 347.132 170.891V170.657C347.132 169.813 347.294 169.061 347.616 168.399C347.945 167.733 348.403 167.214 348.991 166.845C349.58 166.475 350.236 166.29 350.96 166.29C352.111 166.29 352.999 166.657 353.624 167.391C354.254 168.126 354.57 169.165 354.57 170.509V171.274H349.046C349.103 171.972 349.335 172.524 349.741 172.931C350.153 173.337 350.669 173.54 351.288 173.54C352.158 173.54 352.866 173.188 353.413 172.485L354.437 173.462C354.098 173.967 353.645 174.36 353.077 174.641C352.515 174.918 351.882 175.056 351.179 175.056ZM350.952 167.813C350.432 167.813 350.01 167.996 349.687 168.36C349.369 168.725 349.166 169.233 349.077 169.884H352.695V169.743C352.653 169.108 352.484 168.628 352.187 168.306C351.89 167.977 351.478 167.813 350.952 167.813ZM359.773 175.056C358.57 175.056 357.593 174.678 356.843 173.923C356.098 173.162 355.726 172.152 355.726 170.891V170.657C355.726 169.813 355.887 169.061 356.21 168.399C356.538 167.733 356.997 167.214 357.585 166.845C358.174 166.475 358.83 166.29 359.554 166.29C360.705 166.29 361.593 166.657 362.218 167.391C362.848 168.126 363.163 169.165 363.163 170.509V171.274H357.64C357.697 171.972 357.929 172.524 358.335 172.931C358.747 173.337 359.262 173.54 359.882 173.54C360.752 173.54 361.46 173.188 362.007 172.485L363.031 173.462C362.692 173.967 362.239 174.36 361.671 174.641C361.109 174.918 360.476 175.056 359.773 175.056ZM359.546 167.813C359.025 167.813 358.603 167.996 358.281 168.36C357.963 168.725 357.76 169.233 357.671 169.884H361.288V169.743C361.247 169.108 361.077 168.628 360.781 168.306C360.484 167.977 360.072 167.813 359.546 167.813ZM366.406 166.446L366.46 167.423C367.085 166.668 367.906 166.29 368.921 166.29C370.682 166.29 371.577 167.298 371.609 169.313V174.899H369.71V169.423C369.71 168.886 369.593 168.49 369.359 168.235C369.129 167.975 368.752 167.845 368.226 167.845C367.46 167.845 366.89 168.191 366.515 168.884V174.899H364.616V166.446H366.406ZM373.82 177.462L372.796 176.852C373.098 176.378 373.304 175.964 373.413 175.61C373.528 175.261 373.588 174.905 373.593 174.54V173.063H375.304L375.296 174.431C375.291 174.983 375.15 175.535 374.874 176.087C374.603 176.644 374.252 177.102 373.82 177.462ZM385.148 167.634L387.538 163.524H389.82L386.382 169.165L389.898 174.899H387.593L385.148 170.727L382.695 174.899H380.398L383.921 169.165L380.476 163.524H382.757L385.148 167.634ZM395.07 168.915L397.687 163.524H399.874L396.062 170.712V174.899H394.077V170.712L390.257 163.524H392.452L395.07 168.915ZM407.07 173.321H412.234V174.899H405.093V163.524H407.07V173.321ZM418.616 174.899C418.533 174.738 418.46 174.475 418.398 174.11C417.794 174.74 417.054 175.056 416.179 175.056C415.33 175.056 414.637 174.813 414.101 174.329C413.564 173.845 413.296 173.246 413.296 172.532C413.296 171.631 413.629 170.941 414.296 170.462C414.968 169.977 415.926 169.735 417.171 169.735H418.335V169.181C418.335 168.743 418.213 168.394 417.968 168.134C417.723 167.868 417.351 167.735 416.851 167.735C416.419 167.735 416.064 167.845 415.788 168.063C415.512 168.277 415.374 168.55 415.374 168.884H413.476C413.476 168.42 413.629 167.988 413.937 167.587C414.244 167.181 414.661 166.863 415.187 166.634C415.718 166.405 416.309 166.29 416.96 166.29C417.95 166.29 418.739 166.54 419.327 167.04C419.916 167.535 420.218 168.233 420.234 169.134V172.946C420.234 173.707 420.34 174.313 420.554 174.766V174.899H418.616ZM416.531 173.532C416.906 173.532 417.257 173.441 417.585 173.259C417.919 173.076 418.169 172.832 418.335 172.524V170.931H417.312C416.609 170.931 416.08 171.053 415.726 171.298C415.372 171.543 415.195 171.889 415.195 172.337C415.195 172.701 415.314 172.993 415.554 173.212C415.799 173.425 416.124 173.532 416.531 173.532ZM424.007 166.446L424.062 167.329C424.656 166.636 425.468 166.29 426.499 166.29C427.629 166.29 428.403 166.722 428.82 167.587C429.434 166.722 430.299 166.29 431.413 166.29C432.346 166.29 433.038 166.548 433.491 167.063C433.95 167.579 434.184 168.339 434.195 169.345V174.899H432.296V169.399C432.296 168.863 432.179 168.47 431.945 168.22C431.71 167.97 431.322 167.845 430.781 167.845C430.348 167.845 429.994 167.962 429.718 168.196C429.447 168.425 429.257 168.727 429.148 169.102L429.156 174.899H427.257V169.337C427.231 168.342 426.723 167.845 425.734 167.845C424.973 167.845 424.434 168.155 424.116 168.774V174.899H422.218V166.446H424.007ZM438.163 174.899H436.265V166.446H438.163V174.899ZM436.148 164.251C436.148 163.959 436.239 163.717 436.421 163.524C436.609 163.332 436.874 163.235 437.218 163.235C437.562 163.235 437.827 163.332 438.015 163.524C438.202 163.717 438.296 163.959 438.296 164.251C438.296 164.537 438.202 164.777 438.015 164.97C437.827 165.157 437.562 165.251 437.218 165.251C436.874 165.251 436.609 165.157 436.421 164.97C436.239 164.777 436.148 164.537 436.148 164.251ZM441.999 166.446L442.054 167.423C442.679 166.668 443.499 166.29 444.515 166.29C446.275 166.29 447.171 167.298 447.202 169.313V174.899H445.304V169.423C445.304 168.886 445.187 168.49 444.952 168.235C444.723 167.975 444.346 167.845 443.82 167.845C443.054 167.845 442.484 168.191 442.109 168.884V174.899H440.21V166.446H441.999ZM454.195 174.899C454.111 174.738 454.038 174.475 453.976 174.11C453.372 174.74 452.632 175.056 451.757 175.056C450.908 175.056 450.215 174.813 449.679 174.329C449.142 173.845 448.874 173.246 448.874 172.532C448.874 171.631 449.208 170.941 449.874 170.462C450.546 169.977 451.504 169.735 452.749 169.735H453.913V169.181C453.913 168.743 453.791 168.394 453.546 168.134C453.301 167.868 452.929 167.735 452.429 167.735C451.997 167.735 451.642 167.845 451.366 168.063C451.09 168.277 450.952 168.55 450.952 168.884H449.054C449.054 168.42 449.208 167.988 449.515 167.587C449.822 167.181 450.239 166.863 450.765 166.634C451.296 166.405 451.887 166.29 452.538 166.29C453.528 166.29 454.317 166.54 454.906 167.04C455.494 167.535 455.796 168.233 455.812 169.134V172.946C455.812 173.707 455.919 174.313 456.132 174.766V174.899H454.195ZM452.109 173.532C452.484 173.532 452.835 173.441 453.163 173.259C453.497 173.076 453.747 172.832 453.913 172.524V170.931H452.89C452.187 170.931 451.658 171.053 451.304 171.298C450.95 171.543 450.773 171.889 450.773 172.337C450.773 172.701 450.892 172.993 451.132 173.212C451.377 173.425 451.702 173.532 452.109 173.532ZM460.179 164.391V166.446H461.671V167.852H460.179V172.571C460.179 172.894 460.241 173.128 460.366 173.274C460.497 173.415 460.726 173.485 461.054 173.485C461.273 173.485 461.494 173.459 461.718 173.407V174.876C461.286 174.996 460.869 175.056 460.468 175.056C459.01 175.056 458.281 174.251 458.281 172.641V167.852H456.89V166.446H458.281V164.391H460.179ZM466.851 175.056C465.648 175.056 464.671 174.678 463.921 173.923C463.176 173.162 462.804 172.152 462.804 170.891V170.657C462.804 169.813 462.965 169.061 463.288 168.399C463.616 167.733 464.075 167.214 464.663 166.845C465.252 166.475 465.908 166.29 466.632 166.29C467.783 166.29 468.671 166.657 469.296 167.391C469.926 168.126 470.241 169.165 470.241 170.509V171.274H464.718C464.775 171.972 465.007 172.524 465.413 172.931C465.825 173.337 466.34 173.54 466.96 173.54C467.83 173.54 468.538 173.188 469.085 172.485L470.109 173.462C469.77 173.967 469.317 174.36 468.749 174.641C468.187 174.918 467.554 175.056 466.851 175.056ZM466.624 167.813C466.103 167.813 465.682 167.996 465.359 168.36C465.041 168.725 464.838 169.233 464.749 169.884H468.366V169.743C468.325 169.108 468.156 168.628 467.859 168.306C467.562 167.977 467.15 167.813 466.624 167.813ZM471.991 177.462L470.968 176.852C471.27 176.378 471.476 175.964 471.585 175.61C471.7 175.261 471.76 174.905 471.765 174.54V173.063H473.476L473.468 174.431C473.463 174.983 473.322 175.535 473.046 176.087C472.775 176.644 472.424 177.102 471.991 177.462ZM482.945 175.056C481.741 175.056 480.765 174.678 480.015 173.923C479.27 173.162 478.898 172.152 478.898 170.891V170.657C478.898 169.813 479.059 169.061 479.382 168.399C479.71 167.733 480.169 167.214 480.757 166.845C481.346 166.475 482.002 166.29 482.726 166.29C483.877 166.29 484.765 166.657 485.39 167.391C486.02 168.126 486.335 169.165 486.335 170.509V171.274H480.812C480.869 171.972 481.101 172.524 481.507 172.931C481.919 173.337 482.434 173.54 483.054 173.54C483.924 173.54 484.632 173.188 485.179 172.485L486.202 173.462C485.864 173.967 485.411 174.36 484.843 174.641C484.281 174.918 483.648 175.056 482.945 175.056ZM482.718 167.813C482.197 167.813 481.775 167.996 481.452 168.36C481.135 168.725 480.932 169.233 480.843 169.884H484.46V169.743C484.419 169.108 484.249 168.628 483.952 168.306C483.656 167.977 483.244 167.813 482.718 167.813ZM490.195 164.391V166.446H491.687V167.852H490.195V172.571C490.195 172.894 490.257 173.128 490.382 173.274C490.512 173.415 490.741 173.485 491.07 173.485C491.288 173.485 491.51 173.459 491.734 173.407V174.876C491.301 174.996 490.885 175.056 490.484 175.056C489.025 175.056 488.296 174.251 488.296 172.641V167.852H486.906V166.446H488.296V164.391H490.195ZM496.616 173.54C497.09 173.54 497.484 173.402 497.796 173.126C498.109 172.85 498.275 172.509 498.296 172.102H500.085C500.064 172.628 499.9 173.121 499.593 173.579C499.286 174.032 498.869 174.391 498.343 174.657C497.817 174.923 497.249 175.056 496.64 175.056C495.458 175.056 494.52 174.673 493.827 173.907C493.135 173.141 492.788 172.084 492.788 170.735V170.54C492.788 169.253 493.132 168.225 493.82 167.454C494.507 166.678 495.445 166.29 496.632 166.29C497.637 166.29 498.455 166.584 499.085 167.173C499.721 167.756 500.054 168.524 500.085 169.477H498.296C498.275 168.993 498.109 168.595 497.796 168.282C497.489 167.97 497.096 167.813 496.616 167.813C496.002 167.813 495.528 168.037 495.195 168.485C494.861 168.928 494.692 169.602 494.687 170.509V170.813C494.687 171.73 494.851 172.415 495.179 172.868C495.512 173.316 495.991 173.54 496.616 173.54ZM502.702 172.899C503.057 172.899 503.33 173.001 503.523 173.204C503.715 173.402 503.812 173.652 503.812 173.954C503.812 174.251 503.715 174.498 503.523 174.696C503.33 174.889 503.057 174.985 502.702 174.985C502.364 174.985 502.096 174.889 501.898 174.696C501.7 174.503 501.601 174.256 501.601 173.954C501.601 173.652 501.697 173.402 501.89 173.204C502.083 173.001 502.353 172.899 502.702 172.899Z" fill="black"/>
<path d="M16.5095 119.031L19.7966 128.312L23.0661 119.031H26.529V131.827H23.8835V128.329L24.1472 122.291L20.6931 131.827H18.8825L15.4372 122.3L15.7009 128.329V131.827H13.0641V119.031H16.5095ZM36.2145 129.191H31.5915L30.7126 131.827H27.9089L32.6725 119.031H35.1159L39.9059 131.827H37.1022L36.2145 129.191ZM32.3034 127.055H35.5026L33.8942 122.265L32.3034 127.055ZM45.1091 126.695L43.738 128.171V131.827H41.1013V119.031H43.738V124.831L44.8981 123.24L48.1589 119.031H51.402L46.8581 124.717L51.5339 131.827H48.3962L45.1091 126.695ZM60.2263 126.281H55.1638V129.709H61.1052V131.827H52.527V119.031H61.0876V121.166H55.1638V124.216H60.2263V126.281ZM69.7712 127.319V131.827H67.1345V119.031H72.1266C73.0876 119.031 73.9313 119.206 74.6579 119.558C75.3903 119.909 75.9528 120.41 76.3454 121.061C76.738 121.705 76.9343 122.441 76.9343 123.267C76.9343 124.521 76.5036 125.511 75.6423 126.238C74.7868 126.958 73.6003 127.319 72.0827 127.319H69.7712ZM69.7712 125.183H72.1266C72.8239 125.183 73.3542 125.019 73.7175 124.691C74.0866 124.363 74.2712 123.894 74.2712 123.284C74.2712 122.657 74.0866 122.151 73.7175 121.764C73.3483 121.377 72.8386 121.178 72.1882 121.166H69.7712V125.183ZM83.9919 131.827C83.8747 131.599 83.7897 131.315 83.737 130.975C83.1218 131.66 82.322 132.003 81.3376 132.003C80.4059 132.003 79.6325 131.734 79.0173 131.195C78.4079 130.656 78.1032 129.976 78.1032 129.156C78.1032 128.148 78.4753 127.374 79.2194 126.835C79.9694 126.296 81.0505 126.024 82.4626 126.018H83.6315V125.473C83.6315 125.033 83.5173 124.682 83.2888 124.418C83.0661 124.155 82.7116 124.023 82.2253 124.023C81.7975 124.023 81.4606 124.125 81.2145 124.33C80.9743 124.535 80.8542 124.817 80.8542 125.174H78.3141C78.3141 124.623 78.4841 124.114 78.8239 123.645C79.1638 123.176 79.6442 122.81 80.2653 122.546C80.8864 122.277 81.5837 122.142 82.3571 122.142C83.529 122.142 84.4577 122.438 85.1432 123.03C85.8347 123.615 86.1804 124.442 86.1804 125.508V129.63C86.1862 130.532 86.3122 131.215 86.5583 131.678V131.827H83.9919ZM81.8913 130.061C82.2663 130.061 82.612 129.979 82.9284 129.815C83.2448 129.645 83.4792 129.419 83.6315 129.138V127.503H82.6823C81.4108 127.503 80.7341 127.943 80.652 128.822L80.6432 128.971C80.6432 129.287 80.7546 129.548 80.9772 129.753C81.1999 129.958 81.5046 130.061 81.8913 130.061ZM93.4753 124.699C93.1296 124.653 92.8249 124.629 92.5612 124.629C91.6003 124.629 90.9704 124.954 90.6716 125.605V131.827H88.1315V122.318H90.5309L90.6013 123.451C91.111 122.578 91.8171 122.142 92.7194 122.142C93.0007 122.142 93.2643 122.18 93.5104 122.256L93.4753 124.699ZM98.1862 119.98V122.318H99.8122V124.181H98.1862V128.927C98.1862 129.279 98.2536 129.531 98.3884 129.683C98.5231 129.835 98.7809 129.911 99.1618 129.911C99.4431 129.911 99.6921 129.891 99.9089 129.85V131.775C99.4108 131.927 98.8981 132.003 98.3708 132.003C96.5895 132.003 95.6813 131.104 95.6462 129.305V124.181H94.2575V122.318H95.6462V119.98H98.1862Z" fill="black"/>
<g style="mix-blend-mode:darken">
<path d="M4.19214 39.7805H115.024C116.404 39.7805 117.524 40.8998 117.524 42.2805V82.5755C117.524 83.9562 116.404 85.0755 115.024 85.0755H4.19214C2.81143 85.0755 1.69214 83.9562 1.69214 82.5755V42.2805C1.69214 40.8998 2.81143 39.7805 4.19214 39.7805Z" fill="white" fill-opacity="0.8"/>
<path d="M4.19214 39.7805H115.024C116.404 39.7805 117.524 40.8998 117.524 42.2805V82.5755C117.524 83.9562 116.404 85.0755 115.024 85.0755H4.19214C2.81143 85.0755 1.69214 83.9562 1.69214 82.5755V42.2805C1.69214 40.8998 2.81143 39.7805 4.19214 39.7805Z" stroke="#4F4F4F"/>
</g>
<g style="mix-blend-mode:darken">
<path d="M131.753 39.7805H242.584C243.965 39.7805 245.084 40.8998 245.084 42.2805V82.5755C245.084 83.9562 243.965 85.0755 242.584 85.0755H131.753C130.372 85.0755 129.253 83.9562 129.253 82.5755V42.2805C129.253 40.8998 130.372 39.7805 131.753 39.7805Z" fill="white" fill-opacity="0.8"/>
<path d="M131.753 39.7805H242.584C243.965 39.7805 245.084 40.8998 245.084 42.2805V82.5755C245.084 83.9562 243.965 85.0755 242.584 85.0755H131.753C130.372 85.0755 129.253 83.9562 129.253 82.5755V42.2805C129.253 40.8998 130.372 39.7805 131.753 39.7805Z" stroke="#4F4F4F"/>
</g>
<g style="mix-blend-mode:darken">
<path d="M268.851 39.7805H605C606.381 39.7805 607.5 40.8998 607.5 42.2805V82.5755C607.5 83.9562 606.381 85.0755 605 85.0755H268.851C267.47 85.0755 266.351 83.9562 266.351 82.5755V42.2805C266.351 40.8998 267.47 39.7805 268.851 39.7805Z" fill="white" fill-opacity="0.8"/>
<path d="M268.851 39.7805H605C606.381 39.7805 607.5 40.8998 607.5 42.2805V82.5755C607.5 83.9562 606.381 85.0755 605 85.0755H268.851C267.47 85.0755 266.351 83.9562 266.351 82.5755V42.2805C266.351 40.8998 267.47 39.7805 268.851 39.7805Z" stroke="#4F4F4F"/>
</g>
<g style="mix-blend-mode:darken">
<path d="M3 0.5H605C606.381 0.5 607.5 1.61929 607.5 3V30.6691C607.5 32.0498 606.381 33.1691 605 33.1691H2.99999C1.61928 33.1691 0.5 32.0498 0.5 30.6691V3C0.5 1.61929 1.61929 0.5 3 0.5Z" fill="#FFFF6A" fill-opacity="0.8"/>
<path d="M3 0.5H605C606.381 0.5 607.5 1.61929 607.5 3V30.6691C607.5 32.0498 606.381 33.1691 605 33.1691H2.99999C1.61928 33.1691 0.5 32.0498 0.5 30.6691V3C0.5 1.61929 1.61929 0.5 3 0.5Z" stroke="#4F4F4F"/>
</g>
<path d="M33.3766 62.7717C33.262 63.9853 32.8141 64.9332 32.0328 65.6155C31.2516 66.2926 30.2125 66.6311 28.9156 66.6311C28.0094 66.6311 27.2099 66.4176 26.5172 65.9905C25.8297 65.5582 25.2985 64.9462 24.9235 64.1545C24.5485 63.3629 24.3531 62.4436 24.3375 61.3967V60.3342C24.3375 59.2613 24.5276 58.316 24.9078 57.4983C25.288 56.6806 25.8323 56.0504 26.5406 55.6077C27.2542 55.165 28.0771 54.9436 29.0094 54.9436C30.2646 54.9436 31.275 55.2847 32.0406 55.967C32.8063 56.6493 33.2516 57.6129 33.3766 58.8577H31.4078C31.3141 58.04 31.0745 57.4514 30.6891 57.092C30.3089 56.7275 29.749 56.5452 29.0094 56.5452C28.15 56.5452 27.4886 56.8603 27.025 57.4905C26.5667 58.1155 26.3323 59.0347 26.3219 60.2483V61.2561C26.3219 62.4853 26.5406 63.4228 26.9781 64.0686C27.4208 64.7144 28.0667 65.0374 28.9156 65.0374C29.6917 65.0374 30.275 64.8629 30.6656 64.5139C31.0563 64.165 31.3037 63.5842 31.4078 62.7717H33.3766ZM41.5172 63.8264H37.111L36.1891 66.4749H34.1344L38.4313 55.0999H40.2047L44.5094 66.4749H42.4469L41.5172 63.8264ZM37.6656 62.2327H40.9625L39.3141 57.5139L37.6656 62.2327ZM47.7828 62.2483V66.4749H45.8063V55.0999H50.1578C51.4287 55.0999 52.4365 55.4306 53.1813 56.092C53.9313 56.7535 54.3063 57.6285 54.3063 58.717C54.3063 59.8316 53.9391 60.6988 53.2047 61.3186C52.4755 61.9384 51.4521 62.2483 50.1344 62.2483H47.7828ZM47.7828 60.6624H50.1578C50.861 60.6624 51.3974 60.4983 51.7672 60.1702C52.137 59.8368 52.3219 59.3577 52.3219 58.7327C52.3219 58.1181 52.1344 57.6285 51.7594 57.2639C51.3844 56.8941 50.8688 56.704 50.2125 56.6936H47.7828V60.6624ZM59.5406 62.4045H55.4391V60.8733H59.5406V62.4045ZM67.236 63.5452C67.236 63.0452 67.0589 62.6597 66.7047 62.3889C66.3557 62.1181 65.7229 61.8446 64.8063 61.5686C63.8896 61.2926 63.1604 60.9853 62.6188 60.6467C61.5823 59.9957 61.0641 59.1467 61.0641 58.0999C61.0641 57.1832 61.4365 56.428 62.1813 55.8342C62.9313 55.2405 63.9026 54.9436 65.0953 54.9436C65.887 54.9436 66.5927 55.0894 67.2125 55.3811C67.8323 55.6728 68.3193 56.0894 68.6735 56.6311C69.0276 57.1676 69.2047 57.7639 69.2047 58.4202H67.236C67.236 57.8264 67.0485 57.3629 66.6735 57.0295C66.3037 56.691 65.7724 56.5217 65.0797 56.5217C64.4339 56.5217 63.9313 56.6597 63.5719 56.9358C63.2177 57.2118 63.0406 57.5972 63.0406 58.092C63.0406 58.5087 63.2333 58.8577 63.6188 59.1389C64.0042 59.415 64.6396 59.6858 65.525 59.9514C66.4104 60.2118 67.1214 60.5113 67.6578 60.8499C68.1943 61.1832 68.5875 61.5686 68.8375 62.0061C69.0875 62.4384 69.2125 62.9462 69.2125 63.5295C69.2125 64.4775 68.8479 65.2327 68.1188 65.7952C67.3948 66.3525 66.4104 66.6311 65.1656 66.6311C64.3427 66.6311 63.5849 66.4801 62.8922 66.178C62.2047 65.8707 61.6682 65.4488 61.2828 64.9124C60.9026 64.3759 60.7125 63.7509 60.7125 63.0374H62.6891C62.6891 63.6832 62.9026 64.1832 63.3297 64.5374C63.7568 64.8915 64.3688 65.0686 65.1656 65.0686C65.8531 65.0686 66.3688 64.9306 66.7125 64.6545C67.0615 64.3733 67.236 64.0035 67.236 63.5452ZM73.5094 55.0999L76.7906 63.8186L80.0641 55.0999H82.6188V66.4749H80.65V62.7249L80.8453 57.7092L77.486 66.4749H76.0719L72.7203 57.717L72.9156 62.7249V66.4749H70.9469V55.0999H73.5094ZM92.9469 56.6936H89.4V66.4749H87.4391V56.6936H83.9234V55.0999H92.9469V56.6936Z" fill="black"/>
<path d="M176.055 63.0886C176.055 64.724 175.747 65.9584 175.133 66.7917C174.523 67.6199 173.594 68.0339 172.344 68.0339C171.115 68.0339 170.187 67.6303 169.562 66.823C168.943 66.0105 168.625 64.81 168.609 63.2214V61.2527C168.609 59.6173 168.914 58.3907 169.523 57.573C170.138 56.7553 171.073 56.3464 172.328 56.3464C173.573 56.3464 174.5 56.7449 175.109 57.5417C175.724 58.3386 176.039 59.5313 176.055 61.1199V63.0886ZM174.156 60.9636C174.156 59.8959 174.01 59.1147 173.719 58.6199C173.427 58.1199 172.963 57.8699 172.328 57.8699C171.708 57.8699 171.253 58.1069 170.961 58.5808C170.669 59.0496 170.516 59.7839 170.5 60.7839V63.3621C170.5 64.4246 170.648 65.2162 170.945 65.7371C171.242 66.2579 171.708 66.5183 172.344 66.5183C172.953 66.5183 173.404 66.2787 173.695 65.7996C173.987 65.3152 174.141 64.56 174.156 63.5339V60.9636ZM184.898 59.5027C184.898 60.06 184.755 60.5574 184.469 60.9949C184.182 61.4272 183.792 61.7683 183.297 62.0183C183.891 62.2944 184.346 62.672 184.664 63.1511C184.987 63.6303 185.148 64.172 185.148 64.7761C185.148 65.7761 184.81 66.5704 184.133 67.1589C183.456 67.7423 182.555 68.0339 181.43 68.0339C180.299 68.0339 179.393 67.7397 178.711 67.1511C178.034 66.5626 177.695 65.7709 177.695 64.7761C177.695 64.1667 177.857 63.6199 178.18 63.1355C178.503 62.6511 178.956 62.2787 179.539 62.0183C179.049 61.7683 178.661 61.4272 178.375 60.9949C178.094 60.5574 177.953 60.06 177.953 59.5027C177.953 58.5339 178.266 57.7657 178.891 57.198C179.516 56.6303 180.359 56.3464 181.422 56.3464C182.49 56.3464 183.336 56.6303 183.961 57.198C184.586 57.7657 184.898 58.5339 184.898 59.5027ZM183.25 64.6824C183.25 64.1199 183.081 63.6667 182.742 63.323C182.409 62.974 181.966 62.7996 181.414 62.7996C180.862 62.7996 180.419 62.9714 180.086 63.3152C179.758 63.6589 179.594 64.1147 179.594 64.6824C179.594 65.2397 179.755 65.685 180.078 66.0183C180.406 66.3516 180.857 66.5183 181.43 66.5183C182.003 66.5183 182.448 66.3569 182.766 66.0339C183.088 65.711 183.25 65.2605 183.25 64.6824ZM183.008 59.573C183.008 59.0782 182.865 58.672 182.578 58.3542C182.292 58.0313 181.906 57.8699 181.422 57.8699C180.937 57.8699 180.555 58.0235 180.273 58.3308C179.992 58.6329 179.851 59.047 179.851 59.573C179.851 60.0938 179.992 60.5079 180.273 60.8152C180.56 61.1225 180.945 61.2761 181.43 61.2761C181.914 61.2761 182.297 61.1225 182.578 60.8152C182.865 60.5079 183.008 60.0938 183.008 59.573ZM194.242 63.0886C194.242 64.724 193.935 65.9584 193.32 66.7917C192.711 67.6199 191.781 68.0339 190.531 68.0339C189.302 68.0339 188.375 67.6303 187.75 66.823C187.13 66.0105 186.812 64.81 186.797 63.2214V61.2527C186.797 59.6173 187.101 58.3907 187.711 57.573C188.325 56.7553 189.26 56.3464 190.516 56.3464C191.76 56.3464 192.687 56.7449 193.297 57.5417C193.911 58.3386 194.226 59.5313 194.242 61.1199V63.0886ZM192.344 60.9636C192.344 59.8959 192.198 59.1147 191.906 58.6199C191.615 58.1199 191.151 57.8699 190.516 57.8699C189.896 57.8699 189.44 58.1069 189.148 58.5808C188.857 59.0496 188.703 59.7839 188.687 60.7839V63.3621C188.687 64.4246 188.836 65.2162 189.133 65.7371C189.43 66.2579 189.896 66.5183 190.531 66.5183C191.141 66.5183 191.591 66.2787 191.883 65.7996C192.174 65.3152 192.328 64.56 192.344 63.5339V60.9636ZM196.43 62.2371L197.047 56.5027H203.156V58.1433H198.625L198.312 60.8621C198.838 60.56 199.432 60.4089 200.094 60.4089C201.177 60.4089 202.018 60.7553 202.617 61.448C203.221 62.1407 203.523 63.073 203.523 64.2449C203.523 65.4011 203.19 66.323 202.523 67.0105C201.857 67.6928 200.943 68.0339 199.781 68.0339C198.74 68.0339 197.875 67.7397 197.187 67.1511C196.505 66.5574 196.135 65.7761 196.078 64.8074H197.914C197.987 65.3595 198.185 65.7839 198.508 66.0808C198.831 66.3725 199.253 66.5183 199.773 66.5183C200.357 66.5183 200.81 66.31 201.133 65.8933C201.461 65.4766 201.625 64.9089 201.625 64.1902C201.625 63.4975 201.445 62.9506 201.086 62.5496C200.726 62.1433 200.232 61.9402 199.601 61.9402C199.258 61.9402 198.966 61.9871 198.726 62.0808C198.487 62.1694 198.226 62.3464 197.945 62.6121L196.43 62.2371Z" fill="black"/>
<path d="M280.077 62.0886C280.077 63.724 279.77 64.9584 279.156 65.7917C278.546 66.6199 277.616 67.0339 276.366 67.0339C275.137 67.0339 274.21 66.6303 273.585 65.823C272.965 65.0105 272.648 63.81 272.632 62.2214V60.2527C272.632 58.6173 272.937 57.3907 273.546 56.573C274.161 55.7553 275.096 55.3464 276.351 55.3464C277.596 55.3464 278.523 55.7449 279.132 56.5417C279.747 57.3386 280.062 58.5313 280.077 60.1199V62.0886ZM278.179 59.9636C278.179 58.8959 278.033 58.1147 277.741 57.6199C277.45 57.1199 276.986 56.8699 276.351 56.8699C275.731 56.8699 275.275 57.1069 274.984 57.5808C274.692 58.0496 274.538 58.7839 274.523 59.7839V62.3621C274.523 63.4246 274.671 64.2162 274.968 64.7371C275.265 65.2579 275.731 65.5183 276.366 65.5183C276.976 65.5183 277.426 65.2787 277.718 64.7996C278.01 64.3152 278.163 63.56 278.179 62.5339V59.9636ZM283.062 64.8777C283.416 64.8777 283.689 64.9792 283.882 65.1824C284.075 65.3803 284.171 65.6303 284.171 65.9324C284.171 66.2292 284.075 66.4766 283.882 66.6746C283.689 66.8673 283.416 66.9636 283.062 66.9636C282.723 66.9636 282.455 66.8673 282.257 66.6746C282.059 66.4819 281.96 66.2345 281.96 65.9324C281.96 65.6303 282.057 65.3803 282.249 65.1824C282.442 64.9792 282.713 64.8777 283.062 64.8777ZM293.64 62.0886C293.64 63.724 293.333 64.9584 292.718 65.7917C292.109 66.6199 291.179 67.0339 289.929 67.0339C288.7 67.0339 287.773 66.6303 287.148 65.823C286.528 65.0105 286.21 63.81 286.195 62.2214V60.2527C286.195 58.6173 286.499 57.3907 287.109 56.573C287.723 55.7553 288.658 55.3464 289.913 55.3464C291.158 55.3464 292.085 55.7449 292.695 56.5417C293.309 57.3386 293.624 58.5313 293.64 60.1199V62.0886ZM291.741 59.9636C291.741 58.8959 291.596 58.1147 291.304 57.6199C291.012 57.1199 290.549 56.8699 289.913 56.8699C289.294 56.8699 288.838 57.1069 288.546 57.5808C288.254 58.0496 288.101 58.7839 288.085 59.7839V62.3621C288.085 63.4246 288.234 64.2162 288.531 64.7371C288.827 65.2579 289.294 65.5183 289.929 65.5183C290.538 65.5183 290.989 65.2787 291.281 64.7996C291.572 64.3152 291.726 63.56 291.741 62.5339V59.9636ZM295.827 61.2371L296.445 55.5027H302.554V57.1433H298.023L297.71 59.8621C298.236 59.56 298.83 59.4089 299.491 59.4089C300.575 59.4089 301.416 59.7553 302.015 60.448C302.619 61.1407 302.921 62.073 302.921 63.2449C302.921 64.4011 302.588 65.323 301.921 66.0105C301.254 66.6928 300.34 67.0339 299.179 67.0339C298.137 67.0339 297.273 66.7397 296.585 66.1511C295.903 65.5574 295.533 64.7761 295.476 63.8074H297.312C297.385 64.3595 297.583 64.7839 297.906 65.0808C298.228 65.3725 298.65 65.5183 299.171 65.5183C299.754 65.5183 300.208 65.31 300.531 64.8933C300.859 64.4766 301.023 63.9089 301.023 63.1902C301.023 62.4975 300.843 61.9506 300.484 61.5496C300.124 61.1433 299.629 60.9402 298.999 60.9402C298.656 60.9402 298.364 60.9871 298.124 61.0808C297.885 61.1694 297.624 61.3464 297.343 61.6121L295.827 61.2371ZM311.265 55.5027L314.546 64.2214L317.82 55.5027H320.374V66.8777H318.406V63.1277L318.601 58.1121L315.241 66.8777H313.827L310.476 58.1199L310.671 63.1277V66.8777H308.702V55.5027H311.265ZM324.554 66.8777H322.656V58.4246H324.554V66.8777ZM322.538 56.2292C322.538 55.9376 322.629 55.6954 322.812 55.5027C322.999 55.31 323.265 55.2136 323.609 55.2136C323.952 55.2136 324.218 55.31 324.406 55.5027C324.593 55.6954 324.687 55.9376 324.687 56.2292C324.687 56.5157 324.593 56.7553 324.406 56.948C324.218 57.1355 323.952 57.2292 323.609 57.2292C323.265 57.2292 322.999 57.1355 322.812 56.948C322.629 56.7553 322.538 56.5157 322.538 56.2292ZM330.101 65.5183C330.575 65.5183 330.968 65.3803 331.281 65.1042C331.593 64.8282 331.76 64.4871 331.781 64.0808H333.57C333.549 64.6069 333.385 65.099 333.077 65.5574C332.77 66.0105 332.353 66.3699 331.827 66.6355C331.301 66.9011 330.734 67.0339 330.124 67.0339C328.942 67.0339 328.004 66.6511 327.312 65.8855C326.619 65.1199 326.273 64.0626 326.273 62.7136V62.5183C326.273 61.2319 326.616 60.2032 327.304 59.4324C327.991 58.6563 328.929 58.2683 330.116 58.2683C331.122 58.2683 331.939 58.5626 332.57 59.1511C333.205 59.7345 333.538 60.5027 333.57 61.4558H331.781C331.76 60.9714 331.593 60.573 331.281 60.2605C330.973 59.948 330.58 59.7917 330.101 59.7917C329.486 59.7917 329.012 60.0157 328.679 60.4636C328.346 60.9063 328.176 61.5808 328.171 62.4871V62.7917C328.171 63.7084 328.335 64.3933 328.663 64.8464C328.997 65.2944 329.476 65.5183 330.101 65.5183ZM339.429 60.1589C339.179 60.1173 338.921 60.0964 338.656 60.0964C337.786 60.0964 337.2 60.4298 336.898 61.0964V66.8777H334.999V58.4246H336.812L336.859 59.3699C337.317 58.6355 337.952 58.2683 338.765 58.2683C339.036 58.2683 339.26 58.3048 339.437 58.3777L339.429 60.1589ZM339.991 62.573C339.991 61.7449 340.156 61.0001 340.484 60.3386C340.812 59.672 341.273 59.1615 341.866 58.8074C342.46 58.448 343.142 58.2683 343.913 58.2683C345.054 58.2683 345.978 58.6355 346.687 59.3699C347.4 60.1042 347.786 61.0782 347.843 62.2917L347.851 62.7371C347.851 63.5704 347.689 64.3152 347.366 64.9714C347.049 65.6277 346.59 66.1355 345.991 66.4949C345.398 66.8542 344.71 67.0339 343.929 67.0339C342.736 67.0339 341.781 66.6381 341.062 65.8464C340.348 65.0496 339.991 63.9897 339.991 62.6667V62.573ZM341.89 62.7371C341.89 63.6069 342.07 64.2891 342.429 64.7839C342.788 65.2735 343.288 65.5183 343.929 65.5183C344.57 65.5183 345.067 65.2683 345.421 64.7683C345.781 64.2683 345.96 63.5365 345.96 62.573C345.96 61.7188 345.775 61.0417 345.406 60.5417C345.041 60.0417 344.544 59.7917 343.913 59.7917C343.294 59.7917 342.801 60.0391 342.437 60.5339C342.072 61.0235 341.89 61.7579 341.89 62.7371ZM350.124 66.8777V59.8308H348.835V58.4246H350.124V57.6511C350.124 56.7136 350.385 55.9897 350.906 55.4792C351.426 54.9688 352.156 54.7136 353.093 54.7136C353.426 54.7136 353.781 54.7605 354.156 54.8542L354.109 56.3386C353.9 56.297 353.658 56.2761 353.382 56.2761C352.476 56.2761 352.023 56.7423 352.023 57.6746V58.4246H353.741V59.8308H352.023V66.8777H350.124ZM360.179 66.8777C360.096 66.7162 360.023 66.4532 359.96 66.0886C359.356 66.7188 358.616 67.0339 357.741 67.0339C356.892 67.0339 356.2 66.7917 355.663 66.3074C355.127 65.823 354.859 65.224 354.859 64.5105C354.859 63.6095 355.192 62.9194 355.859 62.4402C356.531 61.9558 357.489 61.7136 358.734 61.7136H359.898V61.1589C359.898 60.7214 359.775 60.3725 359.531 60.1121C359.286 59.8464 358.913 59.7136 358.413 59.7136C357.981 59.7136 357.627 59.823 357.351 60.0417C357.075 60.2553 356.937 60.5287 356.937 60.8621H355.038C355.038 60.3985 355.192 59.9662 355.499 59.5652C355.807 59.1589 356.223 58.8412 356.749 58.6121C357.281 58.3829 357.872 58.2683 358.523 58.2683C359.512 58.2683 360.301 58.5183 360.89 59.0183C361.478 59.5131 361.781 60.211 361.796 61.1121V64.9246C361.796 65.685 361.903 66.2917 362.116 66.7449V66.8777H360.179ZM358.093 65.5105C358.468 65.5105 358.82 65.4194 359.148 65.2371C359.481 65.0548 359.731 64.81 359.898 64.5027V62.9089H358.874C358.171 62.9089 357.642 63.0313 357.288 63.2761C356.934 63.5209 356.757 63.8673 356.757 64.3152C356.757 64.6798 356.877 64.9714 357.116 65.1902C357.361 65.4037 357.687 65.5105 358.093 65.5105ZM368.21 60.1589C367.96 60.1173 367.702 60.0964 367.437 60.0964C366.567 60.0964 365.981 60.4298 365.679 61.0964V66.8777H363.781V58.4246H365.593L365.64 59.3699C366.098 58.6355 366.734 58.2683 367.546 58.2683C367.817 58.2683 368.041 58.3048 368.218 58.3777L368.21 60.1589ZM374.226 66.8777C374.142 66.7162 374.07 66.4532 374.007 66.0886C373.403 66.7188 372.663 67.0339 371.788 67.0339C370.939 67.0339 370.247 66.7917 369.71 66.3074C369.174 65.823 368.906 65.224 368.906 64.5105C368.906 63.6095 369.239 62.9194 369.906 62.4402C370.577 61.9558 371.536 61.7136 372.781 61.7136H373.945V61.1589C373.945 60.7214 373.822 60.3725 373.577 60.1121C373.333 59.8464 372.96 59.7136 372.46 59.7136C372.028 59.7136 371.674 59.823 371.398 60.0417C371.122 60.2553 370.984 60.5287 370.984 60.8621H369.085C369.085 60.3985 369.239 59.9662 369.546 59.5652C369.853 59.1589 370.27 58.8412 370.796 58.6121C371.327 58.3829 371.919 58.2683 372.57 58.2683C373.559 58.2683 374.348 58.5183 374.937 59.0183C375.525 59.5131 375.827 60.211 375.843 61.1121V64.9246C375.843 65.685 375.95 66.2917 376.163 66.7449V66.8777H374.226ZM372.14 65.5105C372.515 65.5105 372.866 65.4194 373.195 65.2371C373.528 65.0548 373.778 64.81 373.945 64.5027V62.9089H372.921C372.218 62.9089 371.689 63.0313 371.335 63.2761C370.981 63.5209 370.804 63.8673 370.804 64.3152C370.804 64.6798 370.924 64.9714 371.163 65.1902C371.408 65.4037 371.734 65.5105 372.14 65.5105ZM377.476 62.5886C377.476 61.2865 377.778 60.2423 378.382 59.4558C378.986 58.6641 379.796 58.2683 380.812 58.2683C381.708 58.2683 382.432 58.5808 382.984 59.2058V54.8777H384.882V66.8777H383.163L383.07 66.0027C382.502 66.6902 381.744 67.0339 380.796 67.0339C379.807 67.0339 379.004 66.6355 378.39 65.8386C377.781 65.0417 377.476 63.9584 377.476 62.5886ZM379.374 62.7527C379.374 63.6121 379.538 64.2839 379.866 64.7683C380.2 65.2475 380.671 65.4871 381.281 65.4871C382.057 65.4871 382.624 65.1407 382.984 64.448V60.8386C382.635 60.1615 382.072 59.823 381.296 59.823C380.682 59.823 380.208 60.0678 379.874 60.5574C379.541 61.0417 379.374 61.7735 379.374 62.7527ZM387.132 69.4402L386.109 68.8308C386.411 68.3569 386.616 67.9428 386.726 67.5886C386.84 67.2397 386.9 66.8829 386.906 66.5183V65.0417H388.616L388.609 66.4089C388.603 66.961 388.463 67.5131 388.187 68.0652C387.916 68.6225 387.564 69.0808 387.132 69.4402ZM398.749 60.6199H401.718V62.3542H398.749V65.7371H396.906V62.3542H393.921V60.6199H396.906V57.4558H398.749V60.6199ZM406.968 62.8074H402.866V61.2761H406.968V62.8074ZM413.554 66.8777H411.663V57.7449L408.874 58.698V57.0964L413.312 55.4636H413.554V66.8777ZM418.015 61.2371L418.632 55.5027H424.741V57.1433H420.21L419.898 59.8621C420.424 59.56 421.017 59.4089 421.679 59.4089C422.762 59.4089 423.603 59.7553 424.202 60.448C424.807 61.1407 425.109 62.073 425.109 63.2449C425.109 64.4011 424.775 65.323 424.109 66.0105C423.442 66.6928 422.528 67.0339 421.366 67.0339C420.325 67.0339 419.46 66.7397 418.773 66.1511C418.09 65.5574 417.721 64.7761 417.663 63.8074H419.499C419.572 64.3595 419.77 64.7839 420.093 65.0808C420.416 65.3725 420.838 65.5183 421.359 65.5183C421.942 65.5183 422.395 65.31 422.718 64.8933C423.046 64.4766 423.21 63.9089 423.21 63.1902C423.21 62.4975 423.031 61.9506 422.671 61.5496C422.312 61.1433 421.817 60.9402 421.187 60.9402C420.843 60.9402 420.551 60.9871 420.312 61.0808C420.072 61.1694 419.812 61.3464 419.531 61.6121L418.015 61.2371ZM426.523 57.6902C426.523 57.0027 426.744 56.4402 427.187 56.0027C427.629 55.56 428.21 55.3386 428.929 55.3386C429.658 55.3386 430.241 55.56 430.679 56.0027C431.122 56.4402 431.343 57.0157 431.343 57.7292V58.2917C431.343 58.974 431.122 59.5339 430.679 59.9714C430.241 60.4089 429.663 60.6277 428.945 60.6277C428.241 60.6277 427.661 60.4141 427.202 59.9871C426.749 59.5548 426.523 58.974 426.523 58.2449V57.6902ZM427.851 58.2917C427.851 58.6511 427.95 58.9428 428.148 59.1667C428.351 59.3855 428.616 59.4949 428.945 59.4949C429.267 59.4949 429.528 59.3855 429.726 59.1667C429.924 58.9428 430.023 58.6407 430.023 58.2605V57.6902C430.023 57.3308 429.921 57.0391 429.718 56.8152C429.52 56.5912 429.257 56.4792 428.929 56.4792C428.601 56.4792 428.338 56.5938 428.14 56.823C427.947 57.047 427.851 57.3438 427.851 57.7136V58.2917ZM431.991 64.0886C431.991 63.3907 432.218 62.8256 432.671 62.3933C433.124 61.961 433.702 61.7449 434.406 61.7449C435.114 61.7449 435.692 61.961 436.14 62.3933C436.593 62.8256 436.82 63.4089 436.82 64.1433V64.698C436.82 65.3751 436.601 65.935 436.163 66.3777C435.731 66.8152 435.15 67.0339 434.421 67.0339C433.692 67.0339 433.103 66.8178 432.656 66.3855C432.213 65.948 431.991 65.3725 431.991 64.6589V64.0886ZM433.32 64.698C433.32 65.0522 433.421 65.3438 433.624 65.573C433.833 65.797 434.098 65.9089 434.421 65.9089C434.754 65.9089 435.015 65.8022 435.202 65.5886C435.395 65.3699 435.491 65.0652 435.491 64.6746V64.0886C435.491 63.724 435.39 63.4324 435.187 63.2136C434.984 62.9949 434.723 62.8855 434.406 62.8855C434.083 62.8855 433.82 62.9949 433.616 63.2136C433.419 63.4324 433.32 63.7345 433.32 64.1199V64.698ZM429.335 66.0261L428.359 65.4636L433.913 56.573L434.89 57.1355L429.335 66.0261ZM438.741 69.4402L437.718 68.8308C438.02 68.3569 438.226 67.9428 438.335 67.5886C438.45 67.2397 438.51 66.8829 438.515 66.5183V65.0417H440.226L440.218 66.4089C440.213 66.961 440.072 67.5131 439.796 68.0652C439.525 68.6225 439.174 69.0808 438.741 69.4402ZM453.265 62.0886C453.265 63.724 452.958 64.9584 452.343 65.7917C451.734 66.6199 450.804 67.0339 449.554 67.0339C448.325 67.0339 447.398 66.6303 446.773 65.823C446.153 65.0105 445.835 63.81 445.82 62.2214V60.2527C445.82 58.6173 446.124 57.3907 446.734 56.573C447.348 55.7553 448.283 55.3464 449.538 55.3464C450.783 55.3464 451.71 55.7449 452.32 56.5417C452.934 57.3386 453.249 58.5313 453.265 60.1199V62.0886ZM451.366 59.9636C451.366 58.8959 451.221 58.1147 450.929 57.6199C450.637 57.1199 450.174 56.8699 449.538 56.8699C448.919 56.8699 448.463 57.1069 448.171 57.5808C447.879 58.0496 447.726 58.7839 447.71 59.7839V62.3621C447.71 63.4246 447.859 64.2162 448.156 64.7371C448.452 65.2579 448.919 65.5183 449.554 65.5183C450.163 65.5183 450.614 65.2787 450.906 64.7996C451.197 64.3152 451.351 63.56 451.366 62.5339V59.9636ZM456.249 64.8777C456.603 64.8777 456.877 64.9792 457.07 65.1824C457.262 65.3803 457.359 65.6303 457.359 65.9324C457.359 66.2292 457.262 66.4766 457.07 66.6746C456.877 66.8673 456.603 66.9636 456.249 66.9636C455.911 66.9636 455.642 66.8673 455.445 66.6746C455.247 66.4819 455.148 66.2345 455.148 65.9324C455.148 65.6303 455.244 65.3803 455.437 65.1824C455.629 64.9792 455.9 64.8777 456.249 64.8777ZM467.062 66.8777H459.413V65.573L463.202 61.4402C463.749 60.8308 464.137 60.323 464.366 59.9167C464.601 59.5053 464.718 59.0938 464.718 58.6824C464.718 58.1407 464.564 57.7032 464.257 57.3699C463.955 57.0365 463.546 56.8699 463.031 56.8699C462.416 56.8699 461.939 57.0574 461.601 57.4324C461.262 57.8074 461.093 58.3204 461.093 58.9714H459.195C459.195 58.2787 459.351 57.6563 459.663 57.1042C459.981 56.547 460.432 56.1147 461.015 55.8074C461.603 55.5001 462.281 55.3464 463.046 55.3464C464.15 55.3464 465.02 55.6251 465.656 56.1824C466.296 56.7345 466.616 57.5001 466.616 58.4792C466.616 59.047 466.455 59.6433 466.132 60.2683C465.814 60.8881 465.291 61.5938 464.562 62.3855L461.781 65.3621H467.062V66.8777ZM469.015 61.2371L469.632 55.5027H475.741V57.1433H471.21L470.898 59.8621C471.424 59.56 472.017 59.4089 472.679 59.4089C473.762 59.4089 474.603 59.7553 475.202 60.448C475.807 61.1407 476.109 62.073 476.109 63.2449C476.109 64.4011 475.775 65.323 475.109 66.0105C474.442 66.6928 473.528 67.0339 472.366 67.0339C471.325 67.0339 470.46 66.7397 469.773 66.1511C469.09 65.5574 468.721 64.7761 468.663 63.8074H470.499C470.572 64.3595 470.77 64.7839 471.093 65.0808C471.416 65.3725 471.838 65.5183 472.359 65.5183C472.942 65.5183 473.395 65.31 473.718 64.8933C474.046 64.4766 474.21 63.9089 474.21 63.1902C474.21 62.4975 474.031 61.9506 473.671 61.5496C473.312 61.1433 472.817 60.9402 472.187 60.9402C471.843 60.9402 471.551 60.9871 471.312 61.0808C471.072 61.1694 470.812 61.3464 470.531 61.6121L469.015 61.2371ZM486.827 64.0652L488.577 55.5027H490.538L487.913 66.8777H486.023L483.859 58.573L481.648 66.8777H479.749L477.124 55.5027H479.085L480.851 64.0496L483.023 55.5027H484.679L486.827 64.0652ZM490.945 69.4402L489.921 68.8308C490.223 68.3569 490.429 67.9428 490.538 67.5886C490.653 67.2397 490.713 66.8829 490.718 66.5183V65.0417H492.429L492.421 66.4089C492.416 66.961 492.275 67.5131 491.999 68.0652C491.728 68.6225 491.377 69.0808 490.945 69.4402ZM502.538 62.4949H500.335V66.8777H498.359V55.5027H502.359C503.671 55.5027 504.684 55.797 505.398 56.3855C506.111 56.974 506.468 57.8256 506.468 58.9402C506.468 59.7006 506.283 60.3386 505.913 60.8542C505.549 61.3647 505.038 61.7579 504.382 62.0339L506.937 66.7761V66.8777H504.82L502.538 62.4949ZM500.335 60.9089H502.366C503.033 60.9089 503.554 60.7423 503.929 60.4089C504.304 60.0704 504.491 59.6095 504.491 59.0261C504.491 58.4167 504.317 57.9454 503.968 57.6121C503.624 57.2787 503.109 57.1069 502.421 57.0964H500.335V60.9089ZM511.882 67.0339C510.679 67.0339 509.702 66.6563 508.952 65.9011C508.208 65.1407 507.835 64.1303 507.835 62.8699V62.6355C507.835 61.7917 507.997 61.0391 508.32 60.3777C508.648 59.711 509.106 59.1928 509.695 58.823C510.283 58.4532 510.939 58.2683 511.663 58.2683C512.814 58.2683 513.702 58.6355 514.327 59.3699C514.958 60.1042 515.273 61.1433 515.273 62.4871V63.2527H509.749C509.807 63.9506 510.038 64.5027 510.445 64.9089C510.856 65.3152 511.372 65.5183 511.991 65.5183C512.861 65.5183 513.57 65.1667 514.116 64.4636L515.14 65.4402C514.801 65.9454 514.348 66.3386 513.781 66.6199C513.218 66.8959 512.585 67.0339 511.882 67.0339ZM511.656 59.7917C511.135 59.7917 510.713 59.974 510.39 60.3386C510.072 60.7032 509.869 61.211 509.781 61.8621H513.398V61.7214C513.356 61.086 513.187 60.6069 512.89 60.2839C512.593 59.9558 512.182 59.7917 511.656 59.7917ZM520.476 67.0339C519.273 67.0339 518.296 66.6563 517.546 65.9011C516.801 65.1407 516.429 64.1303 516.429 62.8699V62.6355C516.429 61.7917 516.59 61.0391 516.913 60.3777C517.241 59.711 517.7 59.1928 518.288 58.823C518.877 58.4532 519.533 58.2683 520.257 58.2683C521.408 58.2683 522.296 58.6355 522.921 59.3699C523.551 60.1042 523.866 61.1433 523.866 62.4871V63.2527H518.343C518.4 63.9506 518.632 64.5027 519.038 64.9089C519.45 65.3152 519.965 65.5183 520.585 65.5183C521.455 65.5183 522.163 65.1667 522.71 64.4636L523.734 65.4402C523.395 65.9454 522.942 66.3386 522.374 66.6199C521.812 66.8959 521.179 67.0339 520.476 67.0339ZM520.249 59.7917C519.728 59.7917 519.307 59.974 518.984 60.3386C518.666 60.7032 518.463 61.211 518.374 61.8621H521.991V61.7214C521.95 61.086 521.781 60.6069 521.484 60.2839C521.187 59.9558 520.775 59.7917 520.249 59.7917ZM527.366 66.8777H525.468V54.8777H527.366V66.8777ZM529.71 69.4402L528.687 68.8308C528.989 68.3569 529.195 67.9428 529.304 67.5886C529.419 67.2397 529.478 66.8829 529.484 66.5183V65.0417H531.195L531.187 66.4089C531.182 66.961 531.041 67.5131 530.765 68.0652C530.494 68.6225 530.142 69.0808 529.71 69.4402ZM540.663 67.0339C539.46 67.0339 538.484 66.6563 537.734 65.9011C536.989 65.1407 536.616 64.1303 536.616 62.8699V62.6355C536.616 61.7917 536.778 61.0391 537.101 60.3777C537.429 59.711 537.887 59.1928 538.476 58.823C539.064 58.4532 539.721 58.2683 540.445 58.2683C541.596 58.2683 542.484 58.6355 543.109 59.3699C543.739 60.1042 544.054 61.1433 544.054 62.4871V63.2527H538.531C538.588 63.9506 538.82 64.5027 539.226 64.9089C539.637 65.3152 540.153 65.5183 540.773 65.5183C541.642 65.5183 542.351 65.1667 542.898 64.4636L543.921 65.4402C543.583 65.9454 543.129 66.3386 542.562 66.6199C541.999 66.8959 541.366 67.0339 540.663 67.0339ZM540.437 59.7917C539.916 59.7917 539.494 59.974 539.171 60.3386C538.853 60.7032 538.65 61.211 538.562 61.8621H542.179V61.7214C542.137 61.086 541.968 60.6069 541.671 60.2839C541.374 59.9558 540.963 59.7917 540.437 59.7917ZM547.913 56.3699V58.4246H549.406V59.8308H547.913V64.5496C547.913 64.8725 547.976 65.1069 548.101 65.2527C548.231 65.3933 548.46 65.4636 548.788 65.4636C549.007 65.4636 549.228 65.4376 549.452 65.3855V66.8542C549.02 66.974 548.603 67.0339 548.202 67.0339C546.744 67.0339 546.015 66.2292 546.015 64.6199V59.8308H544.624V58.4246H546.015V56.3699H547.913ZM554.335 65.5183C554.809 65.5183 555.202 65.3803 555.515 65.1042C555.827 64.8282 555.994 64.4871 556.015 64.0808H557.804C557.783 64.6069 557.619 65.099 557.312 65.5574C557.004 66.0105 556.588 66.3699 556.062 66.6355C555.536 66.9011 554.968 67.0339 554.359 67.0339C553.176 67.0339 552.239 66.6511 551.546 65.8855C550.853 65.1199 550.507 64.0626 550.507 62.7136V62.5183C550.507 61.2319 550.851 60.2032 551.538 59.4324C552.226 58.6563 553.163 58.2683 554.351 58.2683C555.356 58.2683 556.174 58.5626 556.804 59.1511C557.439 59.7345 557.773 60.5027 557.804 61.4558H556.015C555.994 60.9714 555.827 60.573 555.515 60.2605C555.208 59.948 554.814 59.7917 554.335 59.7917C553.721 59.7917 553.247 60.0157 552.913 60.4636C552.58 60.9063 552.411 61.5808 552.406 62.4871V62.7917C552.406 63.7084 552.57 64.3933 552.898 64.8464C553.231 65.2944 553.71 65.5183 554.335 65.5183ZM560.421 64.8777C560.775 64.8777 561.049 64.9792 561.241 65.1824C561.434 65.3803 561.531 65.6303 561.531 65.9324C561.531 66.2292 561.434 66.4766 561.241 66.6746C561.049 66.8673 560.775 66.9636 560.421 66.9636C560.083 66.9636 559.814 66.8673 559.616 66.6746C559.419 66.4819 559.32 66.2345 559.32 65.9324C559.32 65.6303 559.416 65.3803 559.609 65.1824C559.801 64.9792 560.072 64.8777 560.421 64.8777Z" fill="black"/>
<path d="M13.0641 23.8058V11.0089H17.5466C19.0993 11.0089 20.277 11.3077 21.0798 11.9054C21.8825 12.4972 22.2839 13.3673 22.2839 14.5157C22.2839 15.1427 22.1227 15.6964 21.8005 16.1769C21.4782 16.6515 21.03 17.0001 20.4557 17.2228C21.112 17.3868 21.6276 17.7179 22.0026 18.2159C22.3835 18.714 22.5739 19.3234 22.5739 20.0441C22.5739 21.2745 22.1813 22.2062 21.3962 22.839C20.611 23.4718 19.4919 23.7941 18.0388 23.8058H13.0641ZM15.7009 18.2335V21.6876H17.9597C18.5807 21.6876 19.0641 21.5411 19.4099 21.2482C19.7614 20.9493 19.9372 20.5392 19.9372 20.0177C19.9372 18.8458 19.3307 18.2511 18.1179 18.2335H15.7009ZM15.7009 16.3702H17.652C18.9821 16.3468 19.6472 15.8165 19.6472 14.7794C19.6472 14.1993 19.4772 13.7833 19.1374 13.5314C18.8034 13.2736 18.2731 13.1447 17.5466 13.1447H15.7009V16.3702ZM34.2458 11.0089V19.4376C34.2458 20.838 33.8063 21.9454 32.9274 22.7599C32.0544 23.5743 30.8591 23.9816 29.3415 23.9816C27.8474 23.9816 26.6608 23.5861 25.7819 22.795C24.903 22.004 24.4548 20.9171 24.4372 19.5343V11.0089H27.0739V19.4552C27.0739 20.2931 27.2731 20.9054 27.6716 21.2921C28.0759 21.673 28.6325 21.8634 29.3415 21.8634C30.8239 21.8634 31.5768 21.0841 31.6003 19.5255V11.0089H34.2458ZM40.82 16.7745L43.4831 11.0089H46.3659L42.1647 19.1652V23.8058H39.4841V19.1652L35.2829 11.0089H38.1745L40.82 16.7745ZM54.654 19.297V23.8058H52.0173V11.0089H57.0095C57.9704 11.0089 58.8141 11.1847 59.5407 11.5363C60.2731 11.8878 60.8356 12.3888 61.2282 13.0392C61.6208 13.6837 61.8171 14.4191 61.8171 15.2452C61.8171 16.4991 61.3864 17.4894 60.5251 18.2159C59.6696 18.9366 58.4831 19.297 56.9655 19.297H54.654ZM54.654 17.1613H57.0095C57.7067 17.1613 58.237 16.9972 58.6003 16.6691C58.9694 16.3409 59.154 15.8722 59.154 15.2628C59.154 14.6359 58.9694 14.129 58.6003 13.7423C58.2311 13.3556 57.7214 13.1564 57.071 13.1447H54.654V17.1613ZM68.8747 23.8058C68.7575 23.5773 68.6725 23.2931 68.6198 22.9532C68.0046 23.6388 67.2048 23.9816 66.2204 23.9816C65.2888 23.9816 64.5153 23.712 63.9001 23.173C63.2907 22.6339 62.986 21.9542 62.986 21.1339C62.986 20.1261 63.3581 19.3527 64.1022 18.8136C64.8522 18.2745 65.9333 18.0021 67.3454 17.9962H68.5143V17.4513C68.5143 17.0118 68.4001 16.6603 68.1716 16.3966C67.9489 16.1329 67.5944 16.0011 67.1081 16.0011C66.6804 16.0011 66.3434 16.1036 66.0974 16.3087C65.8571 16.5138 65.737 16.795 65.737 17.1525H63.197C63.197 16.6017 63.3669 16.0919 63.7067 15.6232C64.0466 15.1544 64.527 14.7882 65.1481 14.5245C65.7692 14.255 66.4665 14.1202 67.2399 14.1202C68.4118 14.1202 69.3405 14.4161 70.0261 15.0079C70.7175 15.5939 71.0632 16.42 71.0632 17.4865V21.6085C71.069 22.5109 71.195 23.1935 71.4411 23.6564V23.8058H68.8747ZM66.7741 22.0392C67.1491 22.0392 67.4948 21.9572 67.8112 21.7931C68.1276 21.6232 68.362 21.3976 68.5143 21.1163V19.4816H67.5651C66.2936 19.4816 65.6169 19.921 65.5349 20.7999L65.5261 20.9493C65.5261 21.2657 65.6374 21.5265 65.86 21.7316C66.0827 21.9366 66.3874 22.0392 66.7741 22.0392ZM78.3581 16.6779C78.0124 16.631 77.7077 16.6075 77.444 16.6075C76.4831 16.6075 75.8532 16.9327 75.5544 17.5831V23.8058H73.0143V14.296H75.4138L75.4841 15.4298C75.9938 14.5568 76.6999 14.1202 77.6022 14.1202C77.8835 14.1202 78.1472 14.1583 78.3932 14.2345L78.3581 16.6779ZM83.069 11.9581V14.296H84.695V16.1593H83.069V20.9054C83.069 21.257 83.1364 21.5089 83.2712 21.6613C83.4059 21.8136 83.6638 21.8898 84.0446 21.8898C84.3259 21.8898 84.5749 21.8693 84.7917 21.8282V23.7531C84.2936 23.9054 83.7809 23.9816 83.2536 23.9816C81.4724 23.9816 80.5641 23.0822 80.529 21.2833V16.1593H79.1403V14.296H80.529V11.9581H83.069Z" fill="black"/>
</svg>
