<svg width="554" height="212" viewBox="0 0 554 212" fill="none" xmlns="http://www.w3.org/2000/svg">
<g style="mix-blend-mode:darken">
<path d="M3 0.5H551C552.381 0.5 553.5 1.61929 553.5 3V27C553.5 28.3807 552.381 29.5 551 29.5H2.99999C1.61928 29.5 0.5 28.3807 0.5 27V3C0.5 1.61929 1.61929 0.5 3 0.5Z" fill="#FFFF6A" fill-opacity="0.8"/>
<path d="M3 0.5H551C552.381 0.5 553.5 1.61929 553.5 3V27C553.5 28.3807 552.381 29.5 551 29.5H2.99999C1.61928 29.5 0.5 28.3807 0.5 27V3C0.5 1.61929 1.61929 0.5 3 0.5Z" stroke="#4F4F4F"/>
</g>
<g style="mix-blend-mode:darken">
<path d="M245.056 37.5707C245.056 36.19 246.175 35.0707 247.556 35.0707H551C552.381 35.0707 553.5 36.19 553.5 37.5707V69.7718C553.5 71.1525 552.381 72.2718 551 72.2718H247.556C246.175 72.2718 245.056 71.1525 245.056 69.7718V37.5707Z" fill="white" fill-opacity="0.8"/>
<path d="M245.056 37.5707C245.056 36.19 246.175 35.0707 247.556 35.0707H551C552.381 35.0707 553.5 36.19 553.5 37.5707V69.7718C553.5 71.1525 552.381 72.2718 551 72.2718H247.556C246.175 72.2718 245.056 71.1525 245.056 69.7718V37.5707Z" stroke="#4F4F4F"/>
</g>
<path d="M258.303 54.3802C258.303 55.8112 258.034 56.8913 257.496 57.6205C256.963 58.3451 256.149 58.7074 255.056 58.7074C253.98 58.7074 253.169 58.3542 252.622 57.6478C252.08 56.9369 251.802 55.8864 251.788 54.4965V52.7738C251.788 51.3428 252.055 50.2696 252.588 49.5541C253.126 48.8386 253.944 48.4808 255.042 48.4808C256.131 48.4808 256.942 48.8295 257.475 49.5267C258.013 50.224 258.289 51.2676 258.303 52.6576V54.3802ZM256.641 52.5209C256.641 51.5866 256.514 50.903 256.259 50.4701C256.003 50.0326 255.598 49.8138 255.042 49.8138C254.5 49.8138 254.101 50.0212 253.846 50.4359C253.59 50.8461 253.456 51.4886 253.442 52.3636V54.6195C253.442 55.5492 253.572 56.2419 253.832 56.6976C254.092 57.1534 254.5 57.3812 255.056 57.3812C255.589 57.3812 255.983 57.1716 256.238 56.7523C256.493 56.3285 256.628 55.6677 256.641 54.7699V52.5209ZM260.914 56.8207C261.224 56.8207 261.463 56.9095 261.632 57.0873C261.8 57.2605 261.885 57.4792 261.885 57.7435C261.885 58.0033 261.8 58.2198 261.632 58.3929C261.463 58.5616 261.224 58.6459 260.914 58.6459C260.618 58.6459 260.383 58.5616 260.21 58.3929C260.037 58.2243 259.95 58.0079 259.95 57.7435C259.95 57.4792 260.034 57.2605 260.203 57.0873C260.372 56.9095 260.609 56.8207 260.914 56.8207ZM270.17 54.3802C270.17 55.8112 269.901 56.8913 269.363 57.6205C268.83 58.3451 268.016 58.7074 266.923 58.7074C265.847 58.7074 265.036 58.3542 264.489 57.6478C263.947 56.9369 263.669 55.8864 263.655 54.4965V52.7738C263.655 51.3428 263.922 50.2696 264.455 49.5541C264.993 48.8386 265.811 48.4808 266.909 48.4808C267.998 48.4808 268.809 48.8295 269.343 49.5267C269.88 50.224 270.156 51.2676 270.17 52.6576V54.3802ZM268.509 52.5209C268.509 51.5866 268.381 50.903 268.126 50.4701C267.871 50.0326 267.465 49.8138 266.909 49.8138C266.367 49.8138 265.968 50.0212 265.713 50.4359C265.458 50.8461 265.323 51.4886 265.309 52.3636V54.6195C265.309 55.5492 265.439 56.2419 265.699 56.6976C265.959 57.1534 266.367 57.3812 266.923 57.3812C267.456 57.3812 267.85 57.1716 268.105 56.7523C268.361 56.3285 268.495 55.6677 268.509 54.7699V52.5209ZM272.084 53.6351L272.624 48.6176H277.97V50.0531H274.005L273.731 52.432C274.192 52.1677 274.711 52.0355 275.29 52.0355C276.238 52.0355 276.974 52.3386 277.498 52.9447C278.027 53.5508 278.291 54.3666 278.291 55.392C278.291 56.4037 277.999 57.2103 277.416 57.8119C276.833 58.4089 276.033 58.7074 275.016 58.7074C274.105 58.7074 273.349 58.4499 272.747 57.9349C272.15 57.4154 271.826 56.7318 271.776 55.8842H273.383C273.446 56.3672 273.62 56.7386 273.902 56.9984C274.185 57.2536 274.554 57.3812 275.01 57.3812C275.52 57.3812 275.917 57.1989 276.199 56.8344C276.486 56.4698 276.63 55.973 276.63 55.3441C276.63 54.738 276.473 54.2595 276.158 53.9086C275.844 53.5531 275.411 53.3754 274.859 53.3754C274.558 53.3754 274.303 53.4164 274.094 53.4984C273.884 53.5759 273.656 53.7308 273.41 53.9633L272.084 53.6351ZM285.592 48.6176L288.463 56.2465L291.327 48.6176H293.562V58.5707H291.84V55.2894L292.011 50.9008L289.071 58.5707H287.834L284.901 50.9076L285.072 55.2894V58.5707H283.349V48.6176H285.592ZM297.22 58.5707H295.558V51.1742H297.22V58.5707ZM295.456 49.2533C295.456 48.9981 295.536 48.7862 295.695 48.6176C295.859 48.4489 296.092 48.3646 296.392 48.3646C296.693 48.3646 296.926 48.4489 297.09 48.6176C297.254 48.7862 297.336 48.9981 297.336 49.2533C297.336 49.5039 297.254 49.7136 297.09 49.8822C296.926 50.0463 296.693 50.1283 296.392 50.1283C296.092 50.1283 295.859 50.0463 295.695 49.8822C295.536 49.7136 295.456 49.5039 295.456 49.2533ZM302.073 57.3812C302.488 57.3812 302.832 57.2605 303.105 57.0189C303.379 56.7774 303.525 56.4789 303.543 56.1234H305.108C305.09 56.5837 304.946 57.0144 304.678 57.4154C304.409 57.8119 304.044 58.1263 303.584 58.3588C303.124 58.5912 302.627 58.7074 302.094 58.7074C301.059 58.7074 300.239 58.3724 299.633 57.7025C299.027 57.0326 298.724 56.1075 298.724 54.9271V54.7562C298.724 53.6306 299.024 52.7305 299.626 52.056C300.227 51.377 301.048 51.0375 302.087 51.0375C302.966 51.0375 303.682 51.295 304.233 51.8099C304.789 52.3204 305.081 52.9926 305.108 53.8265H303.543C303.525 53.4027 303.379 53.0541 303.105 52.7806C302.836 52.5072 302.492 52.3705 302.073 52.3705C301.535 52.3705 301.121 52.5664 300.829 52.9584C300.537 53.3457 300.389 53.9359 300.385 54.7289V54.9955C300.385 55.7976 300.528 56.3969 300.815 56.7933C301.107 57.1853 301.526 57.3812 302.073 57.3812ZM310.235 52.6918C310.016 52.6553 309.791 52.6371 309.558 52.6371C308.797 52.6371 308.285 52.9288 308.02 53.5121V58.5707H306.359V51.1742H307.945L307.986 52.0013C308.387 51.3588 308.943 51.0375 309.654 51.0375C309.891 51.0375 310.087 51.0694 310.242 51.1332L310.235 52.6918ZM310.727 54.8041C310.727 54.0795 310.871 53.4278 311.158 52.849C311.445 52.2657 311.849 51.8191 312.368 51.5092C312.888 51.1947 313.485 51.0375 314.159 51.0375C315.157 51.0375 315.966 51.3588 316.586 52.0013C317.21 52.6439 317.547 53.4961 317.598 54.558L317.604 54.9476C317.604 55.6768 317.463 56.3285 317.181 56.9027C316.903 57.4769 316.502 57.9213 315.977 58.2357C315.458 58.5502 314.856 58.7074 314.173 58.7074C313.129 58.7074 312.293 58.361 311.664 57.6683C311.04 56.9711 310.727 56.0437 310.727 54.8861V54.8041ZM312.389 54.9476C312.389 55.7087 312.546 56.3057 312.86 56.7386C313.175 57.167 313.612 57.3812 314.173 57.3812C314.733 57.3812 315.168 57.1625 315.478 56.725C315.793 56.2875 315.95 55.6472 315.95 54.8041C315.95 54.0567 315.788 53.4642 315.465 53.0267C315.146 52.5892 314.71 52.3705 314.159 52.3705C313.617 52.3705 313.186 52.587 312.867 53.0199C312.548 53.4483 312.389 54.0909 312.389 54.9476ZM319.594 58.5707V52.4047H318.466V51.1742H319.594V50.4974C319.594 49.6771 319.821 49.0437 320.277 48.597C320.733 48.1504 321.371 47.9271 322.191 47.9271C322.483 47.9271 322.793 47.9681 323.121 48.0502L323.08 49.349C322.898 49.3125 322.686 49.2943 322.444 49.2943C321.651 49.2943 321.255 49.7022 321.255 50.5179V51.1742H322.759V52.4047H321.255V58.5707H319.594ZM328.391 58.5707C328.319 58.4294 328.255 58.1993 328.2 57.8802C327.671 58.4317 327.024 58.7074 326.259 58.7074C325.516 58.7074 324.91 58.4955 324.44 58.0717C323.971 57.6478 323.736 57.1237 323.736 56.4994C323.736 55.711 324.028 55.1071 324.611 54.6879C325.199 54.264 326.038 54.0521 327.127 54.0521H328.145V53.5668C328.145 53.184 328.038 52.8786 327.824 52.6508C327.61 52.4183 327.284 52.3021 326.847 52.3021C326.468 52.3021 326.158 52.3978 325.917 52.5892C325.675 52.7761 325.555 53.0153 325.555 53.307H323.893C323.893 52.9014 324.028 52.5232 324.297 52.1722C324.566 51.8168 324.93 51.5388 325.391 51.3383C325.855 51.1377 326.373 51.0375 326.942 51.0375C327.808 51.0375 328.499 51.2562 329.014 51.6937C329.529 52.1267 329.793 52.7373 329.807 53.5258V56.8617C329.807 57.5271 329.9 58.058 330.087 58.4545V58.5707H328.391ZM326.566 57.3744C326.894 57.3744 327.202 57.2946 327.489 57.1351C327.781 56.9756 328 56.7614 328.145 56.4926V55.098H327.25C326.635 55.098 326.172 55.2051 325.862 55.4193C325.552 55.6335 325.397 55.9366 325.397 56.3285C325.397 56.6475 325.502 56.9027 325.712 57.0941C325.926 57.281 326.211 57.3744 326.566 57.3744ZM335.419 52.6918C335.2 52.6553 334.974 52.6371 334.742 52.6371C333.981 52.6371 333.468 52.9288 333.204 53.5121V58.5707H331.543V51.1742H333.129L333.17 52.0013C333.571 51.3588 334.127 51.0375 334.838 51.0375C335.075 51.0375 335.271 51.0694 335.426 51.1332L335.419 52.6918ZM340.682 58.5707C340.61 58.4294 340.546 58.1993 340.491 57.8802C339.962 58.4317 339.315 58.7074 338.55 58.7074C337.807 58.7074 337.201 58.4955 336.731 58.0717C336.262 57.6478 336.027 57.1237 336.027 56.4994C336.027 55.711 336.319 55.1071 336.902 54.6879C337.49 54.264 338.329 54.0521 339.418 54.0521H340.436V53.5668C340.436 53.184 340.329 52.8786 340.115 52.6508C339.901 52.4183 339.575 52.3021 339.138 52.3021C338.759 52.3021 338.449 52.3978 338.208 52.5892C337.966 52.7761 337.846 53.0153 337.846 53.307H336.184C336.184 52.9014 336.319 52.5232 336.588 52.1722C336.857 51.8168 337.221 51.5388 337.682 51.3383C338.146 51.1377 338.664 51.0375 339.233 51.0375C340.099 51.0375 340.79 51.2562 341.305 51.6937C341.82 52.1267 342.084 52.7373 342.098 53.5258V56.8617C342.098 57.5271 342.191 58.058 342.378 58.4545V58.5707H340.682ZM338.857 57.3744C339.185 57.3744 339.493 57.2946 339.78 57.1351C340.072 56.9756 340.291 56.7614 340.436 56.4926V55.098H339.541C338.926 55.098 338.463 55.2051 338.153 55.4193C337.843 55.6335 337.688 55.9366 337.688 56.3285C337.688 56.6475 337.793 56.9027 338.003 57.0941C338.217 57.281 338.502 57.3744 338.857 57.3744ZM343.526 54.8177C343.526 53.6784 343.791 52.7647 344.319 52.0765C344.848 51.3838 345.557 51.0375 346.445 51.0375C347.229 51.0375 347.863 51.3109 348.346 51.8578V48.0707H350.007V58.5707H348.503L348.421 57.8051C347.924 58.4066 347.261 58.7074 346.432 58.7074C345.566 58.7074 344.864 58.3588 344.326 57.6615C343.793 56.9642 343.526 56.0163 343.526 54.8177ZM345.187 54.9613C345.187 55.7133 345.331 56.3011 345.618 56.725C345.91 57.1442 346.322 57.3539 346.855 57.3539C347.534 57.3539 348.031 57.0508 348.346 56.4447V53.2865C348.04 52.6941 347.548 52.3978 346.869 52.3978C346.331 52.3978 345.917 52.612 345.625 53.0404C345.333 53.4642 345.187 54.1045 345.187 54.9613ZM351.975 60.8129L351.08 60.2797C351.344 59.8649 351.524 59.5026 351.62 59.1927C351.72 58.8874 351.773 58.5752 351.777 58.2562V56.9642H353.274L353.267 58.1605C353.263 58.6436 353.14 59.1267 352.898 59.6097C352.661 60.0974 352.354 60.4984 351.975 60.8129ZM362.141 53.0951H364.738V54.6127H362.141V57.5726H360.527V54.6127H357.916V53.0951H360.527V50.3265H362.141V53.0951ZM369.332 55.0092H365.743V53.6693H369.332V55.0092ZM375.095 58.5707H373.44V50.5795L371 51.4135V50.0121L374.883 48.5834H375.095V58.5707ZM378.998 53.6351L379.538 48.6176H384.884V50.0531H380.919L380.645 52.432C381.106 52.1677 381.625 52.0355 382.204 52.0355C383.152 52.0355 383.888 52.3386 384.412 52.9447C384.941 53.5508 385.205 54.3666 385.205 55.392C385.205 56.4037 384.913 57.2103 384.33 57.8119C383.747 58.4089 382.947 58.7074 381.931 58.7074C381.019 58.7074 380.263 58.4499 379.661 57.9349C379.064 57.4154 378.74 56.7318 378.69 55.8842H380.297C380.361 56.3672 380.534 56.7386 380.816 56.9984C381.099 57.2536 381.468 57.3812 381.924 57.3812C382.434 57.3812 382.831 57.1989 383.113 56.8344C383.4 56.4698 383.544 55.973 383.544 55.3441C383.544 54.738 383.387 54.2595 383.072 53.9086C382.758 53.5531 382.325 53.3754 381.773 53.3754C381.473 53.3754 381.217 53.4164 381.008 53.4984C380.798 53.5759 380.57 53.7308 380.324 53.9633L378.998 53.6351ZM386.442 50.5316C386.442 49.9301 386.636 49.4379 387.023 49.0551C387.411 48.6677 387.919 48.474 388.548 48.474C389.186 48.474 389.696 48.6677 390.079 49.0551C390.466 49.4379 390.66 49.9414 390.66 50.5658V51.058C390.66 51.655 390.466 52.1449 390.079 52.5277C389.696 52.9105 389.19 53.1019 388.561 53.1019C387.946 53.1019 387.438 52.9151 387.037 52.5414C386.641 52.1631 386.442 51.655 386.442 51.017V50.5316ZM387.604 51.058C387.604 51.3724 387.691 51.6276 387.864 51.8236C388.042 52.015 388.274 52.1107 388.561 52.1107C388.844 52.1107 389.072 52.015 389.245 51.8236C389.418 51.6276 389.505 51.3633 389.505 51.0306V50.5316C389.505 50.2172 389.416 49.962 389.238 49.766C389.065 49.57 388.835 49.472 388.548 49.472C388.261 49.472 388.03 49.5723 387.857 49.7728C387.689 49.9688 387.604 50.2286 387.604 50.5521V51.058ZM391.227 56.1302C391.227 55.5196 391.426 55.0251 391.822 54.6469C392.219 54.2686 392.724 54.0795 393.34 54.0795C393.96 54.0795 394.465 54.2686 394.857 54.6469C395.254 55.0251 395.452 55.5355 395.452 56.1781V56.6635C395.452 57.2559 395.261 57.7458 394.878 58.1332C394.5 58.516 393.991 58.7074 393.353 58.7074C392.715 58.7074 392.2 58.5183 391.808 58.14C391.421 57.7572 391.227 57.2536 391.227 56.6293V56.1302ZM392.39 56.6635C392.39 56.9733 392.478 57.2286 392.656 57.4291C392.838 57.625 393.071 57.723 393.353 57.723C393.645 57.723 393.873 57.6296 394.037 57.4427C394.206 57.2513 394.29 56.9847 394.29 56.6429V56.1302C394.29 55.8112 394.201 55.556 394.023 55.3646C393.846 55.1732 393.618 55.0775 393.34 55.0775C393.057 55.0775 392.827 55.1732 392.649 55.3646C392.476 55.556 392.39 55.8204 392.39 56.1576V56.6635ZM388.903 57.8256L388.049 57.3334L392.909 49.5541L393.764 50.0463L388.903 57.8256ZM397.134 60.8129L396.238 60.2797C396.502 59.8649 396.682 59.5026 396.778 59.1927C396.878 58.8874 396.931 58.5752 396.935 58.2562V56.9642H398.432L398.426 58.1605C398.421 58.6436 398.298 59.1267 398.057 59.6097C397.82 60.0974 397.512 60.4984 397.134 60.8129ZM409.842 54.3802C409.842 55.8112 409.573 56.8913 409.035 57.6205C408.502 58.3451 407.688 58.7074 406.595 58.7074C405.519 58.7074 404.708 58.3542 404.161 57.6478C403.619 56.9369 403.341 55.8864 403.327 54.4965V52.7738C403.327 51.3428 403.594 50.2696 404.127 49.5541C404.665 48.8386 405.483 48.4808 406.581 48.4808C407.67 48.4808 408.481 48.8295 409.015 49.5267C409.552 50.224 409.828 51.2676 409.842 52.6576V54.3802ZM408.181 52.5209C408.181 51.5866 408.053 50.903 407.798 50.4701C407.543 50.0326 407.137 49.8138 406.581 49.8138C406.039 49.8138 405.64 50.0212 405.385 50.4359C405.129 50.8461 404.995 51.4886 404.981 52.3636V54.6195C404.981 55.5492 405.111 56.2419 405.371 56.6976C405.631 57.1534 406.039 57.3812 406.595 57.3812C407.128 57.3812 407.522 57.1716 407.777 56.7523C408.032 56.3285 408.167 55.6677 408.181 54.7699V52.5209ZM412.453 56.8207C412.763 56.8207 413.002 56.9095 413.171 57.0873C413.339 57.2605 413.424 57.4792 413.424 57.7435C413.424 58.0033 413.339 58.2198 413.171 58.3929C413.002 58.5616 412.763 58.6459 412.453 58.6459C412.157 58.6459 411.922 58.5616 411.749 58.3929C411.576 58.2243 411.489 58.0079 411.489 57.7435C411.489 57.4792 411.573 57.2605 411.742 57.0873C411.911 56.9095 412.148 56.8207 412.453 56.8207ZM421.914 58.5707H415.222V57.4291L418.537 53.8129C419.016 53.2797 419.355 52.8353 419.556 52.4799C419.761 52.1198 419.863 51.7598 419.863 51.3998C419.863 50.9258 419.729 50.543 419.46 50.2513C419.196 49.9597 418.838 49.8138 418.387 49.8138C417.849 49.8138 417.432 49.9779 417.136 50.306C416.839 50.6342 416.691 51.083 416.691 51.6527H415.03C415.03 51.0466 415.167 50.502 415.44 50.0189C415.718 49.5313 416.113 49.153 416.623 48.8842C417.138 48.6153 417.73 48.4808 418.4 48.4808C419.366 48.4808 420.127 48.7247 420.683 49.2123C421.244 49.6954 421.524 50.3653 421.524 51.222C421.524 51.7188 421.383 52.2406 421.1 52.7875C420.822 53.3298 420.364 53.9473 419.726 54.64L417.293 57.2445H421.914V58.5707ZM423.623 53.6351L424.163 48.6176H429.509V50.0531H425.544L425.27 52.432C425.731 52.1677 426.25 52.0355 426.829 52.0355C427.777 52.0355 428.513 52.3386 429.037 52.9447C429.566 53.5508 429.83 54.3666 429.83 55.392C429.83 56.4037 429.538 57.2103 428.955 57.8119C428.372 58.4089 427.572 58.7074 426.556 58.7074C425.644 58.7074 424.888 58.4499 424.286 57.9349C423.689 57.4154 423.365 56.7318 423.315 55.8842H424.922C424.986 56.3672 425.159 56.7386 425.441 56.9984C425.724 57.2536 426.093 57.3812 426.549 57.3812C427.059 57.3812 427.456 57.1989 427.738 56.8344C428.025 56.4698 428.169 55.973 428.169 55.3441C428.169 54.738 428.012 54.2595 427.697 53.9086C427.383 53.5531 426.95 53.3754 426.398 53.3754C426.098 53.3754 425.842 53.4164 425.633 53.4984C425.423 53.5759 425.195 53.7308 424.949 53.9633L423.623 53.6351ZM439.209 56.1097L440.74 48.6176H442.456L440.159 58.5707H438.505L436.611 51.3041L434.677 58.5707H433.016L430.719 48.6176H432.434L433.979 56.0961L435.88 48.6176H437.329L439.209 56.1097ZM442.811 60.8129L441.916 60.2797C442.18 59.8649 442.36 59.5026 442.456 59.1927C442.556 58.8874 442.609 58.5752 442.613 58.2562V56.9642H444.11L444.103 58.1605C444.099 58.6436 443.976 59.1267 443.734 59.6097C443.497 60.0974 443.19 60.4984 442.811 60.8129ZM452.956 54.7357H451.028V58.5707H449.299V48.6176H452.799C453.947 48.6176 454.834 48.875 455.458 49.39C456.082 49.905 456.394 50.6501 456.394 51.6254C456.394 52.2907 456.233 52.849 455.909 53.3002C455.59 53.7468 455.143 54.0909 454.569 54.3324L456.805 58.4818V58.5707H454.952L452.956 54.7357ZM451.028 53.348H452.806C453.389 53.348 453.845 53.2022 454.173 52.9105C454.501 52.6143 454.665 52.211 454.665 51.7006C454.665 51.1674 454.512 50.7549 454.207 50.4633C453.906 50.1716 453.455 50.0212 452.853 50.0121H451.028V53.348ZM461.132 58.7074C460.079 58.7074 459.224 58.377 458.568 57.7162C457.917 57.0508 457.591 56.1667 457.591 55.0638V54.8588C457.591 54.1205 457.732 53.462 458.015 52.8832C458.302 52.2998 458.703 51.8464 459.218 51.5228C459.733 51.1993 460.307 51.0375 460.94 51.0375C461.947 51.0375 462.724 51.3588 463.271 52.0013C463.823 52.6439 464.099 53.5531 464.099 54.7289V55.3988H459.266C459.316 56.0095 459.518 56.4926 459.874 56.848C460.234 57.2035 460.685 57.3812 461.227 57.3812C461.988 57.3812 462.608 57.0736 463.087 56.4584L463.982 57.3129C463.686 57.7549 463.29 58.099 462.793 58.3451C462.301 58.5866 461.747 58.7074 461.132 58.7074ZM460.933 52.3705C460.478 52.3705 460.109 52.53 459.826 52.849C459.548 53.168 459.37 53.6123 459.293 54.182H462.458V54.059C462.421 53.503 462.273 53.0837 462.014 52.8011C461.754 52.514 461.394 52.3705 460.933 52.3705ZM468.651 58.7074C467.599 58.7074 466.744 58.377 466.088 57.7162C465.436 57.0508 465.11 56.1667 465.11 55.0638V54.8588C465.11 54.1205 465.252 53.462 465.534 52.8832C465.821 52.2998 466.222 51.8464 466.737 51.5228C467.252 51.1993 467.826 51.0375 468.46 51.0375C469.467 51.0375 470.244 51.3588 470.791 52.0013C471.342 52.6439 471.618 53.5531 471.618 54.7289V55.3988H466.785C466.835 56.0095 467.038 56.4926 467.393 56.848C467.753 57.2035 468.205 57.3812 468.747 57.3812C469.508 57.3812 470.128 57.0736 470.606 56.4584L471.502 57.3129C471.206 57.7549 470.809 58.099 470.312 58.3451C469.82 58.5866 469.266 58.7074 468.651 58.7074ZM468.453 52.3705C467.997 52.3705 467.628 52.53 467.346 52.849C467.068 53.168 466.89 53.6123 466.812 54.182H469.977V54.059C469.941 53.503 469.793 53.0837 469.533 52.8011C469.273 52.514 468.913 52.3705 468.453 52.3705ZM474.681 58.5707H473.019V48.0707H474.681V58.5707ZM476.731 60.8129L475.836 60.2797C476.1 59.8649 476.28 59.5026 476.376 59.1927C476.476 58.8874 476.529 58.5752 476.533 58.2562V56.9642H478.03L478.023 58.1605C478.019 58.6436 477.896 59.1267 477.654 59.6097C477.417 60.0974 477.11 60.4984 476.731 60.8129ZM486.315 58.7074C485.263 58.7074 484.408 58.377 483.752 57.7162C483.1 57.0508 482.774 56.1667 482.774 55.0638V54.8588C482.774 54.1205 482.916 53.462 483.198 52.8832C483.485 52.2998 483.886 51.8464 484.401 51.5228C484.916 51.1993 485.49 51.0375 486.124 51.0375C487.131 51.0375 487.908 51.3588 488.455 52.0013C489.006 52.6439 489.282 53.5531 489.282 54.7289V55.3988H484.449C484.499 56.0095 484.702 56.4926 485.057 56.848C485.418 57.2035 485.869 57.3812 486.411 57.3812C487.172 57.3812 487.792 57.0736 488.27 56.4584L489.166 57.3129C488.87 57.7549 488.473 58.099 487.976 58.3451C487.484 58.5866 486.931 58.7074 486.315 58.7074ZM486.117 52.3705C485.661 52.3705 485.292 52.53 485.01 52.849C484.732 53.168 484.554 53.6123 484.476 54.182H487.641V54.059C487.605 53.503 487.457 53.0837 487.197 52.8011C486.937 52.514 486.577 52.3705 486.117 52.3705ZM492.659 49.3763V51.1742H493.965V52.4047H492.659V56.5336C492.659 56.8161 492.714 57.0212 492.823 57.1488C492.937 57.2719 493.138 57.3334 493.425 57.3334C493.616 57.3334 493.81 57.3106 494.006 57.265V58.5502C493.627 58.655 493.263 58.7074 492.912 58.7074C491.636 58.7074 490.998 58.0033 490.998 56.5951V52.4047H489.781V51.1742H490.998V49.3763H492.659ZM498.278 57.3812C498.693 57.3812 499.037 57.2605 499.31 57.0189C499.584 56.7774 499.73 56.4789 499.748 56.1234H501.313C501.295 56.5837 501.152 57.0144 500.883 57.4154C500.614 57.8119 500.249 58.1263 499.789 58.3588C499.329 58.5912 498.832 58.7074 498.299 58.7074C497.264 58.7074 496.444 58.3724 495.838 57.7025C495.232 57.0326 494.929 56.1075 494.929 54.9271V54.7562C494.929 53.6306 495.229 52.7305 495.831 52.056C496.432 51.377 497.253 51.0375 498.292 51.0375C499.171 51.0375 499.887 51.295 500.438 51.8099C500.994 52.3204 501.286 52.9926 501.313 53.8265H499.748C499.73 53.4027 499.584 53.0541 499.31 52.7806C499.042 52.5072 498.697 52.3705 498.278 52.3705C497.74 52.3705 497.326 52.5664 497.034 52.9584C496.742 53.3457 496.594 53.9359 496.59 54.7289V54.9955C496.59 55.7976 496.733 56.3969 497.02 56.7933C497.312 57.1853 497.731 57.3812 498.278 57.3812ZM503.603 56.8207C503.913 56.8207 504.153 56.9095 504.321 57.0873C504.49 57.2605 504.574 57.4792 504.574 57.7435C504.574 58.0033 504.49 58.2198 504.321 58.3929C504.153 58.5616 503.913 58.6459 503.603 58.6459C503.307 58.6459 503.072 58.5616 502.899 58.3929C502.726 58.2243 502.64 58.0079 502.64 57.7435C502.64 57.4792 502.724 57.2605 502.892 57.0873C503.061 56.9095 503.298 56.8207 503.603 56.8207Z" fill="black"/>
<g style="mix-blend-mode:darken">
<path d="M118.02 37.5707C118.02 36.19 119.14 35.0707 120.52 35.0707H220.926C222.307 35.0707 223.426 36.19 223.426 37.5707V69.7718C223.426 71.1525 222.307 72.2718 220.926 72.2718H120.52C119.14 72.2718 118.02 71.1525 118.02 69.7718V37.5707Z" fill="white" fill-opacity="0.8"/>
<path d="M118.02 37.5707C118.02 36.19 119.14 35.0707 120.52 35.0707H220.926C222.307 35.0707 223.426 36.19 223.426 37.5707V69.7718C223.426 71.1525 222.307 72.2718 220.926 72.2718H120.52C119.14 72.2718 118.02 71.1525 118.02 69.7718V37.5707Z" stroke="#4F4F4F"/>
</g>
<path d="M162.042 54.2227C162.042 55.6536 161.773 56.7337 161.235 57.4629C160.702 58.1875 159.888 58.5498 158.795 58.5498C157.719 58.5498 156.908 58.1966 156.361 57.4902C155.819 56.7793 155.541 55.7288 155.527 54.3389V52.6162C155.527 51.1852 155.794 50.112 156.327 49.3965C156.864 48.681 157.683 48.3232 158.781 48.3232C159.87 48.3232 160.681 48.6719 161.214 49.3691C161.752 50.0664 162.028 51.11 162.042 52.5V54.2227ZM160.38 52.3633C160.38 51.429 160.253 50.7454 159.998 50.3125C159.742 49.875 159.337 49.6562 158.781 49.6562C158.239 49.6562 157.84 49.8636 157.585 50.2783C157.329 50.6885 157.195 51.3311 157.181 52.2061V54.4619C157.181 55.3916 157.311 56.0843 157.571 56.54C157.831 56.9958 158.239 57.2236 158.795 57.2236C159.328 57.2236 159.722 57.014 159.977 56.5947C160.232 56.1709 160.367 55.5101 160.38 54.6123V52.3633ZM169.78 51.085C169.78 51.5726 169.655 52.0078 169.404 52.3906C169.153 52.7689 168.811 53.0674 168.378 53.2861C168.898 53.5277 169.297 53.8581 169.575 54.2773C169.857 54.6966 169.999 55.1706 169.999 55.6992C169.999 56.5742 169.702 57.2692 169.11 57.7842C168.517 58.2946 167.729 58.5498 166.745 58.5498C165.756 58.5498 164.963 58.2923 164.366 57.7773C163.773 57.2624 163.477 56.5697 163.477 55.6992C163.477 55.166 163.618 54.6875 163.901 54.2637C164.183 53.8398 164.58 53.514 165.09 53.2861C164.662 53.0674 164.322 52.7689 164.072 52.3906C163.826 52.0078 163.703 51.5726 163.703 51.085C163.703 50.2373 163.976 49.5651 164.523 49.0684C165.07 48.5716 165.808 48.3232 166.738 48.3232C167.672 48.3232 168.413 48.5716 168.96 49.0684C169.506 49.5651 169.78 50.2373 169.78 51.085ZM168.337 55.6172C168.337 55.125 168.189 54.7285 167.893 54.4277C167.601 54.1224 167.214 53.9697 166.731 53.9697C166.248 53.9697 165.861 54.1201 165.569 54.4209C165.282 54.7217 165.138 55.1204 165.138 55.6172C165.138 56.1048 165.28 56.4945 165.562 56.7861C165.849 57.0778 166.243 57.2236 166.745 57.2236C167.246 57.2236 167.636 57.0824 167.914 56.7998C168.196 56.5173 168.337 56.123 168.337 55.6172ZM168.126 51.1465C168.126 50.7135 168 50.3581 167.75 50.0801C167.499 49.7975 167.162 49.6562 166.738 49.6562C166.314 49.6562 165.979 49.7907 165.733 50.0596C165.487 50.3239 165.364 50.6862 165.364 51.1465C165.364 51.6022 165.487 51.9645 165.733 52.2334C165.984 52.5023 166.321 52.6367 166.745 52.6367C167.169 52.6367 167.503 52.5023 167.75 52.2334C168 51.9645 168.126 51.6022 168.126 51.1465ZM177.956 54.2227C177.956 55.6536 177.687 56.7337 177.149 57.4629C176.616 58.1875 175.802 58.5498 174.709 58.5498C173.633 58.5498 172.822 58.1966 172.275 57.4902C171.733 56.7793 171.455 55.7288 171.441 54.3389V52.6162C171.441 51.1852 171.708 50.112 172.241 49.3965C172.779 48.681 173.597 48.3232 174.695 48.3232C175.784 48.3232 176.595 48.6719 177.128 49.3691C177.666 50.0664 177.942 51.11 177.956 52.5V54.2227ZM176.295 52.3633C176.295 51.429 176.167 50.7454 175.912 50.3125C175.656 49.875 175.251 49.6562 174.695 49.6562C174.153 49.6562 173.754 49.8636 173.499 50.2783C173.243 50.6885 173.109 51.3311 173.095 52.2061V54.4619C173.095 55.3916 173.225 56.0843 173.485 56.54C173.745 56.9958 174.153 57.2236 174.709 57.2236C175.242 57.2236 175.636 57.014 175.891 56.5947C176.146 56.1709 176.281 55.5101 176.295 54.6123V52.3633ZM179.87 53.4775L180.41 48.46H185.755V49.8955H181.791L181.517 52.2744C181.977 52.0101 182.497 51.8779 183.076 51.8779C184.024 51.8779 184.76 52.181 185.284 52.7871C185.812 53.3932 186.077 54.209 186.077 55.2344C186.077 56.2461 185.785 57.0527 185.202 57.6543C184.618 58.2513 183.819 58.5498 182.802 58.5498C181.891 58.5498 181.134 58.2923 180.533 57.7773C179.936 57.2578 179.612 56.5742 179.562 55.7266H181.169C181.232 56.2096 181.406 56.5811 181.688 56.8408C181.971 57.096 182.34 57.2236 182.795 57.2236C183.306 57.2236 183.702 57.0413 183.985 56.6768C184.272 56.3122 184.416 55.8154 184.416 55.1865C184.416 54.5804 184.258 54.1019 183.944 53.751C183.629 53.3955 183.197 53.2178 182.645 53.2178C182.344 53.2178 182.089 53.2588 181.879 53.3408C181.67 53.4183 181.442 53.5732 181.196 53.8057L179.87 53.4775Z" fill="black"/>
<g style="mix-blend-mode:darken">
<path d="M1.84309 37.5707C1.84309 36.19 2.96238 35.0707 4.34309 35.0707H104.749C106.129 35.0707 107.249 36.19 107.249 37.5707V69.7718C107.249 71.1525 106.129 72.2718 104.749 72.2718H4.34309C2.96238 72.2718 1.84309 71.1525 1.84309 69.7718V37.5707Z" fill="white" fill-opacity="0.8"/>
<path d="M1.84309 37.5707C1.84309 36.19 2.96238 35.0707 4.34309 35.0707H104.749C106.129 35.0707 107.249 36.19 107.249 37.5707V69.7718C107.249 71.1525 106.129 72.2718 104.749 72.2718H4.34309C2.96238 72.2718 1.84309 71.1525 1.84309 69.7718V37.5707Z" stroke="#4F4F4F"/>
</g>
<path d="M32.6366 55.1729C32.5364 56.2347 32.1445 57.0641 31.4609 57.6611C30.7773 58.2536 29.8681 58.5498 28.7333 58.5498C27.9404 58.5498 27.2408 58.363 26.6347 57.9893C26.0331 57.611 25.5683 57.0755 25.2402 56.3828C24.912 55.6901 24.7411 54.8857 24.7275 53.9697V53.04C24.7275 52.1012 24.8938 51.2741 25.2265 50.5586C25.5592 49.8431 26.0354 49.2917 26.6552 48.9043C27.2795 48.5169 27.9996 48.3232 28.8154 48.3232C29.9137 48.3232 30.7978 48.6217 31.4677 49.2188C32.1376 49.8158 32.5273 50.6589 32.6366 51.748H30.914C30.832 51.0326 30.6223 50.5176 30.2851 50.2031C29.9524 49.8841 29.4625 49.7246 28.8154 49.7246C28.0634 49.7246 27.4846 50.0003 27.079 50.5518C26.678 51.0986 26.4729 51.903 26.4638 52.9648V53.8467C26.4638 54.9222 26.6552 55.7425 27.038 56.3076C27.4254 56.8727 27.9905 57.1553 28.7333 57.1553C29.4124 57.1553 29.9228 57.0026 30.2646 56.6973C30.6064 56.3919 30.8228 55.8838 30.914 55.1729H32.6366ZM39.7597 56.0957H35.9042L35.0976 58.4131H33.2997L37.0595 48.46H38.6113L42.3779 58.4131H40.5732L39.7597 56.0957ZM36.3896 54.7012H39.2743L37.832 50.5723L36.3896 54.7012ZM45.2421 54.7148V58.4131H43.5126V48.46H47.3202C48.4322 48.46 49.3141 48.7493 49.9657 49.3281C50.622 49.9069 50.9501 50.6725 50.9501 51.625C50.9501 52.6003 50.6288 53.359 49.9863 53.9014C49.3482 54.4437 48.4527 54.7148 47.2997 54.7148H45.2421ZM45.2421 53.3271H47.3202C47.9355 53.3271 48.4049 53.1836 48.7284 52.8965C49.052 52.6048 49.2138 52.1855 49.2138 51.6387C49.2138 51.1009 49.0497 50.6725 48.7216 50.3535C48.3935 50.0299 47.9423 49.8636 47.3681 49.8545H45.2421V53.3271ZM55.5302 54.8516H51.9413V53.5117H55.5302V54.8516ZM62.2636 55.8496C62.2636 55.4121 62.1086 55.0749 61.7988 54.8379C61.4934 54.6009 60.9397 54.3617 60.1376 54.1201C59.3355 53.8786 58.6975 53.6097 58.2236 53.3135C57.3167 52.7438 56.8632 52.001 56.8632 51.085C56.8632 50.2829 57.1891 49.6221 57.8407 49.1025C58.497 48.583 59.3469 48.3232 60.3905 48.3232C61.0833 48.3232 61.7008 48.4508 62.2431 48.7061C62.7854 48.9613 63.2115 49.3258 63.5214 49.7998C63.8313 50.2692 63.9863 50.791 63.9863 51.3652H62.2636C62.2636 50.8457 62.0995 50.4401 61.7714 50.1484C61.4478 49.8522 60.983 49.7041 60.3769 49.7041C59.8118 49.7041 59.372 49.8249 59.0575 50.0664C58.7476 50.3079 58.5927 50.6452 58.5927 51.0781C58.5927 51.4427 58.7613 51.748 59.0986 51.9941C59.4358 52.2357 59.9918 52.4727 60.7665 52.7051C61.5413 52.9329 62.1633 53.195 62.6327 53.4912C63.1021 53.7829 63.4462 54.1201 63.665 54.5029C63.8837 54.8812 63.9931 55.3255 63.9931 55.8359C63.9931 56.6654 63.6741 57.3262 63.0361 57.8184C62.4026 58.306 61.5413 58.5498 60.4521 58.5498C59.732 58.5498 59.0689 58.4176 58.4628 58.1533C57.8613 57.8844 57.3919 57.5153 57.0546 57.0459C56.7219 56.5765 56.5556 56.0296 56.5556 55.4053H58.2851C58.2851 55.9704 58.4719 56.4079 58.8456 56.7178C59.2193 57.0277 59.7548 57.1826 60.4521 57.1826C61.0536 57.1826 61.5048 57.0618 61.8056 56.8203C62.1109 56.5742 62.2636 56.2507 62.2636 55.8496ZM67.7529 48.46L70.6239 56.0889L73.4882 48.46H75.7236V58.4131H74.0009V55.1318L74.1718 50.7432L71.2323 58.4131H69.995L67.0624 50.75L67.2333 55.1318V58.4131H65.5107V48.46H67.7529ZM84.7607 49.8545H81.6572V58.4131H79.9413V49.8545H76.8652V48.46H84.7607V49.8545Z" fill="black"/>
<g style="mix-blend-mode:darken">
<path d="M5.1004 88.5055C5.1004 87.1248 6.21969 86.0055 7.6004 86.0055H220.926C222.307 86.0055 223.426 87.1248 223.426 88.5055V120.707C223.426 122.087 222.307 123.207 220.926 123.207H7.60041C6.21969 123.207 5.1004 122.087 5.1004 120.707V88.5055Z" fill="#A8D0FF" fill-opacity="0.8"/>
<path d="M5.1004 88.5055C5.1004 87.1248 6.21969 86.0055 7.6004 86.0055H220.926C222.307 86.0055 223.426 87.1248 223.426 88.5055V120.707C223.426 122.087 222.307 123.207 220.926 123.207H7.60041C6.21969 123.207 5.1004 122.087 5.1004 120.707V88.5055Z" stroke="#4F4F4F"/>
</g>
<path d="M92.9113 105.434L91.6223 106.801V110.348H89.6457V98.9728H91.6223V104.309L92.716 102.957L96.0441 98.9728H98.4348L94.2082 104.012L98.6769 110.348H96.3332L92.9113 105.434ZM106.388 105.27H101.716V108.77H107.177V110.348H99.7394V98.9728H107.122V100.567H101.716V103.707H106.388V105.27ZM111.349 98.9728L114.63 107.692L117.904 98.9728H120.458V110.348H118.489V106.598L118.685 101.582L115.325 110.348H113.911L110.56 101.59L110.755 106.598V110.348H108.786V98.9728H111.349ZM129.45 105.27H124.779V108.77H130.239V110.348H122.802V98.9728H130.185V100.567H124.779V103.707H129.45V105.27ZM140.224 100.567H136.677V110.348H134.716V100.567H131.2V98.9728H140.224V100.567Z" fill="black"/>
<g style="mix-blend-mode:darken">
<path d="M5.1004 151.016C5.1004 149.636 6.21969 148.516 7.6004 148.516H220.926C222.307 148.516 223.426 149.636 223.426 151.016V183.217C223.426 184.598 222.307 185.717 220.926 185.717H7.60041C6.21969 185.717 5.1004 184.598 5.1004 183.217V151.016Z" fill="#A8D0FF" fill-opacity="0.8"/>
<path d="M5.1004 151.016C5.1004 149.636 6.21969 148.516 7.6004 148.516H220.926C222.307 148.516 223.426 149.636 223.426 151.016V183.217C223.426 184.598 222.307 185.717 220.926 185.717H7.60041C6.21969 185.717 5.1004 184.598 5.1004 183.217V151.016Z" stroke="#4F4F4F"/>
</g>
<path d="M108.888 169.156C108.773 170.369 108.325 171.317 107.544 171.999C106.763 172.676 105.724 173.015 104.427 173.015C103.521 173.015 102.721 172.801 102.029 172.374C101.341 171.942 100.81 171.33 100.435 170.538C100.06 169.747 99.8644 168.828 99.8488 167.781V166.718C99.8488 165.645 100.039 164.7 100.419 163.882C100.799 163.064 101.344 162.434 102.052 161.992C102.765 161.549 103.588 161.328 104.521 161.328C105.776 161.328 106.786 161.669 107.552 162.351C108.318 163.033 108.763 163.997 108.888 165.242H106.919C106.825 164.424 106.586 163.835 106.2 163.476C105.82 163.111 105.26 162.929 104.521 162.929C103.661 162.929 103 163.244 102.536 163.874C102.078 164.499 101.844 165.419 101.833 166.632V167.64C101.833 168.869 102.052 169.807 102.489 170.453C102.932 171.098 103.578 171.421 104.427 171.421C105.203 171.421 105.786 171.247 106.177 170.898C106.568 170.549 106.815 169.968 106.919 169.156H108.888ZM110.661 172.859V161.484H114.021C115.026 161.484 115.917 161.708 116.693 162.156C117.474 162.604 118.078 163.239 118.505 164.062C118.932 164.885 119.146 165.828 119.146 166.89V167.46C119.146 168.538 118.93 169.486 118.497 170.304C118.07 171.122 117.458 171.752 116.661 172.195C115.87 172.637 114.961 172.859 113.935 172.859H110.661ZM112.638 163.078V171.281H113.927C114.963 171.281 115.758 170.958 116.31 170.312C116.867 169.661 117.151 168.729 117.161 167.515V166.882C117.161 165.648 116.893 164.705 116.357 164.054C115.82 163.403 115.042 163.078 114.021 163.078H112.638ZM127.763 167.781H123.091V171.281H128.552V172.859H121.114V161.484H128.497V163.078H123.091V166.218H127.763V167.781Z" fill="black"/>
<g style="mix-blend-mode:darken">
<path d="M245.056 88.5055C245.056 87.1248 246.175 86.0055 247.556 86.0055H551C552.381 86.0055 553.5 87.1248 553.5 88.5055V120.707C553.5 122.087 552.381 123.207 551 123.207H247.556C246.175 123.207 245.056 122.087 245.056 120.707V88.5055Z" fill="#A8D0FF" fill-opacity="0.8"/>
<path d="M245.056 88.5055C245.056 87.1248 246.175 86.0055 247.556 86.0055H551C552.381 86.0055 553.5 87.1248 553.5 88.5055V120.707C553.5 122.087 552.381 123.207 551 123.207H247.556C246.175 123.207 245.056 122.087 245.056 120.707V88.5055Z" stroke="#4F4F4F"/>
</g>
<g style="mix-blend-mode:darken">
<path d="M245.056 151.016C245.056 149.636 246.175 148.516 247.556 148.516H551C552.381 148.516 553.5 149.636 553.5 151.016V183.217C553.5 184.598 552.381 185.717 551 185.717H247.556C246.175 185.717 245.056 184.598 245.056 183.217V151.016Z" fill="#A8D0FF" fill-opacity="0.8"/>
<path d="M245.056 151.016C245.056 149.636 246.175 148.516 247.556 148.516H551C552.381 148.516 553.5 149.636 553.5 151.016V183.217C553.5 184.598 552.381 185.717 551 185.717H247.556C246.175 185.717 245.056 184.598 245.056 183.217V151.016Z" stroke="#4F4F4F"/>
</g>
<path d="M350.874 103.793H352.031C352.614 103.788 353.075 103.637 353.413 103.34C353.757 103.043 353.929 102.613 353.929 102.051C353.929 101.509 353.786 101.09 353.499 100.793C353.218 100.491 352.786 100.34 352.202 100.34C351.692 100.34 351.273 100.488 350.945 100.785C350.617 101.077 350.452 101.46 350.452 101.934H348.554C348.554 101.35 348.708 100.819 349.015 100.34C349.327 99.8608 349.76 99.4884 350.312 99.2228C350.869 98.9519 351.492 98.8165 352.179 98.8165C353.314 98.8165 354.205 99.103 354.851 99.6759C355.502 100.244 355.827 101.035 355.827 102.051C355.827 102.561 355.663 103.043 355.335 103.496C355.012 103.944 354.593 104.283 354.077 104.512C354.702 104.725 355.176 105.061 355.499 105.52C355.827 105.978 355.992 106.525 355.992 107.16C355.992 108.181 355.64 108.994 354.937 109.598C354.239 110.202 353.32 110.504 352.179 110.504C351.085 110.504 350.189 110.212 349.492 109.629C348.794 109.046 348.445 108.27 348.445 107.301H350.343C350.343 107.801 350.51 108.207 350.843 108.52C351.182 108.832 351.635 108.988 352.202 108.988C352.791 108.988 353.255 108.832 353.593 108.52C353.932 108.207 354.101 107.754 354.101 107.16C354.101 106.561 353.924 106.1 353.57 105.777C353.215 105.455 352.689 105.293 351.992 105.293H350.874V103.793ZM363.156 105.59C362.52 106.262 361.778 106.598 360.929 106.598C359.929 106.598 359.132 106.249 358.538 105.551C357.945 104.848 357.648 103.926 357.648 102.785C357.648 102.035 357.799 101.356 358.101 100.746C358.403 100.137 358.833 99.6629 359.39 99.3243C359.947 98.9858 360.593 98.8165 361.327 98.8165C362.473 98.8165 363.382 99.2436 364.054 100.098C364.726 100.952 365.062 102.095 365.062 103.527V104.059C365.062 106.111 364.598 107.676 363.671 108.754C362.744 109.832 361.361 110.379 359.523 110.395H359.296V108.824H359.57C360.689 108.809 361.549 108.54 362.148 108.02C362.747 107.494 363.083 106.684 363.156 105.59ZM361.327 105.113C361.708 105.113 362.064 105.004 362.398 104.785C362.731 104.567 362.989 104.264 363.171 103.879V103.137C363.171 102.298 362.999 101.624 362.656 101.113C362.312 100.603 361.867 100.348 361.32 100.348C360.773 100.348 360.335 100.574 360.007 101.027C359.684 101.475 359.523 102.043 359.523 102.731C359.523 103.444 359.687 104.02 360.015 104.457C360.343 104.895 360.781 105.113 361.327 105.113ZM372.249 105.59C371.614 106.262 370.872 106.598 370.023 106.598C369.023 106.598 368.226 106.249 367.632 105.551C367.038 104.848 366.742 103.926 366.742 102.785C366.742 102.035 366.893 101.356 367.195 100.746C367.497 100.137 367.926 99.6629 368.484 99.3243C369.041 98.9858 369.687 98.8165 370.421 98.8165C371.567 98.8165 372.476 99.2436 373.148 100.098C373.82 100.952 374.156 102.095 374.156 103.527V104.059C374.156 106.111 373.692 107.676 372.765 108.754C371.838 109.832 370.455 110.379 368.617 110.395H368.39V108.824H368.663C369.783 108.809 370.643 108.54 371.242 108.02C371.84 107.494 372.176 106.684 372.249 105.59ZM370.421 105.113C370.801 105.113 371.158 105.004 371.492 104.785C371.825 104.567 372.083 104.264 372.265 103.879V103.137C372.265 102.298 372.093 101.624 371.749 101.113C371.406 100.603 370.96 100.348 370.413 100.348C369.867 100.348 369.429 100.574 369.101 101.027C368.778 101.475 368.617 102.043 368.617 102.731C368.617 103.444 368.781 104.02 369.109 104.457C369.437 104.895 369.874 105.113 370.421 105.113ZM379.765 106.277H375.663V104.746H379.765V106.277ZM386.351 110.348H384.46V101.215L381.671 102.168V100.567L386.109 98.9337H386.351V110.348ZM395.445 110.348H393.554V101.215L390.765 102.168V100.567L395.202 98.9337H395.445V110.348ZM399.906 104.707L400.523 98.9728H406.632V100.613H402.101L401.788 103.332C402.314 103.03 402.908 102.879 403.57 102.879C404.653 102.879 405.494 103.225 406.093 103.918C406.697 104.611 406.999 105.543 406.999 106.715C406.999 107.871 406.666 108.793 405.999 109.481C405.333 110.163 404.419 110.504 403.257 110.504C402.215 110.504 401.351 110.21 400.663 109.621C399.981 109.027 399.611 108.246 399.554 107.277H401.39C401.463 107.83 401.661 108.254 401.984 108.551C402.307 108.843 402.728 108.988 403.249 108.988C403.833 108.988 404.286 108.78 404.609 108.363C404.937 107.947 405.101 107.379 405.101 106.66C405.101 105.968 404.921 105.421 404.562 105.02C404.202 104.613 403.708 104.41 403.077 104.41C402.734 104.41 402.442 104.457 402.202 104.551C401.963 104.639 401.702 104.817 401.421 105.082L399.906 104.707ZM414.913 106.293H416.327V107.817H414.913V110.348H413.015V107.817H408.101L408.046 106.66L412.952 98.9728H414.913V106.293ZM410.038 106.293H413.015V101.543L412.874 101.793L410.038 106.293ZM419.781 103.793H420.937C421.52 103.788 421.981 103.637 422.32 103.34C422.663 103.043 422.835 102.613 422.835 102.051C422.835 101.509 422.692 101.09 422.406 100.793C422.124 100.491 421.692 100.34 421.109 100.34C420.598 100.34 420.179 100.488 419.851 100.785C419.523 101.077 419.359 101.46 419.359 101.934H417.46C417.46 101.35 417.614 100.819 417.921 100.34C418.234 99.8608 418.666 99.4884 419.218 99.2228C419.775 98.9519 420.398 98.8165 421.085 98.8165C422.221 98.8165 423.111 99.103 423.757 99.6759C424.408 100.244 424.734 101.035 424.734 102.051C424.734 102.561 424.57 103.043 424.242 103.496C423.919 103.944 423.499 104.283 422.984 104.512C423.609 104.725 424.083 105.061 424.406 105.52C424.734 105.978 424.898 106.525 424.898 107.16C424.898 108.181 424.546 108.994 423.843 109.598C423.145 110.202 422.226 110.504 421.085 110.504C419.992 110.504 419.096 110.212 418.398 109.629C417.7 109.046 417.351 108.27 417.351 107.301H419.249C419.249 107.801 419.416 108.207 419.749 108.52C420.088 108.832 420.541 108.988 421.109 108.988C421.697 108.988 422.161 108.832 422.499 108.52C422.838 108.207 423.007 107.754 423.007 107.16C423.007 106.561 422.83 106.1 422.476 105.777C422.122 105.455 421.596 105.293 420.898 105.293H419.781V103.793ZM430.484 106.277H426.382V104.746H430.484V106.277ZM441.257 110.348H439.281L434.21 102.277V110.348H432.234V98.9728H434.21L439.296 107.074V98.9728H441.257V110.348ZM443.593 110.348V98.9728H446.952C447.958 98.9728 448.848 99.1967 449.624 99.6447C450.406 100.093 451.01 100.728 451.437 101.551C451.864 102.374 452.077 103.317 452.077 104.379V104.949C452.077 106.027 451.861 106.975 451.429 107.793C451.002 108.611 450.39 109.241 449.593 109.684C448.801 110.126 447.893 110.348 446.867 110.348H443.593ZM445.57 100.567V108.77H446.859C447.895 108.77 448.689 108.447 449.242 107.801C449.799 107.15 450.083 106.218 450.093 105.004V104.371C450.093 103.137 449.825 102.194 449.288 101.543C448.752 100.892 447.973 100.567 446.952 100.567H445.57Z" fill="black"/>
<path d="M355.421 167.201H356.577C357.161 167.196 357.622 167.045 357.96 166.748C358.304 166.451 358.476 166.021 358.476 165.459C358.476 164.917 358.333 164.498 358.046 164.201C357.765 163.899 357.333 163.748 356.749 163.748C356.239 163.748 355.82 163.896 355.492 164.193C355.163 164.485 354.999 164.867 354.999 165.341H353.101C353.101 164.758 353.255 164.227 353.562 163.748C353.874 163.269 354.307 162.896 354.859 162.63C355.416 162.36 356.038 162.224 356.726 162.224C357.861 162.224 358.752 162.511 359.398 163.084C360.049 163.651 360.374 164.443 360.374 165.459C360.374 165.969 360.21 166.451 359.882 166.904C359.559 167.352 359.14 167.69 358.624 167.92C359.249 168.133 359.723 168.469 360.046 168.927C360.374 169.386 360.538 169.933 360.538 170.568C360.538 171.589 360.187 172.401 359.484 173.005C358.786 173.61 357.867 173.912 356.726 173.912C355.632 173.912 354.736 173.62 354.038 173.037C353.34 172.453 352.992 171.677 352.992 170.709H354.89C354.89 171.209 355.057 171.615 355.39 171.927C355.728 172.24 356.182 172.396 356.749 172.396C357.338 172.396 357.801 172.24 358.14 171.927C358.478 171.615 358.648 171.162 358.648 170.568C358.648 169.969 358.471 169.508 358.117 169.185C357.762 168.862 357.236 168.701 356.538 168.701H355.421V167.201ZM364.515 167.201H365.671C366.255 167.196 366.715 167.045 367.054 166.748C367.398 166.451 367.57 166.021 367.57 165.459C367.57 164.917 367.426 164.498 367.14 164.201C366.859 163.899 366.426 163.748 365.843 163.748C365.333 163.748 364.913 163.896 364.585 164.193C364.257 164.485 364.093 164.867 364.093 165.341H362.195C362.195 164.758 362.348 164.227 362.656 163.748C362.968 163.269 363.4 162.896 363.952 162.63C364.51 162.36 365.132 162.224 365.82 162.224C366.955 162.224 367.846 162.511 368.492 163.084C369.143 163.651 369.468 164.443 369.468 165.459C369.468 165.969 369.304 166.451 368.976 166.904C368.653 167.352 368.234 167.69 367.718 167.92C368.343 168.133 368.817 168.469 369.14 168.927C369.468 169.386 369.632 169.933 369.632 170.568C369.632 171.589 369.281 172.401 368.577 173.005C367.88 173.61 366.96 173.912 365.82 173.912C364.726 173.912 363.83 173.62 363.132 173.037C362.434 172.453 362.085 171.677 362.085 170.709H363.984C363.984 171.209 364.15 171.615 364.484 171.927C364.822 172.24 365.275 172.396 365.843 172.396C366.432 172.396 366.895 172.24 367.234 171.927C367.572 171.615 367.742 171.162 367.742 170.568C367.742 169.969 367.564 169.508 367.21 169.185C366.856 168.862 366.33 168.701 365.632 168.701H364.515V167.201ZM378.577 165.38C378.577 165.938 378.434 166.435 378.148 166.873C377.861 167.305 377.471 167.646 376.976 167.896C377.57 168.172 378.025 168.55 378.343 169.029C378.666 169.508 378.827 170.05 378.827 170.654C378.827 171.654 378.489 172.448 377.812 173.037C377.135 173.62 376.234 173.912 375.109 173.912C373.978 173.912 373.072 173.617 372.39 173.029C371.713 172.44 371.374 171.649 371.374 170.654C371.374 170.045 371.536 169.498 371.859 169.013C372.182 168.529 372.635 168.157 373.218 167.896C372.728 167.646 372.34 167.305 372.054 166.873C371.773 166.435 371.632 165.938 371.632 165.38C371.632 164.412 371.945 163.644 372.57 163.076C373.195 162.508 374.038 162.224 375.101 162.224C376.169 162.224 377.015 162.508 377.64 163.076C378.265 163.644 378.577 164.412 378.577 165.38ZM376.929 170.56C376.929 169.998 376.76 169.545 376.421 169.201C376.088 168.852 375.645 168.677 375.093 168.677C374.541 168.677 374.098 168.849 373.765 169.193C373.437 169.537 373.273 169.992 373.273 170.56C373.273 171.117 373.434 171.563 373.757 171.896C374.085 172.229 374.536 172.396 375.109 172.396C375.682 172.396 376.127 172.235 376.445 171.912C376.768 171.589 376.929 171.138 376.929 170.56ZM376.687 165.451C376.687 164.956 376.544 164.55 376.257 164.232C375.971 163.909 375.585 163.748 375.101 163.748C374.617 163.748 374.234 163.901 373.952 164.209C373.671 164.511 373.531 164.925 373.531 165.451C373.531 165.972 373.671 166.386 373.952 166.693C374.239 167 374.624 167.154 375.109 167.154C375.593 167.154 375.976 167 376.257 166.693C376.544 166.386 376.687 165.972 376.687 165.451ZM384.312 169.685H380.21V168.154H384.312V169.685ZM392.179 169.701H393.593V171.224H392.179V173.755H390.281V171.224H385.367L385.312 170.068L390.218 162.38H392.179V169.701ZM387.304 169.701H390.281V164.951L390.14 165.201L387.304 169.701ZM399.992 173.755H398.101V164.623L395.312 165.576V163.974L399.749 162.341H399.992V173.755ZM411.109 165.38C411.109 165.938 410.965 166.435 410.679 166.873C410.393 167.305 410.002 167.646 409.507 167.896C410.101 168.172 410.557 168.55 410.874 169.029C411.197 169.508 411.359 170.05 411.359 170.654C411.359 171.654 411.02 172.448 410.343 173.037C409.666 173.62 408.765 173.912 407.64 173.912C406.51 173.912 405.603 173.617 404.921 173.029C404.244 172.44 403.906 171.649 403.906 170.654C403.906 170.045 404.067 169.498 404.39 169.013C404.713 168.529 405.166 168.157 405.749 167.896C405.26 167.646 404.872 167.305 404.585 166.873C404.304 166.435 404.163 165.938 404.163 165.38C404.163 164.412 404.476 163.644 405.101 163.076C405.726 162.508 406.57 162.224 407.632 162.224C408.7 162.224 409.546 162.508 410.171 163.076C410.796 163.644 411.109 164.412 411.109 165.38ZM409.46 170.56C409.46 169.998 409.291 169.545 408.952 169.201C408.619 168.852 408.176 168.677 407.624 168.677C407.072 168.677 406.63 168.849 406.296 169.193C405.968 169.537 405.804 169.992 405.804 170.56C405.804 171.117 405.965 171.563 406.288 171.896C406.617 172.229 407.067 172.396 407.64 172.396C408.213 172.396 408.658 172.235 408.976 171.912C409.299 171.589 409.46 171.138 409.46 170.56ZM409.218 165.451C409.218 164.956 409.075 164.55 408.788 164.232C408.502 163.909 408.117 163.748 407.632 163.748C407.148 163.748 406.765 163.901 406.484 164.209C406.202 164.511 406.062 164.925 406.062 165.451C406.062 165.972 406.202 166.386 406.484 166.693C406.77 167 407.156 167.154 407.64 167.154C408.124 167.154 408.507 167 408.788 166.693C409.075 166.386 409.218 165.972 409.218 165.451ZM420.452 168.966C420.452 170.602 420.145 171.836 419.531 172.67C418.921 173.498 417.992 173.912 416.742 173.912C415.512 173.912 414.585 173.508 413.96 172.701C413.34 171.888 413.023 170.688 413.007 169.099V167.13C413.007 165.495 413.312 164.269 413.921 163.451C414.536 162.633 415.471 162.224 416.726 162.224C417.971 162.224 418.898 162.623 419.507 163.42C420.122 164.216 420.437 165.409 420.452 166.998V168.966ZM418.554 166.841C418.554 165.774 418.408 164.992 418.117 164.498C417.825 163.998 417.361 163.748 416.726 163.748C416.106 163.748 415.65 163.985 415.359 164.459C415.067 164.927 414.913 165.662 414.898 166.662V169.24C414.898 170.302 415.046 171.094 415.343 171.615C415.64 172.136 416.106 172.396 416.742 172.396C417.351 172.396 417.801 172.157 418.093 171.677C418.385 171.193 418.538 170.438 418.554 169.412V166.841ZM425.937 169.685H421.835V168.154H425.937V169.685ZM436.71 173.755H434.734L429.663 165.685V173.755H427.687V162.38H429.663L434.749 170.482V162.38H436.71V173.755ZM439.046 173.755V162.38H442.406C443.411 162.38 444.301 162.604 445.077 163.052C445.859 163.5 446.463 164.136 446.89 164.959C447.317 165.782 447.531 166.724 447.531 167.787V168.357C447.531 169.435 447.314 170.383 446.882 171.201C446.455 172.019 445.843 172.649 445.046 173.091C444.255 173.534 443.346 173.755 442.32 173.755H439.046ZM441.023 163.974V172.177H442.312C443.348 172.177 444.143 171.854 444.695 171.209C445.252 170.558 445.536 169.625 445.546 168.412V167.779C445.546 166.545 445.278 165.602 444.742 164.951C444.205 164.3 443.426 163.974 442.406 163.974H441.023Z" fill="black"/>
<path d="M68.708 196.315L71.6299 204.565L74.5362 196.315H77.6143V207.69H75.2627V204.581L75.4971 199.214L72.4268 207.69H70.8174L67.7549 199.221L67.9893 204.581V207.69H65.6455V196.315H68.708ZM84.4112 207.69C84.307 207.487 84.2315 207.234 84.1846 206.932C83.6377 207.542 82.9268 207.846 82.0518 207.846C81.2237 207.846 80.5362 207.607 79.9893 207.128C79.4476 206.649 79.1768 206.044 79.1768 205.315C79.1768 204.419 79.5075 203.732 80.169 203.253C80.8357 202.774 81.7966 202.531 83.0518 202.526H84.0909V202.042C84.0909 201.651 83.9893 201.339 83.7862 201.104C83.5883 200.87 83.2732 200.753 82.8409 200.753C82.4607 200.753 82.1612 200.844 81.9424 201.026C81.7289 201.208 81.6221 201.458 81.6221 201.776H79.3643C79.3643 201.287 79.5153 200.833 79.8174 200.417C80.1195 200 80.5466 199.675 81.0987 199.44C81.6508 199.201 82.2705 199.081 82.958 199.081C83.9997 199.081 84.8252 199.344 85.4346 199.87C86.0492 200.391 86.3565 201.125 86.3565 202.073V205.737C86.3617 206.539 86.4737 207.146 86.6924 207.557V207.69H84.4112ZM82.544 206.12C82.8773 206.12 83.1846 206.047 83.4659 205.901C83.7471 205.75 83.9554 205.55 84.0909 205.3V203.846H83.2471C82.1169 203.846 81.5153 204.237 81.4424 205.018L81.4346 205.151C81.4346 205.432 81.5336 205.664 81.7315 205.846C81.9294 206.029 82.2002 206.12 82.544 206.12ZM90.169 199.237L90.2393 200.214C90.8435 199.458 91.6534 199.081 92.669 199.081C93.5648 199.081 94.2315 199.344 94.669 199.87C95.1065 200.396 95.3304 201.182 95.3409 202.229V207.69H93.083V202.284C93.083 201.805 92.9789 201.458 92.7705 201.245C92.5622 201.026 92.2159 200.917 91.7315 200.917C91.0961 200.917 90.6195 201.188 90.3018 201.729V207.69H88.044V199.237H90.169ZM102.122 206.831C101.565 207.508 100.794 207.846 99.8096 207.846C98.9034 207.846 98.2107 207.586 97.7315 207.065C97.2575 206.544 97.0153 205.781 97.0049 204.776V199.237H99.2627V204.698C99.2627 205.578 99.6638 206.018 100.466 206.018C101.231 206.018 101.758 205.753 102.044 205.221V199.237H104.31V207.69H102.185L102.122 206.831ZM106.63 207.69V200.893H105.372V199.237H106.63V198.518C106.63 197.57 106.901 196.836 107.442 196.315C107.989 195.789 108.752 195.526 109.731 195.526C110.044 195.526 110.427 195.578 110.88 195.682L110.856 197.432C110.669 197.385 110.44 197.362 110.169 197.362C109.32 197.362 108.896 197.76 108.896 198.557V199.237H110.575V200.893H108.896V207.69H106.63ZM116.646 207.69C116.541 207.487 116.466 207.234 116.419 206.932C115.872 207.542 115.161 207.846 114.286 207.846C113.458 207.846 112.771 207.607 112.224 207.128C111.682 206.649 111.411 206.044 111.411 205.315C111.411 204.419 111.742 203.732 112.403 203.253C113.07 202.774 114.031 202.531 115.286 202.526H116.325V202.042C116.325 201.651 116.224 201.339 116.021 201.104C115.823 200.87 115.508 200.753 115.075 200.753C114.695 200.753 114.396 200.844 114.177 201.026C113.963 201.208 113.856 201.458 113.856 201.776H111.599C111.599 201.287 111.75 200.833 112.052 200.417C112.354 200 112.781 199.675 113.333 199.44C113.885 199.201 114.505 199.081 115.192 199.081C116.234 199.081 117.06 199.344 117.669 199.87C118.284 200.391 118.591 201.125 118.591 202.073V205.737C118.596 206.539 118.708 207.146 118.927 207.557V207.69H116.646ZM114.778 206.12C115.112 206.12 115.419 206.047 115.7 205.901C115.981 205.75 116.19 205.55 116.325 205.3V203.846H115.481C114.351 203.846 113.75 204.237 113.677 205.018L113.669 205.151C113.669 205.432 113.768 205.664 113.966 205.846C114.164 206.029 114.435 206.12 114.778 206.12ZM123.841 206.026C124.258 206.026 124.596 205.912 124.856 205.682C125.117 205.453 125.252 205.149 125.263 204.768H127.38C127.375 205.341 127.218 205.867 126.911 206.346C126.604 206.82 126.182 207.19 125.646 207.456C125.114 207.716 124.526 207.846 123.88 207.846C122.672 207.846 121.718 207.464 121.021 206.698C120.323 205.927 119.974 204.865 119.974 203.51V203.362C119.974 202.06 120.32 201.021 121.013 200.245C121.705 199.469 122.656 199.081 123.864 199.081C124.922 199.081 125.768 199.383 126.403 199.987C127.044 200.586 127.37 201.385 127.38 202.385H125.263C125.252 201.948 125.117 201.594 124.856 201.323C124.596 201.047 124.252 200.909 123.825 200.909C123.299 200.909 122.901 201.102 122.63 201.487C122.364 201.867 122.231 202.487 122.231 203.346V203.581C122.231 204.451 122.364 205.076 122.63 205.456C122.896 205.836 123.299 206.026 123.841 206.026ZM131.372 197.159V199.237H132.817V200.893H131.372V205.112C131.372 205.425 131.432 205.649 131.552 205.784C131.672 205.919 131.901 205.987 132.239 205.987C132.489 205.987 132.711 205.969 132.903 205.932V207.643C132.461 207.779 132.005 207.846 131.536 207.846C129.953 207.846 129.146 207.047 129.114 205.448V200.893H127.88V199.237H129.114V197.159H131.372ZM139.138 206.831C138.58 207.508 137.81 207.846 136.825 207.846C135.919 207.846 135.226 207.586 134.747 207.065C134.273 206.544 134.031 205.781 134.021 204.776V199.237H136.278V204.698C136.278 205.578 136.679 206.018 137.481 206.018C138.247 206.018 138.773 205.753 139.06 205.221V199.237H141.325V207.69H139.2L139.138 206.831ZM147.778 201.354C147.471 201.313 147.2 201.292 146.966 201.292C146.112 201.292 145.552 201.581 145.286 202.159V207.69H143.028V199.237H145.161L145.224 200.245C145.677 199.469 146.304 199.081 147.106 199.081C147.356 199.081 147.591 199.115 147.81 199.182L147.778 201.354ZM152.606 207.846C151.367 207.846 150.356 207.466 149.575 206.706C148.799 205.945 148.411 204.932 148.411 203.667V203.448C148.411 202.599 148.575 201.841 148.903 201.175C149.231 200.503 149.695 199.987 150.294 199.628C150.898 199.263 151.586 199.081 152.356 199.081C153.513 199.081 154.422 199.445 155.083 200.175C155.75 200.904 156.083 201.938 156.083 203.276V204.198H150.7C150.773 204.75 150.992 205.193 151.356 205.526C151.726 205.859 152.192 206.026 152.755 206.026C153.625 206.026 154.304 205.711 154.794 205.081L155.903 206.323C155.565 206.802 155.106 207.177 154.528 207.448C153.95 207.714 153.31 207.846 152.606 207.846ZM152.349 200.909C151.901 200.909 151.536 201.06 151.255 201.362C150.979 201.664 150.802 202.096 150.724 202.659H153.864V202.479C153.854 201.979 153.718 201.594 153.458 201.323C153.198 201.047 152.828 200.909 152.349 200.909ZM162.122 201.354C161.815 201.313 161.544 201.292 161.31 201.292C160.455 201.292 159.896 201.581 159.63 202.159V207.69H157.372V199.237H159.505L159.567 200.245C160.021 199.469 160.648 199.081 161.45 199.081C161.7 199.081 161.935 199.115 162.153 199.182L162.122 201.354Z" fill="#828282"/>
<path d="M12.5391 21H9.99902V11.209L6.9668 12.1494V10.084L12.2666 8.18555H12.5391V21ZM22.6465 15.8848C21.9844 16.5352 21.2109 16.8604 20.3262 16.8604C19.1953 16.8604 18.29 16.4736 17.6104 15.7002C16.9307 14.9209 16.5908 13.8721 16.5908 12.5537C16.5908 11.7158 16.7725 10.9482 17.1357 10.251C17.5049 9.54785 18.0176 9.00293 18.6738 8.61621C19.3301 8.22363 20.0684 8.02734 20.8887 8.02734C21.7324 8.02734 22.4824 8.23828 23.1387 8.66016C23.7949 9.08203 24.3047 9.68848 24.668 10.4795C25.0312 11.2705 25.2158 12.1758 25.2217 13.1953V14.1357C25.2217 16.2686 24.6914 17.9443 23.6309 19.1631C22.5703 20.3818 21.0674 21.0322 19.1221 21.1143L18.498 21.123V19.0049L19.0605 18.9961C21.2695 18.8965 22.4648 17.8594 22.6465 15.8848ZM20.9502 14.918C21.3604 14.918 21.7119 14.8125 22.0049 14.6016C22.3037 14.3906 22.5293 14.1357 22.6816 13.8369V12.791C22.6816 11.9297 22.5176 11.2617 22.1895 10.7871C21.8613 10.3125 21.4219 10.0752 20.8711 10.0752C20.3613 10.0752 19.9424 10.3096 19.6143 10.7783C19.2861 11.2412 19.1221 11.8242 19.1221 12.5273C19.1221 13.2246 19.2803 13.7988 19.5967 14.25C19.9189 14.6953 20.3701 14.918 20.9502 14.918ZM35.6543 15.709C35.6543 17.4785 35.2881 18.832 34.5557 19.7695C33.8232 20.707 32.751 21.1758 31.3389 21.1758C29.9443 21.1758 28.8779 20.7158 28.1396 19.7959C27.4014 18.876 27.0234 17.5576 27.0059 15.8408V13.4854C27.0059 11.6982 27.375 10.3418 28.1133 9.41602C28.8574 8.49023 29.9268 8.02734 31.3213 8.02734C32.7158 8.02734 33.7822 8.4873 34.5205 9.40723C35.2588 10.3213 35.6367 11.6367 35.6543 13.3535V15.709ZM33.1143 13.125C33.1143 12.0645 32.9678 11.2939 32.6748 10.8135C32.3877 10.3271 31.9365 10.084 31.3213 10.084C30.7236 10.084 30.2812 10.3154 29.9941 10.7783C29.7129 11.2354 29.5635 11.9531 29.5459 12.9316V16.043C29.5459 17.0859 29.6865 17.8623 29.9678 18.3721C30.2549 18.876 30.7119 19.1279 31.3389 19.1279C31.96 19.1279 32.4082 18.8848 32.6836 18.3984C32.959 17.9121 33.1025 17.168 33.1143 16.166V13.125ZM42.4219 16.5439H37.4736V14.4961H42.4219V16.5439ZM52.9688 15.709C52.9688 17.4785 52.6025 18.832 51.8701 19.7695C51.1377 20.707 50.0654 21.1758 48.6533 21.1758C47.2588 21.1758 46.1924 20.7158 45.4541 19.7959C44.7158 18.876 44.3379 17.5576 44.3203 15.8408V13.4854C44.3203 11.6982 44.6895 10.3418 45.4277 9.41602C46.1719 8.49023 47.2412 8.02734 48.6357 8.02734C50.0303 8.02734 51.0967 8.4873 51.835 9.40723C52.5732 10.3213 52.9512 11.6367 52.9688 13.3535V15.709ZM50.4287 13.125C50.4287 12.0645 50.2822 11.2939 49.9893 10.8135C49.7021 10.3271 49.251 10.084 48.6357 10.084C48.0381 10.084 47.5957 10.3154 47.3086 10.7783C47.0273 11.2354 46.8779 11.9531 46.8604 12.9316V16.043C46.8604 17.0859 47.001 17.8623 47.2822 18.3721C47.5693 18.876 48.0264 19.1279 48.6533 19.1279C49.2744 19.1279 49.7227 18.8848 49.998 18.3984C50.2734 17.9121 50.417 17.168 50.4287 16.166V13.125ZM63.3047 15.709C63.3047 17.4785 62.9385 18.832 62.2061 19.7695C61.4736 20.707 60.4014 21.1758 58.9893 21.1758C57.5947 21.1758 56.5283 20.7158 55.79 19.7959C55.0518 18.876 54.6738 17.5576 54.6562 15.8408V13.4854C54.6562 11.6982 55.0254 10.3418 55.7637 9.41602C56.5078 8.49023 57.5771 8.02734 58.9717 8.02734C60.3662 8.02734 61.4326 8.4873 62.1709 9.40723C62.9092 10.3213 63.2871 11.6367 63.3047 13.3535V15.709ZM60.7646 13.125C60.7646 12.0645 60.6182 11.2939 60.3252 10.8135C60.0381 10.3271 59.5869 10.084 58.9717 10.084C58.374 10.084 57.9316 10.3154 57.6445 10.7783C57.3633 11.2354 57.2139 11.9531 57.1963 12.9316V16.043C57.1963 17.0859 57.3369 17.8623 57.6182 18.3721C57.9053 18.876 58.3623 19.1279 58.9893 19.1279C59.6104 19.1279 60.0586 18.8848 60.334 18.3984C60.6094 17.9121 60.7529 17.168 60.7646 16.166V13.125ZM73.6406 15.709C73.6406 17.4785 73.2744 18.832 72.542 19.7695C71.8096 20.707 70.7373 21.1758 69.3252 21.1758C67.9307 21.1758 66.8643 20.7158 66.126 19.7959C65.3877 18.876 65.0098 17.5576 64.9922 15.8408V13.4854C64.9922 11.6982 65.3613 10.3418 66.0996 9.41602C66.8438 8.49023 67.9131 8.02734 69.3076 8.02734C70.7021 8.02734 71.7686 8.4873 72.5068 9.40723C73.2451 10.3213 73.623 11.6367 73.6406 13.3535V15.709ZM71.1006 13.125C71.1006 12.0645 70.9541 11.2939 70.6611 10.8135C70.374 10.3271 69.9229 10.084 69.3076 10.084C68.71 10.084 68.2676 10.3154 67.9805 10.7783C67.6992 11.2354 67.5498 11.9531 67.5322 12.9316V16.043C67.5322 17.0859 67.6729 17.8623 67.9541 18.3721C68.2412 18.876 68.6982 19.1279 69.3252 19.1279C69.9463 19.1279 70.3945 18.8848 70.6699 18.3984C70.9453 17.9121 71.0889 17.168 71.1006 16.166V13.125ZM81.5332 21H78.9932V11.209L75.9609 12.1494V10.084L81.2607 8.18555H81.5332V21ZM93.2139 16.1836H94.6641V18.2314H93.2139V21H90.6738V18.2314H85.4268L85.3125 16.6318L90.6475 8.20312H93.2139V16.1836ZM87.8438 16.1836H90.6738V11.666L90.5068 11.9561L87.8438 16.1836ZM96.4131 14.707L97.1514 8.20312H104.323V10.3213H99.2344L98.918 13.0723C99.5215 12.75 100.163 12.5889 100.843 12.5889C102.062 12.5889 103.017 12.9668 103.708 13.7227C104.399 14.4785 104.745 15.5361 104.745 16.8955C104.745 17.7217 104.569 18.4629 104.218 19.1191C103.872 19.7695 103.374 20.2764 102.724 20.6396C102.073 20.9971 101.306 21.1758 100.421 21.1758C99.6475 21.1758 98.9297 21.0205 98.2676 20.71C97.6055 20.3936 97.0811 19.9512 96.6943 19.3828C96.3135 18.8145 96.1113 18.167 96.0879 17.4404H98.6016C98.6543 17.9736 98.8389 18.3896 99.1553 18.6885C99.4775 18.9814 99.8965 19.1279 100.412 19.1279C100.986 19.1279 101.429 18.9229 101.739 18.5127C102.05 18.0967 102.205 17.5107 102.205 16.7549C102.205 16.0283 102.026 15.4717 101.669 15.085C101.312 14.6982 100.805 14.5049 100.148 14.5049C99.5449 14.5049 99.0557 14.6631 98.6807 14.9795L98.4346 15.208L96.4131 14.707Z" fill="black"/>
<path d="M306.211 196.315L309.133 204.565L312.039 196.315H315.117V207.69H312.766V204.581L313 199.214L309.93 207.69H308.32L305.258 199.221L305.492 204.581V207.69H303.148V196.315H306.211ZM321.914 207.69C321.81 207.487 321.734 207.234 321.687 206.932C321.141 207.542 320.43 207.846 319.555 207.846C318.727 207.846 318.039 207.607 317.492 207.128C316.95 206.649 316.68 206.044 316.68 205.315C316.68 204.419 317.01 203.732 317.672 203.253C318.339 202.774 319.299 202.531 320.555 202.526H321.594V202.042C321.594 201.651 321.492 201.339 321.289 201.104C321.091 200.87 320.776 200.753 320.344 200.753C319.964 200.753 319.664 200.844 319.445 201.026C319.232 201.208 319.125 201.458 319.125 201.776H316.867C316.867 201.287 317.018 200.833 317.32 200.417C317.622 200 318.049 199.675 318.602 199.44C319.154 199.201 319.773 199.081 320.461 199.081C321.503 199.081 322.328 199.344 322.937 199.87C323.552 200.391 323.859 201.125 323.859 202.073V205.737C323.865 206.539 323.977 207.146 324.195 207.557V207.69H321.914ZM320.047 206.12C320.38 206.12 320.687 206.047 320.969 205.901C321.25 205.75 321.458 205.55 321.594 205.3V203.846H320.75C319.62 203.846 319.018 204.237 318.945 205.018L318.937 205.151C318.937 205.432 319.036 205.664 319.234 205.846C319.432 206.029 319.703 206.12 320.047 206.12ZM327.672 199.237L327.742 200.214C328.346 199.458 329.156 199.081 330.172 199.081C331.068 199.081 331.734 199.344 332.172 199.87C332.609 200.396 332.833 201.182 332.844 202.229V207.69H330.586V202.284C330.586 201.805 330.482 201.458 330.273 201.245C330.065 201.026 329.719 200.917 329.234 200.917C328.599 200.917 328.122 201.188 327.805 201.729V207.69H325.547V199.237H327.672ZM339.625 206.831C339.068 207.508 338.297 207.846 337.312 207.846C336.406 207.846 335.714 207.586 335.234 207.065C334.76 206.544 334.518 205.781 334.508 204.776V199.237H336.766V204.698C336.766 205.578 337.167 206.018 337.969 206.018C338.734 206.018 339.26 205.753 339.547 205.221V199.237H341.812V207.69H339.687L339.625 206.831ZM344.133 207.69V200.893H342.875V199.237H344.133V198.518C344.133 197.57 344.404 196.836 344.945 196.315C345.492 195.789 346.255 195.526 347.234 195.526C347.547 195.526 347.93 195.578 348.383 195.682L348.359 197.432C348.172 197.385 347.943 197.362 347.672 197.362C346.823 197.362 346.398 197.76 346.398 198.557V199.237H348.078V200.893H346.398V207.69H344.133ZM354.148 207.69C354.044 207.487 353.969 207.234 353.922 206.932C353.375 207.542 352.664 207.846 351.789 207.846C350.961 207.846 350.273 207.607 349.727 207.128C349.185 206.649 348.914 206.044 348.914 205.315C348.914 204.419 349.245 203.732 349.906 203.253C350.573 202.774 351.534 202.531 352.789 202.526H353.828V202.042C353.828 201.651 353.727 201.339 353.523 201.104C353.325 200.87 353.01 200.753 352.578 200.753C352.198 200.753 351.898 200.844 351.68 201.026C351.466 201.208 351.359 201.458 351.359 201.776H349.102C349.102 201.287 349.253 200.833 349.555 200.417C349.857 200 350.284 199.675 350.836 199.44C351.388 199.201 352.008 199.081 352.695 199.081C353.737 199.081 354.562 199.344 355.172 199.87C355.786 200.391 356.094 201.125 356.094 202.073V205.737C356.099 206.539 356.211 207.146 356.43 207.557V207.69H354.148ZM352.281 206.12C352.615 206.12 352.922 206.047 353.203 205.901C353.484 205.75 353.693 205.55 353.828 205.3V203.846H352.984C351.854 203.846 351.253 204.237 351.18 205.018L351.172 205.151C351.172 205.432 351.271 205.664 351.469 205.846C351.667 206.029 351.937 206.12 352.281 206.12ZM361.344 206.026C361.76 206.026 362.099 205.912 362.359 205.682C362.62 205.453 362.755 205.149 362.766 204.768H364.883C364.878 205.341 364.721 205.867 364.414 206.346C364.107 206.82 363.685 207.19 363.148 207.456C362.617 207.716 362.029 207.846 361.383 207.846C360.174 207.846 359.221 207.464 358.523 206.698C357.825 205.927 357.477 204.865 357.477 203.51V203.362C357.477 202.06 357.823 201.021 358.516 200.245C359.208 199.469 360.159 199.081 361.367 199.081C362.424 199.081 363.271 199.383 363.906 199.987C364.547 200.586 364.872 201.385 364.883 202.385H362.766C362.755 201.948 362.62 201.594 362.359 201.323C362.099 201.047 361.755 200.909 361.328 200.909C360.802 200.909 360.404 201.102 360.133 201.487C359.867 201.867 359.734 202.487 359.734 203.346V203.581C359.734 204.451 359.867 205.076 360.133 205.456C360.398 205.836 360.802 206.026 361.344 206.026ZM368.875 197.159V199.237H370.32V200.893H368.875V205.112C368.875 205.425 368.935 205.649 369.055 205.784C369.174 205.919 369.404 205.987 369.742 205.987C369.992 205.987 370.214 205.969 370.406 205.932V207.643C369.964 207.779 369.508 207.846 369.039 207.846C367.456 207.846 366.648 207.047 366.617 205.448V200.893H365.383V199.237H366.617V197.159H368.875ZM376.641 206.831C376.083 207.508 375.312 207.846 374.328 207.846C373.422 207.846 372.729 207.586 372.25 207.065C371.776 206.544 371.534 205.781 371.523 204.776V199.237H373.781V204.698C373.781 205.578 374.182 206.018 374.984 206.018C375.75 206.018 376.276 205.753 376.562 205.221V199.237H378.828V207.69H376.703L376.641 206.831ZM385.281 201.354C384.974 201.313 384.703 201.292 384.469 201.292C383.615 201.292 383.055 201.581 382.789 202.159V207.69H380.531V199.237H382.664L382.727 200.245C383.18 199.469 383.807 199.081 384.609 199.081C384.859 199.081 385.094 199.115 385.312 199.182L385.281 201.354ZM390.109 207.846C388.87 207.846 387.859 207.466 387.078 206.706C386.302 205.945 385.914 204.932 385.914 203.667V203.448C385.914 202.599 386.078 201.841 386.406 201.175C386.734 200.503 387.198 199.987 387.797 199.628C388.401 199.263 389.089 199.081 389.859 199.081C391.016 199.081 391.924 199.445 392.586 200.175C393.253 200.904 393.586 201.938 393.586 203.276V204.198H388.203C388.276 204.75 388.495 205.193 388.859 205.526C389.229 205.859 389.695 206.026 390.258 206.026C391.128 206.026 391.807 205.711 392.297 205.081L393.406 206.323C393.068 206.802 392.609 207.177 392.031 207.448C391.453 207.714 390.812 207.846 390.109 207.846ZM389.852 200.909C389.404 200.909 389.039 201.06 388.758 201.362C388.482 201.664 388.305 202.096 388.227 202.659H391.367V202.479C391.357 201.979 391.221 201.594 390.961 201.323C390.7 201.047 390.331 200.909 389.852 200.909ZM399.625 201.354C399.318 201.313 399.047 201.292 398.812 201.292C397.958 201.292 397.398 201.581 397.133 202.159V207.69H394.875V199.237H397.008L397.07 200.245C397.523 199.469 398.151 199.081 398.953 199.081C399.203 199.081 399.437 199.115 399.656 199.182L399.625 201.354ZM407.195 203.682V207.69H404.852V196.315H409.289C410.143 196.315 410.893 196.471 411.539 196.784C412.19 197.096 412.69 197.542 413.039 198.12C413.388 198.693 413.562 199.346 413.562 200.081C413.562 201.195 413.18 202.076 412.414 202.721C411.654 203.362 410.599 203.682 409.25 203.682H407.195ZM407.195 201.784H409.289C409.909 201.784 410.38 201.638 410.703 201.346C411.031 201.055 411.195 200.638 411.195 200.096C411.195 199.539 411.031 199.089 410.703 198.745C410.375 198.401 409.922 198.224 409.344 198.214H407.195V201.784ZM419.836 207.69C419.732 207.487 419.656 207.234 419.609 206.932C419.062 207.542 418.352 207.846 417.477 207.846C416.648 207.846 415.961 207.607 415.414 207.128C414.872 206.649 414.602 206.044 414.602 205.315C414.602 204.419 414.932 203.732 415.594 203.253C416.26 202.774 417.221 202.531 418.477 202.526H419.516V202.042C419.516 201.651 419.414 201.339 419.211 201.104C419.013 200.87 418.698 200.753 418.266 200.753C417.885 200.753 417.586 200.844 417.367 201.026C417.154 201.208 417.047 201.458 417.047 201.776H414.789C414.789 201.287 414.94 200.833 415.242 200.417C415.544 200 415.971 199.675 416.523 199.44C417.075 199.201 417.695 199.081 418.383 199.081C419.424 199.081 420.25 199.344 420.859 199.87C421.474 200.391 421.781 201.125 421.781 202.073V205.737C421.786 206.539 421.898 207.146 422.117 207.557V207.69H419.836ZM417.969 206.12C418.302 206.12 418.609 206.047 418.891 205.901C419.172 205.75 419.38 205.55 419.516 205.3V203.846H418.672C417.542 203.846 416.94 204.237 416.867 205.018L416.859 205.151C416.859 205.432 416.958 205.664 417.156 205.846C417.354 206.029 417.625 206.12 417.969 206.12ZM428.266 201.354C427.958 201.313 427.687 201.292 427.453 201.292C426.599 201.292 426.039 201.581 425.773 202.159V207.69H423.516V199.237H425.648L425.711 200.245C426.164 199.469 426.792 199.081 427.594 199.081C427.844 199.081 428.078 199.115 428.297 199.182L428.266 201.354ZM432.453 197.159V199.237H433.898V200.893H432.453V205.112C432.453 205.425 432.513 205.649 432.633 205.784C432.753 205.919 432.982 205.987 433.32 205.987C433.57 205.987 433.792 205.969 433.984 205.932V207.643C433.542 207.779 433.086 207.846 432.617 207.846C431.034 207.846 430.227 207.047 430.195 205.448V200.893H428.961V199.237H430.195V197.159H432.453ZM448.539 207.69H446.195L441.633 200.206V207.69H439.289V196.315H441.633L446.203 203.815V196.315H448.539V207.69ZM455.5 206.831C454.943 207.508 454.172 207.846 453.187 207.846C452.281 207.846 451.589 207.586 451.109 207.065C450.635 206.544 450.393 205.781 450.383 204.776V199.237H452.641V204.698C452.641 205.578 453.042 206.018 453.844 206.018C454.609 206.018 455.135 205.753 455.422 205.221V199.237H457.687V207.69H455.562L455.5 206.831ZM461.508 199.237L461.578 200.182C462.177 199.448 462.987 199.081 464.008 199.081C465.096 199.081 465.844 199.51 466.25 200.37C466.844 199.51 467.69 199.081 468.789 199.081C469.706 199.081 470.388 199.349 470.836 199.885C471.284 200.417 471.508 201.219 471.508 202.292V207.69H469.242V202.3C469.242 201.82 469.148 201.471 468.961 201.253C468.773 201.029 468.443 200.917 467.969 200.917C467.292 200.917 466.823 201.24 466.562 201.885L466.57 207.69H464.312V202.307C464.312 201.818 464.216 201.464 464.023 201.245C463.831 201.026 463.503 200.917 463.039 200.917C462.398 200.917 461.935 201.182 461.648 201.714V207.69H459.391V199.237H461.508ZM480.867 203.542C480.867 204.896 480.578 205.953 480 206.714C479.422 207.469 478.615 207.846 477.578 207.846C476.661 207.846 475.93 207.495 475.383 206.792L475.281 207.69H473.25V195.69H475.508V199.995C476.029 199.385 476.714 199.081 477.562 199.081C478.594 199.081 479.401 199.461 479.984 200.221C480.573 200.977 480.867 202.042 480.867 203.417V203.542ZM478.609 203.378C478.609 202.524 478.474 201.901 478.203 201.51C477.932 201.115 477.529 200.917 476.992 200.917C476.273 200.917 475.779 201.211 475.508 201.8V205.135C475.784 205.729 476.284 206.026 477.008 206.026C477.737 206.026 478.216 205.667 478.445 204.948C478.555 204.604 478.609 204.081 478.609 203.378ZM486.156 207.846C484.917 207.846 483.906 207.466 483.125 206.706C482.349 205.945 481.961 204.932 481.961 203.667V203.448C481.961 202.599 482.125 201.841 482.453 201.175C482.781 200.503 483.245 199.987 483.844 199.628C484.448 199.263 485.135 199.081 485.906 199.081C487.062 199.081 487.971 199.445 488.633 200.175C489.299 200.904 489.633 201.938 489.633 203.276V204.198H484.25C484.323 204.75 484.542 205.193 484.906 205.526C485.276 205.859 485.742 206.026 486.305 206.026C487.174 206.026 487.854 205.711 488.344 205.081L489.453 206.323C489.115 206.802 488.656 207.177 488.078 207.448C487.5 207.714 486.859 207.846 486.156 207.846ZM485.898 200.909C485.45 200.909 485.086 201.06 484.805 201.362C484.529 201.664 484.352 202.096 484.273 202.659H487.414V202.479C487.404 201.979 487.268 201.594 487.008 201.323C486.747 201.047 486.378 200.909 485.898 200.909ZM495.672 201.354C495.365 201.313 495.094 201.292 494.859 201.292C494.005 201.292 493.445 201.581 493.18 202.159V207.69H490.922V199.237H493.055L493.117 200.245C493.57 199.469 494.198 199.081 495 199.081C495.25 199.081 495.484 199.115 495.703 199.182L495.672 201.354Z" fill="#828282"/>
</svg>
