<svg width="1074" height="385" viewBox="0 0 1074 385" fill="none" xmlns="http://www.w3.org/2000/svg">
<rect width="1074" height="385" fill="white"/>
<path d="M186.177 120L139.621 46H276.993L327.225 120H186.177Z" fill="#FFE3C5" stroke="#F77F00" stroke-width="4"/>
<path d="M206.814 93.432C213.258 93.432 216.102 89.976 216.102 85.98C216.102 77.052 202.134 79.824 202.134 75.324C202.134 73.56 203.718 72.336 206.166 72.336C208.686 72.336 211.242 73.2 213.15 75.108L215.526 71.976C213.33 69.816 210.27 68.592 206.562 68.592C201.27 68.592 197.814 71.652 197.814 75.648C197.814 84.468 211.782 81.336 211.782 86.376C211.782 87.996 210.45 89.688 206.994 89.688C203.646 89.688 201.018 88.104 199.398 86.34L197.022 89.616C199.182 91.848 202.386 93.432 206.814 93.432ZM231.501 93.432C236.325 93.432 239.313 90.876 241.149 87.996L237.549 86.196C236.397 88.176 234.057 89.688 231.501 89.688C226.749 89.688 223.221 86.016 223.221 81.012C223.221 75.936 226.749 72.336 231.501 72.336C234.057 72.336 236.397 73.812 237.549 75.828L241.113 73.956C239.349 71.076 236.325 68.592 231.501 68.592C224.409 68.592 218.901 73.596 218.901 81.012C218.901 88.392 224.409 93.432 231.501 93.432ZM269.432 93V68.988H263.492L256.976 85.476L250.424 68.988H244.484V93H248.696V74.46L256.076 93H257.876L265.22 74.46V93H269.432Z" fill="#F77F00"/>
<path d="M756.138 115L709.754 46H847.033L897.079 115H756.138Z" fill="#D5F7D3" stroke="#18A40E" stroke-width="4"/>
<path d="M792.582 90.1819V66.1699H786.642L780.126 82.6579L773.574 66.1699H767.634V90.1819H771.846V71.6419L779.226 90.1819H781.026L788.37 71.6419V90.1819H792.582ZM801.905 90.1819V79.7779H813.893V76.0699H801.905V69.8779H814.145V66.1699H797.693V90.1819H801.905ZM829.534 90.6499C833.674 90.6499 837.058 88.8859 839.398 86.2579V77.2939H828.022V81.0019H835.222V84.7099C834.142 85.7539 831.982 86.8699 829.534 86.8699C824.782 86.8699 821.254 83.1979 821.254 78.1939C821.254 73.1179 824.782 69.5179 829.534 69.5179C832.198 69.5179 834.466 70.9219 835.762 72.7219L839.182 70.7419C837.274 68.0059 834.214 65.7739 829.534 65.7739C822.55 65.7739 816.934 70.6339 816.934 78.1939C816.934 85.7179 822.55 90.6499 829.534 90.6499Z" fill="#18A40E"/>
<rect x="196" y="155" width="128" height="34" fill="#E8F1F6" stroke="#003049" stroke-width="2"/>
<path d="M224.463 178.24C228.043 178.24 229.623 176.32 229.623 174.1C229.623 169.14 221.863 170.68 221.863 168.18C221.863 167.2 222.743 166.52 224.103 166.52C225.503 166.52 226.923 167 227.983 168.06L229.303 166.32C228.083 165.12 226.383 164.44 224.323 164.44C221.383 164.44 219.463 166.14 219.463 168.36C219.463 173.26 227.223 171.52 227.223 174.32C227.223 175.22 226.483 176.16 224.563 176.16C222.703 176.16 221.243 175.28 220.343 174.3L219.023 176.12C220.223 177.36 222.003 178.24 224.463 178.24ZM238.178 178.24C240.858 178.24 242.518 176.82 243.538 175.22L241.538 174.22C240.898 175.32 239.598 176.16 238.178 176.16C235.538 176.16 233.578 174.12 233.578 171.34C233.578 168.52 235.538 166.52 238.178 166.52C239.598 166.52 240.898 167.34 241.538 168.46L243.518 167.42C242.538 165.82 240.858 164.44 238.178 164.44C234.238 164.44 231.178 167.22 231.178 171.34C231.178 175.44 234.238 178.24 238.178 178.24ZM259.251 178V164.66H255.951L252.331 173.82L248.691 164.66H245.391V178H247.731V167.7L251.831 178H252.831L256.911 167.7V178H259.251ZM281.106 178V164.66H277.806L274.186 173.82L270.546 164.66H267.246V178H269.586V167.7L273.686 178H274.686L278.766 167.7V178H281.106ZM287.825 181.92C290.185 181.92 292.785 180.98 292.785 177.5V168.34H290.685V169.68C289.905 168.64 288.805 168.1 287.585 168.1C285.085 168.1 283.305 169.92 283.305 173.06C283.305 176.24 285.125 178.02 287.585 178.02C288.845 178.02 289.945 177.38 290.685 176.4V177.5C290.685 179.56 289.205 180.2 287.825 180.2C286.545 180.2 285.545 179.86 284.745 178.96L283.765 180.48C284.965 181.56 286.185 181.92 287.825 181.92ZM288.205 176.14C286.525 176.14 285.465 174.92 285.465 173.06C285.465 171.2 286.525 169.96 288.205 169.96C289.185 169.96 290.205 170.54 290.685 171.24V174.86C290.205 175.56 289.185 176.14 288.205 176.14ZM297.606 178V171.42C298.026 170.72 299.206 170.12 300.106 170.12C300.366 170.12 300.566 170.14 300.746 170.18V168.1C299.506 168.1 298.346 168.82 297.606 169.74V168.34H295.506V178H297.606Z" fill="#003049"/>
<rect x="751" y="154" width="128" height="34" fill="#E8F1F6" stroke="#003049" stroke-width="2"/>
<path d="M788.694 177V163.66H785.394L781.774 172.82L778.134 163.66H774.834V177H777.174V166.7L781.274 177H782.274L786.354 166.7V177H788.694ZM793.873 177V171.22H800.533V169.16H793.873V165.72H800.673V163.66H791.533V177H793.873ZM809.223 177.26C811.523 177.26 813.403 176.28 814.703 174.82V169.84H808.383V171.9H812.383V173.96C811.783 174.54 810.583 175.16 809.223 175.16C806.583 175.16 804.623 173.12 804.623 170.34C804.623 167.52 806.583 165.52 809.223 165.52C810.703 165.52 811.963 166.3 812.683 167.3L814.583 166.2C813.523 164.68 811.823 163.44 809.223 163.44C805.343 163.44 802.223 166.14 802.223 170.34C802.223 174.52 805.343 177.26 809.223 177.26ZM836.155 177V163.66H832.855L829.235 172.82L825.595 163.66H822.295V177H824.635V166.7L828.735 177H829.735L833.815 166.7V177H836.155ZM842.874 180.92C845.234 180.92 847.834 179.98 847.834 176.5V167.34H845.734V168.68C844.954 167.64 843.854 167.1 842.634 167.1C840.134 167.1 838.354 168.92 838.354 172.06C838.354 175.24 840.174 177.02 842.634 177.02C843.894 177.02 844.994 176.38 845.734 175.4V176.5C845.734 178.56 844.254 179.2 842.874 179.2C841.594 179.2 840.594 178.86 839.794 177.96L838.814 179.48C840.014 180.56 841.234 180.92 842.874 180.92ZM843.254 175.14C841.574 175.14 840.514 173.92 840.514 172.06C840.514 170.2 841.574 168.96 843.254 168.96C844.234 168.96 845.254 169.54 845.734 170.24V173.86C845.254 174.56 844.234 175.14 843.254 175.14ZM852.655 177V170.42C853.075 169.72 854.255 169.12 855.155 169.12C855.415 169.12 855.615 169.14 855.795 169.18V167.1C854.555 167.1 853.395 167.82 852.655 168.74V167.34H850.555V177H852.655Z" fill="#003049"/>
<rect x="34" y="223" width="128" height="34" fill="#FFE3C5" stroke="#003049" stroke-width="2"/>
<path d="M70.682 245L67.402 239.76C69.022 239.5 70.582 238.2 70.582 235.84C70.582 233.36 68.842 231.66 66.202 231.66H60.342V245H62.682V240.02H65.022L67.962 245H70.682ZM65.902 237.96H62.682V233.72H65.902C67.222 233.72 68.182 234.54 68.182 235.82C68.182 237.12 67.222 237.96 65.902 237.96ZM76.7346 245.24C78.2546 245.24 79.6746 244.74 80.6546 243.82L79.6946 242.44C78.9946 243.14 77.8946 243.52 76.9346 243.52C75.1146 243.52 74.0346 242.3 73.8746 240.86H81.3146V240.34C81.3146 237.3 79.4746 235.1 76.5746 235.1C73.7146 235.1 71.6746 237.36 71.6746 240.16C71.6746 243.22 73.8146 245.24 76.7346 245.24ZM79.2946 239.36H73.8546C73.9346 238.2 74.7746 236.82 76.5546 236.82C78.4546 236.82 79.2346 238.22 79.2946 239.36ZM87.7874 245.24C89.6874 245.24 90.8074 244.42 91.4874 243.52L90.1074 242.22C89.5674 242.98 88.8274 243.38 87.8874 243.38C86.1474 243.38 84.9674 242.04 84.9674 240.16C84.9674 238.28 86.1474 236.96 87.8874 236.96C88.8274 236.96 89.5674 237.32 90.1074 238.08L91.4874 236.82C90.8074 235.9 89.6874 235.1 87.7874 235.1C84.8674 235.1 82.8074 237.24 82.8074 240.16C82.8074 243.08 84.8674 245.24 87.7874 245.24ZM97.8284 245.24C99.3484 245.24 100.768 244.74 101.748 243.82L100.788 242.44C100.088 243.14 98.9884 243.52 98.0284 243.52C96.2084 243.52 95.1284 242.3 94.9684 240.86H102.408V240.34C102.408 237.3 100.568 235.1 97.6684 235.1C94.8084 235.1 92.7684 237.36 92.7684 240.16C92.7684 243.22 94.9084 245.24 97.8284 245.24ZM100.388 239.36H94.9484C95.0284 238.2 95.8684 236.82 97.6484 236.82C99.5484 236.82 100.328 238.22 100.388 239.36ZM105.541 234.16C106.261 234.16 106.841 233.58 106.841 232.86C106.841 232.14 106.261 231.56 105.541 231.56C104.821 231.56 104.241 232.14 104.241 232.86C104.241 233.58 104.821 234.16 105.541 234.16ZM106.581 245V235.34H104.481V245H106.581ZM114.105 245L118.045 235.34H115.805L112.985 242.58L110.165 235.34H107.905L111.845 245H114.105ZM123.844 245.24C125.364 245.24 126.784 244.74 127.764 243.82L126.804 242.44C126.104 243.14 125.004 243.52 124.044 243.52C122.224 243.52 121.144 242.3 120.984 240.86H128.424V240.34C128.424 237.3 126.584 235.1 123.684 235.1C120.824 235.1 118.784 237.36 118.784 240.16C118.784 243.22 120.924 245.24 123.844 245.24ZM126.404 239.36H120.964C121.044 238.2 121.884 236.82 123.664 236.82C125.564 236.82 126.344 238.22 126.404 239.36ZM132.597 245V238.42C133.017 237.72 134.197 237.12 135.097 237.12C135.357 237.12 135.557 237.14 135.737 237.18V235.1C134.497 235.1 133.337 235.82 132.597 236.74V235.34H130.497V245H132.597Z" fill="#003049"/>
<rect x="589" y="222" width="128" height="34" fill="#D5F6D3" stroke="#003049" stroke-width="2"/>
<path d="M618.81 244L613.57 230.66H610.65L605.41 244H608.07L609.05 241.42H615.17L616.15 244H618.81ZM614.51 239.36H609.71L612.11 233L614.51 239.36ZM623.507 244.24C626.107 244.24 627.527 242.94 627.527 241.22C627.527 237.38 621.687 238.66 621.687 236.96C621.687 236.28 622.367 235.76 623.467 235.76C624.687 235.76 625.747 236.28 626.327 236.92L627.207 235.44C626.347 234.68 625.107 234.1 623.467 234.1C621.027 234.1 619.667 235.44 619.667 237.02C619.667 240.74 625.507 239.38 625.507 241.28C625.507 242.04 624.847 242.56 623.587 242.56C622.347 242.56 621.007 241.92 620.327 241.22L619.367 242.72C620.367 243.7 621.847 244.24 623.507 244.24ZM632.94 244.24C635.54 244.24 636.96 242.94 636.96 241.22C636.96 237.38 631.12 238.66 631.12 236.96C631.12 236.28 631.8 235.76 632.9 235.76C634.12 235.76 635.18 236.28 635.76 236.92L636.64 235.44C635.78 234.68 634.54 234.1 632.9 234.1C630.46 234.1 629.1 235.44 629.1 237.02C629.1 240.74 634.94 239.38 634.94 241.28C634.94 242.04 634.28 242.56 633.02 242.56C631.78 242.56 630.44 241.92 629.76 241.22L628.8 242.72C629.8 243.7 631.28 244.24 632.94 244.24ZM643.534 244.24C645.054 244.24 646.474 243.74 647.454 242.82L646.494 241.44C645.794 242.14 644.694 242.52 643.734 242.52C641.914 242.52 640.834 241.3 640.674 239.86H648.114V239.34C648.114 236.3 646.274 234.1 643.374 234.1C640.514 234.1 638.474 236.36 638.474 239.16C638.474 242.22 640.614 244.24 643.534 244.24ZM646.094 238.36H640.654C640.734 237.2 641.574 235.82 643.354 235.82C645.254 235.82 646.034 237.22 646.094 238.36ZM664.147 244V237.02C664.147 235.06 663.127 234.1 661.367 234.1C659.907 234.1 658.627 235 658.087 235.86C657.767 234.82 656.887 234.1 655.447 234.1C653.967 234.1 652.707 235.06 652.287 235.64V234.34H650.187V244H652.287V237.24C652.727 236.62 653.587 235.96 654.527 235.96C655.667 235.96 656.107 236.66 656.107 237.7V244H658.207V237.24C658.627 236.6 659.507 235.96 660.447 235.96C661.587 235.96 662.047 236.66 662.047 237.7V244H664.147ZM668.966 241.1V237.26C669.446 236.54 670.466 235.96 671.466 235.96C673.126 235.96 674.186 237.3 674.186 239.16C674.186 241.04 673.126 242.38 671.466 242.38C670.466 242.38 669.446 241.82 668.966 241.1ZM668.966 244V242.68C669.706 243.64 670.826 244.24 672.066 244.24C674.546 244.24 676.366 242.36 676.366 239.16C676.366 236.04 674.566 234.1 672.066 234.1C670.866 234.1 669.746 234.64 668.966 235.68V230.66H666.866V244H668.966ZM680.587 244V230.66H678.487V244H680.587ZM687.792 244.24C689.312 244.24 690.732 243.74 691.712 242.82L690.752 241.44C690.052 242.14 688.952 242.52 687.992 242.52C686.172 242.52 685.092 241.3 684.932 239.86H692.372V239.34C692.372 236.3 690.532 234.1 687.632 234.1C684.772 234.1 682.732 236.36 682.732 239.16C682.732 242.22 684.872 244.24 687.792 244.24ZM690.352 238.36H684.912C684.992 237.2 685.832 235.82 687.612 235.82C689.512 235.82 690.292 237.22 690.352 238.36ZM696.544 244V237.42C696.964 236.72 698.144 236.12 699.044 236.12C699.304 236.12 699.504 236.14 699.684 236.18V234.1C698.444 234.1 697.284 234.82 696.544 235.74V234.34H694.444V244H696.544Z" fill="#003049"/>
<rect x="196" y="291" width="128" height="34" fill="#FFE3C5" stroke="#003049" stroke-width="2"/>
<path d="M232.682 313L229.402 307.76C231.022 307.5 232.582 306.2 232.582 303.84C232.582 301.36 230.842 299.66 228.202 299.66H222.342V313H224.682V308.02H227.022L229.962 313H232.682ZM227.902 305.96H224.682V301.72H227.902C229.222 301.72 230.182 302.54 230.182 303.82C230.182 305.12 229.222 305.96 227.902 305.96ZM238.735 313.24C240.255 313.24 241.675 312.74 242.655 311.82L241.695 310.44C240.995 311.14 239.895 311.52 238.935 311.52C237.115 311.52 236.035 310.3 235.875 308.86H243.315V308.34C243.315 305.3 241.475 303.1 238.575 303.1C235.715 303.1 233.675 305.36 233.675 308.16C233.675 311.22 235.815 313.24 238.735 313.24ZM241.295 307.36H235.855C235.935 306.2 236.775 304.82 238.555 304.82C240.455 304.82 241.235 306.22 241.295 307.36ZM249.787 313.24C251.687 313.24 252.807 312.42 253.487 311.52L252.107 310.22C251.567 310.98 250.827 311.38 249.887 311.38C248.147 311.38 246.967 310.04 246.967 308.16C246.967 306.28 248.147 304.96 249.887 304.96C250.827 304.96 251.567 305.32 252.107 306.08L253.487 304.82C252.807 303.9 251.687 303.1 249.787 303.1C246.867 303.1 244.807 305.24 244.807 308.16C244.807 311.08 246.867 313.24 249.787 313.24ZM259.828 313.24C261.348 313.24 262.768 312.74 263.748 311.82L262.788 310.44C262.088 311.14 260.988 311.52 260.028 311.52C258.208 311.52 257.128 310.3 256.968 308.86H264.408V308.34C264.408 305.3 262.568 303.1 259.668 303.1C256.808 303.1 254.768 305.36 254.768 308.16C254.768 311.22 256.908 313.24 259.828 313.24ZM262.388 307.36H256.948C257.028 306.2 257.868 304.82 259.648 304.82C261.548 304.82 262.328 306.22 262.388 307.36ZM267.541 302.16C268.261 302.16 268.841 301.58 268.841 300.86C268.841 300.14 268.261 299.56 267.541 299.56C266.821 299.56 266.241 300.14 266.241 300.86C266.241 301.58 266.821 302.16 267.541 302.16ZM268.581 313V303.34H266.481V313H268.581ZM276.105 313L280.045 303.34H277.805L274.985 310.58L272.165 303.34H269.905L273.845 313H276.105ZM285.844 313.24C287.364 313.24 288.784 312.74 289.764 311.82L288.804 310.44C288.104 311.14 287.004 311.52 286.044 311.52C284.224 311.52 283.144 310.3 282.984 308.86H290.424V308.34C290.424 305.3 288.584 303.1 285.684 303.1C282.824 303.1 280.784 305.36 280.784 308.16C280.784 311.22 282.924 313.24 285.844 313.24ZM288.404 307.36H282.964C283.044 306.2 283.884 304.82 285.664 304.82C287.564 304.82 288.344 306.22 288.404 307.36ZM294.597 313V306.42C295.017 305.72 296.197 305.12 297.097 305.12C297.357 305.12 297.557 305.14 297.737 305.18V303.1C296.497 303.1 295.337 303.82 294.597 304.74V303.34H292.497V313H294.597Z" fill="#003049"/>
<rect x="196" y="223" width="128" height="34" fill="#FFE3C5" stroke="#003049" stroke-width="2"/>
<path d="M242.592 245C245.112 245 246.472 243.46 246.472 241.38C246.472 239.76 245.332 238.34 243.892 238.12C245.132 237.86 246.212 236.72 246.212 235.06C246.212 233.18 244.872 231.66 242.412 231.66H235.852V245H242.592ZM241.952 237.16H238.192V233.72H241.952C243.132 233.72 243.812 234.46 243.812 235.44C243.812 236.46 243.132 237.16 241.952 237.16ZM242.052 242.94H238.192V239.22H242.052C243.372 239.22 244.072 240.08 244.072 241.08C244.072 242.24 243.312 242.94 242.052 242.94ZM257.4 245V235.34H255.3V242.12C254.82 242.76 253.9 243.38 252.84 243.38C251.64 243.38 250.88 242.9 250.88 241.4V235.34H248.78V242.18C248.78 244.14 249.82 245.24 251.9 245.24C253.42 245.24 254.62 244.48 255.3 243.72V245H257.4ZM259.728 248.78C260.008 248.86 260.608 248.92 260.908 248.92C262.408 248.9 263.548 248.38 264.208 246.74L268.868 235.34H266.628L263.808 242.58L260.988 235.34H258.728L262.708 245.12L262.228 246.22C261.948 246.86 261.508 247.06 260.828 247.06C260.588 247.06 260.248 247 260.028 246.9L259.728 248.78ZM274.666 245.24C276.186 245.24 277.606 244.74 278.586 243.82L277.626 242.44C276.926 243.14 275.826 243.52 274.866 243.52C273.046 243.52 271.966 242.3 271.806 240.86H279.246V240.34C279.246 237.3 277.406 235.1 274.506 235.1C271.646 235.1 269.606 237.36 269.606 240.16C269.606 243.22 271.746 245.24 274.666 245.24ZM277.226 239.36H271.786C271.866 238.2 272.706 236.82 274.486 236.82C276.386 236.82 277.166 238.22 277.226 239.36ZM283.419 245V238.42C283.839 237.72 285.019 237.12 285.919 237.12C286.179 237.12 286.379 237.14 286.559 237.18V235.1C285.319 235.1 284.159 235.82 283.419 236.74V235.34H281.319V245H283.419Z" fill="#003049"/>
<rect x="913" y="222" width="128" height="34" fill="#D5F6D3" stroke="#003049" stroke-width="2"/>
<path d="M937.112 244V232.72H941.152V230.66H930.732V232.72H934.772V244H937.112ZM945.445 244.24C946.965 244.24 948.385 243.74 949.365 242.82L948.405 241.44C947.705 242.14 946.605 242.52 945.645 242.52C943.825 242.52 942.745 241.3 942.585 239.86H950.025V239.34C950.025 236.3 948.185 234.1 945.285 234.1C942.425 234.1 940.385 236.36 940.385 239.16C940.385 242.22 942.525 244.24 945.445 244.24ZM948.005 238.36H942.565C942.645 237.2 943.485 235.82 945.265 235.82C947.165 235.82 947.945 237.22 948.005 238.36ZM956.498 244.24C958.398 244.24 959.518 243.42 960.198 242.52L958.818 241.22C958.278 241.98 957.538 242.38 956.598 242.38C954.858 242.38 953.678 241.04 953.678 239.16C953.678 237.28 954.858 235.96 956.598 235.96C957.538 235.96 958.278 236.32 958.818 237.08L960.198 235.82C959.518 234.9 958.398 234.1 956.498 234.1C953.578 234.1 951.518 236.24 951.518 239.16C951.518 242.08 953.578 244.24 956.498 244.24ZM970.699 244V237.16C970.699 235.18 969.659 234.1 967.579 234.1C966.059 234.1 964.819 234.88 964.179 235.64V230.66H962.079V244H964.179V237.24C964.659 236.6 965.579 235.96 966.659 235.96C967.839 235.96 968.599 236.4 968.599 237.92V244H970.699ZM982.066 244V237.2C982.066 235.22 981.026 234.1 978.946 234.1C977.426 234.1 976.166 234.88 975.526 235.64V234.34H973.426V244H975.526V237.24C976.026 236.6 976.946 235.96 978.006 235.96C979.186 235.96 979.966 236.44 979.966 237.96V244H982.066ZM985.854 233.16C986.574 233.16 987.154 232.58 987.154 231.86C987.154 231.14 986.574 230.56 985.854 230.56C985.134 230.56 984.554 231.14 984.554 231.86C984.554 232.58 985.134 233.16 985.854 233.16ZM986.894 244V234.34H984.794V244H986.894ZM994.018 244.24C995.918 244.24 997.038 243.42 997.718 242.52L996.338 241.22C995.798 241.98 995.058 242.38 994.118 242.38C992.378 242.38 991.198 241.04 991.198 239.16C991.198 237.28 992.378 235.96 994.118 235.96C995.058 235.96 995.798 236.32 996.338 237.08L997.718 235.82C997.038 234.9 995.918 234.1 994.018 234.1C991.098 234.1 989.038 236.24 989.038 239.16C989.038 242.08 991.098 244.24 994.018 244.24ZM1000.64 233.16C1001.36 233.16 1001.94 232.58 1001.94 231.86C1001.94 231.14 1001.36 230.56 1000.64 230.56C999.919 230.56 999.339 231.14 999.339 231.86C999.339 232.58 999.919 233.16 1000.64 233.16ZM1001.68 244V234.34H999.579V244H1001.68ZM1012.42 244V237.58C1012.42 235 1010.54 234.1 1008.38 234.1C1006.84 234.1 1005.44 234.58 1004.32 235.66L1005.2 237.12C1006.02 236.28 1006.98 235.88 1008.06 235.88C1009.38 235.88 1010.32 236.56 1010.32 237.68V239.12C1009.6 238.3 1008.5 237.88 1007.18 237.88C1005.6 237.88 1003.84 238.8 1003.84 241.04C1003.84 243.16 1005.62 244.24 1007.18 244.24C1008.46 244.24 1009.6 243.78 1010.32 242.94V244H1012.42ZM1008.02 242.8C1006.84 242.8 1005.94 242.12 1005.94 241.06C1005.94 240.02 1006.84 239.32 1008.02 239.32C1008.92 239.32 1009.82 239.66 1010.32 240.32V241.8C1009.82 242.46 1008.92 242.8 1008.02 242.8ZM1023.79 244V237.2C1023.79 235.22 1022.75 234.1 1020.67 234.1C1019.15 234.1 1017.89 234.88 1017.25 235.64V234.34H1015.15V244H1017.25V237.24C1017.75 236.6 1018.67 235.96 1019.73 235.96C1020.91 235.96 1021.69 236.44 1021.69 237.96V244H1023.79Z" fill="#003049"/>
<rect x="363" y="222" width="128" height="34" fill="#FFE3C5" stroke="#003049" stroke-width="2"/>
<path d="M389.009 244V230.66H386.669V244H389.009ZM400.424 244V237.2C400.424 235.22 399.384 234.1 397.304 234.1C395.784 234.1 394.524 234.88 393.884 235.64V234.34H391.784V244H393.884V237.24C394.384 236.6 395.304 235.96 396.364 235.96C397.544 235.96 398.324 236.44 398.324 237.96V244H400.424ZM406.472 244.24C409.072 244.24 410.492 242.94 410.492 241.22C410.492 237.38 404.652 238.66 404.652 236.96C404.652 236.28 405.332 235.76 406.432 235.76C407.652 235.76 408.712 236.28 409.292 236.92L410.172 235.44C409.312 234.68 408.072 234.1 406.432 234.1C403.992 234.1 402.632 235.44 402.632 237.02C402.632 240.74 408.472 239.38 408.472 241.28C408.472 242.04 407.812 242.56 406.552 242.56C405.312 242.56 403.972 241.92 403.292 241.22L402.332 242.72C403.332 243.7 404.812 244.24 406.472 244.24ZM417.785 244.24C420.285 244.24 422.065 242.34 422.065 239.16C422.065 235.98 420.285 234.1 417.785 234.1C416.525 234.1 415.405 234.7 414.685 235.66V234.34H412.585V247.68H414.685V242.66C415.485 243.68 416.565 244.24 417.785 244.24ZM417.165 242.38C416.185 242.38 415.145 241.78 414.685 241.06V237.24C415.165 236.52 416.185 235.96 417.165 235.96C418.825 235.96 419.905 237.28 419.905 239.16C419.905 241.04 418.825 242.38 417.165 242.38ZM428.647 244.24C430.167 244.24 431.587 243.74 432.567 242.82L431.607 241.44C430.907 242.14 429.807 242.52 428.847 242.52C427.027 242.52 425.947 241.3 425.787 239.86H433.227V239.34C433.227 236.3 431.387 234.1 428.487 234.1C425.627 234.1 423.587 236.36 423.587 239.16C423.587 242.22 425.727 244.24 428.647 244.24ZM431.207 238.36H425.767C425.847 237.2 426.687 235.82 428.467 235.82C430.367 235.82 431.147 237.22 431.207 238.36ZM439.7 244.24C441.6 244.24 442.72 243.42 443.4 242.52L442.02 241.22C441.48 241.98 440.74 242.38 439.8 242.38C438.06 242.38 436.88 241.04 436.88 239.16C436.88 237.28 438.06 235.96 439.8 235.96C440.74 235.96 441.48 236.32 442.02 237.08L443.4 235.82C442.72 234.9 441.6 234.1 439.7 234.1C436.78 234.1 434.72 236.24 434.72 239.16C434.72 242.08 436.78 244.24 439.7 244.24ZM448.181 244.24C449.141 244.24 449.761 243.96 450.141 243.62L449.641 242.02C449.481 242.2 449.121 242.38 448.721 242.38C448.121 242.38 447.801 241.88 447.801 241.22V236.16H449.761V234.34H447.801V231.7H445.701V234.34H444.101V236.16H445.701V241.74C445.701 243.36 446.541 244.24 448.181 244.24ZM456.028 244.24C459.108 244.24 460.988 241.92 460.988 239.16C460.988 236.38 459.108 234.1 456.028 234.1C452.948 234.1 451.068 236.38 451.068 239.16C451.068 241.92 452.948 244.24 456.028 244.24ZM456.028 242.38C454.248 242.38 453.248 240.88 453.248 239.16C453.248 237.46 454.248 235.96 456.028 235.96C457.828 235.96 458.808 237.46 458.808 239.16C458.808 240.88 457.828 242.38 456.028 242.38ZM465.232 244V237.42C465.652 236.72 466.832 236.12 467.732 236.12C467.992 236.12 468.192 236.14 468.372 236.18V234.1C467.132 234.1 465.972 234.82 465.232 235.74V234.34H463.132V244H465.232Z" fill="#003049"/>
<rect x="751" y="222" width="128" height="34" fill="#D5F6D3" stroke="#003049" stroke-width="2"/>
<path d="M777.009 244V230.66H774.669V244H777.009ZM788.424 244V237.2C788.424 235.22 787.384 234.1 785.304 234.1C783.784 234.1 782.524 234.88 781.884 235.64V234.34H779.784V244H781.884V237.24C782.384 236.6 783.304 235.96 784.364 235.96C785.544 235.96 786.324 236.44 786.324 237.96V244H788.424ZM794.472 244.24C797.072 244.24 798.492 242.94 798.492 241.22C798.492 237.38 792.652 238.66 792.652 236.96C792.652 236.28 793.332 235.76 794.432 235.76C795.652 235.76 796.712 236.28 797.292 236.92L798.172 235.44C797.312 234.68 796.072 234.1 794.432 234.1C791.992 234.1 790.632 235.44 790.632 237.02C790.632 240.74 796.472 239.38 796.472 241.28C796.472 242.04 795.812 242.56 794.552 242.56C793.312 242.56 791.972 241.92 791.292 241.22L790.332 242.72C791.332 243.7 792.812 244.24 794.472 244.24ZM805.785 244.24C808.285 244.24 810.065 242.34 810.065 239.16C810.065 235.98 808.285 234.1 805.785 234.1C804.525 234.1 803.405 234.7 802.685 235.66V234.34H800.585V247.68H802.685V242.66C803.485 243.68 804.565 244.24 805.785 244.24ZM805.165 242.38C804.185 242.38 803.145 241.78 802.685 241.06V237.24C803.165 236.52 804.185 235.96 805.165 235.96C806.825 235.96 807.905 237.28 807.905 239.16C807.905 241.04 806.825 242.38 805.165 242.38ZM816.647 244.24C818.167 244.24 819.587 243.74 820.567 242.82L819.607 241.44C818.907 242.14 817.807 242.52 816.847 242.52C815.027 242.52 813.947 241.3 813.787 239.86H821.227V239.34C821.227 236.3 819.387 234.1 816.487 234.1C813.627 234.1 811.587 236.36 811.587 239.16C811.587 242.22 813.727 244.24 816.647 244.24ZM819.207 238.36H813.767C813.847 237.2 814.687 235.82 816.467 235.82C818.367 235.82 819.147 237.22 819.207 238.36ZM827.7 244.24C829.6 244.24 830.72 243.42 831.4 242.52L830.02 241.22C829.48 241.98 828.74 242.38 827.8 242.38C826.06 242.38 824.88 241.04 824.88 239.16C824.88 237.28 826.06 235.96 827.8 235.96C828.74 235.96 829.48 236.32 830.02 237.08L831.4 235.82C830.72 234.9 829.6 234.1 827.7 234.1C824.78 234.1 822.72 236.24 822.72 239.16C822.72 242.08 824.78 244.24 827.7 244.24ZM836.181 244.24C837.141 244.24 837.761 243.96 838.141 243.62L837.641 242.02C837.481 242.2 837.121 242.38 836.721 242.38C836.121 242.38 835.801 241.88 835.801 241.22V236.16H837.761V234.34H835.801V231.7H833.701V234.34H832.101V236.16H833.701V241.74C833.701 243.36 834.541 244.24 836.181 244.24ZM844.028 244.24C847.108 244.24 848.988 241.92 848.988 239.16C848.988 236.38 847.108 234.1 844.028 234.1C840.948 234.1 839.068 236.38 839.068 239.16C839.068 241.92 840.948 244.24 844.028 244.24ZM844.028 242.38C842.248 242.38 841.248 240.88 841.248 239.16C841.248 237.46 842.248 235.96 844.028 235.96C845.828 235.96 846.808 237.46 846.808 239.16C846.808 240.88 845.828 242.38 844.028 242.38ZM853.232 244V237.42C853.652 236.72 854.832 236.12 855.732 236.12C855.992 236.12 856.192 236.14 856.372 236.18V234.1C855.132 234.1 853.972 234.82 853.232 235.74V234.34H851.132V244H853.232Z" fill="#003049"/>
<rect x="34" y="291" width="128" height="34" fill="#FFE3C5" stroke="#003049" stroke-width="2"/>
<path d="M62.2684 313L66.0884 299.66H63.4684L60.8684 309.92L58.1084 299.66H56.2484L53.4884 309.92L50.8884 299.66H48.2884L52.0884 313H54.5884L57.1884 303.14L59.7684 313H62.2684ZM74.7941 313V306.58C74.7941 304 72.9141 303.1 70.7541 303.1C69.2141 303.1 67.8141 303.58 66.6941 304.66L67.5741 306.12C68.3941 305.28 69.3541 304.88 70.4341 304.88C71.7541 304.88 72.6941 305.56 72.6941 306.68V308.12C71.9741 307.3 70.8741 306.88 69.5541 306.88C67.9741 306.88 66.2141 307.8 66.2141 310.04C66.2141 312.16 67.9941 313.24 69.5541 313.24C70.8341 313.24 71.9741 312.78 72.6941 311.94V313H74.7941ZM70.3941 311.8C69.2141 311.8 68.3141 311.12 68.3141 310.06C68.3141 309.02 69.2141 308.32 70.3941 308.32C71.2941 308.32 72.1941 308.66 72.6941 309.32V310.8C72.1941 311.46 71.2941 311.8 70.3941 311.8ZM79.6163 313V306.42C80.0363 305.72 81.2163 305.12 82.1163 305.12C82.3763 305.12 82.5763 305.14 82.7563 305.18V303.1C81.5163 303.1 80.3563 303.82 79.6163 304.74V303.34H77.5163V313H79.6163ZM88.9298 313.24C90.4498 313.24 91.8698 312.74 92.8498 311.82L91.8898 310.44C91.1898 311.14 90.0898 311.52 89.1298 311.52C87.3098 311.52 86.2298 310.3 86.0698 308.86H93.5098V308.34C93.5098 305.3 91.6698 303.1 88.7698 303.1C85.9098 303.1 83.8698 305.36 83.8698 308.16C83.8698 311.22 86.0098 313.24 88.9298 313.24ZM91.4898 307.36H86.0498C86.1298 306.2 86.9698 304.82 88.7498 304.82C90.6498 304.82 91.4298 306.22 91.4898 307.36ZM104.223 313V306.16C104.223 304.18 103.183 303.1 101.103 303.1C99.5827 303.1 98.3427 303.88 97.7027 304.64V299.66H95.6027V313H97.7027V306.24C98.1827 305.6 99.1027 304.96 100.183 304.96C101.363 304.96 102.123 305.4 102.123 306.92V313H104.223ZM111.33 313.24C114.41 313.24 116.29 310.92 116.29 308.16C116.29 305.38 114.41 303.1 111.33 303.1C108.25 303.1 106.37 305.38 106.37 308.16C106.37 310.92 108.25 313.24 111.33 313.24ZM111.33 311.38C109.55 311.38 108.55 309.88 108.55 308.16C108.55 306.46 109.55 304.96 111.33 304.96C113.13 304.96 114.11 306.46 114.11 308.16C114.11 309.88 113.13 311.38 111.33 311.38ZM127.054 313V303.34H124.954V310.12C124.474 310.76 123.554 311.38 122.494 311.38C121.294 311.38 120.534 310.9 120.534 309.4V303.34H118.434V310.18C118.434 312.14 119.474 313.24 121.554 313.24C123.074 313.24 124.274 312.48 124.954 311.72V313H127.054ZM133.102 313.24C135.702 313.24 137.122 311.94 137.122 310.22C137.122 306.38 131.282 307.66 131.282 305.96C131.282 305.28 131.962 304.76 133.062 304.76C134.282 304.76 135.342 305.28 135.922 305.92L136.802 304.44C135.942 303.68 134.702 303.1 133.062 303.1C130.622 303.1 129.262 304.44 129.262 306.02C129.262 309.74 135.102 308.38 135.102 310.28C135.102 311.04 134.442 311.56 133.182 311.56C131.942 311.56 130.602 310.92 129.922 310.22L128.962 311.72C129.962 312.7 131.442 313.24 133.102 313.24ZM143.695 313.24C145.215 313.24 146.635 312.74 147.615 311.82L146.655 310.44C145.955 311.14 144.855 311.52 143.895 311.52C142.075 311.52 140.995 310.3 140.835 308.86H148.275V308.34C148.275 305.3 146.435 303.1 143.535 303.1C140.675 303.1 138.635 305.36 138.635 308.16C138.635 311.22 140.775 313.24 143.695 313.24ZM146.255 307.36H140.815C140.895 306.2 141.735 304.82 143.515 304.82C145.415 304.82 146.195 306.22 146.255 307.36Z" fill="#003049"/>
<rect x="363" y="291" width="128" height="34" fill="#FFE3C5" stroke="#003049" stroke-width="2"/>
<path d="M396.869 313V308H400.409C403.189 308 404.749 306.1 404.749 303.84C404.749 301.56 403.209 299.66 400.409 299.66H394.529V313H396.869ZM400.089 305.94H396.869V301.72H400.089C401.409 301.72 402.349 302.56 402.349 303.84C402.349 305.1 401.409 305.94 400.089 305.94ZM408.756 313V299.66H406.656V313H408.756ZM419.501 313V306.58C419.501 304 417.621 303.1 415.461 303.1C413.921 303.1 412.521 303.58 411.401 304.66L412.281 306.12C413.101 305.28 414.061 304.88 415.141 304.88C416.461 304.88 417.401 305.56 417.401 306.68V308.12C416.681 307.3 415.581 306.88 414.261 306.88C412.681 306.88 410.921 307.8 410.921 310.04C410.921 312.16 412.701 313.24 414.261 313.24C415.541 313.24 416.681 312.78 417.401 311.94V313H419.501ZM415.101 311.8C413.921 311.8 413.021 311.12 413.021 310.06C413.021 309.02 413.921 308.32 415.101 308.32C416.001 308.32 416.901 308.66 417.401 309.32V310.8C416.901 311.46 416.001 311.8 415.101 311.8ZM430.863 313V306.2C430.863 304.22 429.823 303.1 427.743 303.1C426.223 303.1 424.963 303.88 424.323 304.64V303.34H422.223V313H424.323V306.24C424.823 305.6 425.743 304.96 426.803 304.96C427.983 304.96 428.763 305.44 428.763 306.96V313H430.863ZM442.23 313V306.2C442.23 304.22 441.19 303.1 439.11 303.1C437.59 303.1 436.33 303.88 435.69 304.64V303.34H433.59V313H435.69V306.24C436.19 305.6 437.11 304.96 438.17 304.96C439.35 304.96 440.13 305.44 440.13 306.96V313H442.23ZM449.437 313.24C450.957 313.24 452.377 312.74 453.357 311.82L452.397 310.44C451.697 311.14 450.597 311.52 449.637 311.52C447.817 311.52 446.737 310.3 446.577 308.86H454.017V308.34C454.017 305.3 452.177 303.1 449.277 303.1C446.417 303.1 444.377 305.36 444.377 308.16C444.377 311.22 446.517 313.24 449.437 313.24ZM451.997 307.36H446.557C446.637 306.2 447.477 304.82 449.257 304.82C451.157 304.82 451.937 306.22 451.997 307.36ZM458.19 313V306.42C458.61 305.72 459.79 305.12 460.69 305.12C460.95 305.12 461.15 305.14 461.33 305.18V303.1C460.09 303.1 458.93 303.82 458.19 304.74V303.34H456.09V313H458.19Z" fill="#003049"/>
</svg>
