<svg width="961" height="365" viewBox="0 0 961 365" fill="none" xmlns="http://www.w3.org/2000/svg">
<g clip-path="url(#clip0)">
<rect width="961" height="365" fill="white"/>
<rect x="59" y="159" width="145" height="58" stroke="#003049" stroke-width="2"/>
<rect x="354" y="48" width="169" height="47" stroke="#003049" stroke-width="2"/>
<path d="M369.084 71.9902V77H367.397V64.2031H372.116C373.517 64.2031 374.612 64.5605 375.403 65.2754C376.2 65.9902 376.599 66.9365 376.599 68.1143C376.599 69.3564 376.209 70.3145 375.43 70.9883C374.656 71.6562 373.546 71.9902 372.099 71.9902H369.084ZM369.084 70.6104H372.116C373.019 70.6104 373.71 70.3994 374.191 69.9775C374.671 69.5498 374.911 68.9346 374.911 68.1318C374.911 67.3701 374.671 66.7607 374.191 66.3037C373.71 65.8467 373.051 65.6094 372.213 65.5918H369.084V70.6104ZM380.123 68.6416C380.844 67.7568 381.781 67.3145 382.936 67.3145C384.945 67.3145 385.959 68.4482 385.977 70.7158V77H384.351V70.707C384.345 70.0215 384.187 69.5146 383.876 69.1865C383.571 68.8584 383.094 68.6943 382.443 68.6943C381.916 68.6943 381.453 68.835 381.055 69.1162C380.656 69.3975 380.346 69.7666 380.123 70.2236V77H378.497V63.5H380.123V68.6416ZM391.523 74.6182L393.737 67.4902H395.478L391.654 78.4678C391.063 80.0498 390.122 80.8408 388.833 80.8408L388.526 80.8145L387.919 80.7002V79.3818L388.359 79.417C388.909 79.417 389.337 79.3057 389.642 79.083C389.952 78.8604 390.207 78.4531 390.406 77.8613L390.767 76.8945L387.374 67.4902H389.15L391.523 74.6182ZM402.474 74.4775C402.474 74.0381 402.307 73.6982 401.973 73.458C401.645 73.2119 401.068 73.001 400.241 72.8252C399.421 72.6494 398.768 72.4385 398.281 72.1924C397.801 71.9463 397.443 71.6533 397.209 71.3135C396.981 70.9736 396.866 70.5693 396.866 70.1006C396.866 69.3213 397.194 68.6621 397.851 68.123C398.513 67.584 399.357 67.3145 400.382 67.3145C401.46 67.3145 402.333 67.5928 403.001 68.1494C403.675 68.7061 404.012 69.418 404.012 70.2852H402.377C402.377 69.8398 402.187 69.4561 401.806 69.1338C401.431 68.8115 400.956 68.6504 400.382 68.6504C399.79 68.6504 399.327 68.7793 398.993 69.0371C398.659 69.2949 398.492 69.6318 398.492 70.0479C398.492 70.4404 398.648 70.7363 398.958 70.9355C399.269 71.1348 399.828 71.3252 400.637 71.5068C401.451 71.6885 402.11 71.9053 402.614 72.1572C403.118 72.4092 403.49 72.7139 403.731 73.0713C403.977 73.4229 404.1 73.8535 404.1 74.3633C404.1 75.2129 403.76 75.8955 403.08 76.4111C402.401 76.9209 401.519 77.1758 400.435 77.1758C399.673 77.1758 398.999 77.041 398.413 76.7715C397.827 76.502 397.367 76.127 397.033 75.6465C396.705 75.1602 396.541 74.6357 396.541 74.0732H398.167C398.196 74.6182 398.413 75.0518 398.818 75.374C399.228 75.6904 399.767 75.8486 400.435 75.8486C401.05 75.8486 401.542 75.7256 401.911 75.4795C402.286 75.2275 402.474 74.8936 402.474 74.4775ZM407.985 77H406.359V67.4902H407.985V77ZM406.227 64.9678C406.227 64.7041 406.306 64.4814 406.464 64.2998C406.628 64.1182 406.868 64.0273 407.185 64.0273C407.501 64.0273 407.741 64.1182 407.905 64.2998C408.069 64.4814 408.151 64.7041 408.151 64.9678C408.151 65.2314 408.069 65.4512 407.905 65.627C407.741 65.8027 407.501 65.8906 407.185 65.8906C406.868 65.8906 406.628 65.8027 406.464 65.627C406.306 65.4512 406.227 65.2314 406.227 64.9678ZM414.409 75.8486C414.989 75.8486 415.496 75.6729 415.93 75.3213C416.363 74.9697 416.604 74.5303 416.651 74.0029H418.189C418.159 74.5479 417.972 75.0664 417.626 75.5586C417.28 76.0508 416.818 76.4434 416.237 76.7363C415.663 77.0293 415.054 77.1758 414.409 77.1758C413.114 77.1758 412.083 76.7451 411.316 75.8838C410.554 75.0166 410.173 73.833 410.173 72.333V72.0605C410.173 71.1348 410.343 70.3115 410.683 69.5908C411.023 68.8701 411.509 68.3105 412.142 67.9121C412.78 67.5137 413.533 67.3145 414.401 67.3145C415.467 67.3145 416.352 67.6338 417.055 68.2725C417.764 68.9111 418.142 69.7402 418.189 70.7598H416.651C416.604 70.1445 416.369 69.6406 415.947 69.248C415.531 68.8496 415.016 68.6504 414.401 68.6504C413.574 68.6504 412.933 68.9492 412.476 69.5469C412.025 70.1387 411.799 70.9971 411.799 72.1221V72.4297C411.799 73.5254 412.025 74.3691 412.476 74.9609C412.927 75.5527 413.571 75.8486 414.409 75.8486ZM425.888 77C425.794 76.8125 425.718 76.4785 425.659 75.998C424.903 76.7832 424.001 77.1758 422.952 77.1758C422.015 77.1758 421.244 76.9121 420.641 76.3848C420.043 75.8516 419.744 75.1777 419.744 74.3633C419.744 73.373 420.119 72.6055 420.869 72.0605C421.625 71.5098 422.686 71.2344 424.051 71.2344H425.633V70.4873C425.633 69.9189 425.463 69.4678 425.123 69.1338C424.783 68.7939 424.282 68.624 423.62 68.624C423.04 68.624 422.554 68.7705 422.161 69.0635C421.769 69.3564 421.572 69.7109 421.572 70.127H419.938C419.938 69.6523 420.105 69.1953 420.439 68.7559C420.778 68.3105 421.235 67.959 421.81 67.7012C422.39 67.4434 423.026 67.3145 423.717 67.3145C424.813 67.3145 425.671 67.5898 426.292 68.1406C426.913 68.6855 427.235 69.4385 427.259 70.3994V74.7764C427.259 75.6494 427.37 76.3438 427.593 76.8594V77H425.888ZM423.19 75.7607C423.699 75.7607 424.183 75.6289 424.64 75.3652C425.097 75.1016 425.428 74.7588 425.633 74.3369V72.3857H424.359C422.366 72.3857 421.37 72.9688 421.37 74.1348C421.37 74.6445 421.54 75.043 421.88 75.3301C422.22 75.6172 422.656 75.7607 423.19 75.7607ZM431.574 77H429.948V63.5H431.574V77ZM440.715 77H439.027V64.2031H440.715V77ZM445.092 67.4902L445.145 68.6855C445.871 67.7715 446.82 67.3145 447.992 67.3145C450.002 67.3145 451.016 68.4482 451.033 70.7158V77H449.407V70.707C449.401 70.0215 449.243 69.5146 448.933 69.1865C448.628 68.8584 448.151 68.6943 447.5 68.6943C446.973 68.6943 446.51 68.835 446.111 69.1162C445.713 69.3975 445.402 69.7666 445.18 70.2236V77H443.554V67.4902H445.092ZM456.623 74.7939L458.979 67.4902H460.64L457.23 77H455.99L452.545 67.4902H454.206L456.623 74.7939ZM466.027 77.1758C464.738 77.1758 463.69 76.7539 462.881 75.9102C462.072 75.0605 461.668 73.9268 461.668 72.5088V72.21C461.668 71.2666 461.847 70.4258 462.204 69.6875C462.568 68.9434 463.071 68.3633 463.716 67.9473C464.366 67.5254 465.069 67.3145 465.825 67.3145C467.062 67.3145 468.023 67.7217 468.708 68.5361C469.394 69.3506 469.736 70.5166 469.736 72.0342V72.7109H463.294C463.318 73.6484 463.59 74.4072 464.111 74.9873C464.639 75.5615 465.307 75.8486 466.115 75.8486C466.69 75.8486 467.176 75.7314 467.574 75.4971C467.973 75.2627 468.321 74.9521 468.62 74.5654L469.613 75.3389C468.817 76.5635 467.621 77.1758 466.027 77.1758ZM465.825 68.6504C465.169 68.6504 464.618 68.8906 464.173 69.3711C463.728 69.8457 463.452 70.5137 463.347 71.375H468.11V71.252C468.064 70.4258 467.841 69.7871 467.443 69.3359C467.044 68.8789 466.505 68.6504 465.825 68.6504ZM473.164 67.4902L473.217 68.6855C473.943 67.7715 474.893 67.3145 476.065 67.3145C478.074 67.3145 479.088 68.4482 479.106 70.7158V77H477.48V70.707C477.474 70.0215 477.316 69.5146 477.005 69.1865C476.7 68.8584 476.223 68.6943 475.572 68.6943C475.045 68.6943 474.582 68.835 474.184 69.1162C473.785 69.3975 473.475 69.7666 473.252 70.2236V77H471.626V67.4902H473.164ZM483.764 65.1875V67.4902H485.539V68.7471H483.764V74.6445C483.764 75.0254 483.843 75.3125 484.001 75.5059C484.159 75.6934 484.429 75.7871 484.81 75.7871C484.997 75.7871 485.255 75.752 485.583 75.6816V77C485.155 77.1172 484.739 77.1758 484.335 77.1758C483.609 77.1758 483.061 76.9561 482.692 76.5166C482.322 76.0771 482.138 75.4531 482.138 74.6445V68.7471H480.406V67.4902H482.138V65.1875H483.764ZM486.84 72.1572C486.84 71.2256 487.022 70.3877 487.385 69.6436C487.754 68.8994 488.264 68.3252 488.914 67.9209C489.57 67.5166 490.318 67.3145 491.155 67.3145C492.45 67.3145 493.496 67.7627 494.293 68.6592C495.096 69.5557 495.497 70.748 495.497 72.2363V72.3506C495.497 73.2764 495.318 74.1084 494.961 74.8467C494.61 75.5791 494.103 76.1504 493.441 76.5605C492.784 76.9707 492.028 77.1758 491.173 77.1758C489.884 77.1758 488.838 76.7275 488.035 75.8311C487.238 74.9346 486.84 73.748 486.84 72.2715V72.1572ZM488.475 72.3506C488.475 73.4053 488.718 74.252 489.204 74.8906C489.696 75.5293 490.353 75.8486 491.173 75.8486C491.999 75.8486 492.655 75.5264 493.142 74.8818C493.628 74.2314 493.871 73.3232 493.871 72.1572C493.871 71.1143 493.622 70.2705 493.124 69.626C492.632 68.9756 491.976 68.6504 491.155 68.6504C490.353 68.6504 489.705 68.9697 489.213 69.6084C488.721 70.2471 488.475 71.1611 488.475 72.3506ZM502.133 68.9492C501.887 68.9082 501.62 68.8877 501.333 68.8877C500.267 68.8877 499.543 69.3418 499.162 70.25V77H497.536V67.4902H499.118L499.145 68.5889C499.678 67.7393 500.434 67.3145 501.412 67.3145C501.729 67.3145 501.969 67.3555 502.133 67.4375V68.9492ZM506.905 74.6182L509.12 67.4902H510.86L507.037 78.4678C506.445 80.0498 505.505 80.8408 504.216 80.8408L503.908 80.8145L503.302 80.7002V79.3818L503.741 79.417C504.292 79.417 504.72 79.3057 505.025 79.083C505.335 78.8604 505.59 78.4531 505.789 77.8613L506.15 76.8945L502.757 67.4902H504.532L506.905 74.6182Z" fill="#003049"/>
<path d="M99.6211 188.823H96.6152V194H94.9189V181.203H99.1553C100.597 181.203 101.704 181.531 102.478 182.188C103.257 182.844 103.646 183.799 103.646 185.053C103.646 185.85 103.43 186.544 102.996 187.136C102.568 187.728 101.971 188.17 101.203 188.463L104.209 193.895V194H102.398L99.6211 188.823ZM96.6152 187.443H99.208C100.046 187.443 100.711 187.227 101.203 186.793C101.701 186.359 101.95 185.779 101.95 185.053C101.95 184.262 101.713 183.655 101.238 183.233C100.77 182.812 100.09 182.598 99.1992 182.592H96.6152V187.443ZM109.711 194.176C108.422 194.176 107.373 193.754 106.564 192.91C105.756 192.061 105.352 190.927 105.352 189.509V189.21C105.352 188.267 105.53 187.426 105.888 186.688C106.251 185.943 106.755 185.363 107.399 184.947C108.05 184.525 108.753 184.314 109.509 184.314C110.745 184.314 111.706 184.722 112.392 185.536C113.077 186.351 113.42 187.517 113.42 189.034V189.711H106.978C107.001 190.648 107.273 191.407 107.795 191.987C108.322 192.562 108.99 192.849 109.799 192.849C110.373 192.849 110.859 192.731 111.258 192.497C111.656 192.263 112.005 191.952 112.304 191.565L113.297 192.339C112.5 193.563 111.305 194.176 109.711 194.176ZM109.509 185.65C108.853 185.65 108.302 185.891 107.856 186.371C107.411 186.846 107.136 187.514 107.03 188.375H111.794V188.252C111.747 187.426 111.524 186.787 111.126 186.336C110.728 185.879 110.188 185.65 109.509 185.65ZM119.124 192.849C119.704 192.849 120.211 192.673 120.645 192.321C121.078 191.97 121.318 191.53 121.365 191.003H122.903C122.874 191.548 122.687 192.066 122.341 192.559C121.995 193.051 121.532 193.443 120.952 193.736C120.378 194.029 119.769 194.176 119.124 194.176C117.829 194.176 116.798 193.745 116.03 192.884C115.269 192.017 114.888 190.833 114.888 189.333V189.061C114.888 188.135 115.058 187.312 115.397 186.591C115.737 185.87 116.224 185.311 116.856 184.912C117.495 184.514 118.248 184.314 119.115 184.314C120.182 184.314 121.066 184.634 121.77 185.272C122.479 185.911 122.856 186.74 122.903 187.76H121.365C121.318 187.145 121.084 186.641 120.662 186.248C120.246 185.85 119.73 185.65 119.115 185.65C118.289 185.65 117.647 185.949 117.19 186.547C116.739 187.139 116.514 187.997 116.514 189.122V189.43C116.514 190.525 116.739 191.369 117.19 191.961C117.642 192.553 118.286 192.849 119.124 192.849ZM128.678 194.176C127.389 194.176 126.34 193.754 125.531 192.91C124.723 192.061 124.318 190.927 124.318 189.509V189.21C124.318 188.267 124.497 187.426 124.854 186.688C125.218 185.943 125.722 185.363 126.366 184.947C127.017 184.525 127.72 184.314 128.476 184.314C129.712 184.314 130.673 184.722 131.358 185.536C132.044 186.351 132.387 187.517 132.387 189.034V189.711H125.944C125.968 190.648 126.24 191.407 126.762 191.987C127.289 192.562 127.957 192.849 128.766 192.849C129.34 192.849 129.826 192.731 130.225 192.497C130.623 192.263 130.972 191.952 131.271 191.565L132.264 192.339C131.467 193.563 130.271 194.176 128.678 194.176ZM128.476 185.65C127.819 185.65 127.269 185.891 126.823 186.371C126.378 186.846 126.103 187.514 125.997 188.375H130.761V188.252C130.714 187.426 130.491 186.787 130.093 186.336C129.694 185.879 129.155 185.65 128.476 185.65ZM136.043 194H134.417V184.49H136.043V194ZM134.285 181.968C134.285 181.704 134.364 181.481 134.522 181.3C134.687 181.118 134.927 181.027 135.243 181.027C135.56 181.027 135.8 181.118 135.964 181.3C136.128 181.481 136.21 181.704 136.21 181.968C136.21 182.231 136.128 182.451 135.964 182.627C135.8 182.803 135.56 182.891 135.243 182.891C134.927 182.891 134.687 182.803 134.522 182.627C134.364 182.451 134.285 182.231 134.285 181.968ZM141.791 191.794L144.146 184.49H145.808L142.397 194H141.158L137.713 184.49H139.374L141.791 191.794ZM149.139 194H147.513V184.49H149.139V194ZM147.381 181.968C147.381 181.704 147.46 181.481 147.618 181.3C147.782 181.118 148.022 181.027 148.339 181.027C148.655 181.027 148.896 181.118 149.06 181.3C149.224 181.481 149.306 181.704 149.306 181.968C149.306 182.231 149.224 182.451 149.06 182.627C148.896 182.803 148.655 182.891 148.339 182.891C148.022 182.891 147.782 182.803 147.618 182.627C147.46 182.451 147.381 182.231 147.381 181.968ZM153.287 184.49L153.34 185.686C154.066 184.771 155.016 184.314 156.188 184.314C158.197 184.314 159.211 185.448 159.229 187.716V194H157.603V187.707C157.597 187.021 157.438 186.515 157.128 186.187C156.823 185.858 156.346 185.694 155.695 185.694C155.168 185.694 154.705 185.835 154.307 186.116C153.908 186.397 153.598 186.767 153.375 187.224V194H151.749V184.49H153.287ZM161.294 189.166C161.294 187.684 161.637 186.506 162.322 185.633C163.008 184.754 163.916 184.314 165.047 184.314C166.207 184.314 167.112 184.725 167.763 185.545L167.842 184.49H169.327V193.771C169.327 195.002 168.961 195.972 168.229 196.681C167.502 197.39 166.523 197.744 165.293 197.744C164.607 197.744 163.937 197.598 163.28 197.305C162.624 197.012 162.123 196.61 161.777 196.101L162.621 195.125C163.318 195.986 164.171 196.417 165.179 196.417C165.97 196.417 166.585 196.194 167.024 195.749C167.47 195.304 167.692 194.677 167.692 193.868V193.051C167.042 193.801 166.154 194.176 165.029 194.176C163.916 194.176 163.014 193.728 162.322 192.831C161.637 191.935 161.294 190.713 161.294 189.166ZM162.929 189.351C162.929 190.423 163.148 191.267 163.588 191.882C164.027 192.491 164.643 192.796 165.434 192.796C166.459 192.796 167.212 192.33 167.692 191.398V187.057C167.194 186.148 166.447 185.694 165.451 185.694C164.66 185.694 164.042 186.002 163.597 186.617C163.151 187.232 162.929 188.144 162.929 189.351Z" fill="#003049"/>
<rect x="551" y="48" width="145" height="47" stroke="#003049" stroke-width="2"/>
<path d="M587.06 73.9395C586.901 75.293 586.4 76.3389 585.557 77.0771C584.719 77.8096 583.603 78.1758 582.208 78.1758C580.696 78.1758 579.483 77.6338 578.569 76.5498C577.661 75.4658 577.207 74.0156 577.207 72.1992V70.9688C577.207 69.7793 577.418 68.7334 577.84 67.8311C578.268 66.9287 578.871 66.2373 579.65 65.7568C580.43 65.2705 581.332 65.0273 582.357 65.0273C583.717 65.0273 584.807 65.4082 585.627 66.1699C586.447 66.9258 586.925 67.9746 587.06 69.3164H585.363C585.217 68.2969 584.897 67.5586 584.405 67.1016C583.919 66.6445 583.236 66.416 582.357 66.416C581.279 66.416 580.433 66.8145 579.817 67.6113C579.208 68.4082 578.903 69.542 578.903 71.0127V72.252C578.903 73.6406 579.193 74.7451 579.773 75.5654C580.354 76.3857 581.165 76.7959 582.208 76.7959C583.146 76.7959 583.863 76.585 584.361 76.1631C584.865 75.7354 585.199 74.9941 585.363 73.9395H587.06ZM592.228 75.6182L594.442 68.4902H596.183L592.359 79.4678C591.768 81.0498 590.827 81.8408 589.538 81.8408L589.23 81.8145L588.624 81.7002V80.3818L589.063 80.417C589.614 80.417 590.042 80.3057 590.347 80.083C590.657 79.8604 590.912 79.4531 591.111 78.8613L591.472 77.8945L588.079 68.4902H589.854L592.228 75.6182ZM601.333 76.8486C601.913 76.8486 602.42 76.6729 602.854 76.3213C603.287 75.9697 603.527 75.5303 603.574 75.0029H605.112C605.083 75.5479 604.896 76.0664 604.55 76.5586C604.204 77.0508 603.741 77.4434 603.161 77.7363C602.587 78.0293 601.978 78.1758 601.333 78.1758C600.038 78.1758 599.007 77.7451 598.239 76.8838C597.478 76.0166 597.097 74.833 597.097 73.333V73.0605C597.097 72.1348 597.267 71.3115 597.606 70.5908C597.946 69.8701 598.433 69.3105 599.065 68.9121C599.704 68.5137 600.457 68.3145 601.324 68.3145C602.391 68.3145 603.275 68.6338 603.979 69.2725C604.688 69.9111 605.065 70.7402 605.112 71.7598H603.574C603.527 71.1445 603.293 70.6406 602.871 70.248C602.455 69.8496 601.939 69.6504 601.324 69.6504C600.498 69.6504 599.856 69.9492 599.399 70.5469C598.948 71.1387 598.723 71.9971 598.723 73.1221V73.4297C598.723 74.5254 598.948 75.3691 599.399 75.9609C599.851 76.5527 600.495 76.8486 601.333 76.8486ZM608.707 78H607.081V64.5H608.707V78ZM615.264 78.1758C613.975 78.1758 612.926 77.7539 612.117 76.9102C611.309 76.0605 610.904 74.9268 610.904 73.5088V73.21C610.904 72.2666 611.083 71.4258 611.44 70.6875C611.804 69.9434 612.308 69.3633 612.952 68.9473C613.603 68.5254 614.306 68.3145 615.062 68.3145C616.298 68.3145 617.259 68.7217 617.944 69.5361C618.63 70.3506 618.973 71.5166 618.973 73.0342V73.7109H612.53C612.554 74.6484 612.826 75.4072 613.348 75.9873C613.875 76.5615 614.543 76.8486 615.352 76.8486C615.926 76.8486 616.412 76.7314 616.811 76.4971C617.209 76.2627 617.558 75.9521 617.856 75.5654L618.85 76.3389C618.053 77.5635 616.857 78.1758 615.264 78.1758ZM615.062 69.6504C614.405 69.6504 613.854 69.8906 613.409 70.3711C612.964 70.8457 612.688 71.5137 612.583 72.375H617.347V72.252C617.3 71.4258 617.077 70.7871 616.679 70.3359C616.28 69.8789 615.741 69.6504 615.062 69.6504ZM634.995 73.9395C634.837 75.293 634.336 76.3389 633.492 77.0771C632.654 77.8096 631.538 78.1758 630.144 78.1758C628.632 78.1758 627.419 77.6338 626.505 76.5498C625.597 75.4658 625.143 74.0156 625.143 72.1992V70.9688C625.143 69.7793 625.354 68.7334 625.775 67.8311C626.203 66.9287 626.807 66.2373 627.586 65.7568C628.365 65.2705 629.268 65.0273 630.293 65.0273C631.652 65.0273 632.742 65.4082 633.562 66.1699C634.383 66.9258 634.86 67.9746 634.995 69.3164H633.299C633.152 68.2969 632.833 67.5586 632.341 67.1016C631.854 66.6445 631.172 66.416 630.293 66.416C629.215 66.416 628.368 66.8145 627.753 67.6113C627.144 68.4082 626.839 69.542 626.839 71.0127V72.252C626.839 73.6406 627.129 74.7451 627.709 75.5654C628.289 76.3857 629.101 76.7959 630.144 76.7959C631.081 76.7959 631.799 76.585 632.297 76.1631C632.801 75.7354 633.135 74.9941 633.299 73.9395H634.995ZM636.621 73.1572C636.621 72.2256 636.803 71.3877 637.166 70.6436C637.535 69.8994 638.045 69.3252 638.695 68.9209C639.352 68.5166 640.099 68.3145 640.937 68.3145C642.231 68.3145 643.277 68.7627 644.074 69.6592C644.877 70.5557 645.278 71.748 645.278 73.2363V73.3506C645.278 74.2764 645.1 75.1084 644.742 75.8467C644.391 76.5791 643.884 77.1504 643.222 77.5605C642.565 77.9707 641.81 78.1758 640.954 78.1758C639.665 78.1758 638.619 77.7275 637.816 76.8311C637.02 75.9346 636.621 74.748 636.621 73.2715V73.1572ZM638.256 73.3506C638.256 74.4053 638.499 75.252 638.985 75.8906C639.478 76.5293 640.134 76.8486 640.954 76.8486C641.78 76.8486 642.437 76.5264 642.923 75.8818C643.409 75.2314 643.652 74.3232 643.652 73.1572C643.652 72.1143 643.403 71.2705 642.905 70.626C642.413 69.9756 641.757 69.6504 640.937 69.6504C640.134 69.6504 639.486 69.9697 638.994 70.6084C638.502 71.2471 638.256 72.1611 638.256 73.3506ZM653.188 77.0596C652.556 77.8037 651.627 78.1758 650.402 78.1758C649.389 78.1758 648.615 77.8828 648.082 77.2969C647.555 76.7051 647.288 75.832 647.282 74.6777V68.4902H648.908V74.6338C648.908 76.0752 649.494 76.7959 650.666 76.7959C651.908 76.7959 652.734 76.333 653.145 75.4072V68.4902H654.771V78H653.224L653.188 77.0596ZM658.787 68.4902L658.84 69.6855C659.566 68.7715 660.516 68.3145 661.688 68.3145C663.697 68.3145 664.711 69.4482 664.729 71.7158V78H663.103V71.707C663.097 71.0215 662.938 70.5146 662.628 70.1865C662.323 69.8584 661.846 69.6943 661.195 69.6943C660.668 69.6943 660.205 69.835 659.807 70.1162C659.408 70.3975 659.098 70.7666 658.875 71.2236V78H657.249V68.4902H658.787ZM669.387 66.1875V68.4902H671.162V69.7471H669.387V75.6445C669.387 76.0254 669.466 76.3125 669.624 76.5059C669.782 76.6934 670.052 76.7871 670.433 76.7871C670.62 76.7871 670.878 76.752 671.206 76.6816V78C670.778 78.1172 670.362 78.1758 669.958 78.1758C669.231 78.1758 668.684 77.9561 668.314 77.5166C667.945 77.0771 667.761 76.4531 667.761 75.6445V69.7471H666.029V68.4902H667.761V66.1875H669.387Z" fill="#003049"/>
<rect x="462" y="260" width="175" height="58" stroke="#003049" stroke-width="2"/>
<rect x="462" y="260" width="175" height="58" stroke="#003049" stroke-width="2"/>
<path d="M506.878 289.966L507.125 291.653L507.485 290.133L510.016 281.203H511.44L513.91 290.133L514.261 291.68L514.534 289.957L516.52 281.203H518.216L515.114 294H513.576L510.939 284.675L510.737 283.699L510.535 284.675L507.801 294H506.263L503.169 281.203H504.857L506.878 289.966ZM519.13 289.157C519.13 288.226 519.312 287.388 519.675 286.644C520.044 285.899 520.554 285.325 521.205 284.921C521.861 284.517 522.608 284.314 523.446 284.314C524.741 284.314 525.787 284.763 526.583 285.659C527.386 286.556 527.788 287.748 527.788 289.236V289.351C527.788 290.276 527.609 291.108 527.251 291.847C526.9 292.579 526.393 293.15 525.731 293.561C525.075 293.971 524.319 294.176 523.463 294.176C522.174 294.176 521.128 293.728 520.326 292.831C519.529 291.935 519.13 290.748 519.13 289.271V289.157ZM520.765 289.351C520.765 290.405 521.008 291.252 521.495 291.891C521.987 292.529 522.643 292.849 523.463 292.849C524.29 292.849 524.946 292.526 525.432 291.882C525.918 291.231 526.162 290.323 526.162 289.157C526.162 288.114 525.913 287.271 525.415 286.626C524.922 285.976 524.266 285.65 523.446 285.65C522.643 285.65 521.996 285.97 521.503 286.608C521.011 287.247 520.765 288.161 520.765 289.351ZM534.423 285.949C534.177 285.908 533.911 285.888 533.624 285.888C532.557 285.888 531.833 286.342 531.453 287.25V294H529.827V284.49H531.409L531.435 285.589C531.968 284.739 532.724 284.314 533.703 284.314C534.019 284.314 534.259 284.355 534.423 284.438V285.949ZM538.581 289.597L537.561 290.66V294H535.935V280.5H537.561V288.665L538.431 287.619L541.393 284.49H543.371L539.67 288.463L543.801 294H541.894L538.581 289.597ZM559.613 288.015C559.613 289.269 559.402 290.364 558.98 291.302C558.558 292.233 557.96 292.945 557.187 293.438C556.414 293.93 555.511 294.176 554.48 294.176C553.472 294.176 552.579 293.93 551.799 293.438C551.02 292.939 550.414 292.233 549.98 291.319C549.552 290.399 549.333 289.336 549.321 288.129V287.206C549.321 285.976 549.535 284.889 549.962 283.945C550.39 283.002 550.994 282.281 551.773 281.783C552.558 281.279 553.455 281.027 554.462 281.027C555.488 281.027 556.39 281.276 557.169 281.774C557.955 282.267 558.558 282.984 558.98 283.928C559.402 284.865 559.613 285.958 559.613 287.206V288.015ZM557.934 287.188C557.934 285.671 557.629 284.508 557.02 283.699C556.411 282.885 555.558 282.478 554.462 282.478C553.396 282.478 552.555 282.885 551.94 283.699C551.331 284.508 551.017 285.633 551 287.074V288.015C551 289.485 551.307 290.643 551.922 291.486C552.543 292.324 553.396 292.743 554.48 292.743C555.57 292.743 556.414 292.348 557.011 291.557C557.609 290.76 557.917 289.62 557.934 288.138V287.188ZM566.486 285.949C566.24 285.908 565.973 285.888 565.686 285.888C564.62 285.888 563.896 286.342 563.515 287.25V294H561.889V284.49H563.471L563.498 285.589C564.031 284.739 564.787 284.314 565.765 284.314C566.082 284.314 566.322 284.355 566.486 284.438V285.949ZM567.417 289.166C567.417 287.707 567.763 286.535 568.455 285.65C569.146 284.76 570.051 284.314 571.17 284.314C572.284 284.314 573.166 284.695 573.816 285.457V280.5H575.442V294H573.948L573.869 292.98C573.218 293.777 572.313 294.176 571.153 294.176C570.051 294.176 569.152 293.725 568.455 292.822C567.763 291.92 567.417 290.742 567.417 289.289V289.166ZM569.043 289.351C569.043 290.429 569.266 291.272 569.711 291.882C570.157 292.491 570.772 292.796 571.557 292.796C572.588 292.796 573.341 292.333 573.816 291.407V287.039C573.33 286.143 572.583 285.694 571.575 285.694C570.778 285.694 570.157 286.002 569.711 286.617C569.266 287.232 569.043 288.144 569.043 289.351ZM581.919 294.176C580.63 294.176 579.582 293.754 578.773 292.91C577.964 292.061 577.56 290.927 577.56 289.509V289.21C577.56 288.267 577.739 287.426 578.096 286.688C578.459 285.943 578.963 285.363 579.608 284.947C580.258 284.525 580.961 284.314 581.717 284.314C582.954 284.314 583.915 284.722 584.6 285.536C585.286 286.351 585.628 287.517 585.628 289.034V289.711H579.186C579.209 290.648 579.482 291.407 580.003 291.987C580.531 292.562 581.199 292.849 582.007 292.849C582.582 292.849 583.068 292.731 583.466 292.497C583.865 292.263 584.213 291.952 584.512 291.565L585.505 292.339C584.708 293.563 583.513 294.176 581.919 294.176ZM581.717 285.65C581.061 285.65 580.51 285.891 580.065 286.371C579.62 286.846 579.344 287.514 579.239 288.375H584.002V288.252C583.956 287.426 583.733 286.787 583.334 286.336C582.936 285.879 582.397 285.65 581.717 285.65ZM592.115 285.949C591.869 285.908 591.602 285.888 591.315 285.888C590.249 285.888 589.525 286.342 589.144 287.25V294H587.518V284.49H589.1L589.126 285.589C589.66 284.739 590.416 284.314 591.394 284.314C591.71 284.314 591.951 284.355 592.115 284.438V285.949Z" fill="#003049"/>
<rect x="754" y="211" width="145" height="57" stroke="#003049" stroke-width="2"/>
<rect x="754" y="211" width="145" height="57" stroke="#003049" stroke-width="2"/>
<path d="M772.139 238.05L770.574 239.676V244H768.887V231.203H770.574V237.531L776.261 231.203H778.3L773.264 236.854L778.695 244H776.674L772.139 238.05ZM781.684 244H780.058V234.49H781.684V244ZM779.926 231.968C779.926 231.704 780.005 231.481 780.163 231.3C780.327 231.118 780.567 231.027 780.884 231.027C781.2 231.027 781.44 231.118 781.604 231.3C781.769 231.481 781.851 231.704 781.851 231.968C781.851 232.231 781.769 232.451 781.604 232.627C781.44 232.803 781.2 232.891 780.884 232.891C780.567 232.891 780.327 232.803 780.163 232.627C780.005 232.451 779.926 232.231 779.926 231.968ZM786.5 232.188V234.49H788.275V235.747H786.5V241.645C786.5 242.025 786.579 242.312 786.737 242.506C786.896 242.693 787.165 242.787 787.546 242.787C787.733 242.787 787.991 242.752 788.319 242.682V244C787.892 244.117 787.476 244.176 787.071 244.176C786.345 244.176 785.797 243.956 785.428 243.517C785.059 243.077 784.874 242.453 784.874 241.645V235.747H783.143V234.49H784.874V232.188H786.5ZM792.389 232.188V234.49H794.164V235.747H792.389V241.645C792.389 242.025 792.468 242.312 792.626 242.506C792.784 242.693 793.054 242.787 793.435 242.787C793.622 242.787 793.88 242.752 794.208 242.682V244C793.78 244.117 793.364 244.176 792.96 244.176C792.233 244.176 791.686 243.956 791.316 243.517C790.947 243.077 790.763 242.453 790.763 241.645V235.747H789.031V234.49H790.763V232.188H792.389ZM797.838 244H796.212V234.49H797.838V244ZM796.08 231.968C796.08 231.704 796.159 231.481 796.317 231.3C796.481 231.118 796.722 231.027 797.038 231.027C797.354 231.027 797.595 231.118 797.759 231.3C797.923 231.481 798.005 231.704 798.005 231.968C798.005 232.231 797.923 232.451 797.759 232.627C797.595 232.803 797.354 232.891 797.038 232.891C796.722 232.891 796.481 232.803 796.317 232.627C796.159 232.451 796.08 232.231 796.08 231.968ZM801.986 234.49L802.039 235.686C802.766 234.771 803.715 234.314 804.887 234.314C806.896 234.314 807.91 235.448 807.928 237.716V244H806.302V237.707C806.296 237.021 806.138 236.515 805.827 236.187C805.522 235.858 805.045 235.694 804.395 235.694C803.867 235.694 803.404 235.835 803.006 236.116C802.607 236.397 802.297 236.767 802.074 237.224V244H800.448V234.49H801.986ZM809.993 239.166C809.993 237.684 810.336 236.506 811.021 235.633C811.707 234.754 812.615 234.314 813.746 234.314C814.906 234.314 815.812 234.725 816.462 235.545L816.541 234.49H818.026V243.771C818.026 245.002 817.66 245.972 816.928 246.681C816.201 247.39 815.223 247.744 813.992 247.744C813.307 247.744 812.636 247.598 811.979 247.305C811.323 247.012 810.822 246.61 810.477 246.101L811.32 245.125C812.018 245.986 812.87 246.417 813.878 246.417C814.669 246.417 815.284 246.194 815.724 245.749C816.169 245.304 816.392 244.677 816.392 243.868V243.051C815.741 243.801 814.854 244.176 813.729 244.176C812.615 244.176 811.713 243.728 811.021 242.831C810.336 241.935 809.993 240.713 809.993 239.166ZM811.628 239.351C811.628 240.423 811.848 241.267 812.287 241.882C812.727 242.491 813.342 242.796 814.133 242.796C815.158 242.796 815.911 242.33 816.392 241.398V237.057C815.894 236.148 815.146 235.694 814.15 235.694C813.359 235.694 812.741 236.002 812.296 236.617C811.851 237.232 811.628 238.144 811.628 239.351ZM824.891 238.806C824.891 237.481 825.066 236.21 825.418 234.991C825.775 233.772 826.306 232.665 827.009 231.669C827.712 230.673 828.441 229.97 829.197 229.56L829.531 230.632C828.676 231.288 827.973 232.29 827.422 233.638C826.877 234.985 826.578 236.494 826.525 238.164L826.517 238.911C826.517 241.173 826.93 243.136 827.756 244.8C828.254 245.796 828.846 246.575 829.531 247.138L829.197 248.131C828.418 247.697 827.674 246.971 826.965 245.951C825.582 243.959 824.891 241.577 824.891 238.806ZM839.155 239.351C839.155 240.804 838.821 241.973 838.153 242.857C837.485 243.736 836.589 244.176 835.464 244.176C834.263 244.176 833.334 243.751 832.678 242.901L832.599 244H831.104V230.5H832.73V235.536C833.387 234.722 834.292 234.314 835.446 234.314C836.601 234.314 837.506 234.751 838.162 235.624C838.824 236.497 839.155 237.692 839.155 239.21V239.351ZM837.529 239.166C837.529 238.059 837.315 237.203 836.888 236.6C836.46 235.996 835.845 235.694 835.042 235.694C833.97 235.694 833.199 236.192 832.73 237.188V241.302C833.229 242.298 834.005 242.796 835.06 242.796C835.839 242.796 836.445 242.494 836.879 241.891C837.312 241.287 837.529 240.379 837.529 239.166ZM844.218 241.618L846.433 234.49H848.173L844.35 245.468C843.758 247.05 842.817 247.841 841.528 247.841L841.221 247.814L840.614 247.7V246.382L841.054 246.417C841.604 246.417 842.032 246.306 842.337 246.083C842.647 245.86 842.902 245.453 843.102 244.861L843.462 243.895L840.069 234.49H841.845L844.218 241.618ZM857.111 239.966L857.357 241.653L857.718 240.133L860.249 231.203H861.673L864.143 240.133L864.494 241.68L864.767 239.957L866.753 231.203H868.449L865.347 244H863.809L861.172 234.675L860.97 233.699L860.768 234.675L858.034 244H856.496L853.402 231.203H855.09L857.111 239.966ZM879.743 239.939C879.585 241.293 879.084 242.339 878.24 243.077C877.402 243.81 876.286 244.176 874.892 244.176C873.38 244.176 872.167 243.634 871.253 242.55C870.345 241.466 869.891 240.016 869.891 238.199V236.969C869.891 235.779 870.102 234.733 870.523 233.831C870.951 232.929 871.555 232.237 872.334 231.757C873.113 231.271 874.016 231.027 875.041 231.027C876.4 231.027 877.49 231.408 878.311 232.17C879.131 232.926 879.608 233.975 879.743 235.316H878.047C877.9 234.297 877.581 233.559 877.089 233.102C876.603 232.645 875.92 232.416 875.041 232.416C873.963 232.416 873.116 232.814 872.501 233.611C871.892 234.408 871.587 235.542 871.587 237.013V238.252C871.587 239.641 871.877 240.745 872.457 241.565C873.037 242.386 873.849 242.796 874.892 242.796C875.829 242.796 876.547 242.585 877.045 242.163C877.549 241.735 877.883 240.994 878.047 239.939H879.743ZM885.324 238.894C885.324 240.2 885.151 241.454 884.806 242.655C884.466 243.851 883.941 244.955 883.232 245.969C882.529 246.982 881.791 247.703 881.018 248.131L880.675 247.138C881.577 246.446 882.301 245.374 882.846 243.921C883.396 242.462 883.678 240.845 883.689 239.069V238.788C883.689 237.558 883.561 236.415 883.303 235.36C883.045 234.3 882.685 233.351 882.222 232.513C881.765 231.675 881.249 231.021 880.675 230.553L881.018 229.56C881.791 229.987 882.526 230.702 883.224 231.704C883.927 232.706 884.451 233.811 884.797 235.018C885.148 236.225 885.324 237.517 885.324 238.894Z" fill="#003049"/>
<rect x="267" y="189" width="129" height="50" stroke="#003049" stroke-width="2"/>
<path d="M291.469 220H289.781V207.203H291.469V220ZM295.846 210.49L295.898 211.686C296.625 210.771 297.574 210.314 298.746 210.314C300.756 210.314 301.77 211.448 301.787 213.716V220H300.161V213.707C300.155 213.021 299.997 212.515 299.687 212.187C299.382 211.858 298.904 211.694 298.254 211.694C297.727 211.694 297.264 211.835 296.865 212.116C296.467 212.397 296.156 212.767 295.934 213.224V220H294.308V210.49H295.846ZM309.776 217.478C309.776 217.038 309.609 216.698 309.275 216.458C308.947 216.212 308.37 216.001 307.544 215.825C306.724 215.649 306.07 215.438 305.584 215.192C305.104 214.946 304.746 214.653 304.512 214.313C304.283 213.974 304.169 213.569 304.169 213.101C304.169 212.321 304.497 211.662 305.153 211.123C305.815 210.584 306.659 210.314 307.685 210.314C308.763 210.314 309.636 210.593 310.304 211.149C310.978 211.706 311.314 212.418 311.314 213.285H309.68C309.68 212.84 309.489 212.456 309.108 212.134C308.733 211.812 308.259 211.65 307.685 211.65C307.093 211.65 306.63 211.779 306.296 212.037C305.962 212.295 305.795 212.632 305.795 213.048C305.795 213.44 305.95 213.736 306.261 213.936C306.571 214.135 307.131 214.325 307.939 214.507C308.754 214.688 309.413 214.905 309.917 215.157C310.421 215.409 310.793 215.714 311.033 216.071C311.279 216.423 311.402 216.854 311.402 217.363C311.402 218.213 311.062 218.896 310.383 219.411C309.703 219.921 308.821 220.176 307.737 220.176C306.976 220.176 306.302 220.041 305.716 219.771C305.13 219.502 304.67 219.127 304.336 218.646C304.008 218.16 303.844 217.636 303.844 217.073H305.47C305.499 217.618 305.716 218.052 306.12 218.374C306.53 218.69 307.069 218.849 307.737 218.849C308.353 218.849 308.845 218.726 309.214 218.479C309.589 218.228 309.776 217.894 309.776 217.478ZM321.554 215.351C321.554 216.798 321.223 217.964 320.561 218.849C319.898 219.733 319.002 220.176 317.871 220.176C316.717 220.176 315.809 219.81 315.146 219.077V223.656H313.521V210.49H315.006L315.085 211.545C315.747 210.725 316.667 210.314 317.845 210.314C318.987 210.314 319.89 210.745 320.552 211.606C321.22 212.468 321.554 213.666 321.554 215.201V215.351ZM319.928 215.166C319.928 214.094 319.699 213.247 319.242 212.626C318.785 212.005 318.158 211.694 317.361 211.694C316.377 211.694 315.639 212.131 315.146 213.004V217.548C315.633 218.415 316.377 218.849 317.379 218.849C318.158 218.849 318.776 218.541 319.233 217.926C319.696 217.305 319.928 216.385 319.928 215.166ZM327.574 220.176C326.285 220.176 325.236 219.754 324.428 218.91C323.619 218.061 323.215 216.927 323.215 215.509V215.21C323.215 214.267 323.394 213.426 323.751 212.688C324.114 211.943 324.618 211.363 325.263 210.947C325.913 210.525 326.616 210.314 327.372 210.314C328.608 210.314 329.569 210.722 330.255 211.536C330.94 212.351 331.283 213.517 331.283 215.034V215.711H324.841C324.864 216.648 325.137 217.407 325.658 217.987C326.186 218.562 326.854 218.849 327.662 218.849C328.236 218.849 328.723 218.731 329.121 218.497C329.52 218.263 329.868 217.952 330.167 217.565L331.16 218.339C330.363 219.563 329.168 220.176 327.574 220.176ZM327.372 211.65C326.716 211.65 326.165 211.891 325.72 212.371C325.274 212.846 324.999 213.514 324.894 214.375H329.657V214.252C329.61 213.426 329.388 212.787 328.989 212.336C328.591 211.879 328.052 211.65 327.372 211.65ZM336.987 218.849C337.567 218.849 338.074 218.673 338.508 218.321C338.941 217.97 339.182 217.53 339.229 217.003H340.767C340.737 217.548 340.55 218.066 340.204 218.559C339.858 219.051 339.396 219.443 338.815 219.736C338.241 220.029 337.632 220.176 336.987 220.176C335.692 220.176 334.661 219.745 333.894 218.884C333.132 218.017 332.751 216.833 332.751 215.333V215.061C332.751 214.135 332.921 213.312 333.261 212.591C333.601 211.87 334.087 211.311 334.72 210.912C335.358 210.514 336.111 210.314 336.979 210.314C338.045 210.314 338.93 210.634 339.633 211.272C340.342 211.911 340.72 212.74 340.767 213.76H339.229C339.182 213.145 338.947 212.641 338.525 212.248C338.109 211.85 337.594 211.65 336.979 211.65C336.152 211.65 335.511 211.949 335.054 212.547C334.603 213.139 334.377 213.997 334.377 215.122V215.43C334.377 216.525 334.603 217.369 335.054 217.961C335.505 218.553 336.149 218.849 336.987 218.849ZM344.801 208.188V210.49H346.576V211.747H344.801V217.645C344.801 218.025 344.88 218.312 345.038 218.506C345.196 218.693 345.466 218.787 345.847 218.787C346.034 218.787 346.292 218.752 346.62 218.682V220C346.192 220.117 345.776 220.176 345.372 220.176C344.646 220.176 344.098 219.956 343.729 219.517C343.359 219.077 343.175 218.453 343.175 217.645V211.747H341.443V210.49H343.175V208.188H344.801ZM350.25 220H348.624V210.49H350.25V220ZM348.492 207.968C348.492 207.704 348.571 207.481 348.729 207.3C348.894 207.118 349.134 207.027 349.45 207.027C349.767 207.027 350.007 207.118 350.171 207.3C350.335 207.481 350.417 207.704 350.417 207.968C350.417 208.231 350.335 208.451 350.171 208.627C350.007 208.803 349.767 208.891 349.45 208.891C349.134 208.891 348.894 208.803 348.729 208.627C348.571 208.451 348.492 208.231 348.492 207.968ZM352.43 215.157C352.43 214.226 352.611 213.388 352.975 212.644C353.344 211.899 353.854 211.325 354.504 210.921C355.16 210.517 355.907 210.314 356.745 210.314C358.04 210.314 359.086 210.763 359.883 211.659C360.686 212.556 361.087 213.748 361.087 215.236V215.351C361.087 216.276 360.908 217.108 360.551 217.847C360.199 218.579 359.692 219.15 359.03 219.561C358.374 219.971 357.618 220.176 356.763 220.176C355.474 220.176 354.428 219.728 353.625 218.831C352.828 217.935 352.43 216.748 352.43 215.271V215.157ZM354.064 215.351C354.064 216.405 354.308 217.252 354.794 217.891C355.286 218.529 355.942 218.849 356.763 218.849C357.589 218.849 358.245 218.526 358.731 217.882C359.218 217.231 359.461 216.323 359.461 215.157C359.461 214.114 359.212 213.271 358.714 212.626C358.222 211.976 357.565 211.65 356.745 211.65C355.942 211.65 355.295 211.97 354.803 212.608C354.311 213.247 354.064 214.161 354.064 215.351ZM364.664 210.49L364.717 211.686C365.443 210.771 366.393 210.314 367.564 210.314C369.574 210.314 370.588 211.448 370.605 213.716V220H368.979V213.707C368.974 213.021 368.815 212.515 368.505 212.187C368.2 211.858 367.723 211.694 367.072 211.694C366.545 211.694 366.082 211.835 365.684 212.116C365.285 212.397 364.975 212.767 364.752 213.224V220H363.126V210.49H364.664Z" fill="#003049"/>
<rect x="461" y="159" width="175" height="58" stroke="#003049" stroke-width="2"/>
<path d="M508.307 189.966L508.553 191.653L508.913 190.133L511.444 181.203H512.868L515.338 190.133L515.689 191.68L515.962 189.957L517.948 181.203H519.645L516.542 194H515.004L512.367 184.675L512.165 183.699L511.963 184.675L509.229 194H507.691L504.598 181.203H506.285L508.307 189.966ZM526.843 194C526.749 193.812 526.673 193.479 526.614 192.998C525.858 193.783 524.956 194.176 523.907 194.176C522.97 194.176 522.199 193.912 521.596 193.385C520.998 192.852 520.699 192.178 520.699 191.363C520.699 190.373 521.074 189.605 521.824 189.061C522.58 188.51 523.641 188.234 525.006 188.234H526.588V187.487C526.588 186.919 526.418 186.468 526.078 186.134C525.738 185.794 525.237 185.624 524.575 185.624C523.995 185.624 523.509 185.771 523.116 186.063C522.724 186.356 522.527 186.711 522.527 187.127H520.893C520.893 186.652 521.06 186.195 521.394 185.756C521.733 185.311 522.19 184.959 522.765 184.701C523.345 184.443 523.98 184.314 524.672 184.314C525.768 184.314 526.626 184.59 527.247 185.141C527.868 185.686 528.19 186.438 528.214 187.399V191.776C528.214 192.649 528.325 193.344 528.548 193.859V194H526.843ZM524.145 192.761C524.654 192.761 525.138 192.629 525.595 192.365C526.052 192.102 526.383 191.759 526.588 191.337V189.386H525.313C523.321 189.386 522.325 189.969 522.325 191.135C522.325 191.645 522.495 192.043 522.835 192.33C523.175 192.617 523.611 192.761 524.145 192.761ZM535.359 185.949C535.113 185.908 534.847 185.888 534.56 185.888C533.493 185.888 532.77 186.342 532.389 187.25V194H530.763V184.49H532.345L532.371 185.589C532.904 184.739 533.66 184.314 534.639 184.314C534.955 184.314 535.195 184.355 535.359 184.438V185.949ZM540.633 194.176C539.344 194.176 538.295 193.754 537.486 192.91C536.678 192.061 536.273 190.927 536.273 189.509V189.21C536.273 188.267 536.452 187.426 536.81 186.688C537.173 185.943 537.677 185.363 538.321 184.947C538.972 184.525 539.675 184.314 540.431 184.314C541.667 184.314 542.628 184.722 543.313 185.536C543.999 186.351 544.342 187.517 544.342 189.034V189.711H537.899C537.923 190.648 538.195 191.407 538.717 191.987C539.244 192.562 539.912 192.849 540.721 192.849C541.295 192.849 541.781 192.731 542.18 192.497C542.578 192.263 542.927 191.952 543.226 191.565L544.219 192.339C543.422 193.563 542.227 194.176 540.633 194.176ZM540.431 185.65C539.774 185.65 539.224 185.891 538.778 186.371C538.333 186.846 538.058 187.514 537.952 188.375H542.716V188.252C542.669 187.426 542.446 186.787 542.048 186.336C541.649 185.879 541.11 185.65 540.431 185.65ZM547.857 185.642C548.578 184.757 549.516 184.314 550.67 184.314C552.68 184.314 553.693 185.448 553.711 187.716V194H552.085V187.707C552.079 187.021 551.921 186.515 551.61 186.187C551.306 185.858 550.828 185.694 550.178 185.694C549.65 185.694 549.188 185.835 548.789 186.116C548.391 186.397 548.08 186.767 547.857 187.224V194H546.231V180.5H547.857V185.642ZM555.715 189.157C555.715 188.226 555.896 187.388 556.26 186.644C556.629 185.899 557.139 185.325 557.789 184.921C558.445 184.517 559.192 184.314 560.03 184.314C561.325 184.314 562.371 184.763 563.168 185.659C563.971 186.556 564.372 187.748 564.372 189.236V189.351C564.372 190.276 564.193 191.108 563.836 191.847C563.484 192.579 562.978 193.15 562.315 193.561C561.659 193.971 560.903 194.176 560.048 194.176C558.759 194.176 557.713 193.728 556.91 192.831C556.113 191.935 555.715 190.748 555.715 189.271V189.157ZM557.35 189.351C557.35 190.405 557.593 191.252 558.079 191.891C558.571 192.529 559.228 192.849 560.048 192.849C560.874 192.849 561.53 192.526 562.017 191.882C562.503 191.231 562.746 190.323 562.746 189.157C562.746 188.114 562.497 187.271 561.999 186.626C561.507 185.976 560.851 185.65 560.03 185.65C559.228 185.65 558.58 185.97 558.088 186.608C557.596 187.247 557.35 188.161 557.35 189.351ZM572.282 193.06C571.649 193.804 570.721 194.176 569.496 194.176C568.482 194.176 567.709 193.883 567.176 193.297C566.648 192.705 566.382 191.832 566.376 190.678V184.49H568.002V190.634C568.002 192.075 568.588 192.796 569.76 192.796C571.002 192.796 571.828 192.333 572.238 191.407V184.49H573.864V194H572.317L572.282 193.06ZM581.88 191.478C581.88 191.038 581.713 190.698 581.379 190.458C581.051 190.212 580.474 190.001 579.647 189.825C578.827 189.649 578.174 189.438 577.688 189.192C577.207 188.946 576.85 188.653 576.615 188.313C576.387 187.974 576.272 187.569 576.272 187.101C576.272 186.321 576.601 185.662 577.257 185.123C577.919 184.584 578.763 184.314 579.788 184.314C580.866 184.314 581.739 184.593 582.407 185.149C583.081 185.706 583.418 186.418 583.418 187.285H581.783C581.783 186.84 581.593 186.456 581.212 186.134C580.837 185.812 580.362 185.65 579.788 185.65C579.196 185.65 578.733 185.779 578.399 186.037C578.065 186.295 577.898 186.632 577.898 187.048C577.898 187.44 578.054 187.736 578.364 187.936C578.675 188.135 579.234 188.325 580.043 188.507C580.857 188.688 581.517 188.905 582.021 189.157C582.524 189.409 582.896 189.714 583.137 190.071C583.383 190.423 583.506 190.854 583.506 191.363C583.506 192.213 583.166 192.896 582.486 193.411C581.807 193.921 580.925 194.176 579.841 194.176C579.079 194.176 578.405 194.041 577.819 193.771C577.233 193.502 576.773 193.127 576.439 192.646C576.111 192.16 575.947 191.636 575.947 191.073H577.573C577.603 191.618 577.819 192.052 578.224 192.374C578.634 192.69 579.173 192.849 579.841 192.849C580.456 192.849 580.948 192.726 581.317 192.479C581.692 192.228 581.88 191.894 581.88 191.478ZM589.57 194.176C588.281 194.176 587.232 193.754 586.424 192.91C585.615 192.061 585.211 190.927 585.211 189.509V189.21C585.211 188.267 585.39 187.426 585.747 186.688C586.11 185.943 586.614 185.363 587.259 184.947C587.909 184.525 588.612 184.314 589.368 184.314C590.604 184.314 591.565 184.722 592.251 185.536C592.937 186.351 593.279 187.517 593.279 189.034V189.711H586.837C586.86 190.648 587.133 191.407 587.654 191.987C588.182 192.562 588.85 192.849 589.658 192.849C590.232 192.849 590.719 192.731 591.117 192.497C591.516 192.263 591.864 191.952 592.163 191.565L593.156 192.339C592.359 193.563 591.164 194.176 589.57 194.176ZM589.368 185.65C588.712 185.65 588.161 185.891 587.716 186.371C587.271 186.846 586.995 187.514 586.89 188.375H591.653V188.252C591.606 187.426 591.384 186.787 590.985 186.336C590.587 185.879 590.048 185.65 589.368 185.65Z" fill="#003049"/>
<path d="M485.646 158.354C485.842 158.549 486.158 158.549 486.354 158.354L489.536 155.172C489.731 154.976 489.731 154.66 489.536 154.464C489.34 154.269 489.024 154.269 488.828 154.464L486 157.293L483.172 154.464C482.976 154.269 482.66 154.269 482.464 154.464C482.269 154.66 482.269 154.976 482.464 155.172L485.646 158.354ZM485.5 96V158H486.5V96H485.5Z" fill="#003049"/>
<path d="M485.646 158.354C485.842 158.549 486.158 158.549 486.354 158.354L489.536 155.172C489.731 154.976 489.731 154.66 489.536 154.464C489.34 154.269 489.024 154.269 488.828 154.464L486 157.293L483.172 154.464C482.976 154.269 482.66 154.269 482.464 154.464C482.269 154.66 482.269 154.976 482.464 155.172L485.646 158.354ZM485.5 96V158H486.5V96H485.5Z" fill="#003049"/>
<path d="M753.354 241.354C753.549 241.158 753.549 240.842 753.354 240.646L750.172 237.464C749.976 237.269 749.66 237.269 749.464 237.464C749.269 237.66 749.269 237.976 749.464 238.172L752.293 241L749.464 243.828C749.269 244.024 749.269 244.34 749.464 244.536C749.66 244.731 749.976 244.731 750.172 244.536L753.354 241.354ZM701 241.5H753V240.5H701V241.5Z" fill="#003049"/>
<path d="M603.646 158.354C603.842 158.549 604.158 158.549 604.354 158.354L607.536 155.172C607.731 154.976 607.731 154.66 607.536 154.464C607.34 154.269 607.024 154.269 606.828 154.464L604 157.293L601.172 154.464C600.976 154.269 600.66 154.269 600.464 154.464C600.269 154.66 600.269 154.976 600.464 155.172L603.646 158.354ZM603.5 96V158H604.5V96H603.5Z" fill="#003049"/>
<path d="M460.354 176.354C460.549 176.158 460.549 175.842 460.354 175.646L457.172 172.464C456.977 172.269 456.66 172.269 456.465 172.464C456.27 172.66 456.27 172.976 456.465 173.172L459.293 176L456.465 178.828C456.27 179.024 456.27 179.34 456.465 179.536C456.66 179.731 456.977 179.731 457.172 179.536L460.354 176.354ZM204.996 176.5H460.001V175.5H204.996V176.5Z" fill="#003049"/>
<path d="M266.354 203.354C266.55 203.158 266.55 202.842 266.354 202.646L263.172 199.464C262.977 199.269 262.66 199.269 262.465 199.464C262.27 199.66 262.27 199.976 262.465 200.172L265.294 203L262.465 205.828C262.27 206.024 262.27 206.34 262.465 206.536C262.66 206.731 262.977 206.731 263.172 206.536L266.354 203.354ZM204.999 203.5H266.001V202.5H204.999V203.5Z" fill="#003049"/>
<path d="M459.355 203.354C459.55 203.158 459.55 202.842 459.355 202.646L456.173 199.464C455.978 199.269 455.661 199.269 455.466 199.464C455.271 199.66 455.271 199.976 455.466 200.172L458.295 203L455.466 205.828C455.271 206.024 455.271 206.34 455.466 206.536C455.661 206.731 455.978 206.731 456.173 206.536L459.355 203.354ZM398 203.5H459.002V202.5H398V203.5Z" fill="#003049"/>
<line x1="637" y1="187.5" x2="701" y2="187.5" stroke="#003049"/>
<line x1="637" y1="293.5" x2="701" y2="293.5" stroke="#003049"/>
<line x1="700.5" y1="294" x2="700.5" y2="187" stroke="#003049"/>
</g>
<defs>
<clipPath id="clip0">
<rect width="961" height="365" fill="white"/>
</clipPath>
</defs>
</svg>
