<svg width="517" height="85" viewBox="0 0 517 85" fill="none" xmlns="http://www.w3.org/2000/svg">
<rect x="0.5" y="0.5" width="516" height="38.3902" fill="#FFFA7A" stroke="black"/>
<path d="M17.0884 21.7082V26.718H14.1587V12.4992H19.7056C20.7733 12.4992 21.7108 12.6945 22.5181 13.0851C23.3319 13.4758 23.9569 14.0324 24.3931 14.7551C24.8293 15.4712 25.0474 16.2883 25.0474 17.2062C25.0474 18.5995 24.5689 19.6997 23.6119 20.507C22.6613 21.3078 21.343 21.7082 19.6568 21.7082H17.0884ZM17.0884 19.3351H19.7056C20.4803 19.3351 21.0695 19.1529 21.4732 18.7883C21.8833 18.4237 22.0884 17.9029 22.0884 17.2258C22.0884 16.5292 21.8833 15.966 21.4732 15.5363C21.063 15.1066 20.4966 14.8853 19.774 14.8723H17.0884V19.3351ZM33.3579 23.7883H28.2212L27.2447 26.718H24.1294L29.4224 12.4992H32.1372L37.4595 26.718H34.3443L33.3579 23.7883ZM29.0122 21.4152H32.5669L30.7798 16.093L29.0122 21.4152ZM44.0513 21.5129H41.7173V26.718H38.7876V12.4992H44.0708C45.7505 12.4992 47.0461 12.8736 47.9576 13.6223C48.869 14.371 49.3247 15.4289 49.3247 16.7961C49.3247 17.7661 49.1132 18.5767 48.69 19.2277C48.2733 19.8723 47.6385 20.3866 46.7857 20.7707L49.8619 26.5812V26.718H46.7173L44.0513 21.5129ZM41.7173 19.1398H44.0806C44.8163 19.1398 45.3859 18.9543 45.7896 18.5832C46.1932 18.2056 46.3951 17.688 46.3951 17.0305C46.3951 16.3599 46.203 15.8325 45.8189 15.4484C45.4413 15.0643 44.8586 14.8723 44.0708 14.8723H41.7173V19.1398ZM61.7759 14.8723H57.4204V26.718H54.4908V14.8723H50.1939V12.4992H61.7759V14.8723Z" fill="black"/>
<path d="M0.5 35.7439H516.5V84.5H0.5V35.7439Z" fill="white" stroke="black"/>
<path d="M18.1809 58.9788C16.7336 58.5628 15.6789 58.0531 15.0168 57.4495C14.3605 56.8402 14.0324 56.0902 14.0324 55.1995C14.0324 54.1917 14.4338 53.3597 15.2365 52.7034C16.0451 52.0413 17.0939 51.7103 18.383 51.7103C19.2619 51.7103 20.0441 51.8802 20.7297 52.22C21.4211 52.5599 21.9543 53.0286 22.3293 53.6263C22.7102 54.224 22.9006 54.8773 22.9006 55.5863H21.2043C21.2043 54.8128 20.9582 54.2064 20.466 53.7669C19.9738 53.3216 19.2795 53.099 18.383 53.099C17.551 53.099 16.9006 53.2835 16.4318 53.6527C15.9689 54.0159 15.7375 54.5228 15.7375 55.1732C15.7375 55.6947 15.9572 56.137 16.3967 56.5003C16.842 56.8577 17.5949 57.1859 18.6555 57.4847C19.7219 57.7835 20.5539 58.1146 21.1516 58.4779C21.7551 58.8353 22.2004 59.2542 22.4875 59.7347C22.7805 60.2152 22.927 60.7806 22.927 61.431C22.927 62.4681 22.5227 63.3001 21.7141 63.9271C20.9055 64.5482 19.8244 64.8587 18.4709 64.8587C17.592 64.8587 16.7717 64.6917 16.01 64.3577C15.2482 64.0179 14.6594 63.555 14.2434 62.9691C13.8332 62.3831 13.6281 61.7181 13.6281 60.974H15.3244C15.3244 61.7474 15.6086 62.3597 16.177 62.8109C16.7512 63.2562 17.5158 63.4788 18.4709 63.4788C19.3615 63.4788 20.0441 63.2972 20.5188 62.9339C20.9934 62.5706 21.2307 62.0755 21.2307 61.4486C21.2307 60.8216 21.0109 60.3382 20.5715 59.9984C20.132 59.6527 19.3352 59.3128 18.1809 58.9788ZM30.7141 63.7425C30.0813 64.4866 29.1525 64.8587 27.9279 64.8587C26.9143 64.8587 26.1408 64.5658 25.6076 63.9798C25.0803 63.388 24.8137 62.515 24.8078 61.3607V55.1732H26.4338V61.3167C26.4338 62.7581 27.0197 63.4788 28.1916 63.4788C29.4338 63.4788 30.26 63.0159 30.6701 62.0902V55.1732H32.2961V64.6829H30.7492L30.7141 63.7425ZM39.3713 56.6322C39.1252 56.5911 38.8586 56.5706 38.5715 56.5706C37.5051 56.5706 36.7814 57.0247 36.4006 57.9329V64.6829H34.7746V55.1732H36.3566L36.383 56.2718C36.9162 55.4222 37.6721 54.9974 38.6506 54.9974C38.967 54.9974 39.2072 55.0384 39.3713 55.1204V56.6322ZM41.8147 64.6829V56.43H40.3117V55.1732H41.8147V54.1976C41.8147 53.1781 42.0871 52.39 42.632 51.8333C43.177 51.2767 43.9475 50.9984 44.9436 50.9984C45.3186 50.9984 45.6906 51.0482 46.0598 51.1478L45.9719 52.4661C45.6965 52.4134 45.4035 52.387 45.093 52.387C44.5656 52.387 44.1584 52.5423 43.8713 52.8529C43.5842 53.1575 43.4406 53.597 43.4406 54.1712V55.1732H45.4709V56.43H43.4406V64.6829H41.8147ZM53.1438 64.6829C53.05 64.4954 52.9738 64.1615 52.9152 63.681C52.1594 64.4661 51.257 64.8587 50.2082 64.8587C49.2707 64.8587 48.5002 64.595 47.8967 64.0677C47.299 63.5345 47.0002 62.8607 47.0002 62.0462C47.0002 61.056 47.3752 60.2884 48.1252 59.7435C48.8811 59.1927 49.9416 58.9173 51.3068 58.9173H52.8889V58.1702C52.8889 57.6019 52.7189 57.1507 52.3791 56.8167C52.0393 56.4769 51.5383 56.307 50.8762 56.307C50.2961 56.307 49.8098 56.4534 49.4172 56.7464C49.0246 57.0394 48.8283 57.3939 48.8283 57.8099H47.1936C47.1936 57.3353 47.3605 56.8783 47.6945 56.4388C48.0344 55.9935 48.4914 55.6419 49.0656 55.3841C49.6457 55.1263 50.2814 54.9974 50.9729 54.9974C52.0686 54.9974 52.927 55.2728 53.548 55.8236C54.1691 56.3685 54.4914 57.1214 54.5148 58.0824V62.4593C54.5148 63.3324 54.6262 64.0267 54.8488 64.5423V64.6829H53.1438ZM50.4455 63.4437C50.9553 63.4437 51.4387 63.3118 51.8957 63.0482C52.3527 62.7845 52.6838 62.4417 52.8889 62.0199V60.0687H51.6145C49.6223 60.0687 48.6262 60.6517 48.6262 61.8177C48.6262 62.3275 48.7961 62.7259 49.1359 63.013C49.4758 63.3001 49.9123 63.4437 50.4455 63.4437ZM60.8781 63.5316C61.4582 63.5316 61.965 63.3558 62.3986 63.0042C62.8322 62.6527 63.0725 62.2132 63.1193 61.6859H64.6574C64.6281 62.2308 64.4406 62.7493 64.0949 63.2415C63.7492 63.7337 63.2863 64.1263 62.7063 64.4193C62.132 64.7122 61.5227 64.8587 60.8781 64.8587C59.5832 64.8587 58.552 64.4281 57.7844 63.5667C57.0227 62.6995 56.6418 61.5159 56.6418 60.0159V59.7435C56.6418 58.8177 56.8117 57.9945 57.1516 57.2738C57.4914 56.5531 57.9777 55.9935 58.6105 55.595C59.2492 55.1966 60.0022 54.9974 60.8693 54.9974C61.9357 54.9974 62.8205 55.3167 63.5236 55.9554C64.2326 56.5941 64.6105 57.4232 64.6574 58.4427H63.1193C63.0725 57.8275 62.8381 57.3236 62.4162 56.931C62.0002 56.5325 61.4846 56.3333 60.8693 56.3333C60.0432 56.3333 59.4016 56.6322 58.9445 57.2298C58.4934 57.8216 58.2678 58.68 58.2678 59.805V60.1126C58.2678 61.2083 58.4934 62.0521 58.9445 62.6439C59.3957 63.2357 60.0402 63.5316 60.8781 63.5316ZM70.4318 64.8587C69.1428 64.8587 68.0939 64.4368 67.2854 63.5931C66.4768 62.7435 66.0725 61.6097 66.0725 60.1917V59.8929C66.0725 58.9495 66.2512 58.1087 66.6086 57.3704C66.9719 56.6263 67.4758 56.0462 68.1203 55.6302C68.7707 55.2083 69.4738 54.9974 70.2297 54.9974C71.466 54.9974 72.427 55.4046 73.1125 56.2191C73.798 57.0335 74.1408 58.1995 74.1408 59.7171V60.3939H67.6984C67.7219 61.3314 67.9943 62.0902 68.5158 62.6702C69.0432 63.2445 69.7111 63.5316 70.5197 63.5316C71.0939 63.5316 71.5803 63.4144 71.9787 63.18C72.3772 62.9456 72.7258 62.6351 73.0246 62.2484L74.0178 63.0218C73.2209 64.2464 72.0256 64.8587 70.4318 64.8587ZM70.2297 56.3333C69.5734 56.3333 69.0227 56.5736 68.5773 57.054C68.132 57.5286 67.8566 58.1966 67.7512 59.0579H72.5148V58.9349C72.468 58.1087 72.2453 57.47 71.8469 57.0189C71.4484 56.5618 70.9094 56.3333 70.2297 56.3333ZM82.9299 51.8861L87.1135 62.3275L91.2971 51.8861H93.4855V64.6829H91.798V59.6995L91.9563 54.3206L87.7551 64.6829H86.4631L82.2707 54.347L82.4377 59.6995V64.6829H80.7502V51.8861H82.9299ZM95.7795 59.8402C95.7795 58.9085 95.9611 58.0706 96.3244 57.3265C96.6936 56.5824 97.2033 56.0081 97.8537 55.6038C98.51 55.1995 99.257 54.9974 100.095 54.9974C101.39 54.9974 102.436 55.4456 103.233 56.3421C104.035 57.2386 104.437 58.431 104.437 59.9193V60.0335C104.437 60.9593 104.258 61.7913 103.901 62.5296C103.549 63.262 103.042 63.8333 102.38 64.2435C101.724 64.6536 100.968 64.8587 100.113 64.8587C98.8234 64.8587 97.7775 64.4105 96.9748 63.514C96.1779 62.6175 95.7795 61.431 95.7795 59.9544V59.8402ZM97.4143 60.0335C97.4143 61.0882 97.6574 61.9349 98.1438 62.5736C98.6359 63.2122 99.2922 63.5316 100.113 63.5316C100.939 63.5316 101.595 63.2093 102.081 62.5648C102.568 61.9144 102.811 61.0062 102.811 59.8402C102.811 58.7972 102.562 57.9534 102.064 57.3089C101.571 56.6585 100.915 56.3333 100.095 56.3333C99.2922 56.3333 98.6447 56.6527 98.1525 57.2913C97.6604 57.93 97.4143 58.8441 97.4143 60.0335ZM112.347 63.7425C111.714 64.4866 110.785 64.8587 109.561 64.8587C108.547 64.8587 107.774 64.5658 107.24 63.9798C106.713 63.388 106.446 62.515 106.441 61.3607V55.1732H108.067V61.3167C108.067 62.7581 108.653 63.4788 109.824 63.4788C111.067 63.4788 111.893 63.0159 112.303 62.0902V55.1732H113.929V64.6829H112.382L112.347 63.7425ZM117.946 55.1732L117.998 56.3685C118.725 55.4544 119.674 54.9974 120.846 54.9974C122.856 54.9974 123.869 56.1312 123.887 58.3988V64.6829H122.261V58.39C122.255 57.7044 122.097 57.1976 121.786 56.8695C121.482 56.5413 121.004 56.3773 120.354 56.3773C119.826 56.3773 119.363 56.5179 118.965 56.7991C118.567 57.0804 118.256 57.4495 118.033 57.9066V64.6829H116.407V55.1732H117.946ZM128.545 52.8704V55.1732H130.321V56.43H128.545V62.3275C128.545 62.7083 128.624 62.9954 128.782 63.1888C128.941 63.3763 129.21 63.47 129.591 63.47C129.779 63.47 130.036 63.4349 130.364 63.3646V64.6829C129.937 64.8001 129.521 64.8587 129.116 64.8587C128.39 64.8587 127.842 64.639 127.473 64.1995C127.104 63.7601 126.919 63.1361 126.919 62.3275V56.43H125.188V55.1732H126.919V52.8704H128.545ZM141.641 59.5062H138.635V64.6829H136.939V51.8861H141.175C142.616 51.8861 143.724 52.2142 144.497 52.8704C145.277 53.5267 145.666 54.4818 145.666 55.7357C145.666 56.5325 145.449 57.2269 145.016 57.8187C144.588 58.4105 143.99 58.8529 143.223 59.1458L146.229 64.5775V64.6829H144.418L141.641 59.5062ZM138.635 58.1263H141.228C142.066 58.1263 142.731 57.9095 143.223 57.4759C143.721 57.0423 143.97 56.4622 143.97 55.7357C143.97 54.9447 143.733 54.3382 143.258 53.9163C142.789 53.4945 142.11 53.2806 141.219 53.2747H138.635V58.1263ZM151.731 64.8587C150.442 64.8587 149.393 64.4368 148.584 63.5931C147.776 62.7435 147.371 61.6097 147.371 60.1917V59.8929C147.371 58.9495 147.55 58.1087 147.907 57.3704C148.271 56.6263 148.775 56.0462 149.419 55.6302C150.07 55.2083 150.773 54.9974 151.529 54.9974C152.765 54.9974 153.726 55.4046 154.411 56.2191C155.097 57.0335 155.44 58.1995 155.44 59.7171V60.3939H148.997C149.021 61.3314 149.293 62.0902 149.815 62.6702C150.342 63.2445 151.01 63.5316 151.819 63.5316C152.393 63.5316 152.879 63.4144 153.278 63.18C153.676 62.9456 154.025 62.6351 154.323 62.2484L155.317 63.0218C154.52 64.2464 153.324 64.8587 151.731 64.8587ZM151.529 56.3333C150.872 56.3333 150.321 56.5736 149.876 57.054C149.431 57.5286 149.155 58.1966 149.05 59.0579H153.814V58.9349C153.767 58.1087 153.544 57.47 153.146 57.0189C152.747 56.5618 152.208 56.3333 151.529 56.3333ZM162.866 62.1605C162.866 61.721 162.699 61.3812 162.365 61.1409C162.037 60.8949 161.46 60.6839 160.634 60.5081C159.814 60.3324 159.16 60.1214 158.674 59.8753C158.194 59.6292 157.836 59.3363 157.602 58.9964C157.373 58.6566 157.259 58.2523 157.259 57.7835C157.259 57.0042 157.587 56.345 158.243 55.806C158.905 55.2669 159.749 54.9974 160.775 54.9974C161.853 54.9974 162.726 55.2757 163.394 55.8324C164.068 56.389 164.404 57.1009 164.404 57.9681H162.77C162.77 57.5228 162.579 57.139 162.198 56.8167C161.823 56.4945 161.349 56.3333 160.775 56.3333C160.183 56.3333 159.72 56.4622 159.386 56.72C159.052 56.9779 158.885 57.3148 158.885 57.7308C158.885 58.1234 159.04 58.4193 159.351 58.6185C159.661 58.8177 160.221 59.0081 161.029 59.1898C161.844 59.3714 162.503 59.5882 163.007 59.8402C163.511 60.0921 163.883 60.3968 164.123 60.7542C164.369 61.1058 164.492 61.5365 164.492 62.0462C164.492 62.8958 164.153 63.5784 163.473 64.0941C162.793 64.6038 161.911 64.8587 160.827 64.8587C160.066 64.8587 159.392 64.724 158.806 64.4544C158.22 64.1849 157.76 63.8099 157.426 63.3294C157.098 62.8431 156.934 62.3187 156.934 61.7562H158.56C158.589 62.3011 158.806 62.7347 159.21 63.057C159.62 63.3734 160.159 63.5316 160.827 63.5316C161.443 63.5316 161.935 63.4085 162.304 63.1624C162.679 62.9105 162.866 62.5765 162.866 62.1605ZM168.377 64.6829H166.751V55.1732H168.377V64.6829ZM166.619 52.6507C166.619 52.387 166.698 52.1644 166.857 51.9827C167.021 51.8011 167.261 51.7103 167.577 51.7103C167.894 51.7103 168.134 51.8011 168.298 51.9827C168.462 52.1644 168.544 52.387 168.544 52.6507C168.544 52.9144 168.462 53.1341 168.298 53.3099C168.134 53.4857 167.894 53.5736 167.577 53.5736C167.261 53.5736 167.021 53.4857 166.857 53.3099C166.698 53.1341 166.619 52.9144 166.619 52.6507ZM176.525 62.1605C176.525 61.721 176.358 61.3812 176.024 61.1409C175.696 60.8949 175.118 60.6839 174.292 60.5081C173.472 60.3324 172.819 60.1214 172.332 59.8753C171.852 59.6292 171.494 59.3363 171.26 58.9964C171.031 58.6566 170.917 58.2523 170.917 57.7835C170.917 57.0042 171.245 56.345 171.902 55.806C172.564 55.2669 173.407 54.9974 174.433 54.9974C175.511 54.9974 176.384 55.2757 177.052 55.8324C177.726 56.389 178.063 57.1009 178.063 57.9681H176.428C176.428 57.5228 176.238 57.139 175.857 56.8167C175.482 56.4945 175.007 56.3333 174.433 56.3333C173.841 56.3333 173.378 56.4622 173.044 56.72C172.71 56.9779 172.543 57.3148 172.543 57.7308C172.543 58.1234 172.698 58.4193 173.009 58.6185C173.32 58.8177 173.879 59.0081 174.688 59.1898C175.502 59.3714 176.161 59.5882 176.665 59.8402C177.169 60.0921 177.541 60.3968 177.781 60.7542C178.028 61.1058 178.151 61.5365 178.151 62.0462C178.151 62.8958 177.811 63.5784 177.131 64.0941C176.451 64.6038 175.57 64.8587 174.486 64.8587C173.724 64.8587 173.05 64.724 172.464 64.4544C171.878 64.1849 171.418 63.8099 171.084 63.3294C170.756 62.8431 170.592 62.3187 170.592 61.7562H172.218C172.247 62.3011 172.464 62.7347 172.868 63.057C173.279 63.3734 173.818 63.5316 174.486 63.5316C175.101 63.5316 175.593 63.4085 175.962 63.1624C176.337 62.9105 176.525 62.5765 176.525 62.1605ZM182.475 52.8704V55.1732H184.25V56.43H182.475V62.3275C182.475 62.7083 182.554 62.9954 182.712 63.1888C182.87 63.3763 183.14 63.47 183.521 63.47C183.708 63.47 183.966 63.4349 184.294 63.3646V64.6829C183.866 64.8001 183.45 64.8587 183.046 64.8587C182.32 64.8587 181.772 64.639 181.403 64.1995C181.033 63.7601 180.849 63.1361 180.849 62.3275V56.43H179.117V55.1732H180.849V52.8704H182.475ZM185.551 59.8402C185.551 58.9085 185.733 58.0706 186.096 57.3265C186.465 56.5824 186.975 56.0081 187.625 55.6038C188.281 55.1995 189.029 54.9974 189.866 54.9974C191.161 54.9974 192.207 55.4456 193.004 56.3421C193.807 57.2386 194.208 58.431 194.208 59.9193V60.0335C194.208 60.9593 194.029 61.7913 193.672 62.5296C193.321 63.262 192.814 63.8333 192.152 64.2435C191.495 64.6536 190.739 64.8587 189.884 64.8587C188.595 64.8587 187.549 64.4105 186.746 63.514C185.949 62.6175 185.551 61.431 185.551 59.9544V59.8402ZM187.186 60.0335C187.186 61.0882 187.429 61.9349 187.915 62.5736C188.407 63.2122 189.064 63.5316 189.884 63.5316C190.71 63.5316 191.366 63.2093 191.853 62.5648C192.339 61.9144 192.582 61.0062 192.582 59.8402C192.582 58.7972 192.333 57.9534 191.835 57.3089C191.343 56.6585 190.687 56.3333 189.866 56.3333C189.064 56.3333 188.416 56.6527 187.924 57.2913C187.432 57.93 187.186 58.8441 187.186 60.0335ZM200.844 56.6322C200.598 56.5911 200.331 56.5706 200.044 56.5706C198.978 56.5706 198.254 57.0247 197.873 57.9329V64.6829H196.247V55.1732H197.829L197.856 56.2718C198.389 55.4222 199.145 54.9974 200.123 54.9974C200.44 54.9974 200.68 55.0384 200.844 55.1204V56.6322ZM210.196 59.9105H205.906V58.5833H210.196V59.9105ZM224.996 53.2747H220.883V64.6829H219.204V53.2747H215.1V51.8861H224.996V53.2747ZM228.266 56.3245C228.987 55.4398 229.924 54.9974 231.078 54.9974C233.088 54.9974 234.102 56.1312 234.119 58.3988V64.6829H232.493V58.39C232.488 57.7044 232.329 57.1976 232.019 56.8695C231.714 56.5413 231.237 56.3773 230.586 56.3773C230.059 56.3773 229.596 56.5179 229.197 56.7991C228.799 57.0804 228.488 57.4495 228.266 57.9066V64.6829H226.64V51.1829H228.266V56.3245ZM238.321 64.6829H236.695V55.1732H238.321V64.6829ZM236.563 52.6507C236.563 52.387 236.642 52.1644 236.8 51.9827C236.964 51.8011 237.204 51.7103 237.521 51.7103C237.837 51.7103 238.077 51.8011 238.241 51.9827C238.405 52.1644 238.488 52.387 238.488 52.6507C238.488 52.9144 238.405 53.1341 238.241 53.3099C238.077 53.4857 237.837 53.5736 237.521 53.5736C237.204 53.5736 236.964 53.4857 236.8 53.3099C236.642 53.1341 236.563 52.9144 236.563 52.6507ZM244.745 63.5316C245.325 63.5316 245.832 63.3558 246.266 63.0042C246.699 62.6527 246.94 62.2132 246.987 61.6859H248.525C248.495 62.2308 248.308 62.7493 247.962 63.2415C247.616 63.7337 247.154 64.1263 246.573 64.4193C245.999 64.7122 245.39 64.8587 244.745 64.8587C243.45 64.8587 242.419 64.4281 241.652 63.5667C240.89 62.6995 240.509 61.5159 240.509 60.0159V59.7435C240.509 58.8177 240.679 57.9945 241.019 57.2738C241.359 56.5531 241.845 55.9935 242.478 55.595C243.116 55.1966 243.869 54.9974 244.737 54.9974C245.803 54.9974 246.688 55.3167 247.391 55.9554C248.1 56.5941 248.478 57.4232 248.525 58.4427H246.987C246.94 57.8275 246.705 57.3236 246.283 56.931C245.867 56.5325 245.352 56.3333 244.737 56.3333C243.91 56.3333 243.269 56.6322 242.812 57.2298C242.361 57.8216 242.135 58.68 242.135 59.805V60.1126C242.135 61.2083 242.361 62.0521 242.812 62.6439C243.263 63.2357 243.907 63.5316 244.745 63.5316ZM253.007 60.2796L251.988 61.3431V64.6829H250.362V51.1829H251.988V59.348L252.858 58.3021L255.82 55.1732H257.797L254.097 59.1458L258.228 64.6829H256.321L253.007 60.2796ZM271.253 59.0316H265.883V64.6829H264.196V51.8861H272.123V53.2747H265.883V57.6517H271.253V59.0316ZM275.656 64.6829H274.03V55.1732H275.656V64.6829ZM273.899 52.6507C273.899 52.387 273.978 52.1644 274.136 51.9827C274.3 51.8011 274.54 51.7103 274.857 51.7103C275.173 51.7103 275.413 51.8011 275.577 51.9827C275.741 52.1644 275.823 52.387 275.823 52.6507C275.823 52.9144 275.741 53.1341 275.577 53.3099C275.413 53.4857 275.173 53.5736 274.857 53.5736C274.54 53.5736 274.3 53.4857 274.136 53.3099C273.978 53.1341 273.899 52.9144 273.899 52.6507ZM280.033 64.6829H278.407V51.1829H280.033V64.6829ZM284.173 55.1732L284.217 56.2279C284.914 55.4075 285.855 54.9974 287.038 54.9974C288.368 54.9974 289.274 55.5072 289.754 56.5267C290.071 56.0697 290.481 55.7005 290.985 55.4193C291.494 55.138 292.095 54.9974 292.786 54.9974C294.872 54.9974 295.933 56.1019 295.968 58.3109V64.6829H294.342V58.4075C294.342 57.7279 294.187 57.221 293.876 56.887C293.566 56.5472 293.044 56.3773 292.312 56.3773C291.708 56.3773 291.207 56.5589 290.809 56.9222C290.41 57.2796 290.179 57.763 290.114 58.3724V64.6829H288.48V58.4515C288.48 57.0687 287.803 56.3773 286.449 56.3773C285.383 56.3773 284.654 56.8314 284.261 57.7396V64.6829H282.635V55.1732H284.173ZM306.278 59.9105H301.988V58.5833H306.278V59.9105ZM317.51 64.6829H315.875V53.846L312.597 55.0501V53.5736L317.255 51.8245H317.51V64.6829ZM330.298 59.2249C330.298 61.1292 329.973 62.5443 329.322 63.47C328.672 64.3958 327.655 64.8587 326.273 64.8587C324.907 64.8587 323.897 64.4075 323.24 63.5052C322.584 62.597 322.244 61.2435 322.221 59.4447V57.2738C322.221 55.3929 322.546 53.9954 323.196 53.0814C323.847 52.1673 324.866 51.7103 326.255 51.7103C327.632 51.7103 328.646 52.1527 329.296 53.0374C329.946 53.9163 330.28 55.2757 330.298 57.1156V59.2249ZM328.672 57.0013C328.672 55.6243 328.479 54.6224 328.092 53.9954C327.705 53.3626 327.093 53.0462 326.255 53.0462C325.423 53.0462 324.817 53.3597 324.436 53.9866C324.055 54.6136 323.859 55.5775 323.847 56.8783V59.4798C323.847 60.8626 324.046 61.8851 324.445 62.5472C324.849 63.2034 325.458 63.5316 326.273 63.5316C327.075 63.5316 327.67 63.221 328.057 62.5999C328.449 61.9788 328.654 61.0003 328.672 59.6644V57.0013ZM332.117 59.8402C332.117 58.9085 332.299 58.0706 332.662 57.3265C333.031 56.5824 333.541 56.0081 334.192 55.6038C334.848 55.1995 335.595 54.9974 336.433 54.9974C337.728 54.9974 338.774 55.4456 339.571 56.3421C340.373 57.2386 340.775 58.431 340.775 59.9193V60.0335C340.775 60.9593 340.596 61.7913 340.238 62.5296C339.887 63.262 339.38 63.8333 338.718 64.2435C338.062 64.6536 337.306 64.8587 336.45 64.8587C335.161 64.8587 334.115 64.4105 333.313 63.514C332.516 62.6175 332.117 61.431 332.117 59.9544V59.8402ZM333.752 60.0335C333.752 61.0882 333.995 61.9349 334.482 62.5736C334.974 63.2122 335.63 63.5316 336.45 63.5316C337.277 63.5316 337.933 63.2093 338.419 62.5648C338.905 61.9144 339.149 61.0062 339.149 59.8402C339.149 58.7972 338.9 57.9534 338.402 57.3089C337.909 56.6585 337.253 56.3333 336.433 56.3333C335.63 56.3333 334.983 56.6527 334.49 57.2913C333.998 57.93 333.752 58.8441 333.752 60.0335ZM344.44 56.3245C345.16 55.4398 346.098 54.9974 347.252 54.9974C349.262 54.9974 350.276 56.1312 350.293 58.3988V64.6829H348.667V58.39C348.661 57.7044 348.503 57.1976 348.193 56.8695C347.888 56.5413 347.41 56.3773 346.76 56.3773C346.233 56.3773 345.77 56.5179 345.371 56.7991C344.973 57.0804 344.662 57.4495 344.44 57.9066V64.6829H342.814V51.1829H344.44V56.3245ZM354.257 55.1732L354.301 56.2279C354.998 55.4075 355.939 54.9974 357.122 54.9974C358.452 54.9974 359.358 55.5072 359.838 56.5267C360.154 56.0697 360.565 55.7005 361.069 55.4193C361.578 55.138 362.179 54.9974 362.87 54.9974C364.956 54.9974 366.017 56.1019 366.052 58.3109V64.6829H364.426V58.4075C364.426 57.7279 364.271 57.221 363.96 56.887C363.65 56.5472 363.128 56.3773 362.396 56.3773C361.792 56.3773 361.291 56.5589 360.893 56.9222C360.494 57.2796 360.263 57.763 360.198 58.3724V64.6829H358.564V58.4515C358.564 57.0687 357.887 56.3773 356.533 56.3773C355.467 56.3773 354.738 56.8314 354.345 57.7396V64.6829H352.719V55.1732H354.257ZM368.46 67.2318L367.537 66.599C368.088 65.8314 368.375 65.0404 368.399 64.2259V62.7581H369.989V64.0325C369.989 64.6243 369.843 65.2161 369.55 65.8079C369.263 66.3997 368.9 66.8743 368.46 67.2318ZM381.688 64.6829H380.053V53.846L376.775 55.0501V53.5736L381.433 51.8245H381.688V64.6829ZM386.311 54.347C386.311 53.5794 386.554 52.9466 387.04 52.4486C387.532 51.9505 388.162 51.7015 388.93 51.7015C389.709 51.7015 390.339 51.9534 390.82 52.4574C391.306 52.9554 391.549 53.6029 391.549 54.3997V55.0238C391.549 55.7972 391.303 56.43 390.811 56.9222C390.324 57.4085 389.703 57.6517 388.947 57.6517C388.186 57.6517 387.556 57.4085 387.058 56.9222C386.56 56.43 386.311 55.7767 386.311 54.9622V54.347ZM387.524 55.0238C387.524 55.4808 387.653 55.8587 387.91 56.1575C388.168 56.4505 388.514 56.597 388.947 56.597C389.363 56.597 389.697 56.4534 389.949 56.1663C390.207 55.8792 390.336 55.4866 390.336 54.9886V54.347C390.336 53.89 390.21 53.512 389.958 53.2132C389.706 52.9144 389.363 52.765 388.93 52.765C388.496 52.765 388.154 52.9144 387.902 53.2132C387.65 53.512 387.524 53.9017 387.524 54.3822V55.0238ZM392.542 61.5452C392.542 60.7777 392.785 60.1478 393.272 59.6556C393.764 59.1575 394.394 58.9085 395.161 58.9085C395.929 58.9085 396.559 59.1546 397.051 59.6468C397.543 60.139 397.789 60.7923 397.789 61.6068V62.2308C397.789 62.9984 397.543 63.6312 397.051 64.1292C396.565 64.6214 395.941 64.8675 395.179 64.8675C394.417 64.8675 393.787 64.6243 393.289 64.138C392.791 63.6458 392.542 62.9925 392.542 62.1781V61.5452ZM393.755 62.2308C393.755 62.6937 393.884 63.0745 394.142 63.3734C394.4 63.6663 394.745 63.8128 395.179 63.8128C395.601 63.8128 395.938 63.6693 396.19 63.3822C396.442 63.0892 396.568 62.6937 396.568 62.1956V61.5452C396.568 61.0824 396.439 60.7044 396.181 60.4115C395.929 60.1185 395.589 59.972 395.161 59.972C394.745 59.972 394.405 60.1185 394.142 60.4115C393.884 60.6986 393.755 61.0882 393.755 61.5804V62.2308ZM389.317 63.7161L388.394 63.1361L394.643 53.1341L395.566 53.7142L389.317 63.7161ZM399.749 67.2318L398.826 66.599C399.377 65.8314 399.664 65.0404 399.688 64.2259V62.7581H401.279V64.0325C401.279 64.6243 401.132 65.2161 400.839 65.8079C400.552 66.3997 400.189 66.8743 399.749 67.2318ZM416.018 64.6829H407.633V63.514L412.063 58.5921C412.719 57.848 413.17 57.2445 413.416 56.7816C413.668 56.3128 413.794 55.8294 413.794 55.3314C413.794 54.6634 413.592 54.1156 413.188 53.6878C412.783 53.2601 412.244 53.0462 411.571 53.0462C410.762 53.0462 410.132 53.2777 409.681 53.7406C409.236 54.1976 409.013 54.8363 409.013 55.6566H407.387C407.387 54.4788 407.765 53.5267 408.521 52.8001C409.282 52.0736 410.299 51.7103 411.571 51.7103C412.76 51.7103 413.7 52.0238 414.392 52.6507C415.083 53.2718 415.429 54.1009 415.429 55.138C415.429 56.3978 414.626 57.8978 413.021 59.638L409.593 63.3558H416.018V64.6829ZM418.488 58.2669L419.138 51.8861H425.695V53.389H420.518L420.131 56.8783C420.758 56.5091 421.47 56.3245 422.267 56.3245C423.433 56.3245 424.359 56.7113 425.044 57.4847C425.73 58.2523 426.072 59.2923 426.072 60.6048C426.072 61.9232 425.715 62.9632 425 63.7249C424.291 64.4808 423.298 64.8587 422.021 64.8587C420.89 64.8587 419.967 64.5452 419.252 63.9183C418.537 63.2913 418.13 62.4241 418.03 61.3167H419.569C419.668 62.0491 419.929 62.6029 420.351 62.9779C420.773 63.347 421.329 63.5316 422.021 63.5316C422.777 63.5316 423.368 63.2738 423.796 62.7581C424.23 62.2425 424.446 61.5306 424.446 60.6224C424.446 59.7669 424.212 59.0814 423.743 58.5658C423.28 58.0443 422.662 57.7835 421.889 57.7835C421.18 57.7835 420.623 57.9388 420.219 58.2493L419.788 58.6009L418.488 58.2669ZM435.872 59.2249C435.872 61.1292 435.547 62.5443 434.897 63.47C434.246 64.3958 433.23 64.8587 431.847 64.8587C430.482 64.8587 429.471 64.4075 428.815 63.5052C428.158 62.597 427.819 61.2435 427.795 59.4447V57.2738C427.795 55.3929 428.12 53.9954 428.771 53.0814C429.421 52.1673 430.441 51.7103 431.829 51.7103C433.206 51.7103 434.22 52.1527 434.87 53.0374C435.521 53.9163 435.855 55.2757 435.872 57.1156V59.2249ZM434.246 57.0013C434.246 55.6243 434.053 54.6224 433.666 53.9954C433.279 53.3626 432.667 53.0462 431.829 53.0462C430.997 53.0462 430.391 53.3597 430.01 53.9866C429.629 54.6136 429.433 55.5775 429.421 56.8783V59.4798C429.421 60.8626 429.62 61.8851 430.019 62.5472C430.423 63.2034 431.032 63.5316 431.847 63.5316C432.65 63.5316 433.244 63.221 433.631 62.5999C434.024 61.9788 434.229 61.0003 434.246 59.6644V57.0013ZM441.137 60.6488L441.383 62.3363L441.743 60.8158L444.275 51.8861H445.698L448.168 60.8158L448.52 62.3626L448.792 60.64L450.779 51.8861H452.475L449.372 64.6829H447.834L445.197 55.3577L444.995 54.3822L444.793 55.3577L442.06 64.6829H440.522L437.428 51.8861H439.115L441.137 60.6488ZM452.958 67.2318L452.035 66.599C452.586 65.8314 452.873 65.0404 452.897 64.2259V62.7581H454.488V64.0325C454.488 64.6243 454.341 65.2161 454.048 65.8079C453.761 66.3997 453.398 66.8743 452.958 67.2318ZM466.186 64.6829H464.551V53.846L461.273 55.0501V53.5736L465.931 51.8245H466.186V64.6829ZM479.334 64.6829H470.949V63.514L475.379 58.5921C476.035 57.848 476.487 57.2445 476.733 56.7816C476.985 56.3128 477.111 55.8294 477.111 55.3314C477.111 54.6634 476.908 54.1156 476.504 53.6878C476.1 53.2601 475.561 53.0462 474.887 53.0462C474.078 53.0462 473.448 53.2777 472.997 53.7406C472.552 54.1976 472.329 54.8363 472.329 55.6566H470.703C470.703 54.4788 471.081 53.5267 471.837 52.8001C472.599 52.0736 473.615 51.7103 474.887 51.7103C476.076 51.7103 477.017 52.0238 477.708 52.6507C478.4 53.2718 478.745 54.1009 478.745 55.138C478.745 56.3978 477.943 57.8978 476.337 59.638L472.909 63.3558H479.334V64.6829ZM489.081 59.2249C489.081 61.1292 488.756 62.5443 488.106 63.47C487.455 64.3958 486.439 64.8587 485.056 64.8587C483.691 64.8587 482.68 64.4075 482.024 63.5052C481.367 62.597 481.028 61.2435 481.004 59.4447V57.2738C481.004 55.3929 481.329 53.9954 481.98 53.0814C482.63 52.1673 483.65 51.7103 485.038 51.7103C486.415 51.7103 487.429 52.1527 488.079 53.0374C488.73 53.9163 489.064 55.2757 489.081 57.1156V59.2249ZM487.455 57.0013C487.455 55.6243 487.262 54.6224 486.875 53.9954C486.488 53.3626 485.876 53.0462 485.038 53.0462C484.206 53.0462 483.6 53.3597 483.219 53.9866C482.838 54.6136 482.642 55.5775 482.63 56.8783V59.4798C482.63 60.8626 482.829 61.8851 483.228 62.5472C483.632 63.2034 484.241 63.5316 485.056 63.5316C485.859 63.5316 486.453 63.221 486.84 62.5999C487.233 61.9788 487.438 61.0003 487.455 59.6644V57.0013ZM497.545 51.8773V53.2572H497.246C495.981 53.2806 494.973 53.6556 494.223 54.3822C493.473 55.1087 493.039 56.1312 492.922 57.4495C493.596 56.6761 494.516 56.2894 495.682 56.2894C496.795 56.2894 497.683 56.682 498.345 57.4671C499.013 58.2523 499.347 59.2659 499.347 60.5081C499.347 61.8265 498.987 62.8812 498.266 63.6722C497.551 64.4632 496.59 64.8587 495.383 64.8587C494.158 64.8587 493.165 64.39 492.404 63.4525C491.642 62.5091 491.261 61.2962 491.261 59.8138V59.1898C491.261 56.8343 491.762 55.0355 492.764 53.7933C493.772 52.5452 495.269 51.9066 497.255 51.8773H497.545ZM495.409 57.6429C494.853 57.6429 494.34 57.8099 493.871 58.1439C493.403 58.4779 493.077 58.8968 492.896 59.4007V59.9984C492.896 61.0531 493.133 61.9027 493.608 62.5472C494.082 63.1917 494.674 63.514 495.383 63.514C496.115 63.514 496.69 63.2445 497.106 62.7054C497.528 62.1663 497.738 61.4603 497.738 60.5872C497.738 59.7083 497.525 58.9993 497.097 58.4603C496.675 57.9154 496.113 57.6429 495.409 57.6429Z" fill="black"/>
</svg>
