<svg width="410" height="115" viewBox="0 0 410 115" fill="none" xmlns="http://www.w3.org/2000/svg">
<rect x="0.5" y="33.5988" width="122.466" height="80.9013" rx="2.5" stroke="black"/>
<rect x="129.29" y="72.0994" width="25.625" height="5.20008" fill="#000AFF"/>
<path d="M27.6281 91.8988H21.4835V62.2172L12.4191 65.3148V60.1097L26.8409 54.8031H27.6281V91.8988ZM57.9698 76.4359C55.9047 78.6195 53.4926 79.7113 50.7335 79.7113C47.4835 79.7113 44.8937 78.5772 42.964 76.309C41.0343 74.0238 40.0695 71.0277 40.0695 67.3207C40.0695 64.8832 40.5603 62.6742 41.5421 60.6937C42.5239 58.7133 43.9204 57.1729 45.7316 56.0726C47.5428 54.9724 49.6417 54.4222 52.0284 54.4222C55.7524 54.4222 58.7062 55.8103 60.8898 58.5863C63.0734 61.3623 64.1652 65.0778 64.1652 69.7328V71.4594C64.1652 78.1286 62.6587 83.2152 59.6456 86.7191C56.6326 90.223 52.1385 92.0004 46.1632 92.0511H45.4269V86.9476H46.3156C49.9549 86.8969 52.7478 86.0251 54.6945 84.3324C56.6411 82.6228 57.7329 79.9906 57.9698 76.4359ZM52.0284 74.8871C53.2641 74.8871 54.4236 74.5316 55.507 73.8207C56.5903 73.1097 57.4282 72.128 58.0206 70.8754V68.4633C58.0206 65.738 57.462 63.5459 56.3448 61.8871C55.2277 60.2282 53.7804 59.3988 52.0031 59.3988C50.2257 59.3988 48.8038 60.1351 47.7374 61.6078C46.6879 63.0635 46.1632 64.9086 46.1632 67.1429C46.1632 69.462 46.6964 71.3324 47.7628 72.7543C48.8292 74.1761 50.2511 74.8871 52.0284 74.8871ZM94.1261 76.3344C94.1261 81.6495 93.1274 85.6612 91.13 88.3695C89.1495 91.0609 86.1281 92.4066 82.0656 92.4066C78.0708 92.4066 75.0577 91.0948 73.0265 88.4711C71.0122 85.8304 69.9796 81.9288 69.9288 76.766V70.3676C69.9288 65.0524 70.9191 61.0661 72.8995 58.4086C74.8969 55.751 77.9353 54.4222 82.0148 54.4222C86.0603 54.4222 89.0734 55.7172 91.0538 58.307C93.0512 60.8969 94.0753 64.7732 94.1261 69.9359V76.3344ZM87.9562 69.4281C87.9562 65.958 87.4822 63.419 86.5343 61.8109C85.5864 60.1859 84.0799 59.3734 82.0148 59.3734C80.0004 59.3734 78.5193 60.1436 77.5714 61.684C76.6235 63.2074 76.1241 65.5941 76.0734 68.8441V77.223C76.0734 80.6761 76.5558 83.2491 77.5206 84.9418C78.4855 86.6345 80.0004 87.4808 82.0656 87.4808C84.046 87.4808 85.5102 86.7022 86.4581 85.1449C87.406 83.5707 87.9054 81.1163 87.9562 77.7816V69.4281Z" fill="#000AFF"/>
<path d="M210.897 75.9344C210.897 81.2496 209.899 85.2613 207.901 87.9696C205.921 90.661 202.899 92.0067 198.837 92.0067C194.842 92.0067 191.829 90.6949 189.798 88.0712C187.783 85.4305 186.751 81.5288 186.7 76.3661V69.9677C186.7 64.6525 187.69 60.6662 189.671 58.0087C191.668 55.3511 194.707 54.0223 198.786 54.0223C202.832 54.0223 205.845 55.3173 207.825 57.9071C209.822 60.4969 210.847 64.3733 210.897 69.536V75.9344ZM204.727 69.0282C204.727 65.5581 204.253 63.0191 203.306 61.411C202.358 59.786 200.851 58.9735 198.786 58.9735C196.772 58.9735 195.291 59.7437 194.343 61.2841C193.395 62.8075 192.895 65.1942 192.845 68.4442V76.8231C192.845 80.2762 193.327 82.8492 194.292 84.5419C195.257 86.2346 196.772 87.0809 198.837 87.0809C200.817 87.0809 202.281 86.3023 203.229 84.745C204.177 83.1708 204.677 80.7163 204.727 77.3817V69.0282ZM240.452 75.9344C240.452 81.2496 239.453 85.2613 237.456 87.9696C235.475 90.661 232.454 92.0067 228.391 92.0067C224.397 92.0067 221.384 90.6949 219.352 88.0712C217.338 85.4305 216.306 81.5288 216.255 76.3661V69.9677C216.255 64.6525 217.245 60.6662 219.225 58.0087C221.223 55.3511 224.261 54.0223 228.341 54.0223C232.386 54.0223 235.399 55.3173 237.38 57.9071C239.377 60.4969 240.401 64.3733 240.452 69.536V75.9344ZM234.282 69.0282C234.282 65.5581 233.808 63.0191 232.86 61.411C231.912 59.786 230.406 58.9735 228.341 58.9735C226.326 58.9735 224.845 59.7437 223.897 61.2841C222.949 62.8075 222.45 65.1942 222.399 68.4442V76.8231C222.399 80.2762 222.882 82.8492 223.847 84.5419C224.811 86.2346 226.326 87.0809 228.391 87.0809C230.372 87.0809 231.836 86.3023 232.784 84.745C233.732 83.1708 234.231 80.7163 234.282 77.3817V69.0282ZM270.007 75.9344C270.007 81.2496 269.008 85.2613 267.011 87.9696C265.03 90.661 262.009 92.0067 257.946 92.0067C253.951 92.0067 250.938 90.6949 248.907 88.0712C246.893 85.4305 245.86 81.5288 245.809 76.3661V69.9677C245.809 64.6525 246.8 60.6662 248.78 58.0087C250.778 55.3511 253.816 54.0223 257.895 54.0223C261.941 54.0223 264.954 55.3173 266.934 57.9071C268.932 60.4969 269.956 64.3733 270.007 69.536V75.9344ZM263.837 69.0282C263.837 65.5581 263.363 63.0191 262.415 61.411C261.467 59.786 259.96 58.9735 257.895 58.9735C255.881 58.9735 254.4 59.7437 253.452 61.2841C252.504 62.8075 252.005 65.1942 251.954 68.4442V76.8231C251.954 80.2762 252.436 82.8492 253.401 84.5419C254.366 86.2346 255.881 87.0809 257.946 87.0809C259.927 87.0809 261.391 86.3023 262.339 84.745C263.287 83.1708 263.786 80.7163 263.837 77.3817V69.0282ZM292.173 91.4989H286.028V61.8173L276.964 64.9149V59.7098L291.386 54.4032H292.173V91.4989ZM325.891 78.3212H330.487V83.2723H325.891V91.4989H319.722V83.2723H303.751L303.573 79.5145L319.518 54.5302H325.891V78.3212ZM310.048 78.3212H319.722V62.8837L319.265 63.6962L310.048 78.3212ZM336.225 73.1669L338.231 54.5302H358.087V59.8622H343.36L342.345 68.6981C344.054 67.7163 345.984 67.2255 348.134 67.2255C351.655 67.2255 354.388 68.3511 356.335 70.6024C358.298 72.8537 359.28 75.8837 359.28 79.6923C359.28 83.4501 358.197 86.4462 356.03 88.6805C353.863 90.898 350.893 92.0067 347.118 92.0067C343.733 92.0067 340.923 91.0503 338.688 89.1376C336.471 87.2079 335.269 84.6688 335.083 81.5204H341.05C341.287 83.3147 341.93 84.6942 342.979 85.6591C344.029 86.607 345.4 87.0809 347.093 87.0809C348.988 87.0809 350.461 86.4038 351.511 85.0497C352.577 83.6955 353.11 81.8505 353.11 79.5145C353.11 77.2632 352.526 75.4859 351.358 74.1825C350.19 72.8622 348.582 72.202 346.534 72.202C345.417 72.202 344.469 72.3544 343.69 72.6591C342.912 72.9468 342.065 73.5223 341.151 74.3856L336.225 73.1669Z" fill="#000AFF"/>
<rect x="161.239" y="32.2987" width="248.261" height="80.9013" rx="2.5" stroke="black"/>
<path d="M180.859 14.7041C180.859 14.1416 180.66 13.708 180.262 13.4033C179.869 13.0986 179.157 12.791 178.126 12.4805C177.095 12.1699 176.274 11.8242 175.665 11.4434C174.499 10.7109 173.916 9.75586 173.916 8.57812C173.916 7.54688 174.335 6.69727 175.173 6.0293C176.017 5.36133 177.109 5.02734 178.451 5.02734C179.342 5.02734 180.136 5.19141 180.833 5.51953C181.53 5.84766 182.078 6.31641 182.477 6.92578C182.875 7.5293 183.074 8.2002 183.074 8.93848H180.859C180.859 8.27051 180.649 7.74902 180.227 7.37402C179.811 6.99316 179.213 6.80273 178.434 6.80273C177.707 6.80273 177.142 6.95801 176.737 7.26855C176.339 7.5791 176.14 8.0127 176.14 8.56934C176.14 9.03809 176.357 9.43066 176.79 9.74707C177.224 10.0576 177.939 10.3623 178.935 10.6611C179.931 10.9541 180.731 11.291 181.334 11.6719C181.938 12.0469 182.38 12.4805 182.661 12.9727C182.942 13.459 183.083 14.0303 183.083 14.6865C183.083 15.7529 182.673 16.6025 181.853 17.2354C181.038 17.8623 179.931 18.1758 178.53 18.1758C177.605 18.1758 176.752 18.0059 175.973 17.666C175.199 17.3203 174.596 16.8457 174.162 16.2422C173.734 15.6387 173.521 14.9355 173.521 14.1328H175.744C175.744 14.8594 175.984 15.4219 176.465 15.8203C176.945 16.2188 177.634 16.418 178.53 16.418C179.304 16.418 179.884 16.2627 180.271 15.9521C180.663 15.6357 180.859 15.2197 180.859 14.7041ZM188.154 14.9414L190.088 8.49023H192.364L188.585 19.4414C188.005 21.041 187.021 21.8408 185.632 21.8408C185.321 21.8408 184.979 21.7881 184.604 21.6826V20.0303L185.008 20.0566C185.547 20.0566 185.951 19.957 186.221 19.7578C186.496 19.5645 186.713 19.2363 186.871 18.7734L187.179 17.9561L183.839 8.49023H186.142L188.154 14.9414ZM198.93 15.416C198.93 15.0352 198.772 14.7451 198.455 14.5459C198.145 14.3467 197.626 14.1709 196.899 14.0186C196.173 13.8662 195.566 13.6729 195.08 13.4385C194.014 12.9229 193.481 12.1758 193.481 11.1973C193.481 10.377 193.826 9.69141 194.518 9.14062C195.209 8.58984 196.088 8.31445 197.154 8.31445C198.291 8.31445 199.208 8.5957 199.905 9.1582C200.608 9.7207 200.96 10.4502 200.96 11.3467H198.824C198.824 10.9365 198.672 10.5967 198.367 10.3271C198.063 10.0518 197.658 9.91406 197.154 9.91406C196.686 9.91406 196.302 10.0225 196.003 10.2393C195.71 10.4561 195.564 10.7461 195.564 11.1094C195.564 11.4375 195.701 11.6924 195.977 11.874C196.252 12.0557 196.809 12.2402 197.647 12.4277C198.484 12.6094 199.141 12.8291 199.615 13.0869C200.096 13.3389 200.45 13.6436 200.679 14.001C200.913 14.3584 201.03 14.792 201.03 15.3018C201.03 16.1572 200.676 16.8516 199.967 17.3848C199.258 17.9121 198.329 18.1758 197.181 18.1758C196.401 18.1758 195.707 18.0352 195.098 17.7539C194.488 17.4727 194.014 17.0859 193.674 16.5938C193.334 16.1016 193.164 15.5713 193.164 15.0029H195.238C195.268 15.5068 195.458 15.8965 195.81 16.1719C196.161 16.4414 196.627 16.5762 197.207 16.5762C197.77 16.5762 198.197 16.4707 198.49 16.2598C198.783 16.043 198.93 15.7617 198.93 15.416ZM205.574 6.17871V8.49023H207.253V10.0723H205.574V15.3809C205.574 15.7441 205.645 16.0078 205.785 16.1719C205.932 16.3301 206.19 16.4092 206.559 16.4092C206.805 16.4092 207.054 16.3799 207.306 16.3213V17.9736C206.819 18.1084 206.351 18.1758 205.899 18.1758C204.259 18.1758 203.439 17.2705 203.439 15.46V10.0723H201.874V8.49023H203.439V6.17871H205.574ZM213.08 18.1758C211.727 18.1758 210.628 17.751 209.784 16.9014C208.946 16.0459 208.527 14.9092 208.527 13.4912V13.2275C208.527 12.2783 208.709 11.4316 209.072 10.6875C209.441 9.9375 209.957 9.35449 210.619 8.93848C211.281 8.52246 212.02 8.31445 212.834 8.31445C214.129 8.31445 215.128 8.72754 215.831 9.55371C216.54 10.3799 216.895 11.5488 216.895 13.0605V13.9219H210.681C210.745 14.707 211.006 15.3281 211.463 15.7852C211.926 16.2422 212.506 16.4707 213.203 16.4707C214.182 16.4707 214.979 16.0752 215.594 15.2842L216.745 16.3828C216.364 16.9512 215.855 17.3936 215.216 17.71C214.583 18.0205 213.871 18.1758 213.08 18.1758ZM212.825 10.0283C212.239 10.0283 211.765 10.2334 211.401 10.6436C211.044 11.0537 210.815 11.625 210.716 12.3574H214.785V12.1992C214.738 11.4844 214.548 10.9453 214.214 10.582C213.88 10.2129 213.417 10.0283 212.825 10.0283ZM220.568 8.49023L220.63 9.4834C221.298 8.7041 222.212 8.31445 223.372 8.31445C224.644 8.31445 225.514 8.80078 225.982 9.77344C226.674 8.80078 227.647 8.31445 228.9 8.31445C229.949 8.31445 230.729 8.60449 231.238 9.18457C231.754 9.76465 232.018 10.6201 232.029 11.751V18H229.894V11.8125C229.894 11.209 229.762 10.7666 229.498 10.4854C229.234 10.2041 228.798 10.0635 228.189 10.0635C227.702 10.0635 227.304 10.1953 226.993 10.459C226.689 10.7168 226.475 11.0566 226.352 11.4785L226.36 18H224.225V11.7422C224.195 10.623 223.624 10.0635 222.511 10.0635C221.655 10.0635 221.049 10.4121 220.691 11.1094V18H218.556V8.49023H220.568ZM248.72 16.3389C248.257 16.9424 247.615 17.3994 246.795 17.71C245.975 18.0205 245.043 18.1758 244 18.1758C242.928 18.1758 241.979 17.9326 241.152 17.4463C240.326 16.96 239.688 16.2656 239.236 15.3633C238.791 14.4551 238.56 13.3975 238.542 12.1904V11.1885C238.542 9.25488 239.005 7.74609 239.931 6.66211C240.857 5.57227 242.149 5.02734 243.807 5.02734C245.231 5.02734 246.361 5.37891 247.199 6.08203C248.037 6.78516 248.541 7.79883 248.711 9.12305H246.531C246.285 7.58203 245.392 6.81152 243.851 6.81152C242.855 6.81152 242.096 7.17188 241.574 7.89258C241.059 8.60742 240.792 9.65918 240.774 11.0479V12.0322C240.774 13.415 241.065 14.4902 241.645 15.2578C242.231 16.0195 243.042 16.4004 244.079 16.4004C245.216 16.4004 246.024 16.1426 246.505 15.627V13.1221H243.868V11.4346H248.72V16.3389ZM255.145 18.1758C253.791 18.1758 252.692 17.751 251.849 16.9014C251.011 16.0459 250.592 14.9092 250.592 13.4912V13.2275C250.592 12.2783 250.774 11.4316 251.137 10.6875C251.506 9.9375 252.022 9.35449 252.684 8.93848C253.346 8.52246 254.084 8.31445 254.899 8.31445C256.193 8.31445 257.192 8.72754 257.896 9.55371C258.605 10.3799 258.959 11.5488 258.959 13.0605V13.9219H252.745C252.81 14.707 253.07 15.3281 253.527 15.7852C253.99 16.2422 254.57 16.4707 255.268 16.4707C256.246 16.4707 257.043 16.0752 257.658 15.2842L258.81 16.3828C258.429 16.9512 257.919 17.3936 257.28 17.71C256.648 18.0205 255.936 18.1758 255.145 18.1758ZM254.89 10.0283C254.304 10.0283 253.829 10.2334 253.466 10.6436C253.108 11.0537 252.88 11.625 252.78 12.3574H256.85V12.1992C256.803 11.4844 256.612 10.9453 256.278 10.582C255.944 10.2129 255.482 10.0283 254.89 10.0283ZM262.607 8.49023L262.668 9.58887C263.371 8.73926 264.294 8.31445 265.437 8.31445C267.417 8.31445 268.425 9.44824 268.46 11.7158V18H266.324V11.8389C266.324 11.2354 266.192 10.79 265.929 10.5029C265.671 10.21 265.246 10.0635 264.654 10.0635C263.793 10.0635 263.151 10.4531 262.73 11.2324V18H260.594V8.49023H262.607ZM274.832 18.1758C273.479 18.1758 272.38 17.751 271.536 16.9014C270.698 16.0459 270.279 14.9092 270.279 13.4912V13.2275C270.279 12.2783 270.461 11.4316 270.824 10.6875C271.193 9.9375 271.709 9.35449 272.371 8.93848C273.033 8.52246 273.772 8.31445 274.586 8.31445C275.881 8.31445 276.88 8.72754 277.583 9.55371C278.292 10.3799 278.647 11.5488 278.647 13.0605V13.9219H272.433C272.497 14.707 272.758 15.3281 273.215 15.7852C273.678 16.2422 274.258 16.4707 274.955 16.4707C275.934 16.4707 276.731 16.0752 277.346 15.2842L278.497 16.3828C278.116 16.9512 277.607 17.3936 276.968 17.71C276.335 18.0205 275.623 18.1758 274.832 18.1758ZM274.577 10.0283C273.991 10.0283 273.517 10.2334 273.153 10.6436C272.796 11.0537 272.567 11.625 272.468 12.3574H276.537V12.1992C276.49 11.4844 276.3 10.9453 275.966 10.582C275.632 10.2129 275.169 10.0283 274.577 10.0283ZM285.291 10.4414C285.01 10.3945 284.72 10.3711 284.421 10.3711C283.442 10.3711 282.783 10.7461 282.443 11.4961V18H280.308V8.49023H282.347L282.399 9.55371C282.915 8.72754 283.63 8.31445 284.544 8.31445C284.849 8.31445 285.101 8.35547 285.3 8.4375L285.291 10.4414ZM292.059 18C291.965 17.8184 291.883 17.5225 291.813 17.1123C291.133 17.8213 290.301 18.1758 289.316 18.1758C288.361 18.1758 287.582 17.9033 286.979 17.3584C286.375 16.8135 286.073 16.1396 286.073 15.3369C286.073 14.3232 286.448 13.5469 287.198 13.0078C287.954 12.4629 289.032 12.1904 290.433 12.1904H291.742V11.5664C291.742 11.0742 291.605 10.6816 291.329 10.3887C291.054 10.0898 290.635 9.94043 290.072 9.94043C289.586 9.94043 289.188 10.0635 288.877 10.3096C288.566 10.5498 288.411 10.8574 288.411 11.2324H286.275C286.275 10.7109 286.448 10.2246 286.794 9.77344C287.14 9.31641 287.608 8.95898 288.2 8.70117C288.798 8.44336 289.463 8.31445 290.195 8.31445C291.309 8.31445 292.196 8.5957 292.858 9.1582C293.521 9.71484 293.86 10.5 293.878 11.5137V15.8027C293.878 16.6582 293.998 17.3408 294.238 17.8506V18H292.059ZM289.712 16.4619C290.134 16.4619 290.529 16.3594 290.899 16.1543C291.274 15.9492 291.555 15.6738 291.742 15.3281V13.5352H290.591C289.8 13.5352 289.205 13.6729 288.807 13.9482C288.408 14.2236 288.209 14.6133 288.209 15.1172C288.209 15.5273 288.344 15.8555 288.613 16.1016C288.889 16.3418 289.255 16.4619 289.712 16.4619ZM298.791 6.17871V8.49023H300.47V10.0723H298.791V15.3809C298.791 15.7441 298.861 16.0078 299.002 16.1719C299.148 16.3301 299.406 16.4092 299.775 16.4092C300.022 16.4092 300.271 16.3799 300.523 16.3213V17.9736C300.036 18.1084 299.567 18.1758 299.116 18.1758C297.476 18.1758 296.655 17.2705 296.655 15.46V10.0723H295.091V8.49023H296.655V6.17871H298.791ZM306.297 18.1758C304.943 18.1758 303.845 17.751 303.001 16.9014C302.163 16.0459 301.744 14.9092 301.744 13.4912V13.2275C301.744 12.2783 301.926 11.4316 302.289 10.6875C302.658 9.9375 303.174 9.35449 303.836 8.93848C304.498 8.52246 305.236 8.31445 306.051 8.31445C307.346 8.31445 308.345 8.72754 309.048 9.55371C309.757 10.3799 310.111 11.5488 310.111 13.0605V13.9219H303.898C303.962 14.707 304.223 15.3281 304.68 15.7852C305.143 16.2422 305.723 16.4707 306.42 16.4707C307.398 16.4707 308.195 16.0752 308.811 15.2842L309.962 16.3828C309.581 16.9512 309.071 17.3936 308.433 17.71C307.8 18.0205 307.088 18.1758 306.297 18.1758ZM306.042 10.0283C305.456 10.0283 304.982 10.2334 304.618 10.6436C304.261 11.0537 304.032 11.625 303.933 12.3574H308.002V12.1992C307.955 11.4844 307.765 10.9453 307.431 10.582C307.097 10.2129 306.634 10.0283 306.042 10.0283ZM311.377 13.1748C311.377 11.71 311.717 10.5352 312.397 9.65039C313.076 8.75977 313.987 8.31445 315.13 8.31445C316.138 8.31445 316.952 8.66602 317.573 9.36914V4.5H319.709V18H317.775L317.67 17.0156C317.031 17.7891 316.179 18.1758 315.112 18.1758C313.999 18.1758 313.097 17.7275 312.405 16.8311C311.72 15.9346 311.377 14.7158 311.377 13.1748ZM313.513 13.3594C313.513 14.3262 313.697 15.082 314.066 15.627C314.441 16.166 314.972 16.4355 315.657 16.4355C316.53 16.4355 317.169 16.0459 317.573 15.2666V11.2061C317.181 10.4443 316.548 10.0635 315.675 10.0635C314.983 10.0635 314.45 10.3389 314.075 10.8896C313.7 11.4346 313.513 12.2578 313.513 13.3594ZM328.973 18H326.758V5.20312H328.973V18ZM331.1 13.1748C331.1 11.71 331.44 10.5352 332.119 9.65039C332.799 8.75977 333.71 8.31445 334.853 8.31445C335.86 8.31445 336.675 8.66602 337.296 9.36914V4.5H339.432V18H337.498L337.393 17.0156C336.754 17.7891 335.901 18.1758 334.835 18.1758C333.722 18.1758 332.819 17.7275 332.128 16.8311C331.442 15.9346 331.1 14.7158 331.1 13.1748ZM333.235 13.3594C333.235 14.3262 333.42 15.082 333.789 15.627C334.164 16.166 334.694 16.4355 335.38 16.4355C336.253 16.4355 336.892 16.0459 337.296 15.2666V11.2061C336.903 10.4443 336.271 10.0635 335.398 10.0635C334.706 10.0635 334.173 10.3389 333.798 10.8896C333.423 11.4346 333.235 12.2578 333.235 13.3594ZM345.848 18.1758C344.494 18.1758 343.396 17.751 342.552 16.9014C341.714 16.0459 341.295 14.9092 341.295 13.4912V13.2275C341.295 12.2783 341.477 11.4316 341.84 10.6875C342.209 9.9375 342.725 9.35449 343.387 8.93848C344.049 8.52246 344.787 8.31445 345.602 8.31445C346.897 8.31445 347.896 8.72754 348.599 9.55371C349.308 10.3799 349.662 11.5488 349.662 13.0605V13.9219H343.448C343.513 14.707 343.773 15.3281 344.231 15.7852C344.693 16.2422 345.273 16.4707 345.971 16.4707C346.949 16.4707 347.746 16.0752 348.361 15.2842L349.513 16.3828C349.132 16.9512 348.622 17.3936 347.983 17.71C347.351 18.0205 346.639 18.1758 345.848 18.1758ZM345.593 10.0283C345.007 10.0283 344.532 10.2334 344.169 10.6436C343.812 11.0537 343.583 11.625 343.483 12.3574H347.553V12.1992C347.506 11.4844 347.315 10.9453 346.982 10.582C346.648 10.2129 346.185 10.0283 345.593 10.0283ZM353.31 8.49023L353.371 9.58887C354.074 8.73926 354.997 8.31445 356.14 8.31445C358.12 8.31445 359.128 9.44824 359.163 11.7158V18H357.027V11.8389C357.027 11.2354 356.896 10.79 356.632 10.5029C356.374 10.21 355.949 10.0635 355.357 10.0635C354.496 10.0635 353.855 10.4531 353.433 11.2324V18H351.297V8.49023H353.31ZM364.023 6.17871V8.49023H365.702V10.0723H364.023V15.3809C364.023 15.7441 364.094 16.0078 364.234 16.1719C364.381 16.3301 364.639 16.4092 365.008 16.4092C365.254 16.4092 365.503 16.3799 365.755 16.3213V17.9736C365.269 18.1084 364.8 18.1758 364.349 18.1758C362.708 18.1758 361.888 17.2705 361.888 15.46V10.0723H360.323V8.49023H361.888V6.17871H364.023ZM369.613 18H367.478V8.49023H369.613V18ZM367.346 6.02051C367.346 5.69238 367.448 5.41992 367.653 5.20312C367.864 4.98633 368.163 4.87793 368.55 4.87793C368.937 4.87793 369.235 4.98633 369.446 5.20312C369.657 5.41992 369.763 5.69238 369.763 6.02051C369.763 6.34277 369.657 6.6123 369.446 6.8291C369.235 7.04004 368.937 7.14551 368.55 7.14551C368.163 7.14551 367.864 7.04004 367.653 6.8291C367.448 6.6123 367.346 6.34277 367.346 6.02051ZM372.514 18V10.0723H371.064V8.49023H372.514V7.83984C372.52 7.0957 372.678 6.45703 372.988 5.92383C373.299 5.39062 373.738 4.98926 374.307 4.71973C374.875 4.4502 375.558 4.31543 376.355 4.31543C376.823 4.31543 377.272 4.36523 377.699 4.46484C378.133 4.56445 378.581 4.69043 379.044 4.84277L378.719 6.60938C377.91 6.32812 377.172 6.1875 376.504 6.1875C375.854 6.1875 375.382 6.33105 375.089 6.61816C374.796 6.89941 374.649 7.32422 374.649 7.89258V8.49023H376.522V10.0723H374.649V18H372.514ZM380.055 18H377.919V8.49023H380.055V18ZM386.611 18.1758C385.258 18.1758 384.159 17.751 383.315 16.9014C382.478 16.0459 382.059 14.9092 382.059 13.4912V13.2275C382.059 12.2783 382.24 11.4316 382.604 10.6875C382.973 9.9375 383.488 9.35449 384.15 8.93848C384.813 8.52246 385.551 8.31445 386.365 8.31445C387.66 8.31445 388.659 8.72754 389.362 9.55371C390.071 10.3799 390.426 11.5488 390.426 13.0605V13.9219H384.212C384.276 14.707 384.537 15.3281 384.994 15.7852C385.457 16.2422 386.037 16.4707 386.734 16.4707C387.713 16.4707 388.51 16.0752 389.125 15.2842L390.276 16.3828C389.896 16.9512 389.386 17.3936 388.747 17.71C388.114 18.0205 387.402 18.1758 386.611 18.1758ZM386.357 10.0283C385.771 10.0283 385.296 10.2334 384.933 10.6436C384.575 11.0537 384.347 11.625 384.247 12.3574H388.316V12.1992C388.27 11.4844 388.079 10.9453 387.745 10.582C387.411 10.2129 386.948 10.0283 386.357 10.0283ZM397.07 10.4414C396.789 10.3945 396.499 10.3711 396.2 10.3711C395.222 10.3711 394.563 10.7461 394.223 11.4961V18H392.087V8.49023H394.126L394.179 9.55371C394.694 8.72754 395.409 8.31445 396.323 8.31445C396.628 8.31445 396.88 8.35547 397.079 8.4375L397.07 10.4414Z" fill="black"/>
<path d="M24.5275 14.6968C24.3986 16.062 23.8947 17.1284 23.0158 17.896C22.1369 18.6577 20.9679 19.0386 19.509 19.0386C18.4894 19.0386 17.59 18.7983 16.8107 18.3179C16.0373 17.8315 15.4396 17.1431 15.0177 16.2524C14.5959 15.3618 14.3761 14.3276 14.3586 13.1499V11.9546C14.3586 10.7476 14.5724 9.68408 15.0002 8.76416C15.4279 7.84424 16.0402 7.13525 16.8371 6.63721C17.6398 6.13916 18.5656 5.89014 19.6144 5.89014C21.0265 5.89014 22.1632 6.27393 23.0246 7.0415C23.8859 7.80908 24.3869 8.89307 24.5275 10.2935H22.3127C22.2072 9.37354 21.9377 8.71143 21.5041 8.30713C21.0763 7.89697 20.4465 7.69189 19.6144 7.69189C18.6476 7.69189 17.9035 8.04639 17.382 8.75537C16.8664 9.4585 16.6027 10.4927 16.591 11.8579V12.9917C16.591 14.3745 16.8371 15.4292 17.3293 16.1558C17.8273 16.8823 18.5539 17.2456 19.509 17.2456C20.382 17.2456 21.0382 17.0493 21.4777 16.6567C21.9172 16.2642 22.1955 15.6108 22.3127 14.6968H24.5275ZM28.5881 18.8628H26.4523V5.36279H28.5881V18.8628ZM36.6037 18.8628C36.5099 18.6812 36.4279 18.3853 36.3576 17.9751C35.6779 18.6841 34.8459 19.0386 33.8615 19.0386C32.9064 19.0386 32.1271 18.7661 31.5236 18.2212C30.9201 17.6763 30.6183 17.0024 30.6183 16.1997C30.6183 15.186 30.9933 14.4097 31.7433 13.8706C32.4992 13.3257 33.5773 13.0532 34.9777 13.0532H36.2873V12.4292C36.2873 11.937 36.1496 11.5444 35.8742 11.2515C35.5988 10.9526 35.1799 10.8032 34.6174 10.8032C34.131 10.8032 33.7326 10.9263 33.422 11.1724C33.1115 11.4126 32.9562 11.7202 32.9562 12.0952H30.8205C30.8205 11.5737 30.9933 11.0874 31.339 10.6362C31.6847 10.1792 32.1535 9.82178 32.7453 9.56396C33.3429 9.30615 34.008 9.17725 34.7404 9.17725C35.8537 9.17725 36.7414 9.4585 37.4035 10.021C38.0656 10.5776 38.4054 11.3628 38.423 12.3765V16.6655C38.423 17.521 38.5431 18.2036 38.7834 18.7134V18.8628H36.6037ZM34.257 17.3247C34.6789 17.3247 35.0744 17.2222 35.4435 17.0171C35.8185 16.812 36.0998 16.5366 36.2873 16.1909V14.3979H35.1359C34.3449 14.3979 33.7502 14.5356 33.3517 14.811C32.9533 15.0864 32.7541 15.4761 32.7541 15.98C32.7541 16.3901 32.8888 16.7183 33.1584 16.9644C33.4338 17.2046 33.8 17.3247 34.257 17.3247ZM45.9904 16.2788C45.9904 15.8979 45.8322 15.6079 45.5158 15.4087C45.2052 15.2095 44.6867 15.0337 43.9601 14.8813C43.2336 14.729 42.6271 14.5356 42.1408 14.3013C41.0744 13.7856 40.5412 13.0386 40.5412 12.0601C40.5412 11.2397 40.8869 10.5542 41.5783 10.0034C42.2697 9.45264 43.1486 9.17725 44.215 9.17725C45.3517 9.17725 46.2687 9.4585 46.966 10.021C47.6691 10.5835 48.0207 11.313 48.0207 12.2095H45.8849C45.8849 11.7993 45.7326 11.4595 45.4279 11.1899C45.1232 10.9146 44.7189 10.7769 44.215 10.7769C43.7463 10.7769 43.3625 10.8853 43.0636 11.1021C42.7707 11.3188 42.6242 11.6089 42.6242 11.9722C42.6242 12.3003 42.7619 12.5552 43.0373 12.7368C43.3127 12.9185 43.8693 13.103 44.7072 13.2905C45.5451 13.4722 46.2013 13.6919 46.6759 13.9497C47.1564 14.2017 47.5109 14.5063 47.7394 14.8638C47.9738 15.2212 48.091 15.6548 48.091 16.1646C48.091 17.02 47.7365 17.7144 47.0275 18.2476C46.3185 18.7749 45.3898 19.0386 44.2414 19.0386C43.4621 19.0386 42.7677 18.8979 42.1584 18.6167C41.549 18.3354 41.0744 17.9487 40.7345 17.4565C40.3947 16.9644 40.2248 16.4341 40.2248 15.8657H42.299C42.3283 16.3696 42.5187 16.7593 42.8703 17.0347C43.2218 17.3042 43.6877 17.439 44.2677 17.439C44.8302 17.439 45.258 17.3335 45.5509 17.1226C45.8439 16.9058 45.9904 16.6245 45.9904 16.2788ZM55.2892 16.2788C55.2892 15.8979 55.131 15.6079 54.8146 15.4087C54.5041 15.2095 53.9855 15.0337 53.259 14.8813C52.5324 14.729 51.9259 14.5356 51.4396 14.3013C50.3732 13.7856 49.84 13.0386 49.84 12.0601C49.84 11.2397 50.1857 10.5542 50.8771 10.0034C51.5685 9.45264 52.4474 9.17725 53.5138 9.17725C54.6506 9.17725 55.5675 9.4585 56.2648 10.021C56.9679 10.5835 57.3195 11.313 57.3195 12.2095H55.1838C55.1838 11.7993 55.0314 11.4595 54.7267 11.1899C54.422 10.9146 54.0177 10.7769 53.5138 10.7769C53.0451 10.7769 52.6613 10.8853 52.3625 11.1021C52.0695 11.3188 51.923 11.6089 51.923 11.9722C51.923 12.3003 52.0607 12.5552 52.3361 12.7368C52.6115 12.9185 53.1681 13.103 54.006 13.2905C54.8439 13.4722 55.5002 13.6919 55.9748 13.9497C56.4552 14.2017 56.8097 14.5063 57.0382 14.8638C57.2726 15.2212 57.3898 15.6548 57.3898 16.1646C57.3898 17.02 57.0353 17.7144 56.3263 18.2476C55.6174 18.7749 54.6886 19.0386 53.5402 19.0386C52.7609 19.0386 52.0666 18.8979 51.4572 18.6167C50.8478 18.3354 50.3732 17.9487 50.0334 17.4565C49.6935 16.9644 49.5236 16.4341 49.5236 15.8657H51.5978C51.6271 16.3696 51.8175 16.7593 52.1691 17.0347C52.5207 17.3042 52.9865 17.439 53.5666 17.439C54.1291 17.439 54.5568 17.3335 54.8498 17.1226C55.1427 16.9058 55.2892 16.6245 55.2892 16.2788ZM66.1701 14.1079V18.8628H63.9465V6.06592H68.842C70.2716 6.06592 71.4054 6.43799 72.2433 7.18213C73.0871 7.92627 73.509 8.91064 73.509 10.1353C73.509 11.3892 73.0959 12.3647 72.2697 13.062C71.4494 13.7593 70.298 14.1079 68.8156 14.1079H66.1701ZM66.1701 12.3237H68.842C69.633 12.3237 70.2365 12.1392 70.6525 11.77C71.0685 11.395 71.2765 10.856 71.2765 10.1528C71.2765 9.46143 71.0656 8.91064 70.6437 8.50049C70.2218 8.08447 69.6418 7.87061 68.9035 7.85889H66.1701V12.3237ZM80.2326 11.3042C79.9513 11.2573 79.6613 11.2339 79.3625 11.2339C78.384 11.2339 77.7248 11.6089 77.3849 12.3589V18.8628H75.2492V9.35303H77.2883L77.341 10.4165C77.8566 9.59033 78.5715 9.17725 79.4855 9.17725C79.7902 9.17725 80.0422 9.21826 80.2414 9.30029L80.2326 11.3042ZM85.5939 19.0386C84.2404 19.0386 83.1418 18.6138 82.298 17.7642C81.4601 16.9087 81.0412 15.772 81.0412 14.354V14.0903C81.0412 13.1411 81.2228 12.2944 81.5861 11.5503C81.9552 10.8003 82.4709 10.2173 83.133 9.80127C83.7951 9.38525 84.5334 9.17725 85.3478 9.17725C86.6427 9.17725 87.6418 9.59033 88.3449 10.4165C89.0539 11.2427 89.4084 12.4116 89.4084 13.9233V14.7847H83.1945C83.259 15.5698 83.5197 16.1909 83.9767 16.6479C84.4396 17.105 85.0197 17.3335 85.717 17.3335C86.6955 17.3335 87.4924 16.938 88.1076 16.147L89.259 17.2456C88.8781 17.814 88.3683 18.2563 87.7297 18.5728C87.0968 18.8833 86.3849 19.0386 85.5939 19.0386ZM85.339 10.8911C84.7531 10.8911 84.2785 11.0962 83.9152 11.5063C83.5578 11.9165 83.3293 12.4878 83.2297 13.2202H87.299V13.062C87.2521 12.3472 87.0617 11.8081 86.7277 11.4448C86.3937 11.0757 85.9308 10.8911 85.339 10.8911ZM91.6408 18.8628V10.9351H90.1906V9.35303H91.6408V8.70264C91.6467 7.9585 91.8049 7.31982 92.1154 6.78662C92.4259 6.25342 92.8654 5.85205 93.4338 5.58252C94.0021 5.31299 94.6847 5.17822 95.4816 5.17822C95.9504 5.17822 96.3986 5.22803 96.8263 5.32764C97.2599 5.42725 97.7082 5.55322 98.1711 5.70557L97.8459 7.47217C97.0373 7.19092 96.299 7.05029 95.631 7.05029C94.9806 7.05029 94.509 7.19385 94.216 7.48096C93.923 7.76221 93.7765 8.18701 93.7765 8.75537V9.35303H95.6486V10.9351H93.7765V18.8628H91.6408ZM99.1818 18.8628H97.0461V9.35303H99.1818V18.8628ZM104.965 12.4819L106.776 9.35303H109.149L106.239 14.0376L109.245 18.8628H106.89L104.991 15.6108L103.102 18.8628H100.729L103.735 14.0376L100.834 9.35303H103.19L104.965 12.4819Z" fill="black"/>
</svg>
