<svg width="1440" height="632" viewBox="0 0 1440 632" fill="none" xmlns="http://www.w3.org/2000/svg">
<path d="M3.95791e-10 95.85C-0.000335919 81.568 213.827 158.663 463.158 95.85C712.488 33.0365 981.273 253.868 1079.57 114.987C1177.87 -23.8939 1440 -17.0083 1440 31.8771C1440 80.7625 1440 384 1440 384L3.9654e-10 361.005C3.9654e-10 361.005 0.000335919 110.132 3.95791e-10 95.85Z" fill="#FFC09C"/>
<path d="M-1.59422 313.919C16.7035 307.35 88.4546 351.239 283.545 320.488C478.636 289.738 478.81 290.507 692.43 351.239C906.049 411.97 1441.89 251.212 1441.89 297.496C1441.89 343.78 1572.28 705.706 1441.89 617.603C1311.5 529.5 1048.71 638.31 605.855 574.655C163 511 -1.59432 603 -1.59432 603C-1.59432 603 -19.8919 320.488 -1.59422 313.919Z" fill="#CEE5F5"/>
</svg>
