<svg width="24" height="24" viewBox="0 0 24 24" fill="none" xmlns="http://www.w3.org/2000/svg">
<mask id="path-1-inside-1" fill="white">
<path fill-rule="evenodd" clip-rule="evenodd" d="M2.39961 4.79999C2.18744 4.79999 1.98395 4.88427 1.83392 5.0343C1.68389 5.18433 1.59961 5.38781 1.59961 5.59999C1.59961 5.81216 1.68389 6.01564 1.83392 6.16567C1.98395 6.3157 2.18744 6.39999 2.39961 6.39999H21.5996C21.8118 6.39999 22.0153 6.3157 22.1653 6.16567C22.3153 6.01564 22.3996 5.81216 22.3996 5.59999C22.3996 5.38781 22.3153 5.18433 22.1653 5.0343C22.0153 4.88427 21.8118 4.79999 21.5996 4.79999H2.39961ZM1.59961 12C1.59961 11.7878 1.68389 11.5843 1.83392 11.4343C1.98395 11.2843 2.18744 11.2 2.39961 11.2H21.5996C21.8118 11.2 22.0153 11.2843 22.1653 11.4343C22.3153 11.5843 22.3996 11.7878 22.3996 12C22.3996 12.2122 22.3153 12.4156 22.1653 12.5657C22.0153 12.7157 21.8118 12.8 21.5996 12.8H2.39961C2.18744 12.8 1.98395 12.7157 1.83392 12.5657C1.68389 12.4156 1.59961 12.2122 1.59961 12V12ZM1.59961 18.4C1.59961 18.1878 1.68389 17.9843 1.83392 17.8343C1.98395 17.6843 2.18744 17.6 2.39961 17.6H21.5996C21.8118 17.6 22.0153 17.6843 22.1653 17.8343C22.3153 17.9843 22.3996 18.1878 22.3996 18.4C22.3996 18.6122 22.3153 18.8156 22.1653 18.9657C22.0153 19.1157 21.8118 19.2 21.5996 19.2H2.39961C2.18744 19.2 1.98395 19.1157 1.83392 18.9657C1.68389 18.8156 1.59961 18.6122 1.59961 18.4V18.4Z"/>
</mask>
<path fill-rule="evenodd" clip-rule="evenodd" d="M2.39961 4.79999C2.18744 4.79999 1.98395 4.88427 1.83392 5.0343C1.68389 5.18433 1.59961 5.38781 1.59961 5.59999C1.59961 5.81216 1.68389 6.01564 1.83392 6.16567C1.98395 6.3157 2.18744 6.39999 2.39961 6.39999H21.5996C21.8118 6.39999 22.0153 6.3157 22.1653 6.16567C22.3153 6.01564 22.3996 5.81216 22.3996 5.59999C22.3996 5.38781 22.3153 5.18433 22.1653 5.0343C22.0153 4.88427 21.8118 4.79999 21.5996 4.79999H2.39961ZM1.59961 12C1.59961 11.7878 1.68389 11.5843 1.83392 11.4343C1.98395 11.2843 2.18744 11.2 2.39961 11.2H21.5996C21.8118 11.2 22.0153 11.2843 22.1653 11.4343C22.3153 11.5843 22.3996 11.7878 22.3996 12C22.3996 12.2122 22.3153 12.4156 22.1653 12.5657C22.0153 12.7157 21.8118 12.8 21.5996 12.8H2.39961C2.18744 12.8 1.98395 12.7157 1.83392 12.5657C1.68389 12.4156 1.59961 12.2122 1.59961 12V12ZM1.59961 18.4C1.59961 18.1878 1.68389 17.9843 1.83392 17.8343C1.98395 17.6843 2.18744 17.6 2.39961 17.6H21.5996C21.8118 17.6 22.0153 17.6843 22.1653 17.8343C22.3153 17.9843 22.3996 18.1878 22.3996 18.4C22.3996 18.6122 22.3153 18.8156 22.1653 18.9657C22.0153 19.1157 21.8118 19.2 21.5996 19.2H2.39961C2.18744 19.2 1.98395 19.1157 1.83392 18.9657C1.68389 18.8156 1.59961 18.6122 1.59961 18.4V18.4Z" fill="#003049"/>
<path d="M1.59961 5.59999L-0.400391 5.59999L1.59961 5.59999ZM2.39961 2.79999C1.657 2.79999 0.944811 3.09499 0.41971 3.62009L3.24814 6.44852C3.02309 6.67356 2.71787 6.79999 2.39961 6.79999V2.79999ZM0.41971 3.62009C-0.105391 4.14519 -0.400391 4.85738 -0.400391 5.59999L3.59961 5.59999C3.59961 5.91825 3.47318 6.22347 3.24814 6.44852L0.41971 3.62009ZM-0.400391 5.59999C-0.400391 6.34259 -0.105391 7.05478 0.41971 7.57989L3.24814 4.75146C3.47318 4.9765 3.59961 5.28173 3.59961 5.59999L-0.400391 5.59999ZM0.41971 7.57989C0.944811 8.10499 1.657 8.39999 2.39961 8.39999V4.39999C2.71787 4.39999 3.02309 4.52642 3.24814 4.75146L0.41971 7.57989ZM2.39961 8.39999H21.5996V4.39999H2.39961V8.39999ZM21.5996 8.39999C22.3422 8.39999 23.0544 8.10499 23.5795 7.57989L20.7511 4.75146C20.9761 4.52642 21.2813 4.39999 21.5996 4.39999V8.39999ZM23.5795 7.57989C24.1046 7.05478 24.3996 6.34259 24.3996 5.59999H20.3996C20.3996 5.28173 20.526 4.97651 20.7511 4.75146L23.5795 7.57989ZM24.3996 5.59999C24.3996 4.85739 24.1046 4.14519 23.5795 3.62009L20.7511 6.44852C20.526 6.22347 20.3996 5.91824 20.3996 5.59999H24.3996ZM23.5795 3.62009C23.0544 3.09499 22.3422 2.79999 21.5996 2.79999V6.79999C21.2813 6.79999 20.9761 6.67356 20.7511 6.44852L23.5795 3.62009ZM21.5996 2.79999H2.39961V6.79999H21.5996V2.79999ZM3.59961 12C3.59961 12.3182 3.47318 12.6235 3.24814 12.8485L0.41971 10.0201C-0.105391 10.5452 -0.400391 11.2574 -0.400391 12H3.59961ZM3.24814 12.8485C3.02309 13.0736 2.71787 13.2 2.39961 13.2V9.19999C1.657 9.19999 0.944811 9.49499 0.41971 10.0201L3.24814 12.8485ZM2.39961 13.2H21.5996V9.19999H2.39961V13.2ZM21.5996 13.2C21.2813 13.2 20.9761 13.0736 20.7511 12.8485L23.5795 10.0201C23.0544 9.49499 22.3422 9.19999 21.5996 9.19999V13.2ZM20.7511 12.8485C20.526 12.6235 20.3996 12.3182 20.3996 12H24.3996C24.3996 11.2574 24.1046 10.5452 23.5795 10.0201L20.7511 12.8485ZM20.3996 12C20.3996 11.6817 20.526 11.3765 20.7511 11.1515L23.5795 13.9799C24.1046 13.4548 24.3996 12.7426 24.3996 12H20.3996ZM20.7511 11.1515C20.9761 10.9264 21.2813 10.8 21.5996 10.8V14.8C22.3422 14.8 23.0544 14.505 23.5795 13.9799L20.7511 11.1515ZM21.5996 10.8H2.39961V14.8H21.5996V10.8ZM2.39961 10.8C2.71787 10.8 3.02309 10.9264 3.24814 11.1515L0.41971 13.9799C0.944811 14.505 1.657 14.8 2.39961 14.8V10.8ZM3.24814 11.1515C3.47318 11.3765 3.59961 11.6817 3.59961 12L-0.400391 12C-0.400391 12.7426 -0.105391 13.4548 0.41971 13.9799L3.24814 11.1515ZM3.59961 18.4C3.59961 18.7182 3.47318 19.0235 3.24814 19.2485L0.41971 16.4201C-0.105393 16.9452 -0.400391 17.6574 -0.400391 18.4H3.59961ZM3.24814 19.2485C3.02309 19.4736 2.71787 19.6 2.39961 19.6V15.6C1.65701 15.6 0.944815 15.895 0.41971 16.4201L3.24814 19.2485ZM2.39961 19.6H21.5996V15.6H2.39961V19.6ZM21.5996 19.6C21.2814 19.6 20.9761 19.4736 20.7511 19.2485L23.5795 16.4201C23.0544 15.895 22.3422 15.6 21.5996 15.6V19.6ZM20.7511 19.2485C20.526 19.0235 20.3996 18.7182 20.3996 18.4H24.3996C24.3996 17.6574 24.1046 16.9452 23.5795 16.4201L20.7511 19.2485ZM20.3996 18.4C20.3996 18.0817 20.526 17.7765 20.7511 17.5515L23.5795 20.3799C24.1046 19.8548 24.3996 19.1426 24.3996 18.4H20.3996ZM20.7511 17.5515C20.9761 17.3264 21.2814 17.2 21.5996 17.2V21.2C22.3422 21.2 23.0544 20.905 23.5795 20.3799L20.7511 17.5515ZM21.5996 17.2H2.39961V21.2H21.5996V17.2ZM2.39961 17.2C2.71787 17.2 3.02309 17.3264 3.24814 17.5515L0.41971 20.3799C0.944815 20.905 1.65701 21.2 2.39961 21.2V17.2ZM3.24814 17.5515C3.47318 17.7765 3.59961 18.0817 3.59961 18.4L-0.400391 18.4C-0.400391 19.1426 -0.105393 19.8548 0.41971 20.3799L3.24814 17.5515Z" fill="#003049" mask="url(#path-1-inside-1)"/>
</svg>
