<svg width="397" height="257" viewBox="0 0 397 257" fill="none" xmlns="http://www.w3.org/2000/svg">
<rect x="0.5" y="0.5" width="395.443" height="34.7735" fill="#FFFA7A" stroke="black"/>
<path d="M19.9453 15.2109C19.8568 16.4349 19.4036 17.3984 18.5859 18.1016C17.7734 18.8047 16.7005 19.1562 15.3672 19.1562C13.9089 19.1562 12.7604 18.6667 11.9219 17.6875C11.0885 16.7031 10.6719 15.3542 10.6719 13.6406V12.9453C10.6719 11.8516 10.8646 10.888 11.25 10.0547C11.6354 9.22135 12.1849 8.58333 12.8984 8.14062C13.6172 7.69271 14.4505 7.46875 15.3984 7.46875C16.7109 7.46875 17.7682 7.82031 18.5703 8.52344C19.3724 9.22656 19.8359 10.2135 19.9609 11.4844H17.6172C17.5599 10.75 17.3542 10.2188 17 9.89062C16.651 9.55729 16.1172 9.39062 15.3984 9.39062C14.6172 9.39062 14.0312 9.67188 13.6406 10.2344C13.2552 10.7917 13.0573 11.6589 13.0469 12.8359V13.6953C13.0469 14.9245 13.2318 15.8229 13.6016 16.3906C13.9766 16.9583 14.5651 17.2422 15.3672 17.2422C16.0911 17.2422 16.6302 17.0781 16.9844 16.75C17.3438 16.4167 17.5495 15.9036 17.6016 15.2109H19.9453ZM26.3984 18.1406C25.8411 18.8177 25.0703 19.1562 24.0859 19.1562C23.1797 19.1562 22.487 18.8958 22.0078 18.375C21.5339 17.8542 21.2917 17.0911 21.2812 16.0859V10.5469H23.5391V16.0078C23.5391 16.888 23.9401 17.3281 24.7422 17.3281C25.5078 17.3281 26.0339 17.0625 26.3203 16.5312V10.5469H28.5859V19H26.4609L26.3984 18.1406ZM34.8672 16.6641C34.8672 16.388 34.7292 16.1719 34.4531 16.0156C34.1823 15.8542 33.7448 15.7109 33.1406 15.5859C31.1302 15.1641 30.125 14.3099 30.125 13.0234C30.125 12.2734 30.4349 11.6484 31.0547 11.1484C31.6797 10.6432 32.4948 10.3906 33.5 10.3906C34.5729 10.3906 35.4297 10.6432 36.0703 11.1484C36.7161 11.6536 37.0391 12.3099 37.0391 13.1172H34.7812C34.7812 12.7943 34.6771 12.5286 34.4688 12.3203C34.2604 12.1068 33.9349 12 33.4922 12C33.112 12 32.8177 12.0859 32.6094 12.2578C32.401 12.4297 32.2969 12.6484 32.2969 12.9141C32.2969 13.1641 32.4141 13.3672 32.6484 13.5234C32.888 13.6745 33.2891 13.8073 33.8516 13.9219C34.4141 14.0312 34.888 14.1562 35.2734 14.2969C36.4661 14.7344 37.0625 15.4922 37.0625 16.5703C37.0625 17.3411 36.7318 17.9661 36.0703 18.4453C35.4089 18.9193 34.5547 19.1562 33.5078 19.1562C32.7995 19.1562 32.1693 19.0312 31.6172 18.7812C31.0703 18.526 30.6406 18.1797 30.3281 17.7422C30.0156 17.2995 29.8594 16.8229 29.8594 16.3125H32C32.0208 16.7135 32.1693 17.0208 32.4453 17.2344C32.7214 17.4479 33.0911 17.5547 33.5547 17.5547C33.987 17.5547 34.3125 17.474 34.5312 17.3125C34.7552 17.1458 34.8672 16.9297 34.8672 16.6641ZM41.2266 8.46875V10.5469H42.6719V12.2031H41.2266V16.4219C41.2266 16.7344 41.2865 16.9583 41.4062 17.0938C41.526 17.2292 41.7552 17.2969 42.0938 17.2969C42.3438 17.2969 42.5651 17.2786 42.7578 17.2422V18.9531C42.3151 19.0885 41.8594 19.1562 41.3906 19.1562C39.8073 19.1562 39 18.3568 38.9688 16.7578V12.2031H37.7344V10.5469H38.9688V8.46875H41.2266ZM43.3438 14.6953C43.3438 13.8568 43.5052 13.1094 43.8281 12.4531C44.151 11.7969 44.6146 11.2891 45.2188 10.9297C45.8281 10.5703 46.5339 10.3906 47.3359 10.3906C48.4766 10.3906 49.4062 10.7396 50.125 11.4375C50.849 12.1354 51.2526 13.0833 51.3359 14.2812L51.3516 14.8594C51.3516 16.1562 50.9896 17.1979 50.2656 17.9844C49.5417 18.7656 48.5703 19.1562 47.3516 19.1562C46.1328 19.1562 45.1589 18.7656 44.4297 17.9844C43.7057 17.2031 43.3438 16.1406 43.3438 14.7969V14.6953ZM45.6016 14.8594C45.6016 15.6615 45.7526 16.276 46.0547 16.7031C46.3568 17.125 46.7891 17.3359 47.3516 17.3359C47.8984 17.3359 48.3255 17.1276 48.6328 16.7109C48.9401 16.2891 49.0938 15.6172 49.0938 14.6953C49.0938 13.9089 48.9401 13.2995 48.6328 12.8672C48.3255 12.4349 47.8932 12.2188 47.3359 12.2188C46.7839 12.2188 46.3568 12.4349 46.0547 12.8672C45.7526 13.2943 45.6016 13.9583 45.6016 14.8594ZM54.8594 10.5469L54.9297 11.4922C55.5286 10.7578 56.3385 10.3906 57.3594 10.3906C58.4479 10.3906 59.1953 10.8203 59.6016 11.6797C60.1953 10.8203 61.0417 10.3906 62.1406 10.3906C63.0573 10.3906 63.7396 10.6589 64.1875 11.1953C64.6354 11.7266 64.8594 12.5286 64.8594 13.6016V19H62.5938V13.6094C62.5938 13.1302 62.5 12.7812 62.3125 12.5625C62.125 12.3385 61.7943 12.2266 61.3203 12.2266C60.6432 12.2266 60.1745 12.5495 59.9141 13.1953L59.9219 19H57.6641V13.6172C57.6641 13.1276 57.5677 12.7734 57.375 12.5547C57.1823 12.3359 56.8542 12.2266 56.3906 12.2266C55.75 12.2266 55.2865 12.4922 55 13.0234V19H52.7422V10.5469H54.8594ZM70.4922 19.1562C69.2526 19.1562 68.2422 18.776 67.4609 18.0156C66.6849 17.2552 66.2969 16.2422 66.2969 14.9766V14.7578C66.2969 13.9089 66.4609 13.151 66.7891 12.4844C67.1172 11.8125 67.5807 11.2969 68.1797 10.9375C68.7839 10.5729 69.4714 10.3906 70.2422 10.3906C71.3984 10.3906 72.3073 10.7552 72.9688 11.4844C73.6354 12.2135 73.9688 13.2474 73.9688 14.5859V15.5078H68.5859C68.6589 16.0599 68.8776 16.5026 69.2422 16.8359C69.612 17.1693 70.0781 17.3359 70.6406 17.3359C71.5104 17.3359 72.1901 17.0208 72.6797 16.3906L73.7891 17.6328C73.4505 18.112 72.9922 18.487 72.4141 18.7578C71.8359 19.0234 71.1953 19.1562 70.4922 19.1562ZM70.2344 12.2188C69.7865 12.2188 69.4219 12.3698 69.1406 12.6719C68.8646 12.974 68.6875 13.4062 68.6094 13.9688H71.75V13.7891C71.7396 13.2891 71.6042 12.9036 71.3438 12.6328C71.0833 12.3568 70.7135 12.2188 70.2344 12.2188ZM80.0078 12.6641C79.7005 12.6224 79.4297 12.6016 79.1953 12.6016C78.3411 12.6016 77.7812 12.8906 77.5156 13.4688V19H75.2578V10.5469H77.3906L77.4531 11.5547C77.9062 10.7786 78.5339 10.3906 79.3359 10.3906C79.5859 10.3906 79.8203 10.4245 80.0391 10.4922L80.0078 12.6641ZM81.2109 17.8906C81.2109 17.5312 81.3307 17.2396 81.5703 17.0156C81.8151 16.7917 82.1198 16.6797 82.4844 16.6797C82.8542 16.6797 83.1589 16.7917 83.3984 17.0156C83.6432 17.2396 83.7656 17.5312 83.7656 17.8906C83.7656 18.2448 83.6458 18.5339 83.4062 18.7578C83.1667 18.9766 82.8594 19.0859 82.4844 19.0859C82.1146 19.0859 81.8099 18.9766 81.5703 18.7578C81.3307 18.5339 81.2109 18.2448 81.2109 17.8906ZM81.2109 11.4922C81.2109 11.1328 81.3307 10.8411 81.5703 10.6172C81.8151 10.3932 82.1198 10.2812 82.4844 10.2812C82.8542 10.2812 83.1589 10.3932 83.3984 10.6172C83.6432 10.8411 83.7656 11.1328 83.7656 11.4922C83.7656 11.8464 83.6458 12.1354 83.4062 12.3594C83.1667 12.5781 82.8594 12.6875 82.4844 12.6875C82.1146 12.6875 81.8099 12.5781 81.5703 12.3594C81.3307 12.1354 81.2109 11.8464 81.2109 11.4922ZM102.734 17.5625C102.312 18.0677 101.716 18.4609 100.945 18.7422C100.174 19.0182 99.3203 19.1562 98.3828 19.1562C97.3984 19.1562 96.5339 18.9427 95.7891 18.5156C95.0495 18.0833 94.4766 17.4583 94.0703 16.6406C93.6693 15.8229 93.4635 14.862 93.4531 13.7578V12.9844C93.4531 11.849 93.6432 10.8672 94.0234 10.0391C94.4089 9.20573 94.9609 8.57031 95.6797 8.13281C96.4036 7.6901 97.25 7.46875 98.2188 7.46875C99.5677 7.46875 100.622 7.79167 101.383 8.4375C102.143 9.07812 102.594 10.013 102.734 11.2422H100.453C100.349 10.5911 100.117 10.1146 99.7578 9.8125C99.4036 9.51042 98.9141 9.35938 98.2891 9.35938C97.4922 9.35938 96.8854 9.65885 96.4688 10.2578C96.0521 10.8568 95.8411 11.7474 95.8359 12.9297V13.6562C95.8359 14.849 96.0625 15.75 96.5156 16.3594C96.9688 16.9688 97.6328 17.2734 98.5078 17.2734C99.388 17.2734 100.016 17.0859 100.391 16.7109V14.75H98.2578V13.0234H102.734V17.5625ZM108.383 19.1562C107.143 19.1562 106.133 18.776 105.352 18.0156C104.576 17.2552 104.188 16.2422 104.188 14.9766V14.7578C104.188 13.9089 104.352 13.151 104.68 12.4844C105.008 11.8125 105.471 11.2969 106.07 10.9375C106.674 10.5729 107.362 10.3906 108.133 10.3906C109.289 10.3906 110.198 10.7552 110.859 11.4844C111.526 12.2135 111.859 13.2474 111.859 14.5859V15.5078H106.477C106.549 16.0599 106.768 16.5026 107.133 16.8359C107.503 17.1693 107.969 17.3359 108.531 17.3359C109.401 17.3359 110.081 17.0208 110.57 16.3906L111.68 17.6328C111.341 18.112 110.883 18.487 110.305 18.7578C109.727 19.0234 109.086 19.1562 108.383 19.1562ZM108.125 12.2188C107.677 12.2188 107.312 12.3698 107.031 12.6719C106.755 12.974 106.578 13.4062 106.5 13.9688H109.641V13.7891C109.63 13.2891 109.495 12.9036 109.234 12.6328C108.974 12.3568 108.604 12.2188 108.125 12.2188ZM115.227 10.5469L115.297 11.5234C115.901 10.7682 116.711 10.3906 117.727 10.3906C118.622 10.3906 119.289 10.6536 119.727 11.1797C120.164 11.7057 120.388 12.4922 120.398 13.5391V19H118.141V13.5938C118.141 13.1146 118.036 12.7682 117.828 12.5547C117.62 12.3359 117.273 12.2266 116.789 12.2266C116.154 12.2266 115.677 12.4974 115.359 13.0391V19H113.102V10.5469H115.227ZM126.008 19.1562C124.768 19.1562 123.758 18.776 122.977 18.0156C122.201 17.2552 121.812 16.2422 121.812 14.9766V14.7578C121.812 13.9089 121.977 13.151 122.305 12.4844C122.633 11.8125 123.096 11.2969 123.695 10.9375C124.299 10.5729 124.987 10.3906 125.758 10.3906C126.914 10.3906 127.823 10.7552 128.484 11.4844C129.151 12.2135 129.484 13.2474 129.484 14.5859V15.5078H124.102C124.174 16.0599 124.393 16.5026 124.758 16.8359C125.128 17.1693 125.594 17.3359 126.156 17.3359C127.026 17.3359 127.706 17.0208 128.195 16.3906L129.305 17.6328C128.966 18.112 128.508 18.487 127.93 18.7578C127.352 19.0234 126.711 19.1562 126.008 19.1562ZM125.75 12.2188C125.302 12.2188 124.938 12.3698 124.656 12.6719C124.38 12.974 124.203 13.4062 124.125 13.9688H127.266V13.7891C127.255 13.2891 127.12 12.9036 126.859 12.6328C126.599 12.3568 126.229 12.2188 125.75 12.2188ZM135.523 12.6641C135.216 12.6224 134.945 12.6016 134.711 12.6016C133.857 12.6016 133.297 12.8906 133.031 13.4688V19H130.773V10.5469H132.906L132.969 11.5547C133.422 10.7786 134.049 10.3906 134.852 10.3906C135.102 10.3906 135.336 10.4245 135.555 10.4922L135.523 12.6641ZM141.281 19C141.177 18.7969 141.102 18.5443 141.055 18.2422C140.508 18.8516 139.797 19.1562 138.922 19.1562C138.094 19.1562 137.406 18.9167 136.859 18.4375C136.318 17.9583 136.047 17.3542 136.047 16.625C136.047 15.7292 136.378 15.0417 137.039 14.5625C137.706 14.0833 138.667 13.8411 139.922 13.8359H140.961V13.3516C140.961 12.9609 140.859 12.6484 140.656 12.4141C140.458 12.1797 140.143 12.0625 139.711 12.0625C139.331 12.0625 139.031 12.1536 138.812 12.3359C138.599 12.5182 138.492 12.7682 138.492 13.0859H136.234C136.234 12.5964 136.385 12.1432 136.688 11.7266C136.99 11.3099 137.417 10.9844 137.969 10.75C138.521 10.5104 139.141 10.3906 139.828 10.3906C140.87 10.3906 141.695 10.6536 142.305 11.1797C142.919 11.7005 143.227 12.4349 143.227 13.3828V17.0469C143.232 17.849 143.344 18.4557 143.562 18.8672V19H141.281ZM139.414 17.4297C139.747 17.4297 140.055 17.3568 140.336 17.2109C140.617 17.0599 140.826 16.8594 140.961 16.6094V15.1562H140.117C138.987 15.1562 138.385 15.5469 138.312 16.3281L138.305 16.4609C138.305 16.7422 138.404 16.974 138.602 17.1562C138.799 17.3385 139.07 17.4297 139.414 17.4297ZM147.344 19H145.078V7H147.344V19ZM153.344 19V7.625H157.328C158.708 7.625 159.755 7.89062 160.469 8.42188C161.182 8.94792 161.539 9.72135 161.539 10.7422C161.539 11.2995 161.396 11.7917 161.109 12.2188C160.823 12.6406 160.424 12.9505 159.914 13.1484C160.497 13.2943 160.956 13.5885 161.289 14.0312C161.628 14.474 161.797 15.0156 161.797 15.6562C161.797 16.75 161.448 17.5781 160.75 18.1406C160.052 18.7031 159.057 18.9896 157.766 19H153.344ZM155.688 14.0469V17.1172H157.695C158.247 17.1172 158.677 16.987 158.984 16.7266C159.297 16.4609 159.453 16.0964 159.453 15.6328C159.453 14.5911 158.914 14.0625 157.836 14.0469H155.688ZM155.688 12.3906H157.422C158.604 12.3698 159.195 11.8984 159.195 10.9766C159.195 10.4609 159.044 10.0911 158.742 9.86719C158.445 9.63802 157.974 9.52344 157.328 9.52344H155.688V12.3906ZM163.062 14.6953C163.062 13.8568 163.224 13.1094 163.547 12.4531C163.87 11.7969 164.333 11.2891 164.938 10.9297C165.547 10.5703 166.253 10.3906 167.055 10.3906C168.195 10.3906 169.125 10.7396 169.844 11.4375C170.568 12.1354 170.971 13.0833 171.055 14.2812L171.07 14.8594C171.07 16.1562 170.708 17.1979 169.984 17.9844C169.26 18.7656 168.289 19.1562 167.07 19.1562C165.852 19.1562 164.878 18.7656 164.148 17.9844C163.424 17.2031 163.062 16.1406 163.062 14.7969V14.6953ZM165.32 14.8594C165.32 15.6615 165.471 16.276 165.773 16.7031C166.076 17.125 166.508 17.3359 167.07 17.3359C167.617 17.3359 168.044 17.1276 168.352 16.7109C168.659 16.2891 168.812 15.6172 168.812 14.6953C168.812 13.9089 168.659 13.2995 168.352 12.8672C168.044 12.4349 167.612 12.2188 167.055 12.2188C166.503 12.2188 166.076 12.4349 165.773 12.8672C165.471 13.2943 165.32 13.9583 165.32 14.8594ZM177.359 19C177.255 18.7969 177.18 18.5443 177.133 18.2422C176.586 18.8516 175.875 19.1562 175 19.1562C174.172 19.1562 173.484 18.9167 172.938 18.4375C172.396 17.9583 172.125 17.3542 172.125 16.625C172.125 15.7292 172.456 15.0417 173.117 14.5625C173.784 14.0833 174.745 13.8411 176 13.8359H177.039V13.3516C177.039 12.9609 176.938 12.6484 176.734 12.4141C176.536 12.1797 176.221 12.0625 175.789 12.0625C175.409 12.0625 175.109 12.1536 174.891 12.3359C174.677 12.5182 174.57 12.7682 174.57 13.0859H172.312C172.312 12.5964 172.464 12.1432 172.766 11.7266C173.068 11.3099 173.495 10.9844 174.047 10.75C174.599 10.5104 175.219 10.3906 175.906 10.3906C176.948 10.3906 177.773 10.6536 178.383 11.1797C178.997 11.7005 179.305 12.4349 179.305 13.3828V17.0469C179.31 17.849 179.422 18.4557 179.641 18.8672V19H177.359ZM175.492 17.4297C175.826 17.4297 176.133 17.3568 176.414 17.2109C176.695 17.0599 176.904 16.8594 177.039 16.6094V15.1562H176.195C175.065 15.1562 174.464 15.5469 174.391 16.3281L174.383 16.4609C174.383 16.7422 174.482 16.974 174.68 17.1562C174.878 17.3385 175.148 17.4297 175.492 17.4297ZM185.789 12.6641C185.482 12.6224 185.211 12.6016 184.977 12.6016C184.122 12.6016 183.562 12.8906 183.297 13.4688V19H181.039V10.5469H183.172L183.234 11.5547C183.688 10.7786 184.315 10.3906 185.117 10.3906C185.367 10.3906 185.602 10.4245 185.82 10.4922L185.789 12.6641ZM186.375 14.7109C186.375 13.3932 186.669 12.3438 187.258 11.5625C187.852 10.7812 188.661 10.3906 189.688 10.3906C190.51 10.3906 191.19 10.6979 191.727 11.3125V7H193.992V19H191.953L191.844 18.1016C191.281 18.8047 190.557 19.1562 189.672 19.1562C188.677 19.1562 187.878 18.7656 187.273 17.9844C186.674 17.1979 186.375 16.1068 186.375 14.7109ZM188.633 14.875C188.633 15.6667 188.771 16.2734 189.047 16.6953C189.323 17.1172 189.724 17.3281 190.25 17.3281C190.948 17.3281 191.44 17.0339 191.727 16.4453V13.1094C191.445 12.5208 190.958 12.2266 190.266 12.2266C189.177 12.2266 188.633 13.1094 188.633 14.875ZM200.32 16.6641C200.32 16.388 200.182 16.1719 199.906 16.0156C199.635 15.8542 199.198 15.7109 198.594 15.5859C196.583 15.1641 195.578 14.3099 195.578 13.0234C195.578 12.2734 195.888 11.6484 196.508 11.1484C197.133 10.6432 197.948 10.3906 198.953 10.3906C200.026 10.3906 200.883 10.6432 201.523 11.1484C202.169 11.6536 202.492 12.3099 202.492 13.1172H200.234C200.234 12.7943 200.13 12.5286 199.922 12.3203C199.714 12.1068 199.388 12 198.945 12C198.565 12 198.271 12.0859 198.062 12.2578C197.854 12.4297 197.75 12.6484 197.75 12.9141C197.75 13.1641 197.867 13.3672 198.102 13.5234C198.341 13.6745 198.742 13.8073 199.305 13.9219C199.867 14.0312 200.341 14.1562 200.727 14.2969C201.919 14.7344 202.516 15.4922 202.516 16.5703C202.516 17.3411 202.185 17.9661 201.523 18.4453C200.862 18.9193 200.008 19.1562 198.961 19.1562C198.253 19.1562 197.622 19.0312 197.07 18.7812C196.523 18.526 196.094 18.1797 195.781 17.7422C195.469 17.2995 195.312 16.8229 195.312 16.3125H197.453C197.474 16.7135 197.622 17.0208 197.898 17.2344C198.174 17.4479 198.544 17.5547 199.008 17.5547C199.44 17.5547 199.766 17.474 199.984 17.3125C200.208 17.1458 200.32 16.9297 200.32 16.6641Z" fill="black"/>
<path d="M251.359 14.9922V19H249.016V7.625H253.453C254.307 7.625 255.057 7.78125 255.703 8.09375C256.354 8.40625 256.854 8.85156 257.203 9.42969C257.552 10.0026 257.727 10.6562 257.727 11.3906C257.727 12.5052 257.344 13.3854 256.578 14.0312C255.818 14.6719 254.763 14.9922 253.414 14.9922H251.359ZM251.359 13.0938H253.453C254.073 13.0938 254.544 12.9479 254.867 12.6562C255.195 12.3646 255.359 11.9479 255.359 11.4062C255.359 10.849 255.195 10.3984 254.867 10.0547C254.539 9.71094 254.086 9.53385 253.508 9.52344H251.359V13.0938ZM263.945 12.6641C263.638 12.6224 263.367 12.6016 263.133 12.6016C262.279 12.6016 261.719 12.8906 261.453 13.4688V19H259.195V10.5469H261.328L261.391 11.5547C261.844 10.7786 262.471 10.3906 263.273 10.3906C263.523 10.3906 263.758 10.4245 263.977 10.4922L263.945 12.6641ZM268.773 19.1562C267.534 19.1562 266.523 18.776 265.742 18.0156C264.966 17.2552 264.578 16.2422 264.578 14.9766V14.7578C264.578 13.9089 264.742 13.151 265.07 12.4844C265.398 11.8125 265.862 11.2969 266.461 10.9375C267.065 10.5729 267.753 10.3906 268.523 10.3906C269.68 10.3906 270.589 10.7552 271.25 11.4844C271.917 12.2135 272.25 13.2474 272.25 14.5859V15.5078H266.867C266.94 16.0599 267.159 16.5026 267.523 16.8359C267.893 17.1693 268.359 17.3359 268.922 17.3359C269.792 17.3359 270.471 17.0208 270.961 16.3906L272.07 17.6328C271.732 18.112 271.273 18.487 270.695 18.7578C270.117 19.0234 269.477 19.1562 268.773 19.1562ZM268.516 12.2188C268.068 12.2188 267.703 12.3698 267.422 12.6719C267.146 12.974 266.969 13.4062 266.891 13.9688H270.031V13.7891C270.021 13.2891 269.885 12.9036 269.625 12.6328C269.365 12.3568 268.995 12.2188 268.516 12.2188ZM274.086 19V12.2031H272.828V10.5469H274.086V10.1562C274.096 9.09375 274.422 8.27604 275.062 7.70312C275.708 7.125 276.617 6.83594 277.789 6.83594C278.492 6.83594 279.346 6.98958 280.352 7.29688L280.023 9.16406C279.513 9.01302 279.117 8.91667 278.836 8.875C278.555 8.82812 278.253 8.80469 277.93 8.80469C276.878 8.80469 276.352 9.27083 276.352 10.2031V10.5469H278.016V12.2031H276.352V19H274.086ZM281.406 19H279.141V10.5469H281.406V19ZM286.492 13.0703L287.914 10.5469H290.328L287.922 14.6875L290.43 19H288.008L286.5 16.3438L285 19H282.57L285.078 14.6875L282.68 10.5469H285.102L286.492 13.0703ZM291.523 17.8906C291.523 17.5312 291.643 17.2396 291.883 17.0156C292.128 16.7917 292.432 16.6797 292.797 16.6797C293.167 16.6797 293.471 16.7917 293.711 17.0156C293.956 17.2396 294.078 17.5312 294.078 17.8906C294.078 18.2448 293.958 18.5339 293.719 18.7578C293.479 18.9766 293.172 19.0859 292.797 19.0859C292.427 19.0859 292.122 18.9766 291.883 18.7578C291.643 18.5339 291.523 18.2448 291.523 17.8906ZM291.523 11.4922C291.523 11.1328 291.643 10.8411 291.883 10.6172C292.128 10.3932 292.432 10.2812 292.797 10.2812C293.167 10.2812 293.471 10.3932 293.711 10.6172C293.956 10.8411 294.078 11.1328 294.078 11.4922C294.078 11.8464 293.958 12.1354 293.719 12.3594C293.479 12.5781 293.172 12.6875 292.797 12.6875C292.427 12.6875 292.122 12.5781 291.883 12.3594C291.643 12.1354 291.523 11.8464 291.523 11.4922ZM309.062 17.5625C308.641 18.0677 308.044 18.4609 307.273 18.7422C306.503 19.0182 305.648 19.1562 304.711 19.1562C303.727 19.1562 302.862 18.9427 302.117 18.5156C301.378 18.0833 300.805 17.4583 300.398 16.6406C299.997 15.8229 299.792 14.862 299.781 13.7578V12.9844C299.781 11.849 299.971 10.8672 300.352 10.0391C300.737 9.20573 301.289 8.57031 302.008 8.13281C302.732 7.6901 303.578 7.46875 304.547 7.46875C305.896 7.46875 306.951 7.79167 307.711 8.4375C308.471 9.07812 308.922 10.013 309.062 11.2422H306.781C306.677 10.5911 306.445 10.1146 306.086 9.8125C305.732 9.51042 305.242 9.35938 304.617 9.35938C303.82 9.35938 303.214 9.65885 302.797 10.2578C302.38 10.8568 302.169 11.7474 302.164 12.9297V13.6562C302.164 14.849 302.391 15.75 302.844 16.3594C303.297 16.9688 303.961 17.2734 304.836 17.2734C305.716 17.2734 306.344 17.0859 306.719 16.7109V14.75H304.586V13.0234H309.062V17.5625ZM310.969 19V7.625H314.953C316.333 7.625 317.38 7.89062 318.094 8.42188C318.807 8.94792 319.164 9.72135 319.164 10.7422C319.164 11.2995 319.021 11.7917 318.734 12.2188C318.448 12.6406 318.049 12.9505 317.539 13.1484C318.122 13.2943 318.581 13.5885 318.914 14.0312C319.253 14.474 319.422 15.0156 319.422 15.6562C319.422 16.75 319.073 17.5781 318.375 18.1406C317.677 18.7031 316.682 18.9896 315.391 19H310.969ZM313.312 14.0469V17.1172H315.32C315.872 17.1172 316.302 16.987 316.609 16.7266C316.922 16.4609 317.078 16.0964 317.078 15.6328C317.078 14.5911 316.539 14.0625 315.461 14.0469H313.312ZM313.312 12.3906H315.047C316.229 12.3698 316.82 11.8984 316.82 10.9766C316.82 10.4609 316.669 10.0911 316.367 9.86719C316.07 9.63802 315.599 9.52344 314.953 9.52344H313.312V12.3906Z" fill="black"/>
<path d="M0.5 27.6878H395.943V58.1685H0.5V27.6878Z" fill="white" stroke="black"/>
<path d="M0.5 56.3066H395.943V83.9254H0.5V56.3066Z" fill="white" stroke="black"/>
<path d="M0.5 82.0635H395.943V106.82H0.5V82.0635Z" fill="white" stroke="black"/>
<path d="M18.8684 46.4678C18.5312 46.9509 18.0595 47.3132 17.4534 47.5547C16.8518 47.7917 16.15 47.9102 15.3479 47.9102C14.5367 47.9102 13.8167 47.7211 13.1878 47.3428C12.5589 46.96 12.0712 46.4177 11.7249 45.7159C11.3831 45.014 11.2076 44.2006 11.1985 43.2754V42.4073C11.1985 40.9079 11.5471 39.7458 12.2444 38.9209C12.9462 38.0961 13.9306 37.6836 15.1975 37.6836C16.2366 37.6836 17.0729 37.9502 17.7063 38.4834C18.3398 39.0121 18.7272 39.764 18.8684 40.7393H17.5559C17.3098 39.4222 16.526 38.7637 15.2044 38.7637C14.3248 38.7637 13.6572 39.0736 13.2014 39.6934C12.7503 40.3086 12.5224 41.2019 12.5179 42.3731V43.1866C12.5179 44.3031 12.7731 45.1918 13.2835 45.8526C13.7939 46.5088 14.4843 46.8369 15.3548 46.8369C15.847 46.8369 16.2776 46.7823 16.6468 46.6729C17.0159 46.5635 17.3212 46.3789 17.5628 46.1192V43.8838H15.2591V42.8174H18.8684V46.4678ZM21.0628 47.7735V37.8203H24.3167C25.3968 37.8203 26.208 38.0437 26.7503 38.4903C27.2971 38.9369 27.5706 39.5977 27.5706 40.4727C27.5706 40.9375 27.4384 41.35 27.1741 41.71C26.9098 42.0655 26.5498 42.3412 26.094 42.5371C26.6318 42.6875 27.0556 42.9746 27.3655 43.3985C27.68 43.8177 27.8372 44.319 27.8372 44.9024C27.8372 45.7956 27.5478 46.4974 26.969 47.0078C26.3902 47.5183 25.5722 47.7735 24.5149 47.7735H21.0628ZM22.3753 43.1182V46.7002H24.5423C25.1529 46.7002 25.6337 46.543 25.9846 46.2285C26.3401 45.9095 26.5179 45.472 26.5179 44.916C26.5179 43.7175 25.8662 43.1182 24.5628 43.1182H22.3753ZM22.3753 42.0655H24.3577C24.9319 42.0655 25.3899 41.9219 25.7317 41.6348C26.0781 41.3477 26.2513 40.958 26.2513 40.4659C26.2513 39.919 26.0917 39.5225 25.7727 39.2764C25.4537 39.0257 24.9684 38.9004 24.3167 38.9004H22.3753V42.0655ZM32.219 44.0616H28.8831V43.0293H32.219V44.0616ZM37.4827 47.7735H36.2112V39.3448L33.6614 40.2813V39.1328L37.2845 37.7725H37.4827V47.7735ZM47.429 43.5284C47.429 45.0095 47.1761 46.1101 46.6702 46.8301C46.1643 47.5502 45.3736 47.9102 44.2981 47.9102C43.2363 47.9102 42.4501 47.5593 41.9397 46.8575C41.4293 46.1511 41.165 45.0983 41.1468 43.6992V42.0108C41.1468 40.5479 41.3997 39.461 41.9055 38.75C42.4114 38.0391 43.2044 37.6836 44.2845 37.6836C45.3554 37.6836 46.1438 38.0277 46.6497 38.7159C47.1555 39.3994 47.4153 40.4567 47.429 41.8877V43.5284ZM46.1643 41.7989C46.1643 40.7279 46.0139 39.9486 45.7132 39.461C45.4124 38.9688 44.9361 38.7227 44.2845 38.7227C43.6373 38.7227 43.1656 38.9665 42.8694 39.4541C42.5732 39.9418 42.4205 40.6914 42.4114 41.7032V43.7266C42.4114 44.8021 42.5664 45.5974 42.8763 46.1123C43.1907 46.6228 43.6647 46.878 44.2981 46.878C44.9225 46.878 45.385 46.6364 45.6858 46.1534C45.9912 45.6703 46.1507 44.9092 46.1643 43.8701V41.7989ZM53.2054 47.7735H51.9339V39.3448L49.3841 40.2813V39.1328L53.0071 37.7725H53.2054V47.7735ZM63.4319 47.7735H56.9104V46.8643L60.3557 43.0362C60.8662 42.4574 61.2171 41.988 61.4085 41.628C61.6044 41.2634 61.7024 40.8874 61.7024 40.5C61.7024 39.9805 61.5452 39.5544 61.2307 39.2217C60.9163 38.889 60.497 38.7227 59.9729 38.7227C59.344 38.7227 58.8541 38.9027 58.5032 39.2627C58.1569 39.6182 57.9837 40.1149 57.9837 40.753H56.719C56.719 39.8369 57.013 39.0964 57.6009 38.5313C58.1933 37.9662 58.984 37.6836 59.9729 37.6836C60.8981 37.6836 61.6295 37.9274 62.1673 38.4151C62.705 38.8981 62.9739 39.543 62.9739 40.3496C62.9739 41.3295 62.3496 42.4961 61.1009 43.8496L58.4348 46.7412H63.4319V47.7735ZM70.1106 44.4307H71.4915V45.4629H70.1106V47.7735H68.8391V45.4629H64.3069V44.7178L68.7639 37.8203H70.1106V44.4307ZM65.7425 44.4307H68.8391V39.5498L68.6888 39.8233L65.7425 44.4307ZM76.7893 47.7735H75.5179V39.3448L72.968 40.2813V39.1328L76.5911 37.7725H76.7893V47.7735Z" fill="black"/>
<path d="M18.8684 73.2247C18.5312 73.7078 18.0595 74.0701 17.4534 74.3116C16.8518 74.5486 16.15 74.6671 15.3479 74.6671C14.5367 74.6671 13.8167 74.478 13.1878 74.0997C12.5589 73.7169 12.0712 73.1746 11.7249 72.4728C11.3831 71.771 11.2076 70.9575 11.1985 70.0323V69.1642C11.1985 67.6648 11.5471 66.5027 12.2444 65.6779C12.9462 64.853 13.9306 64.4406 15.1975 64.4406C16.2366 64.4406 17.0729 64.7072 17.7063 65.2404C18.3398 65.769 18.7272 66.521 18.8684 67.4962H17.5559C17.3098 66.1792 16.526 65.5206 15.2044 65.5206C14.3248 65.5206 13.6572 65.8305 13.2014 66.4503C12.7503 67.0656 12.5224 67.9588 12.5179 69.13V69.9435C12.5179 71.06 12.7731 71.9487 13.2835 72.6095C13.7939 73.2657 14.4843 73.5939 15.3548 73.5939C15.847 73.5939 16.2776 73.5392 16.6468 73.4298C17.0159 73.3204 17.3212 73.1359 17.5628 72.8761V70.6407H15.2591V69.5743H18.8684V73.2247ZM21.0628 74.5304V64.5773H24.3167C25.3968 64.5773 26.208 64.8006 26.7503 65.2472C27.2971 65.6938 27.5706 66.3546 27.5706 67.2296C27.5706 67.6945 27.4384 68.1069 27.1741 68.4669C26.9098 68.8224 26.5498 69.0981 26.094 69.2941C26.6318 69.4445 27.0556 69.7316 27.3655 70.1554C27.68 70.5747 27.8372 71.076 27.8372 71.6593C27.8372 72.5525 27.5478 73.2544 26.969 73.7648C26.3902 74.2752 25.5722 74.5304 24.5149 74.5304H21.0628ZM22.3753 69.8751V73.4572H24.5423C25.1529 73.4572 25.6337 73.2999 25.9846 72.9855C26.3401 72.6665 26.5179 72.229 26.5179 71.673C26.5179 70.4744 25.8662 69.8751 24.5628 69.8751H22.3753ZM22.3753 68.8224H24.3577C24.9319 68.8224 25.3899 68.6788 25.7317 68.3917C26.0781 68.1046 26.2513 67.715 26.2513 67.2228C26.2513 66.6759 26.0917 66.2794 25.7727 66.0333C25.4537 65.7827 24.9684 65.6573 24.3167 65.6573H22.3753V68.8224ZM32.219 70.8185H28.8831V69.7863H32.219V70.8185ZM35.1653 68.9386H36.1155C36.7125 68.9295 37.1819 68.7723 37.5237 68.4669C37.8655 68.1616 38.0364 67.7491 38.0364 67.2296C38.0364 66.0629 37.4554 65.4796 36.2932 65.4796C35.7464 65.4796 35.3089 65.6368 34.9807 65.9513C34.6572 66.2612 34.4954 66.6736 34.4954 67.1886H33.2307C33.2307 66.4002 33.5179 65.7462 34.0921 65.2267C34.6708 64.7026 35.4046 64.4406 36.2932 64.4406C37.232 64.4406 37.968 64.6889 38.5013 65.1857C39.0345 65.6824 39.3011 66.3728 39.3011 67.257C39.3011 67.6899 39.1598 68.1092 38.8772 68.5148C38.5992 68.9204 38.2187 69.2234 37.7356 69.424C38.2825 69.5971 38.7041 69.8842 39.0003 70.2853C39.3011 70.6863 39.4514 71.1762 39.4514 71.755C39.4514 72.6482 39.1598 73.3569 38.5764 73.881C37.9931 74.4051 37.2343 74.6671 36.3001 74.6671C35.3658 74.6671 34.6048 74.4142 34.0169 73.9083C33.4335 73.4025 33.1419 72.7348 33.1419 71.9054H34.4134C34.4134 72.4295 34.5843 72.8488 34.9261 73.1632C35.2679 73.4777 35.7259 73.6349 36.3001 73.6349C36.9108 73.6349 37.3779 73.4754 37.7014 73.1564C38.025 72.8374 38.1868 72.3794 38.1868 71.7823C38.1868 71.2036 38.0091 70.7592 37.6536 70.4493C37.2981 70.1394 36.7854 69.9799 36.1155 69.9708H35.1653V68.9386ZM41.7688 69.5402L42.2747 64.5773H47.3743V65.7462H43.3479L43.0471 68.4601C43.5348 68.173 44.0885 68.0294 44.7083 68.0294C45.6152 68.0294 46.3352 68.3302 46.8684 68.9318C47.4016 69.5288 47.6682 70.3377 47.6682 71.3585C47.6682 72.3839 47.3902 73.1928 46.8343 73.7853C46.2828 74.3732 45.5104 74.6671 44.5169 74.6671C43.6373 74.6671 42.9195 74.4233 42.3636 73.9357C41.8076 73.448 41.4908 72.7736 41.4134 71.9122H42.6096C42.6871 72.4819 42.8899 72.9126 43.218 73.2042C43.5462 73.4913 43.9791 73.6349 44.5169 73.6349C45.1048 73.6349 45.5651 73.4344 45.8977 73.0333C46.235 72.6323 46.4036 72.0786 46.4036 71.3722C46.4036 70.7068 46.2213 70.1736 45.8567 69.7726C45.4967 69.367 45.0159 69.1642 44.4143 69.1642C43.8629 69.1642 43.43 69.285 43.1155 69.5265L42.7805 69.7999L41.7688 69.5402ZM55.5706 74.5304H49.0491V73.6212L52.4944 69.7931C53.0048 69.2143 53.3557 68.7449 53.5471 68.3849C53.7431 68.0203 53.8411 67.6443 53.8411 67.257C53.8411 66.7374 53.6839 66.3113 53.3694 65.9786C53.055 65.646 52.6357 65.4796 52.1116 65.4796C51.4827 65.4796 50.9928 65.6596 50.6419 66.0197C50.2955 66.3751 50.1223 66.8719 50.1223 67.5099H48.8577C48.8577 66.5939 49.1516 65.8533 49.7395 65.2882C50.332 64.7231 51.1227 64.4406 52.1116 64.4406C53.0367 64.4406 53.7682 64.6844 54.3059 65.172C54.8437 65.6551 55.1126 66.2999 55.1126 67.1066C55.1126 68.0864 54.4882 69.2531 53.2395 70.6066L50.5735 73.4982H55.5706V74.5304ZM58.7493 68.9386H59.6995C60.2965 68.9295 60.7659 68.7723 61.1077 68.4669C61.4495 68.1616 61.6204 67.7491 61.6204 67.2296C61.6204 66.0629 61.0393 65.4796 59.8772 65.4796C59.3304 65.4796 58.8929 65.6368 58.5647 65.9513C58.2412 66.2612 58.0794 66.6736 58.0794 67.1886H56.8147C56.8147 66.4002 57.1018 65.7462 57.6761 65.2267C58.2548 64.7026 58.9886 64.4406 59.8772 64.4406C60.816 64.4406 61.552 64.6889 62.0852 65.1857C62.6184 65.6824 62.885 66.3728 62.885 67.257C62.885 67.6899 62.7438 68.1092 62.4612 68.5148C62.1832 68.9204 61.8027 69.2234 61.3196 69.424C61.8665 69.5971 62.288 69.8842 62.5843 70.2853C62.885 70.6863 63.0354 71.1762 63.0354 71.755C63.0354 72.6482 62.7438 73.3569 62.1604 73.881C61.5771 74.4051 60.8183 74.6671 59.8841 74.6671C58.9498 74.6671 58.1888 74.4142 57.6009 73.9083C57.0175 73.4025 56.7259 72.7348 56.7259 71.9054H57.9973C57.9973 72.4295 58.1682 72.8488 58.51 73.1632C58.8518 73.4777 59.3098 73.6349 59.8841 73.6349C60.4947 73.6349 60.9619 73.4754 61.2854 73.1564C61.609 72.8374 61.7708 72.3794 61.7708 71.7823C61.7708 71.2036 61.593 70.7592 61.2376 70.4493C60.8821 70.1394 60.3694 69.9799 59.6995 69.9708H58.7493V68.9386ZM65.3528 69.5402L65.8587 64.5773H70.9583V65.7462H66.9319L66.6311 68.4601C67.1188 68.173 67.6725 68.0294 68.2923 68.0294C69.1992 68.0294 69.9192 68.3302 70.4524 68.9318C70.9856 69.5288 71.2522 70.3377 71.2522 71.3585C71.2522 72.3839 70.9742 73.1928 70.4182 73.7853C69.8668 74.3732 69.0944 74.6671 68.1009 74.6671C67.2213 74.6671 66.5035 74.4233 65.9475 73.9357C65.3916 73.448 65.0748 72.7736 64.9973 71.9122H66.1936C66.2711 72.4819 66.4739 72.9126 66.802 73.2042C67.1302 73.4913 67.5631 73.6349 68.1009 73.6349C68.6888 73.6349 69.149 73.4344 69.4817 73.0333C69.819 72.6323 69.9876 72.0786 69.9876 71.3722C69.9876 70.7068 69.8053 70.1736 69.4407 69.7726C69.0807 69.367 68.5999 69.1642 67.9983 69.1642C67.4469 69.1642 67.0139 69.285 66.6995 69.5265L66.3645 69.7999L65.3528 69.5402ZM79.1546 74.5304H72.6331V73.6212L76.0784 69.7931C76.5888 69.2143 76.9397 68.7449 77.1311 68.3849C77.3271 68.0203 77.4251 67.6443 77.4251 67.257C77.4251 66.7374 77.2679 66.3113 76.9534 65.9786C76.6389 65.646 76.2197 65.4796 75.6956 65.4796C75.0667 65.4796 74.5768 65.6596 74.2259 66.0197C73.8795 66.3751 73.7063 66.8719 73.7063 67.5099H72.4417C72.4417 66.5939 72.7356 65.8533 73.3235 65.2882C73.916 64.7231 74.7067 64.4406 75.6956 64.4406C76.6207 64.4406 77.3522 64.6844 77.8899 65.172C78.4277 65.6551 78.6966 66.2999 78.6966 67.1066C78.6966 68.0864 78.0722 69.2531 76.8235 70.6066L74.1575 73.4982H79.1546V74.5304Z" fill="black"/>
<path d="M18.8684 98.9816C18.5312 99.4647 18.0595 99.827 17.4534 100.069C16.8518 100.306 16.15 100.424 15.3479 100.424C14.5367 100.424 13.8167 100.235 13.1878 99.8566C12.5589 99.4738 12.0712 98.9315 11.7249 98.2297C11.3831 97.5279 11.2076 96.7144 11.1985 95.7892V94.9211C11.1985 93.4217 11.5471 92.2596 12.2444 91.4348C12.9462 90.6099 13.9306 90.1974 15.1975 90.1974C16.2366 90.1974 17.0729 90.4641 17.7063 90.9973C18.3398 91.5259 18.7272 92.2779 18.8684 93.2531H17.5559C17.3098 91.9361 16.526 91.2775 15.2044 91.2775C14.3248 91.2775 13.6572 91.5874 13.2014 92.2072C12.7503 92.8224 12.5224 93.7157 12.5179 94.8869V95.7004C12.5179 96.8169 12.7731 97.7056 13.2835 98.3664C13.7939 99.0226 14.4843 99.3508 15.3548 99.3508C15.847 99.3508 16.2776 99.2961 16.6468 99.1867C17.0159 99.0773 17.3212 98.8928 17.5628 98.633V96.3976H15.2591V95.3312H18.8684V98.9816ZM21.0628 100.287V90.3342H24.3167C25.3968 90.3342 26.208 90.5575 26.7503 91.0041C27.2971 91.4507 27.5706 92.1115 27.5706 92.9865C27.5706 93.4514 27.4384 93.8638 27.1741 94.2238C26.9098 94.5793 26.5498 94.855 26.094 95.051C26.6318 95.2014 27.0556 95.4885 27.3655 95.9123C27.68 96.3316 27.8372 96.8329 27.8372 97.4162C27.8372 98.3094 27.5478 99.0113 26.969 99.5217C26.3902 100.032 25.5722 100.287 24.5149 100.287H21.0628ZM22.3753 95.632V99.2141H24.5423C25.1529 99.2141 25.6337 99.0568 25.9846 98.7424C26.3401 98.4234 26.5179 97.9859 26.5179 97.4299C26.5179 96.2313 25.8662 95.632 24.5628 95.632H22.3753ZM22.3753 94.5793H24.3577C24.9319 94.5793 25.3899 94.4357 25.7317 94.1486C26.0781 93.8615 26.2513 93.4719 26.2513 92.9797C26.2513 92.4328 26.0917 92.0363 25.7727 91.7902C25.4537 91.5396 24.9684 91.4142 24.3167 91.4142H22.3753V94.5793ZM32.219 96.5754H28.8831V95.5432H32.219V96.5754ZM39.3626 92.9318C39.3626 93.4286 39.2304 93.8706 38.9661 94.258C38.7063 94.6454 38.3531 94.9484 37.9065 95.1672C38.4261 95.3905 38.8362 95.7163 39.137 96.1447C39.4423 96.5731 39.595 97.0585 39.595 97.6008C39.595 98.4621 39.3033 99.148 38.72 99.6584C38.1412 100.169 37.3779 100.424 36.43 100.424C35.4729 100.424 34.705 100.169 34.1263 99.6584C33.552 99.1434 33.2649 98.4575 33.2649 97.6008C33.2649 97.063 33.4108 96.5777 33.7024 96.1447C33.9986 95.7118 34.4065 95.3836 34.9261 95.1603C34.484 94.9416 34.1354 94.6385 33.8802 94.2512C33.6249 93.8638 33.4973 93.424 33.4973 92.9318C33.4973 92.0933 33.7662 91.4279 34.304 90.9357C34.8417 90.4435 35.5504 90.1974 36.43 90.1974C37.305 90.1974 38.0113 90.4435 38.5491 90.9357C39.0914 91.4279 39.3626 92.0933 39.3626 92.9318ZM38.3304 97.5734C38.3304 97.0174 38.1526 96.564 37.7971 96.2131C37.4462 95.8622 36.986 95.6867 36.4163 95.6867C35.8466 95.6867 35.3886 95.8599 35.0423 96.2062C34.7005 96.5526 34.5296 97.0083 34.5296 97.5734C34.5296 98.1385 34.6959 98.5829 35.0286 98.9064C35.3658 99.23 35.833 99.3918 36.43 99.3918C37.0224 99.3918 37.4873 99.23 37.8245 98.9064C38.1617 98.5783 38.3304 98.134 38.3304 97.5734ZM36.43 91.2365C35.9332 91.2365 35.5299 91.3915 35.22 91.7014C34.9147 92.0067 34.762 92.4237 34.762 92.9523C34.762 93.4582 34.9124 93.8683 35.2132 94.1828C35.5185 94.4927 35.9241 94.6476 36.43 94.6476C36.9358 94.6476 37.3391 94.4927 37.6399 94.1828C37.9453 93.8683 38.0979 93.4582 38.0979 92.9523C38.0979 92.4465 37.9407 92.034 37.6263 91.715C37.3118 91.396 36.913 91.2365 36.43 91.2365ZM47.7093 100.287H41.1878V99.3781L44.6331 95.55C45.1435 94.9712 45.4944 94.5018 45.6858 94.1418C45.8818 93.7772 45.9798 93.4012 45.9798 93.0139C45.9798 92.4943 45.8225 92.0682 45.5081 91.7355C45.1936 91.4029 44.7744 91.2365 44.2503 91.2365C43.6214 91.2365 43.1315 91.4165 42.7805 91.7766C42.4342 92.132 42.261 92.6288 42.261 93.2668H40.9964C40.9964 92.3508 41.2903 91.6102 41.8782 91.0451C42.4707 90.48 43.2613 90.1974 44.2503 90.1974C45.1754 90.1974 45.9069 90.4413 46.4446 90.9289C46.9824 91.412 47.2513 92.0568 47.2513 92.8635C47.2513 93.8433 46.6269 95.0099 45.3782 96.3635L42.7122 99.2551H47.7093V100.287ZM50.888 94.6955H51.8382C52.4352 94.6864 52.9046 94.5292 53.2464 94.2238C53.5882 93.9185 53.7591 93.506 53.7591 92.9865C53.7591 91.8198 53.178 91.2365 52.0159 91.2365C51.469 91.2365 51.0315 91.3937 50.7034 91.7082C50.3798 92.0181 50.218 92.4305 50.218 92.9455H48.9534C48.9534 92.1571 49.2405 91.5031 49.8147 90.9836C50.3935 90.4595 51.1272 90.1974 52.0159 90.1974C52.9547 90.1974 53.6907 90.4458 54.2239 90.9426C54.7571 91.4393 55.0237 92.1297 55.0237 93.0139C55.0237 93.4468 54.8824 93.8661 54.5999 94.2717C54.3219 94.6773 53.9414 94.9803 53.4583 95.1808C54.0052 95.354 54.4267 95.6411 54.7229 96.0422C55.0237 96.4432 55.1741 96.9331 55.1741 97.5119C55.1741 98.4051 54.8824 99.1138 54.2991 99.6379C53.7158 100.162 52.957 100.424 52.0227 100.424C51.0885 100.424 50.3274 100.171 49.7395 99.6652C49.1562 99.1594 48.8645 98.4917 48.8645 97.6623H50.136C50.136 98.1864 50.3069 98.6057 50.6487 98.9201C50.9905 99.2346 51.4485 99.3918 52.0227 99.3918C52.6334 99.3918 53.1005 99.2323 53.4241 98.9133C53.7477 98.5943 53.9095 98.1363 53.9095 97.5392C53.9095 96.9605 53.7317 96.5161 53.3763 96.2062C53.0208 95.8963 52.5081 95.7368 51.8382 95.7277H50.888V94.6955ZM61.7571 95.9123C61.4928 96.2267 61.1761 96.4797 60.8069 96.6711C60.4423 96.8625 60.0413 96.9582 59.6038 96.9582C59.0296 96.9582 58.5283 96.8169 58.0999 96.5344C57.6761 96.2518 57.3479 95.8553 57.1155 95.3449C56.8831 94.8299 56.7669 94.2626 56.7669 93.6428C56.7669 92.9774 56.8922 92.3781 57.1429 91.8449C57.3981 91.3117 57.7581 90.9038 58.2229 90.6213C58.6878 90.3387 59.2301 90.1974 59.8499 90.1974C60.8343 90.1974 61.609 90.5666 62.1741 91.3049C62.7438 92.0386 63.0286 93.0412 63.0286 94.3127V94.6818C63.0286 96.6187 62.6458 98.0337 61.8802 98.9269C61.1145 99.8156 59.9593 100.271 58.4143 100.294H58.1682V99.2277H58.4348C59.4785 99.2095 60.2805 98.9383 60.8411 98.4142C61.4016 97.8856 61.707 97.0516 61.7571 95.9123ZM59.8089 95.9123C60.2327 95.9123 60.6223 95.7824 60.9778 95.5226C61.3378 95.2629 61.5999 94.9416 61.7639 94.5588V94.0529C61.7639 93.2235 61.5839 92.549 61.2239 92.0295C60.8639 91.5099 60.4082 91.2502 59.8567 91.2502C59.3007 91.2502 58.8541 91.4644 58.5169 91.8928C58.1796 92.3166 58.011 92.8771 58.011 93.5744C58.011 94.2534 58.1728 94.814 58.4964 95.256C58.8245 95.6935 59.262 95.9123 59.8089 95.9123ZM68.928 100.287H67.6565V91.8586L65.1067 92.7951V91.6467L68.7298 90.2863H68.928V100.287ZM73.2141 95.2971L73.72 90.3342H78.8196V91.5031H74.7932L74.4925 94.217C74.9801 93.9299 75.5338 93.7863 76.1536 93.7863C77.0605 93.7863 77.7805 94.0871 78.3138 94.6887C78.847 95.2857 79.1136 96.0946 79.1136 97.1154C79.1136 98.1408 78.8356 98.9497 78.2796 99.5422C77.7281 100.13 76.9557 100.424 75.9622 100.424C75.0826 100.424 74.3649 100.18 73.8089 99.6926C73.2529 99.2049 72.9361 98.5305 72.8587 97.6691H74.055C74.1324 98.2388 74.3352 98.6695 74.6634 98.9611C74.9915 99.2482 75.4244 99.3918 75.9622 99.3918C76.5501 99.3918 77.0104 99.1913 77.343 98.7902C77.6803 98.3892 77.8489 97.8355 77.8489 97.1291C77.8489 96.4637 77.6666 95.9305 77.302 95.5295C76.942 95.1239 76.4612 94.9211 75.8596 94.9211C75.3082 94.9211 74.8753 95.0418 74.5608 95.2834L74.2259 95.5568L73.2141 95.2971Z" fill="black"/>
<rect x="0.5" y="149.318" width="395.443" height="34.7735" fill="#FFFA7A" stroke="black"/>
<path d="M20.3098 164.891C20.2213 166.114 19.7682 167.078 18.9505 167.781C18.138 168.484 17.0651 168.836 15.7317 168.836C14.2734 168.836 13.1249 168.346 12.2864 167.367C11.4531 166.383 11.0364 165.034 11.0364 163.32V162.625C11.0364 161.531 11.2291 160.568 11.6145 159.734C11.9999 158.901 12.5494 158.263 13.263 157.82C13.9817 157.372 14.8151 157.148 15.763 157.148C17.0755 157.148 18.1328 157.5 18.9348 158.203C19.7369 158.906 20.2005 159.893 20.3255 161.164H17.9817C17.9244 160.43 17.7187 159.898 17.3645 159.57C17.0156 159.237 16.4817 159.07 15.763 159.07C14.9817 159.07 14.3958 159.351 14.0052 159.914C13.6197 160.471 13.4218 161.338 13.4114 162.516V163.375C13.4114 164.604 13.5963 165.502 13.9661 166.07C14.3411 166.638 14.9296 166.922 15.7317 166.922C16.4557 166.922 16.9947 166.758 17.3489 166.43C17.7083 166.096 17.914 165.583 17.9661 164.891H20.3098ZM26.763 167.82C26.2057 168.497 25.4348 168.836 24.4505 168.836C23.5442 168.836 22.8515 168.575 22.3723 168.055C21.8984 167.534 21.6562 166.771 21.6458 165.766V160.226H23.9036V165.687C23.9036 166.568 24.3046 167.008 25.1067 167.008C25.8723 167.008 26.3984 166.742 26.6848 166.211V160.226H28.9505V168.68H26.8255L26.763 167.82ZM35.2317 166.344C35.2317 166.068 35.0937 165.851 34.8177 165.695C34.5468 165.534 34.1093 165.391 33.5052 165.266C31.4947 164.844 30.4895 163.989 30.4895 162.703C30.4895 161.953 30.7994 161.328 31.4192 160.828C32.0442 160.323 32.8593 160.07 33.8645 160.07C34.9374 160.07 35.7942 160.323 36.4348 160.828C37.0807 161.333 37.4036 161.989 37.4036 162.797H35.1458C35.1458 162.474 35.0416 162.208 34.8333 162C34.6249 161.786 34.2994 161.68 33.8567 161.68C33.4765 161.68 33.1822 161.766 32.9739 161.937C32.7656 162.109 32.6614 162.328 32.6614 162.594C32.6614 162.844 32.7786 163.047 33.013 163.203C33.2526 163.354 33.6536 163.487 34.2161 163.601C34.7786 163.711 35.2526 163.836 35.638 163.976C36.8307 164.414 37.427 165.172 37.427 166.25C37.427 167.021 37.0963 167.646 36.4348 168.125C35.7734 168.599 34.9192 168.836 33.8723 168.836C33.164 168.836 32.5338 168.711 31.9817 168.461C31.4348 168.206 31.0052 167.859 30.6927 167.422C30.3802 166.979 30.2239 166.502 30.2239 165.992H32.3645C32.3854 166.393 32.5338 166.7 32.8098 166.914C33.0859 167.127 33.4557 167.234 33.9192 167.234C34.3515 167.234 34.677 167.154 34.8958 166.992C35.1197 166.825 35.2317 166.609 35.2317 166.344ZM41.5911 158.148V160.226H43.0364V161.883H41.5911V166.101C41.5911 166.414 41.651 166.638 41.7708 166.773C41.8906 166.909 42.1197 166.976 42.4583 166.976C42.7083 166.976 42.9296 166.958 43.1223 166.922V168.633C42.6796 168.768 42.2239 168.836 41.7552 168.836C40.1718 168.836 39.3645 168.036 39.3333 166.437V161.883H38.0989V160.226H39.3333V158.148H41.5911ZM43.7083 164.375C43.7083 163.536 43.8697 162.789 44.1927 162.133C44.5156 161.476 44.9791 160.969 45.5833 160.609C46.1927 160.25 46.8984 160.07 47.7005 160.07C48.8411 160.07 49.7708 160.419 50.4895 161.117C51.2135 161.815 51.6171 162.763 51.7005 163.961L51.7161 164.539C51.7161 165.836 51.3541 166.877 50.6302 167.664C49.9062 168.445 48.9348 168.836 47.7161 168.836C46.4973 168.836 45.5234 168.445 44.7942 167.664C44.0703 166.883 43.7083 165.82 43.7083 164.476V164.375ZM45.9661 164.539C45.9661 165.341 46.1171 165.956 46.4192 166.383C46.7213 166.805 47.1536 167.016 47.7161 167.016C48.263 167.016 48.6901 166.807 48.9973 166.391C49.3046 165.969 49.4583 165.297 49.4583 164.375C49.4583 163.588 49.3046 162.979 48.9973 162.547C48.6901 162.114 48.2578 161.898 47.7005 161.898C47.1484 161.898 46.7213 162.114 46.4192 162.547C46.1171 162.974 45.9661 163.638 45.9661 164.539ZM55.2239 160.226L55.2942 161.172C55.8932 160.437 56.7031 160.07 57.7239 160.07C58.8124 160.07 59.5598 160.5 59.9661 161.359C60.5598 160.5 61.4062 160.07 62.5052 160.07C63.4218 160.07 64.1041 160.338 64.552 160.875C64.9999 161.406 65.2239 162.208 65.2239 163.281V168.68H62.9583V163.289C62.9583 162.81 62.8645 162.461 62.677 162.242C62.4895 162.018 62.1588 161.906 61.6848 161.906C61.0078 161.906 60.539 162.229 60.2786 162.875L60.2864 168.68H58.0286V163.297C58.0286 162.807 57.9322 162.453 57.7395 162.234C57.5468 162.016 57.2187 161.906 56.7552 161.906C56.1145 161.906 55.651 162.172 55.3645 162.703V168.68H53.1067V160.226H55.2239ZM70.8567 168.836C69.6171 168.836 68.6067 168.456 67.8255 167.695C67.0494 166.935 66.6614 165.922 66.6614 164.656V164.437C66.6614 163.588 66.8255 162.831 67.1536 162.164C67.4817 161.492 67.9453 160.976 68.5442 160.617C69.1484 160.252 69.8359 160.07 70.6067 160.07C71.763 160.07 72.6718 160.435 73.3333 161.164C73.9999 161.893 74.3333 162.927 74.3333 164.266V165.187H68.9505C69.0234 165.739 69.2421 166.182 69.6067 166.516C69.9765 166.849 70.4427 167.016 71.0052 167.016C71.8749 167.016 72.5546 166.7 73.0442 166.07L74.1536 167.312C73.8151 167.792 73.3567 168.167 72.7786 168.437C72.2005 168.703 71.5598 168.836 70.8567 168.836ZM70.5989 161.898C70.151 161.898 69.7864 162.049 69.5052 162.351C69.2291 162.654 69.052 163.086 68.9739 163.648H72.1145V163.469C72.1041 162.969 71.9687 162.583 71.7083 162.312C71.4479 162.036 71.0781 161.898 70.5989 161.898ZM80.3723 162.344C80.0651 162.302 79.7942 162.281 79.5598 162.281C78.7057 162.281 78.1458 162.57 77.8802 163.148V168.68H75.6223V160.226H77.7552L77.8177 161.234C78.2708 160.458 78.8984 160.07 79.7005 160.07C79.9505 160.07 80.1848 160.104 80.4036 160.172L80.3723 162.344ZM81.5755 167.57C81.5755 167.211 81.6953 166.919 81.9348 166.695C82.1796 166.471 82.4843 166.359 82.8489 166.359C83.2187 166.359 83.5234 166.471 83.763 166.695C84.0078 166.919 84.1302 167.211 84.1302 167.57C84.1302 167.924 84.0104 168.213 83.7708 168.437C83.5312 168.656 83.2239 168.766 82.8489 168.766C82.4791 168.766 82.1744 168.656 81.9348 168.437C81.6953 168.213 81.5755 167.924 81.5755 167.57ZM81.5755 161.172C81.5755 160.812 81.6953 160.521 81.9348 160.297C82.1796 160.073 82.4843 159.961 82.8489 159.961C83.2187 159.961 83.5234 160.073 83.763 160.297C84.0078 160.521 84.1302 160.812 84.1302 161.172C84.1302 161.526 84.0104 161.815 83.7708 162.039C83.5312 162.258 83.2239 162.367 82.8489 162.367C82.4791 162.367 82.1744 162.258 81.9348 162.039C81.6953 161.815 81.5755 161.526 81.5755 161.172ZM94.0989 168.68V157.305H97.5989C98.5989 157.305 99.4921 157.531 100.279 157.984C101.07 158.432 101.687 159.073 102.13 159.906C102.573 160.734 102.794 161.677 102.794 162.734V163.258C102.794 164.315 102.575 165.255 102.138 166.078C101.706 166.901 101.094 167.539 100.302 167.992C99.5104 168.445 98.6171 168.674 97.6223 168.68H94.0989ZM96.4427 159.203V166.797H97.5755C98.4921 166.797 99.1927 166.497 99.677 165.898C100.161 165.299 100.409 164.443 100.419 163.328V162.726C100.419 161.57 100.18 160.695 99.7005 160.101C99.2213 159.502 98.5208 159.203 97.5989 159.203H96.4427ZM108.247 168.836C107.008 168.836 105.997 168.456 105.216 167.695C104.44 166.935 104.052 165.922 104.052 164.656V164.437C104.052 163.588 104.216 162.831 104.544 162.164C104.872 161.492 105.336 160.976 105.935 160.617C106.539 160.252 107.227 160.07 107.997 160.07C109.154 160.07 110.062 160.435 110.724 161.164C111.391 161.893 111.724 162.927 111.724 164.266V165.187H106.341C106.414 165.739 106.633 166.182 106.997 166.516C107.367 166.849 107.833 167.016 108.396 167.016C109.266 167.016 109.945 166.7 110.435 166.07L111.544 167.312C111.206 167.792 110.747 168.167 110.169 168.437C109.591 168.703 108.95 168.836 108.247 168.836ZM107.99 161.898C107.542 161.898 107.177 162.049 106.896 162.351C106.62 162.654 106.443 163.086 106.365 163.648H109.505V163.469C109.495 162.969 109.359 162.583 109.099 162.312C108.838 162.036 108.469 161.898 107.99 161.898ZM115.396 168.68H113.13V156.68H115.396V168.68ZM119.966 158.148V160.226H121.411V161.883H119.966V166.101C119.966 166.414 120.026 166.638 120.146 166.773C120.266 166.909 120.495 166.976 120.833 166.976C121.083 166.976 121.305 166.958 121.497 166.922V168.633C121.055 168.768 120.599 168.836 120.13 168.836C118.547 168.836 117.74 168.036 117.708 166.437V161.883H116.474V160.226H117.708V158.148H119.966ZM127.568 168.68C127.463 168.476 127.388 168.224 127.341 167.922C126.794 168.531 126.083 168.836 125.208 168.836C124.38 168.836 123.693 168.596 123.146 168.117C122.604 167.638 122.333 167.034 122.333 166.305C122.333 165.409 122.664 164.721 123.325 164.242C123.992 163.763 124.953 163.521 126.208 163.516H127.247V163.031C127.247 162.641 127.146 162.328 126.943 162.094C126.745 161.859 126.43 161.742 125.997 161.742C125.617 161.742 125.318 161.833 125.099 162.016C124.885 162.198 124.779 162.448 124.779 162.766H122.521C122.521 162.276 122.672 161.823 122.974 161.406C123.276 160.989 123.703 160.664 124.255 160.43C124.807 160.19 125.427 160.07 126.115 160.07C127.156 160.07 127.982 160.333 128.591 160.859C129.206 161.38 129.513 162.114 129.513 163.062V166.726C129.518 167.529 129.63 168.135 129.849 168.547V168.68H127.568ZM125.7 167.109C126.034 167.109 126.341 167.036 126.622 166.891C126.904 166.739 127.112 166.539 127.247 166.289V164.836H126.404C125.273 164.836 124.672 165.226 124.599 166.008L124.591 166.141C124.591 166.422 124.69 166.654 124.888 166.836C125.086 167.018 125.357 167.109 125.7 167.109ZM135.38 168.68V157.305H138.88C139.88 157.305 140.773 157.531 141.56 157.984C142.352 158.432 142.969 159.073 143.411 159.906C143.854 160.734 144.075 161.677 144.075 162.734V163.258C144.075 164.315 143.857 165.255 143.419 166.078C142.987 166.901 142.375 167.539 141.583 167.992C140.792 168.445 139.898 168.674 138.904 168.68H135.38ZM137.724 159.203V166.797H138.857C139.773 166.797 140.474 166.497 140.958 165.898C141.443 165.299 141.69 164.443 141.7 163.328V162.726C141.7 161.57 141.461 160.695 140.982 160.101C140.503 159.502 139.802 159.203 138.88 159.203H137.724ZM150.536 168.68C150.432 168.476 150.357 168.224 150.31 167.922C149.763 168.531 149.052 168.836 148.177 168.836C147.349 168.836 146.661 168.596 146.115 168.117C145.573 167.638 145.302 167.034 145.302 166.305C145.302 165.409 145.633 164.721 146.294 164.242C146.961 163.763 147.922 163.521 149.177 163.516H150.216V163.031C150.216 162.641 150.115 162.328 149.911 162.094C149.713 161.859 149.398 161.742 148.966 161.742C148.586 161.742 148.286 161.833 148.068 162.016C147.854 162.198 147.747 162.448 147.747 162.766H145.49C145.49 162.276 145.641 161.823 145.943 161.406C146.245 160.989 146.672 160.664 147.224 160.43C147.776 160.19 148.396 160.07 149.083 160.07C150.125 160.07 150.95 160.333 151.56 160.859C152.174 161.38 152.482 162.114 152.482 163.062V166.726C152.487 167.529 152.599 168.135 152.818 168.547V168.68H150.536ZM148.669 167.109C149.003 167.109 149.31 167.036 149.591 166.891C149.872 166.739 150.081 166.539 150.216 166.289V164.836H149.372C148.242 164.836 147.641 165.226 147.568 166.008L147.56 166.141C147.56 166.422 147.659 166.654 147.857 166.836C148.055 167.018 148.325 167.109 148.669 167.109ZM161.568 165.609L162.677 160.226H164.857L162.7 168.68H160.81L159.208 163.359L157.607 168.68H155.724L153.568 160.226H155.747L156.849 165.601L158.396 160.226H160.029L161.568 165.609ZM168.06 160.226L168.13 161.203C168.734 160.448 169.544 160.07 170.56 160.07C171.456 160.07 172.122 160.333 172.56 160.859C172.997 161.385 173.221 162.172 173.232 163.219V168.68H170.974V163.273C170.974 162.794 170.87 162.448 170.661 162.234C170.453 162.016 170.107 161.906 169.622 161.906C168.987 161.906 168.51 162.177 168.193 162.719V168.68H165.935V160.226H168.06Z" fill="black"/>
<path d="M249.517 163.672V167.68H247.173V156.305H251.611C252.465 156.305 253.215 156.461 253.861 156.773C254.512 157.086 255.012 157.531 255.361 158.109C255.71 158.682 255.884 159.336 255.884 160.07C255.884 161.185 255.501 162.065 254.736 162.711C253.975 163.351 252.921 163.672 251.572 163.672H249.517ZM249.517 161.773H251.611C252.231 161.773 252.702 161.627 253.025 161.336C253.353 161.044 253.517 160.627 253.517 160.086C253.517 159.529 253.353 159.078 253.025 158.734C252.697 158.391 252.244 158.213 251.665 158.203H249.517V161.773ZM262.103 161.344C261.796 161.302 261.525 161.281 261.29 161.281C260.436 161.281 259.876 161.57 259.611 162.148V167.68H257.353V159.226H259.486L259.548 160.234C260.001 159.458 260.629 159.07 261.431 159.07C261.681 159.07 261.915 159.104 262.134 159.172L262.103 161.344ZM266.931 167.836C265.692 167.836 264.681 167.456 263.9 166.695C263.124 165.935 262.736 164.922 262.736 163.656V163.437C262.736 162.588 262.9 161.831 263.228 161.164C263.556 160.492 264.02 159.976 264.619 159.617C265.223 159.252 265.91 159.07 266.681 159.07C267.837 159.07 268.746 159.435 269.408 160.164C270.074 160.893 270.408 161.927 270.408 163.266V164.187H265.025C265.098 164.739 265.317 165.182 265.681 165.516C266.051 165.849 266.517 166.016 267.08 166.016C267.949 166.016 268.629 165.7 269.119 165.07L270.228 166.312C269.889 166.792 269.431 167.167 268.853 167.437C268.275 167.703 267.634 167.836 266.931 167.836ZM266.673 160.898C266.225 160.898 265.861 161.049 265.58 161.351C265.303 161.654 265.126 162.086 265.048 162.648H268.189V162.469C268.178 161.969 268.043 161.583 267.783 161.312C267.522 161.036 267.152 160.898 266.673 160.898ZM272.244 167.68V160.883H270.986V159.226H272.244V158.836C272.254 157.773 272.58 156.956 273.22 156.383C273.866 155.805 274.775 155.516 275.947 155.516C276.65 155.516 277.504 155.669 278.509 155.976L278.181 157.844C277.671 157.693 277.275 157.596 276.994 157.555C276.712 157.508 276.41 157.484 276.087 157.484C275.035 157.484 274.509 157.95 274.509 158.883V159.226H276.173V160.883H274.509V167.68H272.244ZM279.564 167.68H277.298V159.226H279.564V167.68ZM284.65 161.75L286.072 159.226H288.486L286.08 163.367L288.587 167.68H286.165L284.658 165.023L283.158 167.68H280.728L283.236 163.367L280.837 159.226H283.259L284.65 161.75ZM289.681 166.57C289.681 166.211 289.801 165.919 290.04 165.695C290.285 165.471 290.59 165.359 290.955 165.359C291.324 165.359 291.629 165.471 291.869 165.695C292.113 165.919 292.236 166.211 292.236 166.57C292.236 166.924 292.116 167.213 291.876 167.437C291.637 167.656 291.33 167.766 290.955 167.766C290.585 167.766 290.28 167.656 290.04 167.437C289.801 167.213 289.681 166.924 289.681 166.57ZM289.681 160.172C289.681 159.812 289.801 159.521 290.04 159.297C290.285 159.073 290.59 158.961 290.955 158.961C291.324 158.961 291.629 159.073 291.869 159.297C292.113 159.521 292.236 159.812 292.236 160.172C292.236 160.526 292.116 160.815 291.876 161.039C291.637 161.258 291.33 161.367 290.955 161.367C290.585 161.367 290.28 161.258 290.04 161.039C289.801 160.815 289.681 160.526 289.681 160.172ZM298.22 167.68V156.305H301.72C302.72 156.305 303.613 156.531 304.4 156.984C305.192 157.432 305.809 158.073 306.251 158.906C306.694 159.734 306.915 160.677 306.915 161.734V162.258C306.915 163.315 306.697 164.255 306.259 165.078C305.827 165.901 305.215 166.539 304.423 166.992C303.632 167.445 302.738 167.674 301.744 167.68H298.22ZM300.564 158.203V165.797H301.697C302.613 165.797 303.314 165.497 303.798 164.898C304.283 164.299 304.53 163.443 304.54 162.328V161.726C304.54 160.57 304.301 159.695 303.822 159.101C303.343 158.502 302.642 158.203 301.72 158.203H300.564ZM308.626 167.68V156.305H312.126C313.126 156.305 314.02 156.531 314.806 156.984C315.598 157.432 316.215 158.073 316.658 158.906C317.1 159.734 317.322 160.677 317.322 161.734V162.258C317.322 163.315 317.103 164.255 316.665 165.078C316.233 165.901 315.621 166.539 314.83 166.992C314.038 167.445 313.145 167.674 312.15 167.68H308.626ZM310.97 158.203V165.797H312.103C313.02 165.797 313.72 165.497 314.205 164.898C314.689 164.299 314.936 163.443 314.947 162.328V161.726C314.947 160.57 314.707 159.695 314.228 159.101C313.749 158.502 313.048 158.203 312.126 158.203H310.97Z" fill="black"/>
<path d="M0.5 176.505H395.943V206.986H0.5V176.505Z" fill="white" stroke="black"/>
<path d="M0.5 205.124H395.943V232.743H0.5V205.124Z" fill="white" stroke="black"/>
<path d="M0.5 230.881H395.943V255.638H0.5V230.881Z" fill="white" stroke="black"/>
<path d="M11.5198 197.591V187.638H14.3294C15.1953 187.638 15.9609 187.829 16.6263 188.212C17.2916 188.595 17.8043 189.14 18.1643 189.846C18.5289 190.552 18.7135 191.364 18.718 192.28V192.915C18.718 193.854 18.5358 194.677 18.1712 195.383C17.8111 196.09 17.2939 196.632 16.6194 197.01C15.9495 197.388 15.1679 197.582 14.2747 197.591H11.5198ZM12.8323 188.718V196.518H14.2132C15.2249 196.518 16.011 196.203 16.5716 195.575C17.1367 194.946 17.4192 194.05 17.4192 192.888V192.307C17.4192 191.177 17.1526 190.3 16.6194 189.675C16.0908 189.046 15.3388 188.727 14.3636 188.718H12.8323ZM20.7073 197.591V187.638H23.5169C24.3828 187.638 25.1484 187.829 25.8138 188.212C26.4791 188.595 26.9918 189.14 27.3518 189.846C27.7164 190.552 27.901 191.364 27.9055 192.28V192.915C27.9055 193.854 27.7233 194.677 27.3587 195.383C26.9986 196.09 26.4814 196.632 25.8069 197.01C25.137 197.388 24.3554 197.582 23.4622 197.591H20.7073ZM22.0198 188.718V196.518H23.4007C24.4124 196.518 25.1985 196.203 25.7591 195.575C26.3242 194.946 26.6067 194.05 26.6067 192.888V192.307C26.6067 191.177 26.3401 190.3 25.8069 189.675C25.2783 189.046 24.5263 188.727 23.5511 188.718H22.0198ZM32.3284 193.879H28.9925V192.847H32.3284V193.879ZM38.3987 187.631V188.704H38.1663C37.1819 188.723 36.3981 189.014 35.8147 189.579C35.2314 190.145 34.8942 190.94 34.803 191.965C35.3271 191.364 36.0426 191.063 36.9495 191.063C37.8154 191.063 38.5058 191.368 39.0208 191.979C39.5403 192.59 39.8001 193.378 39.8001 194.344C39.8001 195.37 39.5198 196.19 38.9593 196.805C38.4033 197.42 37.6559 197.728 36.7171 197.728C35.7646 197.728 34.9921 197.363 34.3997 196.634C33.8072 195.9 33.511 194.957 33.511 193.804V193.319C33.511 191.487 33.9007 190.088 34.68 189.121C35.4638 188.151 36.6282 187.654 38.1731 187.631H38.3987ZM36.7376 192.116C36.3046 192.116 35.9059 192.245 35.5413 192.505C35.1767 192.765 34.9238 193.091 34.7825 193.483V193.948C34.7825 194.768 34.9671 195.429 35.3362 195.93C35.7054 196.431 36.1656 196.682 36.7171 196.682C37.2867 196.682 37.7333 196.472 38.0569 196.053C38.385 195.634 38.5491 195.085 38.5491 194.406C38.5491 193.722 38.3828 193.171 38.0501 192.751C37.722 192.328 37.2845 192.116 36.7376 192.116ZM46.26 187.631V188.704H46.0276C45.0432 188.723 44.2594 189.014 43.6761 189.579C43.0927 190.145 42.7555 190.94 42.6643 191.965C43.1884 191.364 43.9039 191.063 44.8108 191.063C45.6767 191.063 46.3671 191.368 46.8821 191.979C47.4016 192.59 47.6614 193.378 47.6614 194.344C47.6614 195.37 47.3811 196.19 46.8206 196.805C46.2646 197.42 45.5172 197.728 44.5784 197.728C43.6259 197.728 42.8535 197.363 42.261 196.634C41.6686 195.9 41.3723 194.957 41.3723 193.804V193.319C41.3723 191.487 41.762 190.088 42.5413 189.121C43.3251 188.151 44.4895 187.654 46.0345 187.631H46.26ZM44.5989 192.116C44.166 192.116 43.7672 192.245 43.4026 192.505C43.038 192.765 42.7851 193.091 42.6438 193.483V193.948C42.6438 194.768 42.8284 195.429 43.1975 195.93C43.5667 196.431 44.027 196.682 44.5784 196.682C45.1481 196.682 45.5947 196.472 45.9182 196.053C46.2464 195.634 46.4104 195.085 46.4104 194.406C46.4104 193.722 46.2441 193.171 45.9114 192.751C45.5833 192.328 45.1458 192.116 44.5989 192.116ZM54.4973 194.248H55.8782V195.281H54.4973V197.591H53.2259V195.281H48.6936V194.536L53.1507 187.638H54.4973V194.248ZM50.1292 194.248H53.2259V189.368L53.0755 189.641L50.1292 194.248ZM57.6009 192.601L58.1067 187.638H63.2063V188.807H59.18L58.8792 191.521C59.3668 191.234 59.9205 191.09 60.5403 191.09C61.4472 191.09 62.1673 191.391 62.7005 191.993C63.2337 192.59 63.5003 193.398 63.5003 194.419C63.5003 195.445 63.2223 196.254 62.6663 196.846C62.1149 197.434 61.3424 197.728 60.3489 197.728C59.4694 197.728 58.7516 197.484 58.1956 196.996C57.6396 196.509 57.3229 195.834 57.2454 194.973H58.4417C58.5192 195.543 58.722 195.973 59.0501 196.265C59.3782 196.552 59.8111 196.696 60.3489 196.696C60.9368 196.696 61.3971 196.495 61.7298 196.094C62.067 195.693 62.2356 195.139 62.2356 194.433C62.2356 193.768 62.0533 193.234 61.6888 192.833C61.3287 192.428 60.8479 192.225 60.2464 192.225C59.6949 192.225 59.262 192.346 58.9475 192.587L58.6126 192.861L57.6009 192.601ZM69.844 187.631V188.704H69.6116C68.6272 188.723 67.8434 189.014 67.26 189.579C66.6767 190.145 66.3395 190.94 66.2483 191.965C66.7724 191.364 67.4879 191.063 68.3948 191.063C69.2607 191.063 69.9511 191.368 70.4661 191.979C70.9856 192.59 71.2454 193.378 71.2454 194.344C71.2454 195.37 70.9651 196.19 70.4046 196.805C69.8486 197.42 69.1012 197.728 68.1624 197.728C67.2099 197.728 66.4374 197.363 65.845 196.634C65.2526 195.9 64.9563 194.957 64.9563 193.804V193.319C64.9563 191.487 65.346 190.088 66.1253 189.121C66.9091 188.151 68.0735 187.654 69.6184 187.631H69.844ZM68.1829 192.116C67.7499 192.116 67.3512 192.245 66.9866 192.505C66.622 192.765 66.3691 193.091 66.2278 193.483V193.948C66.2278 194.768 66.4124 195.429 66.7815 195.93C67.1507 196.431 67.611 196.682 68.1624 196.682C68.732 196.682 69.1787 196.472 69.5022 196.053C69.8304 195.634 69.9944 195.085 69.9944 194.406C69.9944 193.722 69.8281 193.171 69.4954 192.751C69.1673 192.328 68.7298 192.116 68.1829 192.116ZM74.5813 191.999H75.5315C76.1285 191.99 76.5979 191.833 76.9397 191.528C77.2815 191.222 77.4524 190.81 77.4524 190.29C77.4524 189.124 76.8714 188.54 75.7093 188.54C75.1624 188.54 74.7249 188.698 74.3968 189.012C74.0732 189.322 73.9114 189.734 73.9114 190.249H72.6468C72.6468 189.461 72.9339 188.807 73.5081 188.287C74.0869 187.763 74.8206 187.501 75.7093 187.501C76.6481 187.501 77.3841 187.75 77.9173 188.246C78.4505 188.743 78.7171 189.434 78.7171 190.318C78.7171 190.751 78.5758 191.17 78.2932 191.576C78.0152 191.981 77.6347 192.284 77.1516 192.485C77.6985 192.658 78.1201 192.945 78.4163 193.346C78.7171 193.747 78.8675 194.237 78.8675 194.816C78.8675 195.709 78.5758 196.418 77.9925 196.942C77.4091 197.466 76.6503 197.728 75.7161 197.728C74.7819 197.728 74.0208 197.475 73.4329 196.969C72.8496 196.463 72.5579 195.796 72.5579 194.966H73.8294C73.8294 195.49 74.0003 195.91 74.3421 196.224C74.6839 196.538 75.1419 196.696 75.7161 196.696C76.3268 196.696 76.7939 196.536 77.1175 196.217C77.441 195.898 77.6028 195.44 77.6028 194.843C77.6028 194.264 77.4251 193.82 77.0696 193.51C76.7141 193.2 76.2014 193.041 75.5315 193.032H74.5813V191.999Z" fill="black"/>
<path d="M11.5198 223.348V213.395H14.3294C15.1953 213.395 15.9609 213.586 16.6263 213.969C17.2916 214.352 17.8043 214.897 18.1643 215.603C18.5289 216.309 18.7135 217.121 18.718 218.037V218.672C18.718 219.611 18.5358 220.434 18.1712 221.14C17.8111 221.846 17.2939 222.389 16.6194 222.767C15.9495 223.145 15.1679 223.339 14.2747 223.348H11.5198ZM12.8323 214.475V222.275H14.2132C15.2249 222.275 16.011 221.96 16.5716 221.331C17.1367 220.703 17.4192 219.807 17.4192 218.645V218.064C17.4192 216.934 17.1526 216.056 16.6194 215.432C16.0908 214.803 15.3388 214.484 14.3636 214.475H12.8323ZM20.7073 223.348V213.395H23.5169C24.3828 213.395 25.1484 213.586 25.8138 213.969C26.4791 214.352 26.9918 214.897 27.3518 215.603C27.7164 216.309 27.901 217.121 27.9055 218.037V218.672C27.9055 219.611 27.7233 220.434 27.3587 221.14C26.9986 221.846 26.4814 222.389 25.8069 222.767C25.137 223.145 24.3554 223.339 23.4622 223.348H20.7073ZM22.0198 214.475V222.275H23.4007C24.4124 222.275 25.1985 221.96 25.7591 221.331C26.3242 220.703 26.6067 219.807 26.6067 218.645V218.064C26.6067 216.934 26.3401 216.056 25.8069 215.432C25.2783 214.803 24.5263 214.484 23.5511 214.475H22.0198ZM32.3284 219.636H28.9925V218.604H32.3284V219.636ZM39.9573 223.348H33.4358V222.439L36.8811 218.611C37.3916 218.032 37.7425 217.563 37.9339 217.203C38.1298 216.838 38.2278 216.462 38.2278 216.075C38.2278 215.555 38.0706 215.129 37.7561 214.796C37.4417 214.464 37.0224 214.297 36.4983 214.297C35.8694 214.297 35.3795 214.477 35.0286 214.837C34.6822 215.193 34.5091 215.69 34.5091 216.328H33.2444C33.2444 215.412 33.5384 214.671 34.1263 214.106C34.7187 213.541 35.5094 213.258 36.4983 213.258C37.4235 213.258 38.1549 213.502 38.6927 213.99C39.2304 214.473 39.4993 215.118 39.4993 215.924C39.4993 216.904 38.8749 218.071 37.6263 219.424L34.9602 222.316H39.9573V223.348ZM43.136 217.756H44.0862C44.6832 217.747 45.1526 217.59 45.4944 217.285C45.8362 216.979 46.0071 216.567 46.0071 216.047C46.0071 214.881 45.4261 214.297 44.2639 214.297C43.7171 214.297 43.2796 214.455 42.9514 214.769C42.6279 215.079 42.4661 215.491 42.4661 216.006H41.2014C41.2014 215.218 41.4886 214.564 42.0628 214.044C42.6416 213.52 43.3753 213.258 44.2639 213.258C45.2027 213.258 45.9388 213.507 46.472 214.003C47.0052 214.5 47.2718 215.191 47.2718 216.075C47.2718 216.508 47.1305 216.927 46.8479 217.332C46.5699 217.738 46.1894 218.041 45.7063 218.242C46.2532 218.415 46.6748 218.702 46.971 219.103C47.2718 219.504 47.4221 219.994 47.4221 220.573C47.4221 221.466 47.1305 222.175 46.5471 222.699C45.9638 223.223 45.205 223.485 44.2708 223.485C43.3365 223.485 42.5755 223.232 41.9876 222.726C41.4042 222.22 41.1126 221.553 41.1126 220.723H42.3841C42.3841 221.247 42.555 221.666 42.8968 221.981C43.2386 222.295 43.6966 222.453 44.2708 222.453C44.8815 222.453 45.3486 222.293 45.6721 221.974C45.9957 221.655 46.1575 221.197 46.1575 220.6C46.1575 220.021 45.9798 219.577 45.6243 219.267C45.2688 218.957 44.7561 218.798 44.0862 218.789H43.136V217.756ZM54.4973 220.005H55.8782V221.038H54.4973V223.348H53.2259V221.038H48.6936V220.292L53.1507 213.395H54.4973V220.005ZM50.1292 220.005H53.2259V215.124L53.0755 215.398L50.1292 220.005ZM63.261 219.103C63.261 220.584 63.0081 221.685 62.5022 222.405C61.9964 223.125 61.2057 223.485 60.1302 223.485C59.0683 223.485 58.2822 223.134 57.7718 222.432C57.2613 221.726 56.997 220.673 56.9788 219.274V217.585C56.9788 216.122 57.2317 215.036 57.7376 214.325C58.2434 213.614 59.0364 213.258 60.1165 213.258C61.1874 213.258 61.9759 213.602 62.4817 214.29C62.9876 214.974 63.2473 216.031 63.261 217.462V219.103ZM61.9964 217.373C61.9964 216.303 61.846 215.523 61.5452 215.036C61.2444 214.543 60.7682 214.297 60.1165 214.297C59.4694 214.297 58.9977 214.541 58.7014 215.029C58.4052 215.516 58.2526 216.266 58.2434 217.278V219.301C58.2434 220.377 58.3984 221.172 58.7083 221.687C59.0227 222.197 59.4967 222.453 60.1302 222.453C60.7545 222.453 61.2171 222.211 61.5179 221.728C61.8232 221.245 61.9827 220.484 61.9964 219.445V217.373ZM71.1223 219.103C71.1223 220.584 70.8694 221.685 70.3636 222.405C69.8577 223.125 69.067 223.485 67.9915 223.485C66.9296 223.485 66.1435 223.134 65.6331 222.432C65.1227 221.726 64.8583 220.673 64.8401 219.274V217.585C64.8401 216.122 65.093 215.036 65.5989 214.325C66.1048 213.614 66.8977 213.258 67.9778 213.258C69.0488 213.258 69.8372 213.602 70.343 214.29C70.8489 214.974 71.1087 216.031 71.1223 217.462V219.103ZM69.8577 217.373C69.8577 216.303 69.7073 215.523 69.4065 215.036C69.1057 214.543 68.6295 214.297 67.9778 214.297C67.3307 214.297 66.859 214.541 66.5628 215.029C66.2666 215.516 66.1139 216.266 66.1048 217.278V219.301C66.1048 220.377 66.2597 221.172 66.5696 221.687C66.8841 222.197 67.358 222.453 67.9915 222.453C68.6158 222.453 69.0784 222.211 69.3792 221.728C69.6845 221.245 69.844 220.484 69.8577 219.445V217.373ZM74.5813 217.756H75.5315C76.1285 217.747 76.5979 217.59 76.9397 217.285C77.2815 216.979 77.4524 216.567 77.4524 216.047C77.4524 214.881 76.8714 214.297 75.7093 214.297C75.1624 214.297 74.7249 214.455 74.3968 214.769C74.0732 215.079 73.9114 215.491 73.9114 216.006H72.6468C72.6468 215.218 72.9339 214.564 73.5081 214.044C74.0869 213.52 74.8206 213.258 75.7093 213.258C76.6481 213.258 77.3841 213.507 77.9173 214.003C78.4505 214.5 78.7171 215.191 78.7171 216.075C78.7171 216.508 78.5758 216.927 78.2932 217.332C78.0152 217.738 77.6347 218.041 77.1516 218.242C77.6985 218.415 78.1201 218.702 78.4163 219.103C78.7171 219.504 78.8675 219.994 78.8675 220.573C78.8675 221.466 78.5758 222.175 77.9925 222.699C77.4091 223.223 76.6503 223.485 75.7161 223.485C74.7819 223.485 74.0208 223.232 73.4329 222.726C72.8496 222.22 72.5579 221.553 72.5579 220.723H73.8294C73.8294 221.247 74.0003 221.666 74.3421 221.981C74.6839 222.295 75.1419 222.453 75.7161 222.453C76.3268 222.453 76.7939 222.293 77.1175 221.974C77.441 221.655 77.6028 221.197 77.6028 220.6C77.6028 220.021 77.4251 219.577 77.0696 219.267C76.7141 218.957 76.2014 218.798 75.5315 218.789H74.5813V217.756Z" fill="black"/>
<path d="M11.5198 249.105V239.152H14.3294C15.1953 239.152 15.9609 239.343 16.6263 239.726C17.2916 240.109 17.8043 240.653 18.1643 241.36C18.5289 242.066 18.7135 242.877 18.718 243.793V244.429C18.718 245.368 18.5358 246.191 18.1712 246.897C17.8111 247.603 17.2939 248.146 16.6194 248.524C15.9495 248.902 15.1679 249.096 14.2747 249.105H11.5198ZM12.8323 240.232V248.032H14.2132C15.2249 248.032 16.011 247.717 16.5716 247.088C17.1367 246.459 17.4192 245.564 17.4192 244.402V243.821C17.4192 242.691 17.1526 241.813 16.6194 241.189C16.0908 240.56 15.3388 240.241 14.3636 240.232H12.8323ZM20.7073 249.105V239.152H23.5169C24.3828 239.152 25.1484 239.343 25.8138 239.726C26.4791 240.109 26.9918 240.653 27.3518 241.36C27.7164 242.066 27.901 242.877 27.9055 243.793V244.429C27.9055 245.368 27.7233 246.191 27.3587 246.897C26.9986 247.603 26.4814 248.146 25.8069 248.524C25.137 248.902 24.3554 249.096 23.4622 249.105H20.7073ZM22.0198 240.232V248.032H23.4007C24.4124 248.032 25.1985 247.717 25.7591 247.088C26.3242 246.459 26.6067 245.564 26.6067 244.402V243.821C26.6067 242.691 26.3401 241.813 25.8069 241.189C25.2783 240.56 24.5263 240.241 23.5511 240.232H22.0198ZM32.3284 245.393H28.9925V244.361H32.3284V245.393ZM39.9573 249.105H33.4358V248.196L36.8811 244.368C37.3916 243.789 37.7425 243.319 37.9339 242.959C38.1298 242.595 38.2278 242.219 38.2278 241.832C38.2278 241.312 38.0706 240.886 37.7561 240.553C37.4417 240.221 37.0224 240.054 36.4983 240.054C35.8694 240.054 35.3795 240.234 35.0286 240.594C34.6822 240.95 34.5091 241.446 34.5091 242.084H33.2444C33.2444 241.168 33.5384 240.428 34.1263 239.863C34.7187 239.298 35.5094 239.015 36.4983 239.015C37.4235 239.015 38.1549 239.259 38.6927 239.747C39.2304 240.23 39.4993 240.875 39.4993 241.681C39.4993 242.661 38.8749 243.828 37.6263 245.181L34.9602 248.073H39.9573V249.105ZM43.136 243.513H44.0862C44.6832 243.504 45.1526 243.347 45.4944 243.042C45.8362 242.736 46.0071 242.324 46.0071 241.804C46.0071 240.638 45.4261 240.054 44.2639 240.054C43.7171 240.054 43.2796 240.211 42.9514 240.526C42.6279 240.836 42.4661 241.248 42.4661 241.763H41.2014C41.2014 240.975 41.4886 240.321 42.0628 239.801C42.6416 239.277 43.3753 239.015 44.2639 239.015C45.2027 239.015 45.9388 239.264 46.472 239.76C47.0052 240.257 47.2718 240.947 47.2718 241.832C47.2718 242.264 47.1305 242.684 46.8479 243.089C46.5699 243.495 46.1894 243.798 45.7063 243.999C46.2532 244.172 46.6748 244.459 46.971 244.86C47.2718 245.261 47.4221 245.751 47.4221 246.33C47.4221 247.223 47.1305 247.931 46.5471 248.456C45.9638 248.98 45.205 249.242 44.2708 249.242C43.3365 249.242 42.5755 248.989 41.9876 248.483C41.4042 247.977 41.1126 247.309 41.1126 246.48H42.3841C42.3841 247.004 42.555 247.423 42.8968 247.738C43.2386 248.052 43.6966 248.209 44.2708 248.209C44.8815 248.209 45.3486 248.05 45.6721 247.731C45.9957 247.412 46.1575 246.954 46.1575 246.357C46.1575 245.778 45.9798 245.334 45.6243 245.024C45.2688 244.714 44.7561 244.555 44.0862 244.545H43.136V243.513ZM54.4973 245.762H55.8782V246.794H54.4973V249.105H53.2259V246.794H48.6936V246.049L53.1507 239.152H54.4973V245.762ZM50.1292 245.762H53.2259V240.881L53.0755 241.155L50.1292 245.762ZM63.261 244.86C63.261 246.341 63.0081 247.442 62.5022 248.162C61.9964 248.882 61.2057 249.242 60.1302 249.242C59.0683 249.242 58.2822 248.891 57.7718 248.189C57.2613 247.483 56.997 246.43 56.9788 245.031V243.342C56.9788 241.879 57.2317 240.792 57.7376 240.082C58.2434 239.371 59.0364 239.015 60.1165 239.015C61.1874 239.015 61.9759 239.359 62.4817 240.047C62.9876 240.731 63.2473 241.788 63.261 243.219V244.86ZM61.9964 243.13C61.9964 242.059 61.846 241.28 61.5452 240.792C61.2444 240.3 60.7682 240.054 60.1165 240.054C59.4694 240.054 58.9977 240.298 58.7014 240.786C58.4052 241.273 58.2526 242.023 58.2434 243.035V245.058C58.2434 246.134 58.3984 246.929 58.7083 247.444C59.0227 247.954 59.4967 248.209 60.1302 248.209C60.7545 248.209 61.2171 247.968 61.5179 247.485C61.8232 247.002 61.9827 246.241 61.9964 245.202V243.13ZM66.72 243.513H67.6702C68.2672 243.504 68.7366 243.347 69.0784 243.042C69.4202 242.736 69.5911 242.324 69.5911 241.804C69.5911 240.638 69.01 240.054 67.8479 240.054C67.3011 240.054 66.8636 240.211 66.5354 240.526C66.2119 240.836 66.0501 241.248 66.0501 241.763H64.7854C64.7854 240.975 65.0725 240.321 65.6468 239.801C66.2255 239.277 66.9593 239.015 67.8479 239.015C68.7867 239.015 69.5227 239.264 70.0559 239.76C70.5891 240.257 70.8557 240.947 70.8557 241.832C70.8557 242.264 70.7145 242.684 70.4319 243.089C70.1539 243.495 69.7734 243.798 69.2903 243.999C69.8372 244.172 70.2587 244.459 70.555 244.86C70.8557 245.261 71.0061 245.751 71.0061 246.33C71.0061 247.223 70.7145 247.931 70.1311 248.456C69.5478 248.98 68.789 249.242 67.8548 249.242C66.9205 249.242 66.1595 248.989 65.5716 248.483C64.9882 247.977 64.6966 247.309 64.6966 246.48H65.968C65.968 247.004 66.1389 247.423 66.4807 247.738C66.8225 248.052 67.2805 248.209 67.8548 248.209C68.4654 248.209 68.9326 248.05 69.2561 247.731C69.5797 247.412 69.7415 246.954 69.7415 246.357C69.7415 245.778 69.5638 245.334 69.2083 245.024C68.8528 244.714 68.3401 244.555 67.6702 244.545H66.72V243.513ZM79.2639 249.105H72.7425V248.196L76.1878 244.368C76.6982 243.789 77.0491 243.319 77.2405 242.959C77.4365 242.595 77.5345 242.219 77.5345 241.832C77.5345 241.312 77.3772 240.886 77.0628 240.553C76.7483 240.221 76.3291 240.054 75.805 240.054C75.1761 240.054 74.6861 240.234 74.3352 240.594C73.9889 240.95 73.8157 241.446 73.8157 242.084H72.5511C72.5511 241.168 72.845 240.428 73.4329 239.863C74.0253 239.298 74.816 239.015 75.805 239.015C76.7301 239.015 77.4615 239.259 77.9993 239.747C78.5371 240.23 78.8059 240.875 78.8059 241.681C78.8059 242.661 78.1816 243.828 76.9329 245.181L74.2669 248.073H79.2639V249.105Z" fill="black"/>
</svg>
