<svg width="38" height="38" viewBox="0 0 42 42" fill="none" xmlns="http://www.w3.org/2000/svg">
<path d="M30.2462 13.9024C29.5158 13.2872 28.5883 12.9932 27.6381 13.0749C26.6865 13.1565 25.8239 13.6037 25.209 14.3342L19.8669 20.6782L17.2886 17.9969C15.9225 16.5759 13.6547 16.5314 12.2339 17.8977C11.5455 18.5595 11.1561 19.4498 11.1374 20.4045C11.1186 21.3593 11.4729 22.2642 12.1348 22.9525L17.4659 28.4971C18.1362 29.1943 19.0754 29.5942 20.0427 29.5942C20.0817 29.5942 20.1207 29.5935 20.1606 29.5923C21.1721 29.559 22.1259 29.0959 22.7774 28.322L30.678 18.9397C31.2932 18.2094 31.587 17.2831 31.5055 16.3317C31.4237 15.3802 30.9766 14.5174 30.2462 13.9024V13.9024ZM29.4231 17.8827L21.5224 27.2652C21.1699 27.6839 20.6539 27.9343 20.1076 27.9524C19.5614 27.9696 19.0263 27.7526 18.6486 27.3599L13.3174 21.8153C12.9593 21.4428 12.7677 20.9531 12.7778 20.4366C12.7879 19.92 12.9986 19.4383 13.371 19.0802C13.7455 18.7201 14.2288 18.5412 14.7114 18.5412C15.2195 18.5412 15.727 18.7396 16.1061 19.1339L19.316 22.4722C19.4771 22.6399 19.7016 22.7304 19.9343 22.7235C20.1668 22.7158 20.385 22.6098 20.5348 22.432L26.4641 15.3908C26.7968 14.9955 27.2635 14.7536 27.7783 14.7094C28.2924 14.665 28.7942 14.8243 29.1895 15.1571C29.5847 15.4899 29.8267 15.9568 29.8708 16.4715C29.9149 16.9863 29.7559 17.4876 29.4231 17.8827V17.8827Z" fill="#13A0FE"/>
<path d="M20.9999 4.76562C12.0483 4.76562 4.76562 12.0483 4.76562 20.9999C4.76562 29.9516 12.0483 37.2343 20.9999 37.2343C29.9516 37.2343 37.2342 29.9516 37.2342 20.9999C37.2342 12.0483 29.9516 4.76562 20.9999 4.76562V4.76562ZM20.9999 35.5937C12.9529 35.5937 6.40625 29.047 6.40625 21C6.40625 12.9531 12.9529 6.40625 20.9999 6.40625C29.047 6.40625 35.5936 12.953 35.5936 20.9999C35.5936 29.0469 29.047 35.5937 20.9999 35.5937V35.5937Z" fill="#13A0FE"/>
<path d="M40.8792 23.8198C41.4045 23.0032 42 22.0775 42 20.9998C42 19.9221 41.4045 18.9964 40.8792 18.1798C40.5275 17.6331 40.1954 17.1167 40.0888 16.6487C39.9751 16.1493 40.0512 15.5216 40.1316 14.857C40.252 13.8628 40.3764 12.8349 39.9238 11.898C39.4633 10.9447 38.5316 10.3736 37.7098 9.86957C37.1465 9.52421 36.6146 9.19806 36.3051 8.81112C35.9924 8.42007 35.7906 7.82699 35.5767 7.19904C35.2674 6.29021 34.9167 5.26015 34.0938 4.60406C33.2752 3.95142 32.1947 3.83814 31.2414 3.7383C30.5779 3.66874 29.9512 3.60312 29.4949 3.38335C29.0542 3.17106 28.6205 2.72907 28.1613 2.26125C27.4833 1.5703 26.7149 0.787229 25.6725 0.55065C24.6688 0.32285 23.6999 0.670662 22.7627 1.00699C22.1253 1.23569 21.5234 1.45176 21 1.45176C20.4766 1.45176 19.8746 1.23569 19.2373 1.00699C18.3 0.67058 17.331 0.322686 16.3274 0.55065C15.2851 0.787311 14.5167 1.57038 13.8386 2.26125C13.3795 2.72907 12.9458 3.17106 12.5052 3.38335C12.0488 3.60312 11.4222 3.66874 10.7586 3.7383C9.80528 3.83814 8.72468 3.95134 7.90617 4.60398C7.0834 5.25998 6.73271 6.29005 6.42338 7.19879C6.2096 7.82682 6.00764 8.41999 5.69486 8.81103C5.38543 9.19806 4.85338 9.52421 4.29023 9.86957C3.46828 10.3736 2.53673 10.9447 2.07621 11.898C1.62356 12.8348 1.74809 13.8628 1.86843 14.8568C1.9489 15.5214 2.02494 16.1492 1.91116 16.6486C1.80461 17.1167 1.47246 17.6331 1.12079 18.1798C0.595465 18.9965 0 19.9222 0 20.9998C0 22.0775 0.595465 23.0032 1.12079 23.8198C1.47246 24.3665 1.80461 24.8829 1.91116 25.3509C2.02486 25.8503 1.94882 26.478 1.86843 27.1426C1.748 28.1368 1.62356 29.1647 2.07621 30.1016C2.53673 31.0549 3.46836 31.6261 4.29023 32.1301C4.85346 32.4754 5.38543 32.8016 5.69486 33.1885C6.00756 33.5796 6.20944 34.1726 6.42329 34.8006C6.73263 35.7094 7.08332 36.7395 7.90617 37.3956C8.72476 38.0482 9.80528 38.1615 10.7586 38.2613C11.4221 38.3309 12.0488 38.3965 12.5051 38.6163C12.9458 38.8286 13.3795 39.2706 13.8387 39.7384C14.5167 40.4293 15.2851 41.2124 16.3275 41.449C17.3312 41.6768 18.3002 41.329 19.2373 40.9926C19.8747 40.7639 20.4766 40.5479 21 40.5479C21.5234 40.5479 22.1254 40.7639 22.7627 40.9926C23.4906 41.2539 24.2376 41.522 25.0053 41.522C25.2259 41.522 25.4484 41.4998 25.6726 41.4489C26.7149 41.2122 27.4833 40.4292 28.1614 39.7383C28.6205 39.2705 29.0542 38.8285 29.4948 38.6162C29.9512 38.3964 30.5778 38.3308 31.2414 38.2612C32.1947 38.1614 33.2753 38.0482 34.0938 37.3956C34.9166 36.7396 35.2673 35.7095 35.5766 34.8008C35.7904 34.1727 35.9924 33.5796 36.3051 33.1885C36.6146 32.8015 37.1466 32.4753 37.7098 32.13C38.5317 31.626 39.4633 31.0549 39.9238 30.1015C40.3764 29.1647 40.2519 28.1368 40.1316 27.1427C40.0511 26.4781 39.9751 25.8503 40.0888 25.3509C40.1954 24.8829 40.5275 24.3665 40.8792 23.8198V23.8198ZM39.4994 22.9323C39.0866 23.574 38.6597 24.2378 38.4891 24.9869C38.3122 25.7644 38.4091 26.5654 38.5029 27.3401C38.5991 28.1343 38.6899 28.8845 38.4467 29.388C38.1954 29.9079 37.543 30.308 36.8522 30.7315C36.1936 31.1353 35.5124 31.5531 35.0238 32.164C34.5318 32.7793 34.2735 33.5383 34.0236 34.2722C33.7637 35.0354 33.5184 35.7563 33.0711 36.1129C32.6275 36.4666 31.8712 36.5458 31.0704 36.6297C30.2965 36.7108 29.4963 36.7946 28.7828 37.1383C28.0839 37.475 27.528 38.0415 26.9903 38.5893C26.4202 39.1704 25.8815 39.7192 25.3094 39.849C24.7722 39.9712 24.0655 39.7172 23.3169 39.4485C22.5755 39.1825 21.8088 38.9072 21 38.9072C20.1912 38.9072 19.4245 39.1824 18.6831 39.4485C17.9345 39.717 17.2278 39.9711 16.6907 39.849C16.1184 39.7192 15.5799 39.1704 15.0097 38.5894C14.472 38.0415 13.9161 37.475 13.2171 37.1384C12.5037 36.7947 11.7035 36.7108 10.9296 36.6298C10.1288 36.546 9.37256 36.4667 8.92894 36.1129C8.48154 35.7563 8.2361 35.0353 7.97631 34.2721C7.72644 33.5382 7.46812 32.7793 6.97618 32.1641C6.48752 31.5531 5.80642 31.1354 5.14779 30.7315C4.45709 30.3081 3.80461 29.908 3.55335 29.388C3.31004 28.8844 3.40093 28.1342 3.49699 27.34C3.59084 26.5655 3.6878 25.7645 3.51086 24.9869C3.34031 24.2378 2.91342 23.5741 2.50056 22.9324C2.05833 22.2448 1.64062 21.5954 1.64062 20.9998C1.64062 20.4042 2.05833 19.7548 2.50056 19.0673C2.91342 18.4256 3.34031 17.7619 3.51086 17.0128C3.6878 16.2352 3.59092 15.4342 3.49707 14.6595C3.40085 13.8653 3.31013 13.1151 3.55335 12.6116C3.80461 12.0917 4.457 11.6916 5.14779 11.2681C5.80642 10.8643 6.48761 10.4466 6.97618 9.8356C7.46821 9.22037 7.72652 8.46133 7.97639 7.7274C8.23627 6.96418 8.48162 6.24329 8.92886 5.8867C9.37248 5.53298 10.1288 5.45382 10.9296 5.3699C11.7035 5.28886 12.5037 5.20502 13.2172 4.86131C13.9161 4.52465 14.472 3.95815 15.0097 3.41034C15.5798 2.82923 16.1185 2.28044 16.6906 2.15059C17.2278 2.02877 17.9346 2.28249 18.6831 2.55115C19.4245 2.81717 20.1912 3.09239 21 3.09239C21.8088 3.09239 22.5755 2.81726 23.3169 2.55115C24.0655 2.28258 24.7722 2.02844 25.3093 2.15059C25.8816 2.28044 26.4201 2.82923 26.9903 3.41026C27.528 3.95815 28.0839 4.52465 28.7829 4.86123C29.4963 5.20494 30.2965 5.28878 31.0704 5.36982C31.8712 5.45366 32.6274 5.5329 33.0711 5.8867C33.5185 6.24337 33.7639 6.96435 34.0237 7.72757C34.2736 8.46142 34.5319 9.22037 35.0238 9.83552C35.5125 10.4466 36.1936 10.8642 36.8522 11.2681C37.5429 11.6916 38.1954 12.0916 38.4467 12.6116C38.69 13.1152 38.5991 13.8654 38.503 14.6596C38.4092 15.4342 38.3122 16.2351 38.4891 17.0127C38.6597 17.7618 39.0866 18.4255 39.4994 19.0672C39.9417 19.7549 40.3594 20.4043 40.3594 20.9998C40.3594 21.5954 39.9417 22.2448 39.4994 22.9323V22.9323Z" fill="#13A0FE"/>
</svg>
