<svg width="916" height="406" viewBox="0 0 916 406" fill="none" xmlns="http://www.w3.org/2000/svg">
<rect width="916" height="406" fill="white"/>
<rect x="27" y="24" width="856" height="165" stroke="#003049" stroke-width="2"/>
<rect x="27" y="24" width="856" height="165" fill="#E8F6FF" stroke="#003049" stroke-width="2"/>
<path d="M428.277 171V165.312H432.357C435.813 165.312 437.733 162.936 437.733 160.152C437.733 157.344 435.837 154.992 432.357 154.992H424.869V171H428.277ZM431.901 162.312H428.277V157.992H431.901C433.245 157.992 434.253 158.808 434.253 160.152C434.253 161.472 433.245 162.312 431.901 162.312ZM450.022 171V168H443.254V154.992H439.846V171H450.022ZM467.336 171L461.168 154.992H456.896L450.704 171H454.592L455.6 168.288H462.464L463.448 171H467.336ZM461.528 165.288H456.536L459.032 158.4L461.528 165.288ZM483.142 171V154.992H479.734V165.048L472.318 154.992H468.814V171H472.222V160.56L479.854 171H483.142Z" fill="#13A0FE"/>
<rect x="27" y="214" width="213" height="165" fill="#E8F6FF" stroke="#003049" stroke-width="2"/>
<path d="M125.107 358C130.123 358 133.603 354.832 133.603 350.008C133.603 345.184 130.123 341.992 125.107 341.992H118.795V358H125.107ZM125.107 355H122.203V344.992H125.107C128.395 344.992 130.123 347.176 130.123 350.008C130.123 352.72 128.275 355 125.107 355ZM143.606 358.288C148.454 358.288 151.982 354.832 151.982 350.008C151.982 345.184 148.454 341.728 143.606 341.728C138.782 341.728 135.254 345.184 135.254 350.008C135.254 354.832 138.782 358.288 143.606 358.288ZM143.606 355.264C140.654 355.264 138.758 352.984 138.758 350.008C138.758 347.008 140.654 344.752 143.606 344.752C146.557 344.752 148.478 347.008 148.478 350.008C148.478 352.984 146.557 355.264 143.606 355.264Z" fill="#13A0FE"/>
<rect x="348" y="214" width="213" height="165" fill="#E8F6FF" stroke="#003049" stroke-width="2"/>
<path d="M425.457 358.288C428.985 358.288 431.001 356.344 432.153 354.352L429.225 352.936C428.553 354.256 427.113 355.264 425.457 355.264C422.553 355.264 420.441 353.032 420.441 350.008C420.441 346.984 422.553 344.752 425.457 344.752C427.113 344.752 428.553 345.784 429.225 347.08L432.153 345.64C431.025 343.648 428.985 341.728 425.457 341.728C420.657 341.728 416.937 345.088 416.937 350.008C416.937 354.928 420.657 358.288 425.457 358.288ZM448.582 358V341.992H445.15V348.28H437.59V341.992H434.182V358H437.59V351.28H445.15V358H448.582ZM463.064 358V355H455.144V351.376H462.896V348.376H455.144V344.992H463.064V341.992H451.736V358H463.064ZM473.481 358.288C477.009 358.288 479.025 356.344 480.177 354.352L477.249 352.936C476.577 354.256 475.137 355.264 473.481 355.264C470.577 355.264 468.465 353.032 468.465 350.008C468.465 346.984 470.577 344.752 473.481 344.752C475.137 344.752 476.577 345.784 477.249 347.08L480.177 345.64C479.049 343.648 477.009 341.728 473.481 341.728C468.681 341.728 464.961 345.088 464.961 350.008C464.961 354.928 468.681 358.288 473.481 358.288ZM495.909 358L489.117 349.504L495.477 341.992H491.277L485.613 349.144V341.992H482.205V358H485.613V353.08L486.861 351.592L491.709 358H495.909Z" fill="#13A0FE"/>
<rect x="670" y="214" width="213" height="165" fill="#E8F6FF" stroke="#003049" stroke-width="2"/>
<path d="M750.785 358L744.617 341.992H740.345L734.153 358H738.041L739.049 355.288H745.913L746.897 358H750.785ZM744.977 352.288H739.985L742.481 345.4L744.977 352.288ZM759.195 358.288C762.723 358.288 764.739 356.344 765.891 354.352L762.963 352.936C762.291 354.256 760.851 355.264 759.195 355.264C756.291 355.264 754.179 353.032 754.179 350.008C754.179 346.984 756.291 344.752 759.195 344.752C760.851 344.752 762.291 345.784 762.963 347.08L765.891 345.64C764.763 343.648 762.723 341.728 759.195 341.728C754.395 341.728 750.675 345.088 750.675 350.008C750.675 354.928 754.395 358.288 759.195 358.288ZM775.048 358V344.992H779.704V341.992H766.936V344.992H771.616V358H775.048ZM785.297 358V341.992H781.889V358H785.297ZM796.059 358.288C800.907 358.288 804.435 354.832 804.435 350.008C804.435 345.184 800.907 341.728 796.059 341.728C791.235 341.728 787.707 345.184 787.707 350.008C787.707 354.832 791.235 358.288 796.059 358.288ZM796.059 355.264C793.107 355.264 791.211 352.984 791.211 350.008C791.211 347.008 793.107 344.752 796.059 344.752C799.011 344.752 800.931 347.008 800.931 350.008C800.931 352.984 799.011 355.264 796.059 355.264ZM821.154 358V341.992H817.746V352.048L810.33 341.992H806.826V358H810.234V347.56L817.866 358H821.154Z" fill="#13A0FE"/>
<rect x="50" y="49" width="171" height="81" stroke="#003049" stroke-width="2"/>
<path d="M138.753 84V81.24H140.473V78.74H138.753V70.66H134.833L129.533 79V81.24H135.913V84H138.753ZM135.913 78.74H132.313L135.913 73.18V78.74ZM69.9256 111.24C73.9056 111.24 76.7456 108.32 76.7456 104.34C76.7456 100.36 73.9056 97.44 69.9256 97.44C65.9256 97.44 63.1056 100.36 63.1056 104.34C63.1056 108.32 65.9256 111.24 69.9256 111.24ZM69.9256 109.16C67.2256 109.16 65.5056 107.08 65.5056 104.34C65.5056 101.58 67.2256 99.52 69.9256 99.52C72.6056 99.52 74.3456 101.58 74.3456 104.34C74.3456 107.08 72.6056 109.16 69.9256 109.16ZM89.3186 111L86.0386 105.76C87.6586 105.5 89.2186 104.2 89.2186 101.84C89.2186 99.36 87.4786 97.66 84.8386 97.66H78.9786V111H81.3186V106.02H83.6586L86.5986 111H89.3186ZM84.5386 103.96H81.3186V99.72H84.5386C85.8586 99.72 86.8186 100.54 86.8186 101.82C86.8186 103.12 85.8586 103.96 84.5386 103.96ZM97.9767 111.26C100.277 111.26 102.157 110.28 103.457 108.82V103.84H97.1367V105.9H101.137V107.96C100.537 108.54 99.3367 109.16 97.9767 109.16C95.3367 109.16 93.3767 107.12 93.3767 104.34C93.3767 101.52 95.3367 99.52 97.9767 99.52C99.4567 99.52 100.717 100.3 101.437 101.3L103.337 100.2C102.277 98.68 100.577 97.44 97.9767 97.44C94.0967 97.44 90.9767 100.14 90.9767 104.34C90.9767 108.52 94.0967 111.26 97.9767 111.26ZM117.815 111L112.575 97.66H109.655L104.415 111H107.075L108.055 108.42H114.175L115.155 111H117.815ZM113.515 106.36H108.715L111.115 100L113.515 106.36ZM130.812 111V97.66H128.472V106.9L121.652 97.66H119.252V111H121.592V101.46L128.552 111H130.812ZM135.987 111V97.66H133.647V111H135.987ZM148.302 111V108.94H141.322L148.162 99.54V97.66H138.302V99.72H145.102L138.302 109.1V111H148.302ZM162.62 111L157.38 97.66H154.46L149.22 111H151.88L152.86 108.42H158.98L159.96 111H162.62ZM158.32 106.36H153.52L155.92 100L158.32 106.36ZM168.268 111V99.72H172.308V97.66H161.888V99.72H165.928V111H168.268ZM176.631 111V97.66H174.291V111H176.631ZM185.707 111.24C189.687 111.24 192.527 108.32 192.527 104.34C192.527 100.36 189.687 97.44 185.707 97.44C181.707 97.44 178.887 100.36 178.887 104.34C178.887 108.32 181.707 111.24 185.707 111.24ZM185.707 109.16C183.007 109.16 181.287 107.08 181.287 104.34C181.287 101.58 183.007 99.52 185.707 99.52C188.387 99.52 190.127 101.58 190.127 104.34C190.127 107.08 188.387 109.16 185.707 109.16ZM206.32 111V97.66H203.98V106.9L197.16 97.66H194.76V111H197.1V101.46L204.06 111H206.32Z" fill="#003049"/>
<rect x="49.5" y="240.5" width="170" height="80" stroke="#D62828" stroke-width="3"/>
<path d="M134.496 275.24C137.296 275.24 139.856 274.02 139.856 271.54C139.856 269.92 138.576 268.68 136.976 268.12C138.456 267.6 139.636 266.64 139.636 264.98C139.636 262.48 136.956 261.46 134.496 261.46C132.016 261.46 129.356 262.48 129.356 264.98C129.356 266.64 130.516 267.6 131.996 268.12C130.396 268.68 129.136 269.92 129.136 271.54C129.136 274.04 131.696 275.24 134.496 275.24ZM134.496 267C133.676 266.88 132.236 266.42 132.236 265.42C132.236 264.46 133.176 263.9 134.496 263.9C135.796 263.9 136.736 264.46 136.736 265.42C136.736 266.42 135.316 266.88 134.496 267ZM134.496 272.8C133.096 272.8 132.016 272.16 132.016 271.18C132.016 270.06 133.656 269.52 134.496 269.4C135.316 269.52 136.976 270.06 136.976 271.18C136.976 272.16 135.856 272.8 134.496 272.8ZM87.0819 302.24C91.0619 302.24 93.9019 299.32 93.9019 295.34C93.9019 291.36 91.0619 288.44 87.0819 288.44C83.0819 288.44 80.2619 291.36 80.2619 295.34C80.2619 299.32 83.0819 302.24 87.0819 302.24ZM87.0819 300.16C84.3819 300.16 82.6619 298.08 82.6619 295.34C82.6619 292.58 84.3819 290.52 87.0819 290.52C89.7619 290.52 91.5019 292.58 91.5019 295.34C91.5019 298.08 89.7619 300.16 87.0819 300.16ZM98.4748 302V297H102.015C104.795 297 106.355 295.1 106.355 292.84C106.355 290.56 104.815 288.66 102.015 288.66H96.1348V302H98.4748ZM101.695 294.94H98.4748V290.72H101.695C103.015 290.72 103.955 291.56 103.955 292.84C103.955 294.1 103.015 294.94 101.695 294.94ZM117.462 302V299.94H110.662V296.22H117.322V294.16H110.662V290.72H117.462V288.66H108.322V302H117.462ZM130.205 302L126.925 296.76C128.545 296.5 130.105 295.2 130.105 292.84C130.105 290.36 128.365 288.66 125.725 288.66H119.865V302H122.205V297.02H124.545L127.485 302H130.205ZM125.425 294.96H122.205V290.72H125.425C126.745 290.72 127.705 291.54 127.705 292.82C127.705 294.12 126.745 294.96 125.425 294.96ZM144.463 302L139.223 288.66H136.303L131.063 302H133.723L134.703 299.42H140.823L141.803 302H144.463ZM140.163 297.36H135.363L137.763 291L140.163 297.36ZM150.112 302V290.72H154.152V288.66H143.732V290.72H147.772V302H150.112ZM158.475 302V288.66H156.135V302H158.475ZM167.551 302.24C171.531 302.24 174.371 299.32 174.371 295.34C174.371 291.36 171.531 288.44 167.551 288.44C163.551 288.44 160.731 291.36 160.731 295.34C160.731 299.32 163.551 302.24 167.551 302.24ZM167.551 300.16C164.851 300.16 163.131 298.08 163.131 295.34C163.131 292.58 164.851 290.52 167.551 290.52C170.231 290.52 171.971 292.58 171.971 295.34C171.971 298.08 170.231 300.16 167.551 300.16ZM188.164 302V288.66H185.824V297.9L179.004 288.66H176.604V302H178.944V292.46L185.904 302H188.164Z" fill="#003049"/>
<rect x="368.5" y="240.5" width="170" height="80" stroke="#FFEF00" stroke-width="3"/>
<path d="M453.176 267.22C457.116 267.22 459.376 264.36 459.376 260.34C459.376 256.56 457.676 253.44 453.636 253.44C450.596 253.44 448.516 255.42 448.516 258.02C448.516 260.86 450.676 262.36 453.076 262.36C454.536 262.36 455.876 261.54 456.516 260.64C456.516 260.74 456.516 260.84 456.516 260.94C456.516 262.86 455.376 264.7 453.176 264.7C451.996 264.7 451.236 264.34 450.516 263.66L449.256 265.84C450.196 266.68 451.556 267.22 453.176 267.22ZM453.876 259.92C452.636 259.92 451.416 259.32 451.416 257.92C451.416 257 452.256 255.96 453.776 255.96C455.656 255.96 456.376 257.4 456.496 258.68C455.856 259.46 454.876 259.92 453.876 259.92ZM385.172 289V284H388.712C391.492 284 393.052 282.1 393.052 279.84C393.052 277.56 391.512 275.66 388.712 275.66H382.832V289H385.172ZM388.392 281.94H385.172V277.72H388.392C389.712 277.72 390.652 278.56 390.652 279.84C390.652 281.1 389.712 281.94 388.392 281.94ZM404.16 289V286.94H397.36V283.22H404.02V281.16H397.36V277.72H404.16V275.66H395.02V289H404.16ZM416.903 289L413.623 283.76C415.243 283.5 416.803 282.2 416.803 279.84C416.803 277.36 415.063 275.66 412.423 275.66H406.563V289H408.903V284.02H411.243L414.183 289H416.903ZM412.123 281.96H408.903V277.72H412.123C413.443 277.72 414.403 278.54 414.403 279.82C414.403 281.12 413.443 281.96 412.123 281.96ZM421.481 289V283.22H428.141V281.16H421.481V277.72H428.281V275.66H419.141V289H421.481ZM436.65 289.24C440.63 289.24 443.47 286.32 443.47 282.34C443.47 278.36 440.63 275.44 436.65 275.44C432.65 275.44 429.83 278.36 429.83 282.34C429.83 286.32 432.65 289.24 436.65 289.24ZM436.65 287.16C433.95 287.16 432.23 285.08 432.23 282.34C432.23 279.58 433.95 277.52 436.65 277.52C439.33 277.52 441.07 279.58 441.07 282.34C441.07 285.08 439.33 287.16 436.65 287.16ZM456.043 289L452.763 283.76C454.383 283.5 455.943 282.2 455.943 279.84C455.943 277.36 454.203 275.66 451.563 275.66H445.703V289H448.043V284.02H450.383L453.323 289H456.043ZM451.263 281.96H448.043V277.72H451.263C452.583 277.72 453.543 278.54 453.543 279.82C453.543 281.12 452.583 281.96 451.263 281.96ZM472.141 289V275.66H468.841L465.221 284.82L461.581 275.66H458.281V289H460.621V278.7L464.721 289H465.721L469.801 278.7V289H472.141ZM487.001 289L481.761 275.66H478.841L473.601 289H476.261L477.241 286.42H483.361L484.341 289H487.001ZM482.701 284.36H477.901L480.301 278L482.701 284.36ZM499.998 289V275.66H497.658V284.9L490.838 275.66H488.438V289H490.778V279.46L497.738 289H499.998ZM509.252 289.24C511.932 289.24 513.592 287.82 514.612 286.22L512.612 285.22C511.972 286.32 510.672 287.16 509.252 287.16C506.612 287.16 504.652 285.12 504.652 282.34C504.652 279.52 506.612 277.52 509.252 277.52C510.672 277.52 511.972 278.34 512.612 279.46L514.592 278.42C513.612 276.82 511.932 275.44 509.252 275.44C505.312 275.44 502.252 278.22 502.252 282.34C502.252 286.44 505.312 289.24 509.252 289.24ZM525.605 289V286.94H518.805V283.22H525.465V281.16H518.805V277.72H525.605V275.66H516.465V289H525.605ZM404.853 311V308.94H398.053V305.22H404.713V303.16H398.053V299.72H404.853V297.66H395.713V311H404.853ZM414.036 311L419.276 297.66H416.616L412.576 308.44L408.536 297.66H405.876L411.116 311H414.036ZM431.737 311L426.497 297.66H423.577L418.337 311H420.997L421.977 308.42H428.097L429.077 311H431.737ZM427.437 306.36H422.637L425.037 300L427.437 306.36ZM441.234 311V308.94H435.354V297.66H433.014V311H441.234ZM448.563 311.24C452.443 311.24 454.343 309.02 454.343 305.72V297.66H451.963V305.66C451.963 307.78 450.783 309.16 448.563 309.16C446.343 309.16 445.163 307.78 445.163 305.66V297.66H442.783V305.72C442.783 309.02 444.703 311.24 448.563 311.24ZM468.592 311L463.352 297.66H460.432L455.192 311H457.852L458.832 308.42H464.952L465.932 311H468.592ZM464.292 306.36H459.492L461.892 300L464.292 306.36ZM474.241 311V299.72H478.281V297.66H467.861V299.72H471.901V311H474.241ZM482.604 311V297.66H480.264V311H482.604ZM491.68 311.24C495.66 311.24 498.5 308.32 498.5 304.34C498.5 300.36 495.66 297.44 491.68 297.44C487.68 297.44 484.86 300.36 484.86 304.34C484.86 308.32 487.68 311.24 491.68 311.24ZM491.68 309.16C488.98 309.16 487.26 307.08 487.26 304.34C487.26 301.58 488.98 299.52 491.68 299.52C494.36 299.52 496.1 301.58 496.1 304.34C496.1 307.08 494.36 309.16 491.68 309.16ZM512.293 311V297.66H509.953V306.9L503.133 297.66H500.733V311H503.073V301.46L510.033 311H512.293Z" fill="#003049"/>
<rect x="687.5" y="240.5" width="170" height="80" stroke="#FFEF00" stroke-width="3"/>
<path d="M769.088 270V256.66H766.608L762.408 260.88L764.028 262.58L766.248 260.32V270H769.088ZM776.61 270.24C780.41 270.24 782.13 266.78 782.13 263.34C782.13 259.9 780.41 256.46 776.61 256.46C772.79 256.46 771.09 259.9 771.09 263.34C771.09 266.78 772.79 270.24 776.61 270.24ZM776.61 267.72C774.69 267.72 773.97 265.8 773.97 263.34C773.97 260.88 774.69 258.98 776.61 258.98C778.51 258.98 779.23 260.88 779.23 263.34C779.23 265.8 778.51 267.72 776.61 267.72ZM705.899 297V283.66H703.559V297H705.899ZM722.594 297V283.66H719.294L715.674 292.82L712.034 283.66H708.734V297H711.074V286.7L715.174 297H716.174L720.254 286.7V297H722.594ZM727.774 297V292H731.314C734.094 292 735.654 290.1 735.654 287.84C735.654 285.56 734.114 283.66 731.314 283.66H725.434V297H727.774ZM730.994 289.94H727.774V285.72H730.994C732.314 285.72 733.254 286.56 733.254 287.84C733.254 289.1 732.314 289.94 730.994 289.94ZM747.961 297L744.681 291.76C746.301 291.5 747.861 290.2 747.861 287.84C747.861 285.36 746.121 283.66 743.481 283.66H737.621V297H739.961V292.02H742.301L745.241 297H747.961ZM743.181 289.96H739.961V285.72H743.181C744.501 285.72 745.461 286.54 745.461 287.82C745.461 289.12 744.501 289.96 743.181 289.96ZM756.439 297.24C760.419 297.24 763.259 294.32 763.259 290.34C763.259 286.36 760.419 283.44 756.439 283.44C752.439 283.44 749.619 286.36 749.619 290.34C749.619 294.32 752.439 297.24 756.439 297.24ZM756.439 295.16C753.739 295.16 752.019 293.08 752.019 290.34C752.019 287.58 753.739 285.52 756.439 285.52C759.119 285.52 760.859 287.58 760.859 290.34C760.859 293.08 759.119 295.16 756.439 295.16ZM771.882 297L777.122 283.66H774.462L770.422 294.44L766.382 283.66H763.722L768.962 297H771.882ZM787.699 297V294.94H780.899V291.22H787.559V289.16H780.899V285.72H787.699V283.66H778.559V297H787.699ZM803.962 297V283.66H800.662L797.042 292.82L793.402 283.66H790.102V297H792.442V286.7L796.542 297H797.542L801.622 286.7V297H803.962ZM815.941 297V294.94H809.141V291.22H815.801V289.16H809.141V285.72H815.941V283.66H806.801V297H815.941ZM829.904 297V283.66H827.564V292.9L820.744 283.66H818.344V297H820.684V287.46L827.644 297H829.904ZM838.258 297V285.72H842.298V283.66H831.878V285.72H835.918V297H838.258Z" fill="#003049"/>
<rect x="267" y="49" width="171" height="81" stroke="#003049" stroke-width="2"/>
<path d="M351.923 85.3206C355.143 85.3206 357.263 83.5406 357.263 80.7006C357.263 78.0006 355.243 76.3806 352.983 76.3806C351.763 76.3806 350.683 76.8606 350.043 77.5006V74.2406H356.363V71.7406H347.203V79.4006L349.183 79.9206C349.983 79.1606 350.883 78.8406 351.983 78.8406C353.503 78.8406 354.383 79.6406 354.383 80.8206C354.383 81.9006 353.483 82.8006 351.903 82.8006C350.503 82.8006 349.263 82.2806 348.363 81.3406L346.783 83.3206C347.923 84.5606 349.603 85.3206 351.923 85.3206ZM302.803 112.081V110.021H296.923V98.7406H294.583V112.081H302.803ZM314 112.081V110.021H307.2V106.301H313.86V104.241H307.2V100.801H314V98.7406H304.86V112.081H314ZM328.423 112.081L323.183 98.7406H320.263L315.023 112.081H317.683L318.663 109.501H324.783L325.763 112.081H328.423ZM324.123 107.441H319.323L321.723 101.081L324.123 107.441ZM334.84 112.081C339 112.081 341.8 109.341 341.8 105.401C341.8 101.501 339 98.7406 334.82 98.7406H329.86V112.081H334.84ZM334.82 110.021H332.2V100.801H334.84C337.8 100.801 339.4 102.841 339.4 105.401C339.4 107.941 337.72 110.021 334.82 110.021ZM353.199 112.081V110.021H346.399V106.301H353.059V104.241H346.399V100.801H353.199V98.7406H344.059V112.081H353.199ZM365.942 112.081L362.662 106.841C364.282 106.581 365.842 105.281 365.842 102.921C365.842 100.441 364.102 98.7406 361.462 98.7406H355.602V112.081H357.942V107.101H360.282L363.222 112.081H365.942ZM361.162 105.041H357.942V100.801H361.162C362.482 100.801 363.442 101.621 363.442 102.901C363.442 104.201 362.482 105.041 361.162 105.041ZM372.76 112.321C376.34 112.321 377.92 110.401 377.92 108.181C377.92 103.221 370.16 104.761 370.16 102.261C370.16 101.281 371.04 100.601 372.4 100.601C373.8 100.601 375.22 101.081 376.28 102.141L377.6 100.401C376.38 99.2006 374.68 98.5206 372.62 98.5206C369.68 98.5206 367.76 100.221 367.76 102.441C367.76 107.341 375.52 105.601 375.52 108.401C375.52 109.301 374.78 110.241 372.86 110.241C371 110.241 369.54 109.361 368.64 108.381L367.32 110.201C368.52 111.441 370.3 112.321 372.76 112.321ZM391.675 112.081V98.7406H389.335V104.181H382.395V98.7406H380.055V112.081H382.395V106.241H389.335V112.081H391.675ZM396.848 112.081V98.7406H394.508V112.081H396.848ZM402.024 112.081V107.081H405.564C408.344 107.081 409.904 105.181 409.904 102.921C409.904 100.641 408.364 98.7406 405.564 98.7406H399.684V112.081H402.024ZM405.244 105.021H402.024V100.801H405.244C406.564 100.801 407.504 101.641 407.504 102.921C407.504 104.181 406.564 105.021 405.244 105.021Z" fill="#003049"/>
<rect x="477" y="49" width="171" height="81" stroke="#003049" stroke-width="2"/>
<path d="M563.323 89.1638C566.363 89.1638 568.423 87.1838 568.423 84.5838C568.423 81.7438 566.283 80.2438 563.883 80.2438C562.423 80.2438 561.083 81.0638 560.463 81.9638C560.443 81.8638 560.443 81.7838 560.443 81.6838C560.443 79.5638 561.823 77.9038 563.783 77.9038C564.963 77.9038 565.723 78.2638 566.443 78.9438L567.723 76.7638C566.763 75.9438 565.403 75.3838 563.783 75.3838C559.843 75.3838 557.563 78.2438 557.563 82.2838C557.563 86.0438 559.263 89.1638 563.323 89.1638ZM563.163 86.6438C561.303 86.6438 560.583 85.2238 560.463 83.9438C561.103 83.1438 562.063 82.6838 563.063 82.6838C564.343 82.6838 565.543 83.2838 565.543 84.6838C565.543 85.6238 564.703 86.6438 563.163 86.6438ZM517.499 115.924V110.924H521.039C523.819 110.924 525.379 109.024 525.379 106.764C525.379 104.484 523.839 102.584 521.039 102.584H515.159V115.924H517.499ZM520.719 108.864H517.499V104.644H520.719C522.039 104.644 522.979 105.484 522.979 106.764C522.979 108.024 522.039 108.864 520.719 108.864ZM535.406 115.924V113.864H529.526V102.584H527.186V115.924H535.406ZM549.483 115.924L544.243 102.584H541.323L536.083 115.924H538.743L539.723 113.344H545.843L546.823 115.924H549.483ZM545.183 111.284H540.383L542.783 104.924L545.183 111.284ZM562.48 115.924V102.584H560.14V111.824L553.32 102.584H550.92V115.924H553.26V106.384L560.22 115.924H562.48ZM576.875 115.924V102.584H574.535V111.824L567.715 102.584H565.315V115.924H567.655V106.384L574.615 115.924H576.875ZM582.05 115.924V102.584H579.71V115.924H582.05ZM596.445 115.924V102.584H594.105V111.824L587.285 102.584H584.885V115.924H587.225V106.384L594.185 115.924H596.445ZM605.7 116.184C608 116.184 609.88 115.204 611.18 113.744V108.764H604.86V110.824H608.86V112.884C608.26 113.464 607.06 114.084 605.7 114.084C603.06 114.084 601.1 112.044 601.1 109.264C601.1 106.444 603.06 104.444 605.7 104.444C607.18 104.444 608.44 105.224 609.16 106.224L611.06 105.124C610 103.604 608.3 102.364 605.7 102.364C601.82 102.364 598.7 105.064 598.7 109.264C598.7 113.444 601.82 116.184 605.7 116.184Z" fill="#003049"/>
<rect x="687.5" y="49.5" width="170" height="80" stroke="#18A40E" stroke-width="3"/>
<path d="M772.558 88.9238L777.518 77.5638V75.5838H767.498V78.0838H774.218L769.438 88.9238H772.558ZM733.536 116.164C737.116 116.164 738.696 114.244 738.696 112.024C738.696 107.064 730.936 108.604 730.936 106.104C730.936 105.124 731.816 104.444 733.176 104.444C734.576 104.444 735.996 104.924 737.056 105.984L738.376 104.244C737.156 103.044 735.456 102.364 733.396 102.364C730.456 102.364 728.536 104.064 728.536 106.284C728.536 111.184 736.296 109.444 736.296 112.244C736.296 113.144 735.556 114.084 733.636 114.084C731.776 114.084 730.316 113.204 729.416 112.224L728.096 114.044C729.296 115.284 731.076 116.164 733.536 116.164ZM746.611 116.164C750.491 116.164 752.391 113.944 752.391 110.644V102.584H750.011V110.584C750.011 112.704 748.831 114.084 746.611 114.084C744.391 114.084 743.211 112.704 743.211 110.584V102.584H740.831V110.644C740.831 113.944 742.751 116.164 746.611 116.164ZM757.565 115.924V110.924H761.105C763.885 110.924 765.445 109.024 765.445 106.764C765.445 104.484 763.905 102.584 761.105 102.584H755.225V115.924H757.565ZM760.785 108.864H757.565V104.644H760.785C762.105 104.644 763.045 105.484 763.045 106.764C763.045 108.024 762.105 108.864 760.785 108.864ZM769.753 115.924V110.924H773.293C776.073 110.924 777.633 109.024 777.633 106.764C777.633 104.484 776.093 102.584 773.293 102.584H767.413V115.924H769.753ZM772.973 108.864H769.753V104.644H772.973C774.293 104.644 775.233 105.484 775.233 106.764C775.233 108.024 774.293 108.864 772.973 108.864ZM785.84 116.164C789.82 116.164 792.66 113.244 792.66 109.264C792.66 105.284 789.82 102.364 785.84 102.364C781.84 102.364 779.02 105.284 779.02 109.264C779.02 113.244 781.84 116.164 785.84 116.164ZM785.84 114.084C783.14 114.084 781.42 112.004 781.42 109.264C781.42 106.504 783.14 104.444 785.84 104.444C788.52 104.444 790.26 106.504 790.26 109.264C790.26 112.004 788.52 114.084 785.84 114.084ZM805.233 115.924L801.953 110.684C803.573 110.424 805.133 109.124 805.133 106.764C805.133 104.284 803.393 102.584 800.753 102.584H794.893V115.924H797.233V110.944H799.573L802.513 115.924H805.233ZM800.453 108.884H797.233V104.644H800.453C801.773 104.644 802.733 105.464 802.733 106.744C802.733 108.044 801.773 108.884 800.453 108.884ZM812.796 115.924V104.644H816.836V102.584H806.416V104.644H810.456V115.924H812.796Z" fill="#003049"/>
<path d="M309.983 298.25H257V307.75H309.983V322L331 303L309.983 284V298.25Z" fill="#FFC09C"/>
<path d="M631.983 298.25H579V307.75H631.983V322L653 303L631.983 284V298.25Z" fill="#FFC09C"/>
</svg>
