<svg width="868" height="514" viewBox="0 0 868 514" fill="none" xmlns="http://www.w3.org/2000/svg">
<rect width="868" height="514" fill="white"/>
<rect x="45" y="88" width="145" height="98" stroke="#003049" stroke-width="2"/>
<rect x="45" y="211" width="145" height="58" stroke="#003049" stroke-width="2"/>
<rect x="254" y="89" width="145" height="58" stroke="#003049" stroke-width="2"/>
<rect x="457" y="88" width="145" height="58" stroke="#003049" stroke-width="2"/>
<rect x="457" y="211" width="145" height="58" stroke="#003049" stroke-width="2"/>
<rect x="457" y="295" width="145" height="58" stroke="#003049" stroke-width="2"/>
<rect x="457" y="382" width="145" height="58" stroke="#003049" stroke-width="2"/>
<rect x="254" y="211" width="145" height="58" stroke="#003049" stroke-width="2"/>
<rect x="45" y="211" width="145" height="58" stroke="#003049" stroke-width="2"/>
<rect x="254" y="89" width="145" height="58" stroke="#003049" stroke-width="2"/>
<rect x="457" y="88" width="145" height="58" stroke="#003049" stroke-width="2"/>
<rect x="662" y="157" width="145" height="157" stroke="#003049" stroke-width="2"/>
<rect x="457" y="211" width="145" height="58" stroke="#003049" stroke-width="2"/>
<rect x="457" y="295" width="145" height="58" stroke="#003049" stroke-width="2"/>
<rect x="457" y="382" width="145" height="58" stroke="#003049" stroke-width="2"/>
<rect x="254" y="211" width="145" height="58" stroke="#003049" stroke-width="2"/>
<path d="M88.6396 116.296C87.1924 115.88 86.1377 115.37 85.4756 114.767C84.8193 114.157 84.4912 113.407 84.4912 112.517C84.4912 111.509 84.8926 110.677 85.6953 110.021C86.5039 109.358 87.5527 109.027 88.8418 109.027C89.7207 109.027 90.5029 109.197 91.1885 109.537C91.8799 109.877 92.4131 110.346 92.7881 110.943C93.1689 111.541 93.3594 112.194 93.3594 112.903H91.6631C91.6631 112.13 91.417 111.523 90.9248 111.084C90.4326 110.639 89.7383 110.416 88.8418 110.416C88.0098 110.416 87.3594 110.601 86.8906 110.97C86.4277 111.333 86.1963 111.84 86.1963 112.49C86.1963 113.012 86.416 113.454 86.8555 113.817C87.3008 114.175 88.0537 114.503 89.1143 114.802C90.1807 115.101 91.0127 115.432 91.6104 115.795C92.2139 116.152 92.6592 116.571 92.9463 117.052C93.2393 117.532 93.3857 118.098 93.3857 118.748C93.3857 119.785 92.9814 120.617 92.1729 121.244C91.3643 121.865 90.2832 122.176 88.9297 122.176C88.0508 122.176 87.2305 122.009 86.4688 121.675C85.707 121.335 85.1182 120.872 84.7021 120.286C84.292 119.7 84.0869 119.035 84.0869 118.291H85.7832C85.7832 119.064 86.0674 119.677 86.6357 120.128C87.21 120.573 87.9746 120.796 88.9297 120.796C89.8203 120.796 90.5029 120.614 90.9775 120.251C91.4521 119.888 91.6895 119.393 91.6895 118.766C91.6895 118.139 91.4697 117.655 91.0303 117.315C90.5908 116.97 89.7939 116.63 88.6396 116.296ZM101.173 121.06C100.54 121.804 99.6113 122.176 98.3867 122.176C97.373 122.176 96.5996 121.883 96.0664 121.297C95.5391 120.705 95.2725 119.832 95.2666 118.678V112.49H96.8926V118.634C96.8926 120.075 97.4785 120.796 98.6504 120.796C99.8926 120.796 100.719 120.333 101.129 119.407V112.49H102.755V122H101.208L101.173 121.06ZM113.267 117.351C113.267 118.798 112.936 119.964 112.273 120.849C111.611 121.733 110.715 122.176 109.584 122.176C108.43 122.176 107.521 121.81 106.859 121.077V125.656H105.233V112.49H106.719L106.798 113.545C107.46 112.725 108.38 112.314 109.558 112.314C110.7 112.314 111.603 112.745 112.265 113.606C112.933 114.468 113.267 115.666 113.267 117.201V117.351ZM111.641 117.166C111.641 116.094 111.412 115.247 110.955 114.626C110.498 114.005 109.871 113.694 109.074 113.694C108.09 113.694 107.352 114.131 106.859 115.004V119.548C107.346 120.415 108.09 120.849 109.092 120.849C109.871 120.849 110.489 120.541 110.946 119.926C111.409 119.305 111.641 118.385 111.641 117.166ZM123.374 117.351C123.374 118.798 123.043 119.964 122.381 120.849C121.719 121.733 120.822 122.176 119.691 122.176C118.537 122.176 117.629 121.81 116.967 121.077V125.656H115.341V112.49H116.826L116.905 113.545C117.567 112.725 118.487 112.314 119.665 112.314C120.808 112.314 121.71 112.745 122.372 113.606C123.04 114.468 123.374 115.666 123.374 117.201V117.351ZM121.748 117.166C121.748 116.094 121.52 115.247 121.062 114.626C120.605 114.005 119.979 113.694 119.182 113.694C118.197 113.694 117.459 114.131 116.967 115.004V119.548C117.453 120.415 118.197 120.849 119.199 120.849C119.979 120.849 120.597 120.541 121.054 119.926C121.517 119.305 121.748 118.385 121.748 117.166ZM127.215 122H125.589V108.5H127.215V122ZM131.592 122H129.966V112.49H131.592V122ZM129.834 109.968C129.834 109.704 129.913 109.481 130.071 109.3C130.235 109.118 130.476 109.027 130.792 109.027C131.108 109.027 131.349 109.118 131.513 109.3C131.677 109.481 131.759 109.704 131.759 109.968C131.759 110.231 131.677 110.451 131.513 110.627C131.349 110.803 131.108 110.891 130.792 110.891C130.476 110.891 130.235 110.803 130.071 110.627C129.913 110.451 129.834 110.231 129.834 109.968ZM138.148 122.176C136.859 122.176 135.811 121.754 135.002 120.91C134.193 120.061 133.789 118.927 133.789 117.509V117.21C133.789 116.267 133.968 115.426 134.325 114.688C134.688 113.943 135.192 113.363 135.837 112.947C136.487 112.525 137.19 112.314 137.946 112.314C139.183 112.314 140.144 112.722 140.829 113.536C141.515 114.351 141.857 115.517 141.857 117.034V117.711H135.415C135.438 118.648 135.711 119.407 136.232 119.987C136.76 120.562 137.428 120.849 138.236 120.849C138.811 120.849 139.297 120.731 139.695 120.497C140.094 120.263 140.442 119.952 140.741 119.565L141.734 120.339C140.938 121.563 139.742 122.176 138.148 122.176ZM137.946 113.65C137.29 113.65 136.739 113.891 136.294 114.371C135.849 114.846 135.573 115.514 135.468 116.375H140.231V116.252C140.185 115.426 139.962 114.787 139.563 114.336C139.165 113.879 138.626 113.65 137.946 113.65ZM148.344 113.949C148.098 113.908 147.831 113.888 147.544 113.888C146.478 113.888 145.754 114.342 145.373 115.25V122H143.747V112.49H145.329L145.355 113.589C145.889 112.739 146.645 112.314 147.623 112.314C147.939 112.314 148.18 112.355 148.344 112.438V113.949ZM87.9277 138.939C87.7695 140.293 87.2686 141.339 86.4248 142.077C85.5869 142.81 84.4707 143.176 83.0762 143.176C81.5645 143.176 80.3516 142.634 79.4375 141.55C78.5293 140.466 78.0752 139.016 78.0752 137.199V135.969C78.0752 134.779 78.2861 133.733 78.708 132.831C79.1357 131.929 79.7393 131.237 80.5186 130.757C81.2979 130.271 82.2002 130.027 83.2256 130.027C84.585 130.027 85.6748 130.408 86.4951 131.17C87.3154 131.926 87.793 132.975 87.9277 134.316H86.2314C86.085 133.297 85.7656 132.559 85.2734 132.102C84.7871 131.645 84.1045 131.416 83.2256 131.416C82.1475 131.416 81.3008 131.814 80.6855 132.611C80.0762 133.408 79.7715 134.542 79.7715 136.013V137.252C79.7715 138.641 80.0615 139.745 80.6416 140.565C81.2217 141.386 82.0332 141.796 83.0762 141.796C84.0137 141.796 84.7314 141.585 85.2295 141.163C85.7334 140.735 86.0674 139.994 86.2314 138.939H87.9277ZM89.5537 138.157C89.5537 137.226 89.7354 136.388 90.0986 135.644C90.4678 134.899 90.9775 134.325 91.6279 133.921C92.2842 133.517 93.0312 133.314 93.8691 133.314C95.1641 133.314 96.21 133.763 97.0068 134.659C97.8096 135.556 98.2109 136.748 98.2109 138.236V138.351C98.2109 139.276 98.0322 140.108 97.6748 140.847C97.3232 141.579 96.8164 142.15 96.1543 142.561C95.498 142.971 94.7422 143.176 93.8867 143.176C92.5977 143.176 91.5518 142.728 90.749 141.831C89.9521 140.935 89.5537 139.748 89.5537 138.271V138.157ZM91.1885 138.351C91.1885 139.405 91.4316 140.252 91.918 140.891C92.4102 141.529 93.0664 141.849 93.8867 141.849C94.7129 141.849 95.3691 141.526 95.8555 140.882C96.3418 140.231 96.585 139.323 96.585 138.157C96.585 137.114 96.3359 136.271 95.8379 135.626C95.3457 134.976 94.6895 134.65 93.8691 134.65C93.0664 134.65 92.4189 134.97 91.9268 135.608C91.4346 136.247 91.1885 137.161 91.1885 138.351ZM101.788 133.49L101.841 134.686C102.567 133.771 103.517 133.314 104.688 133.314C106.698 133.314 107.712 134.448 107.729 136.716V143H106.104V136.707C106.098 136.021 105.939 135.515 105.629 135.187C105.324 134.858 104.847 134.694 104.196 134.694C103.669 134.694 103.206 134.835 102.808 135.116C102.409 135.397 102.099 135.767 101.876 136.224V143H100.25V133.49H101.788ZM112.388 131.188V133.49H114.163V134.747H112.388V140.645C112.388 141.025 112.467 141.312 112.625 141.506C112.783 141.693 113.053 141.787 113.434 141.787C113.621 141.787 113.879 141.752 114.207 141.682V143C113.779 143.117 113.363 143.176 112.959 143.176C112.232 143.176 111.685 142.956 111.315 142.517C110.946 142.077 110.762 141.453 110.762 140.645V134.747H109.03V133.49H110.762V131.188H112.388ZM120.667 134.949C120.421 134.908 120.154 134.888 119.867 134.888C118.801 134.888 118.077 135.342 117.696 136.25V143H116.07V133.49H117.652L117.679 134.589C118.212 133.739 118.968 133.314 119.946 133.314C120.263 133.314 120.503 133.355 120.667 133.438V134.949ZM127.689 143C127.596 142.812 127.52 142.479 127.461 141.998C126.705 142.783 125.803 143.176 124.754 143.176C123.816 143.176 123.046 142.912 122.442 142.385C121.845 141.852 121.546 141.178 121.546 140.363C121.546 139.373 121.921 138.605 122.671 138.061C123.427 137.51 124.487 137.234 125.853 137.234H127.435V136.487C127.435 135.919 127.265 135.468 126.925 135.134C126.585 134.794 126.084 134.624 125.422 134.624C124.842 134.624 124.355 134.771 123.963 135.063C123.57 135.356 123.374 135.711 123.374 136.127H121.739C121.739 135.652 121.906 135.195 122.24 134.756C122.58 134.311 123.037 133.959 123.611 133.701C124.191 133.443 124.827 133.314 125.519 133.314C126.614 133.314 127.473 133.59 128.094 134.141C128.715 134.686 129.037 135.438 129.061 136.399V140.776C129.061 141.649 129.172 142.344 129.395 142.859V143H127.689ZM124.991 141.761C125.501 141.761 125.984 141.629 126.441 141.365C126.898 141.102 127.229 140.759 127.435 140.337V138.386H126.16C124.168 138.386 123.172 138.969 123.172 140.135C123.172 140.645 123.342 141.043 123.682 141.33C124.021 141.617 124.458 141.761 124.991 141.761ZM135.424 141.849C136.004 141.849 136.511 141.673 136.944 141.321C137.378 140.97 137.618 140.53 137.665 140.003H139.203C139.174 140.548 138.986 141.066 138.641 141.559C138.295 142.051 137.832 142.443 137.252 142.736C136.678 143.029 136.068 143.176 135.424 143.176C134.129 143.176 133.098 142.745 132.33 141.884C131.568 141.017 131.188 139.833 131.188 138.333V138.061C131.188 137.135 131.357 136.312 131.697 135.591C132.037 134.87 132.523 134.311 133.156 133.912C133.795 133.514 134.548 133.314 135.415 133.314C136.481 133.314 137.366 133.634 138.069 134.272C138.778 134.911 139.156 135.74 139.203 136.76H137.665C137.618 136.145 137.384 135.641 136.962 135.248C136.546 134.85 136.03 134.65 135.415 134.65C134.589 134.65 133.947 134.949 133.49 135.547C133.039 136.139 132.813 136.997 132.813 138.122V138.43C132.813 139.525 133.039 140.369 133.49 140.961C133.941 141.553 134.586 141.849 135.424 141.849ZM143.237 131.188V133.49H145.013V134.747H143.237V140.645C143.237 141.025 143.316 141.312 143.475 141.506C143.633 141.693 143.902 141.787 144.283 141.787C144.471 141.787 144.729 141.752 145.057 141.682V143C144.629 143.117 144.213 143.176 143.809 143.176C143.082 143.176 142.534 142.956 142.165 142.517C141.796 142.077 141.611 141.453 141.611 140.645V134.747H139.88V133.49H141.611V131.188H143.237ZM152.457 140.478C152.457 140.038 152.29 139.698 151.956 139.458C151.628 139.212 151.051 139.001 150.225 138.825C149.404 138.649 148.751 138.438 148.265 138.192C147.784 137.946 147.427 137.653 147.192 137.313C146.964 136.974 146.85 136.569 146.85 136.101C146.85 135.321 147.178 134.662 147.834 134.123C148.496 133.584 149.34 133.314 150.365 133.314C151.443 133.314 152.316 133.593 152.984 134.149C153.658 134.706 153.995 135.418 153.995 136.285H152.36C152.36 135.84 152.17 135.456 151.789 135.134C151.414 134.812 150.939 134.65 150.365 134.65C149.773 134.65 149.311 134.779 148.977 135.037C148.643 135.295 148.476 135.632 148.476 136.048C148.476 136.44 148.631 136.736 148.941 136.936C149.252 137.135 149.812 137.325 150.62 137.507C151.435 137.688 152.094 137.905 152.598 138.157C153.102 138.409 153.474 138.714 153.714 139.071C153.96 139.423 154.083 139.854 154.083 140.363C154.083 141.213 153.743 141.896 153.063 142.411C152.384 142.921 151.502 143.176 150.418 143.176C149.656 143.176 148.982 143.041 148.396 142.771C147.811 142.502 147.351 142.127 147.017 141.646C146.688 141.16 146.524 140.636 146.524 140.073H148.15C148.18 140.618 148.396 141.052 148.801 141.374C149.211 141.69 149.75 141.849 150.418 141.849C151.033 141.849 151.525 141.726 151.895 141.479C152.27 141.228 152.457 140.894 152.457 140.478ZM66.6494 151.203L70.833 161.645L75.0166 151.203H77.2051V164H75.5176V159.017L75.6758 153.638L71.4746 164H70.1826L65.9902 153.664L66.1572 159.017V164H64.4697V151.203H66.6494ZM85.8008 164C85.707 163.812 85.6309 163.479 85.5723 162.998C84.8164 163.783 83.9141 164.176 82.8652 164.176C81.9277 164.176 81.1572 163.912 80.5537 163.385C79.9561 162.852 79.6572 162.178 79.6572 161.363C79.6572 160.373 80.0322 159.605 80.7822 159.061C81.5381 158.51 82.5986 158.234 83.9639 158.234H85.5459V157.487C85.5459 156.919 85.376 156.468 85.0361 156.134C84.6963 155.794 84.1953 155.624 83.5332 155.624C82.9531 155.624 82.4668 155.771 82.0742 156.063C81.6816 156.356 81.4854 156.711 81.4854 157.127H79.8506C79.8506 156.652 80.0176 156.195 80.3516 155.756C80.6914 155.311 81.1484 154.959 81.7227 154.701C82.3027 154.443 82.9385 154.314 83.6299 154.314C84.7256 154.314 85.584 154.59 86.2051 155.141C86.8262 155.686 87.1484 156.438 87.1719 157.399V161.776C87.1719 162.649 87.2832 163.344 87.5059 163.859V164H85.8008ZM83.1025 162.761C83.6123 162.761 84.0957 162.629 84.5527 162.365C85.0098 162.102 85.3408 161.759 85.5459 161.337V159.386H84.2715C82.2793 159.386 81.2832 159.969 81.2832 161.135C81.2832 161.645 81.4531 162.043 81.793 162.33C82.1328 162.617 82.5693 162.761 83.1025 162.761ZM91.2588 154.49L91.3115 155.686C92.0381 154.771 92.9873 154.314 94.1592 154.314C96.1689 154.314 97.1826 155.448 97.2002 157.716V164H95.5742V157.707C95.5684 157.021 95.4102 156.515 95.0996 156.187C94.7949 155.858 94.3174 155.694 93.667 155.694C93.1396 155.694 92.6768 155.835 92.2783 156.116C91.8799 156.397 91.5693 156.767 91.3467 157.224V164H89.7207V154.49H91.2588ZM105.523 164C105.43 163.812 105.354 163.479 105.295 162.998C104.539 163.783 103.637 164.176 102.588 164.176C101.65 164.176 100.88 163.912 100.276 163.385C99.6787 162.852 99.3799 162.178 99.3799 161.363C99.3799 160.373 99.7549 159.605 100.505 159.061C101.261 158.51 102.321 158.234 103.687 158.234H105.269V157.487C105.269 156.919 105.099 156.468 104.759 156.134C104.419 155.794 103.918 155.624 103.256 155.624C102.676 155.624 102.189 155.771 101.797 156.063C101.404 156.356 101.208 156.711 101.208 157.127H99.5732C99.5732 156.652 99.7402 156.195 100.074 155.756C100.414 155.311 100.871 154.959 101.445 154.701C102.025 154.443 102.661 154.314 103.353 154.314C104.448 154.314 105.307 154.59 105.928 155.141C106.549 155.686 106.871 156.438 106.895 157.399V161.776C106.895 162.649 107.006 163.344 107.229 163.859V164H105.523ZM102.825 162.761C103.335 162.761 103.818 162.629 104.275 162.365C104.732 162.102 105.063 161.759 105.269 161.337V159.386H103.994C102.002 159.386 101.006 159.969 101.006 161.135C101.006 161.645 101.176 162.043 101.516 162.33C101.855 162.617 102.292 162.761 102.825 162.761ZM109.057 159.166C109.057 157.684 109.399 156.506 110.085 155.633C110.771 154.754 111.679 154.314 112.81 154.314C113.97 154.314 114.875 154.725 115.525 155.545L115.604 154.49H117.09V163.771C117.09 165.002 116.724 165.972 115.991 166.681C115.265 167.39 114.286 167.744 113.056 167.744C112.37 167.744 111.699 167.598 111.043 167.305C110.387 167.012 109.886 166.61 109.54 166.101L110.384 165.125C111.081 165.986 111.934 166.417 112.941 166.417C113.732 166.417 114.348 166.194 114.787 165.749C115.232 165.304 115.455 164.677 115.455 163.868V163.051C114.805 163.801 113.917 164.176 112.792 164.176C111.679 164.176 110.776 163.728 110.085 162.831C109.399 161.935 109.057 160.713 109.057 159.166ZM110.691 159.351C110.691 160.423 110.911 161.267 111.351 161.882C111.79 162.491 112.405 162.796 113.196 162.796C114.222 162.796 114.975 162.33 115.455 161.398V157.057C114.957 156.148 114.21 155.694 113.214 155.694C112.423 155.694 111.805 156.002 111.359 156.617C110.914 157.232 110.691 158.144 110.691 159.351ZM123.497 164.176C122.208 164.176 121.159 163.754 120.351 162.91C119.542 162.061 119.138 160.927 119.138 159.509V159.21C119.138 158.267 119.316 157.426 119.674 156.688C120.037 155.943 120.541 155.363 121.186 154.947C121.836 154.525 122.539 154.314 123.295 154.314C124.531 154.314 125.492 154.722 126.178 155.536C126.863 156.351 127.206 157.517 127.206 159.034V159.711H120.764C120.787 160.648 121.06 161.407 121.581 161.987C122.108 162.562 122.776 162.849 123.585 162.849C124.159 162.849 124.646 162.731 125.044 162.497C125.442 162.263 125.791 161.952 126.09 161.565L127.083 162.339C126.286 163.563 125.091 164.176 123.497 164.176ZM123.295 155.65C122.639 155.65 122.088 155.891 121.643 156.371C121.197 156.846 120.922 157.514 120.816 158.375H125.58V158.252C125.533 157.426 125.311 156.787 124.912 156.336C124.514 155.879 123.975 155.65 123.295 155.65ZM130.625 154.49L130.669 155.545C131.366 154.725 132.307 154.314 133.49 154.314C134.82 154.314 135.726 154.824 136.206 155.844C136.522 155.387 136.933 155.018 137.437 154.736C137.946 154.455 138.547 154.314 139.238 154.314C141.324 154.314 142.385 155.419 142.42 157.628V164H140.794V157.725C140.794 157.045 140.639 156.538 140.328 156.204C140.018 155.864 139.496 155.694 138.764 155.694C138.16 155.694 137.659 155.876 137.261 156.239C136.862 156.597 136.631 157.08 136.566 157.689V164H134.932V157.769C134.932 156.386 134.255 155.694 132.901 155.694C131.835 155.694 131.105 156.148 130.713 157.057V164H129.087V154.49H130.625ZM148.827 164.176C147.538 164.176 146.489 163.754 145.681 162.91C144.872 162.061 144.468 160.927 144.468 159.509V159.21C144.468 158.267 144.646 157.426 145.004 156.688C145.367 155.943 145.871 155.363 146.516 154.947C147.166 154.525 147.869 154.314 148.625 154.314C149.861 154.314 150.822 154.722 151.508 155.536C152.193 156.351 152.536 157.517 152.536 159.034V159.711H146.094C146.117 160.648 146.39 161.407 146.911 161.987C147.438 162.562 148.106 162.849 148.915 162.849C149.489 162.849 149.976 162.731 150.374 162.497C150.772 162.263 151.121 161.952 151.42 161.565L152.413 162.339C151.616 163.563 150.421 164.176 148.827 164.176ZM148.625 155.65C147.969 155.65 147.418 155.891 146.973 156.371C146.527 156.846 146.252 157.514 146.146 158.375H150.91V158.252C150.863 157.426 150.641 156.787 150.242 156.336C149.844 155.879 149.305 155.65 148.625 155.65ZM155.964 154.49L156.017 155.686C156.743 154.771 157.692 154.314 158.864 154.314C160.874 154.314 161.888 155.448 161.905 157.716V164H160.279V157.707C160.273 157.021 160.115 156.515 159.805 156.187C159.5 155.858 159.022 155.694 158.372 155.694C157.845 155.694 157.382 155.835 156.983 156.116C156.585 156.397 156.274 156.767 156.052 157.224V164H154.426V154.49H155.964ZM166.563 152.188V154.49H168.339V155.747H166.563V161.645C166.563 162.025 166.643 162.312 166.801 162.506C166.959 162.693 167.229 162.787 167.609 162.787C167.797 162.787 168.055 162.752 168.383 162.682V164C167.955 164.117 167.539 164.176 167.135 164.176C166.408 164.176 165.86 163.956 165.491 163.517C165.122 163.077 164.938 162.453 164.938 161.645V155.747H163.206V154.49H164.938V152.188H166.563Z" fill="#003049"/>
<path d="M77.9697 232.203L82.1533 242.645L86.3369 232.203H88.5254V245H86.8379V240.017L86.9961 234.638L82.7949 245H81.5029L77.3105 234.664L77.4775 240.017V245H75.79V232.203H77.9697ZM96.1982 239.823H93.1924V245H91.4961V232.203H95.7324C97.1738 232.203 98.2812 232.531 99.0547 233.188C99.834 233.844 100.224 234.799 100.224 236.053C100.224 236.85 100.007 237.544 99.5732 238.136C99.1455 238.728 98.5479 239.17 97.7803 239.463L100.786 244.895V245H98.9756L96.1982 239.823ZM93.1924 238.443H95.7852C96.623 238.443 97.2881 238.227 97.7803 237.793C98.2783 237.359 98.5273 236.779 98.5273 236.053C98.5273 235.262 98.29 234.655 97.8154 234.233C97.3467 233.812 96.667 233.598 95.7764 233.592H93.1924V238.443ZM104.284 239.99V245H102.597V232.203H107.316C108.717 232.203 109.812 232.561 110.604 233.275C111.4 233.99 111.799 234.937 111.799 236.114C111.799 237.356 111.409 238.314 110.63 238.988C109.856 239.656 108.746 239.99 107.299 239.99H104.284ZM104.284 238.61H107.316C108.219 238.61 108.91 238.399 109.391 237.978C109.871 237.55 110.111 236.935 110.111 236.132C110.111 235.37 109.871 234.761 109.391 234.304C108.91 233.847 108.251 233.609 107.413 233.592H104.284V238.61ZM120.228 245H118.54V232.203H120.228V245ZM124.604 235.49L124.657 236.686C125.384 235.771 126.333 235.314 127.505 235.314C129.515 235.314 130.528 236.448 130.546 238.716V245H128.92V238.707C128.914 238.021 128.756 237.515 128.445 237.187C128.141 236.858 127.663 236.694 127.013 236.694C126.485 236.694 126.022 236.835 125.624 237.116C125.226 237.397 124.915 237.767 124.692 238.224V245H123.066V235.49H124.604ZM141.031 240.351C141.031 241.798 140.7 242.964 140.038 243.849C139.376 244.733 138.479 245.176 137.349 245.176C136.194 245.176 135.286 244.81 134.624 244.077V248.656H132.998V235.49H134.483L134.562 236.545C135.225 235.725 136.145 235.314 137.322 235.314C138.465 235.314 139.367 235.745 140.029 236.606C140.697 237.468 141.031 238.666 141.031 240.201V240.351ZM139.405 240.166C139.405 239.094 139.177 238.247 138.72 237.626C138.263 237.005 137.636 236.694 136.839 236.694C135.854 236.694 135.116 237.131 134.624 238.004V242.548C135.11 243.415 135.854 243.849 136.856 243.849C137.636 243.849 138.254 243.541 138.711 242.926C139.174 242.305 139.405 241.385 139.405 240.166ZM148.977 244.06C148.344 244.804 147.415 245.176 146.19 245.176C145.177 245.176 144.403 244.883 143.87 244.297C143.343 243.705 143.076 242.832 143.07 241.678V235.49H144.696V241.634C144.696 243.075 145.282 243.796 146.454 243.796C147.696 243.796 148.522 243.333 148.933 242.407V235.49H150.559V245H149.012L148.977 244.06ZM155.243 233.188V235.49H157.019V236.747H155.243V242.645C155.243 243.025 155.322 243.312 155.48 243.506C155.639 243.693 155.908 243.787 156.289 243.787C156.477 243.787 156.734 243.752 157.062 243.682V245C156.635 245.117 156.219 245.176 155.814 245.176C155.088 245.176 154.54 244.956 154.171 244.517C153.802 244.077 153.617 243.453 153.617 242.645V236.747H151.886V235.49H153.617V233.188H155.243Z" fill="#003049"/>
<path d="M279.728 117.296C278.28 116.88 277.226 116.37 276.563 115.767C275.907 115.157 275.579 114.407 275.579 113.517C275.579 112.509 275.98 111.677 276.783 111.021C277.592 110.358 278.641 110.027 279.93 110.027C280.809 110.027 281.591 110.197 282.276 110.537C282.968 110.877 283.501 111.346 283.876 111.943C284.257 112.541 284.447 113.194 284.447 113.903H282.751C282.751 113.13 282.505 112.523 282.013 112.084C281.521 111.639 280.826 111.416 279.93 111.416C279.098 111.416 278.447 111.601 277.979 111.97C277.516 112.333 277.284 112.84 277.284 113.49C277.284 114.012 277.504 114.454 277.943 114.817C278.389 115.175 279.142 115.503 280.202 115.802C281.269 116.101 282.101 116.432 282.698 116.795C283.302 117.152 283.747 117.571 284.034 118.052C284.327 118.532 284.474 119.098 284.474 119.748C284.474 120.785 284.069 121.617 283.261 122.244C282.452 122.865 281.371 123.176 280.018 123.176C279.139 123.176 278.318 123.009 277.557 122.675C276.795 122.335 276.206 121.872 275.79 121.286C275.38 120.7 275.175 120.035 275.175 119.291H276.871C276.871 120.064 277.155 120.677 277.724 121.128C278.298 121.573 279.062 121.796 280.018 121.796C280.908 121.796 281.591 121.614 282.065 121.251C282.54 120.888 282.777 120.393 282.777 119.766C282.777 119.139 282.558 118.655 282.118 118.315C281.679 117.97 280.882 117.63 279.728 117.296ZM292.261 122.06C291.628 122.804 290.699 123.176 289.475 123.176C288.461 123.176 287.688 122.883 287.154 122.297C286.627 121.705 286.36 120.832 286.354 119.678V113.49H287.98V119.634C287.98 121.075 288.566 121.796 289.738 121.796C290.98 121.796 291.807 121.333 292.217 120.407V113.49H293.843V123H292.296L292.261 122.06ZM304.354 118.351C304.354 119.798 304.023 120.964 303.361 121.849C302.699 122.733 301.803 123.176 300.672 123.176C299.518 123.176 298.609 122.81 297.947 122.077V126.656H296.321V113.49H297.807L297.886 114.545C298.548 113.725 299.468 113.314 300.646 113.314C301.788 113.314 302.69 113.745 303.353 114.606C304.021 115.468 304.354 116.666 304.354 118.201V118.351ZM302.729 118.166C302.729 117.094 302.5 116.247 302.043 115.626C301.586 115.005 300.959 114.694 300.162 114.694C299.178 114.694 298.439 115.131 297.947 116.004V120.548C298.434 121.415 299.178 121.849 300.18 121.849C300.959 121.849 301.577 121.541 302.034 120.926C302.497 120.305 302.729 119.385 302.729 118.166ZM314.462 118.351C314.462 119.798 314.131 120.964 313.469 121.849C312.807 122.733 311.91 123.176 310.779 123.176C309.625 123.176 308.717 122.81 308.055 122.077V126.656H306.429V113.49H307.914L307.993 114.545C308.655 113.725 309.575 113.314 310.753 113.314C311.896 113.314 312.798 113.745 313.46 114.606C314.128 115.468 314.462 116.666 314.462 118.201V118.351ZM312.836 118.166C312.836 117.094 312.607 116.247 312.15 115.626C311.693 115.005 311.066 114.694 310.27 114.694C309.285 114.694 308.547 115.131 308.055 116.004V120.548C308.541 121.415 309.285 121.849 310.287 121.849C311.066 121.849 311.685 121.541 312.142 120.926C312.604 120.305 312.836 119.385 312.836 118.166ZM318.303 123H316.677V109.5H318.303V123ZM322.68 123H321.054V113.49H322.68V123ZM320.922 110.968C320.922 110.704 321.001 110.481 321.159 110.3C321.323 110.118 321.563 110.027 321.88 110.027C322.196 110.027 322.437 110.118 322.601 110.3C322.765 110.481 322.847 110.704 322.847 110.968C322.847 111.231 322.765 111.451 322.601 111.627C322.437 111.803 322.196 111.891 321.88 111.891C321.563 111.891 321.323 111.803 321.159 111.627C321.001 111.451 320.922 111.231 320.922 110.968ZM329.236 123.176C327.947 123.176 326.898 122.754 326.09 121.91C325.281 121.061 324.877 119.927 324.877 118.509V118.21C324.877 117.267 325.056 116.426 325.413 115.688C325.776 114.943 326.28 114.363 326.925 113.947C327.575 113.525 328.278 113.314 329.034 113.314C330.271 113.314 331.231 113.722 331.917 114.536C332.603 115.351 332.945 116.517 332.945 118.034V118.711H326.503C326.526 119.648 326.799 120.407 327.32 120.987C327.848 121.562 328.516 121.849 329.324 121.849C329.898 121.849 330.385 121.731 330.783 121.497C331.182 121.263 331.53 120.952 331.829 120.565L332.822 121.339C332.025 122.563 330.83 123.176 329.236 123.176ZM329.034 114.65C328.378 114.65 327.827 114.891 327.382 115.371C326.937 115.846 326.661 116.514 326.556 117.375H331.319V117.252C331.272 116.426 331.05 115.787 330.651 115.336C330.253 114.879 329.714 114.65 329.034 114.65ZM339.432 114.949C339.186 114.908 338.919 114.888 338.632 114.888C337.565 114.888 336.842 115.342 336.461 116.25V123H334.835V113.49H336.417L336.443 114.589C336.977 113.739 337.732 113.314 338.711 113.314C339.027 113.314 339.268 113.355 339.432 113.438V114.949ZM347.465 123H345.777V110.203H347.465V123ZM351.842 113.49L351.895 114.686C352.621 113.771 353.57 113.314 354.742 113.314C356.752 113.314 357.766 114.448 357.783 116.716V123H356.157V116.707C356.151 116.021 355.993 115.515 355.683 115.187C355.378 114.858 354.9 114.694 354.25 114.694C353.723 114.694 353.26 114.835 352.861 115.116C352.463 115.397 352.152 115.767 351.93 116.224V123H350.304V113.49H351.842ZM361.035 123V114.747H359.532V113.49H361.035V112.515C361.035 111.495 361.308 110.707 361.853 110.15C362.397 109.594 363.168 109.315 364.164 109.315C364.539 109.315 364.911 109.365 365.28 109.465L365.192 110.783C364.917 110.73 364.624 110.704 364.313 110.704C363.786 110.704 363.379 110.859 363.092 111.17C362.805 111.475 362.661 111.914 362.661 112.488V113.49H364.691V114.747H362.661V123H361.035ZM366.062 118.157C366.062 117.226 366.244 116.388 366.607 115.644C366.977 114.899 367.486 114.325 368.137 113.921C368.793 113.517 369.54 113.314 370.378 113.314C371.673 113.314 372.719 113.763 373.516 114.659C374.318 115.556 374.72 116.748 374.72 118.236V118.351C374.72 119.276 374.541 120.108 374.184 120.847C373.832 121.579 373.325 122.15 372.663 122.561C372.007 122.971 371.251 123.176 370.396 123.176C369.106 123.176 368.061 122.728 367.258 121.831C366.461 120.935 366.062 119.748 366.062 118.271V118.157ZM367.697 118.351C367.697 119.405 367.94 120.252 368.427 120.891C368.919 121.529 369.575 121.849 370.396 121.849C371.222 121.849 371.878 121.526 372.364 120.882C372.851 120.231 373.094 119.323 373.094 118.157C373.094 117.114 372.845 116.271 372.347 115.626C371.854 114.976 371.198 114.65 370.378 114.65C369.575 114.65 368.928 114.97 368.436 115.608C367.943 116.247 367.697 117.161 367.697 118.351Z" fill="#003049"/>
<path d="M503.681 118.66H498.319L497.115 122H495.375L500.262 109.203H501.738L506.634 122H504.902L503.681 118.66ZM498.829 117.271H503.18L501 111.286L498.829 117.271ZM513.867 121.06C513.234 121.804 512.306 122.176 511.081 122.176C510.067 122.176 509.294 121.883 508.761 121.297C508.233 120.705 507.967 119.832 507.961 118.678V112.49H509.587V118.634C509.587 120.075 510.173 120.796 511.345 120.796C512.587 120.796 513.413 120.333 513.823 119.407V112.49H515.449V122H513.902L513.867 121.06ZM520.134 110.188V112.49H521.909V113.747H520.134V119.645C520.134 120.025 520.213 120.312 520.371 120.506C520.529 120.693 520.799 120.787 521.18 120.787C521.367 120.787 521.625 120.752 521.953 120.682V122C521.525 122.117 521.109 122.176 520.705 122.176C519.979 122.176 519.431 121.956 519.062 121.517C518.692 121.077 518.508 120.453 518.508 119.645V113.747H516.776V112.49H518.508V110.188H520.134ZM523.21 117.157C523.21 116.226 523.392 115.388 523.755 114.644C524.124 113.899 524.634 113.325 525.284 112.921C525.94 112.517 526.688 112.314 527.525 112.314C528.82 112.314 529.866 112.763 530.663 113.659C531.466 114.556 531.867 115.748 531.867 117.236V117.351C531.867 118.276 531.688 119.108 531.331 119.847C530.979 120.579 530.473 121.15 529.811 121.561C529.154 121.971 528.398 122.176 527.543 122.176C526.254 122.176 525.208 121.728 524.405 120.831C523.608 119.935 523.21 118.748 523.21 117.271V117.157ZM524.845 117.351C524.845 118.405 525.088 119.252 525.574 119.891C526.066 120.529 526.723 120.849 527.543 120.849C528.369 120.849 529.025 120.526 529.512 119.882C529.998 119.231 530.241 118.323 530.241 117.157C530.241 116.114 529.992 115.271 529.494 114.626C529.002 113.976 528.346 113.65 527.525 113.65C526.723 113.65 526.075 113.97 525.583 114.608C525.091 115.247 524.845 116.161 524.845 117.351ZM540.313 116.99V122H538.626V109.203H543.346C544.746 109.203 545.842 109.561 546.633 110.275C547.43 110.99 547.828 111.937 547.828 113.114C547.828 114.356 547.438 115.314 546.659 115.988C545.886 116.656 544.775 116.99 543.328 116.99H540.313ZM540.313 115.61H543.346C544.248 115.61 544.939 115.399 545.42 114.978C545.9 114.55 546.141 113.935 546.141 113.132C546.141 112.37 545.9 111.761 545.42 111.304C544.939 110.847 544.28 110.609 543.442 110.592H540.313V115.61ZM559.825 116.015C559.825 117.269 559.614 118.364 559.192 119.302C558.771 120.233 558.173 120.945 557.399 121.438C556.626 121.93 555.724 122.176 554.692 122.176C553.685 122.176 552.791 121.93 552.012 121.438C551.232 120.939 550.626 120.233 550.192 119.319C549.765 118.399 549.545 117.336 549.533 116.129V115.206C549.533 113.976 549.747 112.889 550.175 111.945C550.603 111.002 551.206 110.281 551.985 109.783C552.771 109.279 553.667 109.027 554.675 109.027C555.7 109.027 556.603 109.276 557.382 109.774C558.167 110.267 558.771 110.984 559.192 111.928C559.614 112.865 559.825 113.958 559.825 115.206V116.015ZM558.146 115.188C558.146 113.671 557.842 112.508 557.232 111.699C556.623 110.885 555.771 110.478 554.675 110.478C553.608 110.478 552.768 110.885 552.152 111.699C551.543 112.508 551.229 113.633 551.212 115.074V116.015C551.212 117.485 551.52 118.643 552.135 119.486C552.756 120.324 553.608 120.743 554.692 120.743C555.782 120.743 556.626 120.348 557.224 119.557C557.821 118.76 558.129 117.62 558.146 116.138V115.188Z" fill="#003049"/>
<path d="M490.578 44.9902V50H488.891V37.2031H493.61C495.011 37.2031 496.106 37.5605 496.897 38.2754C497.694 38.9902 498.093 39.9365 498.093 41.1143C498.093 42.3564 497.703 43.3145 496.924 43.9883C496.15 44.6562 495.04 44.9902 493.593 44.9902H490.578ZM490.578 43.6104H493.61C494.513 43.6104 495.204 43.3994 495.685 42.9775C496.165 42.5498 496.405 41.9346 496.405 41.1318C496.405 40.3701 496.165 39.7607 495.685 39.3037C495.204 38.8467 494.545 38.6094 493.707 38.5918H490.578V43.6104ZM510.09 44.0146C510.09 45.2686 509.879 46.3643 509.457 47.3018C509.035 48.2334 508.438 48.9453 507.664 49.4375C506.891 49.9297 505.988 50.1758 504.957 50.1758C503.949 50.1758 503.056 49.9297 502.276 49.4375C501.497 48.9395 500.891 48.2334 500.457 47.3193C500.029 46.3994 499.81 45.3359 499.798 44.1289V43.2061C499.798 41.9756 500.012 40.8887 500.439 39.9453C500.867 39.002 501.471 38.2812 502.25 37.7832C503.035 37.2793 503.932 37.0273 504.939 37.0273C505.965 37.0273 506.867 37.2764 507.646 37.7744C508.432 38.2666 509.035 38.9844 509.457 39.9277C509.879 40.8652 510.09 41.958 510.09 43.2061V44.0146ZM508.411 43.1885C508.411 41.6709 508.106 40.5078 507.497 39.6992C506.888 38.8848 506.035 38.4775 504.939 38.4775C503.873 38.4775 503.032 38.8848 502.417 39.6992C501.808 40.5078 501.494 41.6328 501.477 43.0742V44.0146C501.477 45.4854 501.784 46.6426 502.399 47.4863C503.021 48.3242 503.873 48.7432 504.957 48.7432C506.047 48.7432 506.891 48.3477 507.488 47.5566C508.086 46.7598 508.394 45.6201 508.411 44.1377V43.1885ZM519.266 37.2031L523.449 47.6445L527.633 37.2031H529.821V50H528.134V45.0166L528.292 39.6377L524.091 50H522.799L518.606 39.6641L518.773 45.0166V50H517.086V37.2031H519.266ZM532.115 45.1572C532.115 44.2256 532.297 43.3877 532.66 42.6436C533.029 41.8994 533.539 41.3252 534.189 40.9209C534.846 40.5166 535.593 40.3145 536.431 40.3145C537.726 40.3145 538.771 40.7627 539.568 41.6592C540.371 42.5557 540.772 43.748 540.772 45.2363V45.3506C540.772 46.2764 540.594 47.1084 540.236 47.8467C539.885 48.5791 539.378 49.1504 538.716 49.5605C538.06 49.9707 537.304 50.1758 536.448 50.1758C535.159 50.1758 534.113 49.7275 533.311 48.8311C532.514 47.9346 532.115 46.748 532.115 45.2715V45.1572ZM533.75 45.3506C533.75 46.4053 533.993 47.252 534.479 47.8906C534.972 48.5293 535.628 48.8486 536.448 48.8486C537.274 48.8486 537.931 48.5264 538.417 47.8818C538.903 47.2314 539.146 46.3232 539.146 45.1572C539.146 44.1143 538.897 43.2705 538.399 42.626C537.907 41.9756 537.251 41.6504 536.431 41.6504C535.628 41.6504 534.98 41.9697 534.488 42.6084C533.996 43.2471 533.75 44.1611 533.75 45.3506ZM542.416 45.166C542.416 43.707 542.762 42.5352 543.453 41.6504C544.145 40.7598 545.05 40.3145 546.169 40.3145C547.282 40.3145 548.164 40.6953 548.814 41.457V36.5H550.44V50H548.946L548.867 48.9805C548.217 49.7773 547.312 50.1758 546.151 50.1758C545.05 50.1758 544.15 49.7246 543.453 48.8223C542.762 47.9199 542.416 46.7422 542.416 45.2891V45.166ZM544.042 45.3506C544.042 46.4287 544.265 47.2725 544.71 47.8818C545.155 48.4912 545.771 48.7959 546.556 48.7959C547.587 48.7959 548.34 48.333 548.814 47.4072V43.0391C548.328 42.1426 547.581 41.6943 546.573 41.6943C545.776 41.6943 545.155 42.002 544.71 42.6172C544.265 43.2324 544.042 44.1436 544.042 45.3506ZM558.843 49.0596C558.21 49.8037 557.281 50.1758 556.057 50.1758C555.043 50.1758 554.27 49.8828 553.736 49.2969C553.209 48.7051 552.942 47.832 552.937 46.6777V40.4902H554.562V46.6338C554.562 48.0752 555.148 48.7959 556.32 48.7959C557.562 48.7959 558.389 48.333 558.799 47.4072V40.4902H560.425V50H558.878L558.843 49.0596ZM564.67 50H563.044V36.5H564.67V50ZM571.227 50.1758C569.938 50.1758 568.889 49.7539 568.08 48.9102C567.271 48.0605 566.867 46.9268 566.867 45.5088V45.21C566.867 44.2666 567.046 43.4258 567.403 42.6875C567.767 41.9434 568.271 41.3633 568.915 40.9473C569.565 40.5254 570.269 40.3145 571.024 40.3145C572.261 40.3145 573.222 40.7217 573.907 41.5361C574.593 42.3506 574.936 43.5166 574.936 45.0342V45.7109H568.493C568.517 46.6484 568.789 47.4072 569.311 47.9873C569.838 48.5615 570.506 48.8486 571.314 48.8486C571.889 48.8486 572.375 48.7314 572.773 48.4971C573.172 48.2627 573.521 47.9521 573.819 47.5654L574.812 48.3389C574.016 49.5635 572.82 50.1758 571.227 50.1758ZM571.024 41.6504C570.368 41.6504 569.817 41.8906 569.372 42.3711C568.927 42.8457 568.651 43.5137 568.546 44.375H573.31V44.252C573.263 43.4258 573.04 42.7871 572.642 42.3359C572.243 41.8789 571.704 41.6504 571.024 41.6504Z" fill="#003049"/>
<path d="M706.841 185.085H701.295V189.62H707.737V191H699.607V178.203H707.649V179.592H701.295V183.705H706.841V185.085ZM711.112 181.49L711.156 182.545C711.854 181.725 712.794 181.314 713.978 181.314C715.308 181.314 716.213 181.824 716.693 182.844C717.01 182.387 717.42 182.018 717.924 181.736C718.434 181.455 719.034 181.314 719.726 181.314C721.812 181.314 722.872 182.419 722.907 184.628V191H721.281V184.725C721.281 184.045 721.126 183.538 720.815 183.204C720.505 182.864 719.983 182.694 719.251 182.694C718.647 182.694 718.146 182.876 717.748 183.239C717.35 183.597 717.118 184.08 717.054 184.689V191H715.419V184.769C715.419 183.386 714.742 182.694 713.389 182.694C712.322 182.694 711.593 183.148 711.2 184.057V191H709.574V181.49H711.112ZM731.239 191C731.146 190.812 731.069 190.479 731.011 189.998C730.255 190.783 729.353 191.176 728.304 191.176C727.366 191.176 726.596 190.912 725.992 190.385C725.395 189.852 725.096 189.178 725.096 188.363C725.096 187.373 725.471 186.605 726.221 186.061C726.977 185.51 728.037 185.234 729.402 185.234H730.984V184.487C730.984 183.919 730.814 183.468 730.475 183.134C730.135 182.794 729.634 182.624 728.972 182.624C728.392 182.624 727.905 182.771 727.513 183.063C727.12 183.356 726.924 183.711 726.924 184.127H725.289C725.289 183.652 725.456 183.195 725.79 182.756C726.13 182.311 726.587 181.959 727.161 181.701C727.741 181.443 728.377 181.314 729.068 181.314C730.164 181.314 731.022 181.59 731.644 182.141C732.265 182.686 732.587 183.438 732.61 184.399V188.776C732.61 189.649 732.722 190.344 732.944 190.859V191H731.239ZM728.541 189.761C729.051 189.761 729.534 189.629 729.991 189.365C730.448 189.102 730.779 188.759 730.984 188.337V186.386H729.71C727.718 186.386 726.722 186.969 726.722 188.135C726.722 188.645 726.892 189.043 727.231 189.33C727.571 189.617 728.008 189.761 728.541 189.761ZM736.926 191H735.3V181.49H736.926V191ZM735.168 178.968C735.168 178.704 735.247 178.481 735.405 178.3C735.569 178.118 735.81 178.027 736.126 178.027C736.442 178.027 736.683 178.118 736.847 178.3C737.011 178.481 737.093 178.704 737.093 178.968C737.093 179.231 737.011 179.451 736.847 179.627C736.683 179.803 736.442 179.891 736.126 179.891C735.81 179.891 735.569 179.803 735.405 179.627C735.247 179.451 735.168 179.231 735.168 178.968ZM741.303 191H739.677V177.5H741.303V191ZM750.32 185.99V191H748.633V178.203H753.353C754.753 178.203 755.849 178.561 756.64 179.275C757.437 179.99 757.835 180.937 757.835 182.114C757.835 183.356 757.445 184.314 756.666 184.988C755.893 185.656 754.782 185.99 753.335 185.99H750.32ZM750.32 184.61H753.353C754.255 184.61 754.946 184.399 755.427 183.978C755.907 183.55 756.147 182.935 756.147 182.132C756.147 181.37 755.907 180.761 755.427 180.304C754.946 179.847 754.287 179.609 753.449 179.592H750.32V184.61ZM769.832 185.015C769.832 186.269 769.621 187.364 769.199 188.302C768.777 189.233 768.18 189.945 767.406 190.438C766.633 190.93 765.73 191.176 764.699 191.176C763.691 191.176 762.798 190.93 762.019 190.438C761.239 189.939 760.633 189.233 760.199 188.319C759.771 187.399 759.552 186.336 759.54 185.129V184.206C759.54 182.976 759.754 181.889 760.182 180.945C760.609 180.002 761.213 179.281 761.992 178.783C762.777 178.279 763.674 178.027 764.682 178.027C765.707 178.027 766.609 178.276 767.389 178.774C768.174 179.267 768.777 179.984 769.199 180.928C769.621 181.865 769.832 182.958 769.832 184.206V185.015ZM768.153 184.188C768.153 182.671 767.849 181.508 767.239 180.699C766.63 179.885 765.777 179.478 764.682 179.478C763.615 179.478 762.774 179.885 762.159 180.699C761.55 181.508 761.236 182.633 761.219 184.074V185.015C761.219 186.485 761.526 187.643 762.142 188.486C762.763 189.324 763.615 189.743 764.699 189.743C765.789 189.743 766.633 189.348 767.23 188.557C767.828 187.76 768.136 186.62 768.153 185.138V184.188Z" fill="#003049"/>
<path d="M714.953 240.66H709.592L708.388 244H706.647L711.534 231.203H713.011L717.906 244H716.175L714.953 240.66ZM710.102 239.271H714.452L712.272 233.286L710.102 239.271ZM721.316 238.99V244H719.629V231.203H724.349C725.749 231.203 726.845 231.561 727.636 232.275C728.433 232.99 728.831 233.937 728.831 235.114C728.831 236.356 728.441 237.314 727.662 237.988C726.889 238.656 725.778 238.99 724.331 238.99H721.316ZM721.316 237.61H724.349C725.251 237.61 725.942 237.399 726.423 236.978C726.903 236.55 727.144 235.935 727.144 235.132C727.144 234.37 726.903 233.761 726.423 233.304C725.942 232.847 725.283 232.609 724.445 232.592H721.316V237.61ZM732.795 244H731.107V231.203H732.795V244ZM742.041 238.99V244H740.354V231.203H745.073C746.474 231.203 747.569 231.561 748.36 232.275C749.157 232.99 749.556 233.937 749.556 235.114C749.556 236.356 749.166 237.314 748.387 237.988C747.613 238.656 746.503 238.99 745.056 238.99H742.041ZM742.041 237.61H745.073C745.976 237.61 746.667 237.399 747.147 236.978C747.628 236.55 747.868 235.935 747.868 235.132C747.868 234.37 747.628 233.761 747.147 233.304C746.667 232.847 746.008 232.609 745.17 232.592H742.041V237.61ZM761.553 238.015C761.553 239.269 761.342 240.364 760.92 241.302C760.498 242.233 759.9 242.945 759.127 243.438C758.354 243.93 757.451 244.176 756.42 244.176C755.412 244.176 754.519 243.93 753.739 243.438C752.96 242.939 752.354 242.233 751.92 241.319C751.492 240.399 751.272 239.336 751.261 238.129V237.206C751.261 235.976 751.475 234.889 751.902 233.945C752.33 233.002 752.934 232.281 753.713 231.783C754.498 231.279 755.395 231.027 756.402 231.027C757.428 231.027 758.33 231.276 759.109 231.774C759.895 232.267 760.498 232.984 760.92 233.928C761.342 234.865 761.553 235.958 761.553 237.206V238.015ZM759.874 237.188C759.874 235.671 759.569 234.508 758.96 233.699C758.351 232.885 757.498 232.478 756.402 232.478C755.336 232.478 754.495 232.885 753.88 233.699C753.271 234.508 752.957 235.633 752.939 237.074V238.015C752.939 239.485 753.247 240.643 753.862 241.486C754.483 242.324 755.336 242.743 756.42 242.743C757.51 242.743 758.354 242.348 758.951 241.557C759.549 240.76 759.856 239.62 759.874 238.138V237.188Z" fill="#003049"/>
<path d="M707.896 279.203L712.08 289.645L716.264 279.203H718.452V292H716.765V287.017L716.923 281.638L712.722 292H711.43L707.237 281.664L707.404 287.017V292H705.717V279.203H707.896ZM727.048 292C726.954 291.812 726.878 291.479 726.819 290.998C726.063 291.783 725.161 292.176 724.112 292.176C723.175 292.176 722.404 291.912 721.801 291.385C721.203 290.852 720.904 290.178 720.904 289.363C720.904 288.373 721.279 287.605 722.029 287.061C722.785 286.51 723.846 286.234 725.211 286.234H726.793V285.487C726.793 284.919 726.623 284.468 726.283 284.134C725.943 283.794 725.442 283.624 724.78 283.624C724.2 283.624 723.714 283.771 723.321 284.063C722.929 284.356 722.732 284.711 722.732 285.127H721.098C721.098 284.652 721.265 284.195 721.599 283.756C721.938 283.311 722.396 282.959 722.97 282.701C723.55 282.443 724.186 282.314 724.877 282.314C725.973 282.314 726.831 282.59 727.452 283.141C728.073 283.686 728.396 284.438 728.419 285.399V289.776C728.419 290.649 728.53 291.344 728.753 291.859V292H727.048ZM724.35 290.761C724.859 290.761 725.343 290.629 725.8 290.365C726.257 290.102 726.588 289.759 726.793 289.337V287.386H725.519C723.526 287.386 722.53 287.969 722.53 289.135C722.53 289.645 722.7 290.043 723.04 290.33C723.38 290.617 723.816 290.761 724.35 290.761ZM732.506 282.49L732.559 283.686C733.285 282.771 734.234 282.314 735.406 282.314C737.416 282.314 738.43 283.448 738.447 285.716V292H736.821V285.707C736.815 285.021 736.657 284.515 736.347 284.187C736.042 283.858 735.564 283.694 734.914 283.694C734.387 283.694 733.924 283.835 733.525 284.116C733.127 284.397 732.816 284.767 732.594 285.224V292H730.968V282.49H732.506ZM746.771 291.06C746.138 291.804 745.209 292.176 743.984 292.176C742.971 292.176 742.197 291.883 741.664 291.297C741.137 290.705 740.87 289.832 740.864 288.678V282.49H742.49V288.634C742.49 290.075 743.076 290.796 744.248 290.796C745.49 290.796 746.316 290.333 746.727 289.407V282.49H748.353V292H746.806L746.771 291.06ZM756.702 292C756.608 291.812 756.532 291.479 756.474 290.998C755.718 291.783 754.815 292.176 753.767 292.176C752.829 292.176 752.059 291.912 751.455 291.385C750.857 290.852 750.559 290.178 750.559 289.363C750.559 288.373 750.934 287.605 751.684 287.061C752.439 286.51 753.5 286.234 754.865 286.234H756.447V285.487C756.447 284.919 756.277 284.468 755.938 284.134C755.598 283.794 755.097 283.624 754.435 283.624C753.854 283.624 753.368 283.771 752.976 284.063C752.583 284.356 752.387 284.711 752.387 285.127H750.752C750.752 284.652 750.919 284.195 751.253 283.756C751.593 283.311 752.05 282.959 752.624 282.701C753.204 282.443 753.84 282.314 754.531 282.314C755.627 282.314 756.485 282.59 757.106 283.141C757.728 283.686 758.05 284.438 758.073 285.399V289.776C758.073 290.649 758.185 291.344 758.407 291.859V292H756.702ZM754.004 290.761C754.514 290.761 754.997 290.629 755.454 290.365C755.911 290.102 756.242 289.759 756.447 289.337V287.386H755.173C753.181 287.386 752.185 287.969 752.185 289.135C752.185 289.645 752.354 290.043 752.694 290.33C753.034 290.617 753.471 290.761 754.004 290.761ZM762.389 292H760.763V278.5H762.389V292Z" fill="#003049"/>
<path d="M483.491 239.296C482.044 238.88 480.989 238.37 480.327 237.767C479.671 237.157 479.343 236.407 479.343 235.517C479.343 234.509 479.744 233.677 480.547 233.021C481.355 232.358 482.404 232.027 483.693 232.027C484.572 232.027 485.354 232.197 486.04 232.537C486.731 232.877 487.265 233.346 487.64 233.943C488.021 234.541 488.211 235.194 488.211 235.903H486.515C486.515 235.13 486.269 234.523 485.776 234.084C485.284 233.639 484.59 233.416 483.693 233.416C482.861 233.416 482.211 233.601 481.742 233.97C481.279 234.333 481.048 234.84 481.048 235.49C481.048 236.012 481.268 236.454 481.707 236.817C482.152 237.175 482.905 237.503 483.966 237.802C485.032 238.101 485.864 238.432 486.462 238.795C487.065 239.152 487.511 239.571 487.798 240.052C488.091 240.532 488.237 241.098 488.237 241.748C488.237 242.785 487.833 243.617 487.024 244.244C486.216 244.865 485.135 245.176 483.781 245.176C482.902 245.176 482.082 245.009 481.32 244.675C480.559 244.335 479.97 243.872 479.554 243.286C479.144 242.7 478.938 242.035 478.938 241.291H480.635C480.635 242.064 480.919 242.677 481.487 243.128C482.062 243.573 482.826 243.796 483.781 243.796C484.672 243.796 485.354 243.614 485.829 243.251C486.304 242.888 486.541 242.393 486.541 241.766C486.541 241.139 486.321 240.655 485.882 240.315C485.442 239.97 484.646 239.63 483.491 239.296ZM492.359 233.188V235.49H494.135V236.747H492.359V242.645C492.359 243.025 492.438 243.312 492.597 243.506C492.755 243.693 493.024 243.787 493.405 243.787C493.593 243.787 493.851 243.752 494.179 243.682V245C493.751 245.117 493.335 245.176 492.931 245.176C492.204 245.176 491.656 244.956 491.287 244.517C490.918 244.077 490.733 243.453 490.733 242.645V236.747H489.002V235.49H490.733V233.188H492.359ZM501.913 245C501.819 244.812 501.743 244.479 501.685 243.998C500.929 244.783 500.026 245.176 498.978 245.176C498.04 245.176 497.27 244.912 496.666 244.385C496.068 243.852 495.77 243.178 495.77 242.363C495.77 241.373 496.145 240.605 496.895 240.061C497.65 239.51 498.711 239.234 500.076 239.234H501.658V238.487C501.658 237.919 501.488 237.468 501.148 237.134C500.809 236.794 500.308 236.624 499.646 236.624C499.065 236.624 498.579 236.771 498.187 237.063C497.794 237.356 497.598 237.711 497.598 238.127H495.963C495.963 237.652 496.13 237.195 496.464 236.756C496.804 236.311 497.261 235.959 497.835 235.701C498.415 235.443 499.051 235.314 499.742 235.314C500.838 235.314 501.696 235.59 502.317 236.141C502.938 236.686 503.261 237.438 503.284 238.399V242.776C503.284 243.649 503.396 244.344 503.618 244.859V245H501.913ZM499.215 243.761C499.725 243.761 500.208 243.629 500.665 243.365C501.122 243.102 501.453 242.759 501.658 242.337V240.386H500.384C498.392 240.386 497.396 240.969 497.396 242.135C497.396 242.645 497.565 243.043 497.905 243.33C498.245 243.617 498.682 243.761 499.215 243.761ZM507.371 235.49L507.424 236.686C508.15 235.771 509.1 235.314 510.271 235.314C512.281 235.314 513.295 236.448 513.312 238.716V245H511.687V238.707C511.681 238.021 511.522 237.515 511.212 237.187C510.907 236.858 510.43 236.694 509.779 236.694C509.252 236.694 508.789 236.835 508.391 237.116C507.992 237.397 507.682 237.767 507.459 238.224V245H505.833V235.49H507.371ZM515.369 240.166C515.369 238.707 515.715 237.535 516.406 236.65C517.098 235.76 518.003 235.314 519.122 235.314C520.235 235.314 521.117 235.695 521.768 236.457V231.5H523.394V245H521.899L521.82 243.98C521.17 244.777 520.265 245.176 519.104 245.176C518.003 245.176 517.104 244.725 516.406 243.822C515.715 242.92 515.369 241.742 515.369 240.289V240.166ZM516.995 240.351C516.995 241.429 517.218 242.272 517.663 242.882C518.108 243.491 518.724 243.796 519.509 243.796C520.54 243.796 521.293 243.333 521.768 242.407V238.039C521.281 237.143 520.534 236.694 519.526 236.694C518.729 236.694 518.108 237.002 517.663 237.617C517.218 238.232 516.995 239.144 516.995 240.351ZM531.796 245C531.702 244.812 531.626 244.479 531.567 243.998C530.812 244.783 529.909 245.176 528.86 245.176C527.923 245.176 527.152 244.912 526.549 244.385C525.951 243.852 525.652 243.178 525.652 242.363C525.652 241.373 526.027 240.605 526.777 240.061C527.533 239.51 528.594 239.234 529.959 239.234H531.541V238.487C531.541 237.919 531.371 237.468 531.031 237.134C530.691 236.794 530.19 236.624 529.528 236.624C528.948 236.624 528.462 236.771 528.069 237.063C527.677 237.356 527.48 237.711 527.48 238.127H525.846C525.846 237.652 526.013 237.195 526.347 236.756C526.687 236.311 527.144 235.959 527.718 235.701C528.298 235.443 528.934 235.314 529.625 235.314C530.721 235.314 531.579 235.59 532.2 236.141C532.821 236.686 533.144 237.438 533.167 238.399V242.776C533.167 243.649 533.278 244.344 533.501 244.859V245H531.796ZM529.098 243.761C529.607 243.761 530.091 243.629 530.548 243.365C531.005 243.102 531.336 242.759 531.541 242.337V240.386H530.267C528.274 240.386 527.278 240.969 527.278 242.135C527.278 242.645 527.448 243.043 527.788 243.33C528.128 243.617 528.564 243.761 529.098 243.761ZM540.312 236.949C540.066 236.908 539.8 236.888 539.513 236.888C538.446 236.888 537.723 237.342 537.342 238.25V245H535.716V235.49H537.298L537.324 236.589C537.857 235.739 538.613 235.314 539.592 235.314C539.908 235.314 540.148 235.355 540.312 235.438V236.949ZM541.244 240.166C541.244 238.707 541.59 237.535 542.281 236.65C542.973 235.76 543.878 235.314 544.997 235.314C546.11 235.314 546.992 235.695 547.643 236.457V231.5H549.269V245H547.774L547.695 243.98C547.045 244.777 546.14 245.176 544.979 245.176C543.878 245.176 542.979 244.725 542.281 243.822C541.59 242.92 541.244 241.742 541.244 240.289V240.166ZM542.87 240.351C542.87 241.429 543.093 242.272 543.538 242.882C543.983 243.491 544.599 243.796 545.384 243.796C546.415 243.796 547.168 243.333 547.643 242.407V238.039C547.156 237.143 546.409 236.694 545.401 236.694C544.604 236.694 543.983 237.002 543.538 237.617C543.093 238.232 542.87 239.144 542.87 240.351ZM558.207 239.99V245H556.52V232.203H561.239C562.64 232.203 563.735 232.561 564.526 233.275C565.323 233.99 565.722 234.937 565.722 236.114C565.722 237.356 565.332 238.314 564.553 238.988C563.779 239.656 562.669 239.99 561.222 239.99H558.207ZM558.207 238.61H561.239C562.142 238.61 562.833 238.399 563.313 237.978C563.794 237.55 564.034 236.935 564.034 236.132C564.034 235.37 563.794 234.761 563.313 234.304C562.833 233.847 562.174 233.609 561.336 233.592H558.207V238.61ZM577.719 239.015C577.719 240.269 577.508 241.364 577.086 242.302C576.664 243.233 576.066 243.945 575.293 244.438C574.52 244.93 573.617 245.176 572.586 245.176C571.578 245.176 570.685 244.93 569.905 244.438C569.126 243.939 568.52 243.233 568.086 242.319C567.658 241.399 567.438 240.336 567.427 239.129V238.206C567.427 236.976 567.641 235.889 568.068 234.945C568.496 234.002 569.1 233.281 569.879 232.783C570.664 232.279 571.561 232.027 572.568 232.027C573.594 232.027 574.496 232.276 575.275 232.774C576.061 233.267 576.664 233.984 577.086 234.928C577.508 235.865 577.719 236.958 577.719 238.206V239.015ZM576.04 238.188C576.04 236.671 575.735 235.508 575.126 234.699C574.517 233.885 573.664 233.478 572.568 233.478C571.502 233.478 570.661 233.885 570.046 234.699C569.437 235.508 569.123 236.633 569.105 238.074V239.015C569.105 240.485 569.413 241.643 570.028 242.486C570.649 243.324 571.502 243.743 572.586 243.743C573.676 243.743 574.52 243.348 575.117 242.557C575.715 241.76 576.022 240.62 576.04 239.138V238.188Z" fill="#003049"/>
<path d="M483.632 324.966L483.878 326.653L484.238 325.133L486.77 316.203H488.193L490.663 325.133L491.015 326.68L491.287 324.957L493.273 316.203H494.97L491.867 329H490.329L487.692 319.675L487.49 318.699L487.288 319.675L484.555 329H483.017L479.923 316.203H481.61L483.632 324.966ZM506.694 323.015C506.694 324.269 506.483 325.364 506.062 326.302C505.64 327.233 505.042 327.945 504.269 328.438C503.495 328.93 502.593 329.176 501.562 329.176C500.554 329.176 499.66 328.93 498.881 328.438C498.102 327.939 497.495 327.233 497.062 326.319C496.634 325.399 496.414 324.336 496.402 323.129V322.206C496.402 320.976 496.616 319.889 497.044 318.945C497.472 318.002 498.075 317.281 498.854 316.783C499.64 316.279 500.536 316.027 501.544 316.027C502.569 316.027 503.472 316.276 504.251 316.774C505.036 317.267 505.64 317.984 506.062 318.928C506.483 319.865 506.694 320.958 506.694 322.206V323.015ZM505.016 322.188C505.016 320.671 504.711 319.508 504.102 318.699C503.492 317.885 502.64 317.478 501.544 317.478C500.478 317.478 499.637 317.885 499.021 318.699C498.412 319.508 498.099 320.633 498.081 322.074V323.015C498.081 324.485 498.389 325.643 499.004 326.486C499.625 327.324 500.478 327.743 501.562 327.743C502.651 327.743 503.495 327.348 504.093 326.557C504.69 325.76 504.998 324.62 505.016 323.138V322.188ZM515.378 323.99V329H513.69V316.203H518.41C519.811 316.203 520.906 316.561 521.697 317.275C522.494 317.99 522.893 318.937 522.893 320.114C522.893 321.356 522.503 322.314 521.724 322.988C520.95 323.656 519.84 323.99 518.393 323.99H515.378ZM515.378 322.61H518.41C519.312 322.61 520.004 322.399 520.484 321.978C520.965 321.55 521.205 320.935 521.205 320.132C521.205 319.37 520.965 318.761 520.484 318.304C520.004 317.847 519.345 317.609 518.507 317.592H515.378V322.61ZM528.614 329.176C527.325 329.176 526.276 328.754 525.468 327.91C524.659 327.061 524.255 325.927 524.255 324.509V324.21C524.255 323.267 524.434 322.426 524.791 321.688C525.154 320.943 525.658 320.363 526.303 319.947C526.953 319.525 527.656 319.314 528.412 319.314C529.648 319.314 530.609 319.722 531.295 320.536C531.98 321.351 532.323 322.517 532.323 324.034V324.711H525.881C525.904 325.648 526.177 326.407 526.698 326.987C527.226 327.562 527.894 327.849 528.702 327.849C529.276 327.849 529.763 327.731 530.161 327.497C530.56 327.263 530.908 326.952 531.207 326.565L532.2 327.339C531.403 328.563 530.208 329.176 528.614 329.176ZM528.412 320.65C527.756 320.65 527.205 320.891 526.76 321.371C526.314 321.846 526.039 322.514 525.934 323.375H530.697V323.252C530.65 322.426 530.428 321.787 530.029 321.336C529.631 320.879 529.092 320.65 528.412 320.65ZM533.826 324.166C533.826 322.684 534.169 321.506 534.854 320.633C535.54 319.754 536.448 319.314 537.579 319.314C538.739 319.314 539.645 319.725 540.295 320.545L540.374 319.49H541.859V328.771C541.859 330.002 541.493 330.972 540.761 331.681C540.034 332.39 539.056 332.744 537.825 332.744C537.14 332.744 536.469 332.598 535.812 332.305C535.156 332.012 534.655 331.61 534.31 331.101L535.153 330.125C535.851 330.986 536.703 331.417 537.711 331.417C538.502 331.417 539.117 331.194 539.557 330.749C540.002 330.304 540.225 329.677 540.225 328.868V328.051C539.574 328.801 538.687 329.176 537.562 329.176C536.448 329.176 535.546 328.728 534.854 327.831C534.169 326.935 533.826 325.713 533.826 324.166ZM535.461 324.351C535.461 325.423 535.681 326.267 536.12 326.882C536.56 327.491 537.175 327.796 537.966 327.796C538.991 327.796 539.744 327.33 540.225 326.398V322.057C539.727 321.148 538.979 320.694 537.983 320.694C537.192 320.694 536.574 321.002 536.129 321.617C535.684 322.232 535.461 323.144 535.461 324.351ZM543.934 324.166C543.934 322.684 544.276 321.506 544.962 320.633C545.647 319.754 546.556 319.314 547.687 319.314C548.847 319.314 549.752 319.725 550.402 320.545L550.481 319.49H551.967V328.771C551.967 330.002 551.601 330.972 550.868 331.681C550.142 332.39 549.163 332.744 547.933 332.744C547.247 332.744 546.576 332.598 545.92 332.305C545.264 332.012 544.763 331.61 544.417 331.101L545.261 330.125C545.958 330.986 546.811 331.417 547.818 331.417C548.609 331.417 549.225 331.194 549.664 330.749C550.109 330.304 550.332 329.677 550.332 328.868V328.051C549.682 328.801 548.794 329.176 547.669 329.176C546.556 329.176 545.653 328.728 544.962 327.831C544.276 326.935 543.934 325.713 543.934 324.166ZM545.568 324.351C545.568 325.423 545.788 326.267 546.228 326.882C546.667 327.491 547.282 327.796 548.073 327.796C549.099 327.796 549.852 327.33 550.332 326.398V322.057C549.834 321.148 549.087 320.694 548.091 320.694C547.3 320.694 546.682 321.002 546.236 321.617C545.791 322.232 545.568 323.144 545.568 324.351ZM556.194 329H554.568V319.49H556.194V329ZM554.437 316.968C554.437 316.704 554.516 316.481 554.674 316.3C554.838 316.118 555.078 316.027 555.395 316.027C555.711 316.027 555.951 316.118 556.115 316.3C556.279 316.481 556.361 316.704 556.361 316.968C556.361 317.231 556.279 317.451 556.115 317.627C555.951 317.803 555.711 317.891 555.395 317.891C555.078 317.891 554.838 317.803 554.674 317.627C554.516 317.451 554.437 317.231 554.437 316.968ZM560.343 319.49L560.396 320.686C561.122 319.771 562.071 319.314 563.243 319.314C565.253 319.314 566.267 320.448 566.284 322.716V329H564.658V322.707C564.652 322.021 564.494 321.515 564.184 321.187C563.879 320.858 563.401 320.694 562.751 320.694C562.224 320.694 561.761 320.835 561.362 321.116C560.964 321.397 560.653 321.767 560.431 322.224V329H558.805V319.49H560.343ZM568.35 324.166C568.35 322.684 568.692 321.506 569.378 320.633C570.063 319.754 570.972 319.314 572.103 319.314C573.263 319.314 574.168 319.725 574.818 320.545L574.897 319.49H576.383V328.771C576.383 330.002 576.017 330.972 575.284 331.681C574.558 332.39 573.579 332.744 572.349 332.744C571.663 332.744 570.992 332.598 570.336 332.305C569.68 332.012 569.179 331.61 568.833 331.101L569.677 330.125C570.374 330.986 571.227 331.417 572.234 331.417C573.025 331.417 573.641 331.194 574.08 330.749C574.525 330.304 574.748 329.677 574.748 328.868V328.051C574.098 328.801 573.21 329.176 572.085 329.176C570.972 329.176 570.069 328.728 569.378 327.831C568.692 326.935 568.35 325.713 568.35 324.166ZM569.984 324.351C569.984 325.423 570.204 326.267 570.644 326.882C571.083 327.491 571.698 327.796 572.489 327.796C573.515 327.796 574.268 327.33 574.748 326.398V322.057C574.25 321.148 573.503 320.694 572.507 320.694C571.716 320.694 571.098 321.002 570.652 321.617C570.207 322.232 569.984 323.144 569.984 324.351Z" fill="#003049"/>
<path d="M483.199 401.99V407H481.512V394.203H486.231C487.632 394.203 488.728 394.561 489.519 395.275C490.315 395.99 490.714 396.937 490.714 398.114C490.714 399.356 490.324 400.314 489.545 400.988C488.771 401.656 487.661 401.99 486.214 401.99H483.199ZM483.199 400.61H486.231C487.134 400.61 487.825 400.399 488.306 399.978C488.786 399.55 489.026 398.935 489.026 398.132C489.026 397.37 488.786 396.761 488.306 396.304C487.825 395.847 487.166 395.609 486.328 395.592H483.199V400.61ZM502.711 401.015C502.711 402.269 502.5 403.364 502.078 404.302C501.656 405.233 501.059 405.945 500.285 406.438C499.512 406.93 498.609 407.176 497.578 407.176C496.57 407.176 495.677 406.93 494.897 406.438C494.118 405.939 493.512 405.233 493.078 404.319C492.65 403.399 492.431 402.336 492.419 401.129V400.206C492.419 398.976 492.633 397.889 493.061 396.945C493.488 396.002 494.092 395.281 494.871 394.783C495.656 394.279 496.553 394.027 497.561 394.027C498.586 394.027 499.488 394.276 500.268 394.774C501.053 395.267 501.656 395.984 502.078 396.928C502.5 397.865 502.711 398.958 502.711 400.206V401.015ZM501.032 400.188C501.032 398.671 500.728 397.508 500.118 396.699C499.509 395.885 498.656 395.478 497.561 395.478C496.494 395.478 495.653 395.885 495.038 396.699C494.429 397.508 494.115 398.633 494.098 400.074V401.015C494.098 402.485 494.405 403.643 495.021 404.486C495.642 405.324 496.494 405.743 497.578 405.743C498.668 405.743 499.512 405.348 500.109 404.557C500.707 403.76 501.015 402.62 501.032 401.138V400.188ZM516.773 403.66H511.412L510.208 407H508.468L513.354 394.203H514.831L519.727 407H517.995L516.773 403.66ZM511.922 402.271H516.272L514.093 396.286L511.922 402.271ZM529.228 402.351C529.228 403.798 528.896 404.964 528.234 405.849C527.572 406.733 526.676 407.176 525.545 407.176C524.391 407.176 523.482 406.81 522.82 406.077V410.656H521.194V397.49H522.68L522.759 398.545C523.421 397.725 524.341 397.314 525.519 397.314C526.661 397.314 527.563 397.745 528.226 398.606C528.894 399.468 529.228 400.666 529.228 402.201V402.351ZM527.602 402.166C527.602 401.094 527.373 400.247 526.916 399.626C526.459 399.005 525.832 398.694 525.035 398.694C524.051 398.694 523.312 399.131 522.82 400.004V404.548C523.307 405.415 524.051 405.849 525.053 405.849C525.832 405.849 526.45 405.541 526.907 404.926C527.37 404.305 527.602 403.385 527.602 402.166ZM539.335 402.351C539.335 403.798 539.004 404.964 538.342 405.849C537.68 406.733 536.783 407.176 535.652 407.176C534.498 407.176 533.59 406.81 532.928 406.077V410.656H531.302V397.49H532.787L532.866 398.545C533.528 397.725 534.448 397.314 535.626 397.314C536.769 397.314 537.671 397.745 538.333 398.606C539.001 399.468 539.335 400.666 539.335 402.201V402.351ZM537.709 402.166C537.709 401.094 537.48 400.247 537.023 399.626C536.566 399.005 535.939 398.694 535.143 398.694C534.158 398.694 533.42 399.131 532.928 400.004V404.548C533.414 405.415 534.158 405.849 535.16 405.849C535.939 405.849 536.558 405.541 537.015 404.926C537.478 404.305 537.709 403.385 537.709 402.166ZM546.006 398.949C545.76 398.908 545.493 398.888 545.206 398.888C544.14 398.888 543.416 399.342 543.035 400.25V407H541.409V397.49H542.991L543.018 398.589C543.551 397.739 544.307 397.314 545.285 397.314C545.602 397.314 545.842 397.355 546.006 397.438V398.949ZM546.902 402.157C546.902 401.226 547.084 400.388 547.447 399.644C547.816 398.899 548.326 398.325 548.977 397.921C549.633 397.517 550.38 397.314 551.218 397.314C552.513 397.314 553.559 397.763 554.355 398.659C555.158 399.556 555.56 400.748 555.56 402.236V402.351C555.56 403.276 555.381 404.108 555.023 404.847C554.672 405.579 554.165 406.15 553.503 406.561C552.847 406.971 552.091 407.176 551.235 407.176C549.946 407.176 548.9 406.728 548.098 405.831C547.301 404.935 546.902 403.748 546.902 402.271V402.157ZM548.537 402.351C548.537 403.405 548.78 404.252 549.267 404.891C549.759 405.529 550.415 405.849 551.235 405.849C552.062 405.849 552.718 405.526 553.204 404.882C553.69 404.231 553.934 403.323 553.934 402.157C553.934 401.114 553.685 400.271 553.187 399.626C552.694 398.976 552.038 398.65 551.218 398.65C550.415 398.65 549.768 398.97 549.275 399.608C548.783 400.247 548.537 401.161 548.537 402.351ZM560.596 404.794L562.951 397.49H564.612L561.202 407H559.963L556.518 397.49H558.179L560.596 404.794ZM571.907 407C571.813 406.812 571.737 406.479 571.679 405.998C570.923 406.783 570.021 407.176 568.972 407.176C568.034 407.176 567.264 406.912 566.66 406.385C566.062 405.852 565.764 405.178 565.764 404.363C565.764 403.373 566.139 402.605 566.889 402.061C567.645 401.51 568.705 401.234 570.07 401.234H571.652V400.487C571.652 399.919 571.482 399.468 571.143 399.134C570.803 398.794 570.302 398.624 569.64 398.624C569.06 398.624 568.573 398.771 568.181 399.063C567.788 399.356 567.592 399.711 567.592 400.127H565.957C565.957 399.652 566.124 399.195 566.458 398.756C566.798 398.311 567.255 397.959 567.829 397.701C568.409 397.443 569.045 397.314 569.736 397.314C570.832 397.314 571.69 397.59 572.312 398.141C572.933 398.686 573.255 399.438 573.278 400.399V404.776C573.278 405.649 573.39 406.344 573.612 406.859V407H571.907ZM569.209 405.761C569.719 405.761 570.202 405.629 570.659 405.365C571.116 405.102 571.447 404.759 571.652 404.337V402.386H570.378C568.386 402.386 567.39 402.969 567.39 404.135C567.39 404.645 567.56 405.043 567.899 405.33C568.239 405.617 568.676 405.761 569.209 405.761ZM577.594 407H575.968V393.5H577.594V407ZM496.137 423.966L496.383 425.653L496.743 424.133L499.274 415.203H500.698L503.168 424.133L503.52 425.68L503.792 423.957L505.778 415.203H507.475L504.372 428H502.834L500.197 418.675L499.995 417.699L499.793 418.675L497.06 428H495.521L492.428 415.203H494.115L496.137 423.966ZM508.389 423.157C508.389 422.226 508.57 421.388 508.934 420.644C509.303 419.899 509.812 419.325 510.463 418.921C511.119 418.517 511.866 418.314 512.704 418.314C513.999 418.314 515.045 418.763 515.842 419.659C516.645 420.556 517.046 421.748 517.046 423.236V423.351C517.046 424.276 516.867 425.108 516.51 425.847C516.158 426.579 515.651 427.15 514.989 427.561C514.333 427.971 513.577 428.176 512.722 428.176C511.433 428.176 510.387 427.728 509.584 426.831C508.787 425.935 508.389 424.748 508.389 423.271V423.157ZM510.023 423.351C510.023 424.405 510.267 425.252 510.753 425.891C511.245 426.529 511.901 426.849 512.722 426.849C513.548 426.849 514.204 426.526 514.69 425.882C515.177 425.231 515.42 424.323 515.42 423.157C515.42 422.114 515.171 421.271 514.673 420.626C514.181 419.976 513.524 419.65 512.704 419.65C511.901 419.65 511.254 419.97 510.762 420.608C510.27 421.247 510.023 422.161 510.023 423.351ZM523.682 419.949C523.436 419.908 523.169 419.888 522.882 419.888C521.815 419.888 521.092 420.342 520.711 421.25V428H519.085V418.49H520.667L520.693 419.589C521.227 418.739 521.982 418.314 522.961 418.314C523.277 418.314 523.518 418.355 523.682 418.438V419.949ZM527.839 423.597L526.819 424.66V428H525.193V414.5H526.819V422.665L527.689 421.619L530.651 418.49H532.629L528.929 422.463L533.06 428H531.152L527.839 423.597ZM540.249 415.88C539.522 415.763 538.937 415.704 538.491 415.704C537.319 415.704 536.733 416.319 536.733 417.55V418.49H538.764V419.747H536.733V428H535.107V419.747H533.604V418.49H535.107V417.453C535.113 416.439 535.397 415.663 535.96 415.124C536.522 414.585 537.322 414.315 538.359 414.315C538.951 414.315 540.123 414.494 541.875 414.852V428H540.249V415.88ZM544.107 423.157C544.107 422.226 544.289 421.388 544.652 420.644C545.021 419.899 545.531 419.325 546.182 418.921C546.838 418.517 547.585 418.314 548.423 418.314C549.718 418.314 550.764 418.763 551.561 419.659C552.363 420.556 552.765 421.748 552.765 423.236V423.351C552.765 424.276 552.586 425.108 552.229 425.847C551.877 426.579 551.37 427.15 550.708 427.561C550.052 427.971 549.296 428.176 548.44 428.176C547.151 428.176 546.105 427.728 545.303 426.831C544.506 425.935 544.107 424.748 544.107 423.271V423.157ZM545.742 423.351C545.742 424.405 545.985 425.252 546.472 425.891C546.964 426.529 547.62 426.849 548.44 426.849C549.267 426.849 549.923 426.526 550.409 425.882C550.896 425.231 551.139 424.323 551.139 423.157C551.139 422.114 550.89 421.271 550.392 420.626C549.899 419.976 549.243 419.65 548.423 419.65C547.62 419.65 546.973 419.97 546.48 420.608C545.988 421.247 545.742 422.161 545.742 423.351ZM563.224 425.759L565.052 418.49H566.678L563.909 428H562.591L560.279 420.793L558.029 428H556.711L553.951 418.49H555.568L557.44 425.609L559.655 418.49H560.965L563.224 425.759Z" fill="#003049"/>
<path d="M266.901 226.203L271.085 236.645L275.269 226.203H277.457V239H275.77V234.017L275.928 228.638L271.727 239H270.435L266.242 228.664L266.409 234.017V239H264.722V226.203H266.901ZM285.13 233.823H282.124V239H280.428V226.203H284.664C286.105 226.203 287.213 226.531 287.986 227.188C288.766 227.844 289.155 228.799 289.155 230.053C289.155 230.85 288.938 231.544 288.505 232.136C288.077 232.728 287.479 233.17 286.712 233.463L289.718 238.895V239H287.907L285.13 233.823ZM282.124 232.443H284.717C285.555 232.443 286.22 232.227 286.712 231.793C287.21 231.359 287.459 230.779 287.459 230.053C287.459 229.262 287.222 228.655 286.747 228.233C286.278 227.812 285.599 227.598 284.708 227.592H282.124V232.443ZM293.216 233.99V239H291.528V226.203H296.248C297.648 226.203 298.744 226.561 299.535 227.275C300.332 227.99 300.73 228.937 300.73 230.114C300.73 231.356 300.341 232.314 299.562 232.988C298.788 233.656 297.678 233.99 296.23 233.99H293.216ZM293.216 232.61H296.248C297.15 232.61 297.842 232.399 298.322 231.978C298.803 231.55 299.043 230.935 299.043 230.132C299.043 229.37 298.803 228.761 298.322 228.304C297.842 227.847 297.183 227.609 296.345 227.592H293.216V232.61ZM314.415 235.66H309.054L307.85 239H306.109L310.996 226.203H312.473L317.368 239H315.637L314.415 235.66ZM309.563 234.271H313.914L311.734 228.286L309.563 234.271ZM322.65 237.849C323.23 237.849 323.737 237.673 324.171 237.321C324.604 236.97 324.845 236.53 324.892 236.003H326.43C326.4 236.548 326.213 237.066 325.867 237.559C325.521 238.051 325.059 238.443 324.479 238.736C323.904 239.029 323.295 239.176 322.65 239.176C321.355 239.176 320.324 238.745 319.557 237.884C318.795 237.017 318.414 235.833 318.414 234.333V234.061C318.414 233.135 318.584 232.312 318.924 231.591C319.264 230.87 319.75 230.311 320.383 229.912C321.021 229.514 321.774 229.314 322.642 229.314C323.708 229.314 324.593 229.634 325.296 230.272C326.005 230.911 326.383 231.74 326.43 232.76H324.892C324.845 232.145 324.61 231.641 324.188 231.248C323.772 230.85 323.257 230.65 322.642 230.65C321.815 230.65 321.174 230.949 320.717 231.547C320.266 232.139 320.04 232.997 320.04 234.122V234.43C320.04 235.525 320.266 236.369 320.717 236.961C321.168 237.553 321.812 237.849 322.65 237.849ZM330.464 227.188V229.49H332.239V230.747H330.464V236.645C330.464 237.025 330.543 237.312 330.701 237.506C330.859 237.693 331.129 237.787 331.51 237.787C331.697 237.787 331.955 237.752 332.283 237.682V239C331.855 239.117 331.439 239.176 331.035 239.176C330.309 239.176 329.761 238.956 329.392 238.517C329.022 238.077 328.838 237.453 328.838 236.645V230.747H327.106V229.49H328.838V227.188H330.464ZM335.913 239H334.287V229.49H335.913V239ZM334.155 226.968C334.155 226.704 334.234 226.481 334.393 226.3C334.557 226.118 334.797 226.027 335.113 226.027C335.43 226.027 335.67 226.118 335.834 226.3C335.998 226.481 336.08 226.704 336.08 226.968C336.08 227.231 335.998 227.451 335.834 227.627C335.67 227.803 335.43 227.891 335.113 227.891C334.797 227.891 334.557 227.803 334.393 227.627C334.234 227.451 334.155 227.231 334.155 226.968ZM338.093 234.157C338.093 233.226 338.274 232.388 338.638 231.644C339.007 230.899 339.517 230.325 340.167 229.921C340.823 229.517 341.57 229.314 342.408 229.314C343.703 229.314 344.749 229.763 345.546 230.659C346.349 231.556 346.75 232.748 346.75 234.236V234.351C346.75 235.276 346.571 236.108 346.214 236.847C345.862 237.579 345.355 238.15 344.693 238.561C344.037 238.971 343.281 239.176 342.426 239.176C341.137 239.176 340.091 238.728 339.288 237.831C338.491 236.935 338.093 235.748 338.093 234.271V234.157ZM339.728 234.351C339.728 235.405 339.971 236.252 340.457 236.891C340.949 237.529 341.605 237.849 342.426 237.849C343.252 237.849 343.908 237.526 344.395 236.882C344.881 236.231 345.124 235.323 345.124 234.157C345.124 233.114 344.875 232.271 344.377 231.626C343.885 230.976 343.229 230.65 342.408 230.65C341.605 230.65 340.958 230.97 340.466 231.608C339.974 232.247 339.728 233.161 339.728 234.351ZM350.327 229.49L350.38 230.686C351.106 229.771 352.056 229.314 353.228 229.314C355.237 229.314 356.251 230.448 356.269 232.716V239H354.643V232.707C354.637 232.021 354.479 231.515 354.168 231.187C353.863 230.858 353.386 230.694 352.735 230.694C352.208 230.694 351.745 230.835 351.347 231.116C350.948 231.397 350.638 231.767 350.415 232.224V239H348.789V229.49H350.327ZM364.258 236.478C364.258 236.038 364.091 235.698 363.757 235.458C363.429 235.212 362.852 235.001 362.025 234.825C361.205 234.649 360.552 234.438 360.065 234.192C359.585 233.946 359.228 233.653 358.993 233.313C358.765 232.974 358.65 232.569 358.65 232.101C358.65 231.321 358.979 230.662 359.635 230.123C360.297 229.584 361.141 229.314 362.166 229.314C363.244 229.314 364.117 229.593 364.785 230.149C365.459 230.706 365.796 231.418 365.796 232.285H364.161C364.161 231.84 363.971 231.456 363.59 231.134C363.215 230.812 362.74 230.65 362.166 230.65C361.574 230.65 361.111 230.779 360.777 231.037C360.443 231.295 360.276 231.632 360.276 232.048C360.276 232.44 360.432 232.736 360.742 232.936C361.053 233.135 361.612 233.325 362.421 233.507C363.235 233.688 363.895 233.905 364.398 234.157C364.902 234.409 365.274 234.714 365.515 235.071C365.761 235.423 365.884 235.854 365.884 236.363C365.884 237.213 365.544 237.896 364.864 238.411C364.185 238.921 363.303 239.176 362.219 239.176C361.457 239.176 360.783 239.041 360.197 238.771C359.611 238.502 359.151 238.127 358.817 237.646C358.489 237.16 358.325 236.636 358.325 236.073H359.951C359.98 236.618 360.197 237.052 360.602 237.374C361.012 237.69 361.551 237.849 362.219 237.849C362.834 237.849 363.326 237.726 363.695 237.479C364.07 237.228 364.258 236.894 364.258 236.478ZM380.518 234.351C380.518 235.804 380.184 236.973 379.516 237.857C378.848 238.736 377.951 239.176 376.826 239.176C375.625 239.176 374.696 238.751 374.04 237.901L373.961 239H372.467V225.5H374.093V230.536C374.749 229.722 375.654 229.314 376.809 229.314C377.963 229.314 378.868 229.751 379.524 230.624C380.187 231.497 380.518 232.692 380.518 234.21V234.351ZM378.892 234.166C378.892 233.059 378.678 232.203 378.25 231.6C377.822 230.996 377.207 230.694 376.404 230.694C375.332 230.694 374.562 231.192 374.093 232.188V236.302C374.591 237.298 375.367 237.796 376.422 237.796C377.201 237.796 377.808 237.494 378.241 236.891C378.675 236.287 378.892 235.379 378.892 234.166ZM385.58 236.618L387.795 229.49H389.535L385.712 240.468C385.12 242.05 384.18 242.841 382.891 242.841L382.583 242.814L381.977 242.7V241.382L382.416 241.417C382.967 241.417 383.395 241.306 383.699 241.083C384.01 240.86 384.265 240.453 384.464 239.861L384.824 238.895L381.432 229.49H383.207L385.58 236.618ZM316.48 256.66H311.119L309.915 260H308.175L313.062 247.203H314.538L319.434 260H317.702L316.48 256.66ZM311.629 255.271H315.979L313.8 249.286L311.629 255.271ZM323.336 247.203L327.52 257.645L331.703 247.203H333.892V260H332.204V255.017L332.362 249.638L328.161 260H326.869L322.677 249.664L322.844 255.017V260H321.156V247.203H323.336ZM338.567 258.62H344.632V260H336.871V247.203H338.567V258.62Z" fill="#003049"/>
<line x1="662" y1="211" x2="808" y2="211" stroke="black" stroke-width="2"/>
<line x1="662" y1="266" x2="808" y2="266" stroke="black" stroke-width="2"/>
<path d="M637.5 115V431C637.5 458.338 615.338 480.5 588 480.5H475C447.662 480.5 425.5 458.338 425.5 431V115C425.5 87.6619 447.662 65.5 475 65.5H488.5H510H528.5H549H578.5H588C615.338 65.5 637.5 87.6619 637.5 115Z" stroke="#003049"/>
<path d="M253.35 116.354C253.545 116.158 253.545 115.842 253.35 115.646L250.168 112.464C249.972 112.269 249.656 112.269 249.461 112.464C249.265 112.66 249.265 112.976 249.461 113.172L252.289 116L249.461 118.828C249.265 119.024 249.265 119.34 249.461 119.536C249.656 119.731 249.972 119.731 250.168 119.536L253.35 116.354ZM190.996 116.5H252.996V115.5H190.996V116.5Z" fill="#003049"/>
<path d="M253.35 240.854C253.545 240.658 253.545 240.342 253.35 240.146L250.168 236.964C249.972 236.769 249.656 236.769 249.461 236.964C249.265 237.16 249.265 237.476 249.461 237.672L252.289 240.5L249.461 243.328C249.265 243.524 249.265 243.84 249.461 244.036C249.656 244.231 249.972 244.231 250.168 244.036L253.35 240.854ZM190.996 241H252.996V240H190.996V241Z" fill="#003049"/>
<path d="M456.354 116.354C456.549 116.158 456.549 115.842 456.354 115.646L453.172 112.464C452.976 112.269 452.66 112.269 452.464 112.464C452.269 112.66 452.269 112.976 452.464 113.172L455.293 116L452.464 118.828C452.269 119.024 452.269 119.34 452.464 119.536C452.66 119.731 452.976 119.731 453.172 119.536L456.354 116.354ZM400 116.5L456 116.5L456 115.5L400 115.5L400 116.5Z" fill="#003049"/>
<path d="M456.354 239.354C456.549 239.158 456.549 238.842 456.354 238.646L453.172 235.464C452.976 235.269 452.66 235.269 452.464 235.464C452.269 235.66 452.269 235.976 452.464 236.172L455.293 239L452.464 241.828C452.269 242.024 452.269 242.34 452.464 242.536C452.66 242.731 452.976 242.731 453.172 242.536L456.354 239.354ZM400 239.5L456 239.5L456 238.5L400 238.5L400 239.5Z" fill="#003049"/>
<path d="M659.354 238.354C659.549 238.158 659.549 237.842 659.354 237.646L656.172 234.464C655.976 234.269 655.66 234.269 655.464 234.464C655.269 234.66 655.269 234.976 655.464 235.172L658.293 238L655.464 240.828C655.269 241.024 655.269 241.34 655.464 241.536C655.66 241.731 655.976 241.731 656.172 241.536L659.354 238.354ZM603 238.5L659 238.5L659 237.5L603 237.5L603 238.5Z" fill="#003049"/>
<path d="M734.354 314.646C734.158 314.451 733.842 314.451 733.646 314.646L730.464 317.828C730.269 318.024 730.269 318.34 730.464 318.536C730.66 318.731 730.976 318.731 731.172 318.536L734 315.707L736.828 318.536C737.024 318.731 737.34 318.731 737.536 318.536C737.731 318.34 737.731 318.024 737.536 317.828L734.354 314.646ZM734.5 413V315H733.5V413H734.5Z" fill="#003049"/>
<path d="M529.354 269.646C529.158 269.451 528.842 269.451 528.646 269.646L525.464 272.828C525.269 273.024 525.269 273.34 525.464 273.536C525.66 273.731 525.976 273.731 526.172 273.536L529 270.707L531.828 273.536C532.024 273.731 532.34 273.731 532.536 273.536C532.731 273.34 532.731 273.024 532.536 272.828L529.354 269.646ZM529.5 294V270H528.5V294H529.5Z" fill="#003049"/>
<line x1="601.998" y1="412.5" x2="734.002" y2="412.5" stroke="#003049"/>
</svg>
