<svg width="961" height="236" viewBox="0 0 961 236" fill="none" xmlns="http://www.w3.org/2000/svg">
<g clip-path="url(#clip0)">
<rect width="961" height="236" fill="white"/>
<rect x="59" y="93" width="145" height="58" stroke="#003049" stroke-width="2"/>
<path d="M99.6211 122.823H96.6152V128H94.9189V115.203H99.1553C100.597 115.203 101.704 115.531 102.478 116.188C103.257 116.844 103.646 117.799 103.646 119.053C103.646 119.85 103.43 120.544 102.996 121.136C102.568 121.728 101.971 122.17 101.203 122.463L104.209 127.895V128H102.398L99.6211 122.823ZM96.6152 121.443H99.208C100.046 121.443 100.711 121.227 101.203 120.793C101.701 120.359 101.95 119.779 101.95 119.053C101.95 118.262 101.713 117.655 101.238 117.233C100.77 116.812 100.09 116.598 99.1992 116.592H96.6152V121.443ZM109.711 128.176C108.422 128.176 107.373 127.754 106.564 126.91C105.756 126.061 105.352 124.927 105.352 123.509V123.21C105.352 122.267 105.53 121.426 105.888 120.688C106.251 119.943 106.755 119.363 107.399 118.947C108.05 118.525 108.753 118.314 109.509 118.314C110.745 118.314 111.706 118.722 112.392 119.536C113.077 120.351 113.42 121.517 113.42 123.034V123.711H106.978C107.001 124.648 107.273 125.407 107.795 125.987C108.322 126.562 108.99 126.849 109.799 126.849C110.373 126.849 110.859 126.731 111.258 126.497C111.656 126.263 112.005 125.952 112.304 125.565L113.297 126.339C112.5 127.563 111.305 128.176 109.711 128.176ZM109.509 119.65C108.853 119.65 108.302 119.891 107.856 120.371C107.411 120.846 107.136 121.514 107.03 122.375H111.794V122.252C111.747 121.426 111.524 120.787 111.126 120.336C110.728 119.879 110.188 119.65 109.509 119.65ZM119.124 126.849C119.704 126.849 120.211 126.673 120.645 126.321C121.078 125.97 121.318 125.53 121.365 125.003H122.903C122.874 125.548 122.687 126.066 122.341 126.559C121.995 127.051 121.532 127.443 120.952 127.736C120.378 128.029 119.769 128.176 119.124 128.176C117.829 128.176 116.798 127.745 116.03 126.884C115.269 126.017 114.888 124.833 114.888 123.333V123.061C114.888 122.135 115.058 121.312 115.397 120.591C115.737 119.87 116.224 119.311 116.856 118.912C117.495 118.514 118.248 118.314 119.115 118.314C120.182 118.314 121.066 118.634 121.77 119.272C122.479 119.911 122.856 120.74 122.903 121.76H121.365C121.318 121.145 121.084 120.641 120.662 120.248C120.246 119.85 119.73 119.65 119.115 119.65C118.289 119.65 117.647 119.949 117.19 120.547C116.739 121.139 116.514 121.997 116.514 123.122V123.43C116.514 124.525 116.739 125.369 117.19 125.961C117.642 126.553 118.286 126.849 119.124 126.849ZM128.678 128.176C127.389 128.176 126.34 127.754 125.531 126.91C124.723 126.061 124.318 124.927 124.318 123.509V123.21C124.318 122.267 124.497 121.426 124.854 120.688C125.218 119.943 125.722 119.363 126.366 118.947C127.017 118.525 127.72 118.314 128.476 118.314C129.712 118.314 130.673 118.722 131.358 119.536C132.044 120.351 132.387 121.517 132.387 123.034V123.711H125.944C125.968 124.648 126.24 125.407 126.762 125.987C127.289 126.562 127.957 126.849 128.766 126.849C129.34 126.849 129.826 126.731 130.225 126.497C130.623 126.263 130.972 125.952 131.271 125.565L132.264 126.339C131.467 127.563 130.271 128.176 128.678 128.176ZM128.476 119.65C127.819 119.65 127.269 119.891 126.823 120.371C126.378 120.846 126.103 121.514 125.997 122.375H130.761V122.252C130.714 121.426 130.491 120.787 130.093 120.336C129.694 119.879 129.155 119.65 128.476 119.65ZM136.043 128H134.417V118.49H136.043V128ZM134.285 115.968C134.285 115.704 134.364 115.481 134.522 115.3C134.687 115.118 134.927 115.027 135.243 115.027C135.56 115.027 135.8 115.118 135.964 115.3C136.128 115.481 136.21 115.704 136.21 115.968C136.21 116.231 136.128 116.451 135.964 116.627C135.8 116.803 135.56 116.891 135.243 116.891C134.927 116.891 134.687 116.803 134.522 116.627C134.364 116.451 134.285 116.231 134.285 115.968ZM141.791 125.794L144.146 118.49H145.808L142.397 128H141.158L137.713 118.49H139.374L141.791 125.794ZM149.139 128H147.513V118.49H149.139V128ZM147.381 115.968C147.381 115.704 147.46 115.481 147.618 115.3C147.782 115.118 148.022 115.027 148.339 115.027C148.655 115.027 148.896 115.118 149.06 115.3C149.224 115.481 149.306 115.704 149.306 115.968C149.306 116.231 149.224 116.451 149.06 116.627C148.896 116.803 148.655 116.891 148.339 116.891C148.022 116.891 147.782 116.803 147.618 116.627C147.46 116.451 147.381 116.231 147.381 115.968ZM153.287 118.49L153.34 119.686C154.066 118.771 155.016 118.314 156.188 118.314C158.197 118.314 159.211 119.448 159.229 121.716V128H157.603V121.707C157.597 121.021 157.438 120.515 157.128 120.187C156.823 119.858 156.346 119.694 155.695 119.694C155.168 119.694 154.705 119.835 154.307 120.116C153.908 120.397 153.598 120.767 153.375 121.224V128H151.749V118.49H153.287ZM161.294 123.166C161.294 121.684 161.637 120.506 162.322 119.633C163.008 118.754 163.916 118.314 165.047 118.314C166.207 118.314 167.112 118.725 167.763 119.545L167.842 118.49H169.327V127.771C169.327 129.002 168.961 129.972 168.229 130.681C167.502 131.39 166.523 131.744 165.293 131.744C164.607 131.744 163.937 131.598 163.28 131.305C162.624 131.012 162.123 130.61 161.777 130.101L162.621 129.125C163.318 129.986 164.171 130.417 165.179 130.417C165.97 130.417 166.585 130.194 167.024 129.749C167.47 129.304 167.692 128.677 167.692 127.868V127.051C167.042 127.801 166.154 128.176 165.029 128.176C163.916 128.176 163.014 127.728 162.322 126.831C161.637 125.935 161.294 124.713 161.294 123.166ZM162.929 123.351C162.929 124.423 163.148 125.267 163.588 125.882C164.027 126.491 164.643 126.796 165.434 126.796C166.459 126.796 167.212 126.33 167.692 125.398V121.057C167.194 120.148 166.447 119.694 165.451 119.694C164.66 119.694 164.042 120.002 163.597 120.617C163.151 121.232 162.929 122.144 162.929 123.351Z" fill="#003049"/>
<rect x="250" y="39" width="164" height="45" stroke="#003049" stroke-width="2"/>
<path d="M291.368 62.9658L291.614 64.6533L291.975 63.1328L294.506 54.2031H295.93L298.399 63.1328L298.751 64.6797L299.023 62.957L301.01 54.2031H302.706L299.604 67H298.065L295.429 57.6748L295.227 56.6992L295.024 57.6748L292.291 67H290.753L287.659 54.2031H289.347L291.368 62.9658ZM303.62 62.1572C303.62 61.2256 303.802 60.3877 304.165 59.6436C304.534 58.8994 305.044 58.3252 305.694 57.9209C306.351 57.5166 307.098 57.3145 307.936 57.3145C309.23 57.3145 310.276 57.7627 311.073 58.6592C311.876 59.5557 312.277 60.748 312.277 62.2363V62.3506C312.277 63.2764 312.099 64.1084 311.741 64.8467C311.39 65.5791 310.883 66.1504 310.221 66.5605C309.564 66.9707 308.809 67.1758 307.953 67.1758C306.664 67.1758 305.618 66.7275 304.815 65.8311C304.019 64.9346 303.62 63.748 303.62 62.2715V62.1572ZM305.255 62.3506C305.255 63.4053 305.498 64.252 305.984 64.8906C306.477 65.5293 307.133 65.8486 307.953 65.8486C308.779 65.8486 309.436 65.5264 309.922 64.8818C310.408 64.2314 310.651 63.3232 310.651 62.1572C310.651 61.1143 310.402 60.2705 309.904 59.626C309.412 58.9756 308.756 58.6504 307.936 58.6504C307.133 58.6504 306.485 58.9697 305.993 59.6084C305.501 60.2471 305.255 61.1611 305.255 62.3506ZM318.913 58.9492C318.667 58.9082 318.4 58.8877 318.113 58.8877C317.047 58.8877 316.323 59.3418 315.942 60.25V67H314.316V57.4902H315.898L315.925 58.5889C316.458 57.7393 317.214 57.3145 318.192 57.3145C318.509 57.3145 318.749 57.3555 318.913 57.4375V58.9492ZM323.07 62.5967L322.051 63.6602V67H320.425V53.5H322.051V61.665L322.921 60.6191L325.883 57.4902H327.86L324.16 61.4629L328.291 67H326.384L323.07 62.5967ZM344.103 61.0146C344.103 62.2686 343.892 63.3643 343.47 64.3018C343.048 65.2334 342.45 65.9453 341.677 66.4375C340.903 66.9297 340.001 67.1758 338.97 67.1758C337.962 67.1758 337.068 66.9297 336.289 66.4375C335.51 65.9395 334.903 65.2334 334.47 64.3193C334.042 63.3994 333.822 62.3359 333.811 61.1289V60.2061C333.811 58.9756 334.024 57.8887 334.452 56.9453C334.88 56.002 335.483 55.2812 336.263 54.7832C337.048 54.2793 337.944 54.0273 338.952 54.0273C339.978 54.0273 340.88 54.2764 341.659 54.7744C342.444 55.2666 343.048 55.9844 343.47 56.9277C343.892 57.8652 344.103 58.958 344.103 60.2061V61.0146ZM342.424 60.1885C342.424 58.6709 342.119 57.5078 341.51 56.6992C340.9 55.8848 340.048 55.4775 338.952 55.4775C337.886 55.4775 337.045 55.8848 336.43 56.6992C335.82 57.5078 335.507 58.6328 335.489 60.0742V61.0146C335.489 62.4854 335.797 63.6426 336.412 64.4863C337.033 65.3242 337.886 65.7432 338.97 65.7432C340.06 65.7432 340.903 65.3477 341.501 64.5566C342.099 63.7598 342.406 62.6201 342.424 61.1377V60.1885ZM350.976 58.9492C350.729 58.9082 350.463 58.8877 350.176 58.8877C349.109 58.8877 348.386 59.3418 348.005 60.25V67H346.379V57.4902H347.961L347.987 58.5889C348.521 57.7393 349.276 57.3145 350.255 57.3145C350.571 57.3145 350.812 57.3555 350.976 57.4375V58.9492ZM351.907 62.166C351.907 60.707 352.253 59.5352 352.944 58.6504C353.636 57.7598 354.541 57.3145 355.66 57.3145C356.773 57.3145 357.655 57.6953 358.306 58.457V53.5H359.932V67H358.438L358.358 65.9805C357.708 66.7773 356.803 67.1758 355.643 67.1758C354.541 67.1758 353.642 66.7246 352.944 65.8223C352.253 64.9199 351.907 63.7422 351.907 62.2891V62.166ZM353.533 62.3506C353.533 63.4287 353.756 64.2725 354.201 64.8818C354.646 65.4912 355.262 65.7959 356.047 65.7959C357.078 65.7959 357.831 65.333 358.306 64.4072V60.0391C357.819 59.1426 357.072 58.6943 356.064 58.6943C355.268 58.6943 354.646 59.002 354.201 59.6172C353.756 60.2324 353.533 61.1436 353.533 62.3506ZM366.409 67.1758C365.12 67.1758 364.071 66.7539 363.263 65.9102C362.454 65.0605 362.05 63.9268 362.05 62.5088V62.21C362.05 61.2666 362.229 60.4258 362.586 59.6875C362.949 58.9434 363.453 58.3633 364.098 57.9473C364.748 57.5254 365.451 57.3145 366.207 57.3145C367.443 57.3145 368.404 57.7217 369.09 58.5361C369.775 59.3506 370.118 60.5166 370.118 62.0342V62.7109H363.676C363.699 63.6484 363.972 64.4072 364.493 64.9873C365.021 65.5615 365.688 65.8486 366.497 65.8486C367.071 65.8486 367.558 65.7314 367.956 65.4971C368.354 65.2627 368.703 64.9521 369.002 64.5654L369.995 65.3389C369.198 66.5635 368.003 67.1758 366.409 67.1758ZM366.207 58.6504C365.551 58.6504 365 58.8906 364.555 59.3711C364.109 59.8457 363.834 60.5137 363.729 61.375H368.492V61.252C368.445 60.4258 368.223 59.7871 367.824 59.3359C367.426 58.8789 366.887 58.6504 366.207 58.6504ZM376.604 58.9492C376.358 58.9082 376.092 58.8877 375.805 58.8877C374.738 58.8877 374.015 59.3418 373.634 60.25V67H372.008V57.4902H373.59L373.616 58.5889C374.149 57.7393 374.905 57.3145 375.884 57.3145C376.2 57.3145 376.44 57.3555 376.604 57.4375V58.9492Z" fill="#003049"/>
<rect x="519" y="39" width="314" height="57" stroke="#003049" stroke-width="2"/>
<rect x="519" y="39" width="314" height="57" stroke="#003049" stroke-width="2"/>
<path d="M549.452 66.0146C549.452 67.2686 549.241 68.3643 548.819 69.3018C548.397 70.2334 547.799 70.9453 547.026 71.4375C546.252 71.9297 545.35 72.1758 544.319 72.1758C543.311 72.1758 542.417 71.9297 541.638 71.4375C540.859 70.9395 540.252 70.2334 539.819 69.3193C539.391 68.3994 539.171 67.3359 539.16 66.1289V65.2061C539.16 63.9756 539.374 62.8887 539.801 61.9453C540.229 61.002 540.833 60.2812 541.612 59.7832C542.397 59.2793 543.293 59.0273 544.301 59.0273C545.327 59.0273 546.229 59.2764 547.008 59.7744C547.793 60.2666 548.397 60.9844 548.819 61.9277C549.241 62.8652 549.452 63.958 549.452 65.2061V66.0146ZM547.773 65.1885C547.773 63.6709 547.468 62.5078 546.859 61.6992C546.25 60.8848 545.397 60.4775 544.301 60.4775C543.235 60.4775 542.394 60.8848 541.779 61.6992C541.169 62.5078 540.856 63.6328 540.838 65.0742V66.0146C540.838 67.4854 541.146 68.6426 541.761 69.4863C542.382 70.3242 543.235 70.7432 544.319 70.7432C545.409 70.7432 546.252 70.3477 546.85 69.5566C547.448 68.7598 547.755 67.6201 547.773 66.1377V65.1885ZM553.266 62.4902L553.319 63.6855C554.045 62.7715 554.995 62.3145 556.167 62.3145C558.176 62.3145 559.19 63.4482 559.208 65.7158V72H557.582V65.707C557.576 65.0215 557.417 64.5146 557.107 64.1865C556.802 63.8584 556.325 63.6943 555.674 63.6943C555.147 63.6943 554.684 63.835 554.286 64.1162C553.887 64.3975 553.577 64.7666 553.354 65.2236V72H551.728V62.4902H553.266ZM565.606 72.1758C564.317 72.1758 563.268 71.7539 562.459 70.9102C561.651 70.0605 561.247 68.9268 561.247 67.5088V67.21C561.247 66.2666 561.425 65.4258 561.783 64.6875C562.146 63.9434 562.65 63.3633 563.294 62.9473C563.945 62.5254 564.648 62.3145 565.404 62.3145C566.64 62.3145 567.601 62.7217 568.287 63.5361C568.972 64.3506 569.315 65.5166 569.315 67.0342V67.7109H562.873C562.896 68.6484 563.168 69.4072 563.69 69.9873C564.217 70.5615 564.885 70.8486 565.694 70.8486C566.268 70.8486 566.754 70.7314 567.153 70.4971C567.551 70.2627 567.9 69.9521 568.199 69.5654L569.192 70.3389C568.395 71.5635 567.2 72.1758 565.606 72.1758ZM565.404 63.6504C564.748 63.6504 564.197 63.8906 563.751 64.3711C563.306 64.8457 563.031 65.5137 562.925 66.375H567.689V66.252C567.642 65.4258 567.419 64.7871 567.021 64.3359C566.623 63.8789 566.083 63.6504 565.404 63.6504ZM575.239 67.1572C575.239 66.2256 575.42 65.3877 575.784 64.6436C576.153 63.8994 576.663 63.3252 577.313 62.9209C577.969 62.5166 578.716 62.3145 579.554 62.3145C580.849 62.3145 581.895 62.7627 582.692 63.6592C583.495 64.5557 583.896 65.748 583.896 67.2363V67.3506C583.896 68.2764 583.717 69.1084 583.36 69.8467C583.008 70.5791 582.501 71.1504 581.839 71.5605C581.183 71.9707 580.427 72.1758 579.572 72.1758C578.283 72.1758 577.237 71.7275 576.434 70.8311C575.637 69.9346 575.239 68.748 575.239 67.2715V67.1572ZM576.874 67.3506C576.874 68.4053 577.117 69.252 577.603 69.8906C578.095 70.5293 578.751 70.8486 579.572 70.8486C580.398 70.8486 581.054 70.5264 581.541 69.8818C582.027 69.2314 582.27 68.3232 582.27 67.1572C582.27 66.1143 582.021 65.2705 581.523 64.626C581.031 63.9756 580.375 63.6504 579.554 63.6504C578.751 63.6504 578.104 63.9697 577.612 64.6084C577.12 65.2471 576.874 66.1611 576.874 67.3506ZM590.532 63.9492C590.286 63.9082 590.019 63.8877 589.732 63.8877C588.666 63.8877 587.942 64.3418 587.561 65.25V72H585.935V62.4902H587.517L587.543 63.5889C588.077 62.7393 588.833 62.3145 589.811 62.3145C590.127 62.3145 590.368 62.3555 590.532 62.4375V63.9492ZM598.934 59.2031L603.118 69.6445L607.301 59.2031H609.49V72H607.802V67.0166L607.96 61.6377L603.759 72H602.467L598.275 61.6641L598.442 67.0166V72H596.754V59.2031H598.934ZM618.085 71.0596C617.453 71.8037 616.524 72.1758 615.299 72.1758C614.286 72.1758 613.512 71.8828 612.979 71.2969C612.452 70.7051 612.185 69.832 612.179 68.6777V62.4902H613.805V68.6338C613.805 70.0752 614.391 70.7959 615.563 70.7959C616.805 70.7959 617.631 70.333 618.042 69.4072V62.4902H619.667V72H618.121L618.085 71.0596ZM623.913 72H622.287V58.5H623.913V72ZM628.729 60.1875V62.4902H630.504V63.7471H628.729V69.6445C628.729 70.0254 628.808 70.3125 628.966 70.5059C629.125 70.6934 629.394 70.7871 629.775 70.7871C629.962 70.7871 630.22 70.752 630.548 70.6816V72C630.121 72.1172 629.705 72.1758 629.3 72.1758C628.574 72.1758 628.026 71.9561 627.657 71.5166C627.288 71.0771 627.103 70.4531 627.103 69.6445V63.7471H625.372V62.4902H627.103V60.1875H628.729ZM634.178 72H632.552V62.4902H634.178V72ZM632.42 59.9678C632.42 59.7041 632.5 59.4814 632.658 59.2998C632.822 59.1182 633.062 59.0273 633.378 59.0273C633.695 59.0273 633.935 59.1182 634.099 59.2998C634.263 59.4814 634.345 59.7041 634.345 59.9678C634.345 60.2314 634.263 60.4512 634.099 60.627C633.935 60.8027 633.695 60.8906 633.378 60.8906C633.062 60.8906 632.822 60.8027 632.658 60.627C632.5 60.4512 632.42 60.2314 632.42 59.9678ZM644.822 67.3506C644.822 68.7979 644.491 69.9639 643.829 70.8486C643.167 71.7334 642.27 72.1758 641.139 72.1758C639.985 72.1758 639.077 71.8096 638.415 71.0771V75.6562H636.789V62.4902H638.274L638.353 63.5449C639.015 62.7246 639.935 62.3145 641.113 62.3145C642.255 62.3145 643.158 62.7451 643.82 63.6064C644.488 64.4678 644.822 65.666 644.822 67.2012V67.3506ZM643.196 67.166C643.196 66.0938 642.967 65.2471 642.51 64.626C642.053 64.0049 641.426 63.6943 640.629 63.6943C639.645 63.6943 638.907 64.1309 638.415 65.0039V69.5479C638.901 70.415 639.645 70.8486 640.647 70.8486C641.426 70.8486 642.044 70.541 642.501 69.9258C642.964 69.3047 643.196 68.3848 643.196 67.166ZM648.663 72H647.037V58.5H648.663V72ZM655.219 72.1758C653.93 72.1758 652.881 71.7539 652.073 70.9102C651.264 70.0605 650.86 68.9268 650.86 67.5088V67.21C650.86 66.2666 651.039 65.4258 651.396 64.6875C651.759 63.9434 652.263 63.3633 652.908 62.9473C653.558 62.5254 654.261 62.3145 655.017 62.3145C656.253 62.3145 657.214 62.7217 657.9 63.5361C658.585 64.3506 658.928 65.5166 658.928 67.0342V67.7109H652.486C652.509 68.6484 652.782 69.4072 653.303 69.9873C653.831 70.5615 654.499 70.8486 655.307 70.8486C655.881 70.8486 656.368 70.7314 656.766 70.4971C657.165 70.2627 657.513 69.9521 657.812 69.5654L658.805 70.3389C658.008 71.5635 656.813 72.1758 655.219 72.1758ZM655.017 63.6504C654.361 63.6504 653.81 63.8906 653.365 64.3711C652.919 64.8457 652.644 65.5137 652.539 66.375H657.302V66.252C657.255 65.4258 657.033 64.7871 656.634 64.3359C656.236 63.8789 655.697 63.6504 655.017 63.6504ZM668.297 67.9658L668.543 69.6533L668.904 68.1328L671.435 59.2031H672.859L675.329 68.1328L675.68 69.6797L675.953 67.957L677.939 59.2031H679.635L676.533 72H674.995L672.358 62.6748L672.156 61.6992L671.954 62.6748L669.22 72H667.682L664.588 59.2031H666.276L668.297 67.9658ZM691.36 66.0146C691.36 67.2686 691.149 68.3643 690.727 69.3018C690.305 70.2334 689.708 70.9453 688.934 71.4375C688.161 71.9297 687.258 72.1758 686.227 72.1758C685.219 72.1758 684.326 71.9297 683.546 71.4375C682.767 70.9395 682.161 70.2334 681.727 69.3193C681.299 68.3994 681.08 67.3359 681.068 66.1289V65.2061C681.068 63.9756 681.282 62.8887 681.709 61.9453C682.137 61.002 682.741 60.2812 683.52 59.7832C684.305 59.2793 685.202 59.0273 686.209 59.0273C687.235 59.0273 688.137 59.2764 688.917 59.7744C689.702 60.2666 690.305 60.9844 690.727 61.9277C691.149 62.8652 691.36 63.958 691.36 65.2061V66.0146ZM689.681 65.1885C689.681 63.6709 689.376 62.5078 688.767 61.6992C688.158 60.8848 687.305 60.4775 686.209 60.4775C685.143 60.4775 684.302 60.8848 683.687 61.6992C683.078 62.5078 682.764 63.6328 682.747 65.0742V66.0146C682.747 67.4854 683.054 68.6426 683.669 69.4863C684.291 70.3242 685.143 70.7432 686.227 70.7432C687.317 70.7432 688.161 70.3477 688.758 69.5566C689.356 68.7598 689.664 67.6201 689.681 66.1377V65.1885ZM701.608 66.0498L700.043 67.6758V72H698.356V59.2031H700.043V65.5312L705.73 59.2031H707.769L702.733 64.8545L708.165 72H706.143L701.608 66.0498ZM711.153 72H709.527V62.4902H711.153V72ZM709.395 59.9678C709.395 59.7041 709.474 59.4814 709.632 59.2998C709.796 59.1182 710.037 59.0273 710.353 59.0273C710.669 59.0273 710.91 59.1182 711.074 59.2998C711.238 59.4814 711.32 59.7041 711.32 59.9678C711.32 60.2314 711.238 60.4512 711.074 60.627C710.91 60.8027 710.669 60.8906 710.353 60.8906C710.037 60.8906 709.796 60.8027 709.632 60.627C709.474 60.4512 709.395 60.2314 709.395 59.9678ZM715.969 60.1875V62.4902H717.745V63.7471H715.969V69.6445C715.969 70.0254 716.048 70.3125 716.207 70.5059C716.365 70.6934 716.634 70.7871 717.015 70.7871C717.203 70.7871 717.46 70.752 717.789 70.6816V72C717.361 72.1172 716.945 72.1758 716.541 72.1758C715.814 72.1758 715.266 71.9561 714.897 71.5166C714.528 71.0771 714.343 70.4531 714.343 69.6445V63.7471H712.612V62.4902H714.343V60.1875H715.969ZM721.858 60.1875V62.4902H723.633V63.7471H721.858V69.6445C721.858 70.0254 721.937 70.3125 722.095 70.5059C722.253 70.6934 722.523 70.7871 722.904 70.7871C723.091 70.7871 723.349 70.752 723.677 70.6816V72C723.25 72.1172 722.833 72.1758 722.429 72.1758C721.703 72.1758 721.155 71.9561 720.786 71.5166C720.417 71.0771 720.232 70.4531 720.232 69.6445V63.7471H718.5V62.4902H720.232V60.1875H721.858ZM727.307 72H725.681V62.4902H727.307V72ZM725.549 59.9678C725.549 59.7041 725.628 59.4814 725.787 59.2998C725.951 59.1182 726.191 59.0273 726.507 59.0273C726.824 59.0273 727.064 59.1182 727.228 59.2998C727.392 59.4814 727.474 59.7041 727.474 59.9678C727.474 60.2314 727.392 60.4512 727.228 60.627C727.064 60.8027 726.824 60.8906 726.507 60.8906C726.191 60.8906 725.951 60.8027 725.787 60.627C725.628 60.4512 725.549 60.2314 725.549 59.9678ZM731.456 62.4902L731.508 63.6855C732.235 62.7715 733.184 62.3145 734.356 62.3145C736.366 62.3145 737.379 63.4482 737.397 65.7158V72H735.771V65.707C735.765 65.0215 735.607 64.5146 735.296 64.1865C734.992 63.8584 734.514 63.6943 733.864 63.6943C733.336 63.6943 732.874 63.835 732.475 64.1162C732.077 64.3975 731.766 64.7666 731.543 65.2236V72H729.917V62.4902H731.456ZM739.462 67.166C739.462 65.6836 739.805 64.5059 740.491 63.6328C741.176 62.7539 742.084 62.3145 743.215 62.3145C744.375 62.3145 745.281 62.7246 745.931 63.5449L746.01 62.4902H747.496V71.7715C747.496 73.002 747.129 73.9717 746.397 74.6807C745.67 75.3896 744.692 75.7441 743.461 75.7441C742.776 75.7441 742.105 75.5977 741.449 75.3047C740.792 75.0117 740.292 74.6104 739.946 74.1006L740.79 73.125C741.487 73.9863 742.339 74.417 743.347 74.417C744.138 74.417 744.753 74.1943 745.193 73.749C745.638 73.3037 745.861 72.6768 745.861 71.8682V71.0508C745.21 71.8008 744.323 72.1758 743.198 72.1758C742.084 72.1758 741.182 71.7275 740.491 70.8311C739.805 69.9346 739.462 68.7129 739.462 67.166ZM741.097 67.3506C741.097 68.4229 741.317 69.2666 741.756 69.8818C742.196 70.4912 742.811 70.7959 743.602 70.7959C744.627 70.7959 745.38 70.3301 745.861 69.3984V65.0566C745.363 64.1484 744.616 63.6943 743.62 63.6943C742.829 63.6943 742.21 64.002 741.765 64.6172C741.32 65.2324 741.097 66.1436 741.097 67.3506ZM754.36 66.8057C754.36 65.4814 754.536 64.21 754.887 62.9912C755.245 61.7725 755.775 60.665 756.478 59.6689C757.181 58.6729 757.911 57.9697 758.667 57.5596L759 58.6318C758.145 59.2881 757.442 60.29 756.891 61.6377C756.346 62.9854 756.047 64.4941 755.995 66.1641L755.986 66.9111C755.986 69.1729 756.399 71.1357 757.225 72.7998C757.723 73.7959 758.315 74.5752 759 75.1377L758.667 76.1309C757.887 75.6973 757.143 74.9707 756.434 73.9512C755.051 71.959 754.36 69.5771 754.36 66.8057ZM768.625 67.3506C768.625 68.8037 768.291 69.9727 767.623 70.8574C766.955 71.7363 766.058 72.1758 764.933 72.1758C763.732 72.1758 762.803 71.751 762.147 70.9014L762.068 72H760.574V58.5H762.2V63.5361C762.856 62.7217 763.761 62.3145 764.916 62.3145C766.07 62.3145 766.975 62.751 767.631 63.624C768.293 64.4971 768.625 65.6924 768.625 67.21V67.3506ZM766.999 67.166C766.999 66.0586 766.785 65.2031 766.357 64.5996C765.929 63.9961 765.314 63.6943 764.511 63.6943C763.439 63.6943 762.668 64.1924 762.2 65.1885V69.3018C762.698 70.2979 763.474 70.7959 764.529 70.7959C765.308 70.7959 765.915 70.4941 766.348 69.8906C766.782 69.2871 766.999 68.3789 766.999 67.166ZM773.687 69.6182L775.902 62.4902H777.642L773.819 73.4678C773.227 75.0498 772.287 75.8408 770.998 75.8408L770.69 75.8145L770.083 75.7002V74.3818L770.523 74.417C771.074 74.417 771.501 74.3057 771.806 74.083C772.117 73.8604 772.372 73.4531 772.571 72.8613L772.931 71.8945L769.539 62.4902H771.314L773.687 69.6182ZM786.581 67.9658L786.827 69.6533L787.187 68.1328L789.718 59.2031H791.142L793.612 68.1328L793.963 69.6797L794.236 67.957L796.222 59.2031H797.918L794.816 72H793.278L790.641 62.6748L790.439 61.6992L790.237 62.6748L787.503 72H785.965L782.872 59.2031H784.559L786.581 67.9658ZM809.212 67.9395C809.054 69.293 808.553 70.3389 807.709 71.0771C806.872 71.8096 805.755 72.1758 804.361 72.1758C802.849 72.1758 801.636 71.6338 800.722 70.5498C799.814 69.4658 799.36 68.0156 799.36 66.1992V64.9688C799.36 63.7793 799.571 62.7334 799.993 61.8311C800.42 60.9287 801.024 60.2373 801.803 59.7568C802.583 59.2705 803.485 59.0273 804.51 59.0273C805.87 59.0273 806.959 59.4082 807.78 60.1699C808.6 60.9258 809.078 61.9746 809.212 63.3164H807.516C807.37 62.2969 807.05 61.5586 806.558 61.1016C806.072 60.6445 805.389 60.416 804.51 60.416C803.432 60.416 802.585 60.8145 801.97 61.6113C801.361 62.4082 801.056 63.542 801.056 65.0127V66.252C801.056 67.6406 801.346 68.7451 801.926 69.5654C802.506 70.3857 803.318 70.7959 804.361 70.7959C805.298 70.7959 806.016 70.585 806.514 70.1631C807.018 69.7354 807.352 68.9941 807.516 67.9395H809.212ZM814.793 66.8936C814.793 68.2002 814.621 69.4541 814.275 70.6553C813.935 71.8506 813.411 72.9551 812.702 73.9688C811.999 74.9824 811.26 75.7031 810.487 76.1309L810.144 75.1377C811.046 74.4463 811.77 73.374 812.315 71.9209C812.866 70.4619 813.147 68.8447 813.159 67.0693V66.7881C813.159 65.5576 813.03 64.415 812.772 63.3604C812.514 62.2998 812.154 61.3506 811.691 60.5127C811.234 59.6748 810.718 59.0215 810.144 58.5527L810.487 57.5596C811.26 57.9873 811.996 58.7021 812.693 59.7041C813.396 60.7061 813.92 61.8105 814.266 63.0176C814.618 64.2246 814.793 65.5166 814.793 66.8936Z" fill="#003049"/>
<rect x="267" y="124" width="129" height="40" stroke="#003049" stroke-width="2"/>
<path d="M293.469 149H291.781V136.203H293.469V149ZM297.846 139.49L297.898 140.686C298.625 139.771 299.574 139.314 300.746 139.314C302.756 139.314 303.77 140.448 303.787 142.716V149H302.161V142.707C302.155 142.021 301.997 141.515 301.687 141.187C301.382 140.858 300.904 140.694 300.254 140.694C299.727 140.694 299.264 140.835 298.865 141.116C298.467 141.397 298.156 141.767 297.934 142.224V149H296.308V139.49H297.846ZM311.776 146.478C311.776 146.038 311.609 145.698 311.275 145.458C310.947 145.212 310.37 145.001 309.544 144.825C308.724 144.649 308.07 144.438 307.584 144.192C307.104 143.946 306.746 143.653 306.512 143.313C306.283 142.974 306.169 142.569 306.169 142.101C306.169 141.321 306.497 140.662 307.153 140.123C307.815 139.584 308.659 139.314 309.685 139.314C310.763 139.314 311.636 139.593 312.304 140.149C312.978 140.706 313.314 141.418 313.314 142.285H311.68C311.68 141.84 311.489 141.456 311.108 141.134C310.733 140.812 310.259 140.65 309.685 140.65C309.093 140.65 308.63 140.779 308.296 141.037C307.962 141.295 307.795 141.632 307.795 142.048C307.795 142.44 307.95 142.736 308.261 142.936C308.571 143.135 309.131 143.325 309.939 143.507C310.754 143.688 311.413 143.905 311.917 144.157C312.421 144.409 312.793 144.714 313.033 145.071C313.279 145.423 313.402 145.854 313.402 146.363C313.402 147.213 313.062 147.896 312.383 148.411C311.703 148.921 310.821 149.176 309.737 149.176C308.976 149.176 308.302 149.041 307.716 148.771C307.13 148.502 306.67 148.127 306.336 147.646C306.008 147.16 305.844 146.636 305.844 146.073H307.47C307.499 146.618 307.716 147.052 308.12 147.374C308.53 147.69 309.069 147.849 309.737 147.849C310.353 147.849 310.845 147.726 311.214 147.479C311.589 147.228 311.776 146.894 311.776 146.478ZM323.554 144.351C323.554 145.798 323.223 146.964 322.561 147.849C321.898 148.733 321.002 149.176 319.871 149.176C318.717 149.176 317.809 148.81 317.146 148.077V152.656H315.521V139.49H317.006L317.085 140.545C317.747 139.725 318.667 139.314 319.845 139.314C320.987 139.314 321.89 139.745 322.552 140.606C323.22 141.468 323.554 142.666 323.554 144.201V144.351ZM321.928 144.166C321.928 143.094 321.699 142.247 321.242 141.626C320.785 141.005 320.158 140.694 319.361 140.694C318.377 140.694 317.639 141.131 317.146 142.004V146.548C317.633 147.415 318.377 147.849 319.379 147.849C320.158 147.849 320.776 147.541 321.233 146.926C321.696 146.305 321.928 145.385 321.928 144.166ZM329.574 149.176C328.285 149.176 327.236 148.754 326.428 147.91C325.619 147.061 325.215 145.927 325.215 144.509V144.21C325.215 143.267 325.394 142.426 325.751 141.688C326.114 140.943 326.618 140.363 327.263 139.947C327.913 139.525 328.616 139.314 329.372 139.314C330.608 139.314 331.569 139.722 332.255 140.536C332.94 141.351 333.283 142.517 333.283 144.034V144.711H326.841C326.864 145.648 327.137 146.407 327.658 146.987C328.186 147.562 328.854 147.849 329.662 147.849C330.236 147.849 330.723 147.731 331.121 147.497C331.52 147.263 331.868 146.952 332.167 146.565L333.16 147.339C332.363 148.563 331.168 149.176 329.574 149.176ZM329.372 140.65C328.716 140.65 328.165 140.891 327.72 141.371C327.274 141.846 326.999 142.514 326.894 143.375H331.657V143.252C331.61 142.426 331.388 141.787 330.989 141.336C330.591 140.879 330.052 140.65 329.372 140.65ZM338.987 147.849C339.567 147.849 340.074 147.673 340.508 147.321C340.941 146.97 341.182 146.53 341.229 146.003H342.767C342.737 146.548 342.55 147.066 342.204 147.559C341.858 148.051 341.396 148.443 340.815 148.736C340.241 149.029 339.632 149.176 338.987 149.176C337.692 149.176 336.661 148.745 335.894 147.884C335.132 147.017 334.751 145.833 334.751 144.333V144.061C334.751 143.135 334.921 142.312 335.261 141.591C335.601 140.87 336.087 140.311 336.72 139.912C337.358 139.514 338.111 139.314 338.979 139.314C340.045 139.314 340.93 139.634 341.633 140.272C342.342 140.911 342.72 141.74 342.767 142.76H341.229C341.182 142.145 340.947 141.641 340.525 141.248C340.109 140.85 339.594 140.65 338.979 140.65C338.152 140.65 337.511 140.949 337.054 141.547C336.603 142.139 336.377 142.997 336.377 144.122V144.43C336.377 145.525 336.603 146.369 337.054 146.961C337.505 147.553 338.149 147.849 338.987 147.849ZM346.801 137.188V139.49H348.576V140.747H346.801V146.645C346.801 147.025 346.88 147.312 347.038 147.506C347.196 147.693 347.466 147.787 347.847 147.787C348.034 147.787 348.292 147.752 348.62 147.682V149C348.192 149.117 347.776 149.176 347.372 149.176C346.646 149.176 346.098 148.956 345.729 148.517C345.359 148.077 345.175 147.453 345.175 146.645V140.747H343.443V139.49H345.175V137.188H346.801ZM352.25 149H350.624V139.49H352.25V149ZM350.492 136.968C350.492 136.704 350.571 136.481 350.729 136.3C350.894 136.118 351.134 136.027 351.45 136.027C351.767 136.027 352.007 136.118 352.171 136.3C352.335 136.481 352.417 136.704 352.417 136.968C352.417 137.231 352.335 137.451 352.171 137.627C352.007 137.803 351.767 137.891 351.45 137.891C351.134 137.891 350.894 137.803 350.729 137.627C350.571 137.451 350.492 137.231 350.492 136.968ZM354.43 144.157C354.43 143.226 354.611 142.388 354.975 141.644C355.344 140.899 355.854 140.325 356.504 139.921C357.16 139.517 357.907 139.314 358.745 139.314C360.04 139.314 361.086 139.763 361.883 140.659C362.686 141.556 363.087 142.748 363.087 144.236V144.351C363.087 145.276 362.908 146.108 362.551 146.847C362.199 147.579 361.692 148.15 361.03 148.561C360.374 148.971 359.618 149.176 358.763 149.176C357.474 149.176 356.428 148.728 355.625 147.831C354.828 146.935 354.43 145.748 354.43 144.271V144.157ZM356.064 144.351C356.064 145.405 356.308 146.252 356.794 146.891C357.286 147.529 357.942 147.849 358.763 147.849C359.589 147.849 360.245 147.526 360.731 146.882C361.218 146.231 361.461 145.323 361.461 144.157C361.461 143.114 361.212 142.271 360.714 141.626C360.222 140.976 359.565 140.65 358.745 140.65C357.942 140.65 357.295 140.97 356.803 141.608C356.311 142.247 356.064 143.161 356.064 144.351ZM366.664 139.49L366.717 140.686C367.443 139.771 368.393 139.314 369.564 139.314C371.574 139.314 372.588 140.448 372.605 142.716V149H370.979V142.707C370.974 142.021 370.815 141.515 370.505 141.187C370.2 140.858 369.723 140.694 369.072 140.694C368.545 140.694 368.082 140.835 367.684 141.116C367.285 141.397 366.975 141.767 366.752 142.224V149H365.126V139.49H366.664Z" fill="#003049"/>
<rect x="519" y="150" width="175" height="58" stroke="#003049" stroke-width="2"/>
<path d="M566.307 180.966L566.553 182.653L566.913 181.133L569.444 172.203H570.868L573.338 181.133L573.689 182.68L573.962 180.957L575.948 172.203H577.645L574.542 185H573.004L570.367 175.675L570.165 174.699L569.963 175.675L567.229 185H565.691L562.598 172.203H564.285L566.307 180.966ZM584.843 185C584.749 184.812 584.673 184.479 584.614 183.998C583.858 184.783 582.956 185.176 581.907 185.176C580.97 185.176 580.199 184.912 579.596 184.385C578.998 183.852 578.699 183.178 578.699 182.363C578.699 181.373 579.074 180.605 579.824 180.061C580.58 179.51 581.641 179.234 583.006 179.234H584.588V178.487C584.588 177.919 584.418 177.468 584.078 177.134C583.738 176.794 583.237 176.624 582.575 176.624C581.995 176.624 581.509 176.771 581.116 177.063C580.724 177.356 580.527 177.711 580.527 178.127H578.893C578.893 177.652 579.06 177.195 579.394 176.756C579.733 176.311 580.19 175.959 580.765 175.701C581.345 175.443 581.98 175.314 582.672 175.314C583.768 175.314 584.626 175.59 585.247 176.141C585.868 176.686 586.19 177.438 586.214 178.399V182.776C586.214 183.649 586.325 184.344 586.548 184.859V185H584.843ZM582.145 183.761C582.654 183.761 583.138 183.629 583.595 183.365C584.052 183.102 584.383 182.759 584.588 182.337V180.386H583.313C581.321 180.386 580.325 180.969 580.325 182.135C580.325 182.645 580.495 183.043 580.835 183.33C581.175 183.617 581.611 183.761 582.145 183.761ZM593.359 176.949C593.113 176.908 592.847 176.888 592.56 176.888C591.493 176.888 590.77 177.342 590.389 178.25V185H588.763V175.49H590.345L590.371 176.589C590.904 175.739 591.66 175.314 592.639 175.314C592.955 175.314 593.195 175.355 593.359 175.438V176.949ZM598.633 185.176C597.344 185.176 596.295 184.754 595.486 183.91C594.678 183.061 594.273 181.927 594.273 180.509V180.21C594.273 179.267 594.452 178.426 594.81 177.688C595.173 176.943 595.677 176.363 596.321 175.947C596.972 175.525 597.675 175.314 598.431 175.314C599.667 175.314 600.628 175.722 601.313 176.536C601.999 177.351 602.342 178.517 602.342 180.034V180.711H595.899C595.923 181.648 596.195 182.407 596.717 182.987C597.244 183.562 597.912 183.849 598.721 183.849C599.295 183.849 599.781 183.731 600.18 183.497C600.578 183.263 600.927 182.952 601.226 182.565L602.219 183.339C601.422 184.563 600.227 185.176 598.633 185.176ZM598.431 176.65C597.774 176.65 597.224 176.891 596.778 177.371C596.333 177.846 596.058 178.514 595.952 179.375H600.716V179.252C600.669 178.426 600.446 177.787 600.048 177.336C599.649 176.879 599.11 176.65 598.431 176.65ZM605.857 176.642C606.578 175.757 607.516 175.314 608.67 175.314C610.68 175.314 611.693 176.448 611.711 178.716V185H610.085V178.707C610.079 178.021 609.921 177.515 609.61 177.187C609.306 176.858 608.828 176.694 608.178 176.694C607.65 176.694 607.188 176.835 606.789 177.116C606.391 177.397 606.08 177.767 605.857 178.224V185H604.231V171.5H605.857V176.642ZM613.715 180.157C613.715 179.226 613.896 178.388 614.26 177.644C614.629 176.899 615.139 176.325 615.789 175.921C616.445 175.517 617.192 175.314 618.03 175.314C619.325 175.314 620.371 175.763 621.168 176.659C621.971 177.556 622.372 178.748 622.372 180.236V180.351C622.372 181.276 622.193 182.108 621.836 182.847C621.484 183.579 620.978 184.15 620.315 184.561C619.659 184.971 618.903 185.176 618.048 185.176C616.759 185.176 615.713 184.728 614.91 183.831C614.113 182.935 613.715 181.748 613.715 180.271V180.157ZM615.35 180.351C615.35 181.405 615.593 182.252 616.079 182.891C616.571 183.529 617.228 183.849 618.048 183.849C618.874 183.849 619.53 183.526 620.017 182.882C620.503 182.231 620.746 181.323 620.746 180.157C620.746 179.114 620.497 178.271 619.999 177.626C619.507 176.976 618.851 176.65 618.03 176.65C617.228 176.65 616.58 176.97 616.088 177.608C615.596 178.247 615.35 179.161 615.35 180.351ZM630.282 184.06C629.649 184.804 628.721 185.176 627.496 185.176C626.482 185.176 625.709 184.883 625.176 184.297C624.648 183.705 624.382 182.832 624.376 181.678V175.49H626.002V181.634C626.002 183.075 626.588 183.796 627.76 183.796C629.002 183.796 629.828 183.333 630.238 182.407V175.49H631.864V185H630.317L630.282 184.06ZM639.88 182.478C639.88 182.038 639.713 181.698 639.379 181.458C639.051 181.212 638.474 181.001 637.647 180.825C636.827 180.649 636.174 180.438 635.688 180.192C635.207 179.946 634.85 179.653 634.615 179.313C634.387 178.974 634.272 178.569 634.272 178.101C634.272 177.321 634.601 176.662 635.257 176.123C635.919 175.584 636.763 175.314 637.788 175.314C638.866 175.314 639.739 175.593 640.407 176.149C641.081 176.706 641.418 177.418 641.418 178.285H639.783C639.783 177.84 639.593 177.456 639.212 177.134C638.837 176.812 638.362 176.65 637.788 176.65C637.196 176.65 636.733 176.779 636.399 177.037C636.065 177.295 635.898 177.632 635.898 178.048C635.898 178.44 636.054 178.736 636.364 178.936C636.675 179.135 637.234 179.325 638.043 179.507C638.857 179.688 639.517 179.905 640.021 180.157C640.524 180.409 640.896 180.714 641.137 181.071C641.383 181.423 641.506 181.854 641.506 182.363C641.506 183.213 641.166 183.896 640.486 184.411C639.807 184.921 638.925 185.176 637.841 185.176C637.079 185.176 636.405 185.041 635.819 184.771C635.233 184.502 634.773 184.127 634.439 183.646C634.111 183.16 633.947 182.636 633.947 182.073H635.573C635.603 182.618 635.819 183.052 636.224 183.374C636.634 183.69 637.173 183.849 637.841 183.849C638.456 183.849 638.948 183.726 639.317 183.479C639.692 183.228 639.88 182.894 639.88 182.478ZM647.57 185.176C646.281 185.176 645.232 184.754 644.424 183.91C643.615 183.061 643.211 181.927 643.211 180.509V180.21C643.211 179.267 643.39 178.426 643.747 177.688C644.11 176.943 644.614 176.363 645.259 175.947C645.909 175.525 646.612 175.314 647.368 175.314C648.604 175.314 649.565 175.722 650.251 176.536C650.937 177.351 651.279 178.517 651.279 180.034V180.711H644.837C644.86 181.648 645.133 182.407 645.654 182.987C646.182 183.562 646.85 183.849 647.658 183.849C648.232 183.849 648.719 183.731 649.117 183.497C649.516 183.263 649.864 182.952 650.163 182.565L651.156 183.339C650.359 184.563 649.164 185.176 647.57 185.176ZM647.368 176.65C646.712 176.65 646.161 176.891 645.716 177.371C645.271 177.846 644.995 178.514 644.89 179.375H649.653V179.252C649.606 178.426 649.384 177.787 648.985 177.336C648.587 176.879 648.048 176.65 647.368 176.65Z" fill="#003049"/>
<path d="M460.354 119.354C460.549 119.158 460.549 118.842 460.354 118.646L457.172 115.464C456.976 115.269 456.66 115.269 456.464 115.464C456.269 115.66 456.269 115.976 456.464 116.172L459.293 119L456.464 121.828C456.269 122.024 456.269 122.34 456.464 122.536C456.66 122.731 456.976 122.731 457.172 122.536L460.354 119.354ZM425 119.5H460V118.5H425V119.5Z" fill="#003049"/>
<line y1="-0.5" x2="58" y2="-0.5" transform="matrix(-1 0 0 1 518 69)" stroke="#003049"/>
<line x1="518" y1="55.5" x2="415" y2="55.5" stroke="#003049"/>
<line x1="205" y1="105.5" x2="425" y2="105.5" stroke="#003049"/>
<line y1="-0.5" x2="58" y2="-0.5" transform="matrix(-1 0 0 1 518 175)" stroke="#003049"/>
<line x1="397" y1="138.5" x2="425" y2="138.5" stroke="#003049"/>
<line x1="205" y1="137.5" x2="266" y2="137.5" stroke="#003049"/>
<line y1="-0.5" x2="107" y2="-0.5" transform="matrix(0 -1 -1 0 460 175)" stroke="#003049"/>
<line x1="424.5" y1="138" x2="424.5" y2="106" stroke="#003049"/>
</g>
<defs>
<clipPath id="clip0">
<rect width="961" height="236" fill="white"/>
</clipPath>
</defs>
</svg>
