<svg width="24" height="24" viewBox="0 0 24 24" fill="none" xmlns="http://www.w3.org/2000/svg">
<path d="M11.9996 5.14301C11.1519 5.14301 10.3233 5.39436 9.61856 5.86528C8.91378 6.3362 8.36447 7.00554 8.0401 7.78865C7.71572 8.57176 7.63085 9.43347 7.79622 10.2648C7.96158 11.0962 8.36976 11.8598 8.96912 12.4592C9.56849 13.0585 10.3321 13.4667 11.1635 13.6321C11.9948 13.7975 12.8565 13.7126 13.6396 13.3882C14.4228 13.0638 15.0921 12.5145 15.563 11.8097C16.0339 11.105 16.2853 10.2764 16.2853 9.42872C16.2853 8.29208 15.8337 7.20199 15.03 6.39826C14.2263 5.59453 13.1362 5.14301 11.9996 5.14301ZM11.9996 12.0001C11.491 12.0001 10.9938 11.8493 10.571 11.5668C10.1481 11.2842 9.81851 10.8826 9.62389 10.4128C9.42926 9.9429 9.37834 9.42587 9.47756 8.92706C9.57678 8.42825 9.82168 7.97007 10.1813 7.61045C10.5409 7.25082 10.9991 7.00592 11.4979 6.9067C11.9967 6.80748 12.5137 6.8584 12.9836 7.05303C13.4535 7.24765 13.8551 7.57724 14.1376 8.00011C14.4202 8.42298 14.571 8.92014 14.571 9.42872C14.5703 10.1105 14.2992 10.7642 13.8171 11.2462C13.335 11.7283 12.6813 11.9995 11.9996 12.0001Z" fill="#003049"/>
<path d="M12 0C9.62663 0 7.30655 0.703788 5.33316 2.02236C3.35977 3.34094 1.8217 5.21508 0.913451 7.4078C0.00519943 9.60051 -0.232441 12.0133 0.230582 14.3411C0.693605 16.6689 1.83649 18.807 3.51472 20.4853C5.19295 22.1635 7.33115 23.3064 9.65892 23.7694C11.9867 24.2324 14.3995 23.9948 16.5922 23.0865C18.7849 22.1783 20.6591 20.6402 21.9776 18.6668C23.2962 16.6935 24 14.3734 24 12C23.9964 8.81851 22.7309 5.76838 20.4813 3.51873C18.2316 1.26908 15.1815 0.00362976 12 0ZM6.85715 20.8946V19.7143C6.85783 19.0325 7.12896 18.3788 7.61105 17.8968C8.09314 17.4147 8.7468 17.1435 9.42858 17.1429H14.5714C15.2532 17.1435 15.9069 17.4147 16.389 17.8968C16.871 18.3788 17.1422 19.0325 17.1429 19.7143V20.8946C15.5821 21.8059 13.8073 22.2861 12 22.2861C10.1927 22.2861 8.41786 21.8059 6.85715 20.8946ZM18.8503 19.6509C18.8332 18.5266 18.3751 17.454 17.5748 16.6642C16.7744 15.8744 15.6958 15.4307 14.5714 15.4286H9.42858C8.30416 15.4307 7.22558 15.8744 6.42522 16.6642C5.62487 17.454 5.1668 18.5266 5.14972 19.6509C3.59535 18.2629 2.4992 16.4356 2.00643 14.4109C1.51367 12.3861 1.64752 10.2594 2.39027 8.31245C3.13301 6.36546 4.44962 4.69 6.16575 3.50791C7.88188 2.32583 9.91658 1.69288 12.0004 1.69288C14.0843 1.69288 16.119 2.32583 17.8351 3.50791C19.5512 4.69 20.8679 6.36546 21.6106 8.31245C22.3533 10.2594 22.4872 12.3861 21.9944 14.4109C21.5017 16.4356 20.4047 18.2629 18.8503 19.6509Z" fill="#003049"/>
</svg>
