<svg width="104" height="19" viewBox="0 0 104 19" fill="none" xmlns="http://www.w3.org/2000/svg">
<path d="M0.96875 1.40625H5.01562V3.67188C6.46354 1.91146 8.1875 1.03125 10.1875 1.03125C11.25 1.03125 12.1719 1.25 12.9531 1.6875C13.7344 2.125 14.375 2.78646 14.875 3.67188C15.6042 2.78646 16.3906 2.125 17.2344 1.6875C18.0781 1.25 18.9792 1.03125 19.9375 1.03125C21.1562 1.03125 22.1875 1.28125 23.0312 1.78125C23.875 2.27083 24.5052 2.99479 24.9219 3.95312C25.224 4.66146 25.375 5.80729 25.375 7.39062V18H20.9844V8.51562C20.9844 6.86979 20.8333 5.80729 20.5312 5.32812C20.125 4.70312 19.5 4.39062 18.6562 4.39062C18.0417 4.39062 17.4635 4.57812 16.9219 4.95312C16.3802 5.32812 15.9896 5.88021 15.75 6.60938C15.5104 7.32812 15.3906 8.46875 15.3906 10.0312V18H11V8.90625C11 7.29167 10.9219 6.25 10.7656 5.78125C10.6094 5.3125 10.3646 4.96354 10.0312 4.73438C9.70833 4.50521 9.26562 4.39062 8.70312 4.39062C8.02604 4.39062 7.41667 4.57292 6.875 4.9375C6.33333 5.30208 5.94271 5.82812 5.70312 6.51562C5.47396 7.20312 5.35938 8.34375 5.35938 9.9375V18H0.96875V1.40625ZM33.5269 6.46875L29.5425 5.75C29.9904 4.14583 30.7612 2.95833 31.855 2.1875C32.9487 1.41667 34.5737 1.03125 36.73 1.03125C38.6883 1.03125 40.1467 1.26562 41.105 1.73438C42.0633 2.19271 42.7352 2.78125 43.1206 3.5C43.5165 4.20833 43.7144 5.51562 43.7144 7.42188L43.6675 12.5469C43.6675 14.0052 43.7352 15.0833 43.8706 15.7812C44.0165 16.4688 44.2821 17.2083 44.6675 18H40.3237C40.2092 17.7083 40.0685 17.276 39.9019 16.7031C39.829 16.4427 39.7769 16.2708 39.7456 16.1875C38.9956 16.9167 38.1935 17.4635 37.3394 17.8281C36.4852 18.1927 35.5737 18.375 34.605 18.375C32.8967 18.375 31.5477 17.9115 30.5581 16.9844C29.579 16.0573 29.0894 14.8854 29.0894 13.4688C29.0894 12.5312 29.3133 11.6979 29.7612 10.9688C30.2092 10.2292 30.8342 9.66667 31.6362 9.28125C32.4487 8.88542 33.6154 8.54167 35.1362 8.25C37.1883 7.86458 38.6102 7.50521 39.4019 7.17188V6.73438C39.4019 5.89062 39.1935 5.29167 38.7769 4.9375C38.3602 4.57292 37.5737 4.39062 36.4175 4.39062C35.6362 4.39062 35.0269 4.54688 34.5894 4.85938C34.1519 5.16146 33.7977 5.69792 33.5269 6.46875ZM39.4019 10.0312C38.8394 10.2188 37.9487 10.4427 36.73 10.7031C35.5112 10.9635 34.7144 11.2188 34.3394 11.4688C33.7665 11.875 33.48 12.3906 33.48 13.0156C33.48 13.6302 33.7092 14.1615 34.1675 14.6094C34.6258 15.0573 35.2092 15.2812 35.9175 15.2812C36.7092 15.2812 37.4644 15.0208 38.1831 14.5C38.7144 14.1042 39.0633 13.6198 39.23 13.0469C39.3446 12.6719 39.4019 11.9583 39.4019 10.9062V10.0312ZM63.6319 18H59.2412V9.53125C59.2412 7.73958 59.1475 6.58333 58.96 6.0625C58.7725 5.53125 58.4652 5.11979 58.0381 4.82812C57.6215 4.53646 57.1162 4.39062 56.5225 4.39062C55.7621 4.39062 55.0798 4.59896 54.4756 5.01562C53.8715 5.43229 53.4548 5.98438 53.2256 6.67188C53.0069 7.35938 52.8975 8.63021 52.8975 10.4844V18H48.5069V1.40625H52.585V3.84375C54.0329 1.96875 55.8558 1.03125 58.0537 1.03125C59.0225 1.03125 59.9079 1.20833 60.71 1.5625C61.5121 1.90625 62.1162 2.34896 62.5225 2.89062C62.9392 3.43229 63.2256 4.04688 63.3819 4.73438C63.5485 5.42188 63.6319 6.40625 63.6319 7.6875V18ZM78.19 12.7188L82.565 13.4531C82.0025 15.0573 81.1119 16.2812 79.8931 17.125C78.6848 17.9583 77.1692 18.375 75.3463 18.375C72.4608 18.375 70.3254 17.4323 68.94 15.5469C67.8463 14.0365 67.2994 12.1302 67.2994 9.82812C67.2994 7.07812 68.0181 4.92708 69.4556 3.375C70.8931 1.8125 72.7108 1.03125 74.9088 1.03125C77.3775 1.03125 79.3254 1.84896 80.7525 3.48438C82.1796 5.10938 82.8619 7.60417 82.7994 10.9688H71.7994C71.8306 12.2708 72.1848 13.2865 72.8619 14.0156C73.539 14.7344 74.3827 15.0938 75.3931 15.0938C76.0806 15.0938 76.6588 14.9062 77.1275 14.5312C77.5963 14.1562 77.9504 13.5521 78.19 12.7188ZM78.44 8.28125C78.4088 7.01042 78.0806 6.04688 77.4556 5.39062C76.8306 4.72396 76.0702 4.39062 75.1744 4.39062C74.216 4.39062 73.4244 4.73958 72.7994 5.4375C72.1744 6.13542 71.8671 7.08333 71.8775 8.28125H78.44ZM84.7637 18L90.7481 9.45312L85.0137 1.40625H90.3731L93.3106 5.96875L96.4044 1.40625H101.561L95.9356 9.26562L102.076 18H96.6856L93.3106 12.8594L89.9044 18H84.7637Z" fill="#D62828"/>
<path d="M0.96875 1.40625V0.90625H0.46875V1.40625H0.96875ZM5.01562 1.40625H5.51562V0.90625H5.01562V1.40625ZM5.01562 3.67188H4.51562V5.06691L5.40179 3.98949L5.01562 3.67188ZM14.875 3.67188L14.4396 3.91774L14.7978 4.55209L15.261 3.98973L14.875 3.67188ZM23.0312 1.78125L22.7763 2.21141L22.7803 2.21372L23.0312 1.78125ZM24.9219 3.95312L25.3818 3.75698L25.3804 3.75376L24.9219 3.95312ZM25.375 18V18.5H25.875V18H25.375ZM20.9844 18H20.4844V18.5H20.9844V18ZM20.5312 5.32812L20.9543 5.06145L20.9505 5.05563L20.5312 5.32812ZM15.75 6.60938L16.2243 6.76749L16.225 6.76545L15.75 6.60938ZM15.3906 18V18.5H15.8906V18H15.3906ZM11 18H10.5V18.5H11V18ZM10.0312 4.73438L9.74184 5.14217L9.74799 5.1464L10.0312 4.73438ZM5.70312 6.51562L5.23093 6.35107L5.22878 6.35751L5.70312 6.51562ZM5.35938 18V18.5H5.85938V18H5.35938ZM0.96875 18H0.46875V18.5H0.96875V18ZM0.96875 1.90625H5.01562V0.90625H0.96875V1.90625ZM4.51562 1.40625V3.67188H5.51562V1.40625H4.51562ZM5.40179 3.98949C6.76963 2.32643 8.359 1.53125 10.1875 1.53125V0.53125C8.016 0.53125 6.15745 1.49649 4.62946 3.35426L5.40179 3.98949ZM10.1875 1.53125C11.1804 1.53125 12.015 1.73523 12.7088 2.12375L13.1974 1.25125C12.3287 0.764773 11.3196 0.53125 10.1875 0.53125V1.53125ZM12.7088 2.12375C13.3997 2.51067 13.9784 3.10103 14.4396 3.91774L15.3104 3.42601C14.7716 2.47189 14.069 1.73933 13.1974 1.25125L12.7088 2.12375ZM15.261 3.98973C15.9559 3.14586 16.6917 2.53209 17.4645 2.13138L17.0042 1.24362C16.0895 1.71791 15.2524 2.42705 14.489 3.35402L15.261 3.98973ZM17.4645 2.13138C18.2366 1.73107 19.0586 1.53125 19.9375 1.53125V0.53125C18.8998 0.53125 17.9197 0.768929 17.0042 1.24362L17.4645 2.13138ZM19.9375 1.53125C21.0882 1.53125 22.0264 1.767 22.7763 2.2114L23.2862 1.3511C22.3486 0.795499 21.2243 0.53125 19.9375 0.53125V1.53125ZM22.7803 2.21372C23.525 2.64583 24.086 3.28462 24.4633 4.15249L25.3804 3.75376C24.9244 2.70496 24.225 1.89583 23.2822 1.34878L22.7803 2.21372ZM24.462 4.14927C24.722 4.75911 24.875 5.81851 24.875 7.39062H25.875C25.875 5.79608 25.7259 4.5638 25.3818 3.75698L24.462 4.14927ZM24.875 7.39062V18H25.875V7.39062H24.875ZM25.375 17.5H20.9844V18.5H25.375V17.5ZM21.4844 18V8.51562H20.4844V18H21.4844ZM21.4844 8.51562C21.4844 7.68016 21.4462 6.97738 21.3661 6.414C21.288 5.86436 21.1631 5.39283 20.9542 5.06147L20.1083 5.59478C20.2015 5.74259 20.3032 6.04189 20.3761 6.55475C20.447 7.05387 20.4844 7.70525 20.4844 8.51562H21.4844ZM20.9505 5.05563C20.4385 4.26805 19.643 3.89062 18.6562 3.89062V4.89062C19.357 4.89062 19.8115 5.1382 20.112 5.60062L20.9505 5.05563ZM18.6562 3.89062C17.9325 3.89062 17.2562 4.11353 16.6373 4.54203L17.2065 5.36422C17.6709 5.04272 18.1508 4.89062 18.6562 4.89062V3.89062ZM16.6373 4.54203C15.9918 4.98888 15.5427 5.6384 15.275 6.4533L16.225 6.76545C16.4364 6.12202 16.7686 5.66737 17.2065 5.36422L16.6373 4.54203ZM15.2757 6.45126C15.0092 7.25076 14.8906 8.45955 14.8906 10.0312H15.8906C15.8906 8.47795 16.0117 7.40549 16.2243 6.76749L15.2757 6.45126ZM14.8906 10.0312V18H15.8906V10.0312H14.8906ZM15.3906 17.5H11V18.5H15.3906V17.5ZM11.5 18V8.90625H10.5V18H11.5ZM11.5 8.90625C11.5 8.09241 11.4804 7.41471 11.44 6.87667C11.4005 6.34977 11.3389 5.91981 11.24 5.62314L10.2913 5.93936C10.3486 6.11144 10.4042 6.43669 10.4428 6.95146C10.4806 7.45508 10.5 8.10551 10.5 8.90625H11.5ZM11.24 5.62314C11.0571 5.07461 10.7558 4.62577 10.3145 4.32235L9.74799 5.1464C9.97333 5.30132 10.1616 5.55039 10.2913 5.93936L11.24 5.62314ZM10.3206 4.32662C9.88433 4.01699 9.32726 3.89062 8.70312 3.89062V4.89062C9.20399 4.89062 9.53234 4.99342 9.74188 5.14213L10.3206 4.32662ZM8.70312 3.89062C7.93047 3.89062 7.22317 4.10045 6.59581 4.52271L7.15419 5.35229C7.61016 5.04539 8.12161 4.89062 8.70312 4.89062V3.89062ZM6.59581 4.52271C5.95419 4.95457 5.50183 5.57385 5.23097 6.35109L6.17528 6.68016C6.38359 6.0824 6.71248 5.6496 7.15419 5.35229L6.59581 4.52271ZM5.22878 6.35751C4.97208 7.12761 4.85938 8.3387 4.85938 9.9375H5.85938C5.85938 8.3488 5.97583 7.27864 6.17747 6.67374L5.22878 6.35751ZM4.85938 9.9375V18H5.85938V9.9375H4.85938ZM5.35938 17.5H0.96875V18.5H5.35938V17.5ZM1.46875 18V1.40625H0.46875V18H1.46875ZM33.5269 6.46875L33.4381 6.96081L33.8574 7.03644L33.9986 6.63449L33.5269 6.46875ZM29.5425 5.75L29.0609 5.61553L28.9132 6.14455L29.4537 6.24206L29.5425 5.75ZM31.855 2.1875L31.567 1.7788L31.855 2.1875ZM41.105 1.73438L40.8853 2.18354L40.8893 2.18544L41.105 1.73438ZM43.1206 3.5L42.6799 3.73632L42.6842 3.74391L43.1206 3.5ZM43.7144 7.42188L44.2144 7.42645V7.42188H43.7144ZM43.6675 12.5469L43.1675 12.5423V12.5469H43.6675ZM43.8706 15.7812L43.3797 15.8765L43.3815 15.885L43.8706 15.7812ZM44.6675 18V18.5H45.467L45.1171 17.7811L44.6675 18ZM40.3237 18L39.8584 18.1828L39.983 18.5H40.3237V18ZM39.9019 16.7031L39.4204 16.8379L39.4218 16.8428L39.9019 16.7031ZM39.7456 16.1875L40.2138 16.0119L39.9453 15.296L39.3971 15.829L39.7456 16.1875ZM30.5581 16.9844L30.2144 17.3475L30.2163 17.3493L30.5581 16.9844ZM29.7612 10.9688L30.1873 11.2305L30.1889 11.2278L29.7612 10.9688ZM31.6362 9.28125L31.8528 9.73193L31.8552 9.73075L31.6362 9.28125ZM35.1362 8.25L35.044 7.75859L35.0421 7.75895L35.1362 8.25ZM39.4019 7.17188L39.5959 7.63269L39.9019 7.50386V7.17188H39.4019ZM38.7769 4.9375L38.4476 5.31383L38.453 5.31847L38.7769 4.9375ZM34.5894 4.85938L34.8735 5.27088L34.88 5.26624L34.5894 4.85938ZM39.4019 10.0312H39.9019V9.33754L39.2438 9.55691L39.4019 10.0312ZM34.3394 11.4688L34.062 11.0527L34.056 11.0567L34.0502 11.0609L34.3394 11.4688ZM38.1831 14.5L38.4765 14.9049L38.4819 14.9009L38.1831 14.5ZM39.23 13.0469L38.7518 12.9008L38.7499 12.9072L39.23 13.0469ZM33.6156 5.97669L29.6313 5.25794L29.4537 6.24206L33.4381 6.96081L33.6156 5.97669ZM30.0241 5.88447C30.4488 4.36338 31.1647 3.28569 32.143 2.5962L31.567 1.7788C30.3578 2.63098 29.532 3.92829 29.0609 5.61553L30.0241 5.88447ZM32.143 2.5962C33.1151 1.91111 34.6191 1.53125 36.73 1.53125V0.53125C34.5284 0.53125 32.7824 0.922224 31.567 1.7788L32.143 2.5962ZM36.73 1.53125C38.6656 1.53125 40.0311 1.76568 40.8853 2.18352L41.3247 1.28523C40.2623 0.765568 38.7111 0.53125 36.73 0.53125V1.53125ZM40.8893 2.18544C41.7807 2.61176 42.3581 3.13603 42.68 3.73629L43.5613 3.26371C43.1123 2.42647 42.346 1.77365 41.3207 1.28331L40.8893 2.18544ZM42.6842 3.74391C42.8401 4.02304 42.9767 4.45971 43.0716 5.08656C43.1655 5.70725 43.2144 6.48388 43.2144 7.42188H44.2144C44.2144 6.45362 44.1643 5.62348 44.0603 4.93687C43.9573 4.25644 43.7969 3.6853 43.5571 3.25609L42.6842 3.74391ZM43.2144 7.4173L43.1675 12.5423L44.1675 12.5514L44.2144 7.42645L43.2144 7.4173ZM43.1675 12.5469C43.1675 14.0112 43.2348 15.1292 43.3798 15.8765L44.3615 15.686C44.2356 15.0375 44.1675 13.9992 44.1675 12.5469H43.1675ZM43.3815 15.885C43.5376 16.6209 43.819 17.3994 44.2179 18.2189L45.1171 17.7811C44.7452 17.0173 44.4953 16.3166 44.3597 15.6775L43.3815 15.885ZM44.6675 17.5H40.3237V18.5H44.6675V17.5ZM40.7891 17.8172C40.683 17.5471 40.5475 17.1323 40.382 16.5635L39.4218 16.8428C39.5896 17.4198 39.7353 17.8696 39.8584 18.1828L40.7891 17.8172ZM40.3834 16.5683C40.3115 16.3116 40.2539 16.1188 40.2138 16.0119L39.2775 16.3631C39.2999 16.4229 39.3465 16.5739 39.4204 16.8379L40.3834 16.5683ZM39.3971 15.829C38.6856 16.5207 37.934 17.0307 37.1431 17.3683L37.5357 18.288C38.4531 17.8964 39.3056 17.3126 40.0942 16.546L39.3971 15.829ZM37.1431 17.3683C36.3536 17.7052 35.5093 17.875 34.605 17.875V18.875C35.6382 18.875 36.6168 18.6802 37.5357 18.288L37.1431 17.3683ZM34.605 17.875C32.9892 17.875 31.7745 17.4388 30.9 16.6195L30.2163 17.3493C31.3209 18.3841 32.8041 18.875 34.605 18.875V17.875ZM30.9019 16.6213C30.028 15.7939 29.5894 14.7559 29.5894 13.4688H28.5894C28.5894 15.015 29.1299 16.3207 30.2144 17.3475L30.9019 16.6213ZM29.5894 13.4688C29.5894 12.6145 29.7923 11.8735 30.1873 11.2305L29.3352 10.707C28.8344 11.5224 28.5894 12.448 28.5894 13.4688H29.5894ZM30.1889 11.2278C30.585 10.5737 31.1355 10.0766 31.8528 9.73192L31.4197 8.83058C30.5328 9.25674 29.8333 9.8846 29.3336 10.7097L30.1889 11.2278ZM31.8552 9.73075C32.6098 9.36312 33.7268 9.02942 35.2304 8.74105L35.0421 7.75895C33.504 8.05391 32.2877 8.40771 31.4173 8.83175L31.8552 9.73075ZM35.2285 8.74141C37.2801 8.35609 38.7497 7.98897 39.5959 7.63269L39.2078 6.71106C38.4707 7.02144 37.0966 7.37307 35.044 7.75859L35.2285 8.74141ZM39.9019 7.17188V6.73438H38.9019V7.17188H39.9019ZM39.9019 6.73438C39.9019 5.8238 39.6783 5.04746 39.1007 4.55653L38.453 5.31847C38.7088 5.53587 38.9019 5.95745 38.9019 6.73438H39.9019ZM39.1061 4.56121C38.814 4.3056 38.4266 4.14206 37.9874 4.04026C37.5451 3.93773 37.0188 3.89062 36.4175 3.89062V4.89062C36.9725 4.89062 37.4175 4.93467 37.7616 5.01443C38.1089 5.09492 38.3231 5.20481 38.4476 5.31379L39.1061 4.56121ZM36.4175 3.89062C35.5772 3.89062 34.8516 4.05761 34.2988 4.45251L34.88 5.26624C35.2021 5.03614 35.6953 4.89062 36.4175 4.89062V3.89062ZM34.3053 4.44793C33.7454 4.83448 33.3434 5.48269 33.0551 6.30301L33.9986 6.63449C34.2521 5.91315 34.5583 5.48844 34.8735 5.27082L34.3053 4.44793ZM39.2438 9.55691C38.7092 9.73511 37.8413 9.95437 36.6255 10.2142L36.8345 11.1921C38.0562 10.931 38.9696 10.7024 39.56 10.5056L39.2438 9.55691ZM36.6255 10.2142C36.007 10.3463 35.4856 10.4792 35.0658 10.6137C34.654 10.7455 34.3081 10.8887 34.062 11.0527L34.6167 11.8848C34.7456 11.7988 34.9856 11.6894 35.3708 11.566C35.7478 11.4453 36.2343 11.3203 36.8345 11.1921L36.6255 10.2142ZM34.0502 11.0609C33.364 11.5474 32.98 12.2066 32.98 13.0156H33.98C33.98 12.5746 34.1689 12.2026 34.6286 11.8766L34.0502 11.0609ZM32.98 13.0156C32.98 13.7711 33.268 14.4295 33.818 14.967L34.517 14.2518C34.1503 13.8934 33.98 13.4893 33.98 13.0156H32.98ZM33.818 14.967C34.38 15.5162 35.0936 15.7812 35.9175 15.7812V14.7812C35.3247 14.7812 34.8717 14.5984 34.517 14.2518L33.818 14.967ZM35.9175 15.7812C36.8272 15.7812 37.6832 15.4797 38.4765 14.9049L37.8897 14.0951C37.2455 14.562 36.5912 14.7812 35.9175 14.7812V15.7812ZM38.4819 14.9009C39.0902 14.4476 39.5097 13.8755 39.7101 13.1865L38.7499 12.9072C38.617 13.3641 38.3385 13.7607 37.8844 14.0991L38.4819 14.9009ZM39.7082 13.193C39.8476 12.7367 39.9019 11.9515 39.9019 10.9062H38.9019C38.9019 11.9652 38.8416 12.607 38.7518 12.9008L39.7082 13.193ZM39.9019 10.9062V10.0312H38.9019V10.9062H39.9019ZM63.6319 18V18.5H64.1319V18H63.6319ZM59.2412 18H58.7412V18.5H59.2412V18ZM58.96 6.0625L58.4885 6.22891L58.4896 6.23186L58.96 6.0625ZM58.0381 4.82812L57.7514 5.23777L57.7561 5.24103L58.0381 4.82812ZM53.2256 6.67188L52.7512 6.51375L52.7492 6.52027L53.2256 6.67188ZM52.8975 18V18.5H53.3975V18H52.8975ZM48.5069 18H48.0069V18.5H48.5069V18ZM48.5069 1.40625V0.90625H48.0069V1.40625H48.5069ZM52.585 1.40625H53.085V0.90625H52.585V1.40625ZM52.585 3.84375H52.085V5.3093L52.9807 4.14935L52.585 3.84375ZM60.71 1.5625L60.508 2.01992L60.513 2.02207L60.71 1.5625ZM62.5225 2.89062L62.1225 3.19065L62.1262 3.19548L62.5225 2.89062ZM63.3819 4.73438L62.8943 4.8452L62.896 4.85217L63.3819 4.73438ZM63.6319 17.5H59.2412V18.5H63.6319V17.5ZM59.7412 18V9.53125H58.7412V18H59.7412ZM59.7412 9.53125C59.7412 8.62833 59.7177 7.87662 59.6693 7.27991C59.6219 6.69487 59.548 6.21963 59.4304 5.89314L58.4896 6.23186C58.5595 6.4262 58.6263 6.7895 58.6726 7.36072C58.7179 7.92026 58.7412 8.64251 58.7412 9.53125H59.7412ZM59.4315 5.89609C59.212 5.27407 58.8429 4.77224 58.3201 4.41522L57.7561 5.24103C58.0875 5.46734 58.333 5.78843 58.4885 6.22891L59.4315 5.89609ZM58.3249 4.41851C57.8107 4.05863 57.2012 3.89062 56.5225 3.89062V4.89062C57.0313 4.89062 57.4322 5.01428 57.7514 5.23774L58.3249 4.41851ZM56.5225 3.89062C55.6646 3.89062 54.8825 4.12762 54.1918 4.60402L54.7595 5.42723C55.277 5.0703 55.8596 4.89062 56.5225 4.89062V3.89062ZM54.1918 4.60402C53.4995 5.08143 53.0152 5.72193 52.7513 6.51376L53.7 6.82999C53.8944 6.24682 54.2434 5.78315 54.7595 5.42723L54.1918 4.60402ZM52.7492 6.52027C52.5039 7.29097 52.3975 8.63482 52.3975 10.4844H53.3975C53.3975 8.6256 53.5098 7.42778 53.7021 6.82348L52.7492 6.52027ZM52.3975 10.4844V18H53.3975V10.4844H52.3975ZM52.8975 17.5H48.5069V18.5H52.8975V17.5ZM49.0069 18V1.40625H48.0069V18H49.0069ZM48.5069 1.90625H52.585V0.90625H48.5069V1.90625ZM52.085 1.40625V3.84375H53.085V1.40625H52.085ZM52.9807 4.14935C54.3425 2.38593 56.0241 1.53125 58.0537 1.53125V0.53125C55.6875 0.53125 53.7233 1.55157 52.1893 3.53815L52.9807 4.14935ZM58.0537 1.53125C58.9603 1.53125 59.776 1.69664 60.508 2.01989L60.912 1.10511C60.0399 0.720024 59.0847 0.53125 58.0537 0.53125V1.53125ZM60.513 2.02207C61.2574 2.34107 61.7819 2.73645 62.1225 3.19063L62.9225 2.59062C62.4506 1.96147 61.7668 1.47143 60.907 1.10293L60.513 2.02207ZM62.1262 3.19548C62.4973 3.67799 62.7536 4.22591 62.8943 4.84519L63.8694 4.62356C63.6977 3.86784 63.381 3.18659 62.9188 2.58577L62.1262 3.19548ZM62.896 4.85217C63.0486 5.48186 63.1319 6.41946 63.1319 7.6875H64.1319C64.1319 6.39304 64.0485 5.36189 63.8678 4.61658L62.896 4.85217ZM63.1319 7.6875V18H64.1319V7.6875H63.1319ZM78.19 12.7188L78.2728 12.2256L77.8327 12.1518L77.7095 12.5806L78.19 12.7188ZM82.565 13.4531L83.0368 13.6186L83.2333 13.0583L82.6478 12.96L82.565 13.4531ZM79.8931 17.125L80.177 17.5366L80.1777 17.5361L79.8931 17.125ZM68.94 15.5469L68.535 15.8401L68.5371 15.8429L68.94 15.5469ZM69.4556 3.375L69.8225 3.71476L69.8236 3.71353L69.4556 3.375ZM80.7525 3.48438L80.3758 3.81312L80.3768 3.81431L80.7525 3.48438ZM82.7994 10.9688V11.4688H83.2902L83.2993 10.978L82.7994 10.9688ZM71.7994 10.9688V10.4688H71.2872L71.2995 10.9807L71.7994 10.9688ZM72.8619 14.0156L72.4955 14.3559L72.4979 14.3585L72.8619 14.0156ZM78.44 8.28125V8.78125H78.9524L78.9398 8.26896L78.44 8.28125ZM77.4556 5.39062L77.0909 5.73261L77.0936 5.73545L77.4556 5.39062ZM71.8775 8.28125L71.3775 8.2856L71.3818 8.78125H71.8775V8.28125ZM78.1072 13.2119L82.4822 13.9462L82.6478 12.96L78.2728 12.2256L78.1072 13.2119ZM82.0932 13.2877C81.5603 14.8074 80.7281 15.9388 79.6085 16.7139L80.1777 17.5361C81.4956 16.6237 82.4447 15.3071 83.0368 13.6186L82.0932 13.2877ZM79.6093 16.7134C78.5027 17.4766 77.0925 17.875 75.3463 17.875V18.875C77.2458 18.875 78.8669 18.4401 80.177 17.5366L79.6093 16.7134ZM75.3463 17.875C72.5784 17.875 70.612 16.9779 69.3429 15.2508L68.5371 15.8429C70.0388 17.8867 72.3432 18.875 75.3463 18.875V17.875ZM69.345 15.2536C68.3262 13.8468 67.7994 12.05 67.7994 9.82812H66.7994C66.7994 12.2105 67.3663 14.2261 68.535 15.8401L69.345 15.2536ZM67.7994 9.82812C67.7994 7.16518 68.4938 5.14934 69.8225 3.71475L69.0888 3.03525C67.5425 4.70483 66.7994 6.99107 66.7994 9.82812H67.7994ZM69.8236 3.71353C71.1627 2.25797 72.8451 1.53125 74.9088 1.53125V0.53125C72.5766 0.53125 70.6236 1.36703 69.0877 3.03647L69.8236 3.71353ZM74.9088 1.53125C77.2552 1.53125 79.0573 2.30211 80.3758 3.81312L81.1292 3.15563C79.5936 1.3958 77.4998 0.53125 74.9088 0.53125V1.53125ZM80.3768 3.81431C81.6863 5.30545 82.3609 7.65294 82.2995 10.9595L83.2993 10.978C83.3629 7.5554 82.6728 4.9133 81.1282 3.15444L80.3768 3.81431ZM82.7994 10.4688H71.7994V11.4688H82.7994V10.4688ZM71.2995 10.9807C71.3328 12.3664 71.7124 13.5126 72.4955 14.3559L73.2283 13.6754C72.6572 13.0604 72.3285 12.1753 72.2992 10.9568L71.2995 10.9807ZM72.4979 14.3585C73.2719 15.1801 74.2486 15.5938 75.3931 15.5938V14.5938C74.5169 14.5938 73.806 14.2886 73.2258 13.6728L72.4979 14.3585ZM75.3931 15.5938C76.1768 15.5938 76.8698 15.3777 77.4398 14.9217L76.8152 14.1408C76.4477 14.4348 75.9844 14.5938 75.3931 14.5938V15.5938ZM77.4398 14.9217C78.0181 14.4591 78.4145 13.7474 78.6705 12.8569L77.7095 12.5806C77.4863 13.3568 77.1744 13.8534 76.8152 14.1408L77.4398 14.9217ZM78.9398 8.26896C78.9068 6.92397 78.5574 5.82254 77.8177 5.0458L77.0936 5.73545C77.6038 6.27121 77.9107 7.09686 77.9402 8.29354L78.9398 8.26896ZM77.8204 5.04865C77.103 4.28346 76.2115 3.89062 75.1744 3.89062V4.89062C75.9289 4.89062 76.5582 5.16446 77.0909 5.7326L77.8204 5.04865ZM75.1744 3.89062C74.0776 3.89062 73.1492 4.29737 72.4269 5.10394L73.1719 5.77106C73.6996 5.1818 74.3545 4.89062 75.1744 4.89062V3.89062ZM72.4269 5.10394C71.6976 5.91833 71.3663 6.99899 71.3775 8.2856L72.3775 8.2769C72.3678 7.16768 72.6512 6.3525 73.1719 5.77106L72.4269 5.10394ZM71.8775 8.78125H78.44V7.78125H71.8775V8.78125ZM84.7637 18L84.3542 17.7132L83.8033 18.5H84.7637V18ZM90.7481 9.45312L91.1577 9.73991L91.3603 9.45058L91.1553 9.16295L90.7481 9.45312ZM85.0137 1.40625V0.90625H84.0435L84.6066 1.69642L85.0137 1.40625ZM90.3731 1.40625L90.7935 1.13558L90.6459 0.90625H90.3731V1.40625ZM93.3106 5.96875L92.8902 6.23942L93.2998 6.8756L93.7245 6.24936L93.3106 5.96875ZM96.4044 1.40625V0.90625H96.1393L95.9905 1.12564L96.4044 1.40625ZM101.561 1.40625L101.967 1.69725L102.533 0.90625H101.561V1.40625ZM95.9356 9.26562L95.529 8.97462L95.3226 9.26304L95.5266 9.55319L95.9356 9.26562ZM102.076 18V18.5H103.039L102.485 17.7124L102.076 18ZM96.6856 18L96.2677 18.2744L96.4158 18.5H96.6856V18ZM93.3106 12.8594L93.7286 12.585L93.3125 11.9513L92.8938 12.5832L93.3106 12.8594ZM89.9044 18V18.5H90.1729L90.3212 18.2762L89.9044 18ZM85.1733 18.2868L91.1577 9.73991L90.3385 9.16634L84.3542 17.7132L85.1733 18.2868ZM91.1553 9.16295L85.4209 1.11608L84.6066 1.69642L90.3409 9.7433L91.1553 9.16295ZM85.0137 1.90625H90.3731V0.90625H85.0137V1.90625ZM89.9527 1.67692L92.8902 6.23942L93.731 5.69808L90.7935 1.13558L89.9527 1.67692ZM93.7245 6.24936L96.8182 1.68686L95.9905 1.12564L92.8968 5.68814L93.7245 6.24936ZM96.4044 1.90625H101.561V0.90625H96.4044V1.90625ZM101.154 1.11525L95.529 8.97462L96.3422 9.55663L101.967 1.69725L101.154 1.11525ZM95.5266 9.55319L101.667 18.2876L102.485 17.7124L96.3447 8.97806L95.5266 9.55319ZM102.076 17.5H96.6856V18.5H102.076V17.5ZM97.1036 17.7256L93.7286 12.585L92.8927 13.1338L96.2677 18.2744L97.1036 17.7256ZM92.8938 12.5832L89.4876 17.7238L90.3212 18.2762L93.7274 13.1356L92.8938 12.5832ZM89.9044 17.5H84.7637V18.5H89.9044V17.5Z" fill="#D62828"/>
</svg>
