<svg width="109" height="111" viewBox="0 0 109 111" fill="none" xmlns="http://www.w3.org/2000/svg">
<path d="M95.3753 61.6975C92.5141 60.68 89.4712 60.125 86.292 60.125C79.0648 60.125 72.1337 63.0487 67.0233 68.2528C61.913 73.4569 59.042 80.5152 59.042 87.875C59.042 89.4475 59.1782 90.9737 59.4053 92.5H13.6253C11.2163 92.5 8.90589 91.5254 7.20244 89.7907C5.49898 88.056 4.54199 85.7033 4.54199 83.25V27.75C4.54199 22.6163 8.58408 18.5 13.6253 18.5H86.292C88.701 18.5 91.0114 19.4746 92.7149 21.2093C94.4183 22.944 95.3753 25.2967 95.3753 27.75V61.6975ZM106.729 78.625L84.0212 101.75L68.1253 85.5625L74.9378 78.625L84.0212 87.875L99.917 71.6875L106.729 78.625ZM13.6253 27.75V37L49.9587 60.125L86.292 37V27.75L49.9587 50.875L13.6253 27.75Z" fill="#1F2E60"/>
</svg>
