<svg width="729" height="157" viewBox="0 0 729 157" fill="none" xmlns="http://www.w3.org/2000/svg">
<g style="mix-blend-mode:darken">
<path d="M4.8299 44.9041H135.178C136.558 44.9041 137.678 46.0233 137.678 47.4041V93.7374C137.678 95.1181 136.558 96.2374 135.178 96.2374H4.8299C3.44918 96.2374 2.3299 95.1181 2.3299 93.7374V47.404C2.3299 46.0233 3.44918 44.9041 4.8299 44.9041Z" fill="white" fill-opacity="0.8"/>
<path d="M4.8299 44.9041H135.178C136.558 44.9041 137.678 46.0233 137.678 47.4041V93.7374C137.678 95.1181 136.558 96.2374 135.178 96.2374H4.8299C3.44918 96.2374 2.3299 95.1181 2.3299 93.7374V47.404C2.3299 46.0233 3.44918 44.9041 4.8299 44.9041Z" stroke="#4F4F4F"/>
</g>
<g style="mix-blend-mode:darken">
<path d="M153.699 44.9041H284.047C285.428 44.9041 286.547 46.0233 286.547 47.4041V93.7374C286.547 95.1181 285.428 96.2374 284.047 96.2374H153.699C152.319 96.2374 151.199 95.1181 151.199 93.7374V47.404C151.199 46.0233 152.319 44.9041 153.699 44.9041Z" fill="white" fill-opacity="0.8"/>
<path d="M153.699 44.9041H284.047C285.428 44.9041 286.547 46.0233 286.547 47.4041V93.7374C286.547 95.1181 285.428 96.2374 284.047 96.2374H153.699C152.319 96.2374 151.199 95.1181 151.199 93.7374V47.404C151.199 46.0233 152.319 44.9041 153.699 44.9041Z" stroke="#4F4F4F"/>
</g>
<g style="mix-blend-mode:darken">
<path d="M313.699 44.9041H707.003C708.384 44.9041 709.503 46.0233 709.503 47.4041V93.7374C709.503 95.1181 708.384 96.2374 707.003 96.2374H313.699C312.318 96.2374 311.199 95.1181 311.199 93.7374V47.404C311.199 46.0233 312.318 44.9041 313.699 44.9041Z" fill="white" fill-opacity="0.8"/>
<path d="M313.699 44.9041H707.003C708.384 44.9041 709.503 46.0233 709.503 47.4041V93.7374C709.503 95.1181 708.384 96.2374 707.003 96.2374H313.699C312.318 96.2374 311.199 95.1181 311.199 93.7374V47.404C311.199 46.0233 312.318 44.9041 313.699 44.9041Z" stroke="#4F4F4F"/>
</g>
<g style="mix-blend-mode:darken">
<path d="M3.4386 0.5H707.003C708.384 0.5 709.503 1.61929 709.503 3V35.0606C709.503 36.4413 708.384 37.5606 707.003 37.5606H3.43859C2.05788 37.5606 0.938599 36.4413 0.938599 35.0606V3C0.938599 1.61929 2.05789 0.5 3.4386 0.5Z" fill="#FFFF6A" fill-opacity="0.8"/>
<path d="M3.4386 0.5H707.003C708.384 0.5 709.503 1.61929 709.503 3V35.0606C709.503 36.4413 708.384 37.5606 707.003 37.5606H3.43859C2.05788 37.5606 0.938599 36.4413 0.938599 35.0606V3C0.938599 1.61929 2.05789 0.5 3.4386 0.5Z" stroke="#4F4F4F"/>
</g>
<path d="M39.9573 69.8495H37.7542V74.2323H35.7776V62.8573H39.7776C41.0901 62.8573 42.1031 63.1516 42.8167 63.7401C43.5302 64.3287 43.887 65.1802 43.887 66.2948C43.887 67.0552 43.7021 67.6932 43.3323 68.2089C42.9677 68.7193 42.4573 69.1125 41.801 69.3885L44.3557 74.1307V74.2323H42.2385L39.9573 69.8495ZM37.7542 68.2635H39.7854C40.4521 68.2635 40.9729 68.0969 41.3479 67.7635C41.7229 67.425 41.9104 66.9641 41.9104 66.3807C41.9104 65.7714 41.7359 65.3 41.387 64.9667C41.0432 64.6333 40.5276 64.4615 39.8401 64.451H37.7542V68.2635ZM52.4104 69.1542H47.7385V72.6542H53.1995V74.2323H45.762V62.8573H53.1448V64.451H47.7385V67.5917H52.4104V69.1542ZM60.7542 71.3026C60.7542 70.8026 60.5771 70.4172 60.2229 70.1464C59.874 69.8755 59.2411 69.6021 58.3245 69.326C57.4078 69.05 56.6786 68.7427 56.137 68.4042C55.1005 67.7531 54.5823 66.9042 54.5823 65.8573C54.5823 64.9406 54.9547 64.1854 55.6995 63.5917C56.4495 62.9979 57.4208 62.701 58.6135 62.701C59.4052 62.701 60.1109 62.8469 60.7307 63.1385C61.3505 63.4302 61.8375 63.8469 62.1917 64.3885C62.5458 64.925 62.7229 65.5214 62.7229 66.1776H60.7542C60.7542 65.5839 60.5667 65.1203 60.1917 64.787C59.8219 64.4484 59.2906 64.2792 58.5979 64.2792C57.9521 64.2792 57.4495 64.4172 57.0901 64.6932C56.7359 64.9693 56.5589 65.3547 56.5589 65.8495C56.5589 66.2662 56.7516 66.6151 57.137 66.8964C57.5224 67.1724 58.1578 67.4432 59.0432 67.7089C59.9286 67.9693 60.6396 68.2688 61.176 68.6073C61.7125 68.9406 62.1057 69.326 62.3557 69.7635C62.6057 70.1958 62.7307 70.7037 62.7307 71.287C62.7307 72.2349 62.3661 72.9901 61.637 73.5526C60.913 74.1099 59.9286 74.3885 58.6839 74.3885C57.8609 74.3885 57.1031 74.2375 56.4104 73.9354C55.7229 73.6281 55.1865 73.2063 54.801 72.6698C54.4208 72.1333 54.2307 71.5083 54.2307 70.7948H56.2073C56.2073 71.4406 56.4208 71.9406 56.8479 72.2948C57.275 72.649 57.887 72.826 58.6839 72.826C59.3714 72.826 59.887 72.688 60.2307 72.412C60.5797 72.1307 60.7542 71.7609 60.7542 71.3026ZM67.9651 70.162H63.8635V68.6307H67.9651V70.162ZM75.6604 71.3026C75.6604 70.8026 75.4833 70.4172 75.1292 70.1464C74.7802 69.8755 74.1474 69.6021 73.2307 69.326C72.3141 69.05 71.5849 68.7427 71.0432 68.4042C70.0068 67.7531 69.4885 66.9042 69.4885 65.8573C69.4885 64.9406 69.8609 64.1854 70.6057 63.5917C71.3557 62.9979 72.3271 62.701 73.5198 62.701C74.3115 62.701 75.0172 62.8469 75.637 63.1385C76.2568 63.4302 76.7438 63.8469 77.0979 64.3885C77.4521 64.925 77.6292 65.5214 77.6292 66.1776H75.6604C75.6604 65.5839 75.4729 65.1203 75.0979 64.787C74.7281 64.4484 74.1969 64.2792 73.5042 64.2792C72.8583 64.2792 72.3557 64.4172 71.9964 64.6932C71.6422 64.9693 71.4651 65.3547 71.4651 65.8495C71.4651 66.2662 71.6578 66.6151 72.0432 66.8964C72.4286 67.1724 73.0641 67.4432 73.9495 67.7089C74.8349 67.9693 75.5458 68.2688 76.0823 68.6073C76.6188 68.9406 77.012 69.326 77.262 69.7635C77.512 70.1958 77.637 70.7037 77.637 71.287C77.637 72.2349 77.2724 72.9901 76.5432 73.5526C75.8193 74.1099 74.8349 74.3885 73.5901 74.3885C72.7672 74.3885 72.0094 74.2375 71.3167 73.9354C70.6292 73.6281 70.0927 73.2063 69.7073 72.6698C69.3271 72.1333 69.137 71.5083 69.137 70.7948H71.1135C71.1135 71.4406 71.3271 71.9406 71.7542 72.2948C72.1813 72.649 72.7932 72.826 73.5901 72.826C74.2776 72.826 74.7932 72.688 75.137 72.412C75.4859 72.1307 75.6604 71.7609 75.6604 71.3026ZM81.9339 62.8573L85.2151 71.576L88.4885 62.8573H91.0432V74.2323H89.0745V70.4823L89.2698 65.4667L85.9104 74.2323H84.4964L81.1448 65.4745L81.3401 70.4823V74.2323H79.3714V62.8573H81.9339ZM101.371 64.451H97.8245V74.2323H95.8635V64.451H92.3479V62.8573H101.371V64.451Z" fill="black"/>
<path d="M205.461 75.8182H203.57V66.6854L200.781 67.6385V66.037L205.219 64.4042H205.461V75.8182ZM217.062 75.8182H209.414V74.5135L213.203 70.3807C213.75 69.7714 214.138 69.2635 214.367 68.8573C214.601 68.4458 214.719 68.0344 214.719 67.6229C214.719 67.0813 214.565 66.6438 214.258 66.3104C213.956 65.9771 213.547 65.8104 213.031 65.8104C212.417 65.8104 211.94 65.9979 211.601 66.3729C211.263 66.7479 211.094 67.2609 211.094 67.912H209.195C209.195 67.2193 209.351 66.5969 209.664 66.0448C209.982 65.4875 210.432 65.0552 211.016 64.7479C211.604 64.4406 212.281 64.287 213.047 64.287C214.151 64.287 215.021 64.5656 215.656 65.1229C216.297 65.675 216.617 66.4406 216.617 67.4198C216.617 67.9875 216.456 68.5839 216.133 69.2089C215.815 69.8287 215.292 70.5344 214.562 71.326L211.781 74.3026H217.062V75.8182ZM223.648 75.8182H221.758V66.6854L218.969 67.6385V66.037L223.406 64.4042H223.648V75.8182ZM235.016 71.0292C235.016 72.6646 234.708 73.899 234.094 74.7323C233.484 75.5604 232.555 75.9745 231.305 75.9745C230.075 75.9745 229.148 75.5708 228.523 74.7635C227.904 73.951 227.586 72.7505 227.57 71.162V69.1932C227.57 67.5578 227.875 66.3313 228.484 65.5135C229.099 64.6958 230.034 64.287 231.289 64.287C232.534 64.287 233.461 64.6854 234.07 65.4823C234.685 66.2792 235 67.4719 235.016 69.0604V71.0292ZM233.117 68.9042C233.117 67.8365 232.971 67.0552 232.68 66.5604C232.388 66.0604 231.924 65.8104 231.289 65.8104C230.669 65.8104 230.213 66.0474 229.922 66.5214C229.63 66.9901 229.476 67.7245 229.461 68.7245V71.3026C229.461 72.3651 229.609 73.1568 229.906 73.6776C230.203 74.1984 230.669 74.4589 231.305 74.4589C231.914 74.4589 232.364 74.2193 232.656 73.7401C232.948 73.2557 233.101 72.5005 233.117 71.4745V68.9042Z" fill="black"/>
<path d="M335.709 65.037H332.162V74.8182H330.201V65.037H326.686V63.4432H335.709V65.037ZM338.896 67.287C339.516 66.5682 340.3 66.2089 341.248 66.2089C343.05 66.2089 343.964 67.2375 343.99 69.2948V74.8182H342.092V69.3651C342.092 68.7818 341.964 68.3703 341.709 68.1307C341.459 67.8859 341.089 67.7635 340.6 67.7635C339.839 67.7635 339.271 68.1021 338.896 68.7792V74.8182H336.998V62.8182H338.896V67.287ZM347.936 74.8182H346.037V66.3651H347.936V74.8182ZM345.92 64.1698C345.92 63.8781 346.011 63.6359 346.193 63.4432C346.381 63.2505 346.646 63.1542 346.99 63.1542C347.334 63.1542 347.6 63.2505 347.787 63.4432C347.975 63.6359 348.068 63.8781 348.068 64.1698C348.068 64.4563 347.975 64.6958 347.787 64.8885C347.6 65.076 347.334 65.1698 346.99 65.1698C346.646 65.1698 346.381 65.076 346.193 64.8885C346.011 64.6958 345.92 64.4563 345.92 64.1698ZM353.482 73.4589C353.956 73.4589 354.35 73.3208 354.662 73.0448C354.975 72.7688 355.141 72.4276 355.162 72.0214H356.951C356.93 72.5474 356.766 73.0396 356.459 73.4979C356.152 73.951 355.735 74.3104 355.209 74.576C354.683 74.8417 354.115 74.9745 353.506 74.9745C352.324 74.9745 351.386 74.5917 350.693 73.826C350.001 73.0604 349.654 72.0031 349.654 70.6542V70.4589C349.654 69.1724 349.998 68.1438 350.686 67.3729C351.373 66.5969 352.311 66.2089 353.498 66.2089C354.503 66.2089 355.321 66.5031 355.951 67.0917C356.587 67.675 356.92 68.4432 356.951 69.3964H355.162C355.141 68.912 354.975 68.5135 354.662 68.201C354.355 67.8885 353.962 67.7323 353.482 67.7323C352.868 67.7323 352.394 67.9563 352.061 68.4042C351.727 68.8469 351.558 69.5214 351.553 70.4276V70.7323C351.553 71.649 351.717 72.3339 352.045 72.787C352.378 73.2349 352.857 73.4589 353.482 73.4589ZM361.131 71.1932L360.287 72.0604V74.8182H358.389V62.8182H360.287V69.7401L360.881 68.9979L363.217 66.3651H365.498L362.357 69.8885L365.834 74.8182H363.639L361.131 71.1932ZM377.467 69.9979H372.889V74.8182H370.912V63.4432H378.139V65.037H372.889V68.4198H377.467V69.9979ZM381.545 74.8182H379.646V66.3651H381.545V74.8182ZM379.529 64.1698C379.529 63.8781 379.62 63.6359 379.803 63.4432C379.99 63.2505 380.256 63.1542 380.6 63.1542C380.943 63.1542 381.209 63.2505 381.396 63.4432C381.584 63.6359 381.678 63.8781 381.678 64.1698C381.678 64.4563 381.584 64.6958 381.396 64.8885C381.209 65.076 380.943 65.1698 380.6 65.1698C380.256 65.1698 379.99 65.076 379.803 64.8885C379.62 64.6958 379.529 64.4563 379.529 64.1698ZM385.639 74.8182H383.74V62.8182H385.639V74.8182ZM389.498 66.3651L389.553 67.2479C390.146 66.5552 390.959 66.2089 391.99 66.2089C393.12 66.2089 393.894 66.6412 394.311 67.5057C394.925 66.6412 395.79 66.2089 396.904 66.2089C397.837 66.2089 398.529 66.4667 398.982 66.9823C399.441 67.4979 399.675 68.2583 399.686 69.2635V74.8182H397.787V69.3182C397.787 68.7818 397.67 68.3885 397.436 68.1385C397.201 67.8885 396.813 67.7635 396.271 67.7635C395.839 67.7635 395.485 67.8807 395.209 68.1151C394.938 68.3443 394.748 68.6464 394.639 69.0214L394.646 74.8182H392.748V69.2557C392.722 68.2609 392.214 67.7635 391.225 67.7635C390.464 67.7635 389.925 68.0734 389.607 68.6932V74.8182H387.709V66.3651H389.498ZM401.904 77.3807L400.881 76.7714C401.183 76.2974 401.389 75.8833 401.498 75.5292C401.613 75.1802 401.673 74.8234 401.678 74.4589V72.9823H403.389L403.381 74.3495C403.376 74.9016 403.235 75.4537 402.959 76.0057C402.688 76.563 402.337 77.0214 401.904 77.3807ZM414.154 74.8182H412.264V65.6854L409.475 66.6385V65.037L413.912 63.4042H414.154V74.8182ZM425.521 70.0292C425.521 71.6646 425.214 72.899 424.6 73.7323C423.99 74.5604 423.061 74.9745 421.811 74.9745C420.581 74.9745 419.654 74.5708 419.029 73.7635C418.41 72.951 418.092 71.7505 418.076 70.162V68.1932C418.076 66.5578 418.381 65.3313 418.99 64.5135C419.605 63.6958 420.54 63.287 421.795 63.287C423.04 63.287 423.967 63.6854 424.576 64.4823C425.191 65.2792 425.506 66.4719 425.521 68.0604V70.0292ZM423.623 67.9042C423.623 66.8365 423.477 66.0552 423.186 65.5604C422.894 65.0604 422.43 64.8104 421.795 64.8104C421.175 64.8104 420.719 65.0474 420.428 65.5214C420.136 65.9901 419.982 66.7245 419.967 67.7245V70.3026C419.967 71.3651 420.115 72.1568 420.412 72.6776C420.709 73.1984 421.175 73.4589 421.811 73.4589C422.42 73.4589 422.87 73.2193 423.162 72.7401C423.454 72.2557 423.607 71.5005 423.623 70.4745V67.9042ZM440.568 69.4276C440.568 70.5422 440.376 71.5214 439.99 72.3651C439.605 73.2037 439.053 73.8495 438.334 74.3026C437.62 74.7505 436.798 74.9745 435.865 74.9745C434.943 74.9745 434.12 74.7505 433.396 74.3026C432.678 73.8495 432.12 73.2063 431.725 72.3729C431.334 71.5396 431.136 70.5787 431.131 69.4901V68.8495C431.131 67.7401 431.326 66.7609 431.717 65.912C432.113 65.063 432.667 64.4146 433.381 63.9667C434.1 63.5135 434.923 63.287 435.85 63.287C436.777 63.287 437.597 63.5109 438.311 63.9589C439.029 64.4016 439.584 65.0422 439.975 65.8807C440.365 66.7141 440.563 67.6854 440.568 68.7948V69.4276ZM438.592 68.8339C438.592 67.5734 438.352 66.6073 437.873 65.9354C437.399 65.2635 436.725 64.9276 435.85 64.9276C434.995 64.9276 434.326 65.2635 433.842 65.9354C433.363 66.6021 433.118 67.5474 433.107 68.7714V69.4276C433.107 70.6776 433.35 71.6438 433.834 72.326C434.324 73.0083 435.001 73.3495 435.865 73.3495C436.74 73.3495 437.412 73.0162 437.881 72.3495C438.355 71.6828 438.592 70.7089 438.592 69.4276V68.8339ZM444.225 67.287C444.844 66.5682 445.628 66.2089 446.576 66.2089C448.378 66.2089 449.292 67.2375 449.318 69.2948V74.8182H447.42V69.3651C447.42 68.7818 447.292 68.3703 447.037 68.1307C446.787 67.8859 446.417 67.7635 445.928 67.7635C445.167 67.7635 444.6 68.1021 444.225 68.7792V74.8182H442.326V62.8182H444.225V67.287ZM453.029 66.3651L453.084 67.2479C453.678 66.5552 454.49 66.2089 455.521 66.2089C456.652 66.2089 457.425 66.6412 457.842 67.5057C458.456 66.6412 459.321 66.2089 460.436 66.2089C461.368 66.2089 462.061 66.4667 462.514 66.9823C462.972 67.4979 463.206 68.2583 463.217 69.2635V74.8182H461.318V69.3182C461.318 68.7818 461.201 68.3885 460.967 68.1385C460.732 67.8885 460.344 67.7635 459.803 67.7635C459.37 67.7635 459.016 67.8807 458.74 68.1151C458.469 68.3443 458.279 68.6464 458.17 69.0214L458.178 74.8182H456.279V69.2557C456.253 68.2609 455.745 67.7635 454.756 67.7635C453.995 67.7635 453.456 68.0734 453.139 68.6932V74.8182H451.24V66.3651H453.029ZM465.436 77.3807L464.412 76.7714C464.714 76.2974 464.92 75.8833 465.029 75.5292C465.144 75.1802 465.204 74.8234 465.209 74.4589V72.9823H466.92L466.912 74.3495C466.907 74.9016 466.766 75.4537 466.49 76.0057C466.219 76.563 465.868 77.0214 465.436 77.3807ZM477.686 74.8182H475.795V65.6854L473.006 66.6385V65.037L477.443 63.4042H477.686V74.8182ZM481.561 65.6307C481.561 64.9432 481.782 64.3807 482.225 63.9432C482.667 63.5005 483.248 63.2792 483.967 63.2792C484.696 63.2792 485.279 63.5005 485.717 63.9432C486.16 64.3807 486.381 64.9563 486.381 65.6698V66.2323C486.381 66.9146 486.16 67.4745 485.717 67.912C485.279 68.3495 484.701 68.5682 483.982 68.5682C483.279 68.5682 482.699 68.3547 482.24 67.9276C481.787 67.4953 481.561 66.9146 481.561 66.1854V65.6307ZM482.889 66.2323C482.889 66.5917 482.988 66.8833 483.186 67.1073C483.389 67.326 483.654 67.4354 483.982 67.4354C484.305 67.4354 484.566 67.326 484.764 67.1073C484.962 66.8833 485.061 66.5813 485.061 66.201V65.6307C485.061 65.2714 484.959 64.9797 484.756 64.7557C484.558 64.5318 484.295 64.4198 483.967 64.4198C483.639 64.4198 483.376 64.5344 483.178 64.7635C482.985 64.9875 482.889 65.2844 482.889 65.6542V66.2323ZM487.029 72.0292C487.029 71.3313 487.256 70.7662 487.709 70.3339C488.162 69.9016 488.74 69.6854 489.443 69.6854C490.152 69.6854 490.73 69.9016 491.178 70.3339C491.631 70.7662 491.857 71.3495 491.857 72.0839V72.6385C491.857 73.3156 491.639 73.8755 491.201 74.3182C490.769 74.7557 490.188 74.9745 489.459 74.9745C488.73 74.9745 488.141 74.7583 487.693 74.326C487.251 73.8885 487.029 73.313 487.029 72.5995V72.0292ZM488.357 72.6385C488.357 72.9927 488.459 73.2844 488.662 73.5135C488.87 73.7375 489.136 73.8495 489.459 73.8495C489.792 73.8495 490.053 73.7427 490.24 73.5292C490.433 73.3104 490.529 73.0057 490.529 72.6151V72.0292C490.529 71.6646 490.428 71.3729 490.225 71.1542C490.021 70.9354 489.761 70.826 489.443 70.826C489.12 70.826 488.857 70.9354 488.654 71.1542C488.456 71.3729 488.357 71.675 488.357 72.0604V72.6385ZM484.373 73.9667L483.396 73.4042L488.951 64.5135L489.928 65.076L484.373 73.9667ZM493.779 77.3807L492.756 76.7714C493.058 76.2974 493.264 75.8833 493.373 75.5292C493.488 75.1802 493.548 74.8234 493.553 74.4589V72.9823H495.264L495.256 74.3495C495.251 74.9016 495.11 75.4537 494.834 76.0057C494.563 76.563 494.212 77.0214 493.779 77.3807ZM508.303 70.0292C508.303 71.6646 507.995 72.899 507.381 73.7323C506.771 74.5604 505.842 74.9745 504.592 74.9745C503.363 74.9745 502.436 74.5708 501.811 73.7635C501.191 72.951 500.873 71.7505 500.857 70.162V68.1932C500.857 66.5578 501.162 65.3313 501.771 64.5135C502.386 63.6958 503.321 63.287 504.576 63.287C505.821 63.287 506.748 63.6854 507.357 64.4823C507.972 65.2792 508.287 66.4719 508.303 68.0604V70.0292ZM506.404 67.9042C506.404 66.8365 506.258 66.0552 505.967 65.5604C505.675 65.0604 505.212 64.8104 504.576 64.8104C503.956 64.8104 503.501 65.0474 503.209 65.5214C502.917 65.9901 502.764 66.7245 502.748 67.7245V70.3026C502.748 71.3651 502.896 72.1568 503.193 72.6776C503.49 73.1984 503.956 73.4589 504.592 73.4589C505.201 73.4589 505.652 73.2193 505.943 72.7401C506.235 72.2557 506.389 71.5005 506.404 70.4745V67.9042ZM511.287 72.8182C511.641 72.8182 511.915 72.9198 512.107 73.1229C512.3 73.3208 512.396 73.5708 512.396 73.8729C512.396 74.1698 512.3 74.4172 512.107 74.6151C511.915 74.8078 511.641 74.9042 511.287 74.9042C510.949 74.9042 510.68 74.8078 510.482 74.6151C510.285 74.4224 510.186 74.175 510.186 73.8729C510.186 73.5708 510.282 73.3208 510.475 73.1229C510.667 72.9198 510.938 72.8182 511.287 72.8182ZM522.1 74.8182H514.451V73.5135L518.24 69.3807C518.787 68.7714 519.175 68.2635 519.404 67.8573C519.639 67.4458 519.756 67.0344 519.756 66.6229C519.756 66.0813 519.602 65.6438 519.295 65.3104C518.993 64.9771 518.584 64.8104 518.068 64.8104C517.454 64.8104 516.977 64.9979 516.639 65.3729C516.3 65.7479 516.131 66.2609 516.131 66.912H514.232C514.232 66.2193 514.389 65.5969 514.701 65.0448C515.019 64.4875 515.469 64.0552 516.053 63.7479C516.641 63.4406 517.318 63.287 518.084 63.287C519.188 63.287 520.058 63.5656 520.693 64.1229C521.334 64.675 521.654 65.4406 521.654 66.4198C521.654 66.9875 521.493 67.5839 521.17 68.2089C520.852 68.8287 520.329 69.5344 519.6 70.326L516.818 73.3026H522.1V74.8182ZM524.053 69.1776L524.67 63.4432H530.779V65.0839H526.248L525.936 67.8026C526.462 67.5005 527.055 67.3495 527.717 67.3495C528.8 67.3495 529.641 67.6958 530.24 68.3885C530.844 69.0813 531.146 70.0135 531.146 71.1854C531.146 72.3417 530.813 73.2635 530.146 73.951C529.48 74.6333 528.566 74.9745 527.404 74.9745C526.363 74.9745 525.498 74.6802 524.811 74.0917C524.128 73.4979 523.758 72.7167 523.701 71.7479H525.537C525.61 72.3 525.808 72.7245 526.131 73.0214C526.454 73.313 526.876 73.4589 527.396 73.4589C527.98 73.4589 528.433 73.2505 528.756 72.8339C529.084 72.4172 529.248 71.8495 529.248 71.1307C529.248 70.438 529.068 69.8912 528.709 69.4901C528.35 69.0839 527.855 68.8807 527.225 68.8807C526.881 68.8807 526.589 68.9276 526.35 69.0214C526.11 69.1099 525.85 69.287 525.568 69.5526L524.053 69.1776ZM541.865 72.0057L543.615 63.4432H545.576L542.951 74.8182H541.061L538.896 66.5135L536.686 74.8182H534.787L532.162 63.4432H534.123L535.889 71.9901L538.061 63.4432H539.717L541.865 72.0057ZM545.982 77.3807L544.959 76.7714C545.261 76.2974 545.467 75.8833 545.576 75.5292C545.691 75.1802 545.751 74.8234 545.756 74.4589V72.9823H547.467L547.459 74.3495C547.454 74.9016 547.313 75.4537 547.037 76.0057C546.766 76.563 546.415 77.0214 545.982 77.3807ZM557.6 68.5604H560.568V70.2948H557.6V73.6776H555.756V70.2948H552.771V68.5604H555.756V65.3964H557.6V68.5604ZM565.818 70.7479H561.717V69.2167H565.818V70.7479ZM572.404 74.8182H570.514V65.6854L567.725 66.6385V65.037L572.162 63.4042H572.404V74.8182ZM583.771 70.0292C583.771 71.6646 583.464 72.899 582.85 73.7323C582.24 74.5604 581.311 74.9745 580.061 74.9745C578.831 74.9745 577.904 74.5708 577.279 73.7635C576.66 72.951 576.342 71.7505 576.326 70.162V68.1932C576.326 66.5578 576.631 65.3313 577.24 64.5135C577.855 63.6958 578.79 63.287 580.045 63.287C581.29 63.287 582.217 63.6854 582.826 64.4823C583.441 65.2792 583.756 66.4719 583.771 68.0604V70.0292ZM581.873 67.9042C581.873 66.8365 581.727 66.0552 581.436 65.5604C581.144 65.0604 580.68 64.8104 580.045 64.8104C579.425 64.8104 578.969 65.0474 578.678 65.5214C578.386 65.9901 578.232 66.7245 578.217 67.7245V70.3026C578.217 71.3651 578.365 72.1568 578.662 72.6776C578.959 73.1984 579.425 73.4589 580.061 73.4589C580.67 73.4589 581.12 73.2193 581.412 72.7401C581.704 72.2557 581.857 71.5005 581.873 70.4745V67.9042ZM592.865 70.0292C592.865 71.6646 592.558 72.899 591.943 73.7323C591.334 74.5604 590.404 74.9745 589.154 74.9745C587.925 74.9745 586.998 74.5708 586.373 73.7635C585.753 72.951 585.436 71.7505 585.42 70.162V68.1932C585.42 66.5578 585.725 65.3313 586.334 64.5135C586.949 63.6958 587.883 63.287 589.139 63.287C590.383 63.287 591.311 63.6854 591.92 64.4823C592.535 65.2792 592.85 66.4719 592.865 68.0604V70.0292ZM590.967 67.9042C590.967 66.8365 590.821 66.0552 590.529 65.5604C590.238 65.0604 589.774 64.8104 589.139 64.8104C588.519 64.8104 588.063 65.0474 587.771 65.5214C587.48 65.9901 587.326 66.7245 587.311 67.7245V70.3026C587.311 71.3651 587.459 72.1568 587.756 72.6776C588.053 73.1984 588.519 73.4589 589.154 73.4589C589.764 73.4589 590.214 73.2193 590.506 72.7401C590.798 72.2557 590.951 71.5005 590.967 70.4745V67.9042ZM602.068 70.6776C602.068 71.9849 601.771 73.0292 601.178 73.8104C600.584 74.5865 599.787 74.9745 598.787 74.9745C597.86 74.9745 597.118 74.6698 596.561 74.0604V78.0682H594.662V66.3651H596.412L596.49 67.2245C597.048 66.5474 597.805 66.2089 598.764 66.2089C599.795 66.2089 600.602 66.5943 601.186 67.3651C601.774 68.1307 602.068 69.1958 602.068 70.5604V70.6776ZM600.178 70.5135C600.178 69.6698 600.008 69.0005 599.67 68.5057C599.337 68.0109 598.857 67.7635 598.232 67.7635C597.456 67.7635 596.899 68.0839 596.561 68.7245V72.4745C596.904 73.1307 597.467 73.4589 598.248 73.4589C598.852 73.4589 599.324 73.2167 599.662 72.7323C600.006 72.2427 600.178 71.5031 600.178 70.5135ZM611.084 70.6776C611.084 71.9849 610.787 73.0292 610.193 73.8104C609.6 74.5865 608.803 74.9745 607.803 74.9745C606.876 74.9745 606.133 74.6698 605.576 74.0604V78.0682H603.678V66.3651H605.428L605.506 67.2245C606.063 66.5474 606.821 66.2089 607.779 66.2089C608.811 66.2089 609.618 66.5943 610.201 67.3651C610.79 68.1307 611.084 69.1958 611.084 70.5604V70.6776ZM609.193 70.5135C609.193 69.6698 609.024 69.0005 608.686 68.5057C608.352 68.0109 607.873 67.7635 607.248 67.7635C606.472 67.7635 605.915 68.0839 605.576 68.7245V72.4745C605.92 73.1307 606.482 73.4589 607.264 73.4589C607.868 73.4589 608.339 73.2167 608.678 72.7323C609.021 72.2427 609.193 71.5031 609.193 70.5135ZM614.482 66.3651L614.537 67.2479C615.131 66.5552 615.943 66.2089 616.975 66.2089C618.105 66.2089 618.878 66.6412 619.295 67.5057C619.91 66.6412 620.774 66.2089 621.889 66.2089C622.821 66.2089 623.514 66.4667 623.967 66.9823C624.425 67.4979 624.66 68.2583 624.67 69.2635V74.8182H622.771V69.3182C622.771 68.7818 622.654 68.3885 622.42 68.1385C622.186 67.8885 621.798 67.7635 621.256 67.7635C620.824 67.7635 620.469 67.8807 620.193 68.1151C619.923 68.3443 619.732 68.6464 619.623 69.0214L619.631 74.8182H617.732V69.2557C617.706 68.2609 617.199 67.7635 616.209 67.7635C615.449 67.7635 614.91 68.0734 614.592 68.6932V74.8182H612.693V66.3651H614.482ZM627.154 75.7948H625.662L630.139 63.4432H631.631L627.154 75.7948ZM641.811 71.1151C641.696 72.3287 641.248 73.2766 640.467 73.9589C639.686 74.6359 638.646 74.9745 637.35 74.9745C636.443 74.9745 635.644 74.7609 634.951 74.3339C634.264 73.9016 633.732 73.2896 633.357 72.4979C632.982 71.7063 632.787 70.787 632.771 69.7401V68.6776C632.771 67.6047 632.962 66.6594 633.342 65.8417C633.722 65.024 634.266 64.3938 634.975 63.951C635.688 63.5083 636.511 63.287 637.443 63.287C638.699 63.287 639.709 63.6281 640.475 64.3104C641.24 64.9927 641.686 65.9563 641.811 67.201H639.842C639.748 66.3833 639.508 65.7948 639.123 65.4354C638.743 65.0708 638.183 64.8885 637.443 64.8885C636.584 64.8885 635.923 65.2037 635.459 65.8339C635.001 66.4589 634.766 67.3781 634.756 68.5917V69.5995C634.756 70.8287 634.975 71.7662 635.412 72.412C635.855 73.0578 636.501 73.3807 637.35 73.3807C638.126 73.3807 638.709 73.2063 639.1 72.8573C639.49 72.5083 639.738 71.9276 639.842 71.1151H641.811ZM643.67 77.3807L642.646 76.7714C642.949 76.2974 643.154 75.8833 643.264 75.5292C643.378 75.1802 643.438 74.8234 643.443 74.4589V72.9823H645.154L645.146 74.3495C645.141 74.9016 645.001 75.4537 644.725 76.0057C644.454 76.563 644.102 77.0214 643.67 77.3807ZM655.92 74.8182H654.029V65.6854L651.24 66.6385V65.037L655.678 63.4042H655.92V74.8182ZM667.521 74.8182H659.873V73.5135L663.662 69.3807C664.209 68.7714 664.597 68.2635 664.826 67.8573C665.061 67.4458 665.178 67.0344 665.178 66.6229C665.178 66.0813 665.024 65.6438 664.717 65.3104C664.415 64.9771 664.006 64.8104 663.49 64.8104C662.876 64.8104 662.399 64.9979 662.061 65.3729C661.722 65.7479 661.553 66.2609 661.553 66.912H659.654C659.654 66.2193 659.811 65.5969 660.123 65.0448C660.441 64.4875 660.891 64.0552 661.475 63.7479C662.063 63.4406 662.74 63.287 663.506 63.287C664.61 63.287 665.48 63.5656 666.115 64.1229C666.756 64.675 667.076 65.4406 667.076 66.4198C667.076 66.9875 666.915 67.5839 666.592 68.2089C666.274 68.8287 665.751 69.5344 665.021 70.326L662.24 73.3026H667.521V74.8182ZM676.381 70.0292C676.381 71.6646 676.074 72.899 675.459 73.7323C674.85 74.5604 673.92 74.9745 672.67 74.9745C671.441 74.9745 670.514 74.5708 669.889 73.7635C669.269 72.951 668.951 71.7505 668.936 70.162V68.1932C668.936 66.5578 669.24 65.3313 669.85 64.5135C670.464 63.6958 671.399 63.287 672.654 63.287C673.899 63.287 674.826 63.6854 675.436 64.4823C676.05 65.2792 676.365 66.4719 676.381 68.0604V70.0292ZM674.482 67.9042C674.482 66.8365 674.337 66.0552 674.045 65.5604C673.753 65.0604 673.29 64.8104 672.654 64.8104C672.035 64.8104 671.579 65.0474 671.287 65.5214C670.995 65.9901 670.842 66.7245 670.826 67.7245V70.3026C670.826 71.3651 670.975 72.1568 671.271 72.6776C671.568 73.1984 672.035 73.4589 672.67 73.4589C673.279 73.4589 673.73 73.2193 674.021 72.7401C674.313 72.2557 674.467 71.5005 674.482 70.4745V67.9042ZM683.967 63.3885V64.9589H683.732C682.67 64.9745 681.821 65.2662 681.186 65.8339C680.55 66.4016 680.173 67.2063 680.053 68.2479C680.662 67.6073 681.441 67.287 682.389 67.287C683.394 67.287 684.186 67.6412 684.764 68.3495C685.347 69.0578 685.639 69.9719 685.639 71.0917C685.639 72.2479 685.298 73.1854 684.615 73.9042C683.938 74.6177 683.048 74.9745 681.943 74.9745C680.808 74.9745 679.886 74.5552 679.178 73.7167C678.475 72.8781 678.123 71.7792 678.123 70.4198V69.7714C678.123 67.7766 678.607 66.2141 679.576 65.0839C680.55 63.9537 681.949 63.3885 683.771 63.3885H683.967ZM681.928 68.8182C681.511 68.8182 681.128 68.9354 680.779 69.1698C680.436 69.4042 680.183 69.7167 680.021 70.1073V70.6854C680.021 71.5292 680.199 72.201 680.553 72.701C680.907 73.1958 681.365 73.4432 681.928 73.4432C682.49 73.4432 682.936 73.2323 683.264 72.8104C683.592 72.3885 683.756 71.8339 683.756 71.1464C683.756 70.4589 683.589 69.899 683.256 69.4667C682.923 69.0344 682.48 68.8182 681.928 68.8182Z" fill="black"/>
<path d="M43.4785 20.7373C43.3789 22.1143 42.8691 23.1982 41.9492 23.9893C41.0352 24.7803 39.8281 25.1758 38.3281 25.1758C36.6875 25.1758 35.3955 24.625 34.4521 23.5234C33.5146 22.416 33.0459 20.8984 33.0459 18.9707V18.1885C33.0459 16.958 33.2627 15.874 33.6963 14.9365C34.1299 13.999 34.748 13.2812 35.5508 12.7832C36.3594 12.2793 37.2969 12.0273 38.3633 12.0273C39.8398 12.0273 41.0293 12.4229 41.9316 13.2139C42.834 14.0049 43.3555 15.1152 43.4961 16.5449H40.8594C40.7949 15.7188 40.5635 15.1211 40.165 14.752C39.7725 14.377 39.1719 14.1895 38.3633 14.1895C37.4844 14.1895 36.8252 14.5059 36.3857 15.1387C35.9521 15.7656 35.7295 16.7412 35.7178 18.0654V19.0322C35.7178 20.415 35.9258 21.4258 36.3418 22.0645C36.7637 22.7031 37.4258 23.0225 38.3281 23.0225C39.1426 23.0225 39.749 22.8379 40.1475 22.4688C40.5518 22.0938 40.7832 21.5166 40.8418 20.7373H43.4785ZM54.8955 12.2031V20.6318C54.8955 22.0322 54.4561 23.1396 53.5771 23.9541C52.7041 24.7686 51.5088 25.1758 49.9912 25.1758C48.4971 25.1758 47.3105 24.7803 46.4316 23.9893C45.5527 23.1982 45.1045 22.1113 45.0869 20.7285V12.2031H47.7236V20.6494C47.7236 21.4873 47.9229 22.0996 48.3213 22.4863C48.7256 22.8672 49.2822 23.0576 49.9912 23.0576C51.4736 23.0576 52.2266 22.2783 52.25 20.7197V12.2031H54.8955ZM57.0576 25V12.2031H61.54C63.0928 12.2031 64.2705 12.502 65.0732 13.0996C65.876 13.6914 66.2773 14.5615 66.2773 15.71C66.2773 16.3369 66.1162 16.8906 65.7939 17.3711C65.4717 17.8457 65.0234 18.1943 64.4492 18.417C65.1055 18.5811 65.6211 18.9121 65.9961 19.4102C66.377 19.9082 66.5674 20.5176 66.5674 21.2383C66.5674 22.4688 66.1748 23.4004 65.3896 24.0332C64.6045 24.666 63.4854 24.9883 62.0322 25H57.0576ZM59.6943 19.4277V22.8818H61.9531C62.5742 22.8818 63.0576 22.7354 63.4033 22.4424C63.7549 22.1436 63.9307 21.7334 63.9307 21.2119C63.9307 20.04 63.3242 19.4453 62.1113 19.4277H59.6943ZM59.6943 17.5645H61.6455C62.9756 17.541 63.6406 17.0107 63.6406 15.9736C63.6406 15.3936 63.4707 14.9775 63.1309 14.7256C62.7969 14.4678 62.2666 14.3389 61.54 14.3389H59.6943V17.5645ZM76.2529 19.4541H71.1904V22.8818H77.1318V25H68.5537V12.2031H77.1143V14.3389H71.1904V17.3887H76.2529V19.4541ZM86.6064 12.2031L89.8936 21.4844L93.1631 12.2031H96.626V25H93.9805V21.502L94.2441 15.4639L90.79 25H88.9795L85.5342 15.4727L85.7979 21.502V25H83.1611V12.2031H86.6064ZM104.457 24.0332C103.83 24.7949 102.963 25.1758 101.855 25.1758C100.836 25.1758 100.057 24.8828 99.5176 24.2969C98.9844 23.7109 98.7119 22.8525 98.7002 21.7217V15.4902H101.24V21.6338C101.24 22.624 101.691 23.1191 102.594 23.1191C103.455 23.1191 104.047 22.8203 104.369 22.2227V15.4902H106.918V25H104.527L104.457 24.0332ZM111.515 25H108.966V11.5H111.515V25ZM116.656 13.1523V15.4902H118.282V17.3535H116.656V22.0996C116.656 22.4512 116.724 22.7031 116.858 22.8555C116.993 23.0078 117.251 23.084 117.632 23.084C117.913 23.084 118.162 23.0635 118.379 23.0225V24.9473C117.881 25.0996 117.368 25.1758 116.841 25.1758C115.06 25.1758 114.151 24.2764 114.116 22.4775V17.3535H112.728V15.4902H114.116V13.1523H116.656ZM122.378 25H119.829V15.4902H122.378V25ZM119.68 13.0293C119.68 12.6484 119.806 12.335 120.058 12.0889C120.315 11.8428 120.664 11.7197 121.104 11.7197C121.537 11.7197 121.883 11.8428 122.141 12.0889C122.398 12.335 122.527 12.6484 122.527 13.0293C122.527 13.416 122.396 13.7324 122.132 13.9785C121.874 14.2246 121.531 14.3477 121.104 14.3477C120.676 14.3477 120.33 14.2246 120.066 13.9785C119.809 13.7324 119.68 13.416 119.68 13.0293ZM129.128 25V12.2031H133.065C134.19 12.2031 135.195 12.458 136.08 12.9678C136.971 13.4717 137.665 14.1924 138.163 15.1299C138.661 16.0615 138.91 17.1221 138.91 18.3115V18.9004C138.91 20.0898 138.664 21.1475 138.172 22.0732C137.686 22.999 136.997 23.7168 136.106 24.2266C135.216 24.7363 134.211 24.9941 133.092 25H129.128ZM131.765 14.3389V22.8818H133.039C134.07 22.8818 134.858 22.5449 135.403 21.8711C135.948 21.1973 136.227 20.2334 136.238 18.9795V18.3027C136.238 17.002 135.969 16.0176 135.43 15.3496C134.891 14.6758 134.103 14.3389 133.065 14.3389H131.765ZM145.045 25.1758C143.65 25.1758 142.514 24.748 141.635 23.8926C140.762 23.0371 140.325 21.8975 140.325 20.4736V20.2275C140.325 19.2725 140.51 18.4199 140.879 17.6699C141.248 16.9141 141.77 16.334 142.443 15.9297C143.123 15.5195 143.896 15.3145 144.764 15.3145C146.064 15.3145 147.087 15.7246 147.831 16.5449C148.581 17.3652 148.956 18.5283 148.956 20.0342V21.0713H142.9C142.982 21.6924 143.229 22.1904 143.639 22.5654C144.055 22.9404 144.579 23.1279 145.212 23.1279C146.19 23.1279 146.955 22.7734 147.506 22.0645L148.754 23.4619C148.373 24.001 147.857 24.4229 147.207 24.7275C146.557 25.0264 145.836 25.1758 145.045 25.1758ZM144.755 17.3711C144.251 17.3711 143.841 17.541 143.524 17.8809C143.214 18.2207 143.015 18.707 142.927 19.3398H146.46V19.1377C146.448 18.5752 146.296 18.1416 146.003 17.8369C145.71 17.5264 145.294 17.3711 144.755 17.3711ZM155.557 22.3721C155.557 22.0615 155.401 21.8184 155.091 21.6426C154.786 21.4609 154.294 21.2998 153.614 21.1592C151.353 20.6846 150.222 19.7236 150.222 18.2764C150.222 17.4326 150.57 16.7295 151.268 16.167C151.971 15.5986 152.888 15.3145 154.019 15.3145C155.226 15.3145 156.189 15.5986 156.91 16.167C157.637 16.7354 158 17.4736 158 18.3818H155.46C155.46 18.0186 155.343 17.7197 155.108 17.4854C154.874 17.2451 154.508 17.125 154.01 17.125C153.582 17.125 153.251 17.2217 153.017 17.415C152.782 17.6084 152.665 17.8545 152.665 18.1533C152.665 18.4346 152.797 18.6631 153.061 18.8389C153.33 19.0088 153.781 19.1582 154.414 19.2871C155.047 19.4102 155.58 19.5508 156.014 19.709C157.355 20.2012 158.026 21.0537 158.026 22.2666C158.026 23.1338 157.654 23.8369 156.91 24.376C156.166 24.9092 155.205 25.1758 154.027 25.1758C153.23 25.1758 152.521 25.0352 151.9 24.7539C151.285 24.4668 150.802 24.0771 150.45 23.585C150.099 23.0869 149.923 22.5508 149.923 21.9766H152.331C152.354 22.4277 152.521 22.7734 152.832 23.0137C153.143 23.2539 153.559 23.374 154.08 23.374C154.566 23.374 154.933 23.2832 155.179 23.1016C155.431 22.9141 155.557 22.6709 155.557 22.3721ZM163.625 23.1279C164.094 23.1279 164.475 22.999 164.768 22.7412C165.061 22.4834 165.213 22.1406 165.225 21.7129H167.606C167.601 22.3574 167.425 22.9492 167.079 23.4883C166.733 24.0215 166.259 24.4375 165.655 24.7363C165.058 25.0293 164.396 25.1758 163.669 25.1758C162.31 25.1758 161.237 24.7451 160.452 23.8838C159.667 23.0166 159.274 21.8213 159.274 20.2979V20.1309C159.274 18.666 159.664 17.4971 160.443 16.624C161.223 15.751 162.292 15.3145 163.651 15.3145C164.841 15.3145 165.793 15.6543 166.508 16.334C167.229 17.0078 167.595 17.9072 167.606 19.0322H165.225C165.213 18.54 165.061 18.1416 164.768 17.8369C164.475 17.5264 164.088 17.3711 163.607 17.3711C163.016 17.3711 162.567 17.5879 162.263 18.0215C161.964 18.4492 161.814 19.1465 161.814 20.1133V20.377C161.814 21.3555 161.964 22.0586 162.263 22.4863C162.562 22.9141 163.016 23.1279 163.625 23.1279ZM174.4 17.8721C174.055 17.8252 173.75 17.8018 173.486 17.8018C172.525 17.8018 171.896 18.127 171.597 18.7773V25H169.057V15.4902H171.456L171.526 16.624C172.036 15.751 172.742 15.3145 173.645 15.3145C173.926 15.3145 174.189 15.3525 174.436 15.4287L174.4 17.8721ZM178.312 25H175.763V15.4902H178.312V25ZM175.613 13.0293C175.613 12.6484 175.739 12.335 175.991 12.0889C176.249 11.8428 176.598 11.7197 177.037 11.7197C177.471 11.7197 177.816 11.8428 178.074 12.0889C178.332 12.335 178.461 12.6484 178.461 13.0293C178.461 13.416 178.329 13.7324 178.065 13.9785C177.808 14.2246 177.465 14.3477 177.037 14.3477C176.609 14.3477 176.264 14.2246 176 13.9785C175.742 13.7324 175.613 13.416 175.613 13.0293ZM188.973 20.333C188.973 21.7979 188.639 22.9727 187.971 23.8574C187.309 24.7363 186.412 25.1758 185.281 25.1758C184.32 25.1758 183.544 24.8418 182.952 24.1738V28.6562H180.412V15.4902H182.768L182.855 16.4219C183.471 15.6836 184.273 15.3145 185.264 15.3145C186.436 15.3145 187.347 15.748 187.997 16.6152C188.647 17.4824 188.973 18.6777 188.973 20.2012V20.333ZM186.433 20.1484C186.433 19.2637 186.274 18.5811 185.958 18.1006C185.647 17.6201 185.193 17.3799 184.596 17.3799C183.799 17.3799 183.251 17.6846 182.952 18.2939V22.1875C183.263 22.8145 183.816 23.1279 184.613 23.1279C185.826 23.1279 186.433 22.1348 186.433 20.1484ZM193.596 13.1523V15.4902H195.222V17.3535H193.596V22.0996C193.596 22.4512 193.663 22.7031 193.798 22.8555C193.933 23.0078 194.19 23.084 194.571 23.084C194.853 23.084 195.102 23.0635 195.318 23.0225V24.9473C194.82 25.0996 194.308 25.1758 193.78 25.1758C191.999 25.1758 191.091 24.2764 191.056 22.4775V17.3535H189.667V15.4902H191.056V13.1523H193.596ZM199.317 25H196.769V15.4902H199.317V25ZM196.619 13.0293C196.619 12.6484 196.745 12.335 196.997 12.0889C197.255 11.8428 197.604 11.7197 198.043 11.7197C198.477 11.7197 198.822 11.8428 199.08 12.0889C199.338 12.335 199.467 12.6484 199.467 13.0293C199.467 13.416 199.335 13.7324 199.071 13.9785C198.813 14.2246 198.471 14.3477 198.043 14.3477C197.615 14.3477 197.27 14.2246 197.006 13.9785C196.748 13.7324 196.619 13.416 196.619 13.0293ZM201.022 20.1572C201.022 19.2139 201.204 18.373 201.567 17.6348C201.931 16.8965 202.452 16.3252 203.132 15.9209C203.817 15.5166 204.611 15.3145 205.514 15.3145C206.797 15.3145 207.843 15.707 208.651 16.4922C209.466 17.2773 209.92 18.3438 210.014 19.6914L210.031 20.3418C210.031 21.8008 209.624 22.9727 208.81 23.8574C207.995 24.7363 206.902 25.1758 205.531 25.1758C204.16 25.1758 203.064 24.7363 202.244 23.8574C201.43 22.9785 201.022 21.7832 201.022 20.2715V20.1572ZM203.562 20.3418C203.562 21.2441 203.732 21.9355 204.072 22.416C204.412 22.8906 204.898 23.1279 205.531 23.1279C206.146 23.1279 206.627 22.8936 206.973 22.4248C207.318 21.9502 207.491 21.1943 207.491 20.1572C207.491 19.2725 207.318 18.5869 206.973 18.1006C206.627 17.6143 206.141 17.3711 205.514 17.3711C204.893 17.3711 204.412 17.6143 204.072 18.1006C203.732 18.5811 203.562 19.3281 203.562 20.3418ZM213.934 15.4902L214.013 16.5889C214.692 15.7393 215.604 15.3145 216.746 15.3145C217.754 15.3145 218.504 15.6104 218.996 16.2021C219.488 16.7939 219.74 17.6787 219.752 18.8564V25H217.212V18.918C217.212 18.3789 217.095 17.9893 216.86 17.749C216.626 17.5029 216.236 17.3799 215.691 17.3799C214.977 17.3799 214.44 17.6846 214.083 18.2939V25H211.543V15.4902H213.934Z" fill="black"/>
<path d="M378.833 148.04V138.087H381.772C382.652 138.087 383.431 138.283 384.11 138.675C384.793 139.067 385.322 139.623 385.696 140.343C386.069 141.063 386.256 141.888 386.256 142.818V143.317C386.256 144.26 386.067 145.09 385.689 145.805C385.315 146.521 384.78 147.072 384.083 147.459C383.39 147.847 382.595 148.04 381.697 148.04H378.833ZM380.562 139.482V146.66H381.69C382.597 146.66 383.292 146.377 383.775 145.812C384.263 145.242 384.511 144.426 384.52 143.365V142.811C384.52 141.731 384.285 140.906 383.816 140.336C383.347 139.767 382.665 139.482 381.772 139.482H380.562ZM391.076 148.177C390.023 148.177 389.168 147.847 388.512 147.186C387.861 146.521 387.535 145.636 387.535 144.534V144.328C387.535 143.59 387.676 142.932 387.958 142.353C388.246 141.77 388.647 141.316 389.162 140.993C389.677 140.669 390.251 140.507 390.884 140.507C391.891 140.507 392.668 140.828 393.215 141.471C393.767 142.114 394.042 143.023 394.042 144.199V144.869H389.209C389.26 145.479 389.462 145.962 389.818 146.318C390.178 146.673 390.629 146.851 391.171 146.851C391.932 146.851 392.552 146.543 393.031 145.928L393.926 146.783C393.63 147.225 393.234 147.569 392.737 147.815C392.245 148.056 391.691 148.177 391.076 148.177ZM390.877 141.84C390.422 141.84 390.053 142 389.77 142.319C389.492 142.638 389.314 143.082 389.237 143.652H392.402V143.529C392.365 142.973 392.217 142.553 391.958 142.271C391.698 141.984 391.338 141.84 390.877 141.84ZM399.484 146.031C399.484 145.734 399.361 145.509 399.115 145.354C398.873 145.199 398.47 145.062 397.905 144.944C397.34 144.825 396.868 144.675 396.49 144.493C395.66 144.092 395.246 143.51 395.246 142.749C395.246 142.111 395.514 141.578 396.052 141.15C396.59 140.721 397.274 140.507 398.103 140.507C398.987 140.507 399.7 140.726 400.243 141.163C400.79 141.601 401.063 142.168 401.063 142.866H399.402C399.402 142.547 399.283 142.282 399.046 142.073C398.809 141.858 398.495 141.751 398.103 141.751C397.738 141.751 397.44 141.836 397.208 142.004C396.98 142.173 396.866 142.398 396.866 142.681C396.866 142.936 396.973 143.134 397.187 143.276C397.401 143.417 397.834 143.561 398.486 143.706C399.138 143.848 399.648 144.019 400.017 144.219C400.391 144.415 400.667 144.652 400.844 144.93C401.027 145.208 401.118 145.545 401.118 145.942C401.118 146.607 400.842 147.147 400.291 147.562C399.739 147.972 399.017 148.177 398.124 148.177C397.517 148.177 396.977 148.068 396.503 147.849C396.029 147.63 395.66 147.329 395.396 146.947C395.132 146.564 395 146.151 395 145.709H396.613C396.636 146.101 396.784 146.404 397.057 146.619C397.331 146.828 397.693 146.933 398.144 146.933C398.582 146.933 398.914 146.851 399.142 146.687C399.37 146.518 399.484 146.3 399.484 146.031ZM405.609 146.851C406.024 146.851 406.368 146.73 406.641 146.489C406.915 146.247 407.06 145.949 407.079 145.593H408.644C408.626 146.053 408.482 146.484 408.213 146.885C407.944 147.282 407.58 147.596 407.12 147.828C406.659 148.061 406.163 148.177 405.629 148.177C404.595 148.177 403.775 147.842 403.168 147.172C402.562 146.502 402.259 145.577 402.259 144.397V144.226C402.259 143.1 402.56 142.2 403.162 141.526C403.763 140.847 404.583 140.507 405.623 140.507C406.502 140.507 407.218 140.765 407.769 141.28C408.325 141.79 408.617 142.462 408.644 143.296H407.079C407.06 142.872 406.915 142.524 406.641 142.25C406.372 141.977 406.028 141.84 405.609 141.84C405.071 141.84 404.656 142.036 404.365 142.428C404.073 142.815 403.925 143.406 403.92 144.199V144.465C403.92 145.267 404.064 145.867 404.351 146.263C404.643 146.655 405.062 146.851 405.609 146.851ZM413.771 142.161C413.552 142.125 413.327 142.107 413.094 142.107C412.333 142.107 411.82 142.398 411.556 142.982V148.04H409.895V140.644H411.481L411.522 141.471C411.923 140.828 412.479 140.507 413.19 140.507C413.427 140.507 413.623 140.539 413.778 140.603L413.771 142.161ZM416.587 148.04H414.926V140.644H416.587V148.04ZM414.824 138.723C414.824 138.468 414.903 138.256 415.063 138.087C415.227 137.919 415.459 137.834 415.76 137.834C416.061 137.834 416.293 137.919 416.458 138.087C416.622 138.256 416.704 138.468 416.704 138.723C416.704 138.974 416.622 139.183 416.458 139.352C416.293 139.516 416.061 139.598 415.76 139.598C415.459 139.598 415.227 139.516 415.063 139.352C414.903 139.183 414.824 138.974 414.824 138.723ZM424.879 144.417C424.879 145.561 424.62 146.475 424.1 147.159C423.581 147.838 422.883 148.177 422.008 148.177C421.197 148.177 420.548 147.911 420.06 147.377V150.884H418.399V140.644H419.93L419.999 141.396C420.486 140.803 421.149 140.507 421.988 140.507C422.89 140.507 423.597 140.844 424.107 141.519C424.622 142.189 424.879 143.121 424.879 144.315V144.417ZM423.225 144.274C423.225 143.536 423.077 142.95 422.781 142.517C422.489 142.084 422.07 141.868 421.523 141.868C420.844 141.868 420.356 142.148 420.06 142.708V145.99C420.361 146.564 420.853 146.851 421.537 146.851C422.065 146.851 422.478 146.639 422.774 146.215C423.075 145.787 423.225 145.14 423.225 144.274ZM428.373 138.846V140.644H429.678V141.874H428.373V146.003C428.373 146.286 428.427 146.491 428.537 146.619C428.651 146.742 428.851 146.803 429.138 146.803C429.33 146.803 429.523 146.78 429.719 146.735V148.02C429.341 148.125 428.976 148.177 428.625 148.177C427.349 148.177 426.711 147.473 426.711 146.065V141.874H425.495V140.644H426.711V138.846H428.373ZM432.72 148.04H431.059V140.644H432.72V148.04ZM430.957 138.723C430.957 138.468 431.036 138.256 431.196 138.087C431.36 137.919 431.592 137.834 431.893 137.834C432.194 137.834 432.426 137.919 432.59 138.087C432.754 138.256 432.836 138.468 432.836 138.723C432.836 138.974 432.754 139.183 432.59 139.352C432.426 139.516 432.194 139.598 431.893 139.598C431.592 139.598 431.36 139.516 431.196 139.352C431.036 139.183 430.957 138.974 430.957 138.723ZM434.224 144.274C434.224 143.549 434.368 142.898 434.655 142.319C434.942 141.735 435.345 141.289 435.865 140.979C436.384 140.664 436.981 140.507 437.656 140.507C438.654 140.507 439.463 140.828 440.083 141.471C440.707 142.114 441.044 142.966 441.094 144.028L441.101 144.417C441.101 145.147 440.96 145.798 440.677 146.372C440.399 146.947 439.998 147.391 439.474 147.705C438.955 148.02 438.353 148.177 437.669 148.177C436.626 148.177 435.79 147.831 435.161 147.138C434.536 146.441 434.224 145.513 434.224 144.356V144.274ZM435.885 144.417C435.885 145.178 436.042 145.775 436.357 146.208C436.671 146.637 437.109 146.851 437.669 146.851C438.23 146.851 438.665 146.632 438.975 146.195C439.29 145.757 439.447 145.117 439.447 144.274C439.447 143.526 439.285 142.934 438.961 142.496C438.642 142.059 438.207 141.84 437.656 141.84C437.113 141.84 436.683 142.057 436.364 142.49C436.045 142.918 435.885 143.561 435.885 144.417ZM444.047 140.644L444.095 141.498C444.642 140.838 445.36 140.507 446.249 140.507C447.789 140.507 448.573 141.389 448.6 143.153V148.04H446.939V143.248C446.939 142.779 446.836 142.433 446.631 142.209C446.431 141.981 446.1 141.868 445.64 141.868C444.97 141.868 444.471 142.171 444.143 142.777V148.04H442.482V140.644H444.047ZM460.727 139.482H457.624V148.04H455.908V139.482H452.832V138.087H460.727V139.482ZM464.521 148.177C463.468 148.177 462.614 147.847 461.958 147.186C461.306 146.521 460.98 145.636 460.98 144.534V144.328C460.98 143.59 461.121 142.932 461.404 142.353C461.691 141.77 462.092 141.316 462.607 140.993C463.122 140.669 463.696 140.507 464.33 140.507C465.337 140.507 466.114 140.828 466.661 141.471C467.212 142.114 467.488 143.023 467.488 144.199V144.869H462.655C462.705 145.479 462.908 145.962 463.263 146.318C463.623 146.673 464.074 146.851 464.617 146.851C465.378 146.851 465.998 146.543 466.476 145.928L467.372 146.783C467.075 147.225 466.679 147.569 466.182 147.815C465.69 148.056 465.136 148.177 464.521 148.177ZM464.323 141.84C463.867 141.84 463.498 142 463.215 142.319C462.937 142.638 462.76 143.082 462.682 143.652H465.847V143.529C465.811 142.973 465.663 142.553 465.403 142.271C465.143 141.984 464.783 141.84 464.323 141.84ZM470.345 140.644L470.393 141.416C470.913 140.81 471.624 140.507 472.526 140.507C473.515 140.507 474.192 140.885 474.556 141.642C475.094 140.885 475.85 140.507 476.826 140.507C477.641 140.507 478.248 140.733 478.644 141.184C479.045 141.635 479.25 142.3 479.259 143.18V148.04H477.598V143.228C477.598 142.759 477.496 142.414 477.291 142.196C477.085 141.977 476.746 141.868 476.272 141.868C475.894 141.868 475.584 141.97 475.342 142.175C475.105 142.376 474.939 142.64 474.843 142.968L474.85 148.04H473.189V143.173C473.166 142.303 472.722 141.868 471.856 141.868C471.191 141.868 470.719 142.139 470.441 142.681V148.04H468.78V140.644H470.345ZM487.442 144.417C487.442 145.561 487.182 146.475 486.663 147.159C486.143 147.838 485.446 148.177 484.571 148.177C483.76 148.177 483.11 147.911 482.623 147.377V150.884H480.961V140.644H482.493L482.561 141.396C483.049 140.803 483.712 140.507 484.55 140.507C485.453 140.507 486.159 140.844 486.669 141.519C487.184 142.189 487.442 143.121 487.442 144.315V144.417ZM485.788 144.274C485.788 143.536 485.639 142.95 485.343 142.517C485.052 142.084 484.632 141.868 484.085 141.868C483.406 141.868 482.919 142.148 482.623 142.708V145.99C482.923 146.564 483.416 146.851 484.099 146.851C484.628 146.851 485.04 146.639 485.336 146.215C485.637 145.787 485.788 145.14 485.788 144.274ZM490.621 148.04H488.959V137.54H490.621V148.04ZM496.855 148.04C496.782 147.899 496.718 147.669 496.664 147.35C496.135 147.901 495.488 148.177 494.722 148.177C493.979 148.177 493.373 147.965 492.904 147.541C492.434 147.118 492.2 146.593 492.2 145.969C492.2 145.181 492.491 144.577 493.075 144.158C493.663 143.734 494.501 143.522 495.59 143.522H496.609V143.036C496.609 142.654 496.502 142.348 496.288 142.12C496.073 141.888 495.748 141.772 495.31 141.772C494.932 141.772 494.622 141.868 494.38 142.059C494.139 142.246 494.018 142.485 494.018 142.777H492.357C492.357 142.371 492.491 141.993 492.76 141.642C493.029 141.286 493.394 141.009 493.854 140.808C494.319 140.607 494.836 140.507 495.406 140.507C496.272 140.507 496.962 140.726 497.477 141.163C497.992 141.596 498.256 142.207 498.27 142.995V146.331C498.27 146.997 498.363 147.528 498.55 147.924V148.04H496.855ZM495.03 146.844C495.358 146.844 495.666 146.764 495.953 146.605C496.244 146.445 496.463 146.231 496.609 145.962V144.568H495.713C495.098 144.568 494.636 144.675 494.326 144.889C494.016 145.103 493.861 145.406 493.861 145.798C493.861 146.117 493.966 146.372 494.175 146.564C494.389 146.751 494.674 146.844 495.03 146.844ZM502.091 138.846V140.644H503.397V141.874H502.091V146.003C502.091 146.286 502.146 146.491 502.255 146.619C502.369 146.742 502.57 146.803 502.857 146.803C503.048 146.803 503.242 146.78 503.438 146.735V148.02C503.06 148.125 502.695 148.177 502.344 148.177C501.068 148.177 500.43 147.473 500.43 146.065V141.874H499.213V140.644H500.43V138.846H502.091ZM507.929 148.177C506.876 148.177 506.022 147.847 505.366 147.186C504.714 146.521 504.388 145.636 504.388 144.534V144.328C504.388 143.59 504.529 142.932 504.812 142.353C505.099 141.77 505.5 141.316 506.015 140.993C506.53 140.669 507.104 140.507 507.738 140.507C508.745 140.507 509.522 140.828 510.069 141.471C510.62 142.114 510.896 143.023 510.896 144.199V144.869H506.063C506.113 145.479 506.316 145.962 506.671 146.318C507.031 146.673 507.483 146.851 508.025 146.851C508.786 146.851 509.406 146.543 509.884 145.928L510.78 146.783C510.484 147.225 510.087 147.569 509.59 147.815C509.098 148.056 508.544 148.177 507.929 148.177ZM507.731 141.84C507.275 141.84 506.906 142 506.624 142.319C506.346 142.638 506.168 143.082 506.09 143.652H509.255V143.529C509.219 142.973 509.071 142.553 508.811 142.271C508.551 141.984 508.191 141.84 507.731 141.84ZM517.568 144.342V148.04H515.838V138.087H519.646C520.758 138.087 521.64 138.377 522.292 138.955C522.948 139.534 523.276 140.3 523.276 141.252C523.276 142.228 522.955 142.986 522.312 143.529C521.674 144.071 520.778 144.342 519.625 144.342H517.568ZM517.568 142.954H519.646C520.261 142.954 520.731 142.811 521.054 142.524C521.378 142.232 521.54 141.813 521.54 141.266C521.54 140.728 521.375 140.3 521.047 139.981C520.719 139.657 520.268 139.491 519.694 139.482H517.568V142.954ZM528.505 142.161C528.287 142.125 528.061 142.107 527.829 142.107C527.068 142.107 526.555 142.398 526.291 142.982V148.04H524.629V140.644H526.215L526.256 141.471C526.657 140.828 527.213 140.507 527.924 140.507C528.161 140.507 528.357 140.539 528.512 140.603L528.505 142.161ZM528.998 144.274C528.998 143.549 529.141 142.898 529.428 142.319C529.715 141.735 530.119 141.289 530.638 140.979C531.158 140.664 531.755 140.507 532.429 140.507C533.427 140.507 534.236 140.828 534.856 141.471C535.48 142.114 535.818 142.966 535.868 144.028L535.875 144.417C535.875 145.147 535.733 145.798 535.451 146.372C535.173 146.947 534.772 147.391 534.248 147.705C533.728 148.02 533.126 148.177 532.443 148.177C531.399 148.177 530.563 147.831 529.934 147.138C529.31 146.441 528.998 145.513 528.998 144.356V144.274ZM530.659 144.417C530.659 145.178 530.816 145.775 531.13 146.208C531.445 146.637 531.882 146.851 532.443 146.851C533.003 146.851 533.439 146.632 533.749 146.195C534.063 145.757 534.22 145.117 534.22 144.274C534.22 143.526 534.058 142.934 533.735 142.496C533.416 142.059 532.981 141.84 532.429 141.84C531.887 141.84 531.456 142.057 531.137 142.49C530.818 142.918 530.659 143.561 530.659 144.417ZM539.778 145.935L541.343 140.644H543.059L540.496 148.04H539.053L536.469 140.644H538.192L539.778 145.935ZM545.869 148.04H544.208V140.644H545.869V148.04ZM544.105 138.723C544.105 138.468 544.185 138.256 544.344 138.087C544.508 137.919 544.741 137.834 545.042 137.834C545.342 137.834 545.575 137.919 545.739 138.087C545.903 138.256 545.985 138.468 545.985 138.723C545.985 138.974 545.903 139.183 545.739 139.352C545.575 139.516 545.342 139.598 545.042 139.598C544.741 139.598 544.508 139.516 544.344 139.352C544.185 139.183 544.105 138.974 544.105 138.723ZM547.373 144.287C547.373 143.148 547.637 142.234 548.166 141.546C548.694 140.854 549.403 140.507 550.292 140.507C551.075 140.507 551.709 140.781 552.192 141.328V137.54H553.853V148.04H552.349L552.267 147.275C551.77 147.876 551.107 148.177 550.278 148.177C549.412 148.177 548.71 147.828 548.172 147.131C547.639 146.434 547.373 145.486 547.373 144.287ZM549.034 144.431C549.034 145.183 549.177 145.771 549.464 146.195C549.756 146.614 550.168 146.824 550.702 146.824C551.381 146.824 551.877 146.521 552.192 145.914V142.756C551.887 142.164 551.394 141.868 550.715 141.868C550.178 141.868 549.763 142.082 549.471 142.51C549.18 142.934 549.034 143.574 549.034 144.431ZM558.843 148.177C557.791 148.177 556.936 147.847 556.28 147.186C555.628 146.521 555.302 145.636 555.302 144.534V144.328C555.302 143.59 555.444 142.932 555.726 142.353C556.013 141.77 556.414 141.316 556.929 140.993C557.444 140.669 558.018 140.507 558.652 140.507C559.659 140.507 560.436 140.828 560.983 141.471C561.534 142.114 561.81 143.023 561.81 144.199V144.869H556.977C557.027 145.479 557.23 145.962 557.585 146.318C557.945 146.673 558.397 146.851 558.939 146.851C559.7 146.851 560.32 146.543 560.798 145.928L561.694 146.783C561.398 147.225 561.001 147.569 560.504 147.815C560.012 148.056 559.458 148.177 558.843 148.177ZM558.645 141.84C558.189 141.84 557.82 142 557.538 142.319C557.26 142.638 557.082 143.082 557.004 143.652H560.169V143.529C560.133 142.973 559.985 142.553 559.725 142.271C559.465 141.984 559.105 141.84 558.645 141.84ZM562.794 144.287C562.794 143.148 563.059 142.234 563.587 141.546C564.116 140.854 564.825 140.507 565.713 140.507C566.497 140.507 567.131 140.781 567.614 141.328V137.54H569.275V148.04H567.771L567.689 147.275C567.192 147.876 566.529 148.177 565.7 148.177C564.834 148.177 564.132 147.828 563.594 147.131C563.061 146.434 562.794 145.486 562.794 144.287ZM564.456 144.431C564.456 145.183 564.599 145.771 564.886 146.195C565.178 146.614 565.59 146.824 566.124 146.824C566.803 146.824 567.299 146.521 567.614 145.914V142.756C567.308 142.164 566.816 141.868 566.137 141.868C565.599 141.868 565.185 142.082 564.893 142.51C564.601 142.934 564.456 143.574 564.456 144.431ZM580.985 144.417C580.985 145.566 580.727 146.48 580.212 147.159C579.702 147.838 578.998 148.177 578.1 148.177C577.234 148.177 576.56 147.865 576.077 147.241L575.995 148.04H574.491V137.54H576.152V141.355C576.63 140.79 577.275 140.507 578.086 140.507C578.989 140.507 579.697 140.842 580.212 141.512C580.727 142.182 580.985 143.119 580.985 144.322V144.417ZM579.324 144.274C579.324 143.472 579.182 142.87 578.9 142.469C578.617 142.068 578.207 141.868 577.669 141.868C576.949 141.868 576.444 142.182 576.152 142.811V145.86C576.448 146.502 576.958 146.824 577.683 146.824C578.203 146.824 578.604 146.63 578.886 146.243C579.169 145.855 579.315 145.27 579.324 144.486V144.274ZM584.97 145.661L586.474 140.644H588.245L585.305 149.161C584.854 150.406 584.088 151.028 583.008 151.028C582.767 151.028 582.5 150.987 582.208 150.905V149.62L582.523 149.64C582.942 149.64 583.257 149.563 583.466 149.408C583.681 149.257 583.849 149.002 583.972 148.642L584.211 148.006L581.614 140.644H583.405L584.97 145.661ZM598.054 145.477C598.054 145.039 597.899 144.702 597.589 144.465C597.284 144.228 596.73 143.989 595.928 143.747C595.126 143.506 594.488 143.237 594.014 142.941C593.107 142.371 592.654 141.628 592.654 140.712C592.654 139.91 592.98 139.249 593.631 138.73C594.288 138.21 595.138 137.951 596.181 137.951C596.874 137.951 597.491 138.078 598.034 138.333C598.576 138.589 599.002 138.953 599.312 139.427C599.622 139.897 599.777 140.418 599.777 140.993H598.054C598.054 140.473 597.89 140.067 597.562 139.776C597.238 139.48 596.774 139.331 596.167 139.331C595.602 139.331 595.163 139.452 594.848 139.694C594.538 139.935 594.383 140.273 594.383 140.705C594.383 141.07 594.552 141.375 594.889 141.621C595.226 141.863 595.782 142.1 596.557 142.332C597.332 142.56 597.954 142.822 598.423 143.119C598.893 143.41 599.237 143.747 599.456 144.13C599.674 144.509 599.784 144.953 599.784 145.463C599.784 146.293 599.465 146.953 598.827 147.446C598.193 147.933 597.332 148.177 596.243 148.177C595.523 148.177 594.86 148.045 594.253 147.781C593.652 147.512 593.182 147.143 592.845 146.673C592.513 146.204 592.346 145.657 592.346 145.033H594.076C594.076 145.598 594.263 146.035 594.636 146.345C595.01 146.655 595.545 146.81 596.243 146.81C596.844 146.81 597.295 146.689 597.596 146.448C597.902 146.202 598.054 145.878 598.054 145.477ZM603.728 145.661L605.232 140.644H607.002L604.063 149.161C603.612 150.406 602.846 151.028 601.766 151.028C601.525 151.028 601.258 150.987 600.966 150.905V149.62L601.281 149.64C601.7 149.64 602.014 149.563 602.224 149.408C602.438 149.257 602.607 149.002 602.73 148.642L602.969 148.006L600.372 140.644H602.163L603.728 145.661ZM612.109 146.031C612.109 145.734 611.986 145.509 611.74 145.354C611.498 145.199 611.095 145.062 610.53 144.944C609.965 144.825 609.493 144.675 609.115 144.493C608.285 144.092 607.871 143.51 607.871 142.749C607.871 142.111 608.139 141.578 608.677 141.15C609.215 140.721 609.899 140.507 610.728 140.507C611.612 140.507 612.325 140.726 612.868 141.163C613.415 141.601 613.688 142.168 613.688 142.866H612.027C612.027 142.547 611.908 142.282 611.671 142.073C611.434 141.858 611.12 141.751 610.728 141.751C610.363 141.751 610.065 141.836 609.833 142.004C609.605 142.173 609.491 142.398 609.491 142.681C609.491 142.936 609.598 143.134 609.812 143.276C610.026 143.417 610.459 143.561 611.111 143.706C611.763 143.848 612.273 144.019 612.642 144.219C613.016 144.415 613.292 144.652 613.469 144.93C613.652 145.208 613.743 145.545 613.743 145.942C613.743 146.607 613.467 147.147 612.916 147.562C612.364 147.972 611.642 148.177 610.749 148.177C610.142 148.177 609.602 148.068 609.128 147.849C608.654 147.63 608.285 147.329 608.021 146.947C607.757 146.564 607.625 146.151 607.625 145.709H609.238C609.261 146.101 609.409 146.404 609.682 146.619C609.956 146.828 610.318 146.933 610.769 146.933C611.207 146.933 611.539 146.851 611.767 146.687C611.995 146.518 612.109 146.3 612.109 146.031ZM617.277 138.846V140.644H618.583V141.874H617.277V146.003C617.277 146.286 617.332 146.491 617.441 146.619C617.555 146.742 617.755 146.803 618.042 146.803C618.234 146.803 618.428 146.78 618.624 146.735V148.02C618.245 148.125 617.881 148.177 617.53 148.177C616.254 148.177 615.616 147.473 615.616 146.065V141.874H614.399V140.644H615.616V138.846H617.277ZM623.115 148.177C622.062 148.177 621.208 147.847 620.551 147.186C619.9 146.521 619.574 145.636 619.574 144.534V144.328C619.574 143.59 619.715 142.932 619.998 142.353C620.285 141.77 620.686 141.316 621.201 140.993C621.716 140.669 622.29 140.507 622.923 140.507C623.931 140.507 624.708 140.828 625.254 141.471C625.806 142.114 626.082 143.023 626.082 144.199V144.869H621.249C621.299 145.479 621.501 145.962 621.857 146.318C622.217 146.673 622.668 146.851 623.21 146.851C623.972 146.851 624.591 146.543 625.07 145.928L625.965 146.783C625.669 147.225 625.273 147.569 624.776 147.815C624.284 148.056 623.73 148.177 623.115 148.177ZM622.917 141.84C622.461 141.84 622.092 142 621.809 142.319C621.531 142.638 621.353 143.082 621.276 143.652H624.441V143.529C624.404 142.973 624.256 142.553 623.997 142.271C623.737 141.984 623.377 141.84 622.917 141.84ZM628.939 140.644L628.987 141.416C629.506 140.81 630.217 140.507 631.12 140.507C632.109 140.507 632.785 140.885 633.15 141.642C633.688 140.885 634.444 140.507 635.419 140.507C636.235 140.507 636.841 140.733 637.238 141.184C637.639 141.635 637.844 142.3 637.853 143.18V148.04H636.192V143.228C636.192 142.759 636.089 142.414 635.884 142.196C635.679 141.977 635.34 141.868 634.866 141.868C634.487 141.868 634.178 141.97 633.936 142.175C633.699 142.376 633.533 142.64 633.437 142.968L633.444 148.04H631.783V143.173C631.76 142.303 631.316 141.868 630.45 141.868C629.784 141.868 629.313 142.139 629.035 142.681V148.04H627.374V140.644H628.939Z" fill="black"/>
<path d="M407.817 109.261H404.333V118.737H401.989V109.261H398.552V107.362H407.817V109.261ZM413.208 112.487L415.575 107.362H418.137L414.403 114.612V118.737H412.02V114.612L408.286 107.362H410.856L413.208 112.487ZM421.52 114.729V118.737H419.177V107.362H423.614C424.468 107.362 425.218 107.519 425.864 107.831C426.515 108.144 427.015 108.589 427.364 109.167C427.713 109.74 427.887 110.394 427.887 111.128C427.887 112.243 427.505 113.123 426.739 113.769C425.979 114.409 424.924 114.729 423.575 114.729H421.52ZM421.52 112.831H423.614C424.234 112.831 424.705 112.685 425.028 112.394C425.356 112.102 425.52 111.685 425.52 111.144C425.52 110.586 425.356 110.136 425.028 109.792C424.7 109.448 424.247 109.271 423.669 109.261H421.52V112.831ZM436.348 113.808H431.848V116.854H437.13V118.737H429.505V107.362H437.114V109.261H431.848V111.972H436.348V113.808ZM438.942 121.589L437.762 120.972L438.044 120.464C438.393 119.828 438.572 119.196 438.583 118.565V116.815H440.489L440.481 118.378C440.476 118.956 440.33 119.539 440.044 120.128C439.757 120.716 439.39 121.203 438.942 121.589ZM450.606 114.573H448.739V118.737H446.395V107.362H450.622C451.966 107.362 453.002 107.662 453.731 108.261C454.46 108.86 454.825 109.706 454.825 110.8C454.825 111.576 454.656 112.224 454.317 112.745C453.984 113.261 453.476 113.672 452.794 113.979L455.255 118.628V118.737H452.739L450.606 114.573ZM448.739 112.675H450.63C451.218 112.675 451.674 112.526 451.997 112.229C452.32 111.927 452.481 111.513 452.481 110.987C452.481 110.451 452.328 110.029 452.02 109.722C451.718 109.414 451.252 109.261 450.622 109.261H448.739V112.675ZM463.458 113.808H458.958V116.854H464.239V118.737H456.614V107.362H464.223V109.261H458.958V111.972H463.458V113.808ZM471.512 115.753C471.512 115.31 471.356 114.972 471.044 114.737C470.731 114.498 470.169 114.248 469.356 113.987C468.544 113.722 467.9 113.461 467.427 113.206C466.135 112.508 465.489 111.568 465.489 110.386C465.489 109.771 465.661 109.224 466.005 108.745C466.354 108.261 466.851 107.883 467.497 107.612C468.148 107.341 468.877 107.206 469.684 107.206C470.497 107.206 471.221 107.354 471.856 107.651C472.492 107.943 472.984 108.357 473.333 108.894C473.687 109.43 473.864 110.039 473.864 110.722H471.52C471.52 110.201 471.356 109.797 471.028 109.511C470.7 109.219 470.239 109.073 469.645 109.073C469.072 109.073 468.627 109.196 468.309 109.44C467.992 109.68 467.833 109.998 467.833 110.394C467.833 110.763 468.018 111.073 468.387 111.323C468.762 111.573 469.312 111.808 470.036 112.026C471.369 112.427 472.341 112.925 472.95 113.519C473.559 114.112 473.864 114.852 473.864 115.737C473.864 116.722 473.492 117.495 472.747 118.058C472.002 118.615 470.999 118.894 469.739 118.894C468.864 118.894 468.067 118.735 467.348 118.417C466.63 118.094 466.08 117.654 465.7 117.097C465.325 116.539 465.137 115.894 465.137 115.159H467.489C467.489 116.414 468.239 117.042 469.739 117.042C470.296 117.042 470.731 116.93 471.044 116.706C471.356 116.477 471.512 116.159 471.512 115.753ZM475.895 121.589L474.716 120.972L474.997 120.464C475.346 119.828 475.525 119.196 475.536 118.565V116.815H477.442L477.434 118.378C477.429 118.956 477.283 119.539 476.997 120.128C476.71 120.716 476.343 121.203 475.895 121.589ZM491.442 109.261H487.958V118.737H485.614V109.261H482.177V107.362H491.442V109.261ZM501.911 113.308C501.911 114.427 501.713 115.409 501.317 116.253C500.921 117.097 500.354 117.748 499.614 118.206C498.88 118.664 498.036 118.894 497.083 118.894C496.14 118.894 495.299 118.667 494.559 118.214C493.82 117.761 493.247 117.115 492.841 116.276C492.434 115.433 492.229 114.464 492.223 113.37V112.808C492.223 111.688 492.424 110.703 492.825 109.854C493.231 109 493.802 108.347 494.536 107.894C495.275 107.435 496.119 107.206 497.067 107.206C498.015 107.206 498.856 107.435 499.591 107.894C500.33 108.347 500.9 109 501.302 109.854C501.708 110.703 501.911 111.685 501.911 112.8V113.308ZM499.536 112.792C499.536 111.599 499.322 110.693 498.895 110.073C498.468 109.453 497.859 109.144 497.067 109.144C496.281 109.144 495.674 109.451 495.247 110.065C494.82 110.675 494.604 111.571 494.598 112.753V113.308C494.598 114.469 494.812 115.37 495.239 116.011C495.666 116.651 496.281 116.972 497.083 116.972C497.869 116.972 498.473 116.664 498.895 116.05C499.317 115.43 499.531 114.529 499.536 113.347V112.792ZM505.958 116.854H510.934V118.737H503.614V107.362H505.958V116.854ZM512.723 121.589L511.544 120.972L511.825 120.464C512.174 119.828 512.354 119.196 512.364 118.565V116.815H514.27L514.262 118.378C514.257 118.956 514.111 119.539 513.825 120.128C513.539 120.716 513.171 121.203 512.723 121.589ZM529.036 115.456L530.567 107.362H532.903L530.38 118.737H528.02L526.169 111.128L524.317 118.737H521.958L519.434 107.362H521.77L523.309 115.44L525.184 107.362H527.169L529.036 115.456ZM540.255 116.394H536.145L535.364 118.737H532.872L537.106 107.362H539.278L543.536 118.737H541.044L540.255 116.394ZM536.778 114.495H539.622L538.192 110.237L536.778 114.495ZM552.223 109.261H548.739V118.737H546.395V109.261H542.958V107.362H552.223V109.261ZM562.255 109.261H558.77V118.737H556.427V109.261H552.989V107.362H562.255V109.261ZM569.372 115.753C569.372 115.31 569.216 114.972 568.903 114.737C568.591 114.498 568.028 114.248 567.216 113.987C566.403 113.722 565.76 113.461 565.286 113.206C563.994 112.508 563.348 111.568 563.348 110.386C563.348 109.771 563.52 109.224 563.864 108.745C564.213 108.261 564.71 107.883 565.356 107.612C566.007 107.341 566.736 107.206 567.544 107.206C568.356 107.206 569.08 107.354 569.716 107.651C570.351 107.943 570.843 108.357 571.192 108.894C571.546 109.43 571.723 110.039 571.723 110.722H569.38C569.38 110.201 569.216 109.797 568.887 109.511C568.559 109.219 568.098 109.073 567.505 109.073C566.932 109.073 566.486 109.196 566.169 109.44C565.851 109.68 565.692 109.998 565.692 110.394C565.692 110.763 565.877 111.073 566.247 111.323C566.622 111.573 567.171 111.808 567.895 112.026C569.229 112.427 570.2 112.925 570.809 113.519C571.419 114.112 571.723 114.852 571.723 115.737C571.723 116.722 571.351 117.495 570.606 118.058C569.861 118.615 568.859 118.894 567.598 118.894C566.723 118.894 565.927 118.735 565.208 118.417C564.489 118.094 563.94 117.654 563.559 117.097C563.184 116.539 562.997 115.894 562.997 115.159H565.348C565.348 116.414 566.098 117.042 567.598 117.042C568.156 117.042 568.591 116.93 568.903 116.706C569.216 116.477 569.372 116.159 569.372 115.753ZM573.755 121.589L572.575 120.972L572.856 120.464C573.205 119.828 573.385 119.196 573.395 118.565V116.815H575.302L575.294 118.378C575.289 118.956 575.143 119.539 574.856 120.128C574.57 120.716 574.203 121.203 573.755 121.589ZM583.552 114.729V118.737H581.208V107.362H585.645C586.499 107.362 587.249 107.519 587.895 107.831C588.546 108.144 589.046 108.589 589.395 109.167C589.744 109.74 589.919 110.394 589.919 111.128C589.919 112.243 589.536 113.123 588.77 113.769C588.01 114.409 586.955 114.729 585.606 114.729H583.552ZM583.552 112.831H585.645C586.265 112.831 586.736 112.685 587.059 112.394C587.387 112.102 587.552 111.685 587.552 111.144C587.552 110.586 587.387 110.136 587.059 109.792C586.731 109.448 586.278 109.271 585.7 109.261H583.552V112.831ZM595.098 114.175L593.88 115.487V118.737H591.536V107.362H593.88V112.519L594.911 111.104L597.809 107.362H600.692L596.653 112.417L600.809 118.737H598.02L595.098 114.175ZM610.442 117.3C610.02 117.805 609.424 118.198 608.653 118.479C607.882 118.756 607.028 118.894 606.091 118.894C605.106 118.894 604.242 118.68 603.497 118.253C602.757 117.821 602.184 117.196 601.778 116.378C601.377 115.56 601.171 114.599 601.161 113.495V112.722C601.161 111.586 601.351 110.604 601.731 109.776C602.117 108.943 602.669 108.308 603.387 107.87C604.111 107.427 604.958 107.206 605.927 107.206C607.275 107.206 608.33 107.529 609.091 108.175C609.851 108.815 610.302 109.75 610.442 110.979H608.161C608.057 110.328 607.825 109.852 607.466 109.55C607.111 109.248 606.622 109.097 605.997 109.097C605.2 109.097 604.593 109.396 604.177 109.995C603.76 110.594 603.549 111.485 603.544 112.667V113.394C603.544 114.586 603.77 115.487 604.223 116.097C604.677 116.706 605.341 117.011 606.216 117.011C607.096 117.011 607.723 116.823 608.098 116.448V114.487H605.966V112.761H610.442V117.3Z" fill="#828282"/>
<path d="M27.0116 114.729V118.737H24.6678V107.362H29.1053C29.9595 107.362 30.7095 107.519 31.3553 107.831C32.0064 108.144 32.5064 108.589 32.8553 109.167C33.2043 109.74 33.3788 110.394 33.3788 111.128C33.3788 112.243 32.9959 113.123 32.2303 113.769C31.4699 114.409 30.4152 114.729 29.0663 114.729H27.0116ZM27.0116 112.831H29.1053C29.7251 112.831 30.1965 112.685 30.5194 112.394C30.8475 112.102 31.0116 111.685 31.0116 111.144C31.0116 110.586 30.8475 110.136 30.5194 109.792C30.1913 109.448 29.7381 109.271 29.16 109.261H27.0116V112.831ZM40.0272 116.394H35.9178L35.1366 118.737H32.6444L36.8788 107.362H39.0506L43.3084 118.737H40.8163L40.0272 116.394ZM36.5506 114.495H39.3944L37.9647 110.237L36.5506 114.495ZM48.5819 114.573H46.7147V118.737H44.3709V107.362H48.5975C49.9413 107.362 50.9777 107.662 51.7069 108.261C52.4361 108.86 52.8006 109.706 52.8006 110.8C52.8006 111.576 52.6314 112.224 52.2928 112.745C51.9595 113.261 51.4517 113.672 50.7694 113.979L53.2303 118.628V118.737H50.7147L48.5819 114.573ZM46.7147 112.675H48.6053C49.1939 112.675 49.6496 112.526 49.9725 112.229C50.2954 111.927 50.4569 111.513 50.4569 110.987C50.4569 110.451 50.3032 110.029 49.9959 109.722C49.6939 109.414 49.2277 109.261 48.5975 109.261H46.7147V112.675ZM62.7616 109.261H59.2772V118.737H56.9334V109.261H53.4959V107.362H62.7616V109.261ZM76.5506 114.948C76.4621 116.172 76.009 117.136 75.1913 117.839C74.3788 118.542 73.3058 118.894 71.9725 118.894C70.5142 118.894 69.3657 118.404 68.5272 117.425C67.6939 116.44 67.2772 115.091 67.2772 113.378V112.683C67.2772 111.589 67.4699 110.625 67.8553 109.792C68.2407 108.959 68.7902 108.321 69.5038 107.878C70.2225 107.43 71.0558 107.206 72.0038 107.206C73.3163 107.206 74.3736 107.558 75.1756 108.261C75.9777 108.964 76.4413 109.951 76.5663 111.222H74.2225C74.1652 110.487 73.9595 109.956 73.6053 109.628C73.2564 109.295 72.7225 109.128 72.0038 109.128C71.2225 109.128 70.6366 109.409 70.2459 109.972C69.8605 110.529 69.6626 111.396 69.6522 112.573V113.433C69.6522 114.662 69.8371 115.56 70.2069 116.128C70.5819 116.696 71.1704 116.979 71.9725 116.979C72.6965 116.979 73.2355 116.815 73.5897 116.487C73.9491 116.154 74.1548 115.641 74.2069 114.948H76.5506ZM80.4334 116.854H85.41V118.737H78.0897V107.362H80.4334V116.854ZM93.3397 116.394H89.2303L88.4491 118.737H85.9569L90.1913 107.362H92.3631L96.6209 118.737H94.1288L93.3397 116.394ZM89.8631 114.495H92.7069L91.2772 110.237L89.8631 114.495ZM103.582 115.753C103.582 115.31 103.426 114.972 103.113 114.737C102.801 114.498 102.238 114.248 101.426 113.987C100.613 113.722 99.9699 113.461 99.4959 113.206C98.2043 112.508 97.5584 111.568 97.5584 110.386C97.5584 109.771 97.7303 109.224 98.0741 108.745C98.423 108.261 98.9204 107.883 99.5663 107.612C100.217 107.341 100.946 107.206 101.754 107.206C102.566 107.206 103.29 107.354 103.926 107.651C104.561 107.943 105.053 108.357 105.402 108.894C105.756 109.43 105.933 110.039 105.933 110.722H103.59C103.59 110.201 103.426 109.797 103.098 109.511C102.769 109.219 102.308 109.073 101.715 109.073C101.142 109.073 100.696 109.196 100.379 109.44C100.061 109.68 99.9022 109.998 99.9022 110.394C99.9022 110.763 100.087 111.073 100.457 111.323C100.832 111.573 101.381 111.808 102.105 112.026C103.439 112.427 104.41 112.925 105.019 113.519C105.629 114.112 105.933 114.852 105.933 115.737C105.933 116.722 105.561 117.495 104.816 118.058C104.071 118.615 103.069 118.894 101.808 118.894C100.933 118.894 100.137 118.735 99.4178 118.417C98.6991 118.094 98.1496 117.654 97.7694 117.097C97.3944 116.539 97.2069 115.894 97.2069 115.159H99.5584C99.5584 116.414 100.308 117.042 101.808 117.042C102.366 117.042 102.801 116.93 103.113 116.706C103.426 116.477 103.582 116.159 103.582 115.753ZM113.426 115.753C113.426 115.31 113.269 114.972 112.957 114.737C112.644 114.498 112.082 114.248 111.269 113.987C110.457 113.722 109.814 113.461 109.34 113.206C108.048 112.508 107.402 111.568 107.402 110.386C107.402 109.771 107.574 109.224 107.918 108.745C108.267 108.261 108.764 107.883 109.41 107.612C110.061 107.341 110.79 107.206 111.598 107.206C112.41 107.206 113.134 107.354 113.769 107.651C114.405 107.943 114.897 108.357 115.246 108.894C115.6 109.43 115.777 110.039 115.777 110.722H113.433C113.433 110.201 113.269 109.797 112.941 109.511C112.613 109.219 112.152 109.073 111.558 109.073C110.986 109.073 110.54 109.196 110.223 109.44C109.905 109.68 109.746 109.998 109.746 110.394C109.746 110.763 109.931 111.073 110.301 111.323C110.676 111.573 111.225 111.808 111.949 112.026C113.282 112.427 114.254 112.925 114.863 113.519C115.473 114.112 115.777 114.852 115.777 115.737C115.777 116.722 115.405 117.495 114.66 118.058C113.915 118.615 112.913 118.894 111.652 118.894C110.777 118.894 109.98 118.735 109.262 118.417C108.543 118.094 107.993 117.654 107.613 117.097C107.238 116.539 107.051 115.894 107.051 115.159H109.402C109.402 116.414 110.152 117.042 111.652 117.042C112.209 117.042 112.644 116.93 112.957 116.706C113.269 116.477 113.426 116.159 113.426 115.753Z" fill="#828282"/>
<path d="M181.365 114.729V118.737H179.022V107.362H183.459C184.313 107.362 185.063 107.519 185.709 107.831C186.36 108.144 186.86 108.589 187.209 109.167C187.558 109.74 187.732 110.394 187.732 111.128C187.732 112.243 187.35 113.123 186.584 113.769C185.824 114.409 184.769 114.729 183.42 114.729H181.365ZM181.365 112.831H183.459C184.079 112.831 184.55 112.685 184.873 112.394C185.201 112.102 185.365 111.685 185.365 111.144C185.365 110.586 185.201 110.136 184.873 109.792C184.545 109.448 184.092 109.271 183.514 109.261H181.365V112.831ZM194.381 116.394H190.272L189.49 118.737H186.998L191.232 107.362H193.404L197.662 118.737H195.17L194.381 116.394ZM190.904 114.495H193.748L192.318 110.237L190.904 114.495ZM202.936 114.573H201.068V118.737H198.725V107.362H202.951C204.295 107.362 205.331 107.662 206.061 108.261C206.79 108.86 207.154 109.706 207.154 110.8C207.154 111.576 206.985 112.224 206.647 112.745C206.313 113.261 205.805 113.672 205.123 113.979L207.584 118.628V118.737H205.068L202.936 114.573ZM201.068 112.675H202.959C203.548 112.675 204.003 112.526 204.326 112.229C204.649 111.927 204.811 111.513 204.811 110.987C204.811 110.451 204.657 110.029 204.35 109.722C204.048 109.414 203.581 109.261 202.951 109.261H201.068V112.675ZM217.115 109.261H213.631V118.737H211.287V109.261H207.85V107.362H217.115V109.261ZM230.068 109.261H226.584V118.737H224.24V109.261H220.803V107.362H230.068V109.261ZM235.459 112.487L237.826 107.362H240.389L236.654 114.612V118.737H234.272V114.612L230.537 107.362H233.107L235.459 112.487ZM243.772 114.729V118.737H241.428V107.362H245.865C246.719 107.362 247.469 107.519 248.115 107.831C248.766 108.144 249.266 108.589 249.615 109.167C249.964 109.74 250.139 110.394 250.139 111.128C250.139 112.243 249.756 113.123 248.99 113.769C248.23 114.409 247.175 114.729 245.826 114.729H243.772ZM243.772 112.831H245.865C246.485 112.831 246.956 112.685 247.279 112.394C247.607 112.102 247.772 111.685 247.772 111.144C247.772 110.586 247.607 110.136 247.279 109.792C246.951 109.448 246.498 109.271 245.92 109.261H243.772V112.831ZM258.6 113.808H254.1V116.854H259.381V118.737H251.756V107.362H259.365V109.261H254.1V111.972H258.6V113.808Z" fill="#828282"/>
</svg>
