<svg width="392" height="181" viewBox="0 0 392 181" fill="none" xmlns="http://www.w3.org/2000/svg">
<path d="M12.6343 138H11.0347V128.758H12.6343V138ZM15.8906 131.132L15.9351 131.925C16.4429 131.312 17.1094 131.005 17.9346 131.005C19.3649 131.005 20.0928 131.824 20.1182 133.461V138H18.5757V133.55C18.5757 133.114 18.4805 132.793 18.29 132.585C18.1038 132.374 17.797 132.268 17.3696 132.268C16.7476 132.268 16.2842 132.549 15.9795 133.112V138H14.437V131.132H15.8906ZM23.6284 129.462V131.132H24.8408V132.274H23.6284V136.108C23.6284 136.371 23.6792 136.561 23.7808 136.68C23.8866 136.794 24.0728 136.851 24.3394 136.851C24.5171 136.851 24.6969 136.83 24.8789 136.788V137.981C24.5277 138.078 24.1891 138.127 23.8633 138.127C22.6784 138.127 22.0859 137.473 22.0859 136.166V132.274H20.9561V131.132H22.0859V129.462H23.6284ZM29.0493 138.127C28.0718 138.127 27.2783 137.82 26.6689 137.207C26.0638 136.589 25.7612 135.768 25.7612 134.744V134.553C25.7612 133.868 25.8924 133.256 26.1548 132.719C26.4214 132.177 26.7938 131.756 27.272 131.456C27.7502 131.155 28.2834 131.005 28.8716 131.005C29.8068 131.005 30.5283 131.303 31.0361 131.9C31.5482 132.497 31.8042 133.341 31.8042 134.433V135.055H27.3164C27.363 135.622 27.5513 136.07 27.8813 136.4C28.2157 136.73 28.6346 136.896 29.1382 136.896C29.8449 136.896 30.4204 136.61 30.8647 136.039L31.6963 136.832C31.4212 137.243 31.0531 137.562 30.5918 137.791C30.1348 138.015 29.6206 138.127 29.0493 138.127ZM28.8652 132.243C28.4421 132.243 28.0993 132.391 27.8369 132.687C27.5788 132.983 27.4137 133.396 27.3418 133.925H30.2808V133.811C30.2469 133.294 30.1094 132.905 29.8682 132.643C29.627 132.376 29.2926 132.243 28.8652 132.243ZM34.4385 131.132L34.4829 131.925C34.9907 131.312 35.6572 131.005 36.4824 131.005C37.9128 131.005 38.6406 131.824 38.666 133.461V138H37.1235V133.55C37.1235 133.114 37.0283 132.793 36.8379 132.585C36.6517 132.374 36.3449 132.268 35.9175 132.268C35.2954 132.268 34.832 132.549 34.5273 133.112V138H32.9849V131.132H34.4385ZM39.9546 134.515C39.9546 133.457 40.2 132.609 40.6909 131.97C41.1818 131.326 41.8398 131.005 42.665 131.005C43.3929 131.005 43.9811 131.259 44.4297 131.767V128.25H45.9722V138H44.5757L44.4995 137.289C44.0382 137.848 43.4225 138.127 42.6523 138.127C41.8483 138.127 41.1966 137.803 40.6973 137.156C40.2021 136.508 39.9546 135.628 39.9546 134.515ZM41.4971 134.648C41.4971 135.347 41.6304 135.893 41.897 136.286C42.1678 136.675 42.5508 136.87 43.0459 136.87C43.6764 136.87 44.1377 136.589 44.4297 136.026V133.093C44.1462 132.543 43.6891 132.268 43.0586 132.268C42.5592 132.268 42.1742 132.467 41.9033 132.865C41.6325 133.258 41.4971 133.853 41.4971 134.648ZM50.606 138.127C49.6284 138.127 48.835 137.82 48.2256 137.207C47.6204 136.589 47.3179 135.768 47.3179 134.744V134.553C47.3179 133.868 47.4491 133.256 47.7114 132.719C47.978 132.177 48.3504 131.756 48.8286 131.456C49.3068 131.155 49.84 131.005 50.4282 131.005C51.3634 131.005 52.085 131.303 52.5928 131.9C53.1048 132.497 53.3608 133.341 53.3608 134.433V135.055H48.873C48.9196 135.622 49.1079 136.07 49.438 136.4C49.7723 136.73 50.1912 136.896 50.6948 136.896C51.4015 136.896 51.9771 136.61 52.4214 136.039L53.2529 136.832C52.9779 137.243 52.6097 137.562 52.1484 137.791C51.6914 138.015 51.1772 138.127 50.606 138.127ZM50.4219 132.243C49.9987 132.243 49.6559 132.391 49.3936 132.687C49.1354 132.983 48.9704 133.396 48.8984 133.925H51.8374V133.811C51.8035 133.294 51.666 132.905 51.4248 132.643C51.1836 132.376 50.8493 132.243 50.4219 132.243ZM54.2749 134.515C54.2749 133.457 54.5203 132.609 55.0112 131.97C55.5021 131.326 56.1602 131.005 56.9854 131.005C57.7132 131.005 58.3014 131.259 58.75 131.767V128.25H60.2925V138H58.896L58.8198 137.289C58.3586 137.848 57.7428 138.127 56.9727 138.127C56.1686 138.127 55.5169 137.803 55.0176 137.156C54.5225 136.508 54.2749 135.628 54.2749 134.515ZM55.8174 134.648C55.8174 135.347 55.9507 135.893 56.2173 136.286C56.4881 136.675 56.8711 136.87 57.3662 136.87C57.9967 136.87 58.458 136.589 58.75 136.026V133.093C58.4665 132.543 58.0094 132.268 57.3789 132.268C56.8796 132.268 56.4945 132.467 56.2236 132.865C55.9528 133.258 55.8174 133.853 55.8174 134.648ZM65.6816 138V132.274H64.6343V131.132H65.6816V130.503C65.6816 129.742 65.8932 129.153 66.3164 128.739C66.7396 128.324 67.332 128.117 68.0938 128.117C68.3646 128.117 68.6523 128.155 68.957 128.231L68.9189 129.437C68.7497 129.403 68.5529 129.386 68.3286 129.386C67.5923 129.386 67.2241 129.765 67.2241 130.522V131.132H68.6206V132.274H67.2241V138H65.6816ZM69.4585 134.502C69.4585 133.83 69.5918 133.224 69.8584 132.687C70.125 132.145 70.4995 131.731 70.9819 131.443C71.4644 131.151 72.0187 131.005 72.645 131.005C73.5718 131.005 74.3229 131.303 74.8984 131.9C75.4782 132.497 75.7913 133.288 75.8379 134.274L75.8442 134.636C75.8442 135.313 75.7131 135.918 75.4507 136.451C75.1925 136.984 74.8201 137.397 74.3335 137.689C73.8511 137.981 73.2925 138.127 72.6577 138.127C71.6886 138.127 70.9121 137.805 70.3281 137.162C69.7484 136.515 69.4585 135.653 69.4585 134.579V134.502ZM71.001 134.636C71.001 135.342 71.147 135.897 71.439 136.299C71.731 136.697 72.1372 136.896 72.6577 136.896C73.1782 136.896 73.5824 136.692 73.8701 136.286C74.1621 135.88 74.3081 135.285 74.3081 134.502C74.3081 133.808 74.1579 133.258 73.8574 132.852C73.5612 132.446 73.1571 132.243 72.645 132.243C72.1414 132.243 71.7415 132.444 71.4453 132.846C71.1491 133.243 71.001 133.84 71.001 134.636ZM80.7446 132.541C80.5415 132.507 80.332 132.49 80.1162 132.49C79.4095 132.49 78.9334 132.761 78.688 133.303V138H77.1455V131.132H78.6182L78.6562 131.9C79.0286 131.303 79.5449 131.005 80.2051 131.005C80.4251 131.005 80.6071 131.035 80.751 131.094L80.7446 132.541ZM90.9707 134.636C90.9707 135.698 90.7295 136.546 90.2471 137.181C89.7646 137.812 89.1172 138.127 88.3047 138.127C87.5514 138.127 86.9484 137.879 86.4956 137.384V140.641H84.9531V131.132H86.375L86.4385 131.83C86.8913 131.28 87.507 131.005 88.2856 131.005C89.1235 131.005 89.7795 131.318 90.2534 131.944C90.7316 132.566 90.9707 133.432 90.9707 134.541V134.636ZM89.4346 134.502C89.4346 133.817 89.297 133.273 89.022 132.871C88.7511 132.469 88.3618 132.268 87.854 132.268C87.2235 132.268 86.7707 132.528 86.4956 133.049V136.096C86.7749 136.629 87.2319 136.896 87.8667 136.896C88.3576 136.896 88.7406 136.699 89.0156 136.305C89.2949 135.907 89.4346 135.306 89.4346 134.502ZM95.3062 138.127C94.3286 138.127 93.5352 137.82 92.9258 137.207C92.3206 136.589 92.0181 135.768 92.0181 134.744V134.553C92.0181 133.868 92.1493 133.256 92.4116 132.719C92.6782 132.177 93.0506 131.756 93.5288 131.456C94.007 131.155 94.5402 131.005 95.1284 131.005C96.0636 131.005 96.7852 131.303 97.293 131.9C97.805 132.497 98.061 133.341 98.061 134.433V135.055H93.5732C93.6198 135.622 93.8081 136.07 94.1382 136.4C94.4725 136.73 94.8914 136.896 95.395 136.896C96.1017 136.896 96.6772 136.61 97.1216 136.039L97.9531 136.832C97.6781 137.243 97.3099 137.562 96.8486 137.791C96.3916 138.015 95.8774 138.127 95.3062 138.127ZM95.1221 132.243C94.6989 132.243 94.3561 132.391 94.0938 132.687C93.8356 132.983 93.6706 133.396 93.5986 133.925H96.5376V133.811C96.5037 133.294 96.3662 132.905 96.125 132.643C95.8838 132.376 95.5495 132.243 95.1221 132.243ZM98.9751 134.502C98.9751 133.83 99.1084 133.224 99.375 132.687C99.6416 132.145 100.016 131.731 100.499 131.443C100.981 131.151 101.535 131.005 102.162 131.005C103.088 131.005 103.84 131.303 104.415 131.9C104.995 132.497 105.308 133.288 105.354 134.274L105.361 134.636C105.361 135.313 105.23 135.918 104.967 136.451C104.709 136.984 104.337 137.397 103.85 137.689C103.368 137.981 102.809 138.127 102.174 138.127C101.205 138.127 100.429 137.805 99.8447 137.162C99.265 136.515 98.9751 135.653 98.9751 134.579V134.502ZM100.518 134.636C100.518 135.342 100.664 135.897 100.956 136.299C101.248 136.697 101.654 136.896 102.174 136.896C102.695 136.896 103.099 136.692 103.387 136.286C103.679 135.88 103.825 135.285 103.825 134.502C103.825 133.808 103.674 133.258 103.374 132.852C103.078 132.446 102.674 132.243 102.162 132.243C101.658 132.243 101.258 132.444 100.962 132.846C100.666 133.243 100.518 133.84 100.518 134.636ZM112.68 134.636C112.68 135.698 112.438 136.546 111.956 137.181C111.474 137.812 110.826 138.127 110.014 138.127C109.26 138.127 108.657 137.879 108.205 137.384V140.641H106.662V131.132H108.084L108.147 131.83C108.6 131.28 109.216 131.005 109.995 131.005C110.833 131.005 111.488 131.318 111.962 131.944C112.441 132.566 112.68 133.432 112.68 134.541V134.636ZM111.144 134.502C111.144 133.817 111.006 133.273 110.731 132.871C110.46 132.469 110.071 132.268 109.563 132.268C108.932 132.268 108.48 132.528 108.205 133.049V136.096C108.484 136.629 108.941 136.896 109.576 136.896C110.067 136.896 110.45 136.699 110.725 136.305C111.004 135.907 111.144 135.306 111.144 134.502ZM115.631 138H114.089V128.25H115.631V138ZM120.341 138.127C119.364 138.127 118.57 137.82 117.961 137.207C117.356 136.589 117.053 135.768 117.053 134.744V134.553C117.053 133.868 117.184 133.256 117.447 132.719C117.713 132.177 118.086 131.756 118.564 131.456C119.042 131.155 119.575 131.005 120.164 131.005C121.099 131.005 121.82 131.303 122.328 131.9C122.84 132.497 123.096 133.341 123.096 134.433V135.055H118.608C118.655 135.622 118.843 136.07 119.173 136.4C119.508 136.73 119.927 136.896 120.43 136.896C121.137 136.896 121.712 136.61 122.157 136.039L122.988 136.832C122.713 137.243 122.345 137.562 121.884 137.791C121.427 138.015 120.913 138.127 120.341 138.127ZM120.157 132.243C119.734 132.243 119.391 132.391 119.129 132.687C118.871 132.983 118.706 133.396 118.634 133.925H121.573V133.811C121.539 133.294 121.401 132.905 121.16 132.643C120.919 132.376 120.585 132.243 120.157 132.243ZM129.469 129.462V131.132H130.682V132.274H129.469V136.108C129.469 136.371 129.52 136.561 129.622 136.68C129.727 136.794 129.914 136.851 130.18 136.851C130.358 136.851 130.538 136.83 130.72 136.788V137.981C130.368 138.078 130.03 138.127 129.704 138.127C128.519 138.127 127.927 137.473 127.927 136.166V132.274H126.797V131.132H127.927V129.462H129.469ZM131.386 134.502C131.386 133.83 131.52 133.224 131.786 132.687C132.053 132.145 132.427 131.731 132.91 131.443C133.392 131.151 133.946 131.005 134.573 131.005C135.5 131.005 136.251 131.303 136.826 131.9C137.406 132.497 137.719 133.288 137.766 134.274L137.772 134.636C137.772 135.313 137.641 135.918 137.378 136.451C137.12 136.984 136.748 137.397 136.261 137.689C135.779 137.981 135.22 138.127 134.585 138.127C133.616 138.127 132.84 137.805 132.256 137.162C131.676 136.515 131.386 135.653 131.386 134.579V134.502ZM132.929 134.636C132.929 135.342 133.075 135.897 133.367 136.299C133.659 136.697 134.065 136.896 134.585 136.896C135.106 136.896 135.51 136.692 135.798 136.286C136.09 135.88 136.236 135.285 136.236 134.502C136.236 133.808 136.086 133.258 135.785 132.852C135.489 132.446 135.085 132.243 134.573 132.243C134.069 132.243 133.669 132.444 133.373 132.846C133.077 133.243 132.929 133.84 132.929 134.636ZM145.91 132.541C145.707 132.507 145.497 132.49 145.281 132.49C144.575 132.49 144.098 132.761 143.853 133.303V138H142.311V131.132H143.783L143.821 131.9C144.194 131.303 144.71 131.005 145.37 131.005C145.59 131.005 145.772 131.035 145.916 131.094L145.91 132.541ZM149.782 138.127C148.804 138.127 148.011 137.82 147.401 137.207C146.796 136.589 146.494 135.768 146.494 134.744V134.553C146.494 133.868 146.625 133.256 146.887 132.719C147.154 132.177 147.526 131.756 148.004 131.456C148.483 131.155 149.016 131.005 149.604 131.005C150.539 131.005 151.261 131.303 151.769 131.9C152.281 132.497 152.537 133.341 152.537 134.433V135.055H148.049C148.095 135.622 148.284 136.07 148.614 136.4C148.948 136.73 149.367 136.896 149.871 136.896C150.577 136.896 151.153 136.61 151.597 136.039L152.429 136.832C152.154 137.243 151.785 137.562 151.324 137.791C150.867 138.015 150.353 138.127 149.782 138.127ZM149.598 132.243C149.174 132.243 148.832 132.391 148.569 132.687C148.311 132.983 148.146 133.396 148.074 133.925H151.013V133.811C150.979 133.294 150.842 132.905 150.601 132.643C150.359 132.376 150.025 132.243 149.598 132.243ZM157.843 138C157.776 137.869 157.716 137.655 157.666 137.359C157.175 137.871 156.574 138.127 155.863 138.127C155.173 138.127 154.61 137.93 154.174 137.537C153.738 137.143 153.521 136.656 153.521 136.077C153.521 135.345 153.791 134.784 154.333 134.395C154.879 134.001 155.658 133.804 156.669 133.804H157.615V133.354C157.615 132.998 157.515 132.715 157.316 132.503C157.118 132.287 156.815 132.179 156.409 132.179C156.057 132.179 155.77 132.268 155.545 132.446C155.321 132.619 155.209 132.841 155.209 133.112H153.667C153.667 132.736 153.791 132.384 154.041 132.059C154.291 131.729 154.629 131.47 155.057 131.284C155.488 131.098 155.969 131.005 156.498 131.005C157.302 131.005 157.943 131.208 158.421 131.614C158.899 132.016 159.145 132.583 159.157 133.315V136.413C159.157 137.031 159.244 137.524 159.417 137.892V138H157.843ZM156.148 136.889C156.453 136.889 156.739 136.815 157.005 136.667C157.276 136.519 157.479 136.32 157.615 136.07V134.775H156.783C156.212 134.775 155.782 134.875 155.495 135.074C155.207 135.273 155.063 135.554 155.063 135.918C155.063 136.214 155.16 136.451 155.355 136.629C155.554 136.802 155.818 136.889 156.148 136.889ZM160.484 134.515C160.484 133.457 160.729 132.609 161.22 131.97C161.711 131.326 162.369 131.005 163.194 131.005C163.922 131.005 164.51 131.259 164.959 131.767V128.25H166.501V138H165.105L165.029 137.289C164.568 137.848 163.952 138.127 163.182 138.127C162.378 138.127 161.726 137.803 161.227 137.156C160.731 136.508 160.484 135.628 160.484 134.515ZM162.026 134.648C162.026 135.347 162.16 135.893 162.426 136.286C162.697 136.675 163.08 136.87 163.575 136.87C164.206 136.87 164.667 136.589 164.959 136.026V133.093C164.675 132.543 164.218 132.268 163.588 132.268C163.089 132.268 162.703 132.467 162.433 132.865C162.162 133.258 162.026 133.853 162.026 134.648ZM175.452 138C175.384 137.869 175.325 137.655 175.274 137.359C174.783 137.871 174.182 138.127 173.471 138.127C172.781 138.127 172.219 137.93 171.783 137.537C171.347 137.143 171.129 136.656 171.129 136.077C171.129 135.345 171.4 134.784 171.941 134.395C172.487 134.001 173.266 133.804 174.277 133.804H175.223V133.354C175.223 132.998 175.124 132.715 174.925 132.503C174.726 132.287 174.423 132.179 174.017 132.179C173.666 132.179 173.378 132.268 173.154 132.446C172.93 132.619 172.817 132.841 172.817 133.112H171.275C171.275 132.736 171.4 132.384 171.649 132.059C171.899 131.729 172.238 131.47 172.665 131.284C173.097 131.098 173.577 131.005 174.106 131.005C174.91 131.005 175.551 131.208 176.029 131.614C176.507 132.016 176.753 132.583 176.766 133.315V136.413C176.766 137.031 176.852 137.524 177.026 137.892V138H175.452ZM173.757 136.889C174.062 136.889 174.347 136.815 174.614 136.667C174.885 136.519 175.088 136.32 175.223 136.07V134.775H174.392C173.82 134.775 173.391 134.875 173.103 135.074C172.815 135.273 172.671 135.554 172.671 135.918C172.671 136.214 172.769 136.451 172.963 136.629C173.162 136.802 173.427 136.889 173.757 136.889ZM179.812 131.132L179.857 131.925C180.365 131.312 181.031 131.005 181.856 131.005C183.287 131.005 184.015 131.824 184.04 133.461V138H182.498V133.55C182.498 133.114 182.402 132.793 182.212 132.585C182.026 132.374 181.719 132.268 181.292 132.268C180.669 132.268 180.206 132.549 179.901 133.112V138H178.359V131.132H179.812ZM185.329 134.515C185.329 133.457 185.574 132.609 186.065 131.97C186.556 131.326 187.214 131.005 188.039 131.005C188.767 131.005 189.355 131.259 189.804 131.767V128.25H191.346V138H189.95L189.874 137.289C189.412 137.848 188.797 138.127 188.026 138.127C187.222 138.127 186.571 137.803 186.071 137.156C185.576 136.508 185.329 135.628 185.329 134.515ZM186.871 134.648C186.871 135.347 187.004 135.893 187.271 136.286C187.542 136.675 187.925 136.87 188.42 136.87C189.05 136.87 189.512 136.589 189.804 136.026V133.093C189.52 132.543 189.063 132.268 188.433 132.268C187.933 132.268 187.548 132.467 187.277 132.865C187.007 133.258 186.871 133.853 186.871 134.648ZM197.833 138H196.291V131.132H197.833V138ZM196.196 129.348C196.196 129.111 196.27 128.914 196.418 128.758C196.57 128.601 196.786 128.523 197.065 128.523C197.345 128.523 197.561 128.601 197.713 128.758C197.865 128.914 197.941 129.111 197.941 129.348C197.941 129.581 197.865 129.776 197.713 129.932C197.561 130.084 197.345 130.161 197.065 130.161C196.786 130.161 196.57 130.084 196.418 129.932C196.27 129.776 196.196 129.581 196.196 129.348ZM199.23 134.515C199.23 133.457 199.475 132.609 199.966 131.97C200.457 131.326 201.115 131.005 201.94 131.005C202.668 131.005 203.257 131.259 203.705 131.767V128.25H205.248V138H203.851L203.775 137.289C203.314 137.848 202.698 138.127 201.928 138.127C201.124 138.127 200.472 137.803 199.973 137.156C199.478 136.508 199.23 135.628 199.23 134.515ZM200.772 134.648C200.772 135.347 200.906 135.893 201.172 136.286C201.443 136.675 201.826 136.87 202.321 136.87C202.952 136.87 203.413 136.589 203.705 136.026V133.093C203.422 132.543 202.965 132.268 202.334 132.268C201.835 132.268 201.45 132.467 201.179 132.865C200.908 133.258 200.772 133.853 200.772 134.648ZM209.881 138.127C208.904 138.127 208.11 137.82 207.501 137.207C206.896 136.589 206.593 135.768 206.593 134.744V134.553C206.593 133.868 206.724 133.256 206.987 132.719C207.253 132.177 207.626 131.756 208.104 131.456C208.582 131.155 209.115 131.005 209.704 131.005C210.639 131.005 211.36 131.303 211.868 131.9C212.38 132.497 212.636 133.341 212.636 134.433V135.055H208.148C208.195 135.622 208.383 136.07 208.713 136.4C209.048 136.73 209.467 136.896 209.97 136.896C210.677 136.896 211.252 136.61 211.697 136.039L212.528 136.832C212.253 137.243 211.885 137.562 211.424 137.791C210.967 138.015 210.453 138.127 209.881 138.127ZM209.697 132.243C209.274 132.243 208.931 132.391 208.669 132.687C208.411 132.983 208.246 133.396 208.174 133.925H211.113V133.811C211.079 133.294 210.941 132.905 210.7 132.643C210.459 132.376 210.125 132.243 209.697 132.243ZM215.271 131.132L215.315 131.925C215.823 131.312 216.489 131.005 217.314 131.005C218.745 131.005 219.473 131.824 219.498 133.461V138H217.956V133.55C217.956 133.114 217.86 132.793 217.67 132.585C217.484 132.374 217.177 132.268 216.75 132.268C216.127 132.268 215.664 132.549 215.359 133.112V138H213.817V131.132H215.271ZM223.008 129.462V131.132H224.221V132.274H223.008V136.108C223.008 136.371 223.059 136.561 223.161 136.68C223.266 136.794 223.453 136.851 223.719 136.851C223.897 136.851 224.077 136.83 224.259 136.788V137.981C223.908 138.078 223.569 138.127 223.243 138.127C222.058 138.127 221.466 137.473 221.466 136.166V132.274H220.336V131.132H221.466V129.462H223.008ZM227.045 138H225.503V131.132H227.045V138ZM225.408 129.348C225.408 129.111 225.482 128.914 225.63 128.758C225.782 128.601 225.998 128.523 226.277 128.523C226.557 128.523 226.772 128.601 226.925 128.758C227.077 128.914 227.153 129.111 227.153 129.348C227.153 129.581 227.077 129.776 226.925 129.932C226.772 130.084 226.557 130.161 226.277 130.161C225.998 130.161 225.782 130.084 225.63 129.932C225.482 129.776 225.408 129.581 225.408 129.348ZM229.273 138V132.274H228.226V131.132H229.273V130.503C229.273 129.742 229.485 129.153 229.908 128.739C230.331 128.324 230.924 128.117 231.686 128.117C231.956 128.117 232.244 128.155 232.549 128.231L232.511 129.437C232.341 129.403 232.145 129.386 231.92 129.386C231.184 129.386 230.816 129.765 230.816 130.522V131.132H232.212V132.274H230.816V138H229.273ZM235.742 135.791L237.138 131.132H238.782L236.053 139.041C235.634 140.196 234.923 140.774 233.92 140.774C233.696 140.774 233.448 140.736 233.177 140.66V139.466L233.469 139.485C233.859 139.485 234.151 139.413 234.345 139.27C234.544 139.13 234.701 138.893 234.815 138.559L235.037 137.968L232.625 131.132H234.288L235.742 135.791ZM248.926 134.636C248.926 135.698 248.685 136.546 248.202 137.181C247.72 137.812 247.072 138.127 246.26 138.127C245.507 138.127 244.903 137.879 244.451 137.384V140.641H242.908V131.132H244.33L244.394 131.83C244.846 131.28 245.462 131.005 246.241 131.005C247.079 131.005 247.735 131.318 248.208 131.944C248.687 132.566 248.926 133.432 248.926 134.541V134.636ZM247.39 134.502C247.39 133.817 247.252 133.273 246.977 132.871C246.706 132.469 246.317 132.268 245.809 132.268C245.179 132.268 244.726 132.528 244.451 133.049V136.096C244.73 136.629 245.187 136.896 245.822 136.896C246.313 136.896 246.696 136.699 246.971 136.305C247.25 135.907 247.39 135.306 247.39 134.502ZM254.34 138C254.273 137.869 254.213 137.655 254.163 137.359C253.672 137.871 253.071 138.127 252.36 138.127C251.67 138.127 251.107 137.93 250.671 137.537C250.236 137.143 250.018 136.656 250.018 136.077C250.018 135.345 250.288 134.784 250.83 134.395C251.376 134.001 252.155 133.804 253.166 133.804H254.112V133.354C254.112 132.998 254.012 132.715 253.813 132.503C253.615 132.287 253.312 132.179 252.906 132.179C252.555 132.179 252.267 132.268 252.042 132.446C251.818 132.619 251.706 132.841 251.706 133.112H250.164C250.164 132.736 250.288 132.384 250.538 132.059C250.788 131.729 251.126 131.47 251.554 131.284C251.985 131.098 252.466 131.005 252.995 131.005C253.799 131.005 254.44 131.208 254.918 131.614C255.396 132.016 255.642 132.583 255.654 133.315V136.413C255.654 137.031 255.741 137.524 255.915 137.892V138H254.34ZM252.646 136.889C252.95 136.889 253.236 136.815 253.502 136.667C253.773 136.519 253.976 136.32 254.112 136.07V134.775H253.28C252.709 134.775 252.279 134.875 251.992 135.074C251.704 135.273 251.56 135.554 251.56 135.918C251.56 136.214 251.657 136.451 251.852 136.629C252.051 136.802 252.315 136.889 252.646 136.889ZM260.866 132.541C260.663 132.507 260.453 132.49 260.237 132.49C259.531 132.49 259.055 132.761 258.809 133.303V138H257.267V131.132H258.739L258.777 131.9C259.15 131.303 259.666 131.005 260.326 131.005C260.546 131.005 260.728 131.035 260.872 131.094L260.866 132.541ZM264.09 129.462V131.132H265.303V132.274H264.09V136.108C264.09 136.371 264.141 136.561 264.243 136.68C264.348 136.794 264.535 136.851 264.801 136.851C264.979 136.851 265.159 136.83 265.341 136.788V137.981C264.99 138.078 264.651 138.127 264.325 138.127C263.14 138.127 262.548 137.473 262.548 136.166V132.274H261.418V131.132H262.548V129.462H264.09ZM270.336 136.134C270.336 135.859 270.222 135.649 269.994 135.505C269.769 135.361 269.395 135.235 268.87 135.125C268.345 135.014 267.907 134.875 267.556 134.706C266.786 134.333 266.401 133.794 266.401 133.087C266.401 132.494 266.651 131.999 267.15 131.602C267.649 131.204 268.284 131.005 269.054 131.005C269.875 131.005 270.537 131.208 271.041 131.614C271.549 132.021 271.803 132.547 271.803 133.195H270.26C270.26 132.899 270.15 132.653 269.93 132.458C269.71 132.26 269.418 132.16 269.054 132.16C268.716 132.16 268.438 132.238 268.223 132.395C268.011 132.552 267.905 132.761 267.905 133.023C267.905 133.26 268.005 133.444 268.204 133.576C268.403 133.707 268.805 133.84 269.41 133.976C270.015 134.107 270.489 134.265 270.832 134.452C271.179 134.634 271.435 134.854 271.6 135.112C271.769 135.37 271.854 135.683 271.854 136.051C271.854 136.669 271.597 137.171 271.085 137.556C270.573 137.937 269.903 138.127 269.073 138.127C268.51 138.127 268.009 138.025 267.569 137.822C267.129 137.619 266.786 137.34 266.541 136.984C266.295 136.629 266.172 136.246 266.172 135.835H267.67C267.692 136.199 267.829 136.481 268.083 136.68C268.337 136.874 268.673 136.972 269.092 136.972C269.499 136.972 269.807 136.896 270.019 136.743C270.231 136.587 270.336 136.383 270.336 136.134Z" fill="black"/>
<rect x="0.5" y="147.5" width="391" height="33" rx="8.5" fill="#FFFF6A" stroke="black"/>
<path d="M16.3413 163.874H12.5454V166.718H16.9824V168H10.9395V158.758H16.938V160.053H12.5454V162.604H16.3413V163.874ZM20.6069 163.392L21.9146 161.132H23.6284L21.5273 164.515L23.6982 168H21.9971L20.626 165.651L19.2612 168H17.5474L19.7183 164.515L17.6235 161.132H19.3247L20.6069 163.392ZM25.6089 166.375C25.8966 166.375 26.1188 166.458 26.2754 166.623C26.432 166.783 26.5103 166.986 26.5103 167.232C26.5103 167.473 26.432 167.674 26.2754 167.835C26.1188 167.992 25.8966 168.07 25.6089 168.07C25.3338 168.07 25.1159 167.992 24.9551 167.835C24.7943 167.678 24.7139 167.477 24.7139 167.232C24.7139 166.986 24.7922 166.783 24.9487 166.623C25.1053 166.458 25.3254 166.375 25.6089 166.375ZM25.6089 160.986C25.8966 160.986 26.1188 161.068 26.2754 161.233C26.432 161.394 26.5103 161.597 26.5103 161.843C26.5103 162.084 26.432 162.285 26.2754 162.446C26.1188 162.602 25.8966 162.681 25.6089 162.681C25.3338 162.681 25.1159 162.602 24.9551 162.446C24.7943 162.289 24.7139 162.088 24.7139 161.843C24.7139 161.597 24.7922 161.394 24.9487 161.233C25.1053 161.068 25.3254 160.986 25.6089 160.986ZM38.5708 164.991C38.4777 165.977 38.1138 166.747 37.479 167.302C36.8442 167.852 36 168.127 34.9463 168.127C34.21 168.127 33.5604 167.953 32.9976 167.606C32.439 167.255 32.0073 166.758 31.7026 166.115C31.3979 165.472 31.2393 164.725 31.2266 163.874V163.011C31.2266 162.139 31.381 161.371 31.6899 160.707C31.9989 160.042 32.4411 159.53 33.0166 159.17C33.5964 158.811 34.265 158.631 35.0225 158.631C36.0423 158.631 36.8633 158.908 37.4854 159.462C38.1074 160.017 38.4692 160.8 38.5708 161.811H36.9712C36.895 161.147 36.7004 160.668 36.3872 160.376C36.0783 160.08 35.6234 159.932 35.0225 159.932C34.3242 159.932 33.7868 160.188 33.4102 160.7C33.0378 161.208 32.8473 161.955 32.8389 162.941V163.76C32.8389 164.758 33.0166 165.52 33.3721 166.045C33.7318 166.57 34.2565 166.832 34.9463 166.832C35.5768 166.832 36.0508 166.69 36.3682 166.407C36.6855 166.123 36.8866 165.651 36.9712 164.991H38.5708ZM41.5034 168H39.9609V158.25H41.5034V168ZM47.2925 168C47.2248 167.869 47.1655 167.655 47.1147 167.359C46.6239 167.871 46.0229 168.127 45.312 168.127C44.6222 168.127 44.0594 167.93 43.6235 167.537C43.1877 167.143 42.9697 166.656 42.9697 166.077C42.9697 165.345 43.2406 164.784 43.7822 164.395C44.3281 164.001 45.1068 163.804 46.1182 163.804H47.064V163.354C47.064 162.998 46.9645 162.715 46.7656 162.503C46.5667 162.287 46.2642 162.179 45.8579 162.179C45.5067 162.179 45.2189 162.268 44.9946 162.446C44.7703 162.619 44.6582 162.841 44.6582 163.112H43.1157C43.1157 162.736 43.2406 162.384 43.4902 162.059C43.7399 161.729 44.0785 161.47 44.5059 161.284C44.9375 161.098 45.4178 161.005 45.9468 161.005C46.7508 161.005 47.3919 161.208 47.8701 161.614C48.3483 162.016 48.5938 162.583 48.6064 163.315V166.413C48.6064 167.031 48.6932 167.524 48.8667 167.892V168H47.2925ZM45.5977 166.889C45.9023 166.889 46.188 166.815 46.4546 166.667C46.7254 166.519 46.9285 166.32 47.064 166.07V164.775H46.2324C45.6611 164.775 45.2316 164.875 44.9438 165.074C44.6561 165.273 44.5122 165.554 44.5122 165.918C44.5122 166.214 44.6095 166.451 44.8042 166.629C45.0031 166.802 45.2676 166.889 45.5977 166.889ZM54.0718 166.134C54.0718 165.859 53.9575 165.649 53.729 165.505C53.5047 165.361 53.1302 165.235 52.6055 165.125C52.0807 165.014 51.6427 164.875 51.2915 164.706C50.5213 164.333 50.1362 163.794 50.1362 163.087C50.1362 162.494 50.3859 161.999 50.8853 161.602C51.3846 161.204 52.0194 161.005 52.7896 161.005C53.6105 161.005 54.2728 161.208 54.7764 161.614C55.2842 162.021 55.5381 162.547 55.5381 163.195H53.9956C53.9956 162.899 53.8856 162.653 53.6655 162.458C53.4455 162.26 53.1535 162.16 52.7896 162.16C52.451 162.16 52.1738 162.238 51.958 162.395C51.7464 162.552 51.6406 162.761 51.6406 163.023C51.6406 163.26 51.7401 163.444 51.939 163.576C52.1379 163.707 52.5399 163.84 53.145 163.976C53.7502 164.107 54.2241 164.265 54.5669 164.452C54.9139 164.634 55.1699 164.854 55.335 165.112C55.5042 165.37 55.5889 165.683 55.5889 166.051C55.5889 166.669 55.3328 167.171 54.8208 167.556C54.3088 167.937 53.638 168.127 52.8086 168.127C52.2458 168.127 51.7443 168.025 51.3042 167.822C50.8641 167.619 50.5213 167.34 50.2759 166.984C50.0304 166.629 49.9077 166.246 49.9077 165.835H51.4058C51.4269 166.199 51.5645 166.481 51.8184 166.68C52.0723 166.874 52.4087 166.972 52.8276 166.972C53.2339 166.972 53.5428 166.896 53.7544 166.743C53.966 166.587 54.0718 166.383 54.0718 166.134ZM60.7876 166.134C60.7876 165.859 60.6733 165.649 60.4448 165.505C60.2205 165.361 59.846 165.235 59.3213 165.125C58.7965 165.014 58.3586 164.875 58.0073 164.706C57.2371 164.333 56.8521 163.794 56.8521 163.087C56.8521 162.494 57.1017 161.999 57.6011 161.602C58.1004 161.204 58.7352 161.005 59.5054 161.005C60.3263 161.005 60.9886 161.208 61.4922 161.614C62 162.021 62.2539 162.547 62.2539 163.195H60.7114C60.7114 162.899 60.6014 162.653 60.3813 162.458C60.1613 162.26 59.8693 162.16 59.5054 162.16C59.1668 162.16 58.8896 162.238 58.6738 162.395C58.4622 162.552 58.3564 162.761 58.3564 163.023C58.3564 163.26 58.4559 163.444 58.6548 163.576C58.8537 163.707 59.2557 163.84 59.8608 163.976C60.466 164.107 60.9399 164.265 61.2827 164.452C61.6297 164.634 61.8857 164.854 62.0508 165.112C62.2201 165.37 62.3047 165.683 62.3047 166.051C62.3047 166.669 62.0487 167.171 61.5366 167.556C61.0246 167.937 60.3538 168.127 59.5244 168.127C58.9616 168.127 58.4601 168.025 58.02 167.822C57.5799 167.619 57.2371 167.34 56.9917 166.984C56.7463 166.629 56.6235 166.246 56.6235 165.835H58.1216C58.1427 166.199 58.2803 166.481 58.5342 166.68C58.7881 166.874 59.1245 166.972 59.5435 166.972C59.9497 166.972 60.2586 166.896 60.4702 166.743C60.6818 166.587 60.7876 166.383 60.7876 166.134ZM66.6465 165.505C66.6465 165.078 66.7629 164.687 66.9956 164.331C67.2284 163.971 67.6875 163.546 68.373 163.055C68.0133 162.602 67.7616 162.217 67.6177 161.9C67.478 161.583 67.4082 161.276 67.4082 160.979C67.4082 160.256 67.6283 159.685 68.0684 159.266C68.5085 158.842 69.1009 158.631 69.8457 158.631C70.5186 158.631 71.0687 158.83 71.4961 159.228C71.9277 159.621 72.1436 160.11 72.1436 160.694C72.1436 161.079 72.0462 161.434 71.8516 161.76C71.6569 162.082 71.3374 162.403 70.8931 162.725L70.2646 163.182L72.0483 165.29C72.3065 164.782 72.4355 164.217 72.4355 163.595H73.7749C73.7749 164.733 73.5083 165.666 72.9751 166.394L74.3335 168H72.5435L72.0229 167.384C71.3628 167.879 70.5757 168.127 69.6616 168.127C68.7476 168.127 68.0155 167.886 67.4653 167.403C66.9194 166.917 66.6465 166.284 66.6465 165.505ZM69.7061 166.896C70.2266 166.896 70.7132 166.722 71.166 166.375L69.1475 163.995L68.9507 164.134C68.4429 164.519 68.189 164.959 68.189 165.455C68.189 165.882 68.3265 166.229 68.6016 166.496C68.8766 166.762 69.2448 166.896 69.7061 166.896ZM68.8555 160.941C68.8555 161.297 69.0734 161.743 69.5093 162.281L70.2139 161.798L70.4106 161.64C70.673 161.407 70.8042 161.109 70.8042 160.745C70.8042 160.503 70.7132 160.298 70.5312 160.129C70.3493 159.955 70.1187 159.869 69.8394 159.869C69.5389 159.869 69.2998 159.97 69.1221 160.173C68.9443 160.376 68.8555 160.632 68.8555 160.941ZM84.8896 160.053H82.0078V168H80.4146V160.053H77.5581V158.758H84.8896V160.053ZM87.8413 165.791L89.2378 161.132H90.8818L88.1523 169.041C87.7334 170.196 87.0225 170.774 86.0195 170.774C85.7952 170.774 85.5477 170.736 85.2769 170.66V169.466L85.5688 169.485C85.9582 169.485 86.2502 169.413 86.4448 169.27C86.6437 169.13 86.8003 168.893 86.9146 168.559L87.1367 167.968L84.7246 161.132H86.3877L87.8413 165.791ZM97.7881 164.636C97.7881 165.698 97.5469 166.546 97.0645 167.181C96.582 167.812 95.9346 168.127 95.1221 168.127C94.3688 168.127 93.7658 167.879 93.313 167.384V170.641H91.7705V161.132H93.1924L93.2559 161.83C93.7087 161.28 94.3244 161.005 95.103 161.005C95.9409 161.005 96.5968 161.318 97.0708 161.944C97.549 162.566 97.7881 163.432 97.7881 164.541V164.636ZM96.252 164.502C96.252 163.817 96.1144 163.273 95.8394 162.871C95.5685 162.469 95.1792 162.268 94.6714 162.268C94.0409 162.268 93.5881 162.528 93.313 163.049V166.096C93.5923 166.629 94.0493 166.896 94.6841 166.896C95.175 166.896 95.5579 166.699 95.833 166.305C96.1123 165.907 96.252 165.306 96.252 164.502ZM102.124 168.127C101.146 168.127 100.353 167.82 99.7432 167.207C99.138 166.589 98.8354 165.768 98.8354 164.744V164.553C98.8354 163.868 98.9666 163.256 99.229 162.719C99.4956 162.177 99.868 161.756 100.346 161.456C100.824 161.155 101.358 161.005 101.946 161.005C102.881 161.005 103.603 161.303 104.11 161.9C104.622 162.497 104.878 163.341 104.878 164.433V165.055H100.391C100.437 165.622 100.625 166.07 100.956 166.4C101.29 166.73 101.709 166.896 102.212 166.896C102.919 166.896 103.495 166.61 103.939 166.039L104.771 166.832C104.495 167.243 104.127 167.562 103.666 167.791C103.209 168.015 102.695 168.127 102.124 168.127ZM101.939 162.243C101.516 162.243 101.174 162.391 100.911 162.687C100.653 162.983 100.488 163.396 100.416 163.925H103.355V163.811C103.321 163.294 103.184 162.905 102.942 162.643C102.701 162.376 102.367 162.243 101.939 162.243ZM109.03 164.502C109.03 163.83 109.163 163.224 109.43 162.687C109.696 162.145 110.071 161.731 110.553 161.443C111.036 161.151 111.59 161.005 112.216 161.005C113.143 161.005 113.894 161.303 114.47 161.9C115.049 162.497 115.363 163.288 115.409 164.274L115.416 164.636C115.416 165.313 115.284 165.918 115.022 166.451C114.764 166.984 114.391 167.397 113.905 167.689C113.422 167.981 112.864 168.127 112.229 168.127C111.26 168.127 110.483 167.805 109.899 167.162C109.32 166.515 109.03 165.653 109.03 164.579V164.502ZM110.572 164.636C110.572 165.342 110.718 165.897 111.01 166.299C111.302 166.697 111.708 166.896 112.229 166.896C112.75 166.896 113.154 166.692 113.441 166.286C113.733 165.88 113.879 165.285 113.879 164.502C113.879 163.808 113.729 163.258 113.429 162.852C113.132 162.446 112.728 162.243 112.216 162.243C111.713 162.243 111.313 162.444 111.017 162.846C110.72 163.243 110.572 163.84 110.572 164.636ZM117.263 168V162.274H116.215V161.132H117.263V160.503C117.263 159.742 117.474 159.153 117.897 158.739C118.321 158.324 118.913 158.117 119.675 158.117C119.946 158.117 120.233 158.155 120.538 158.231L120.5 159.437C120.331 159.403 120.134 159.386 119.91 159.386C119.173 159.386 118.805 159.765 118.805 160.522V161.132H120.202V162.274H118.805V168H117.263ZM126.499 159.462V161.132H127.711V162.274H126.499V166.108C126.499 166.371 126.549 166.561 126.651 166.68C126.757 166.794 126.943 166.851 127.209 166.851C127.387 166.851 127.567 166.83 127.749 166.788V167.981C127.398 168.078 127.059 168.127 126.733 168.127C125.549 168.127 124.956 167.473 124.956 166.166V162.274H123.826V161.132H124.956V159.462H126.499ZM130.415 161.881C130.919 161.297 131.556 161.005 132.326 161.005C133.79 161.005 134.533 161.841 134.554 163.512V168H133.011V163.569C133.011 163.095 132.908 162.761 132.7 162.566C132.497 162.368 132.197 162.268 131.799 162.268C131.181 162.268 130.72 162.543 130.415 163.093V168H128.873V158.25H130.415V161.881ZM139.143 168.127C138.166 168.127 137.372 167.82 136.763 167.207C136.158 166.589 135.855 165.768 135.855 164.744V164.553C135.855 163.868 135.986 163.256 136.249 162.719C136.515 162.177 136.888 161.756 137.366 161.456C137.844 161.155 138.377 161.005 138.965 161.005C139.901 161.005 140.622 161.303 141.13 161.9C141.642 162.497 141.898 163.341 141.898 164.433V165.055H137.41C137.457 165.622 137.645 166.07 137.975 166.4C138.309 166.73 138.728 166.896 139.232 166.896C139.939 166.896 140.514 166.61 140.958 166.039L141.79 166.832C141.515 167.243 141.147 167.562 140.686 167.791C140.229 168.015 139.714 168.127 139.143 168.127ZM138.959 162.243C138.536 162.243 138.193 162.391 137.931 162.687C137.673 162.983 137.507 163.396 137.436 163.925H140.375V163.811C140.341 163.294 140.203 162.905 139.962 162.643C139.721 162.376 139.386 162.243 138.959 162.243ZM147.979 168H146.437V161.132H147.979V168ZM146.341 159.348C146.341 159.111 146.415 158.914 146.563 158.758C146.716 158.601 146.932 158.523 147.211 158.523C147.49 158.523 147.706 158.601 147.858 158.758C148.011 158.914 148.087 159.111 148.087 159.348C148.087 159.581 148.011 159.776 147.858 159.932C147.706 160.084 147.49 160.161 147.211 160.161C146.932 160.161 146.716 160.084 146.563 159.932C146.415 159.776 146.341 159.581 146.341 159.348ZM151.597 159.462V161.132H152.81V162.274H151.597V166.108C151.597 166.371 151.648 166.561 151.75 166.68C151.855 166.794 152.042 166.851 152.308 166.851C152.486 166.851 152.666 166.83 152.848 166.788V167.981C152.496 168.078 152.158 168.127 151.832 168.127C150.647 168.127 150.055 167.473 150.055 166.166V162.274H148.925V161.132H150.055V159.462H151.597ZM157.018 168.127C156.041 168.127 155.247 167.82 154.638 167.207C154.033 166.589 153.73 165.768 153.73 164.744V164.553C153.73 163.868 153.861 163.256 154.124 162.719C154.39 162.177 154.763 161.756 155.241 161.456C155.719 161.155 156.252 161.005 156.84 161.005C157.776 161.005 158.497 161.303 159.005 161.9C159.517 162.497 159.773 163.341 159.773 164.433V165.055H155.285C155.332 165.622 155.52 166.07 155.85 166.4C156.184 166.73 156.603 166.896 157.107 166.896C157.814 166.896 158.389 166.61 158.833 166.039L159.665 166.832C159.39 167.243 159.022 167.562 158.561 167.791C158.104 168.015 157.589 168.127 157.018 168.127ZM156.834 162.243C156.411 162.243 156.068 162.391 155.806 162.687C155.548 162.983 155.382 163.396 155.311 163.925H158.25V163.811C158.216 163.294 158.078 162.905 157.837 162.643C157.596 162.376 157.261 162.243 156.834 162.243ZM162.426 161.132L162.471 161.849C162.953 161.286 163.613 161.005 164.451 161.005C165.369 161.005 165.998 161.356 166.336 162.059C166.836 161.356 167.538 161.005 168.444 161.005C169.201 161.005 169.764 161.214 170.132 161.633C170.505 162.052 170.695 162.67 170.704 163.487V168H169.161V163.531C169.161 163.095 169.066 162.776 168.875 162.573C168.685 162.37 168.37 162.268 167.93 162.268C167.578 162.268 167.291 162.363 167.066 162.554C166.846 162.74 166.692 162.985 166.603 163.29L166.609 168H165.067V163.48C165.046 162.672 164.633 162.268 163.829 162.268C163.211 162.268 162.773 162.52 162.515 163.023V168H160.973V161.132H162.426ZM172.506 170.082L171.675 169.587C171.92 169.202 172.087 168.865 172.176 168.578C172.269 168.294 172.318 168.004 172.322 167.708V166.508H173.712L173.706 167.619C173.702 168.068 173.588 168.516 173.363 168.965C173.143 169.418 172.858 169.79 172.506 170.082ZM181.787 165.988L184.135 158.758H185.9L182.574 168H181.019L177.705 158.758H179.463L181.787 165.988ZM190.61 168C190.542 167.869 190.483 167.655 190.432 167.359C189.941 167.871 189.34 168.127 188.629 168.127C187.94 168.127 187.377 167.93 186.941 167.537C186.505 167.143 186.287 166.656 186.287 166.077C186.287 165.345 186.558 164.784 187.1 164.395C187.646 164.001 188.424 163.804 189.436 163.804H190.381V163.354C190.381 162.998 190.282 162.715 190.083 162.503C189.884 162.287 189.582 162.179 189.175 162.179C188.824 162.179 188.536 162.268 188.312 162.446C188.088 162.619 187.976 162.841 187.976 163.112H186.433C186.433 162.736 186.558 162.384 186.808 162.059C187.057 161.729 187.396 161.47 187.823 161.284C188.255 161.098 188.735 161.005 189.264 161.005C190.068 161.005 190.709 161.208 191.188 161.614C191.666 162.016 191.911 162.583 191.924 163.315V166.413C191.924 167.031 192.011 167.524 192.184 167.892V168H190.61ZM188.915 166.889C189.22 166.889 189.505 166.815 189.772 166.667C190.043 166.519 190.246 166.32 190.381 166.07V164.775H189.55C188.979 164.775 188.549 164.875 188.261 165.074C187.973 165.273 187.83 165.554 187.83 165.918C187.83 166.214 187.927 166.451 188.122 166.629C188.32 166.802 188.585 166.889 188.915 166.889ZM195.18 168H193.638V158.25H195.18V168ZM201.026 167.327C200.574 167.86 199.93 168.127 199.097 168.127C198.352 168.127 197.787 167.909 197.402 167.473C197.021 167.037 196.831 166.407 196.831 165.582V161.132H198.373V165.562C198.373 166.434 198.735 166.87 199.458 166.87C200.208 166.87 200.713 166.601 200.976 166.064V161.132H202.518V168H201.064L201.026 167.327ZM207.114 168.127C206.136 168.127 205.343 167.82 204.733 167.207C204.128 166.589 203.826 165.768 203.826 164.744V164.553C203.826 163.868 203.957 163.256 204.219 162.719C204.486 162.177 204.858 161.756 205.336 161.456C205.815 161.155 206.348 161.005 206.936 161.005C207.871 161.005 208.593 161.303 209.101 161.9C209.613 162.497 209.869 163.341 209.869 164.433V165.055H205.381C205.427 165.622 205.616 166.07 205.946 166.4C206.28 166.73 206.699 166.896 207.203 166.896C207.909 166.896 208.485 166.61 208.929 166.039L209.761 166.832C209.486 167.243 209.118 167.562 208.656 167.791C208.199 168.015 207.685 168.127 207.114 168.127ZM206.93 162.243C206.507 162.243 206.164 162.391 205.901 162.687C205.643 162.983 205.478 163.396 205.406 163.925H208.345V163.811C208.311 163.294 208.174 162.905 207.933 162.643C207.691 162.376 207.357 162.243 206.93 162.243ZM214.02 164.502C214.02 163.83 214.153 163.224 214.42 162.687C214.687 162.145 215.061 161.731 215.543 161.443C216.026 161.151 216.58 161.005 217.207 161.005C218.133 161.005 218.884 161.303 219.46 161.9C220.04 162.497 220.353 163.288 220.399 164.274L220.406 164.636C220.406 165.313 220.275 165.918 220.012 166.451C219.754 166.984 219.382 167.397 218.895 167.689C218.413 167.981 217.854 168.127 217.219 168.127C216.25 168.127 215.474 167.805 214.89 167.162C214.31 166.515 214.02 165.653 214.02 164.579V164.502ZM215.562 164.636C215.562 165.342 215.708 165.897 216 166.299C216.292 166.697 216.699 166.896 217.219 166.896C217.74 166.896 218.144 166.692 218.432 166.286C218.724 165.88 218.87 165.285 218.87 164.502C218.87 163.808 218.719 163.258 218.419 162.852C218.123 162.446 217.719 162.243 217.207 162.243C216.703 162.243 216.303 162.444 216.007 162.846C215.711 163.243 215.562 163.84 215.562 164.636ZM225.306 162.541C225.103 162.507 224.894 162.49 224.678 162.49C223.971 162.49 223.495 162.761 223.25 163.303V168H221.707V161.132H223.18L223.218 161.9C223.59 161.303 224.106 161.005 224.767 161.005C224.987 161.005 225.169 161.035 225.312 161.094L225.306 162.541ZM236.916 165.715L238.338 158.758H239.931L237.798 168H236.262L234.504 161.252L232.708 168H231.165L229.032 158.758H230.625L232.06 165.702L233.825 158.758H235.17L236.916 165.715ZM242.477 161.881C242.98 161.297 243.617 161.005 244.387 161.005C245.851 161.005 246.594 161.841 246.615 163.512V168H245.073V163.569C245.073 163.095 244.969 162.761 244.762 162.566C244.559 162.368 244.258 162.268 243.86 162.268C243.243 162.268 242.781 162.543 242.477 163.093V168H240.934V158.25H242.477V161.881ZM252.284 168C252.216 167.869 252.157 167.655 252.106 167.359C251.615 167.871 251.014 168.127 250.303 168.127C249.613 168.127 249.051 167.93 248.615 167.537C248.179 167.143 247.961 166.656 247.961 166.077C247.961 165.345 248.232 164.784 248.773 164.395C249.319 164.001 250.098 163.804 251.109 163.804H252.055V163.354C252.055 162.998 251.956 162.715 251.757 162.503C251.558 162.287 251.255 162.179 250.849 162.179C250.498 162.179 250.21 162.268 249.986 162.446C249.762 162.619 249.649 162.841 249.649 163.112H248.107C248.107 162.736 248.232 162.384 248.481 162.059C248.731 161.729 249.07 161.47 249.497 161.284C249.929 161.098 250.409 161.005 250.938 161.005C251.742 161.005 252.383 161.208 252.861 161.614C253.34 162.016 253.585 162.583 253.598 163.315V166.413C253.598 167.031 253.684 167.524 253.858 167.892V168H252.284ZM250.589 166.889C250.894 166.889 251.179 166.815 251.446 166.667C251.717 166.519 251.92 166.32 252.055 166.07V164.775H251.224C250.652 164.775 250.223 164.875 249.935 165.074C249.647 165.273 249.503 165.554 249.503 165.918C249.503 166.214 249.601 166.451 249.795 166.629C249.994 166.802 250.259 166.889 250.589 166.889ZM257.146 159.462V161.132H258.358V162.274H257.146V166.108C257.146 166.371 257.197 166.561 257.298 166.68C257.404 166.794 257.59 166.851 257.857 166.851C258.035 166.851 258.215 166.83 258.396 166.788V167.981C258.045 168.078 257.707 168.127 257.381 168.127C256.196 168.127 255.604 167.473 255.604 166.166V162.274H254.474V161.132H255.604V159.462H257.146ZM264.42 168H262.878V161.132H264.42V168ZM262.783 159.348C262.783 159.111 262.857 158.914 263.005 158.758C263.157 158.601 263.373 158.523 263.652 158.523C263.932 158.523 264.147 158.601 264.3 158.758C264.452 158.914 264.528 159.111 264.528 159.348C264.528 159.581 264.452 159.776 264.3 159.932C264.147 160.084 263.932 160.161 263.652 160.161C263.373 160.161 263.157 160.084 263.005 159.932C262.857 159.776 262.783 159.581 262.783 159.348ZM268.039 159.462V161.132H269.251V162.274H268.039V166.108C268.039 166.371 268.089 166.561 268.191 166.68C268.297 166.794 268.483 166.851 268.75 166.851C268.927 166.851 269.107 166.83 269.289 166.788V167.981C268.938 168.078 268.599 168.127 268.273 168.127C267.089 168.127 266.496 167.473 266.496 166.166V162.274H265.366V161.132H266.496V159.462H268.039ZM275.313 168H273.771V161.132H275.313V168ZM273.675 159.348C273.675 159.111 273.749 158.914 273.897 158.758C274.05 158.601 274.266 158.523 274.545 158.523C274.824 158.523 275.04 158.601 275.192 158.758C275.345 158.914 275.421 159.111 275.421 159.348C275.421 159.581 275.345 159.776 275.192 159.932C275.04 160.084 274.824 160.161 274.545 160.161C274.266 160.161 274.05 160.084 273.897 159.932C273.749 159.776 273.675 159.581 273.675 159.348ZM280.848 166.134C280.848 165.859 280.734 165.649 280.505 165.505C280.281 165.361 279.907 165.235 279.382 165.125C278.857 165.014 278.419 164.875 278.068 164.706C277.298 164.333 276.913 163.794 276.913 163.087C276.913 162.494 277.162 161.999 277.662 161.602C278.161 161.204 278.796 161.005 279.566 161.005C280.387 161.005 281.049 161.208 281.553 161.614C282.061 162.021 282.314 162.547 282.314 163.195H280.772C280.772 162.899 280.662 162.653 280.442 162.458C280.222 162.26 279.93 162.16 279.566 162.16C279.227 162.16 278.95 162.238 278.734 162.395C278.523 162.552 278.417 162.761 278.417 163.023C278.417 163.26 278.516 163.444 278.715 163.576C278.914 163.707 279.316 163.84 279.921 163.976C280.527 164.107 281 164.265 281.343 164.452C281.69 164.634 281.946 164.854 282.111 165.112C282.281 165.37 282.365 165.683 282.365 166.051C282.365 166.669 282.109 167.171 281.597 167.556C281.085 167.937 280.414 168.127 279.585 168.127C279.022 168.127 278.521 168.025 278.081 167.822C277.64 167.619 277.298 167.34 277.052 166.984C276.807 166.629 276.684 166.246 276.684 165.835H278.182C278.203 166.199 278.341 166.481 278.595 166.68C278.849 166.874 279.185 166.972 279.604 166.972C280.01 166.972 280.319 166.896 280.531 166.743C280.742 166.587 280.848 166.383 280.848 166.134ZM283.933 170.082L283.102 169.587C283.347 169.202 283.514 168.865 283.603 168.578C283.696 168.294 283.745 168.004 283.749 167.708V166.508H285.139L285.133 167.619C285.129 168.068 285.014 168.516 284.79 168.965C284.57 169.418 284.284 169.79 283.933 170.082ZM291.563 164.566V168H289.957V158.758H293.493C294.525 158.758 295.344 159.027 295.949 159.564C296.559 160.101 296.863 160.812 296.863 161.697C296.863 162.602 296.565 163.307 295.968 163.811C295.376 164.314 294.544 164.566 293.474 164.566H291.563ZM291.563 163.277H293.493C294.064 163.277 294.5 163.144 294.8 162.877C295.101 162.607 295.251 162.217 295.251 161.709C295.251 161.21 295.099 160.812 294.794 160.516C294.489 160.216 294.07 160.061 293.537 160.053H291.563V163.277ZM302.151 168C302.083 167.869 302.024 167.655 301.973 167.359C301.482 167.871 300.881 168.127 300.17 168.127C299.481 168.127 298.918 167.93 298.482 167.537C298.046 167.143 297.828 166.656 297.828 166.077C297.828 165.345 298.099 164.784 298.641 164.395C299.187 164.001 299.965 163.804 300.977 163.804H301.922V163.354C301.922 162.998 301.823 162.715 301.624 162.503C301.425 162.287 301.123 162.179 300.716 162.179C300.365 162.179 300.077 162.268 299.853 162.446C299.629 162.619 299.517 162.841 299.517 163.112H297.974C297.974 162.736 298.099 162.384 298.349 162.059C298.598 161.729 298.937 161.47 299.364 161.284C299.796 161.098 300.276 161.005 300.805 161.005C301.609 161.005 302.25 161.208 302.729 161.614C303.207 162.016 303.452 162.583 303.465 163.315V166.413C303.465 167.031 303.552 167.524 303.725 167.892V168H302.151ZM300.456 166.889C300.761 166.889 301.046 166.815 301.313 166.667C301.584 166.519 301.787 166.32 301.922 166.07V164.775H301.091C300.52 164.775 300.09 164.875 299.802 165.074C299.514 165.273 299.371 165.554 299.371 165.918C299.371 166.214 299.468 166.451 299.663 166.629C299.861 166.802 300.126 166.889 300.456 166.889ZM307.902 166.896C308.287 166.896 308.606 166.783 308.86 166.559C309.114 166.335 309.25 166.058 309.267 165.728H310.72C310.703 166.155 310.57 166.555 310.32 166.927C310.071 167.295 309.732 167.587 309.305 167.803C308.877 168.019 308.416 168.127 307.921 168.127C306.96 168.127 306.199 167.816 305.636 167.194C305.073 166.572 304.792 165.713 304.792 164.617V164.458C304.792 163.413 305.071 162.577 305.629 161.951C306.188 161.32 306.95 161.005 307.915 161.005C308.731 161.005 309.396 161.244 309.908 161.722C310.424 162.196 310.695 162.82 310.72 163.595H309.267C309.25 163.201 309.114 162.877 308.86 162.624C308.611 162.37 308.291 162.243 307.902 162.243C307.403 162.243 307.017 162.425 306.747 162.789C306.476 163.148 306.338 163.696 306.334 164.433V164.68C306.334 165.425 306.467 165.981 306.734 166.35C307.005 166.714 307.394 166.896 307.902 166.896ZM314.116 165.055L313.431 165.759V168H311.888V158.25H313.431V163.874L313.913 163.271L315.811 161.132H317.665L315.113 163.995L317.938 168H316.154L314.116 165.055ZM322.781 168C322.713 167.869 322.654 167.655 322.603 167.359C322.112 167.871 321.511 168.127 320.8 168.127C320.111 168.127 319.548 167.93 319.112 167.537C318.676 167.143 318.458 166.656 318.458 166.077C318.458 165.345 318.729 164.784 319.271 164.395C319.816 164.001 320.595 163.804 321.606 163.804H322.552V163.354C322.552 162.998 322.453 162.715 322.254 162.503C322.055 162.287 321.752 162.179 321.346 162.179C320.995 162.179 320.707 162.268 320.483 162.446C320.259 162.619 320.146 162.841 320.146 163.112H318.604C318.604 162.736 318.729 162.384 318.979 162.059C319.228 161.729 319.567 161.47 319.994 161.284C320.426 161.098 320.906 161.005 321.435 161.005C322.239 161.005 322.88 161.208 323.358 161.614C323.837 162.016 324.082 162.583 324.095 163.315V166.413C324.095 167.031 324.181 167.524 324.355 167.892V168H322.781ZM321.086 166.889C321.391 166.889 321.676 166.815 321.943 166.667C322.214 166.519 322.417 166.32 322.552 166.07V164.775H321.721C321.149 164.775 320.72 164.875 320.432 165.074C320.144 165.273 320 165.554 320 165.918C320 166.214 320.098 166.451 320.292 166.629C320.491 166.802 320.756 166.889 321.086 166.889ZM325.44 164.515C325.44 163.449 325.69 162.598 326.189 161.963C326.693 161.324 327.36 161.005 328.189 161.005C328.972 161.005 329.588 161.278 330.036 161.824L330.106 161.132H331.496V167.791C331.496 168.692 331.215 169.403 330.652 169.923C330.093 170.444 329.338 170.704 328.386 170.704C327.882 170.704 327.389 170.598 326.907 170.387C326.429 170.179 326.065 169.906 325.815 169.568L326.545 168.641C327.019 169.204 327.603 169.485 328.297 169.485C328.809 169.485 329.213 169.346 329.509 169.066C329.806 168.791 329.954 168.385 329.954 167.848V167.384C329.509 167.879 328.917 168.127 328.176 168.127C327.372 168.127 326.714 167.807 326.202 167.168C325.694 166.529 325.44 165.645 325.44 164.515ZM326.977 164.648C326.977 165.338 327.116 165.882 327.396 166.28C327.679 166.673 328.07 166.87 328.57 166.87C329.192 166.87 329.653 166.604 329.954 166.07V163.049C329.662 162.528 329.205 162.268 328.583 162.268C328.075 162.268 327.679 162.469 327.396 162.871C327.116 163.273 326.977 163.866 326.977 164.648ZM334.727 168H333.185V161.132H334.727V168ZM333.089 159.348C333.089 159.111 333.163 158.914 333.312 158.758C333.464 158.601 333.68 158.523 333.959 158.523C334.238 158.523 334.454 158.601 334.606 158.758C334.759 158.914 334.835 159.111 334.835 159.348C334.835 159.581 334.759 159.776 334.606 159.932C334.454 160.084 334.238 160.161 333.959 160.161C333.68 160.161 333.464 160.084 333.312 159.932C333.163 159.776 333.089 159.581 333.089 159.348ZM337.844 161.132L337.888 161.925C338.396 161.312 339.062 161.005 339.888 161.005C341.318 161.005 342.046 161.824 342.071 163.461V168H340.529V163.55C340.529 163.114 340.434 162.793 340.243 162.585C340.057 162.374 339.75 162.268 339.323 162.268C338.701 162.268 338.237 162.549 337.933 163.112V168H336.39V161.132H337.844ZM343.379 164.515C343.379 163.449 343.629 162.598 344.128 161.963C344.632 161.324 345.298 161.005 346.127 161.005C346.91 161.005 347.526 161.278 347.975 161.824L348.044 161.132H349.435V167.791C349.435 168.692 349.153 169.403 348.59 169.923C348.032 170.444 347.276 170.704 346.324 170.704C345.821 170.704 345.328 170.598 344.845 170.387C344.367 170.179 344.003 169.906 343.753 169.568L344.483 168.641C344.957 169.204 345.541 169.485 346.235 169.485C346.747 169.485 347.152 169.346 347.448 169.066C347.744 168.791 347.892 168.385 347.892 167.848V167.384C347.448 167.879 346.855 168.127 346.115 168.127C345.311 168.127 344.653 167.807 344.141 167.168C343.633 166.529 343.379 165.645 343.379 164.515ZM344.915 164.648C344.915 165.338 345.055 165.882 345.334 166.28C345.618 166.673 346.009 166.87 346.508 166.87C347.13 166.87 347.592 166.604 347.892 166.07V163.049C347.6 162.528 347.143 162.268 346.521 162.268C346.013 162.268 345.618 162.469 345.334 162.871C345.055 163.273 344.915 163.866 344.915 164.648ZM351.244 170.082L350.412 169.587C350.658 169.202 350.825 168.865 350.914 168.578C351.007 168.294 351.055 168.004 351.06 167.708V166.508H352.45L352.443 167.619C352.439 168.068 352.325 168.516 352.101 168.965C351.881 169.418 351.595 169.79 351.244 170.082ZM360.143 168.127C359.166 168.127 358.372 167.82 357.763 167.207C357.158 166.589 356.855 165.768 356.855 164.744V164.553C356.855 163.868 356.986 163.256 357.249 162.719C357.515 162.177 357.888 161.756 358.366 161.456C358.844 161.155 359.377 161.005 359.965 161.005C360.901 161.005 361.622 161.303 362.13 161.9C362.642 162.497 362.898 163.341 362.898 164.433V165.055H358.41C358.457 165.622 358.645 166.07 358.975 166.4C359.309 166.73 359.728 166.896 360.232 166.896C360.939 166.896 361.514 166.61 361.958 166.039L362.79 166.832C362.515 167.243 362.147 167.562 361.686 167.791C361.229 168.015 360.714 168.127 360.143 168.127ZM359.959 162.243C359.536 162.243 359.193 162.391 358.931 162.687C358.673 162.983 358.507 163.396 358.436 163.925H361.375V163.811C361.341 163.294 361.203 162.905 360.962 162.643C360.721 162.376 360.386 162.243 359.959 162.243ZM366.034 159.462V161.132H367.246V162.274H366.034V166.108C366.034 166.371 366.084 166.561 366.186 166.68C366.292 166.794 366.478 166.851 366.745 166.851C366.922 166.851 367.102 166.83 367.284 166.788V167.981C366.933 168.078 366.594 168.127 366.269 168.127C365.084 168.127 364.491 167.473 364.491 166.166V162.274H363.361V161.132H364.491V159.462H366.034ZM371.251 166.896C371.637 166.896 371.956 166.783 372.21 166.559C372.464 166.335 372.599 166.058 372.616 165.728H374.07C374.053 166.155 373.92 166.555 373.67 166.927C373.42 167.295 373.082 167.587 372.654 167.803C372.227 168.019 371.766 168.127 371.271 168.127C370.31 168.127 369.548 167.816 368.985 167.194C368.423 166.572 368.141 165.713 368.141 164.617V164.458C368.141 163.413 368.42 162.577 368.979 161.951C369.538 161.32 370.299 161.005 371.264 161.005C372.081 161.005 372.745 161.244 373.257 161.722C373.774 162.196 374.044 162.82 374.07 163.595H372.616C372.599 163.201 372.464 162.877 372.21 162.624C371.96 162.37 371.641 162.243 371.251 162.243C370.752 162.243 370.367 162.425 370.096 162.789C369.825 163.148 369.688 163.696 369.684 164.433V164.68C369.684 165.425 369.817 165.981 370.083 166.35C370.354 166.714 370.744 166.896 371.251 166.896ZM376.196 166.375C376.484 166.375 376.706 166.458 376.863 166.623C377.019 166.783 377.098 166.986 377.098 167.232C377.098 167.473 377.019 167.674 376.863 167.835C376.706 167.992 376.484 168.07 376.196 168.07C375.921 168.07 375.703 167.992 375.542 167.835C375.382 167.678 375.301 167.477 375.301 167.232C375.301 166.986 375.38 166.783 375.536 166.623C375.693 166.458 375.913 166.375 376.196 166.375Z" fill="black"/>
<path d="M13.3594 114.992V119H11.0156V107.625H15.4531C16.3073 107.625 17.0573 107.781 17.7031 108.094C18.3542 108.406 18.8542 108.852 19.2031 109.43C19.5521 110.003 19.7266 110.656 19.7266 111.391C19.7266 112.505 19.3438 113.385 18.5781 114.031C17.8177 114.672 16.763 114.992 15.4141 114.992H13.3594ZM13.3594 113.094H15.4531C16.0729 113.094 16.5443 112.948 16.8672 112.656C17.1953 112.365 17.3594 111.948 17.3594 111.406C17.3594 110.849 17.1953 110.398 16.8672 110.055C16.5391 109.711 16.0859 109.534 15.5078 109.523H13.3594V113.094ZM26 119C25.8958 118.797 25.8203 118.544 25.7734 118.242C25.2266 118.852 24.5156 119.156 23.6406 119.156C22.8125 119.156 22.125 118.917 21.5781 118.438C21.0365 117.958 20.7656 117.354 20.7656 116.625C20.7656 115.729 21.0964 115.042 21.7578 114.562C22.4245 114.083 23.3854 113.841 24.6406 113.836H25.6797V113.352C25.6797 112.961 25.5781 112.648 25.375 112.414C25.1771 112.18 24.862 112.062 24.4297 112.062C24.0495 112.062 23.75 112.154 23.5312 112.336C23.3177 112.518 23.2109 112.768 23.2109 113.086H20.9531C20.9531 112.596 21.1042 112.143 21.4062 111.727C21.7083 111.31 22.1354 110.984 22.6875 110.75C23.2396 110.51 23.8594 110.391 24.5469 110.391C25.5885 110.391 26.4141 110.654 27.0234 111.18C27.638 111.701 27.9453 112.435 27.9453 113.383V117.047C27.9505 117.849 28.0625 118.456 28.2812 118.867V119H26ZM24.1328 117.43C24.4661 117.43 24.7734 117.357 25.0547 117.211C25.3359 117.06 25.5443 116.859 25.6797 116.609V115.156H24.8359C23.7057 115.156 23.1042 115.547 23.0312 116.328L23.0234 116.461C23.0234 116.742 23.1224 116.974 23.3203 117.156C23.5182 117.339 23.7891 117.43 24.1328 117.43ZM34.4297 112.664C34.1224 112.622 33.8516 112.602 33.6172 112.602C32.763 112.602 32.2031 112.891 31.9375 113.469V119H29.6797V110.547H31.8125L31.875 111.555C32.3281 110.779 32.9557 110.391 33.7578 110.391C34.0078 110.391 34.2422 110.424 34.4609 110.492L34.4297 112.664ZM38.6172 108.469V110.547H40.0625V112.203H38.6172V116.422C38.6172 116.734 38.6771 116.958 38.7969 117.094C38.9167 117.229 39.1458 117.297 39.4844 117.297C39.7344 117.297 39.9557 117.279 40.1484 117.242V118.953C39.7057 119.089 39.25 119.156 38.7812 119.156C37.1979 119.156 36.3906 118.357 36.3594 116.758V112.203H35.125V110.547H36.3594V108.469H38.6172ZM45.4531 119V107.625H48.9531C49.9531 107.625 50.8464 107.852 51.6328 108.305C52.4245 108.753 53.0417 109.393 53.4844 110.227C53.9271 111.055 54.1484 111.997 54.1484 113.055V113.578C54.1484 114.635 53.9297 115.576 53.4922 116.398C53.0599 117.221 52.4479 117.859 51.6562 118.312C50.8646 118.766 49.9714 118.995 48.9766 119H45.4531ZM47.7969 109.523V117.117H48.9297C49.8464 117.117 50.5469 116.818 51.0312 116.219C51.5156 115.62 51.763 114.763 51.7734 113.648V113.047C51.7734 111.891 51.5339 111.016 51.0547 110.422C50.5755 109.823 49.875 109.523 48.9531 109.523H47.7969ZM59.6016 119.156C58.362 119.156 57.3516 118.776 56.5703 118.016C55.7943 117.255 55.4062 116.242 55.4062 114.977V114.758C55.4062 113.909 55.5703 113.151 55.8984 112.484C56.2266 111.812 56.6901 111.297 57.2891 110.938C57.8932 110.573 58.5807 110.391 59.3516 110.391C60.5078 110.391 61.4167 110.755 62.0781 111.484C62.7448 112.214 63.0781 113.247 63.0781 114.586V115.508H57.6953C57.7682 116.06 57.987 116.503 58.3516 116.836C58.7214 117.169 59.1875 117.336 59.75 117.336C60.6198 117.336 61.2995 117.021 61.7891 116.391L62.8984 117.633C62.5599 118.112 62.1016 118.487 61.5234 118.758C60.9453 119.023 60.3047 119.156 59.6016 119.156ZM59.3438 112.219C58.8958 112.219 58.5312 112.37 58.25 112.672C57.974 112.974 57.7969 113.406 57.7188 113.969H60.8594V113.789C60.849 113.289 60.7135 112.904 60.4531 112.633C60.1927 112.357 59.8229 112.219 59.3438 112.219ZM68.9453 116.664C68.9453 116.388 68.8073 116.172 68.5312 116.016C68.2604 115.854 67.8229 115.711 67.2188 115.586C65.2083 115.164 64.2031 114.31 64.2031 113.023C64.2031 112.273 64.513 111.648 65.1328 111.148C65.7578 110.643 66.5729 110.391 67.5781 110.391C68.651 110.391 69.5078 110.643 70.1484 111.148C70.7943 111.654 71.1172 112.31 71.1172 113.117H68.8594C68.8594 112.794 68.7552 112.529 68.5469 112.32C68.3385 112.107 68.013 112 67.5703 112C67.1901 112 66.8958 112.086 66.6875 112.258C66.4792 112.43 66.375 112.648 66.375 112.914C66.375 113.164 66.4922 113.367 66.7266 113.523C66.9661 113.674 67.3672 113.807 67.9297 113.922C68.4922 114.031 68.9661 114.156 69.3516 114.297C70.5443 114.734 71.1406 115.492 71.1406 116.57C71.1406 117.341 70.8099 117.966 70.1484 118.445C69.487 118.919 68.6328 119.156 67.5859 119.156C66.8776 119.156 66.2474 119.031 65.6953 118.781C65.1484 118.526 64.7188 118.18 64.4062 117.742C64.0938 117.299 63.9375 116.823 63.9375 116.312H66.0781C66.099 116.714 66.2474 117.021 66.5234 117.234C66.7995 117.448 67.1693 117.555 67.6328 117.555C68.0651 117.555 68.3906 117.474 68.6094 117.312C68.8333 117.146 68.9453 116.93 68.9453 116.664ZM76.1172 117.336C76.5339 117.336 76.8724 117.221 77.1328 116.992C77.3932 116.763 77.5286 116.458 77.5391 116.078H79.6562C79.651 116.651 79.4948 117.177 79.1875 117.656C78.8802 118.13 78.4583 118.5 77.9219 118.766C77.3906 119.026 76.8021 119.156 76.1562 119.156C74.9479 119.156 73.9948 118.773 73.2969 118.008C72.599 117.237 72.25 116.174 72.25 114.82V114.672C72.25 113.37 72.5964 112.331 73.2891 111.555C73.9818 110.779 74.9323 110.391 76.1406 110.391C77.1979 110.391 78.0443 110.693 78.6797 111.297C79.3203 111.896 79.6458 112.695 79.6562 113.695H77.5391C77.5286 113.258 77.3932 112.904 77.1328 112.633C76.8724 112.357 76.5286 112.219 76.1016 112.219C75.5755 112.219 75.1771 112.411 74.9062 112.797C74.6406 113.177 74.5078 113.797 74.5078 114.656V114.891C74.5078 115.76 74.6406 116.385 74.9062 116.766C75.1719 117.146 75.5755 117.336 76.1172 117.336ZM85.6953 112.664C85.388 112.622 85.1172 112.602 84.8828 112.602C84.0286 112.602 83.4688 112.891 83.2031 113.469V119H80.9453V110.547H83.0781L83.1406 111.555C83.5938 110.779 84.2214 110.391 85.0234 110.391C85.2734 110.391 85.5078 110.424 85.7266 110.492L85.6953 112.664ZM89.1719 119H86.9062V110.547H89.1719V119ZM86.7734 108.359C86.7734 108.021 86.8854 107.742 87.1094 107.523C87.3385 107.305 87.6484 107.195 88.0391 107.195C88.4245 107.195 88.7318 107.305 88.9609 107.523C89.1901 107.742 89.3047 108.021 89.3047 108.359C89.3047 108.703 89.1875 108.984 88.9531 109.203C88.724 109.422 88.4193 109.531 88.0391 109.531C87.6589 109.531 87.3516 109.422 87.1172 109.203C86.888 108.984 86.7734 108.703 86.7734 108.359ZM98.6484 114.852C98.6484 116.154 98.3516 117.198 97.7578 117.984C97.1693 118.766 96.3724 119.156 95.3672 119.156C94.513 119.156 93.8229 118.859 93.2969 118.266V122.25H91.0391V110.547H93.1328L93.2109 111.375C93.7578 110.719 94.4714 110.391 95.3516 110.391C96.3932 110.391 97.2031 110.776 97.7812 111.547C98.3594 112.318 98.6484 113.38 98.6484 114.734V114.852ZM96.3906 114.688C96.3906 113.901 96.25 113.294 95.9688 112.867C95.6927 112.44 95.2891 112.227 94.7578 112.227C94.0495 112.227 93.5625 112.497 93.2969 113.039V116.5C93.5729 117.057 94.0651 117.336 94.7734 117.336C95.8516 117.336 96.3906 116.453 96.3906 114.688ZM102.758 108.469V110.547H104.203V112.203H102.758V116.422C102.758 116.734 102.818 116.958 102.938 117.094C103.057 117.229 103.286 117.297 103.625 117.297C103.875 117.297 104.096 117.279 104.289 117.242V118.953C103.846 119.089 103.391 119.156 102.922 119.156C101.339 119.156 100.531 118.357 100.5 116.758V112.203H99.2656V110.547H100.5V108.469H102.758ZM107.844 119H105.578V110.547H107.844V119ZM105.445 108.359C105.445 108.021 105.557 107.742 105.781 107.523C106.01 107.305 106.32 107.195 106.711 107.195C107.096 107.195 107.404 107.305 107.633 107.523C107.862 107.742 107.977 108.021 107.977 108.359C107.977 108.703 107.859 108.984 107.625 109.203C107.396 109.422 107.091 109.531 106.711 109.531C106.331 109.531 106.023 109.422 105.789 109.203C105.56 108.984 105.445 108.703 105.445 108.359ZM109.359 114.695C109.359 113.857 109.521 113.109 109.844 112.453C110.167 111.797 110.63 111.289 111.234 110.93C111.844 110.57 112.549 110.391 113.352 110.391C114.492 110.391 115.422 110.74 116.141 111.438C116.865 112.135 117.268 113.083 117.352 114.281L117.367 114.859C117.367 116.156 117.005 117.198 116.281 117.984C115.557 118.766 114.586 119.156 113.367 119.156C112.148 119.156 111.174 118.766 110.445 117.984C109.721 117.203 109.359 116.141 109.359 114.797V114.695ZM111.617 114.859C111.617 115.661 111.768 116.276 112.07 116.703C112.372 117.125 112.805 117.336 113.367 117.336C113.914 117.336 114.341 117.128 114.648 116.711C114.956 116.289 115.109 115.617 115.109 114.695C115.109 113.909 114.956 113.299 114.648 112.867C114.341 112.435 113.909 112.219 113.352 112.219C112.799 112.219 112.372 112.435 112.07 112.867C111.768 113.294 111.617 113.958 111.617 114.859ZM120.836 110.547L120.906 111.523C121.51 110.768 122.32 110.391 123.336 110.391C124.232 110.391 124.898 110.654 125.336 111.18C125.773 111.706 125.997 112.492 126.008 113.539V119H123.75V113.594C123.75 113.115 123.646 112.768 123.438 112.555C123.229 112.336 122.883 112.227 122.398 112.227C121.763 112.227 121.286 112.497 120.969 113.039V119H118.711V110.547H120.836Z" fill="black"/>
<path d="M16.2651 31.0835H12.5454V35H10.9395V25.7578H16.811V27.0527H12.5454V29.8013H16.2651V31.0835ZM17.5093 31.5024C17.5093 30.8296 17.6426 30.2244 17.9092 29.687C18.1758 29.1453 18.5503 28.7306 19.0327 28.4429C19.5151 28.1509 20.0695 28.0049 20.6958 28.0049C21.6226 28.0049 22.3737 28.3032 22.9492 28.8999C23.529 29.4966 23.8421 30.2879 23.8887 31.2739L23.895 31.6357C23.895 32.3128 23.7638 32.918 23.5015 33.4512C23.2433 33.9844 22.8709 34.397 22.3843 34.689C21.9019 34.981 21.3433 35.127 20.7085 35.127C19.7394 35.127 18.9629 34.8053 18.3789 34.1621C17.7992 33.5146 17.5093 32.6535 17.5093 31.5786V31.5024ZM19.0518 31.6357C19.0518 32.3424 19.1978 32.8968 19.4897 33.2988C19.7817 33.6966 20.188 33.8955 20.7085 33.8955C21.229 33.8955 21.6331 33.6924 21.9209 33.2861C22.2129 32.8799 22.3589 32.2853 22.3589 31.5024C22.3589 30.8084 22.2087 30.2583 21.9082 29.8521C21.612 29.4458 21.2078 29.2427 20.6958 29.2427C20.1922 29.2427 19.7923 29.4437 19.4961 29.8457C19.1999 30.2435 19.0518 30.8402 19.0518 31.6357ZM28.7954 29.541C28.5923 29.5072 28.3828 29.4902 28.167 29.4902C27.4603 29.4902 26.9842 29.7611 26.7388 30.3027V35H25.1963V28.1318H26.6689L26.707 28.8999C27.0794 28.3032 27.5957 28.0049 28.2559 28.0049C28.4759 28.0049 28.6579 28.0345 28.8018 28.0938L28.7954 29.541ZM31.2202 28.1318L31.2646 28.8491C31.7471 28.2863 32.4072 28.0049 33.2451 28.0049C34.1634 28.0049 34.7918 28.3561 35.1304 29.0586C35.6297 28.3561 36.3322 28.0049 37.2378 28.0049C37.9953 28.0049 38.5581 28.2144 38.9263 28.6333C39.2987 29.0522 39.4891 29.6701 39.4976 30.4868V35H37.9551V30.5312C37.9551 30.0954 37.8599 29.7759 37.6694 29.5728C37.479 29.3696 37.1637 29.2681 36.7236 29.2681C36.3724 29.2681 36.0846 29.3633 35.8604 29.5537C35.6403 29.7399 35.4858 29.9854 35.397 30.29L35.4033 35H33.8608V30.4805C33.8397 29.6722 33.4271 29.2681 32.623 29.2681C32.0052 29.2681 31.5672 29.5199 31.3091 30.0234V35H29.7666V28.1318H31.2202ZM45.1851 35C45.1174 34.8688 45.0581 34.6551 45.0073 34.3589C44.5164 34.8709 43.9155 35.127 43.2046 35.127C42.5148 35.127 41.952 34.9302 41.5161 34.5366C41.0802 34.1431 40.8623 33.6564 40.8623 33.0767C40.8623 32.3446 41.1331 31.7839 41.6748 31.3945C42.2207 31.001 42.9993 30.8042 44.0107 30.8042H44.9565V30.3535C44.9565 29.998 44.8571 29.7145 44.6582 29.5029C44.4593 29.2871 44.1567 29.1792 43.7505 29.1792C43.3993 29.1792 43.1115 29.2681 42.8872 29.4458C42.6629 29.6193 42.5508 29.8415 42.5508 30.1123H41.0083C41.0083 29.7357 41.1331 29.3844 41.3828 29.0586C41.6325 28.7285 41.971 28.4704 42.3984 28.2842C42.8301 28.098 43.3104 28.0049 43.8394 28.0049C44.6434 28.0049 45.2845 28.208 45.7627 28.6143C46.2409 29.0163 46.4863 29.5833 46.499 30.3154V33.4131C46.499 34.0309 46.5858 34.5239 46.7593 34.8921V35H45.1851ZM43.4902 33.8892C43.7949 33.8892 44.0806 33.8151 44.3472 33.667C44.618 33.5189 44.8211 33.32 44.9565 33.0703V31.7754H44.125C43.5537 31.7754 43.1242 31.8748 42.8364 32.0737C42.5487 32.2726 42.4048 32.554 42.4048 32.918C42.4048 33.2142 42.5021 33.4512 42.6968 33.6289C42.8957 33.8024 43.1602 33.8892 43.4902 33.8892ZM50.0474 26.4624V28.1318H51.2598V29.2744H50.0474V33.1084C50.0474 33.3708 50.0981 33.5612 50.1997 33.6797C50.3055 33.7939 50.4917 33.8511 50.7583 33.8511C50.936 33.8511 51.1159 33.8299 51.2979 33.7876V34.981C50.9466 35.0783 50.6081 35.127 50.2822 35.127C49.0973 35.127 48.5049 34.4731 48.5049 33.1655V29.2744H47.375V28.1318H48.5049V26.4624H50.0474ZM54.3765 26.4624V28.1318H55.5889V29.2744H54.3765V33.1084C54.3765 33.3708 54.4272 33.5612 54.5288 33.6797C54.6346 33.7939 54.8208 33.8511 55.0874 33.8511C55.2651 33.8511 55.445 33.8299 55.627 33.7876V34.981C55.2757 35.0783 54.9372 35.127 54.6113 35.127C53.4264 35.127 52.834 34.4731 52.834 33.1655V29.2744H51.7041V28.1318H52.834V26.4624H54.3765ZM59.7974 35.127C58.8198 35.127 58.0264 34.8201 57.417 34.2065C56.8118 33.5887 56.5093 32.7677 56.5093 31.7437V31.5532C56.5093 30.8677 56.6405 30.2562 56.9028 29.7188C57.1694 29.1771 57.5418 28.756 58.02 28.4556C58.4982 28.1551 59.0314 28.0049 59.6196 28.0049C60.5549 28.0049 61.2764 28.3032 61.7842 28.8999C62.2962 29.4966 62.5522 30.3408 62.5522 31.4326V32.0547H58.0645C58.111 32.6217 58.2993 33.0703 58.6294 33.4004C58.9637 33.7305 59.3826 33.8955 59.8862 33.8955C60.5929 33.8955 61.1685 33.6099 61.6128 33.0386L62.4443 33.832C62.1693 34.2425 61.8011 34.562 61.3398 34.7905C60.8828 35.0148 60.3687 35.127 59.7974 35.127ZM59.6133 29.2427C59.1901 29.2427 58.8473 29.3908 58.585 29.687C58.3268 29.9832 58.1618 30.3958 58.0898 30.9248H61.0288V30.8105C60.995 30.2943 60.8574 29.9049 60.6162 29.6426C60.375 29.376 60.0407 29.2427 59.6133 29.2427ZM63.4663 31.5151C63.4663 30.4572 63.7118 29.6087 64.2026 28.9697C64.6935 28.3265 65.3516 28.0049 66.1768 28.0049C66.9046 28.0049 67.4928 28.2588 67.9414 28.7666V25.25H69.4839V35H68.0874L68.0112 34.2891C67.55 34.8477 66.9342 35.127 66.1641 35.127C65.36 35.127 64.7083 34.8032 64.209 34.1558C63.7139 33.5083 63.4663 32.6281 63.4663 31.5151ZM65.0088 31.6484C65.0088 32.3467 65.1421 32.8926 65.4087 33.2861C65.6795 33.6755 66.0625 33.8701 66.5576 33.8701C67.1882 33.8701 67.6494 33.5887 67.9414 33.0259V30.0933C67.6579 29.5431 67.2008 29.2681 66.5703 29.2681C66.071 29.2681 65.6859 29.467 65.415 29.8647C65.1442 30.2583 65.0088 30.8529 65.0088 31.6484ZM76.2632 26.4624V28.1318H77.4756V29.2744H76.2632V33.1084C76.2632 33.3708 76.314 33.5612 76.4155 33.6797C76.5213 33.7939 76.7075 33.8511 76.9741 33.8511C77.1519 33.8511 77.3317 33.8299 77.5137 33.7876V34.981C77.1624 35.0783 76.8239 35.127 76.498 35.127C75.3132 35.127 74.7207 34.4731 74.7207 33.1655V29.2744H73.5908V28.1318H74.7207V26.4624H76.2632ZM78.1802 31.5024C78.1802 30.8296 78.3135 30.2244 78.5801 29.687C78.8467 29.1453 79.2212 28.7306 79.7036 28.4429C80.186 28.1509 80.7404 28.0049 81.3667 28.0049C82.2935 28.0049 83.0446 28.3032 83.6201 28.8999C84.1999 29.4966 84.513 30.2879 84.5596 31.2739L84.5659 31.6357C84.5659 32.3128 84.4347 32.918 84.1724 33.4512C83.9142 33.9844 83.5418 34.397 83.0552 34.689C82.5728 34.981 82.0142 35.127 81.3794 35.127C80.4103 35.127 79.6338 34.8053 79.0498 34.1621C78.4701 33.5146 78.1802 32.6535 78.1802 31.5786V31.5024ZM79.7227 31.6357C79.7227 32.3424 79.8687 32.8968 80.1606 33.2988C80.4526 33.6966 80.8589 33.8955 81.3794 33.8955C81.8999 33.8955 82.304 33.6924 82.5918 33.2861C82.8838 32.8799 83.0298 32.2853 83.0298 31.5024C83.0298 30.8084 82.8796 30.2583 82.5791 29.8521C82.2829 29.4458 81.8787 29.2427 81.3667 29.2427C80.8631 29.2427 80.4632 29.4437 80.167 29.8457C79.8708 30.2435 79.7227 30.8402 79.7227 31.6357ZM95.1348 31.6357C95.1348 32.7021 94.8957 33.5506 94.4175 34.1812C93.9435 34.8117 93.2897 35.127 92.4561 35.127C91.652 35.127 91.0257 34.8371 90.5771 34.2573L90.501 35H89.1045V25.25H90.647V28.792C91.0913 28.2673 91.6901 28.0049 92.4434 28.0049C93.2812 28.0049 93.9393 28.3159 94.4175 28.938C94.8957 29.5601 95.1348 30.4297 95.1348 31.5469V31.6357ZM93.5923 31.5024C93.5923 30.7576 93.4611 30.1991 93.1987 29.8267C92.9364 29.4543 92.5555 29.2681 92.0562 29.2681C91.3875 29.2681 90.9178 29.5601 90.647 30.144V32.9751C90.922 33.5718 91.396 33.8701 92.0688 33.8701C92.5513 33.8701 92.9237 33.6903 93.186 33.3306C93.4484 32.9709 93.5838 32.4271 93.5923 31.6992V31.5024ZM99.4575 35.127C98.48 35.127 97.6865 34.8201 97.0771 34.2065C96.472 33.5887 96.1694 32.7677 96.1694 31.7437V31.5532C96.1694 30.8677 96.3006 30.2562 96.563 29.7188C96.8296 29.1771 97.202 28.756 97.6802 28.4556C98.1584 28.1551 98.6916 28.0049 99.2798 28.0049C100.215 28.0049 100.937 28.3032 101.444 28.8999C101.956 29.4966 102.212 30.3408 102.212 31.4326V32.0547H97.7246C97.7712 32.6217 97.9595 33.0703 98.2896 33.4004C98.6239 33.7305 99.0428 33.8955 99.5464 33.8955C100.253 33.8955 100.829 33.6099 101.273 33.0386L102.104 33.832C101.829 34.2425 101.461 34.562 101 34.7905C100.543 35.0148 100.029 35.127 99.4575 35.127ZM99.2734 29.2427C98.8503 29.2427 98.5075 29.3908 98.2451 29.687C97.987 29.9832 97.8219 30.3958 97.75 30.9248H100.689V30.8105C100.655 30.2943 100.518 29.9049 100.276 29.6426C100.035 29.376 99.7008 29.2427 99.2734 29.2427ZM108.103 28.1318L108.147 28.8491C108.63 28.2863 109.29 28.0049 110.128 28.0049C111.046 28.0049 111.675 28.3561 112.013 29.0586C112.513 28.3561 113.215 28.0049 114.121 28.0049C114.878 28.0049 115.441 28.2144 115.809 28.6333C116.181 29.0522 116.372 29.6701 116.38 30.4868V35H114.838V30.5312C114.838 30.0954 114.743 29.7759 114.552 29.5728C114.362 29.3696 114.047 29.2681 113.606 29.2681C113.255 29.2681 112.967 29.3633 112.743 29.5537C112.523 29.7399 112.369 29.9854 112.28 30.29L112.286 35H110.744V30.4805C110.722 29.6722 110.31 29.2681 109.506 29.2681C108.888 29.2681 108.45 29.5199 108.192 30.0234V35H106.649V28.1318H108.103ZM122.068 35C122 34.8688 121.941 34.6551 121.89 34.3589C121.399 34.8709 120.798 35.127 120.087 35.127C119.398 35.127 118.835 34.9302 118.399 34.5366C117.963 34.1431 117.745 33.6564 117.745 33.0767C117.745 32.3446 118.016 31.7839 118.558 31.3945C119.104 31.001 119.882 30.8042 120.894 30.8042H121.839V30.3535C121.839 29.998 121.74 29.7145 121.541 29.5029C121.342 29.2871 121.04 29.1792 120.633 29.1792C120.282 29.1792 119.994 29.2681 119.77 29.4458C119.546 29.6193 119.434 29.8415 119.434 30.1123H117.891C117.891 29.7357 118.016 29.3844 118.266 29.0586C118.515 28.7285 118.854 28.4704 119.281 28.2842C119.713 28.098 120.193 28.0049 120.722 28.0049C121.526 28.0049 122.167 28.208 122.646 28.6143C123.124 29.0163 123.369 29.5833 123.382 30.3154V33.4131C123.382 34.0309 123.469 34.5239 123.642 34.8921V35H122.068ZM120.373 33.8892C120.678 33.8892 120.963 33.8151 121.23 33.667C121.501 33.5189 121.704 33.32 121.839 33.0703V31.7754H121.008C120.437 31.7754 120.007 31.8748 119.719 32.0737C119.431 32.2726 119.288 32.554 119.288 32.918C119.288 33.2142 119.385 33.4512 119.58 33.6289C119.778 33.8024 120.043 33.8892 120.373 33.8892ZM127.819 33.8955C128.204 33.8955 128.523 33.7834 128.777 33.5591C129.031 33.3348 129.167 33.0576 129.184 32.7275H130.637C130.62 33.1549 130.487 33.5549 130.237 33.9272C129.988 34.2954 129.649 34.5874 129.222 34.8032C128.794 35.019 128.333 35.127 127.838 35.127C126.877 35.127 126.116 34.8159 125.553 34.1938C124.99 33.5718 124.708 32.7127 124.708 31.6167V31.458C124.708 30.4128 124.988 29.577 125.546 28.9507C126.105 28.3201 126.867 28.0049 127.832 28.0049C128.648 28.0049 129.313 28.244 129.825 28.7222C130.341 29.1961 130.612 29.8203 130.637 30.5947H129.184C129.167 30.2012 129.031 29.8774 128.777 29.6235C128.528 29.3696 128.208 29.2427 127.819 29.2427C127.319 29.2427 126.934 29.4246 126.664 29.7886C126.393 30.1483 126.255 30.6963 126.251 31.4326V31.6802C126.251 32.425 126.384 32.9814 126.651 33.3496C126.922 33.7135 127.311 33.8955 127.819 33.8955ZM133.322 28.8809C133.826 28.2969 134.463 28.0049 135.233 28.0049C136.697 28.0049 137.44 28.8407 137.461 30.5122V35H135.918V30.5693C135.918 30.0954 135.815 29.7611 135.607 29.5664C135.404 29.3675 135.104 29.2681 134.706 29.2681C134.088 29.2681 133.627 29.5431 133.322 30.0933V35H131.78V25.25H133.322V28.8809ZM140.667 35H139.124V28.1318H140.667V35ZM139.029 26.3481C139.029 26.1112 139.103 25.9144 139.251 25.7578C139.403 25.6012 139.619 25.5229 139.898 25.5229C140.178 25.5229 140.394 25.6012 140.546 25.7578C140.698 25.9144 140.774 26.1112 140.774 26.3481C140.774 26.5809 140.698 26.7756 140.546 26.9321C140.394 27.0845 140.178 27.1606 139.898 27.1606C139.619 27.1606 139.403 27.0845 139.251 26.9321C139.103 26.7756 139.029 26.5809 139.029 26.3481ZM143.783 28.1318L143.828 28.9253C144.335 28.3117 145.002 28.0049 145.827 28.0049C147.257 28.0049 147.985 28.8237 148.011 30.4614V35H146.468V30.5503C146.468 30.1144 146.373 29.7928 146.183 29.5854C145.996 29.3739 145.69 29.2681 145.262 29.2681C144.64 29.2681 144.177 29.5495 143.872 30.1123V35H142.33V28.1318H143.783ZM152.613 35.127C151.635 35.127 150.842 34.8201 150.232 34.2065C149.627 33.5887 149.325 32.7677 149.325 31.7437V31.5532C149.325 30.8677 149.456 30.2562 149.718 29.7188C149.985 29.1771 150.357 28.756 150.835 28.4556C151.314 28.1551 151.847 28.0049 152.435 28.0049C153.37 28.0049 154.092 28.3032 154.6 28.8999C155.112 29.4966 155.368 30.3408 155.368 31.4326V32.0547H150.88C150.926 32.6217 151.115 33.0703 151.445 33.4004C151.779 33.7305 152.198 33.8955 152.702 33.8955C153.408 33.8955 153.984 33.6099 154.428 33.0386L155.26 33.832C154.985 34.2425 154.617 34.562 154.155 34.7905C153.698 35.0148 153.184 35.127 152.613 35.127ZM152.429 29.2427C152.006 29.2427 151.663 29.3908 151.4 29.687C151.142 29.9832 150.977 30.3958 150.905 30.9248H153.844V30.8105C153.81 30.2943 153.673 29.9049 153.432 29.6426C153.19 29.376 152.856 29.2427 152.429 29.2427ZM162.801 31.6929H159.468V30.4487H162.801V31.6929ZM170.907 29.541C170.704 29.5072 170.494 29.4902 170.278 29.4902C169.572 29.4902 169.096 29.7611 168.85 30.3027V35H167.308V28.1318H168.78L168.818 28.8999C169.191 28.3032 169.707 28.0049 170.367 28.0049C170.587 28.0049 170.769 28.0345 170.913 28.0938L170.907 29.541ZM174.779 35.127C173.801 35.127 173.008 34.8201 172.398 34.2065C171.793 33.5887 171.491 32.7677 171.491 31.7437V31.5532C171.491 30.8677 171.622 30.2562 171.884 29.7188C172.151 29.1771 172.523 28.756 173.001 28.4556C173.48 28.1551 174.013 28.0049 174.601 28.0049C175.536 28.0049 176.258 28.3032 176.766 28.8999C177.278 29.4966 177.534 30.3408 177.534 31.4326V32.0547H173.046C173.092 32.6217 173.281 33.0703 173.611 33.4004C173.945 33.7305 174.364 33.8955 174.868 33.8955C175.574 33.8955 176.15 33.6099 176.594 33.0386L177.426 33.832C177.151 34.2425 176.783 34.562 176.321 34.7905C175.864 35.0148 175.35 35.127 174.779 35.127ZM174.595 29.2427C174.172 29.2427 173.829 29.3908 173.566 29.687C173.308 29.9832 173.143 30.3958 173.071 30.9248H176.01V30.8105C175.976 30.2943 175.839 29.9049 175.598 29.6426C175.356 29.376 175.022 29.2427 174.595 29.2427ZM182.84 35C182.773 34.8688 182.713 34.6551 182.663 34.3589C182.172 34.8709 181.571 35.127 180.86 35.127C180.17 35.127 179.607 34.9302 179.171 34.5366C178.736 34.1431 178.518 33.6564 178.518 33.0767C178.518 32.3446 178.788 31.7839 179.33 31.3945C179.876 31.001 180.655 30.8042 181.666 30.8042H182.612V30.3535C182.612 29.998 182.512 29.7145 182.313 29.5029C182.115 29.2871 181.812 29.1792 181.406 29.1792C181.055 29.1792 180.767 29.2681 180.542 29.4458C180.318 29.6193 180.206 29.8415 180.206 30.1123H178.664C178.664 29.7357 178.788 29.3844 179.038 29.0586C179.288 28.7285 179.626 28.4704 180.054 28.2842C180.485 28.098 180.966 28.0049 181.495 28.0049C182.299 28.0049 182.94 28.208 183.418 28.6143C183.896 29.0163 184.142 29.5833 184.154 30.3154V33.4131C184.154 34.0309 184.241 34.5239 184.415 34.8921V35H182.84ZM181.146 33.8892C181.45 33.8892 181.736 33.8151 182.002 33.667C182.273 33.5189 182.476 33.32 182.612 33.0703V31.7754H181.78C181.209 31.7754 180.779 31.8748 180.492 32.0737C180.204 32.2726 180.06 32.554 180.06 32.918C180.06 33.2142 180.157 33.4512 180.352 33.6289C180.551 33.8024 180.815 33.8892 181.146 33.8892ZM185.481 31.5151C185.481 30.4572 185.726 29.6087 186.217 28.9697C186.708 28.3265 187.366 28.0049 188.191 28.0049C188.919 28.0049 189.507 28.2588 189.956 28.7666V25.25H191.499V35H190.102L190.026 34.2891C189.565 34.8477 188.949 35.127 188.179 35.127C187.375 35.127 186.723 34.8032 186.224 34.1558C185.729 33.5083 185.481 32.6281 185.481 31.5151ZM187.023 31.6484C187.023 32.3467 187.157 32.8926 187.423 33.2861C187.694 33.6755 188.077 33.8701 188.572 33.8701C189.203 33.8701 189.664 33.5887 189.956 33.0259V30.0933C189.673 29.5431 189.215 29.2681 188.585 29.2681C188.086 29.2681 187.701 29.467 187.43 29.8647C187.159 30.2583 187.023 30.8529 187.023 31.6484ZM197.211 35C197.144 34.8688 197.084 34.6551 197.034 34.3589C196.543 34.8709 195.942 35.127 195.231 35.127C194.541 35.127 193.978 34.9302 193.542 34.5366C193.107 34.1431 192.889 33.6564 192.889 33.0767C192.889 32.3446 193.16 31.7839 193.701 31.3945C194.247 31.001 195.026 30.8042 196.037 30.8042H196.983V30.3535C196.983 29.998 196.883 29.7145 196.685 29.5029C196.486 29.2871 196.183 29.1792 195.777 29.1792C195.426 29.1792 195.138 29.2681 194.914 29.4458C194.689 29.6193 194.577 29.8415 194.577 30.1123H193.035C193.035 29.7357 193.16 29.3844 193.409 29.0586C193.659 28.7285 193.997 28.4704 194.425 28.2842C194.856 28.098 195.337 28.0049 195.866 28.0049C196.67 28.0049 197.311 28.208 197.789 28.6143C198.267 29.0163 198.513 29.5833 198.525 30.3154V33.4131C198.525 34.0309 198.612 34.5239 198.786 34.8921V35H197.211ZM195.517 33.8892C195.821 33.8892 196.107 33.8151 196.374 33.667C196.644 33.5189 196.847 33.32 196.983 33.0703V31.7754H196.151C195.58 31.7754 195.151 31.8748 194.863 32.0737C194.575 32.2726 194.431 32.554 194.431 32.918C194.431 33.2142 194.528 33.4512 194.723 33.6289C194.922 33.8024 195.187 33.8892 195.517 33.8892ZM206.168 31.6357C206.168 32.7021 205.929 33.5506 205.451 34.1812C204.977 34.8117 204.323 35.127 203.489 35.127C202.685 35.127 202.059 34.8371 201.61 34.2573L201.534 35H200.138V25.25H201.68V28.792C202.125 28.2673 202.723 28.0049 203.477 28.0049C204.314 28.0049 204.972 28.3159 205.451 28.938C205.929 29.5601 206.168 30.4297 206.168 31.5469V31.6357ZM204.625 31.5024C204.625 30.7576 204.494 30.1991 204.232 29.8267C203.97 29.4543 203.589 29.2681 203.089 29.2681C202.421 29.2681 201.951 29.5601 201.68 30.144V32.9751C201.955 33.5718 202.429 33.8701 203.102 33.8701C203.584 33.8701 203.957 33.6903 204.219 33.3306C204.482 32.9709 204.617 32.4271 204.625 31.6992V31.5024ZM209.107 35H207.564V25.25H209.107V35ZM213.817 35.127C212.839 35.127 212.046 34.8201 211.437 34.2065C210.831 33.5887 210.529 32.7677 210.529 31.7437V31.5532C210.529 30.8677 210.66 30.2562 210.922 29.7188C211.189 29.1771 211.561 28.756 212.04 28.4556C212.518 28.1551 213.051 28.0049 213.639 28.0049C214.574 28.0049 215.296 28.3032 215.804 28.8999C216.316 29.4966 216.572 30.3408 216.572 31.4326V32.0547H212.084C212.131 32.6217 212.319 33.0703 212.649 33.4004C212.983 33.7305 213.402 33.8955 213.906 33.8955C214.612 33.8955 215.188 33.6099 215.632 33.0386L216.464 33.832C216.189 34.2425 215.821 34.562 215.359 34.7905C214.902 35.0148 214.388 35.127 213.817 35.127ZM213.633 29.2427C213.21 29.2427 212.867 29.3908 212.604 29.687C212.346 29.9832 212.181 30.3958 212.109 30.9248H215.048V30.8105C215.014 30.2943 214.877 29.9049 214.636 29.6426C214.395 29.376 214.06 29.2427 213.633 29.2427Z" fill="black"/>
<rect x="0.5" y="44.5" width="277" height="33" rx="8.5" fill="#FFFF6A" stroke="black"/>
<rect x="300.5" y="44.5" width="91" height="33" rx="8.5" fill="#FFFF6A" stroke="black"/>
<path d="M16.3413 60.874H12.5454V63.7178H16.9824V65H10.9395V55.7578H16.938V57.0527H12.5454V59.6045H16.3413V60.874ZM20.6069 60.3916L21.9146 58.1318H23.6284L21.5273 61.5151L23.6982 65H21.9971L20.626 62.6514L19.2612 65H17.5474L19.7183 61.5151L17.6235 58.1318H19.3247L20.6069 60.3916ZM25.6089 63.375C25.8966 63.375 26.1188 63.4575 26.2754 63.6226C26.432 63.7834 26.5103 63.9865 26.5103 64.2319C26.5103 64.4731 26.432 64.6742 26.2754 64.835C26.1188 64.9915 25.8966 65.0698 25.6089 65.0698C25.3338 65.0698 25.1159 64.9915 24.9551 64.835C24.7943 64.6784 24.7139 64.4774 24.7139 64.2319C24.7139 63.9865 24.7922 63.7834 24.9487 63.6226C25.1053 63.4575 25.3254 63.375 25.6089 63.375ZM25.6089 57.9858C25.8966 57.9858 26.1188 58.0684 26.2754 58.2334C26.432 58.3942 26.5103 58.5973 26.5103 58.8428C26.5103 59.084 26.432 59.285 26.2754 59.4458C26.1188 59.6024 25.8966 59.6807 25.6089 59.6807C25.3338 59.6807 25.1159 59.6024 24.9551 59.4458C24.7943 59.2892 24.7139 59.0882 24.7139 58.8428C24.7139 58.5973 24.7922 58.3942 24.9487 58.2334C25.1053 58.0684 25.3254 57.9858 25.6089 57.9858ZM35.4478 65H33.9116V57.5796L31.6455 58.354V57.0527L35.251 55.7261H35.4478V65ZM44.6836 61.1089C44.6836 62.4377 44.4339 63.4406 43.9346 64.1177C43.4395 64.7905 42.6841 65.127 41.6685 65.127C40.6698 65.127 39.9165 64.799 39.4087 64.1431C38.9051 63.4829 38.647 62.5075 38.6343 61.2168V59.6172C38.6343 58.2884 38.8818 57.2918 39.377 56.6274C39.8763 55.9631 40.6359 55.6309 41.6558 55.6309C42.6672 55.6309 43.4204 55.9546 43.9155 56.6021C44.4149 57.2495 44.6709 58.2186 44.6836 59.5093V61.1089ZM43.1411 59.3823C43.1411 58.5148 43.0226 57.88 42.7856 57.478C42.5487 57.0718 42.172 56.8687 41.6558 56.8687C41.1522 56.8687 40.7819 57.0612 40.5449 57.4463C40.3079 57.8271 40.1831 58.4238 40.1704 59.2363V61.3311C40.1704 62.1943 40.291 62.8376 40.5322 63.2607C40.7734 63.6839 41.1522 63.8955 41.6685 63.8955C42.1636 63.8955 42.5296 63.7008 42.7666 63.3115C43.0036 62.918 43.1284 62.3044 43.1411 61.4707V59.3823ZM52.0723 61.1089C52.0723 62.4377 51.8226 63.4406 51.3232 64.1177C50.8281 64.7905 50.0728 65.127 49.0571 65.127C48.0584 65.127 47.3052 64.799 46.7974 64.1431C46.2938 63.4829 46.0356 62.5075 46.0229 61.2168V59.6172C46.0229 58.2884 46.2705 57.2918 46.7656 56.6274C47.265 55.9631 48.0246 55.6309 49.0444 55.6309C50.0558 55.6309 50.8091 55.9546 51.3042 56.6021C51.8035 57.2495 52.0596 58.2186 52.0723 59.5093V61.1089ZM50.5298 59.3823C50.5298 58.5148 50.4113 57.88 50.1743 57.478C49.9373 57.0718 49.5607 56.8687 49.0444 56.8687C48.5409 56.8687 48.1706 57.0612 47.9336 57.4463C47.6966 57.8271 47.5718 58.4238 47.5591 59.2363V61.3311C47.5591 62.1943 47.6797 62.8376 47.9209 63.2607C48.1621 63.6839 48.5409 63.8955 49.0571 63.8955C49.5522 63.8955 49.9183 63.7008 50.1553 63.3115C50.3923 62.918 50.5171 62.3044 50.5298 61.4707V59.3823ZM56.5283 61.6929H53.1958V60.4487H56.5283V61.6929ZM63.917 65H57.7026V63.9399L60.7812 60.582C61.2256 60.0869 61.5409 59.6743 61.7271 59.3442C61.9175 59.0099 62.0127 58.6756 62.0127 58.3413C62.0127 57.9012 61.8879 57.5457 61.6382 57.2749C61.3927 57.0041 61.0605 56.8687 60.6416 56.8687C60.1423 56.8687 59.755 57.021 59.48 57.3257C59.2049 57.6304 59.0674 58.0472 59.0674 58.5762H57.5249C57.5249 58.0133 57.6519 57.5076 57.9058 57.0591C58.1639 56.6063 58.5299 56.255 59.0039 56.0054C59.4821 55.7557 60.0322 55.6309 60.6543 55.6309C61.5514 55.6309 62.2581 55.8573 62.7744 56.3101C63.2949 56.7586 63.5552 57.3807 63.5552 58.1763C63.5552 58.6375 63.424 59.1221 63.1616 59.6299C62.9035 60.1335 62.4782 60.7069 61.8857 61.3501L59.626 63.7686H63.917V65ZM66.875 59.6743H67.8145C68.2884 59.6701 68.6629 59.5474 68.938 59.3062C69.2173 59.0649 69.3569 58.7158 69.3569 58.2588C69.3569 57.8187 69.2406 57.478 69.0078 57.2368C68.7793 56.9914 68.4281 56.8687 67.9541 56.8687C67.5394 56.8687 67.1987 56.9893 66.9321 57.2305C66.6655 57.4674 66.5322 57.7785 66.5322 58.1636H64.9897C64.9897 57.6896 65.1146 57.258 65.3643 56.8687C65.6182 56.4793 65.9694 56.1768 66.418 55.9609C66.8708 55.7409 67.3765 55.6309 67.9351 55.6309C68.8576 55.6309 69.5812 55.8636 70.106 56.3291C70.6349 56.7904 70.8994 57.4336 70.8994 58.2588C70.8994 58.6735 70.7661 59.0649 70.4995 59.4331C70.2371 59.797 69.8965 60.0721 69.4775 60.2583C69.9854 60.4318 70.3704 60.7048 70.6328 61.0771C70.8994 61.4495 71.0327 61.8939 71.0327 62.4102C71.0327 63.2396 70.7471 63.8997 70.1758 64.3906C69.6087 64.8815 68.8618 65.127 67.9351 65.127C67.0464 65.127 66.3185 64.89 65.7515 64.416C65.1844 63.9421 64.9009 63.3115 64.9009 62.5244H66.4434C66.4434 62.9307 66.5788 63.2607 66.8496 63.5146C67.1247 63.7686 67.4928 63.8955 67.9541 63.8955C68.4323 63.8955 68.8089 63.7686 69.084 63.5146C69.359 63.2607 69.4966 62.8926 69.4966 62.4102C69.4966 61.9235 69.3527 61.549 69.0649 61.2866C68.7772 61.0243 68.3498 60.8931 67.7827 60.8931H66.875V59.6743ZM77.6978 61.7056H78.8467V62.9434H77.6978V65H76.1553V62.9434H72.1626L72.1182 62.0039L76.1045 55.7578H77.6978V61.7056ZM73.7368 61.7056H76.1553V57.8462L76.041 58.0493L73.7368 61.7056ZM80.2812 60.417L80.7827 55.7578H85.7466V57.0908H82.0649L81.811 59.2998C82.2384 59.0544 82.7209 58.9316 83.2583 58.9316C84.1385 58.9316 84.8219 59.2131 85.3086 59.7759C85.7995 60.3387 86.0449 61.0962 86.0449 62.0483C86.0449 62.9878 85.7741 63.7368 85.2324 64.2954C84.6908 64.8498 83.9481 65.127 83.0044 65.127C82.158 65.127 81.4556 64.8879 80.897 64.4097C80.3426 63.9272 80.0422 63.2925 79.9956 62.5054H81.4873C81.5465 62.9539 81.7074 63.2988 81.9697 63.54C82.2321 63.777 82.5749 63.8955 82.998 63.8955C83.472 63.8955 83.8402 63.7262 84.1025 63.3877C84.3691 63.0492 84.5024 62.5879 84.5024 62.0039C84.5024 61.4411 84.3564 60.9967 84.0645 60.6709C83.7725 60.3408 83.3704 60.1758 82.8584 60.1758C82.5791 60.1758 82.3421 60.2139 82.1475 60.29C81.9528 60.362 81.7412 60.5059 81.5127 60.7217L80.2812 60.417ZM93.0781 58.1953C93.0781 58.6481 92.9618 59.0522 92.729 59.4077C92.4963 59.759 92.1789 60.0361 91.7769 60.2393C92.2593 60.4635 92.6296 60.7703 92.8877 61.1597C93.1501 61.549 93.2812 61.9891 93.2812 62.48C93.2812 63.2925 93.0062 63.9378 92.4561 64.416C91.9059 64.89 91.1738 65.127 90.2598 65.127C89.3415 65.127 88.6051 64.8879 88.0508 64.4097C87.5007 63.9315 87.2256 63.2882 87.2256 62.48C87.2256 61.9849 87.3568 61.5405 87.6191 61.147C87.8815 60.7534 88.2497 60.4508 88.7236 60.2393C88.3258 60.0361 88.0106 59.759 87.7778 59.4077C87.5493 59.0522 87.4351 58.6481 87.4351 58.1953C87.4351 57.4082 87.689 56.784 88.1968 56.3228C88.7046 55.8615 89.3901 55.6309 90.2534 55.6309C91.1209 55.6309 91.8086 55.8615 92.3164 56.3228C92.8242 56.784 93.0781 57.4082 93.0781 58.1953ZM91.7388 62.4038C91.7388 61.9468 91.6012 61.5786 91.3262 61.2993C91.0553 61.0158 90.6956 60.874 90.2471 60.874C89.7985 60.874 89.4388 61.0137 89.168 61.293C88.9014 61.5723 88.7681 61.9425 88.7681 62.4038C88.7681 62.8566 88.8993 63.2184 89.1616 63.4893C89.4282 63.7601 89.7943 63.8955 90.2598 63.8955C90.7253 63.8955 91.0871 63.7643 91.3452 63.502C91.6076 63.2396 91.7388 62.8735 91.7388 62.4038ZM91.542 58.2524C91.542 57.8504 91.4256 57.5203 91.1929 57.2622C90.9601 56.9998 90.647 56.8687 90.2534 56.8687C89.8599 56.8687 89.5488 56.9935 89.3203 57.2432C89.0918 57.4886 88.9775 57.825 88.9775 58.2524C88.9775 58.6756 89.0918 59.012 89.3203 59.2617C89.5531 59.5114 89.8662 59.6362 90.2598 59.6362C90.6533 59.6362 90.9644 59.5114 91.1929 59.2617C91.4256 59.012 91.542 58.6756 91.542 58.2524ZM100.797 56.6147L97.1025 65H95.4839L99.1719 56.9956H94.3921V55.7578H100.797V56.6147Z" fill="black"/>
<path d="M325.611 61.439H323.821V65H322.215V55.7578H325.465C326.532 55.7578 327.355 55.9969 327.935 56.4751C328.514 56.9533 328.804 57.6452 328.804 58.5508C328.804 59.1686 328.654 59.687 328.354 60.106C328.057 60.5207 327.643 60.8402 327.109 61.0645L329.185 64.9175V65H327.465L325.611 61.439ZM323.821 60.1504H325.472C326.013 60.1504 326.437 60.015 326.741 59.7441C327.046 59.4691 327.198 59.0946 327.198 58.6206C327.198 58.1255 327.056 57.7425 326.773 57.4717C326.494 57.2008 326.075 57.0612 325.516 57.0527H323.821V60.1504ZM333.203 65.127C332.226 65.127 331.432 64.8201 330.823 64.2065C330.218 63.5887 329.915 62.7677 329.915 61.7437V61.5532C329.915 60.8677 330.046 60.2562 330.309 59.7188C330.575 59.1771 330.948 58.756 331.426 58.4556C331.904 58.1551 332.437 58.0049 333.025 58.0049C333.961 58.0049 334.682 58.3032 335.19 58.8999C335.702 59.4966 335.958 60.3408 335.958 61.4326V62.0547H331.47C331.517 62.6217 331.705 63.0703 332.035 63.4004C332.369 63.7305 332.788 63.8955 333.292 63.8955C333.999 63.8955 334.574 63.6099 335.019 63.0386L335.85 63.832C335.575 64.2425 335.207 64.562 334.746 64.7905C334.289 65.0148 333.774 65.127 333.203 65.127ZM333.019 59.2427C332.596 59.2427 332.253 59.3908 331.991 59.687C331.733 59.9832 331.568 60.3958 331.496 60.9248H334.435V60.8105C334.401 60.2943 334.263 59.9049 334.022 59.6426C333.781 59.376 333.446 59.2427 333.019 59.2427ZM339.494 63.0449L340.947 58.1318H342.541L340.16 65H338.821L336.421 58.1318H338.021L339.494 63.0449ZM345.149 65H343.607V58.1318H345.149V65ZM343.512 56.3481C343.512 56.1112 343.586 55.9144 343.734 55.7578C343.886 55.6012 344.102 55.5229 344.381 55.5229C344.661 55.5229 344.876 55.6012 345.029 55.7578C345.181 55.9144 345.257 56.1112 345.257 56.3481C345.257 56.5809 345.181 56.7756 345.029 56.9321C344.876 57.0845 344.661 57.1606 344.381 57.1606C344.102 57.1606 343.886 57.0845 343.734 56.9321C343.586 56.7756 343.512 56.5809 343.512 56.3481ZM350.685 63.1338C350.685 62.8587 350.57 62.6493 350.342 62.5054C350.118 62.3615 349.743 62.2345 349.218 62.1245C348.694 62.0145 348.256 61.8748 347.904 61.7056C347.134 61.3332 346.749 60.7936 346.749 60.0869C346.749 59.4945 346.999 58.9993 347.498 58.6016C347.997 58.2038 348.632 58.0049 349.402 58.0049C350.223 58.0049 350.886 58.208 351.389 58.6143C351.897 59.0205 352.151 59.5474 352.151 60.1948H350.608C350.608 59.8986 350.498 59.6532 350.278 59.4585C350.058 59.2596 349.766 59.1602 349.402 59.1602C349.064 59.1602 348.787 59.2384 348.571 59.395C348.359 59.5516 348.253 59.7611 348.253 60.0234C348.253 60.2604 348.353 60.4445 348.552 60.5757C348.751 60.7069 349.153 60.8402 349.758 60.9756C350.363 61.1068 350.837 61.2655 351.18 61.4517C351.527 61.6336 351.783 61.8537 351.948 62.1118C352.117 62.37 352.202 62.6831 352.202 63.0513C352.202 63.6691 351.946 64.1706 351.434 64.5557C350.922 64.9365 350.251 65.127 349.421 65.127C348.859 65.127 348.357 65.0254 347.917 64.8223C347.477 64.6191 347.134 64.3398 346.889 63.9844C346.643 63.6289 346.521 63.2459 346.521 62.8354H348.019C348.04 63.1994 348.177 63.4808 348.431 63.6797C348.685 63.8743 349.021 63.9717 349.44 63.9717C349.847 63.9717 350.156 63.8955 350.367 63.7432C350.579 63.5866 350.685 63.3835 350.685 63.1338ZM355.191 65H353.649V58.1318H355.191V65ZM353.554 56.3481C353.554 56.1112 353.628 55.9144 353.776 55.7578C353.928 55.6012 354.144 55.5229 354.423 55.5229C354.703 55.5229 354.918 55.6012 355.071 55.7578C355.223 55.9144 355.299 56.1112 355.299 56.3481C355.299 56.5809 355.223 56.7756 355.071 56.9321C354.918 57.0845 354.703 57.1606 354.423 57.1606C354.144 57.1606 353.928 57.0845 353.776 56.9321C353.628 56.7756 353.554 56.5809 353.554 56.3481ZM356.588 61.5024C356.588 60.8296 356.721 60.2244 356.988 59.687C357.254 59.1453 357.629 58.7306 358.111 58.4429C358.594 58.1509 359.148 58.0049 359.774 58.0049C360.701 58.0049 361.452 58.3032 362.028 58.8999C362.608 59.4966 362.921 60.2879 362.967 61.2739L362.974 61.6357C362.974 62.3128 362.842 62.918 362.58 63.4512C362.322 63.9844 361.95 64.397 361.463 64.689C360.98 64.981 360.422 65.127 359.787 65.127C358.818 65.127 358.042 64.8053 357.458 64.1621C356.878 63.5146 356.588 62.6535 356.588 61.5786V61.5024ZM358.13 61.6357C358.13 62.3424 358.276 62.8968 358.568 63.2988C358.86 63.6966 359.267 63.8955 359.787 63.8955C360.308 63.8955 360.712 63.6924 361 63.2861C361.292 62.8799 361.438 62.2853 361.438 61.5024C361.438 60.8084 361.287 60.2583 360.987 59.8521C360.691 59.4458 360.286 59.2427 359.774 59.2427C359.271 59.2427 358.871 59.4437 358.575 59.8457C358.278 60.2435 358.13 60.8402 358.13 61.6357ZM365.709 58.1318L365.754 58.9253C366.262 58.3117 366.928 58.0049 367.753 58.0049C369.184 58.0049 369.912 58.8237 369.937 60.4614V65H368.395V60.5503C368.395 60.1144 368.299 59.7928 368.109 59.5854C367.923 59.3739 367.616 59.2681 367.188 59.2681C366.566 59.2681 366.103 59.5495 365.798 60.1123V65H364.256V58.1318H365.709Z" fill="black"/>
<path d="M13.3594 10.9922V15H11.0156V3.625H15.4531C16.3073 3.625 17.0573 3.78125 17.7031 4.09375C18.3542 4.40625 18.8542 4.85156 19.2031 5.42969C19.5521 6.0026 19.7266 6.65625 19.7266 7.39062C19.7266 8.50521 19.3438 9.38542 18.5781 10.0312C17.8177 10.6719 16.763 10.9922 15.4141 10.9922H13.3594ZM13.3594 9.09375H15.4531C16.0729 9.09375 16.5443 8.94792 16.8672 8.65625C17.1953 8.36458 17.3594 7.94792 17.3594 7.40625C17.3594 6.84896 17.1953 6.39844 16.8672 6.05469C16.5391 5.71094 16.0859 5.53385 15.5078 5.52344H13.3594V9.09375ZM26 15C25.8958 14.7969 25.8203 14.5443 25.7734 14.2422C25.2266 14.8516 24.5156 15.1562 23.6406 15.1562C22.8125 15.1562 22.125 14.9167 21.5781 14.4375C21.0365 13.9583 20.7656 13.3542 20.7656 12.625C20.7656 11.7292 21.0964 11.0417 21.7578 10.5625C22.4245 10.0833 23.3854 9.84115 24.6406 9.83594H25.6797V9.35156C25.6797 8.96094 25.5781 8.64844 25.375 8.41406C25.1771 8.17969 24.862 8.0625 24.4297 8.0625C24.0495 8.0625 23.75 8.15365 23.5312 8.33594C23.3177 8.51823 23.2109 8.76823 23.2109 9.08594H20.9531C20.9531 8.59635 21.1042 8.14323 21.4062 7.72656C21.7083 7.3099 22.1354 6.98438 22.6875 6.75C23.2396 6.51042 23.8594 6.39062 24.5469 6.39062C25.5885 6.39062 26.4141 6.65365 27.0234 7.17969C27.638 7.70052 27.9453 8.4349 27.9453 9.38281V13.0469C27.9505 13.849 28.0625 14.4557 28.2812 14.8672V15H26ZM24.1328 13.4297C24.4661 13.4297 24.7734 13.3568 25.0547 13.2109C25.3359 13.0599 25.5443 12.8594 25.6797 12.6094V11.1562H24.8359C23.7057 11.1562 23.1042 11.5469 23.0312 12.3281L23.0234 12.4609C23.0234 12.7422 23.1224 12.974 23.3203 13.1562C23.5182 13.3385 23.7891 13.4297 24.1328 13.4297ZM34.4297 8.66406C34.1224 8.6224 33.8516 8.60156 33.6172 8.60156C32.763 8.60156 32.2031 8.89062 31.9375 9.46875V15H29.6797V6.54688H31.8125L31.875 7.55469C32.3281 6.77865 32.9557 6.39062 33.7578 6.39062C34.0078 6.39062 34.2422 6.42448 34.4609 6.49219L34.4297 8.66406ZM38.6172 4.46875V6.54688H40.0625V8.20312H38.6172V12.4219C38.6172 12.7344 38.6771 12.9583 38.7969 13.0938C38.9167 13.2292 39.1458 13.2969 39.4844 13.2969C39.7344 13.2969 39.9557 13.2786 40.1484 13.2422V14.9531C39.7057 15.0885 39.25 15.1562 38.7812 15.1562C37.1979 15.1562 36.3906 14.3568 36.3594 12.7578V8.20312H35.125V6.54688H36.3594V4.46875H38.6172ZM54.7031 15H52.3594L47.7969 7.51562V15H45.4531V3.625H47.7969L52.3672 11.125V3.625H54.7031V15ZM61.6641 14.1406C61.1068 14.8177 60.3359 15.1562 59.3516 15.1562C58.4453 15.1562 57.7526 14.8958 57.2734 14.375C56.7995 13.8542 56.5573 13.0911 56.5469 12.0859V6.54688H58.8047V12.0078C58.8047 12.888 59.2057 13.3281 60.0078 13.3281C60.7734 13.3281 61.2995 13.0625 61.5859 12.5312V6.54688H63.8516V15H61.7266L61.6641 14.1406ZM67.6719 6.54688L67.7422 7.49219C68.3411 6.75781 69.151 6.39062 70.1719 6.39062C71.2604 6.39062 72.0078 6.82031 72.4141 7.67969C73.0078 6.82031 73.8542 6.39062 74.9531 6.39062C75.8698 6.39062 76.5521 6.65885 77 7.19531C77.4479 7.72656 77.6719 8.52865 77.6719 9.60156V15H75.4062V9.60938C75.4062 9.13021 75.3125 8.78125 75.125 8.5625C74.9375 8.33854 74.6068 8.22656 74.1328 8.22656C73.4557 8.22656 72.987 8.54948 72.7266 9.19531L72.7344 15H70.4766V9.61719C70.4766 9.1276 70.3802 8.77344 70.1875 8.55469C69.9948 8.33594 69.6667 8.22656 69.2031 8.22656C68.5625 8.22656 68.099 8.49219 67.8125 9.02344V15H65.5547V6.54688H67.6719ZM87.0312 10.8516C87.0312 12.2057 86.7422 13.263 86.1641 14.0234C85.5859 14.7786 84.7786 15.1562 83.7422 15.1562C82.8255 15.1562 82.0938 14.8047 81.5469 14.1016L81.4453 15H79.4141V3H81.6719V7.30469C82.1927 6.69531 82.8776 6.39062 83.7266 6.39062C84.7578 6.39062 85.5651 6.77083 86.1484 7.53125C86.737 8.28646 87.0312 9.35156 87.0312 10.7266V10.8516ZM84.7734 10.6875C84.7734 9.83333 84.638 9.21094 84.3672 8.82031C84.0964 8.42448 83.6927 8.22656 83.1562 8.22656C82.4375 8.22656 81.9427 8.52083 81.6719 9.10938V12.4453C81.9479 13.0391 82.4479 13.3359 83.1719 13.3359C83.901 13.3359 84.3802 12.9766 84.6094 12.2578C84.7188 11.9141 84.7734 11.3906 84.7734 10.6875ZM92.3203 15.1562C91.0807 15.1562 90.0703 14.776 89.2891 14.0156C88.513 13.2552 88.125 12.2422 88.125 10.9766V10.7578C88.125 9.90885 88.2891 9.15104 88.6172 8.48438C88.9453 7.8125 89.4089 7.29688 90.0078 6.9375C90.612 6.57292 91.2995 6.39062 92.0703 6.39062C93.2266 6.39062 94.1354 6.75521 94.7969 7.48438C95.4635 8.21354 95.7969 9.2474 95.7969 10.5859V11.5078H90.4141C90.487 12.0599 90.7057 12.5026 91.0703 12.8359C91.4401 13.1693 91.9062 13.3359 92.4688 13.3359C93.3385 13.3359 94.0182 13.0208 94.5078 12.3906L95.6172 13.6328C95.2786 14.112 94.8203 14.487 94.2422 14.7578C93.6641 15.0234 93.0234 15.1562 92.3203 15.1562ZM92.0625 8.21875C91.6146 8.21875 91.25 8.36979 90.9688 8.67188C90.6927 8.97396 90.5156 9.40625 90.4375 9.96875H93.5781V9.78906C93.5677 9.28906 93.4323 8.90365 93.1719 8.63281C92.9115 8.35677 92.5417 8.21875 92.0625 8.21875ZM101.836 8.66406C101.529 8.6224 101.258 8.60156 101.023 8.60156C100.169 8.60156 99.6094 8.89062 99.3438 9.46875V15H97.0859V6.54688H99.2188L99.2812 7.55469C99.7344 6.77865 100.362 6.39062 101.164 6.39062C101.414 6.39062 101.648 6.42448 101.867 6.49219L101.836 8.66406Z" fill="black"/>
</svg>
