<svg width="442" height="136" viewBox="0 0 442 136" fill="none" xmlns="http://www.w3.org/2000/svg">
<rect x="382.733" y="23.6549" width="46.2579" height="33.7324" rx="4.5" fill="#A8D0FF" fill-opacity="0.95" stroke="#4F4F4F"/>
<path d="M395.11 42.8872C395.11 42.5122 394.977 42.2231 394.711 42.02C394.45 41.8169 393.975 41.6118 393.287 41.4048C392.6 41.1978 392.053 40.9673 391.647 40.7134C390.869 40.2251 390.481 39.5884 390.481 38.8032C390.481 38.1157 390.76 37.5493 391.319 37.104C391.881 36.6587 392.61 36.436 393.504 36.436C394.098 36.436 394.627 36.5454 395.092 36.7642C395.557 36.9829 395.922 37.2954 396.188 37.7017C396.453 38.104 396.586 38.5513 396.586 39.0435H395.11C395.11 38.5981 394.969 38.2505 394.688 38.0005C394.411 37.7466 394.012 37.6196 393.493 37.6196C393.008 37.6196 392.631 37.7231 392.362 37.9302C392.096 38.1372 391.963 38.4263 391.963 38.7974C391.963 39.1099 392.108 39.3716 392.397 39.5825C392.686 39.7896 393.162 39.9927 393.827 40.1919C394.491 40.3872 395.024 40.6118 395.426 40.8657C395.828 41.1157 396.123 41.4048 396.311 41.7329C396.498 42.0571 396.592 42.438 396.592 42.8755C396.592 43.5864 396.319 44.1528 395.772 44.5747C395.229 44.9927 394.491 45.2017 393.557 45.2017C392.94 45.2017 392.371 45.0884 391.852 44.8618C391.336 44.6313 390.934 44.3149 390.645 43.9126C390.36 43.5103 390.217 43.0415 390.217 42.5063H391.7C391.7 42.9907 391.86 43.3657 392.18 43.6313C392.5 43.897 392.959 44.0298 393.557 44.0298C394.073 44.0298 394.459 43.9263 394.717 43.7192C394.979 43.5083 395.11 43.231 395.11 42.8872ZM404.702 41.0415C404.702 41.8774 404.557 42.6118 404.268 43.2446C403.979 43.8735 403.565 44.3579 403.026 44.6978C402.491 45.0337 401.873 45.2017 401.174 45.2017C400.483 45.2017 399.866 45.0337 399.323 44.6978C398.784 44.3579 398.366 43.8755 398.069 43.2505C397.776 42.6255 397.627 41.9048 397.623 41.0884V40.6079C397.623 39.7759 397.77 39.0415 398.063 38.4048C398.36 37.7681 398.776 37.2817 399.311 36.9458C399.85 36.606 400.467 36.436 401.162 36.436C401.858 36.436 402.473 36.604 403.008 36.9399C403.547 37.272 403.963 37.7524 404.256 38.3813C404.549 39.0063 404.698 39.7349 404.702 40.5669V41.0415ZM403.219 40.5962C403.219 39.6509 403.039 38.9263 402.68 38.4224C402.325 37.9185 401.819 37.6665 401.162 37.6665C400.522 37.6665 400.02 37.9185 399.657 38.4224C399.297 38.9224 399.114 39.6313 399.106 40.5493V41.0415C399.106 41.979 399.287 42.7036 399.651 43.2153C400.018 43.7271 400.526 43.9829 401.174 43.9829C401.83 43.9829 402.334 43.7329 402.686 43.2329C403.041 42.7329 403.219 42.0024 403.219 41.0415V40.5962ZM414.616 37.3442L411.205 45.0845H409.711L413.116 37.6958H408.703V36.5532H414.616V37.3442ZM421.494 45.0845H415.758V44.106L418.6 41.0063C419.01 40.5493 419.301 40.1685 419.473 39.8638C419.649 39.5552 419.737 39.2466 419.737 38.938C419.737 38.5317 419.621 38.2036 419.391 37.9536C419.164 37.7036 418.858 37.5786 418.471 37.5786C418.01 37.5786 417.653 37.7192 417.399 38.0005C417.145 38.2817 417.018 38.6665 417.018 39.1548H415.594C415.594 38.6353 415.711 38.1685 415.946 37.7544C416.184 37.3364 416.522 37.0122 416.959 36.7817C417.401 36.5513 417.909 36.436 418.483 36.436C419.311 36.436 419.963 36.645 420.44 37.063C420.92 37.4771 421.161 38.0513 421.161 38.7856C421.161 39.2114 421.039 39.6587 420.797 40.1274C420.559 40.5923 420.166 41.1216 419.619 41.7153L417.534 43.9478H421.494V45.0845Z" fill="black"/>
<rect x="388.292" y="48.7395" width="46.2579" height="33.7324" rx="4.5" fill="#A8D0FF" fill-opacity="0.95" stroke="#4F4F4F"/>
<path d="M400.669 69.9014C400.669 69.5264 400.537 69.2373 400.271 69.0342C400.009 68.8311 399.535 68.626 398.847 68.4189C398.16 68.2119 397.613 67.9814 397.207 67.7275C396.429 67.2393 396.041 66.6025 396.041 65.8174C396.041 65.1299 396.32 64.5635 396.878 64.1182C397.441 63.6729 398.169 63.4502 399.064 63.4502C399.658 63.4502 400.187 63.5596 400.652 63.7783C401.117 63.9971 401.482 64.3096 401.748 64.7158C402.013 65.1182 402.146 65.5654 402.146 66.0576H400.669C400.669 65.6123 400.529 65.2646 400.248 65.0146C399.97 64.7607 399.572 64.6338 399.052 64.6338C398.568 64.6338 398.191 64.7373 397.921 64.9443C397.656 65.1514 397.523 65.4404 397.523 65.8115C397.523 66.124 397.667 66.3857 397.957 66.5967C398.246 66.8037 398.722 67.0068 399.386 67.2061C400.05 67.4014 400.583 67.626 400.986 67.8799C401.388 68.1299 401.683 68.4189 401.871 68.7471C402.058 69.0713 402.152 69.4521 402.152 69.8896C402.152 70.6006 401.878 71.167 401.332 71.5889C400.789 72.0068 400.05 72.2158 399.117 72.2158C398.499 72.2158 397.931 72.1025 397.412 71.876C396.896 71.6455 396.494 71.3291 396.205 70.9268C395.919 70.5244 395.777 70.0557 395.777 69.5205H397.259C397.259 70.0049 397.419 70.3799 397.74 70.6455C398.06 70.9111 398.519 71.0439 399.117 71.0439C399.632 71.0439 400.019 70.9404 400.277 70.7334C400.539 70.5225 400.669 70.2451 400.669 69.9014ZM410.261 68.0557C410.261 68.8916 410.117 69.626 409.828 70.2588C409.539 70.8877 409.124 71.3721 408.585 71.7119C408.05 72.0479 407.433 72.2158 406.734 72.2158C406.042 72.2158 405.425 72.0479 404.882 71.7119C404.343 71.3721 403.925 70.8896 403.628 70.2646C403.335 69.6396 403.187 68.9189 403.183 68.1025V67.6221C403.183 66.79 403.33 66.0557 403.623 65.4189C403.919 64.7822 404.335 64.2959 404.871 63.96C405.41 63.6201 406.027 63.4502 406.722 63.4502C407.417 63.4502 408.033 63.6182 408.568 63.9541C409.107 64.2861 409.523 64.7666 409.816 65.3955C410.109 66.0205 410.257 66.749 410.261 67.5811V68.0557ZM408.779 67.6104C408.779 66.665 408.599 65.9404 408.24 65.4365C407.884 64.9326 407.378 64.6807 406.722 64.6807C406.082 64.6807 405.58 64.9326 405.216 65.4365C404.857 65.9365 404.673 66.6455 404.666 67.5635V68.0557C404.666 68.9932 404.847 69.7178 405.21 70.2295C405.578 70.7412 406.085 70.9971 406.734 70.9971C407.39 70.9971 407.894 70.7471 408.246 70.2471C408.601 69.7471 408.779 69.0166 408.779 68.0557V67.6104ZM420.175 64.3584L416.765 72.0986H415.271L418.675 64.71H414.263V63.5674H420.175V64.3584ZM426.691 65.8174C426.691 66.2354 426.583 66.6084 426.369 66.9365C426.154 67.2607 425.861 67.5166 425.49 67.7041C425.935 67.9111 426.277 68.1943 426.515 68.5537C426.757 68.9131 426.878 69.3193 426.878 69.7725C426.878 70.5225 426.624 71.1182 426.117 71.5596C425.609 71.9971 424.933 72.2158 424.089 72.2158C423.242 72.2158 422.562 71.9951 422.05 71.5537C421.542 71.1123 421.289 70.5186 421.289 69.7725C421.289 69.3154 421.41 68.9053 421.652 68.542C421.894 68.1787 422.234 67.8994 422.671 67.7041C422.304 67.5166 422.013 67.2607 421.798 66.9365C421.587 66.6084 421.482 66.2354 421.482 65.8174C421.482 65.0908 421.716 64.5146 422.185 64.0889C422.654 63.6631 423.287 63.4502 424.083 63.4502C424.884 63.4502 425.519 63.6631 425.988 64.0889C426.457 64.5146 426.691 65.0908 426.691 65.8174ZM425.455 69.7021C425.455 69.2803 425.328 68.9404 425.074 68.6826C424.824 68.4209 424.492 68.29 424.078 68.29C423.664 68.29 423.332 68.4189 423.082 68.6768C422.835 68.9346 422.712 69.2764 422.712 69.7021C422.712 70.1201 422.833 70.4541 423.076 70.7041C423.322 70.9541 423.66 71.0791 424.089 71.0791C424.519 71.0791 424.853 70.958 425.091 70.7158C425.333 70.4736 425.455 70.1357 425.455 69.7021ZM425.273 65.8701C425.273 65.499 425.166 65.1943 424.951 64.9561C424.736 64.7139 424.447 64.5928 424.083 64.5928C423.72 64.5928 423.433 64.708 423.222 64.9385C423.011 65.165 422.906 65.4756 422.906 65.8701C422.906 66.2607 423.011 66.5713 423.222 66.8018C423.437 67.0322 423.726 67.1475 424.089 67.1475C424.453 67.1475 424.74 67.0322 424.951 66.8018C425.166 66.5713 425.273 66.2607 425.273 65.8701Z" fill="black"/>
<rect x="395.242" y="75.7535" width="46.2579" height="33.7324" rx="4.5" fill="#A8D0FF" fill-opacity="0.95" stroke="#4F4F4F"/>
<path d="M407.619 94.9858C407.619 94.6108 407.486 94.3218 407.221 94.1187C406.959 93.9155 406.484 93.7104 405.797 93.5034C405.109 93.2964 404.562 93.0659 404.156 92.812C403.379 92.3237 402.99 91.687 402.99 90.9019C402.99 90.2144 403.269 89.6479 403.828 89.2026C404.391 88.7573 405.119 88.5347 406.014 88.5347C406.607 88.5347 407.137 88.644 407.601 88.8628C408.066 89.0815 408.432 89.394 408.697 89.8003C408.963 90.2026 409.096 90.6499 409.096 91.1421H407.619C407.619 90.6968 407.478 90.3491 407.197 90.0991C406.92 89.8452 406.521 89.7183 406.002 89.7183C405.517 89.7183 405.141 89.8218 404.871 90.0288C404.605 90.2358 404.473 90.5249 404.473 90.896C404.473 91.2085 404.617 91.4702 404.906 91.6812C405.195 91.8882 405.672 92.0913 406.336 92.2905C407 92.4858 407.533 92.7104 407.935 92.9644C408.338 93.2144 408.633 93.5034 408.82 93.8315C409.008 94.1558 409.101 94.5366 409.101 94.9741C409.101 95.6851 408.828 96.2515 408.281 96.6733C407.738 97.0913 407 97.3003 406.066 97.3003C405.449 97.3003 404.881 97.187 404.361 96.9604C403.846 96.73 403.443 96.4136 403.154 96.0112C402.869 95.6089 402.726 95.1401 402.726 94.605H404.209C404.209 95.0894 404.369 95.4644 404.689 95.73C405.01 95.9956 405.469 96.1284 406.066 96.1284C406.582 96.1284 406.969 96.0249 407.226 95.8179C407.488 95.6069 407.619 95.3296 407.619 94.9858ZM417.211 93.1401C417.211 93.9761 417.066 94.7104 416.777 95.3433C416.488 95.9722 416.074 96.4565 415.535 96.7964C415 97.1323 414.383 97.3003 413.684 97.3003C412.992 97.3003 412.375 97.1323 411.832 96.7964C411.293 96.4565 410.875 95.9741 410.578 95.3491C410.285 94.7241 410.137 94.0034 410.133 93.187V92.7065C410.133 91.8745 410.279 91.1401 410.572 90.5034C410.869 89.8667 411.285 89.3804 411.82 89.0444C412.359 88.7046 412.976 88.5347 413.672 88.5347C414.367 88.5347 414.982 88.7026 415.517 89.0386C416.057 89.3706 416.473 89.8511 416.766 90.48C417.059 91.105 417.207 91.8335 417.211 92.6655V93.1401ZM415.728 92.6948C415.728 91.7495 415.549 91.0249 415.189 90.521C414.834 90.0171 414.328 89.7651 413.672 89.7651C413.031 89.7651 412.529 90.0171 412.166 90.521C411.807 91.021 411.623 91.73 411.615 92.6479V93.1401C411.615 94.0776 411.797 94.8022 412.16 95.314C412.527 95.8257 413.035 96.0815 413.684 96.0815C414.34 96.0815 414.844 95.8315 415.195 95.3315C415.551 94.8315 415.728 94.1011 415.728 93.1401V92.6948ZM426.82 90.9019C426.82 91.3198 426.713 91.6929 426.498 92.021C426.283 92.3452 425.99 92.6011 425.619 92.7886C426.064 92.9956 426.406 93.2788 426.644 93.6382C426.887 93.9976 427.008 94.4038 427.008 94.8569C427.008 95.6069 426.754 96.2026 426.246 96.644C425.738 97.0815 425.062 97.3003 424.219 97.3003C423.371 97.3003 422.691 97.0796 422.18 96.6382C421.672 96.1968 421.418 95.603 421.418 94.8569C421.418 94.3999 421.539 93.9897 421.781 93.6265C422.023 93.2632 422.363 92.9839 422.801 92.7886C422.434 92.6011 422.142 92.3452 421.928 92.021C421.717 91.6929 421.611 91.3198 421.611 90.9019C421.611 90.1753 421.846 89.5991 422.314 89.1733C422.783 88.7476 423.416 88.5347 424.213 88.5347C425.014 88.5347 425.648 88.7476 426.117 89.1733C426.586 89.5991 426.82 90.1753 426.82 90.9019ZM425.584 94.7866C425.584 94.3647 425.457 94.0249 425.203 93.7671C424.953 93.5054 424.621 93.3745 424.207 93.3745C423.793 93.3745 423.461 93.5034 423.211 93.7612C422.965 94.019 422.842 94.3608 422.842 94.7866C422.842 95.2046 422.963 95.5386 423.205 95.7886C423.451 96.0386 423.789 96.1636 424.219 96.1636C424.648 96.1636 424.982 96.0425 425.221 95.8003C425.463 95.5581 425.584 95.2202 425.584 94.7866ZM425.402 90.9546C425.402 90.5835 425.295 90.2788 425.08 90.0405C424.865 89.7983 424.576 89.6772 424.213 89.6772C423.85 89.6772 423.562 89.7925 423.351 90.0229C423.141 90.2495 423.035 90.5601 423.035 90.9546C423.035 91.3452 423.141 91.6558 423.351 91.8862C423.566 92.1167 423.855 92.2319 424.219 92.2319C424.582 92.2319 424.869 92.1167 425.08 91.8862C425.295 91.6558 425.402 91.3452 425.402 90.9546ZM432.305 93.6147C431.828 94.1187 431.271 94.3706 430.635 94.3706C429.885 94.3706 429.287 94.1089 428.842 93.5854C428.396 93.0581 428.174 92.3667 428.174 91.5112C428.174 90.9487 428.287 90.439 428.514 89.9819C428.74 89.5249 429.062 89.1694 429.48 88.9155C429.898 88.6616 430.383 88.5347 430.934 88.5347C431.793 88.5347 432.475 88.855 432.978 89.4956C433.482 90.1362 433.734 90.9937 433.734 92.0679V92.4663C433.734 94.0054 433.387 95.1792 432.691 95.9878C431.996 96.7964 430.959 97.2065 429.58 97.2183H429.41V96.0405H429.615C430.455 96.0288 431.1 95.8276 431.549 95.437C431.998 95.0425 432.25 94.4351 432.305 93.6147ZM430.934 93.2573C431.219 93.2573 431.486 93.1753 431.736 93.0112C431.986 92.8472 432.18 92.6206 432.316 92.3315V91.7749C432.316 91.146 432.187 90.6401 431.93 90.2573C431.672 89.8745 431.338 89.6831 430.928 89.6831C430.517 89.6831 430.189 89.853 429.943 90.1929C429.701 90.5288 429.58 90.9546 429.58 91.4702C429.58 92.0054 429.703 92.437 429.949 92.7651C430.195 93.0933 430.523 93.2573 430.934 93.2573Z" fill="black"/>
<path d="M394.58 10.7598C394.48 11.8216 394.088 12.651 393.404 13.248C392.721 13.8405 391.811 14.1367 390.677 14.1367C389.884 14.1367 389.184 13.9499 388.578 13.5762C387.977 13.1979 387.512 12.6624 387.184 11.9697C386.855 11.277 386.685 10.4727 386.671 9.55664V8.62695C386.671 7.68815 386.837 6.861 387.17 6.14551C387.503 5.43001 387.979 4.87858 388.599 4.49121C389.223 4.10384 389.943 3.91016 390.759 3.91016C391.857 3.91016 392.741 4.20866 393.411 4.80566C394.081 5.40267 394.471 6.24577 394.58 7.33496H392.857C392.775 6.61947 392.566 6.10449 392.228 5.79004C391.896 5.47103 391.406 5.31152 390.759 5.31152C390.007 5.31152 389.428 5.58724 389.022 6.13867C388.621 6.68555 388.416 7.48991 388.407 8.55176V9.43359C388.407 10.5091 388.599 11.3294 388.981 11.8945C389.369 12.4596 389.934 12.7422 390.677 12.7422C391.356 12.7422 391.866 12.5895 392.208 12.2842C392.55 11.9788 392.766 11.4707 392.857 10.7598H394.58ZM400.452 13.2754C399.964 13.8496 399.272 14.1367 398.374 14.1367C397.572 14.1367 396.963 13.902 396.549 13.4326C396.139 12.9632 395.934 12.2842 395.934 11.3955V6.60352H397.595V11.375C397.595 12.3138 397.984 12.7832 398.764 12.7832C399.57 12.7832 400.115 12.4938 400.397 11.915V6.60352H402.059V14H400.493L400.452 13.2754ZM407.896 11.9902C407.896 11.694 407.773 11.4684 407.527 11.3135C407.286 11.1585 406.882 11.0218 406.317 10.9033C405.752 10.7848 405.281 10.6344 404.902 10.4521C404.073 10.0511 403.658 9.47005 403.658 8.70898C403.658 8.07096 403.927 7.53776 404.465 7.10937C405.003 6.68099 405.686 6.4668 406.516 6.4668C407.4 6.4668 408.113 6.68555 408.655 7.12305C409.202 7.56055 409.476 8.12793 409.476 8.8252H407.814C407.814 8.50618 407.696 8.24186 407.459 8.03223C407.222 7.81803 406.907 7.71094 406.516 7.71094C406.151 7.71094 405.852 7.79525 405.62 7.96387C405.392 8.13249 405.278 8.35807 405.278 8.64062C405.278 8.89583 405.385 9.09408 405.6 9.23535C405.814 9.37663 406.247 9.52018 406.898 9.66602C407.55 9.80729 408.06 9.97819 408.43 10.1787C408.803 10.3747 409.079 10.6117 409.257 10.8896C409.439 11.1676 409.53 11.5049 409.53 11.9014C409.53 12.5667 409.255 13.1068 408.703 13.5215C408.152 13.9316 407.429 14.1367 406.536 14.1367C405.93 14.1367 405.39 14.0273 404.916 13.8086C404.442 13.5898 404.073 13.2891 403.809 12.9062C403.544 12.5234 403.412 12.111 403.412 11.6689H405.025C405.048 12.0609 405.196 12.3639 405.47 12.5781C405.743 12.7878 406.105 12.8926 406.557 12.8926C406.994 12.8926 407.327 12.8105 407.555 12.6465C407.782 12.4779 407.896 12.2591 407.896 11.9902ZM413.064 4.80566V6.60352H414.37V7.83398H413.064V11.9629C413.064 12.2454 413.119 12.4505 413.228 12.5781C413.342 12.7012 413.543 12.7627 413.83 12.7627C414.021 12.7627 414.215 12.7399 414.411 12.6943V13.9795C414.033 14.0843 413.668 14.1367 413.317 14.1367C412.041 14.1367 411.403 13.4326 411.403 12.0244V7.83398H410.186V6.60352H411.403V4.80566H413.064ZM422.717 7.64258L424.809 4.04687H426.805L423.797 8.98242L426.873 14H424.856L422.717 10.3496L420.57 14H418.56L421.644 8.98242L418.629 4.04687H420.625L422.717 7.64258Z" fill="black"/>
<ellipse cx="343.314" cy="59.8169" rx="1.38994" ry="1.92958" fill="black"/>
<ellipse cx="354.434" cy="59.8169" rx="1.38994" ry="1.92958" fill="black"/>
<ellipse cx="365.553" cy="59.8169" rx="1.38994" ry="1.92958" fill="black"/>
<ellipse cx="376.673" cy="59.8169" rx="1.38994" ry="1.92958" fill="black"/>
<rect x="285.437" y="23.6549" width="46.2579" height="33.7324" rx="4.5" fill="#A8D0FF" fill-opacity="0.95" stroke="#4F4F4F"/>
<path d="M297.814 42.8872C297.814 42.5122 297.681 42.2231 297.416 42.02C297.154 41.8169 296.679 41.6118 295.992 41.4048C295.304 41.1978 294.757 40.9673 294.351 40.7134C293.574 40.2251 293.185 39.5884 293.185 38.8032C293.185 38.1157 293.465 37.5493 294.023 37.104C294.586 36.6587 295.314 36.436 296.209 36.436C296.802 36.436 297.332 36.5454 297.797 36.7642C298.261 36.9829 298.627 37.2954 298.892 37.7017C299.158 38.104 299.291 38.5513 299.291 39.0435H297.814C297.814 38.5981 297.674 38.2505 297.392 38.0005C297.115 37.7466 296.716 37.6196 296.197 37.6196C295.713 37.6196 295.336 37.7231 295.066 37.9302C294.8 38.1372 294.668 38.4263 294.668 38.7974C294.668 39.1099 294.812 39.3716 295.101 39.5825C295.39 39.7896 295.867 39.9927 296.531 40.1919C297.195 40.3872 297.728 40.6118 298.131 40.8657C298.533 41.1157 298.828 41.4048 299.015 41.7329C299.203 42.0571 299.297 42.438 299.297 42.8755C299.297 43.5864 299.023 44.1528 298.476 44.5747C297.933 44.9927 297.195 45.2017 296.261 45.2017C295.644 45.2017 295.076 45.0884 294.556 44.8618C294.041 44.6313 293.638 44.3149 293.349 43.9126C293.064 43.5103 292.922 43.0415 292.922 42.5063H294.404C294.404 42.9907 294.564 43.3657 294.884 43.6313C295.205 43.897 295.664 44.0298 296.261 44.0298C296.777 44.0298 297.164 43.9263 297.422 43.7192C297.683 43.5083 297.814 43.231 297.814 42.8872ZM307.406 41.0415C307.406 41.8774 307.261 42.6118 306.972 43.2446C306.683 43.8735 306.269 44.3579 305.73 44.6978C305.195 45.0337 304.578 45.2017 303.879 45.2017C303.187 45.2017 302.57 45.0337 302.027 44.6978C301.488 44.3579 301.07 43.8755 300.773 43.2505C300.48 42.6255 300.332 41.9048 300.328 41.0884V40.6079C300.328 39.7759 300.474 39.0415 300.767 38.4048C301.064 37.7681 301.48 37.2817 302.015 36.9458C302.554 36.606 303.172 36.436 303.867 36.436C304.562 36.436 305.177 36.604 305.713 36.9399C306.252 37.272 306.668 37.7524 306.961 38.3813C307.254 39.0063 307.402 39.7349 307.406 40.5669V41.0415ZM305.924 40.5962C305.924 39.6509 305.744 38.9263 305.384 38.4224C305.029 37.9185 304.523 37.6665 303.867 37.6665C303.226 37.6665 302.724 37.9185 302.361 38.4224C302.002 38.9224 301.818 39.6313 301.81 40.5493V41.0415C301.81 41.979 301.992 42.7036 302.355 43.2153C302.722 43.7271 303.23 43.9829 303.879 43.9829C304.535 43.9829 305.039 43.7329 305.39 43.2329C305.746 42.7329 305.924 42.0024 305.924 41.0415V40.5962ZM313.289 40.1685H314.156C314.593 40.1646 314.939 40.0513 315.193 39.8286C315.451 39.606 315.58 39.2837 315.58 38.8618C315.58 38.4556 315.472 38.1411 315.257 37.9185C315.047 37.6919 314.722 37.5786 314.285 37.5786C313.902 37.5786 313.588 37.6899 313.341 37.9126C313.095 38.1313 312.972 38.4185 312.972 38.7739H311.549C311.549 38.3364 311.664 37.938 311.894 37.5786C312.129 37.2192 312.453 36.9399 312.867 36.7407C313.285 36.5376 313.752 36.436 314.267 36.436C315.119 36.436 315.787 36.6509 316.271 37.0806C316.759 37.5063 317.004 38.1001 317.004 38.8618C317.004 39.2446 316.881 39.606 316.634 39.9458C316.392 40.2817 316.078 40.5356 315.691 40.7075C316.16 40.8677 316.515 41.1196 316.757 41.4634C317.004 41.8071 317.127 42.2173 317.127 42.6938C317.127 43.4595 316.863 44.0688 316.336 44.522C315.812 44.9751 315.123 45.2017 314.267 45.2017C313.447 45.2017 312.775 44.9829 312.252 44.5454C311.728 44.1079 311.466 43.5259 311.466 42.7993H312.89C312.89 43.1743 313.015 43.479 313.265 43.7134C313.519 43.9478 313.859 44.0649 314.285 44.0649C314.726 44.0649 315.074 43.9478 315.328 43.7134C315.582 43.479 315.709 43.1392 315.709 42.6938C315.709 42.2446 315.576 41.8989 315.31 41.6567C315.045 41.4146 314.65 41.2935 314.127 41.2935H313.289V40.1685ZM320.109 40.1685H320.976C321.414 40.1646 321.759 40.0513 322.013 39.8286C322.271 39.606 322.4 39.2837 322.4 38.8618C322.4 38.4556 322.293 38.1411 322.078 37.9185C321.867 37.6919 321.543 37.5786 321.105 37.5786C320.722 37.5786 320.408 37.6899 320.162 37.9126C319.916 38.1313 319.793 38.4185 319.793 38.7739H318.369C318.369 38.3364 318.484 37.938 318.715 37.5786C318.949 37.2192 319.273 36.9399 319.687 36.7407C320.105 36.5376 320.572 36.436 321.088 36.436C321.939 36.436 322.607 36.6509 323.091 37.0806C323.58 37.5063 323.824 38.1001 323.824 38.8618C323.824 39.2446 323.701 39.606 323.455 39.9458C323.213 40.2817 322.898 40.5356 322.511 40.7075C322.98 40.8677 323.336 41.1196 323.578 41.4634C323.824 41.8071 323.947 42.2173 323.947 42.6938C323.947 43.4595 323.683 44.0688 323.156 44.522C322.632 44.9751 321.943 45.2017 321.088 45.2017C320.267 45.2017 319.595 44.9829 319.072 44.5454C318.549 44.1079 318.287 43.5259 318.287 42.7993H319.711C319.711 43.1743 319.836 43.479 320.086 43.7134C320.34 43.9478 320.679 44.0649 321.105 44.0649C321.547 44.0649 321.894 43.9478 322.148 43.7134C322.402 43.479 322.529 43.1392 322.529 42.6938C322.529 42.2446 322.396 41.8989 322.131 41.6567C321.865 41.4146 321.47 41.2935 320.947 41.2935H320.109V40.1685Z" fill="black"/>
<rect x="290.997" y="48.7395" width="46.2579" height="33.7324" rx="4.5" fill="#A8D0FF" fill-opacity="0.95" stroke="#4F4F4F"/>
<path d="M303.374 69.9014C303.374 69.5264 303.241 69.2373 302.975 69.0342C302.714 68.8311 302.239 68.626 301.552 68.4189C300.864 68.2119 300.317 67.9814 299.911 67.7275C299.134 67.2393 298.745 66.6025 298.745 65.8174C298.745 65.1299 299.024 64.5635 299.583 64.1182C300.145 63.6729 300.874 63.4502 301.768 63.4502C302.362 63.4502 302.891 63.5596 303.356 63.7783C303.821 63.9971 304.186 64.3096 304.452 64.7158C304.718 65.1182 304.85 65.5654 304.85 66.0576H303.374C303.374 65.6123 303.233 65.2646 302.952 65.0146C302.675 64.7607 302.276 64.6338 301.757 64.6338C301.272 64.6338 300.895 64.7373 300.626 64.9443C300.36 65.1514 300.227 65.4404 300.227 65.8115C300.227 66.124 300.372 66.3857 300.661 66.5967C300.95 66.8037 301.427 67.0068 302.091 67.2061C302.755 67.4014 303.288 67.626 303.69 67.8799C304.093 68.1299 304.388 68.4189 304.575 68.7471C304.763 69.0713 304.856 69.4521 304.856 69.8896C304.856 70.6006 304.583 71.167 304.036 71.5889C303.493 72.0068 302.755 72.2158 301.821 72.2158C301.204 72.2158 300.636 72.1025 300.116 71.876C299.6 71.6455 299.198 71.3291 298.909 70.9268C298.624 70.5244 298.481 70.0557 298.481 69.5205H299.964C299.964 70.0049 300.124 70.3799 300.444 70.6455C300.765 70.9111 301.223 71.0439 301.821 71.0439C302.337 71.0439 302.723 70.9404 302.981 70.7334C303.243 70.5225 303.374 70.2451 303.374 69.9014ZM312.966 68.0557C312.966 68.8916 312.821 69.626 312.532 70.2588C312.243 70.8877 311.829 71.3721 311.29 71.7119C310.755 72.0479 310.138 72.2158 309.438 72.2158C308.747 72.2158 308.13 72.0479 307.587 71.7119C307.048 71.3721 306.63 70.8896 306.333 70.2646C306.04 69.6396 305.891 68.9189 305.888 68.1025V67.6221C305.888 66.79 306.034 66.0557 306.327 65.4189C306.624 64.7822 307.04 64.2959 307.575 63.96C308.114 63.6201 308.731 63.4502 309.427 63.4502C310.122 63.4502 310.737 63.6182 311.272 63.9541C311.811 64.2861 312.227 64.7666 312.52 65.3955C312.813 66.0205 312.962 66.749 312.966 67.5811V68.0557ZM311.483 67.6104C311.483 66.665 311.304 65.9404 310.944 65.4365C310.589 64.9326 310.083 64.6807 309.427 64.6807C308.786 64.6807 308.284 64.9326 307.921 65.4365C307.561 65.9365 307.378 66.6455 307.37 67.5635V68.0557C307.37 68.9932 307.552 69.7178 307.915 70.2295C308.282 70.7412 308.79 70.9971 309.438 70.9971C310.095 70.9971 310.598 70.7471 310.95 70.2471C311.306 69.7471 311.483 69.0166 311.483 68.0557V67.6104ZM322.018 69.0576H323.079V70.2002H322.018V72.0986H320.595V70.2002H316.909L316.868 69.333L320.548 63.5674H322.018V69.0576ZM318.362 69.0576H320.595V65.4951L320.489 65.6826L318.362 69.0576ZM327.878 72.0986H326.46V65.249L324.368 65.9639V64.7627L327.696 63.5381H327.878V72.0986Z" fill="black"/>
<rect x="297.947" y="75.7535" width="46.2579" height="33.7324" rx="4.5" fill="#A8D0FF" fill-opacity="0.95" stroke="#4F4F4F"/>
<path d="M310.324 94.9858C310.324 94.6108 310.191 94.3218 309.925 94.1187C309.663 93.9155 309.189 93.7104 308.501 93.5034C307.814 93.2964 307.267 93.0659 306.861 92.812C306.083 92.3237 305.695 91.687 305.695 90.9019C305.695 90.2144 305.974 89.6479 306.533 89.2026C307.095 88.7573 307.824 88.5347 308.718 88.5347C309.312 88.5347 309.841 88.644 310.306 88.8628C310.771 89.0815 311.136 89.394 311.402 89.8003C311.667 90.2026 311.8 90.6499 311.8 91.1421H310.324C310.324 90.6968 310.183 90.3491 309.902 90.0991C309.624 89.8452 309.226 89.7183 308.706 89.7183C308.222 89.7183 307.845 89.8218 307.576 90.0288C307.31 90.2358 307.177 90.5249 307.177 90.896C307.177 91.2085 307.322 91.4702 307.611 91.6812C307.9 91.8882 308.376 92.0913 309.04 92.2905C309.704 92.4858 310.238 92.7104 310.64 92.9644C311.042 93.2144 311.337 93.5034 311.525 93.8315C311.712 94.1558 311.806 94.5366 311.806 94.9741C311.806 95.6851 311.533 96.2515 310.986 96.6733C310.443 97.0913 309.704 97.3003 308.771 97.3003C308.154 97.3003 307.585 97.187 307.066 96.9604C306.55 96.73 306.148 96.4136 305.859 96.0112C305.574 95.6089 305.431 95.1401 305.431 94.605H306.913C306.913 95.0894 307.074 95.4644 307.394 95.73C307.714 95.9956 308.173 96.1284 308.771 96.1284C309.286 96.1284 309.673 96.0249 309.931 95.8179C310.193 95.6069 310.324 95.3296 310.324 94.9858ZM319.915 93.1401C319.915 93.9761 319.771 94.7104 319.482 95.3433C319.193 95.9722 318.779 96.4565 318.24 96.7964C317.704 97.1323 317.087 97.3003 316.388 97.3003C315.697 97.3003 315.079 97.1323 314.536 96.7964C313.997 96.4565 313.579 95.9741 313.283 95.3491C312.99 94.7241 312.841 94.0034 312.837 93.187V92.7065C312.837 91.8745 312.984 91.1401 313.277 90.5034C313.574 89.8667 313.99 89.3804 314.525 89.0444C315.064 88.7046 315.681 88.5347 316.376 88.5347C317.072 88.5347 317.687 88.7026 318.222 89.0386C318.761 89.3706 319.177 89.8511 319.47 90.48C319.763 91.105 319.911 91.8335 319.915 92.6655V93.1401ZM318.433 92.6948C318.433 91.7495 318.253 91.0249 317.894 90.521C317.538 90.0171 317.033 89.7651 316.376 89.7651C315.736 89.7651 315.234 90.0171 314.87 90.521C314.511 91.021 314.327 91.73 314.32 92.6479V93.1401C314.32 94.0776 314.501 94.8022 314.865 95.314C315.232 95.8257 315.74 96.0815 316.388 96.0815C317.044 96.0815 317.548 95.8315 317.9 95.3315C318.255 94.8315 318.433 94.1011 318.433 93.1401V92.6948ZM328.968 94.1421H330.029V95.2847H328.968V97.1831H327.544V95.2847H323.859L323.818 94.4175L327.497 88.6519H328.968V94.1421ZM325.312 94.1421H327.544V90.5796L327.439 90.7671L325.312 94.1421ZM336.708 97.1831H330.972V96.2046L333.814 93.105C334.224 92.6479 334.515 92.2671 334.687 91.9624C334.863 91.6538 334.951 91.3452 334.951 91.0366C334.951 90.6304 334.835 90.3022 334.605 90.0522C334.378 89.8022 334.072 89.6772 333.685 89.6772C333.224 89.6772 332.867 89.8179 332.613 90.0991C332.359 90.3804 332.232 90.7651 332.232 91.2534H330.808C330.808 90.7339 330.925 90.2671 331.16 89.853C331.398 89.4351 331.736 89.1108 332.173 88.8804C332.615 88.6499 333.122 88.5347 333.697 88.5347C334.525 88.5347 335.177 88.7437 335.654 89.1616C336.134 89.5757 336.374 90.1499 336.374 90.8843C336.374 91.3101 336.253 91.7573 336.011 92.2261C335.773 92.6909 335.38 93.2202 334.833 93.814L332.747 96.0464H336.708V97.1831Z" fill="black"/>
<rect x="306.286" y="100.838" width="46.2579" height="33.7324" rx="4.5" fill="#A8D0FF" fill-opacity="0.95" stroke="#4F4F4F"/>
<path d="M318.663 120.07C318.663 119.695 318.53 119.406 318.265 119.203C318.003 119 317.528 118.795 316.841 118.588C316.153 118.381 315.607 118.15 315.2 117.896C314.423 117.408 314.034 116.771 314.034 115.986C314.034 115.299 314.314 114.732 314.872 114.287C315.435 113.842 316.163 113.619 317.058 113.619C317.652 113.619 318.181 113.729 318.646 113.947C319.111 114.166 319.476 114.479 319.741 114.885C320.007 115.287 320.14 115.734 320.14 116.227H318.663C318.663 115.781 318.523 115.434 318.241 115.184C317.964 114.93 317.566 114.803 317.046 114.803C316.562 114.803 316.185 114.906 315.915 115.113C315.65 115.32 315.517 115.609 315.517 115.98C315.517 116.293 315.661 116.555 315.95 116.766C316.239 116.973 316.716 117.176 317.38 117.375C318.044 117.57 318.577 117.795 318.98 118.049C319.382 118.299 319.677 118.588 319.864 118.916C320.052 119.24 320.146 119.621 320.146 120.059C320.146 120.77 319.872 121.336 319.325 121.758C318.782 122.176 318.044 122.385 317.111 122.385C316.493 122.385 315.925 122.271 315.405 122.045C314.89 121.814 314.487 121.498 314.198 121.096C313.913 120.693 313.771 120.225 313.771 119.689H315.253C315.253 120.174 315.413 120.549 315.734 120.814C316.054 121.08 316.513 121.213 317.111 121.213C317.626 121.213 318.013 121.109 318.271 120.902C318.532 120.691 318.663 120.414 318.663 120.07ZM328.255 118.225C328.255 119.061 328.111 119.795 327.821 120.428C327.532 121.057 327.118 121.541 326.579 121.881C326.044 122.217 325.427 122.385 324.728 122.385C324.036 122.385 323.419 122.217 322.876 121.881C322.337 121.541 321.919 121.059 321.622 120.434C321.329 119.809 321.181 119.088 321.177 118.271V117.791C321.177 116.959 321.323 116.225 321.616 115.588C321.913 114.951 322.329 114.465 322.864 114.129C323.403 113.789 324.021 113.619 324.716 113.619C325.411 113.619 326.027 113.787 326.562 114.123C327.101 114.455 327.517 114.936 327.81 115.564C328.103 116.189 328.251 116.918 328.255 117.75V118.225ZM326.773 117.779C326.773 116.834 326.593 116.109 326.234 115.605C325.878 115.102 325.372 114.85 324.716 114.85C324.075 114.85 323.573 115.102 323.21 115.605C322.851 116.105 322.667 116.814 322.659 117.732V118.225C322.659 119.162 322.841 119.887 323.204 120.398C323.571 120.91 324.079 121.166 324.728 121.166C325.384 121.166 325.888 120.916 326.239 120.416C326.595 119.916 326.773 119.186 326.773 118.225V117.779ZM332.872 118.037L333.335 113.736H337.917V114.967H334.519L334.284 117.006C334.679 116.779 335.124 116.666 335.62 116.666C336.433 116.666 337.064 116.926 337.513 117.445C337.966 117.965 338.193 118.664 338.193 119.543C338.193 120.41 337.943 121.102 337.443 121.617C336.943 122.129 336.257 122.385 335.386 122.385C334.605 122.385 333.956 122.164 333.441 121.723C332.929 121.277 332.652 120.691 332.609 119.965H333.986C334.04 120.379 334.189 120.697 334.431 120.92C334.673 121.139 334.989 121.248 335.38 121.248C335.818 121.248 336.157 121.092 336.4 120.779C336.646 120.467 336.769 120.041 336.769 119.502C336.769 118.982 336.634 118.572 336.364 118.271C336.095 117.967 335.724 117.814 335.251 117.814C334.993 117.814 334.775 117.85 334.595 117.92C334.415 117.986 334.22 118.119 334.009 118.318L332.872 118.037ZM343.167 122.268H341.749V115.418L339.657 116.133V114.932L342.986 113.707H343.167V122.268Z" fill="black"/>
<path d="M297.756 10.7598C297.656 11.8216 297.264 12.651 296.58 13.248C295.897 13.8405 294.988 14.1367 293.853 14.1367C293.06 14.1367 292.36 13.9499 291.754 13.5762C291.153 13.1979 290.688 12.6624 290.36 11.9697C290.032 11.277 289.861 10.4727 289.847 9.55664V8.62695C289.847 7.68815 290.013 6.861 290.346 6.14551C290.679 5.43001 291.155 4.87858 291.775 4.49121C292.399 4.10384 293.119 3.91016 293.935 3.91016C295.033 3.91016 295.917 4.20866 296.587 4.80566C297.257 5.40267 297.647 6.24577 297.756 7.33496H296.033C295.951 6.61947 295.742 6.10449 295.405 5.79004C295.072 5.47103 294.582 5.31152 293.935 5.31152C293.183 5.31152 292.604 5.58724 292.198 6.13867C291.797 6.68555 291.592 7.48991 291.583 8.55176V9.43359C291.583 10.5091 291.775 11.3294 292.157 11.8945C292.545 12.4596 293.11 12.7422 293.853 12.7422C294.532 12.7422 295.042 12.5895 295.384 12.2842C295.726 11.9788 295.942 11.4707 296.033 10.7598H297.756ZM303.628 13.2754C303.141 13.8496 302.448 14.1367 301.55 14.1367C300.748 14.1367 300.14 13.902 299.725 13.4326C299.315 12.9632 299.11 12.2842 299.11 11.3955V6.60352H300.771V11.375C300.771 12.3138 301.16 12.7832 301.94 12.7832C302.746 12.7832 303.291 12.4938 303.573 11.915V6.60352H305.235V14H303.669L303.628 13.2754ZM311.073 11.9902C311.073 11.694 310.949 11.4684 310.703 11.3135C310.462 11.1585 310.059 11.0218 309.493 10.9033C308.928 10.7848 308.457 10.6344 308.078 10.4521C307.249 10.0511 306.834 9.47005 306.834 8.70898C306.834 8.07096 307.103 7.53776 307.641 7.10937C308.179 6.68099 308.862 6.4668 309.692 6.4668C310.576 6.4668 311.289 6.68555 311.831 7.12305C312.378 7.56055 312.652 8.12793 312.652 8.8252H310.99C310.99 8.50618 310.872 8.24186 310.635 8.03223C310.398 7.81803 310.084 7.71094 309.692 7.71094C309.327 7.71094 309.029 7.79525 308.796 7.96387C308.568 8.13249 308.454 8.35807 308.454 8.64062C308.454 8.89583 308.561 9.09408 308.776 9.23535C308.99 9.37663 309.423 9.52018 310.074 9.66602C310.726 9.80729 311.237 9.97819 311.606 10.1787C311.979 10.3747 312.255 10.6117 312.433 10.8896C312.615 11.1676 312.706 11.5049 312.706 11.9014C312.706 12.5667 312.431 13.1068 311.879 13.5215C311.328 13.9316 310.605 14.1367 309.712 14.1367C309.106 14.1367 308.566 14.0273 308.092 13.8086C307.618 13.5898 307.249 13.2891 306.985 12.9062C306.72 12.5234 306.588 12.111 306.588 11.6689H308.201C308.224 12.0609 308.372 12.3639 308.646 12.5781C308.919 12.7878 309.282 12.8926 309.733 12.8926C310.17 12.8926 310.503 12.8105 310.731 12.6465C310.959 12.4779 311.073 12.2591 311.073 11.9902ZM316.24 4.80566V6.60352H317.546V7.83398H316.24V11.9629C316.24 12.2454 316.295 12.4505 316.405 12.5781C316.518 12.7012 316.719 12.7627 317.006 12.7627C317.198 12.7627 317.391 12.7399 317.587 12.6943V13.9795C317.209 14.0843 316.844 14.1367 316.493 14.1367C315.217 14.1367 314.579 13.4326 314.579 12.0244V7.83398H313.363V6.60352H314.579V4.80566H316.24ZM328.285 9.55664H324.198V12.6191H328.976V14H322.468V4.04687H328.928V5.44141H324.198V8.18945H328.285V9.55664Z" fill="black"/>
<rect x="218.72" y="23.6549" width="46.2579" height="33.7324" rx="4.5" fill="#A8D0FF" fill-opacity="0.95" stroke="#4F4F4F"/>
<path d="M231.097 42.8872C231.097 42.5122 230.964 42.2231 230.699 42.02C230.437 41.8169 229.962 41.6118 229.275 41.4048C228.587 41.1978 228.041 40.9673 227.634 40.7134C226.857 40.2251 226.468 39.5884 226.468 38.8032C226.468 38.1157 226.748 37.5493 227.306 37.104C227.869 36.6587 228.597 36.436 229.492 36.436C230.085 36.436 230.615 36.5454 231.08 36.7642C231.544 36.9829 231.91 37.2954 232.175 37.7017C232.441 38.104 232.574 38.5513 232.574 39.0435H231.097C231.097 38.5981 230.957 38.2505 230.675 38.0005C230.398 37.7466 229.999 37.6196 229.48 37.6196C228.996 37.6196 228.619 37.7231 228.349 37.9302C228.083 38.1372 227.951 38.4263 227.951 38.7974C227.951 39.1099 228.095 39.3716 228.384 39.5825C228.673 39.7896 229.15 39.9927 229.814 40.1919C230.478 40.3872 231.011 40.6118 231.414 40.8657C231.816 41.1157 232.111 41.4048 232.298 41.7329C232.486 42.0571 232.58 42.438 232.58 42.8755C232.58 43.5864 232.306 44.1528 231.759 44.5747C231.216 44.9927 230.478 45.2017 229.544 45.2017C228.927 45.2017 228.359 45.0884 227.839 44.8618C227.324 44.6313 226.921 44.3149 226.632 43.9126C226.347 43.5103 226.205 43.0415 226.205 42.5063H227.687C227.687 42.9907 227.847 43.3657 228.167 43.6313C228.488 43.897 228.947 44.0298 229.544 44.0298C230.06 44.0298 230.447 43.9263 230.705 43.7192C230.966 43.5083 231.097 43.231 231.097 42.8872ZM240.689 41.0415C240.689 41.8774 240.544 42.6118 240.255 43.2446C239.966 43.8735 239.552 44.3579 239.013 44.6978C238.478 45.0337 237.861 45.2017 237.162 45.2017C236.47 45.2017 235.853 45.0337 235.31 44.6978C234.771 44.3579 234.353 43.8755 234.056 43.2505C233.763 42.6255 233.615 41.9048 233.611 41.0884V40.6079C233.611 39.7759 233.757 39.0415 234.05 38.4048C234.347 37.7681 234.763 37.2817 235.298 36.9458C235.837 36.606 236.455 36.436 237.15 36.436C237.845 36.436 238.46 36.604 238.996 36.9399C239.535 37.272 239.951 37.7524 240.244 38.3813C240.537 39.0063 240.685 39.7349 240.689 40.5669V41.0415ZM239.207 40.5962C239.207 39.6509 239.027 38.9263 238.667 38.4224C238.312 37.9185 237.806 37.6665 237.15 37.6665C236.509 37.6665 236.007 37.9185 235.644 38.4224C235.285 38.9224 235.101 39.6313 235.093 40.5493V41.0415C235.093 41.979 235.275 42.7036 235.638 43.2153C236.005 43.7271 236.513 43.9829 237.162 43.9829C237.818 43.9829 238.322 43.7329 238.673 43.2329C239.029 42.7329 239.207 42.0024 239.207 41.0415V40.5962ZM248.781 45.0845H247.363V38.2349L245.271 38.9497V37.7485L248.599 36.5239H248.781V45.0845ZM255.601 45.0845H254.183V38.2349L252.091 38.9497V37.7485L255.419 36.5239H255.601V45.0845Z" fill="black"/>
<rect x="224.28" y="48.7395" width="46.2579" height="33.7324" rx="4.5" fill="#A8D0FF" fill-opacity="0.95" stroke="#4F4F4F"/>
<path d="M236.657 69.9014C236.657 69.5264 236.524 69.2373 236.258 69.0342C235.997 68.8311 235.522 68.626 234.835 68.4189C234.147 68.2119 233.6 67.9814 233.194 67.7275C232.417 67.2393 232.028 66.6025 232.028 65.8174C232.028 65.1299 232.307 64.5635 232.866 64.1182C233.428 63.6729 234.157 63.4502 235.051 63.4502C235.645 63.4502 236.174 63.5596 236.639 63.7783C237.104 63.9971 237.469 64.3096 237.735 64.7158C238.001 65.1182 238.133 65.5654 238.133 66.0576H236.657C236.657 65.6123 236.516 65.2646 236.235 65.0146C235.958 64.7607 235.559 64.6338 235.04 64.6338C234.555 64.6338 234.178 64.7373 233.909 64.9443C233.643 65.1514 233.51 65.4404 233.51 65.8115C233.51 66.124 233.655 66.3857 233.944 66.5967C234.233 66.8037 234.71 67.0068 235.374 67.2061C236.038 67.4014 236.571 67.626 236.973 67.8799C237.376 68.1299 237.671 68.4189 237.858 68.7471C238.046 69.0713 238.139 69.4521 238.139 69.8896C238.139 70.6006 237.866 71.167 237.319 71.5889C236.776 72.0068 236.038 72.2158 235.104 72.2158C234.487 72.2158 233.919 72.1025 233.399 71.876C232.883 71.6455 232.481 71.3291 232.192 70.9268C231.907 70.5244 231.764 70.0557 231.764 69.5205H233.247C233.247 70.0049 233.407 70.3799 233.727 70.6455C234.047 70.9111 234.506 71.0439 235.104 71.0439C235.62 71.0439 236.006 70.9404 236.264 70.7334C236.526 70.5225 236.657 70.2451 236.657 69.9014ZM246.249 68.0557C246.249 68.8916 246.104 69.626 245.815 70.2588C245.526 70.8877 245.112 71.3721 244.573 71.7119C244.038 72.0479 243.421 72.2158 242.721 72.2158C242.03 72.2158 241.413 72.0479 240.87 71.7119C240.331 71.3721 239.913 70.8896 239.616 70.2646C239.323 69.6396 239.174 68.9189 239.171 68.1025V67.6221C239.171 66.79 239.317 66.0557 239.61 65.4189C239.907 64.7822 240.323 64.2959 240.858 63.96C241.397 63.6201 242.014 63.4502 242.71 63.4502C243.405 63.4502 244.02 63.6182 244.555 63.9541C245.094 64.2861 245.51 64.7666 245.803 65.3955C246.096 66.0205 246.245 66.749 246.249 67.5811V68.0557ZM244.766 67.6104C244.766 66.665 244.587 65.9404 244.227 65.4365C243.872 64.9326 243.366 64.6807 242.71 64.6807C242.069 64.6807 241.567 64.9326 241.204 65.4365C240.844 65.9365 240.661 66.6455 240.653 67.5635V68.0557C240.653 68.9932 240.835 69.7178 241.198 70.2295C241.565 70.7412 242.073 70.9971 242.721 70.9971C243.378 70.9971 243.881 70.7471 244.233 70.2471C244.588 69.7471 244.766 69.0166 244.766 68.0557V67.6104ZM256.221 72.0986H250.485V71.1201L253.327 68.0205C253.737 67.5635 254.028 67.1826 254.2 66.8779C254.376 66.5693 254.463 66.2607 254.463 65.9521C254.463 65.5459 254.348 65.2178 254.118 64.9678C253.891 64.7178 253.585 64.5928 253.198 64.5928C252.737 64.5928 252.379 64.7334 252.126 65.0146C251.872 65.2959 251.745 65.6807 251.745 66.1689H250.321C250.321 65.6494 250.438 65.1826 250.672 64.7686C250.911 64.3506 251.249 64.0264 251.686 63.7959C252.128 63.5654 252.635 63.4502 253.21 63.4502C254.038 63.4502 254.69 63.6592 255.167 64.0771C255.647 64.4912 255.887 65.0654 255.887 65.7998C255.887 66.2256 255.766 66.6729 255.524 67.1416C255.286 67.6064 254.893 68.1357 254.346 68.7295L252.26 70.9619H256.221V72.0986ZM262.122 69.0576H263.182V70.2002H262.122V72.0986H260.698V70.2002H257.012L256.971 69.333L260.651 63.5674H262.122V69.0576ZM258.465 69.0576H260.698V65.4951L260.592 65.6826L258.465 69.0576Z" fill="black"/>
<path d="M230.424 10.7598C230.324 11.8216 229.932 12.651 229.248 13.248C228.565 13.8405 227.655 14.1367 226.521 14.1367C225.728 14.1367 225.028 13.9499 224.422 13.5762C223.82 13.1979 223.356 12.6624 223.027 11.9697C222.699 11.277 222.528 10.4727 222.515 9.55664V8.62695C222.515 7.68815 222.681 6.861 223.014 6.14551C223.346 5.43001 223.823 4.87858 224.442 4.49121C225.067 4.10384 225.787 3.91016 226.603 3.91016C227.701 3.91016 228.585 4.20866 229.255 4.80566C229.925 5.40267 230.315 6.24577 230.424 7.33496H228.701C228.619 6.61947 228.41 6.10449 228.072 5.79004C227.74 5.47103 227.25 5.31152 226.603 5.31152C225.851 5.31152 225.272 5.58724 224.866 6.13867C224.465 6.68555 224.26 7.48991 224.251 8.55176V9.43359C224.251 10.5091 224.442 11.3294 224.825 11.8945C225.213 12.4596 225.778 12.7422 226.521 12.7422C227.2 12.7422 227.71 12.5895 228.052 12.2842C228.394 11.9788 228.61 11.4707 228.701 10.7598H230.424ZM236.296 13.2754C235.808 13.8496 235.116 14.1367 234.218 14.1367C233.416 14.1367 232.807 13.902 232.393 13.4326C231.982 12.9632 231.777 12.2842 231.777 11.3955V6.60352H233.439V11.375C233.439 12.3138 233.828 12.7832 234.607 12.7832C235.414 12.7832 235.959 12.4938 236.241 11.915V6.60352H237.902V14H236.337L236.296 13.2754ZM243.74 11.9902C243.74 11.694 243.617 11.4684 243.371 11.3135C243.13 11.1585 242.726 11.0218 242.161 10.9033C241.596 10.7848 241.124 10.6344 240.746 10.4521C239.917 10.0511 239.502 9.47005 239.502 8.70898C239.502 8.07096 239.771 7.53776 240.309 7.10937C240.846 6.68099 241.53 6.4668 242.359 6.4668C243.244 6.4668 243.957 6.68555 244.499 7.12305C245.046 7.56055 245.319 8.12793 245.319 8.8252H243.658C243.658 8.50618 243.54 8.24186 243.303 8.03223C243.066 7.81803 242.751 7.71094 242.359 7.71094C241.995 7.71094 241.696 7.79525 241.464 7.96387C241.236 8.13249 241.122 8.35807 241.122 8.64062C241.122 8.89583 241.229 9.09408 241.443 9.23535C241.658 9.37663 242.091 9.52018 242.742 9.66602C243.394 9.80729 243.904 9.97819 244.274 10.1787C244.647 10.3747 244.923 10.6117 245.101 10.8896C245.283 11.1676 245.374 11.5049 245.374 11.9014C245.374 12.5667 245.098 13.1068 244.547 13.5215C243.996 13.9316 243.273 14.1367 242.38 14.1367C241.774 14.1367 241.234 14.0273 240.76 13.8086C240.286 13.5898 239.917 13.2891 239.652 12.9062C239.388 12.5234 239.256 12.111 239.256 11.6689H240.869C240.892 12.0609 241.04 12.3639 241.314 12.5781C241.587 12.7878 241.949 12.8926 242.4 12.8926C242.838 12.8926 243.171 12.8105 243.399 12.6465C243.626 12.4779 243.74 12.2591 243.74 11.9902ZM248.908 4.80566V6.60352H250.214V7.83398H248.908V11.9629C248.908 12.2454 248.963 12.4505 249.072 12.5781C249.186 12.7012 249.387 12.7627 249.674 12.7627C249.865 12.7627 250.059 12.7399 250.255 12.6943V13.9795C249.877 14.0843 249.512 14.1367 249.161 14.1367C247.885 14.1367 247.247 13.4326 247.247 12.0244V7.83398H246.03V6.60352H247.247V4.80566H248.908ZM255.136 14V4.04687H258.075C258.955 4.04687 259.734 4.24284 260.413 4.63477C261.097 5.02669 261.625 5.58268 261.999 6.30273C262.373 7.02279 262.56 7.84766 262.56 8.77734V9.27637C262.56 10.2197 262.371 11.0492 261.992 11.7646C261.619 12.4801 261.083 13.0316 260.386 13.4189C259.693 13.8063 258.898 14 258 14H255.136ZM256.865 5.44141V12.6191H257.993C258.9 12.6191 259.595 12.3366 260.078 11.7715C260.566 11.2018 260.814 10.3861 260.823 9.32422V8.77051C260.823 7.69043 260.589 6.86556 260.119 6.2959C259.65 5.72624 258.968 5.44141 258.075 5.44141H256.865Z" fill="black"/>
<rect x="145.053" y="23.6549" width="46.2579" height="33.7324" rx="4.5" fill="#A8D0FF" fill-opacity="0.95" stroke="#4F4F4F"/>
<path d="M160.841 42.8872C160.841 42.5122 160.708 42.2231 160.442 42.02C160.18 41.8169 159.706 41.6118 159.018 41.4048C158.331 41.1978 157.784 40.9673 157.378 40.7134C156.6 40.2251 156.212 39.5884 156.212 38.8032C156.212 38.1157 156.491 37.5493 157.05 37.104C157.612 36.6587 158.341 36.436 159.235 36.436C159.829 36.436 160.358 36.5454 160.823 36.7642C161.288 36.9829 161.653 37.2954 161.919 37.7017C162.184 38.104 162.317 38.5513 162.317 39.0435H160.841C160.841 38.5981 160.7 38.2505 160.419 38.0005C160.141 37.7466 159.743 37.6196 159.223 37.6196C158.739 37.6196 158.362 37.7231 158.093 37.9302C157.827 38.1372 157.694 38.4263 157.694 38.7974C157.694 39.1099 157.839 39.3716 158.128 39.5825C158.417 39.7896 158.893 39.9927 159.557 40.1919C160.221 40.3872 160.755 40.6118 161.157 40.8657C161.559 41.1157 161.854 41.4048 162.042 41.7329C162.229 42.0571 162.323 42.438 162.323 42.8755C162.323 43.5864 162.05 44.1528 161.503 44.5747C160.96 44.9927 160.221 45.2017 159.288 45.2017C158.671 45.2017 158.102 45.0884 157.583 44.8618C157.067 44.6313 156.665 44.3149 156.376 43.9126C156.091 43.5103 155.948 43.0415 155.948 42.5063H157.43C157.43 42.9907 157.591 43.3657 157.911 43.6313C158.231 43.897 158.69 44.0298 159.288 44.0298C159.803 44.0298 160.19 43.9263 160.448 43.7192C160.71 43.5083 160.841 43.231 160.841 42.8872ZM170.432 41.0415C170.432 41.8774 170.288 42.6118 169.999 43.2446C169.71 43.8735 169.296 44.3579 168.757 44.6978C168.221 45.0337 167.604 45.2017 166.905 45.2017C166.214 45.2017 165.596 45.0337 165.053 44.6978C164.514 44.3579 164.096 43.8755 163.8 43.2505C163.507 42.6255 163.358 41.9048 163.354 41.0884V40.6079C163.354 39.7759 163.501 39.0415 163.794 38.4048C164.091 37.7681 164.507 37.2817 165.042 36.9458C165.581 36.606 166.198 36.436 166.893 36.436C167.589 36.436 168.204 36.604 168.739 36.9399C169.278 37.272 169.694 37.7524 169.987 38.3813C170.28 39.0063 170.428 39.7349 170.432 40.5669V41.0415ZM168.95 40.5962C168.95 39.6509 168.77 38.9263 168.411 38.4224C168.055 37.9185 167.55 37.6665 166.893 37.6665C166.253 37.6665 165.751 37.9185 165.387 38.4224C165.028 38.9224 164.844 39.6313 164.837 40.5493V41.0415C164.837 41.979 165.018 42.7036 165.382 43.2153C165.749 43.7271 166.257 43.9829 166.905 43.9829C167.561 43.9829 168.065 43.7329 168.417 43.2329C168.772 42.7329 168.95 42.0024 168.95 41.0415V40.5962ZM175.05 40.854L175.512 36.5532H180.094V37.7837H176.696L176.462 39.8228C176.856 39.5962 177.301 39.4829 177.798 39.4829C178.61 39.4829 179.241 39.7427 179.69 40.2622C180.143 40.7817 180.37 41.481 180.37 42.3599C180.37 43.2271 180.12 43.9185 179.62 44.4341C179.12 44.9458 178.434 45.2017 177.563 45.2017C176.782 45.2017 176.134 44.981 175.618 44.5396C175.106 44.0942 174.829 43.5083 174.786 42.7817H176.163C176.218 43.1958 176.366 43.5142 176.608 43.7368C176.85 43.9556 177.167 44.0649 177.557 44.0649C177.995 44.0649 178.335 43.9087 178.577 43.5962C178.823 43.2837 178.946 42.8579 178.946 42.3188C178.946 41.7993 178.811 41.3892 178.542 41.0884C178.272 40.7837 177.901 40.6313 177.428 40.6313C177.171 40.6313 176.952 40.6665 176.772 40.7368C176.593 40.8032 176.397 40.936 176.186 41.1353L175.05 40.854Z" fill="black"/>
<rect x="150.613" y="48.7395" width="46.2579" height="33.7324" rx="4.5" fill="#A8D0FF" fill-opacity="0.95" stroke="#4F4F4F"/>
<path d="M162.99 69.9014C162.99 69.5264 162.857 69.2373 162.592 69.0342C162.33 68.8311 161.855 68.626 161.168 68.4189C160.48 68.2119 159.934 67.9814 159.527 67.7275C158.75 67.2393 158.361 66.6025 158.361 65.8174C158.361 65.1299 158.641 64.5635 159.199 64.1182C159.762 63.6729 160.49 63.4502 161.385 63.4502C161.978 63.4502 162.508 63.5596 162.973 63.7783C163.437 63.9971 163.803 64.3096 164.068 64.7158C164.334 65.1182 164.467 65.5654 164.467 66.0576H162.99C162.99 65.6123 162.85 65.2646 162.568 65.0146C162.291 64.7607 161.893 64.6338 161.373 64.6338C160.889 64.6338 160.512 64.7373 160.242 64.9443C159.977 65.1514 159.844 65.4404 159.844 65.8115C159.844 66.124 159.988 66.3857 160.277 66.5967C160.566 66.8037 161.043 67.0068 161.707 67.2061C162.371 67.4014 162.904 67.626 163.307 67.8799C163.709 68.1299 164.004 68.4189 164.191 68.7471C164.379 69.0713 164.473 69.4521 164.473 69.8896C164.473 70.6006 164.199 71.167 163.652 71.5889C163.109 72.0068 162.371 72.2158 161.437 72.2158C160.82 72.2158 160.252 72.1025 159.732 71.876C159.217 71.6455 158.814 71.3291 158.525 70.9268C158.24 70.5244 158.098 70.0557 158.098 69.5205H159.58C159.58 70.0049 159.74 70.3799 160.061 70.6455C160.381 70.9111 160.84 71.0439 161.437 71.0439C161.953 71.0439 162.34 70.9404 162.598 70.7334C162.859 70.5225 162.99 70.2451 162.99 69.9014ZM172.582 68.0557C172.582 68.8916 172.437 69.626 172.148 70.2588C171.859 70.8877 171.445 71.3721 170.906 71.7119C170.371 72.0479 169.754 72.2158 169.055 72.2158C168.363 72.2158 167.746 72.0479 167.203 71.7119C166.664 71.3721 166.246 70.8896 165.949 70.2646C165.656 69.6396 165.508 68.9189 165.504 68.1025V67.6221C165.504 66.79 165.65 66.0557 165.943 65.4189C166.24 64.7822 166.656 64.2959 167.191 63.96C167.73 63.6201 168.348 63.4502 169.043 63.4502C169.738 63.4502 170.353 63.6182 170.889 63.9541C171.428 64.2861 171.844 64.7666 172.137 65.3955C172.43 66.0205 172.578 66.749 172.582 67.5811V68.0557ZM171.1 67.6104C171.1 66.665 170.92 65.9404 170.561 65.4365C170.205 64.9326 169.699 64.6807 169.043 64.6807C168.402 64.6807 167.9 64.9326 167.537 65.4365C167.178 65.9365 166.994 66.6455 166.986 67.5635V68.0557C166.986 68.9932 167.168 69.7178 167.531 70.2295C167.898 70.7412 168.406 70.9971 169.055 70.9971C169.711 70.9971 170.215 70.7471 170.566 70.2471C170.922 69.7471 171.1 69.0166 171.1 68.0557V67.6104ZM180.674 72.0986H179.256V65.249L177.164 65.9639V64.7627L180.492 63.5381H180.674V72.0986ZM187.676 68.5303C187.199 69.0342 186.643 69.2861 186.006 69.2861C185.256 69.2861 184.658 69.0244 184.213 68.501C183.768 67.9736 183.545 67.2822 183.545 66.4268C183.545 65.8643 183.658 65.3545 183.885 64.8975C184.111 64.4404 184.434 64.085 184.852 63.8311C185.27 63.5771 185.754 63.4502 186.305 63.4502C187.164 63.4502 187.846 63.7705 188.35 64.4111C188.853 65.0518 189.105 65.9092 189.105 66.9834V67.3818C189.105 68.9209 188.758 70.0947 188.062 70.9033C187.367 71.7119 186.33 72.1221 184.951 72.1338H184.781V70.9561H184.986C185.826 70.9443 186.471 70.7432 186.92 70.3525C187.369 69.958 187.621 69.3506 187.676 68.5303ZM186.305 68.1729C186.59 68.1729 186.857 68.0908 187.107 67.9268C187.357 67.7627 187.551 67.5361 187.687 67.2471V66.6904C187.687 66.0615 187.559 65.5557 187.301 65.1729C187.043 64.79 186.709 64.5986 186.299 64.5986C185.889 64.5986 185.561 64.7686 185.314 65.1084C185.072 65.4443 184.951 65.8701 184.951 66.3857C184.951 66.9209 185.074 67.3525 185.32 67.6807C185.566 68.0088 185.895 68.1729 186.305 68.1729Z" fill="black"/>
<rect x="157.563" y="75.7535" width="46.2579" height="33.7324" rx="4.5" fill="#A8D0FF" fill-opacity="0.95" stroke="#4F4F4F"/>
<path d="M169.94 94.9858C169.94 94.6108 169.807 94.3218 169.541 94.1187C169.28 93.9155 168.805 93.7104 168.118 93.5034C167.43 93.2964 166.883 93.0659 166.477 92.812C165.7 92.3237 165.311 91.687 165.311 90.9019C165.311 90.2144 165.59 89.6479 166.149 89.2026C166.711 88.7573 167.44 88.5347 168.334 88.5347C168.928 88.5347 169.458 88.644 169.922 88.8628C170.387 89.0815 170.752 89.394 171.018 89.8003C171.284 90.2026 171.416 90.6499 171.416 91.1421H169.94C169.94 90.6968 169.799 90.3491 169.518 90.0991C169.241 89.8452 168.842 89.7183 168.323 89.7183C167.838 89.7183 167.461 89.8218 167.192 90.0288C166.926 90.2358 166.793 90.5249 166.793 90.896C166.793 91.2085 166.938 91.4702 167.227 91.6812C167.516 91.8882 167.993 92.0913 168.657 92.2905C169.321 92.4858 169.854 92.7104 170.256 92.9644C170.659 93.2144 170.954 93.5034 171.141 93.8315C171.329 94.1558 171.422 94.5366 171.422 94.9741C171.422 95.6851 171.149 96.2515 170.602 96.6733C170.059 97.0913 169.321 97.3003 168.387 97.3003C167.77 97.3003 167.202 97.187 166.682 96.9604C166.166 96.73 165.764 96.4136 165.475 96.0112C165.19 95.6089 165.047 95.1401 165.047 94.605H166.53C166.53 95.0894 166.69 95.4644 167.01 95.73C167.331 95.9956 167.79 96.1284 168.387 96.1284C168.903 96.1284 169.29 96.0249 169.547 95.8179C169.809 95.6069 169.94 95.3296 169.94 94.9858ZM179.532 93.1401C179.532 93.9761 179.387 94.7104 179.098 95.3433C178.809 95.9722 178.395 96.4565 177.856 96.7964C177.321 97.1323 176.704 97.3003 176.004 97.3003C175.313 97.3003 174.696 97.1323 174.153 96.7964C173.614 96.4565 173.196 95.9741 172.899 95.3491C172.606 94.7241 172.458 94.0034 172.454 93.187V92.7065C172.454 91.8745 172.6 91.1401 172.893 90.5034C173.19 89.8667 173.606 89.3804 174.141 89.0444C174.68 88.7046 175.297 88.5347 175.993 88.5347C176.688 88.5347 177.303 88.7026 177.838 89.0386C178.377 89.3706 178.793 89.8511 179.086 90.48C179.379 91.105 179.528 91.8335 179.532 92.6655V93.1401ZM178.049 92.6948C178.049 91.7495 177.87 91.0249 177.51 90.521C177.155 90.0171 176.649 89.7651 175.993 89.7651C175.352 89.7651 174.85 90.0171 174.487 90.521C174.127 91.021 173.944 91.73 173.936 92.6479V93.1401C173.936 94.0776 174.118 94.8022 174.481 95.314C174.848 95.8257 175.356 96.0815 176.004 96.0815C176.661 96.0815 177.165 95.8315 177.516 95.3315C177.872 94.8315 178.049 94.1011 178.049 93.1401V92.6948ZM189.504 97.1831H183.768V96.2046L186.61 93.105C187.02 92.6479 187.311 92.2671 187.483 91.9624C187.659 91.6538 187.747 91.3452 187.747 91.0366C187.747 90.6304 187.631 90.3022 187.401 90.0522C187.174 89.8022 186.868 89.6772 186.481 89.6772C186.02 89.6772 185.663 89.8179 185.409 90.0991C185.155 90.3804 185.028 90.7651 185.028 91.2534H183.604C183.604 90.7339 183.721 90.2671 183.956 89.853C184.194 89.4351 184.532 89.1108 184.969 88.8804C185.411 88.6499 185.918 88.5347 186.493 88.5347C187.321 88.5347 187.973 88.7437 188.45 89.1616C188.93 89.5757 189.17 90.1499 189.17 90.8843C189.17 91.3101 189.049 91.7573 188.807 92.2261C188.569 92.6909 188.176 93.2202 187.629 93.814L185.543 96.0464H189.504V97.1831ZM196.325 97.1831H190.588V96.2046L193.43 93.105C193.84 92.6479 194.131 92.2671 194.303 91.9624C194.479 91.6538 194.567 91.3452 194.567 91.0366C194.567 90.6304 194.452 90.3022 194.221 90.0522C193.995 89.8022 193.688 89.6772 193.301 89.6772C192.84 89.6772 192.483 89.8179 192.229 90.0991C191.975 90.3804 191.848 90.7651 191.848 91.2534H190.424C190.424 90.7339 190.541 90.2671 190.776 89.853C191.014 89.4351 191.352 89.1108 191.79 88.8804C192.231 88.6499 192.739 88.5347 193.313 88.5347C194.141 88.5347 194.793 88.7437 195.27 89.1616C195.75 89.5757 195.991 90.1499 195.991 90.8843C195.991 91.3101 195.87 91.7573 195.627 92.2261C195.389 92.6909 194.997 93.2202 194.45 93.814L192.364 96.0464H196.325V97.1831Z" fill="black"/>
<rect x="165.902" y="100.838" width="46.2579" height="33.7324" rx="4.5" fill="#A8D0FF" fill-opacity="0.95" stroke="#4F4F4F"/>
<path d="M178.28 120.07C178.28 119.695 178.147 119.406 177.881 119.203C177.619 119 177.145 118.795 176.457 118.588C175.77 118.381 175.223 118.15 174.817 117.896C174.039 117.408 173.651 116.771 173.651 115.986C173.651 115.299 173.93 114.732 174.489 114.287C175.051 113.842 175.78 113.619 176.674 113.619C177.268 113.619 177.797 113.729 178.262 113.947C178.727 114.166 179.092 114.479 179.358 114.885C179.623 115.287 179.756 115.734 179.756 116.227H178.28C178.28 115.781 178.139 115.434 177.858 115.184C177.58 114.93 177.182 114.803 176.662 114.803C176.178 114.803 175.801 114.906 175.531 115.113C175.266 115.32 175.133 115.609 175.133 115.98C175.133 116.293 175.278 116.555 175.567 116.766C175.856 116.973 176.332 117.176 176.996 117.375C177.66 117.57 178.194 117.795 178.596 118.049C178.998 118.299 179.293 118.588 179.481 118.916C179.668 119.24 179.762 119.621 179.762 120.059C179.762 120.77 179.489 121.336 178.942 121.758C178.399 122.176 177.66 122.385 176.727 122.385C176.11 122.385 175.541 122.271 175.022 122.045C174.506 121.814 174.104 121.498 173.815 121.096C173.53 120.693 173.387 120.225 173.387 119.689H174.869C174.869 120.174 175.03 120.549 175.35 120.814C175.67 121.08 176.129 121.213 176.727 121.213C177.242 121.213 177.629 121.109 177.887 120.902C178.149 120.691 178.28 120.414 178.28 120.07ZM187.871 118.225C187.871 119.061 187.727 119.795 187.438 120.428C187.149 121.057 186.735 121.541 186.196 121.881C185.66 122.217 185.043 122.385 184.344 122.385C183.653 122.385 183.035 122.217 182.492 121.881C181.953 121.541 181.535 121.059 181.239 120.434C180.946 119.809 180.797 119.088 180.793 118.271V117.791C180.793 116.959 180.94 116.225 181.233 115.588C181.53 114.951 181.946 114.465 182.481 114.129C183.02 113.789 183.637 113.619 184.332 113.619C185.028 113.619 185.643 113.787 186.178 114.123C186.717 114.455 187.133 114.936 187.426 115.564C187.719 116.189 187.867 116.918 187.871 117.75V118.225ZM186.389 117.779C186.389 116.834 186.209 116.109 185.85 115.605C185.494 115.102 184.989 114.85 184.332 114.85C183.692 114.85 183.19 115.102 182.826 115.605C182.467 116.105 182.283 116.814 182.276 117.732V118.225C182.276 119.162 182.457 119.887 182.821 120.398C183.188 120.91 183.696 121.166 184.344 121.166C185 121.166 185.504 120.916 185.856 120.416C186.211 119.916 186.389 119.186 186.389 118.225V117.779ZM193.754 117.352H194.621C195.059 117.348 195.405 117.234 195.658 117.012C195.916 116.789 196.045 116.467 196.045 116.045C196.045 115.639 195.938 115.324 195.723 115.102C195.512 114.875 195.188 114.762 194.75 114.762C194.367 114.762 194.053 114.873 193.807 115.096C193.561 115.314 193.438 115.602 193.438 115.957H192.014C192.014 115.52 192.129 115.121 192.36 114.762C192.594 114.402 192.918 114.123 193.332 113.924C193.75 113.721 194.217 113.619 194.733 113.619C195.584 113.619 196.252 113.834 196.737 114.264C197.225 114.689 197.469 115.283 197.469 116.045C197.469 116.428 197.346 116.789 197.1 117.129C196.858 117.465 196.543 117.719 196.156 117.891C196.625 118.051 196.981 118.303 197.223 118.646C197.469 118.99 197.592 119.4 197.592 119.877C197.592 120.643 197.328 121.252 196.801 121.705C196.278 122.158 195.588 122.385 194.733 122.385C193.912 122.385 193.24 122.166 192.717 121.729C192.194 121.291 191.932 120.709 191.932 119.982H193.356C193.356 120.357 193.481 120.662 193.731 120.896C193.985 121.131 194.324 121.248 194.75 121.248C195.192 121.248 195.539 121.131 195.793 120.896C196.047 120.662 196.174 120.322 196.174 119.877C196.174 119.428 196.041 119.082 195.776 118.84C195.51 118.598 195.115 118.477 194.592 118.477H193.754V117.352ZM202.783 122.268H201.365V115.418L199.274 116.133V114.932L202.602 113.707H202.783V122.268Z" fill="black"/>
<path d="M156.757 10.7598C156.657 11.8216 156.265 12.651 155.581 13.248C154.898 13.8405 153.989 14.1367 152.854 14.1367C152.061 14.1367 151.361 13.9499 150.755 13.5762C150.154 13.1979 149.689 12.6624 149.361 11.9697C149.033 11.277 148.862 10.4727 148.848 9.55664V8.62695C148.848 7.68815 149.014 6.861 149.347 6.14551C149.68 5.43001 150.156 4.87858 150.776 4.49121C151.4 4.10384 152.12 3.91016 152.936 3.91016C154.034 3.91016 154.918 4.20866 155.588 4.80566C156.258 5.40267 156.648 6.24577 156.757 7.33496H155.035C154.953 6.61947 154.743 6.10449 154.406 5.79004C154.073 5.47103 153.583 5.31152 152.936 5.31152C152.184 5.31152 151.605 5.58724 151.2 6.13867C150.799 6.68555 150.594 7.48991 150.584 8.55176V9.43359C150.584 10.5091 150.776 11.3294 151.159 11.8945C151.546 12.4596 152.111 12.7422 152.854 12.7422C153.533 12.7422 154.043 12.5895 154.385 12.2842C154.727 11.9788 154.943 11.4707 155.035 10.7598H156.757ZM162.629 13.2754C162.142 13.8496 161.449 14.1367 160.551 14.1367C159.749 14.1367 159.141 13.902 158.726 13.4326C158.316 12.9632 158.111 12.2842 158.111 11.3955V6.60352H159.772V11.375C159.772 12.3138 160.162 12.7832 160.941 12.7832C161.748 12.7832 162.292 12.4938 162.575 11.915V6.60352H164.236V14H162.67L162.629 13.2754ZM170.074 11.9902C170.074 11.694 169.951 11.4684 169.705 11.3135C169.463 11.1585 169.06 11.0218 168.495 10.9033C167.929 10.7848 167.458 10.6344 167.08 10.4521C166.25 10.0511 165.835 9.47005 165.835 8.70898C165.835 8.07096 166.104 7.53776 166.642 7.10937C167.18 6.68099 167.863 6.4668 168.693 6.4668C169.577 6.4668 170.29 6.68555 170.832 7.12305C171.379 7.56055 171.653 8.12793 171.653 8.8252H169.992C169.992 8.50618 169.873 8.24186 169.636 8.03223C169.399 7.81803 169.085 7.71094 168.693 7.71094C168.328 7.71094 168.03 7.79525 167.797 7.96387C167.569 8.13249 167.456 8.35807 167.456 8.64062C167.456 8.89583 167.563 9.09408 167.777 9.23535C167.991 9.37663 168.424 9.52018 169.076 9.66602C169.727 9.80729 170.238 9.97819 170.607 10.1787C170.981 10.3747 171.256 10.6117 171.434 10.8896C171.616 11.1676 171.707 11.5049 171.707 11.9014C171.707 12.5667 171.432 13.1068 170.88 13.5215C170.329 13.9316 169.607 14.1367 168.713 14.1367C168.107 14.1367 167.567 14.0273 167.093 13.8086C166.619 13.5898 166.25 13.2891 165.986 12.9062C165.721 12.5234 165.589 12.111 165.589 11.6689H167.203C167.225 12.0609 167.373 12.3639 167.647 12.5781C167.92 12.7878 168.283 12.8926 168.734 12.8926C169.171 12.8926 169.504 12.8105 169.732 12.6465C169.96 12.4779 170.074 12.2591 170.074 11.9902ZM175.242 4.80566V6.60352H176.547V7.83398H175.242V11.9629C175.242 12.2454 175.296 12.4505 175.406 12.5781C175.52 12.7012 175.72 12.7627 176.007 12.7627C176.199 12.7627 176.392 12.7399 176.588 12.6943V13.9795C176.21 14.0843 175.845 14.1367 175.495 14.1367C174.219 14.1367 173.581 13.4326 173.581 12.0244V7.83398H172.364V6.60352H173.581V4.80566H175.242ZM189.064 10.7598C188.964 11.8216 188.572 12.651 187.888 13.248C187.205 13.8405 186.295 14.1367 185.161 14.1367C184.368 14.1367 183.668 13.9499 183.062 13.5762C182.46 13.1979 181.996 12.6624 181.667 11.9697C181.339 11.277 181.168 10.4727 181.155 9.55664V8.62695C181.155 7.68815 181.321 6.861 181.654 6.14551C181.986 5.43001 182.463 4.87858 183.082 4.49121C183.707 4.10384 184.427 3.91016 185.243 3.91016C186.341 3.91016 187.225 4.20866 187.895 4.80566C188.565 5.40267 188.955 6.24577 189.064 7.33496H187.341C187.259 6.61947 187.05 6.10449 186.712 5.79004C186.38 5.47103 185.89 5.31152 185.243 5.31152C184.491 5.31152 183.912 5.58724 183.506 6.13867C183.105 6.68555 182.9 7.48991 182.891 8.55176V9.43359C182.891 10.5091 183.082 11.3294 183.465 11.8945C183.853 12.4596 184.418 12.7422 185.161 12.7422C185.84 12.7422 186.35 12.5895 186.692 12.2842C187.034 11.9788 187.25 11.4707 187.341 10.7598H189.064Z" fill="black"/>
<rect x="78.3364" y="23.6549" width="46.2579" height="33.7324" rx="4.5" fill="#A8D0FF" fill-opacity="0.95" stroke="#4F4F4F"/>
<path d="M90.7135 42.8872C90.7135 42.5122 90.5807 42.2231 90.315 42.02C90.0533 41.8169 89.5787 41.6118 88.8912 41.4048C88.2037 41.1978 87.6568 40.9673 87.2506 40.7134C86.4732 40.2251 86.0846 39.5884 86.0846 38.8032C86.0846 38.1157 86.3639 37.5493 86.9225 37.104C87.485 36.6587 88.2135 36.436 89.108 36.436C89.7018 36.436 90.2311 36.5454 90.6959 36.7642C91.1607 36.9829 91.526 37.2954 91.7916 37.7017C92.0572 38.104 92.19 38.5513 92.19 39.0435H90.7135C90.7135 38.5981 90.5729 38.2505 90.2916 38.0005C90.0143 37.7466 89.6158 37.6196 89.0963 37.6196C88.6119 37.6196 88.235 37.7231 87.9654 37.9302C87.6998 38.1372 87.567 38.4263 87.567 38.7974C87.567 39.1099 87.7115 39.3716 88.0006 39.5825C88.2897 39.7896 88.7662 39.9927 89.4303 40.1919C90.0943 40.3872 90.6275 40.6118 91.0299 40.8657C91.4322 41.1157 91.7272 41.4048 91.9147 41.7329C92.1022 42.0571 92.1959 42.438 92.1959 42.8755C92.1959 43.5864 91.9225 44.1528 91.3756 44.5747C90.8326 44.9927 90.0943 45.2017 89.1607 45.2017C88.5436 45.2017 87.9752 45.0884 87.4557 44.8618C86.94 44.6313 86.5377 44.3149 86.2486 43.9126C85.9635 43.5103 85.8209 43.0415 85.8209 42.5063H87.3033C87.3033 42.9907 87.4635 43.3657 87.7838 43.6313C88.1041 43.897 88.5631 44.0298 89.1607 44.0298C89.6764 44.0298 90.0631 43.9263 90.3209 43.7192C90.5826 43.5083 90.7135 43.231 90.7135 42.8872ZM100.305 41.0415C100.305 41.8774 100.161 42.6118 99.8717 43.2446C99.5826 43.8735 99.1686 44.3579 98.6295 44.6978C98.0943 45.0337 97.4772 45.2017 96.7779 45.2017C96.0865 45.2017 95.4693 45.0337 94.9264 44.6978C94.3873 44.3579 93.9693 43.8755 93.6725 43.2505C93.3795 42.6255 93.2311 41.9048 93.2272 41.0884V40.6079C93.2272 39.7759 93.3736 39.0415 93.6666 38.4048C93.9635 37.7681 94.3795 37.2817 94.9147 36.9458C95.4537 36.606 96.0709 36.436 96.7662 36.436C97.4615 36.436 98.0768 36.604 98.6119 36.9399C99.151 37.272 99.567 37.7524 99.86 38.3813C100.153 39.0063 100.301 39.7349 100.305 40.5669V41.0415ZM98.8229 40.5962C98.8229 39.6509 98.6432 38.9263 98.2838 38.4224C97.9283 37.9185 97.4225 37.6665 96.7662 37.6665C96.1256 37.6665 95.6236 37.9185 95.2604 38.4224C94.901 38.9224 94.7174 39.6313 94.7096 40.5493V41.0415C94.7096 41.979 94.8912 42.7036 95.2545 43.2153C95.6217 43.7271 96.1295 43.9829 96.7779 43.9829C97.4342 43.9829 97.9381 43.7329 98.2897 43.2329C98.6451 42.7329 98.8229 42.0024 98.8229 41.0415V40.5962ZM108.397 45.0845H106.979V38.2349L104.887 38.9497V37.7485L108.215 36.5239H108.397V45.0845ZM116.922 41.4927C116.922 42.7192 116.692 43.645 116.231 44.27C115.774 44.8911 115.077 45.2017 114.139 45.2017C113.217 45.2017 112.522 44.8989 112.053 44.2935C111.588 43.6841 111.35 42.7837 111.338 41.5923V40.1157C111.338 38.8892 111.567 37.9692 112.024 37.356C112.485 36.7427 113.186 36.436 114.128 36.436C115.061 36.436 115.756 36.7349 116.213 37.3325C116.674 37.9302 116.911 38.8247 116.922 40.0161V41.4927ZM115.499 39.8989C115.499 39.0981 115.389 38.5122 115.171 38.1411C114.952 37.7661 114.604 37.5786 114.128 37.5786C113.663 37.5786 113.321 37.7563 113.102 38.1118C112.883 38.4634 112.768 39.0142 112.756 39.7642V41.6978C112.756 42.4946 112.868 43.0884 113.09 43.479C113.313 43.8696 113.663 44.0649 114.139 44.0649C114.596 44.0649 114.934 43.8853 115.153 43.5259C115.372 43.1626 115.487 42.5962 115.499 41.8267V39.8989Z" fill="black"/>
<rect x="83.8962" y="48.7395" width="46.2579" height="33.7324" rx="4.5" fill="#A8D0FF" fill-opacity="0.95" stroke="#4F4F4F"/>
<path d="M96.2732 69.9014C96.2732 69.5264 96.1404 69.2373 95.8747 69.0342C95.613 68.8311 95.1384 68.626 94.4509 68.4189C93.7634 68.2119 93.2165 67.9814 92.8103 67.7275C92.0329 67.2393 91.6443 66.6025 91.6443 65.8174C91.6443 65.1299 91.9236 64.5635 92.4822 64.1182C93.0447 63.6729 93.7732 63.4502 94.6677 63.4502C95.2615 63.4502 95.7908 63.5596 96.2556 63.7783C96.7204 63.9971 97.0857 64.3096 97.3513 64.7158C97.6169 65.1182 97.7497 65.5654 97.7497 66.0576H96.2732C96.2732 65.6123 96.1325 65.2646 95.8513 65.0146C95.574 64.7607 95.1755 64.6338 94.656 64.6338C94.1716 64.6338 93.7947 64.7373 93.5251 64.9443C93.2595 65.1514 93.1267 65.4404 93.1267 65.8115C93.1267 66.124 93.2712 66.3857 93.5603 66.5967C93.8493 66.8037 94.3259 67.0068 94.99 67.2061C95.654 67.4014 96.1872 67.626 96.5896 67.8799C96.9919 68.1299 97.2868 68.4189 97.4743 68.7471C97.6618 69.0713 97.7556 69.4521 97.7556 69.8896C97.7556 70.6006 97.4822 71.167 96.9353 71.5889C96.3923 72.0068 95.654 72.2158 94.7204 72.2158C94.1033 72.2158 93.5349 72.1025 93.0154 71.876C92.4997 71.6455 92.0974 71.3291 91.8083 70.9268C91.5232 70.5244 91.3806 70.0557 91.3806 69.5205H92.863C92.863 70.0049 93.0232 70.3799 93.3435 70.6455C93.6638 70.9111 94.1228 71.0439 94.7204 71.0439C95.2361 71.0439 95.6228 70.9404 95.8806 70.7334C96.1423 70.5225 96.2732 70.2451 96.2732 69.9014ZM105.865 68.0557C105.865 68.8916 105.72 69.626 105.431 70.2588C105.142 70.8877 104.728 71.3721 104.189 71.7119C103.654 72.0479 103.037 72.2158 102.338 72.2158C101.646 72.2158 101.029 72.0479 100.486 71.7119C99.947 71.3721 99.529 70.8896 99.2322 70.2646C98.9392 69.6396 98.7908 68.9189 98.7868 68.1025V67.6221C98.7868 66.79 98.9333 66.0557 99.2263 65.4189C99.5232 64.7822 99.9392 64.2959 100.474 63.96C101.013 63.6201 101.631 63.4502 102.326 63.4502C103.021 63.4502 103.636 63.6182 104.172 63.9541C104.711 64.2861 105.127 64.7666 105.42 65.3955C105.713 66.0205 105.861 66.749 105.865 67.5811V68.0557ZM104.383 67.6104C104.383 66.665 104.203 65.9404 103.843 65.4365C103.488 64.9326 102.982 64.6807 102.326 64.6807C101.685 64.6807 101.183 64.9326 100.82 65.4365C100.461 65.9365 100.277 66.6455 100.269 67.5635V68.0557C100.269 68.9932 100.451 69.7178 100.814 70.2295C101.181 70.7412 101.689 70.9971 102.338 70.9971C102.994 70.9971 103.498 70.7471 103.849 70.2471C104.205 69.7471 104.383 69.0166 104.383 68.0557V67.6104ZM113.957 72.0986H112.539V65.249L110.447 65.9639V64.7627L113.775 63.5381H113.957V72.0986ZM117.302 67.8682L117.765 63.5674H122.347V64.7979H118.949L118.715 66.8369C119.109 66.6104 119.554 66.4971 120.051 66.4971C120.863 66.4971 121.494 66.7568 121.943 67.2764C122.396 67.7959 122.623 68.4951 122.623 69.374C122.623 70.2412 122.373 70.9326 121.873 71.4482C121.373 71.96 120.687 72.2158 119.816 72.2158C119.035 72.2158 118.386 71.9951 117.871 71.5537C117.359 71.1084 117.082 70.5225 117.039 69.7959H118.416C118.47 70.21 118.619 70.5283 118.861 70.751C119.103 70.9697 119.42 71.0791 119.81 71.0791C120.248 71.0791 120.588 70.9229 120.83 70.6104C121.076 70.2979 121.199 69.8721 121.199 69.333C121.199 68.8135 121.064 68.4033 120.795 68.1025C120.525 67.7979 120.154 67.6455 119.681 67.6455C119.424 67.6455 119.205 67.6807 119.025 67.751C118.845 67.8174 118.65 67.9502 118.439 68.1494L117.302 67.8682Z" fill="black"/>
<path d="M90.1975 10.7598C90.0972 11.8216 89.7053 12.651 89.0217 13.248C88.3381 13.8405 87.4289 14.1367 86.2941 14.1367C85.5012 14.1367 84.8016 13.9499 84.1955 13.5762C83.5939 13.1979 83.1291 12.6624 82.801 11.9697C82.4728 11.277 82.3019 10.4727 82.2883 9.55664V8.62695C82.2883 7.68815 82.4546 6.861 82.7873 6.14551C83.12 5.43001 83.5962 4.87858 84.216 4.49121C84.8404 4.10384 85.5604 3.91016 86.3762 3.91016C87.4745 3.91016 88.3586 4.20866 89.0285 4.80566C89.6984 5.40267 90.0881 6.24577 90.1975 7.33496H88.4748C88.3928 6.61947 88.1831 6.10449 87.8459 5.79004C87.5132 5.47103 87.0233 5.31152 86.3762 5.31152C85.6242 5.31152 85.0454 5.58724 84.6398 6.13867C84.2388 6.68555 84.0337 7.48991 84.0246 8.55176V9.43359C84.0246 10.5091 84.216 11.3294 84.5988 11.8945C84.9862 12.4596 85.5513 12.7422 86.2941 12.7422C86.9732 12.7422 87.4836 12.5895 87.8254 12.2842C88.1672 11.9788 88.3837 11.4707 88.4748 10.7598H90.1975ZM96.0695 13.2754C95.5819 13.8496 94.8892 14.1367 93.9914 14.1367C93.1893 14.1367 92.5809 13.902 92.1662 13.4326C91.7561 12.9632 91.551 12.2842 91.551 11.3955V6.60352H93.2121V11.375C93.2121 12.3138 93.6018 12.7832 94.3811 12.7832C95.1877 12.7832 95.7323 12.4938 96.0148 11.915V6.60352H97.676V14H96.1105L96.0695 13.2754ZM103.514 11.9902C103.514 11.694 103.391 11.4684 103.145 11.3135C102.903 11.1585 102.5 11.0218 101.935 10.9033C101.37 10.7848 100.898 10.6344 100.52 10.4521C99.6903 10.0511 99.2756 9.47005 99.2756 8.70898C99.2756 8.07096 99.5445 7.53776 100.082 7.10937C100.62 6.68099 101.304 6.4668 102.133 6.4668C103.017 6.4668 103.73 6.68555 104.273 7.12305C104.82 7.56055 105.093 8.12793 105.093 8.8252H103.432C103.432 8.50618 103.313 8.24186 103.076 8.03223C102.839 7.81803 102.525 7.71094 102.133 7.71094C101.768 7.71094 101.47 7.79525 101.237 7.96387C101.01 8.13249 100.896 8.35807 100.896 8.64062C100.896 8.89583 101.003 9.09408 101.217 9.23535C101.431 9.37663 101.864 9.52018 102.516 9.66602C103.168 9.80729 103.678 9.97819 104.047 10.1787C104.421 10.3747 104.696 10.6117 104.874 10.8896C105.057 11.1676 105.148 11.5049 105.148 11.9014C105.148 12.5667 104.872 13.1068 104.321 13.5215C103.769 13.9316 103.047 14.1367 102.154 14.1367C101.547 14.1367 101.007 14.0273 100.533 13.8086C100.059 13.5898 99.6903 13.2891 99.426 12.9062C99.1616 12.5234 99.0295 12.111 99.0295 11.6689H100.643C100.666 12.0609 100.814 12.3639 101.087 12.5781C101.361 12.7878 101.723 12.8926 102.174 12.8926C102.612 12.8926 102.944 12.8105 103.172 12.6465C103.4 12.4779 103.514 12.2591 103.514 11.9902ZM108.682 4.80566V6.60352H109.987V7.83398H108.682V11.9629C108.682 12.2454 108.737 12.4505 108.846 12.5781C108.96 12.7012 109.16 12.7627 109.447 12.7627C109.639 12.7627 109.833 12.7399 110.029 12.6943V13.9795C109.65 14.0843 109.286 14.1367 108.935 14.1367C107.659 14.1367 107.021 13.4326 107.021 12.0244V7.83398H105.804V6.60352H107.021V4.80566H108.682ZM114.909 14V4.04687H118.321C119.446 4.04687 120.303 4.27246 120.891 4.72363C121.479 5.1748 121.773 5.84701 121.773 6.74023C121.773 7.19596 121.65 7.60612 121.404 7.9707C121.157 8.33529 120.797 8.61784 120.323 8.81836C120.861 8.96419 121.276 9.23991 121.568 9.64551C121.864 10.0465 122.012 10.5296 122.012 11.0947C122.012 12.029 121.711 12.7467 121.11 13.248C120.513 13.7493 119.656 14 118.539 14H114.909ZM116.639 9.50879V12.6191H118.56C119.102 12.6191 119.526 12.4847 119.831 12.2158C120.137 11.9469 120.289 11.5732 120.289 11.0947C120.289 10.0602 119.761 9.53158 118.703 9.50879H116.639ZM116.639 8.2373H118.334C118.872 8.2373 119.291 8.11654 119.592 7.875C119.897 7.62891 120.05 7.28255 120.05 6.83594C120.05 6.34375 119.909 5.98828 119.626 5.76953C119.348 5.55078 118.913 5.44141 118.321 5.44141H116.639V8.2373Z" fill="black"/>
<rect x="8.8396" y="23.6549" width="46.2579" height="33.7324" rx="4.5" fill="#A8D0FF" fill-opacity="0.95" stroke="#4F4F4F"/>
<path d="M24.6268 42.8872C24.6268 42.5122 24.494 42.2231 24.2284 42.02C23.9667 41.8169 23.492 41.6118 22.8045 41.4048C22.117 41.1978 21.5702 40.9673 21.1639 40.7134C20.3866 40.2251 19.9979 39.5884 19.9979 38.8032C19.9979 38.1157 20.2772 37.5493 20.8358 37.104C21.3983 36.6587 22.1268 36.436 23.0213 36.436C23.6151 36.436 24.1444 36.5454 24.6092 36.7642C25.0741 36.9829 25.4393 37.2954 25.7049 37.7017C25.9706 38.104 26.1034 38.5513 26.1034 39.0435H24.6268C24.6268 38.5981 24.4862 38.2505 24.2049 38.0005C23.9276 37.7466 23.5292 37.6196 23.0096 37.6196C22.5252 37.6196 22.1483 37.7231 21.8788 37.9302C21.6131 38.1372 21.4803 38.4263 21.4803 38.7974C21.4803 39.1099 21.6249 39.3716 21.9139 39.5825C22.203 39.7896 22.6795 39.9927 23.3436 40.1919C24.0077 40.3872 24.5409 40.6118 24.9432 40.8657C25.3456 41.1157 25.6405 41.4048 25.828 41.7329C26.0155 42.0571 26.1092 42.438 26.1092 42.8755C26.1092 43.5864 25.8358 44.1528 25.2889 44.5747C24.746 44.9927 24.0077 45.2017 23.0741 45.2017C22.4569 45.2017 21.8885 45.0884 21.369 44.8618C20.8534 44.6313 20.451 44.3149 20.162 43.9126C19.8768 43.5103 19.7342 43.0415 19.7342 42.5063H21.2167C21.2167 42.9907 21.3768 43.3657 21.6971 43.6313C22.0174 43.897 22.4764 44.0298 23.0741 44.0298C23.5897 44.0298 23.9764 43.9263 24.2342 43.7192C24.496 43.5083 24.6268 43.231 24.6268 42.8872ZM34.2186 41.0415C34.2186 41.8774 34.0741 42.6118 33.785 43.2446C33.496 43.8735 33.0819 44.3579 32.5428 44.6978C32.0077 45.0337 31.3905 45.2017 30.6913 45.2017C29.9999 45.2017 29.3827 45.0337 28.8397 44.6978C28.3006 44.3579 27.8827 43.8755 27.5858 43.2505C27.2928 42.6255 27.1444 41.9048 27.1405 41.0884V40.6079C27.1405 39.7759 27.287 39.0415 27.5799 38.4048C27.8768 37.7681 28.2928 37.2817 28.828 36.9458C29.367 36.606 29.9842 36.436 30.6795 36.436C31.3749 36.436 31.9901 36.604 32.5252 36.9399C33.0643 37.272 33.4803 37.7524 33.7733 38.3813C34.0663 39.0063 34.2147 39.7349 34.2186 40.5669V41.0415ZM32.7362 40.5962C32.7362 39.6509 32.5565 38.9263 32.1971 38.4224C31.8417 37.9185 31.3358 37.6665 30.6795 37.6665C30.0389 37.6665 29.537 37.9185 29.1737 38.4224C28.8143 38.9224 28.6307 39.6313 28.6229 40.5493V41.0415C28.6229 41.979 28.8045 42.7036 29.1678 43.2153C29.535 43.7271 30.0428 43.9829 30.6913 43.9829C31.3475 43.9829 31.8514 43.7329 32.203 43.2329C32.5585 42.7329 32.7362 42.0024 32.7362 41.0415V40.5962ZM42.3104 45.0845H40.8924V38.2349L38.8006 38.9497V37.7485L42.1288 36.5239H42.3104V45.0845Z" fill="black"/>
<rect x="14.3994" y="48.7395" width="46.2579" height="33.7324" rx="4.5" fill="#A8D0FF" fill-opacity="0.95" stroke="#4F4F4F"/>
<path d="M30.1865 69.9014C30.1865 69.5264 30.0537 69.2373 29.7881 69.0342C29.5263 68.8311 29.0517 68.626 28.3642 68.4189C27.6767 68.2119 27.1299 67.9814 26.7236 67.7275C25.9463 67.2393 25.5576 66.6025 25.5576 65.8174C25.5576 65.1299 25.8369 64.5635 26.3955 64.1182C26.958 63.6729 27.6865 63.4502 28.581 63.4502C29.1748 63.4502 29.7041 63.5596 30.1689 63.7783C30.6338 63.9971 30.999 64.3096 31.2646 64.7158C31.5303 65.1182 31.6631 65.5654 31.6631 66.0576H30.1865C30.1865 65.6123 30.0459 65.2646 29.7646 65.0146C29.4873 64.7607 29.0888 64.6338 28.5693 64.6338C28.0849 64.6338 27.708 64.7373 27.4385 64.9443C27.1728 65.1514 27.04 65.4404 27.04 65.8115C27.04 66.124 27.1846 66.3857 27.4736 66.5967C27.7627 66.8037 28.2392 67.0068 28.9033 67.2061C29.5674 67.4014 30.1006 67.626 30.5029 67.8799C30.9053 68.1299 31.2002 68.4189 31.3877 68.7471C31.5752 69.0713 31.6689 69.4521 31.6689 69.8896C31.6689 70.6006 31.3955 71.167 30.8486 71.5889C30.3056 72.0068 29.5674 72.2158 28.6338 72.2158C28.0166 72.2158 27.4482 72.1025 26.9287 71.876C26.4131 71.6455 26.0107 71.3291 25.7217 70.9268C25.4365 70.5244 25.2939 70.0557 25.2939 69.5205H26.7763C26.7763 70.0049 26.9365 70.3799 27.2568 70.6455C27.5771 70.9111 28.0361 71.0439 28.6338 71.0439C29.1494 71.0439 29.5361 70.9404 29.7939 70.7334C30.0556 70.5225 30.1865 70.2451 30.1865 69.9014ZM39.7783 68.0557C39.7783 68.8916 39.6338 69.626 39.3447 70.2588C39.0556 70.8877 38.6416 71.3721 38.1025 71.7119C37.5674 72.0479 36.9502 72.2158 36.251 72.2158C35.5596 72.2158 34.9424 72.0479 34.3994 71.7119C33.8603 71.3721 33.4424 70.8896 33.1455 70.2646C32.8525 69.6396 32.7041 68.9189 32.7002 68.1025V67.6221C32.7002 66.79 32.8467 66.0557 33.1396 65.4189C33.4365 64.7822 33.8525 64.2959 34.3877 63.96C34.9267 63.6201 35.5439 63.4502 36.2392 63.4502C36.9346 63.4502 37.5498 63.6182 38.0849 63.9541C38.624 64.2861 39.04 64.7666 39.333 65.3955C39.626 66.0205 39.7744 66.749 39.7783 67.5811V68.0557ZM38.2959 67.6104C38.2959 66.665 38.1162 65.9404 37.7568 65.4365C37.4013 64.9326 36.8955 64.6807 36.2392 64.6807C35.5986 64.6807 35.0967 64.9326 34.7334 65.4365C34.374 65.9365 34.1904 66.6455 34.1826 67.5635V68.0557C34.1826 68.9932 34.3642 69.7178 34.7275 70.2295C35.0947 70.7412 35.6025 70.9971 36.251 70.9971C36.9072 70.9971 37.4111 70.7471 37.7627 70.2471C38.1181 69.7471 38.2959 69.0166 38.2959 68.0557V67.6104ZM45.6611 67.1826H46.5283C46.9658 67.1787 47.3115 67.0654 47.5654 66.8428C47.8232 66.6201 47.9521 66.2979 47.9521 65.876C47.9521 65.4697 47.8447 65.1553 47.6299 64.9326C47.4189 64.7061 47.0947 64.5928 46.6572 64.5928C46.2744 64.5928 45.9599 64.7041 45.7138 64.9268C45.4678 65.1455 45.3447 65.4326 45.3447 65.7881H43.9209C43.9209 65.3506 44.0361 64.9521 44.2666 64.5928C44.501 64.2334 44.8252 63.9541 45.2392 63.7549C45.6572 63.5518 46.124 63.4502 46.6396 63.4502C47.4912 63.4502 48.1592 63.665 48.6435 64.0947C49.1318 64.5205 49.376 65.1143 49.376 65.876C49.376 66.2588 49.2529 66.6201 49.0068 66.96C48.7646 67.2959 48.4502 67.5498 48.0635 67.7217C48.5322 67.8818 48.8877 68.1338 49.1299 68.4775C49.376 68.8213 49.499 69.2314 49.499 69.708C49.499 70.4736 49.2353 71.083 48.708 71.5361C48.1846 71.9893 47.4951 72.2158 46.6396 72.2158C45.8193 72.2158 45.1474 71.9971 44.624 71.5596C44.1006 71.1221 43.8388 70.54 43.8388 69.8135H45.2627C45.2627 70.1885 45.3877 70.4932 45.6377 70.7275C45.8916 70.9619 46.2314 71.0791 46.6572 71.0791C47.0986 71.0791 47.4463 70.9619 47.7002 70.7275C47.9541 70.4932 48.081 70.1533 48.081 69.708C48.081 69.2588 47.9482 68.9131 47.6826 68.6709C47.417 68.4287 47.0224 68.3076 46.499 68.3076H45.6611V67.1826Z" fill="black"/>
<rect x="21.349" y="75.7535" width="46.2579" height="33.7324" rx="4.5" fill="#A8D0FF" fill-opacity="0.95" stroke="#4F4F4F"/>
<path d="M37.1362 94.9858C37.1362 94.6108 37.0034 94.3218 36.7378 94.1187C36.4761 93.9155 36.0014 93.7104 35.3139 93.5034C34.6264 93.2964 34.0796 93.0659 33.6733 92.812C32.896 92.3237 32.5073 91.687 32.5073 90.9019C32.5073 90.2144 32.7866 89.6479 33.3452 89.2026C33.9077 88.7573 34.6362 88.5347 35.5307 88.5347C36.1245 88.5347 36.6538 88.644 37.1186 88.8628C37.5835 89.0815 37.9487 89.394 38.2143 89.8003C38.48 90.2026 38.6128 90.6499 38.6128 91.1421H37.1362C37.1362 90.6968 36.9956 90.3491 36.7143 90.0991C36.437 89.8452 36.0386 89.7183 35.519 89.7183C35.0346 89.7183 34.6577 89.8218 34.3882 90.0288C34.1225 90.2358 33.9897 90.5249 33.9897 90.896C33.9897 91.2085 34.1343 91.4702 34.4233 91.6812C34.7124 91.8882 35.1889 92.0913 35.853 92.2905C36.5171 92.4858 37.0503 92.7104 37.4526 92.9644C37.855 93.2144 38.1499 93.5034 38.3374 93.8315C38.5249 94.1558 38.6186 94.5366 38.6186 94.9741C38.6186 95.6851 38.3452 96.2515 37.7983 96.6733C37.2554 97.0913 36.5171 97.3003 35.5835 97.3003C34.9663 97.3003 34.3979 97.187 33.8784 96.9604C33.3628 96.73 32.9604 96.4136 32.6714 96.0112C32.3862 95.6089 32.2436 95.1401 32.2436 94.605H33.7261C33.7261 95.0894 33.8862 95.4644 34.2065 95.73C34.5268 95.9956 34.9858 96.1284 35.5835 96.1284C36.0991 96.1284 36.4858 96.0249 36.7436 95.8179C37.0054 95.6069 37.1362 95.3296 37.1362 94.9858ZM46.728 93.1401C46.728 93.9761 46.5835 94.7104 46.2944 95.3433C46.0054 95.9722 45.5913 96.4565 45.0522 96.7964C44.5171 97.1323 43.8999 97.3003 43.2007 97.3003C42.5093 97.3003 41.8921 97.1323 41.3491 96.7964C40.81 96.4565 40.3921 95.9741 40.0952 95.3491C39.8022 94.7241 39.6538 94.0034 39.6499 93.187V92.7065C39.6499 91.8745 39.7964 91.1401 40.0893 90.5034C40.3862 89.8667 40.8022 89.3804 41.3374 89.0444C41.8764 88.7046 42.4936 88.5347 43.1889 88.5347C43.8843 88.5347 44.4995 88.7026 45.0346 89.0386C45.5737 89.3706 45.9897 89.8511 46.2827 90.48C46.5757 91.105 46.7241 91.8335 46.728 92.6655V93.1401ZM45.2456 92.6948C45.2456 91.7495 45.0659 91.0249 44.7065 90.521C44.3511 90.0171 43.8452 89.7651 43.1889 89.7651C42.5483 89.7651 42.0464 90.0171 41.6831 90.521C41.3237 91.021 41.1401 91.73 41.1323 92.6479V93.1401C41.1323 94.0776 41.3139 94.8022 41.6772 95.314C42.0444 95.8257 42.5522 96.0815 43.2007 96.0815C43.8569 96.0815 44.3608 95.8315 44.7124 95.3315C45.0679 94.8315 45.2456 94.1011 45.2456 93.1401V92.6948ZM56.6421 89.4429L53.2319 97.1831H51.7378L55.1421 89.7944H50.73V88.6519H56.6421V89.4429Z" fill="black"/>
<path d="M20.4545 10.7598C20.3543 11.8216 19.9623 12.651 19.2788 13.248C18.5952 13.8405 17.686 14.1367 16.5512 14.1367C15.7582 14.1367 15.0587 13.9499 14.4526 13.5762C13.851 13.1979 13.3862 12.6624 13.0581 11.9697C12.7299 11.277 12.559 10.4727 12.5454 9.55664V8.62695C12.5454 7.68815 12.7117 6.861 13.0444 6.14551C13.3771 5.43001 13.8533 4.87858 14.4731 4.49121C15.0974 4.10384 15.8175 3.91016 16.6332 3.91016C17.7316 3.91016 18.6157 4.20866 19.2856 4.80566C19.9555 5.40267 20.3452 6.24577 20.4545 7.33496H18.7319C18.6498 6.61947 18.4402 6.10449 18.103 5.79004C17.7703 5.47103 17.2804 5.31152 16.6332 5.31152C15.8813 5.31152 15.3025 5.58724 14.8969 6.13867C14.4959 6.68555 14.2908 7.48991 14.2817 8.55176V9.43359C14.2817 10.5091 14.4731 11.3294 14.8559 11.8945C15.2433 12.4596 15.8084 12.7422 16.5512 12.7422C17.2303 12.7422 17.7407 12.5895 18.0825 12.2842C18.4243 11.9788 18.6407 11.4707 18.7319 10.7598H20.4545ZM26.3266 13.2754C25.839 13.8496 25.1463 14.1367 24.2485 14.1367C23.4464 14.1367 22.838 13.902 22.4233 13.4326C22.0131 12.9632 21.8081 12.2842 21.8081 11.3955V6.60352H23.4692V11.375C23.4692 12.3138 23.8588 12.7832 24.6381 12.7832C25.4448 12.7832 25.9894 12.4938 26.2719 11.915V6.60352H27.9331V14H26.3676L26.3266 13.2754ZM33.7709 11.9902C33.7709 11.694 33.6479 11.4684 33.4018 11.3135C33.1603 11.1585 32.7569 11.0218 32.1918 10.9033C31.6267 10.7848 31.1551 10.6344 30.7768 10.4521C29.9474 10.0511 29.5327 9.47005 29.5327 8.70898C29.5327 8.07096 29.8015 7.53776 30.3393 7.10937C30.8771 6.68099 31.5607 6.4668 32.3901 6.4668C33.2742 6.4668 33.9874 6.68555 34.5297 7.12305C35.0766 7.56055 35.35 8.12793 35.35 8.8252H33.6889C33.6889 8.50618 33.5704 8.24186 33.3334 8.03223C33.0965 7.81803 32.782 7.71094 32.3901 7.71094C32.0255 7.71094 31.727 7.79525 31.4946 7.96387C31.2667 8.13249 31.1528 8.35807 31.1528 8.64062C31.1528 8.89583 31.2599 9.09408 31.4741 9.23535C31.6883 9.37663 32.1212 9.52018 32.7729 9.66602C33.4246 9.80729 33.935 9.97819 34.3041 10.1787C34.6778 10.3747 34.9536 10.6117 35.1313 10.8896C35.3136 11.1676 35.4047 11.5049 35.4047 11.9014C35.4047 12.5667 35.129 13.1068 34.5776 13.5215C34.0262 13.9316 33.3038 14.1367 32.4106 14.1367C31.8045 14.1367 31.2644 14.0273 30.7905 13.8086C30.3165 13.5898 29.9474 13.2891 29.6831 12.9062C29.4187 12.5234 29.2866 12.111 29.2866 11.6689H30.8998C30.9226 12.0609 31.0707 12.3639 31.3442 12.5781C31.6176 12.7878 31.9799 12.8926 32.4311 12.8926C32.8686 12.8926 33.2013 12.8105 33.4291 12.6465C33.657 12.4779 33.7709 12.2591 33.7709 11.9902ZM38.9389 4.80566V6.60352H40.2446V7.83398H38.9389V11.9629C38.9389 12.2454 38.9936 12.4505 39.103 12.5781C39.2169 12.7012 39.4174 12.7627 39.7045 12.7627C39.8959 12.7627 40.0896 12.7399 40.2856 12.6943V13.9795C39.9073 14.0843 39.5428 14.1367 39.1918 14.1367C37.9158 14.1367 37.2778 13.4326 37.2778 12.0244V7.83398H36.061V6.60352H37.2778V4.80566H38.9389ZM50.7377 11.6826H46.8823L46.0756 14H44.2778L48.0375 4.04687H49.5893L53.3559 14H51.5512L50.7377 11.6826ZM47.3676 10.2881H50.2524L48.81 6.15918L47.3676 10.2881Z" fill="black"/>
</svg>
