<svg width="602" height="125" viewBox="0 0 602 125" fill="none" xmlns="http://www.w3.org/2000/svg">
<rect x="0.5" y="0.5" width="600.226" height="40.6667" fill="#FFFA7A" stroke="black"/>
<path d="M20.7358 19.6426C20.7358 19.1445 20.56 18.7637 20.2084 18.5C19.8569 18.2305 19.2241 17.9492 18.31 17.6562C17.3959 17.3574 16.6723 17.0645 16.1391 16.7773C14.686 15.9922 13.9594 14.9346 13.9594 13.6045C13.9594 12.9131 14.1528 12.2979 14.5395 11.7588C14.9321 11.2139 15.4916 10.7891 16.2182 10.4844C16.9506 10.1797 17.7709 10.0273 18.6791 10.0273C19.5932 10.0273 20.4077 10.1943 21.1225 10.5283C21.8373 10.8564 22.3911 11.3223 22.7836 11.9258C23.1821 12.5293 23.3813 13.2148 23.3813 13.9824H20.7446C20.7446 13.3965 20.56 12.9424 20.1909 12.6201C19.8217 12.292 19.3032 12.1279 18.6352 12.1279C17.9907 12.1279 17.4897 12.2656 17.1323 12.541C16.7748 12.8105 16.5961 13.168 16.5961 13.6133C16.5961 14.0293 16.8041 14.3779 17.2202 14.6592C17.642 14.9404 18.2602 15.2041 19.0747 15.4502C20.5747 15.9014 21.6674 16.4609 22.353 17.1289C23.0385 17.7969 23.3813 18.6289 23.3813 19.625C23.3813 20.7324 22.9623 21.6025 22.1245 22.2354C21.2866 22.8623 20.1586 23.1758 18.7407 23.1758C17.7563 23.1758 16.8598 22.9971 16.0512 22.6396C15.2426 22.2764 14.6245 21.7812 14.1967 21.1543C13.7748 20.5273 13.5639 19.8008 13.5639 18.9746H16.2094C16.2094 20.3867 17.0532 21.0928 18.7407 21.0928C19.3676 21.0928 19.8569 20.9668 20.2084 20.7148C20.56 20.457 20.7358 20.0996 20.7358 19.6426ZM28.0483 11.1523V13.4902H29.6743V15.3535H28.0483V20.0996C28.0483 20.4512 28.1157 20.7031 28.2504 20.8555C28.3852 21.0078 28.643 21.084 29.0239 21.084C29.3051 21.084 29.5541 21.0635 29.7709 21.0225V22.9473C29.2729 23.0996 28.7602 23.1758 28.2329 23.1758C26.4516 23.1758 25.5434 22.2764 25.5082 20.4775V15.3535H24.1196V13.4902H25.5082V11.1523H28.0483ZM36.6 23C36.4829 22.7715 36.3979 22.4873 36.3452 22.1475C35.7299 22.833 34.9301 23.1758 33.9457 23.1758C33.0141 23.1758 32.2407 22.9062 31.6254 22.3672C31.0161 21.8281 30.7114 21.1484 30.7114 20.3281C30.7114 19.3203 31.0834 18.5469 31.8276 18.0078C32.5776 17.4688 33.6586 17.1963 35.0707 17.1904H36.2397V16.6455C36.2397 16.2061 36.1254 15.8545 35.8969 15.5908C35.6743 15.3271 35.3198 15.1953 34.8334 15.1953C34.4057 15.1953 34.0688 15.2979 33.8227 15.5029C33.5825 15.708 33.4623 15.9893 33.4623 16.3467H30.9223C30.9223 15.7959 31.0922 15.2861 31.4321 14.8174C31.7719 14.3486 32.2524 13.9824 32.8735 13.7188C33.4946 13.4492 34.1918 13.3145 34.9653 13.3145C36.1372 13.3145 37.0659 13.6104 37.7514 14.2021C38.4428 14.7881 38.7885 15.6143 38.7885 16.6807V20.8027C38.7944 21.7051 38.9204 22.3877 39.1665 22.8506V23H36.6ZM34.4995 21.2334C34.8745 21.2334 35.2202 21.1514 35.5366 20.9873C35.853 20.8174 36.0873 20.5918 36.2397 20.3105V18.6758H35.2905C34.019 18.6758 33.3422 19.1152 33.2602 19.9941L33.2514 20.1436C33.2514 20.46 33.3627 20.7207 33.5854 20.9258C33.8081 21.1309 34.1127 21.2334 34.4995 21.2334ZM43.0776 13.4902L43.1567 14.5889C43.8364 13.7393 44.7475 13.3145 45.8901 13.3145C46.8979 13.3145 47.6479 13.6104 48.1401 14.2021C48.6323 14.7939 48.8842 15.6787 48.8959 16.8564V23H46.3559V16.918C46.3559 16.3789 46.2387 15.9893 46.0043 15.749C45.77 15.5029 45.3803 15.3799 44.8354 15.3799C44.1206 15.3799 43.5844 15.6846 43.227 16.2939V23H40.687V13.4902H43.0776ZM50.434 18.1748C50.434 16.6924 50.7651 15.5117 51.4272 14.6328C52.0952 13.7539 53.0063 13.3145 54.1606 13.3145C55.0864 13.3145 55.851 13.6602 56.4545 14.3516V9.5H59.0034V23H56.7094L56.5864 21.9893C55.9536 22.7803 55.1391 23.1758 54.143 23.1758C53.0239 23.1758 52.1245 22.7363 51.4448 21.8574C50.7709 20.9727 50.434 19.7451 50.434 18.1748ZM52.9741 18.3594C52.9741 19.25 53.1293 19.9326 53.4399 20.4072C53.7504 20.8818 54.2016 21.1191 54.7934 21.1191C55.5786 21.1191 56.1323 20.7881 56.4545 20.126V16.373C56.1381 15.7109 55.5903 15.3799 54.811 15.3799C53.5864 15.3799 52.9741 16.373 52.9741 18.3594ZM66.4829 23C66.3657 22.7715 66.2807 22.4873 66.228 22.1475C65.6127 22.833 64.8129 23.1758 63.8286 23.1758C62.8969 23.1758 62.1235 22.9062 61.5082 22.3672C60.8989 21.8281 60.5942 21.1484 60.5942 20.3281C60.5942 19.3203 60.9663 18.5469 61.7104 18.0078C62.4604 17.4688 63.5415 17.1963 64.9536 17.1904H66.1225V16.6455C66.1225 16.2061 66.0082 15.8545 65.7797 15.5908C65.5571 15.3271 65.2026 15.1953 64.7163 15.1953C64.2885 15.1953 63.9516 15.2979 63.7055 15.5029C63.4653 15.708 63.3452 15.9893 63.3452 16.3467H60.8051C60.8051 15.7959 60.975 15.2861 61.3149 14.8174C61.6547 14.3486 62.1352 13.9824 62.7563 13.7188C63.3774 13.4492 64.0747 13.3145 64.8481 13.3145C66.02 13.3145 66.9487 13.6104 67.6342 14.2021C68.3256 14.7881 68.6713 15.6143 68.6713 16.6807V20.8027C68.6772 21.7051 68.8032 22.3877 69.0493 22.8506V23H66.4829ZM64.3823 21.2334C64.7573 21.2334 65.103 21.1514 65.4194 20.9873C65.7358 20.8174 65.9702 20.5918 66.1225 20.3105V18.6758H65.1733C63.9018 18.6758 63.225 19.1152 63.143 19.9941L63.1342 20.1436C63.1342 20.46 63.2456 20.7207 63.4682 20.9258C63.6909 21.1309 63.9956 21.2334 64.3823 21.2334ZM75.9663 15.8721C75.6206 15.8252 75.3159 15.8018 75.0522 15.8018C74.0913 15.8018 73.4614 16.127 73.1625 16.7773V23H70.6225V13.4902H73.0219L73.0922 14.624C73.602 13.751 74.3081 13.3145 75.2104 13.3145C75.4916 13.3145 75.7553 13.3525 76.0014 13.4287L75.9663 15.8721ZM76.6254 18.1748C76.6254 16.6924 76.9565 15.5117 77.6186 14.6328C78.2866 13.7539 79.1977 13.3145 80.352 13.3145C81.2778 13.3145 82.0424 13.6602 82.6459 14.3516V9.5H85.1948V23H82.9008L82.7778 21.9893C82.145 22.7803 81.3305 23.1758 80.3344 23.1758C79.2153 23.1758 78.3159 22.7363 77.6362 21.8574C76.9623 20.9727 76.6254 19.7451 76.6254 18.1748ZM79.1655 18.3594C79.1655 19.25 79.3207 19.9326 79.6313 20.4072C79.9418 20.8818 80.393 21.1191 80.9848 21.1191C81.77 21.1191 82.3237 20.7881 82.6459 20.126V16.373C82.3295 15.7109 81.7817 15.3799 81.0024 15.3799C79.7778 15.3799 79.1655 16.373 79.1655 18.3594ZM99.5122 17.4541H94.4497V20.8818H100.391V23H91.8129V10.2031H100.373V12.3389H94.4497V15.3887H99.5122V17.4541ZM106.675 18.3154H104.575V23H101.938V10.2031H106.693C108.205 10.2031 109.371 10.54 110.191 11.2139C111.011 11.8877 111.421 12.8398 111.421 14.0703C111.421 14.9434 111.231 15.6729 110.85 16.2588C110.475 16.8389 109.904 17.3018 109.136 17.6475L111.905 22.877V23H109.075L106.675 18.3154ZM104.575 16.1797H106.702C107.364 16.1797 107.876 16.0127 108.24 15.6787C108.603 15.3389 108.785 14.873 108.785 14.2812C108.785 13.6777 108.612 13.2031 108.266 12.8574C107.926 12.5117 107.402 12.3389 106.693 12.3389H104.575V16.1797ZM116.071 18.4912V23H113.434V10.2031H118.426C119.387 10.2031 120.231 10.3789 120.957 10.7305C121.69 11.082 122.252 11.583 122.645 12.2334C123.038 12.8779 123.234 13.6133 123.234 14.4395C123.234 15.6934 122.803 16.6836 121.942 17.4102C121.086 18.1309 119.9 18.4912 118.382 18.4912H116.071ZM116.071 16.3555H118.426C119.123 16.3555 119.654 16.1914 120.017 15.8633C120.386 15.5352 120.571 15.0664 120.571 14.457C120.571 13.8301 120.386 13.3232 120.017 12.9365C119.648 12.5498 119.138 12.3506 118.488 12.3389H116.071V16.3555ZM129.536 23V10.2031H133.473C134.598 10.2031 135.603 10.458 136.488 10.9678C137.378 11.4717 138.073 12.1924 138.571 13.1299C139.069 14.0615 139.318 15.1221 139.318 16.3115V16.9004C139.318 18.0898 139.072 19.1475 138.58 20.0732C138.093 20.999 137.405 21.7168 136.514 22.2266C135.623 22.7363 134.619 22.9941 133.499 23H129.536ZM132.172 12.3389V20.8818H133.447C134.478 20.8818 135.266 20.5449 135.811 19.8711C136.356 19.1973 136.634 18.2334 136.646 16.9795V16.3027C136.646 15.002 136.376 14.0176 135.837 13.3496C135.298 12.6758 134.51 12.3389 133.473 12.3389H132.172ZM145.453 23.1758C144.058 23.1758 142.921 22.748 142.042 21.8926C141.169 21.0371 140.733 19.8975 140.733 18.4736V18.2275C140.733 17.2725 140.917 16.4199 141.287 15.6699C141.656 14.9141 142.177 14.334 142.851 13.9297C143.531 13.5195 144.304 13.3145 145.171 13.3145C146.472 13.3145 147.495 13.7246 148.239 14.5449C148.989 15.3652 149.364 16.5283 149.364 18.0342V19.0713H143.308C143.39 19.6924 143.636 20.1904 144.046 20.5654C144.462 20.9404 144.987 21.1279 145.62 21.1279C146.598 21.1279 147.363 20.7734 147.914 20.0645L149.162 21.4619C148.781 22.001 148.265 22.4229 147.615 22.7275C146.964 23.0264 146.244 23.1758 145.453 23.1758ZM145.163 15.3711C144.659 15.3711 144.248 15.541 143.932 15.8809C143.622 16.2207 143.422 16.707 143.334 17.3398H146.868V17.1377C146.856 16.5752 146.704 16.1416 146.411 15.8369C146.118 15.5264 145.702 15.3711 145.163 15.3711ZM155.964 20.3721C155.964 20.0615 155.809 19.8184 155.498 19.6426C155.194 19.4609 154.702 19.2998 154.022 19.1592C151.76 18.6846 150.629 17.7236 150.629 16.2764C150.629 15.4326 150.978 14.7295 151.675 14.167C152.378 13.5986 153.295 13.3145 154.426 13.3145C155.633 13.3145 156.597 13.5986 157.318 14.167C158.044 14.7354 158.408 15.4736 158.408 16.3818H155.868C155.868 16.0186 155.75 15.7197 155.516 15.4854C155.282 15.2451 154.915 15.125 154.417 15.125C153.99 15.125 153.659 15.2217 153.424 15.415C153.19 15.6084 153.073 15.8545 153.073 16.1533C153.073 16.4346 153.205 16.6631 153.468 16.8389C153.738 17.0088 154.189 17.1582 154.822 17.2871C155.455 17.4102 155.988 17.5508 156.421 17.709C157.763 18.2012 158.434 19.0537 158.434 20.2666C158.434 21.1338 158.062 21.8369 157.318 22.376C156.574 22.9092 155.613 23.1758 154.435 23.1758C153.638 23.1758 152.929 23.0352 152.308 22.7539C151.693 22.4668 151.209 22.0771 150.858 21.585C150.506 21.0869 150.331 20.5508 150.331 19.9766H152.739C152.762 20.4277 152.929 20.7734 153.24 21.0137C153.55 21.2539 153.966 21.374 154.488 21.374C154.974 21.374 155.34 21.2832 155.586 21.1016C155.838 20.9141 155.964 20.6709 155.964 20.3721ZM164.033 21.1279C164.501 21.1279 164.882 20.999 165.175 20.7412C165.468 20.4834 165.621 20.1406 165.632 19.7129H168.014C168.008 20.3574 167.832 20.9492 167.487 21.4883C167.141 22.0215 166.666 22.4375 166.063 22.7363C165.465 23.0293 164.803 23.1758 164.077 23.1758C162.717 23.1758 161.645 22.7451 160.86 21.8838C160.075 21.0166 159.682 19.8213 159.682 18.2979V18.1309C159.682 16.666 160.072 15.4971 160.851 14.624C161.63 13.751 162.7 13.3145 164.059 13.3145C165.248 13.3145 166.201 13.6543 166.915 14.334C167.636 15.0078 168.002 15.9072 168.014 17.0322H165.632C165.621 16.54 165.468 16.1416 165.175 15.8369C164.882 15.5264 164.496 15.3711 164.015 15.3711C163.423 15.3711 162.975 15.5879 162.67 16.0215C162.372 16.4492 162.222 17.1465 162.222 18.1133V18.377C162.222 19.3555 162.372 20.0586 162.67 20.4863C162.969 20.9141 163.423 21.1279 164.033 21.1279ZM174.808 15.8721C174.462 15.8252 174.158 15.8018 173.894 15.8018C172.933 15.8018 172.303 16.127 172.004 16.7773V23H169.464V13.4902H171.864L171.934 14.624C172.444 13.751 173.15 13.3145 174.052 13.3145C174.333 13.3145 174.597 13.3525 174.843 13.4287L174.808 15.8721ZM178.719 23H176.17V13.4902H178.719V23ZM176.021 11.0293C176.021 10.6484 176.147 10.335 176.399 10.0889C176.657 9.84277 177.005 9.71973 177.445 9.71973C177.878 9.71973 178.224 9.84277 178.482 10.0889C178.74 10.335 178.869 10.6484 178.869 11.0293C178.869 11.416 178.737 11.7324 178.473 11.9785C178.215 12.2246 177.873 12.3477 177.445 12.3477C177.017 12.3477 176.671 12.2246 176.408 11.9785C176.15 11.7324 176.021 11.416 176.021 11.0293ZM189.38 18.333C189.38 19.7979 189.046 20.9727 188.378 21.8574C187.716 22.7363 186.82 23.1758 185.689 23.1758C184.728 23.1758 183.952 22.8418 183.36 22.1738V26.6562H180.82V13.4902H183.175L183.263 14.4219C183.878 13.6836 184.681 13.3145 185.671 13.3145C186.843 13.3145 187.754 13.748 188.405 14.6152C189.055 15.4824 189.38 16.6777 189.38 18.2012V18.333ZM186.84 18.1484C186.84 17.2637 186.682 16.5811 186.366 16.1006C186.055 15.6201 185.601 15.3799 185.003 15.3799C184.206 15.3799 183.659 15.6846 183.36 16.2939V20.1875C183.67 20.8145 184.224 21.1279 185.021 21.1279C186.234 21.1279 186.84 20.1348 186.84 18.1484ZM194.003 11.1523V13.4902H195.629V15.3535H194.003V20.0996C194.003 20.4512 194.071 20.7031 194.206 20.8555C194.34 21.0078 194.598 21.084 194.979 21.084C195.26 21.084 195.509 21.0635 195.726 21.0225V22.9473C195.228 23.0996 194.715 23.1758 194.188 23.1758C192.407 23.1758 191.498 22.2764 191.463 20.4775V15.3535H190.075V13.4902H191.463V11.1523H194.003ZM199.725 23H197.176V13.4902H199.725V23ZM197.027 11.0293C197.027 10.6484 197.153 10.335 197.405 10.0889C197.663 9.84277 198.011 9.71973 198.451 9.71973C198.884 9.71973 199.23 9.84277 199.488 10.0889C199.746 10.335 199.874 10.6484 199.874 11.0293C199.874 11.416 199.743 11.7324 199.479 11.9785C199.221 12.2246 198.878 12.3477 198.451 12.3477C198.023 12.3477 197.677 12.2246 197.414 11.9785C197.156 11.7324 197.027 11.416 197.027 11.0293ZM201.43 18.1572C201.43 17.2139 201.612 16.373 201.975 15.6348C202.338 14.8965 202.86 14.3252 203.539 13.9209C204.225 13.5166 205.019 13.3145 205.921 13.3145C207.205 13.3145 208.25 13.707 209.059 14.4922C209.873 15.2773 210.328 16.3438 210.421 17.6914L210.439 18.3418C210.439 19.8008 210.032 20.9727 209.217 21.8574C208.403 22.7363 207.31 23.1758 205.939 23.1758C204.568 23.1758 203.472 22.7363 202.652 21.8574C201.837 20.9785 201.43 19.7832 201.43 18.2715V18.1572ZM203.97 18.3418C203.97 19.2441 204.14 19.9355 204.48 20.416C204.82 20.8906 205.306 21.1279 205.939 21.1279C206.554 21.1279 207.035 20.8936 207.38 20.4248C207.726 19.9502 207.899 19.1943 207.899 18.1572C207.899 17.2725 207.726 16.5869 207.38 16.1006C207.035 15.6143 206.548 15.3711 205.921 15.3711C205.3 15.3711 204.82 15.6143 204.48 16.1006C204.14 16.5811 203.97 17.3281 203.97 18.3418ZM214.341 13.4902L214.42 14.5889C215.1 13.7393 216.011 13.3145 217.154 13.3145C218.162 13.3145 218.912 13.6104 219.404 14.2021C219.896 14.7939 220.148 15.6787 220.16 16.8564V23H217.62V16.918C217.62 16.3789 217.502 15.9893 217.268 15.749C217.034 15.5029 216.644 15.3799 216.099 15.3799C215.384 15.3799 214.848 15.6846 214.491 16.2939V23H211.951V13.4902H214.341Z" fill="black"/>
<path d="M0.5 32.1667H600.726V67.8333H0.5V32.1667Z" fill="white" stroke="black"/>
<path d="M0.5 65.5H600.726V97.8333H0.5V65.5Z" fill="white" stroke="black"/>
<path d="M0.5 95.5H600.726V124.5H0.5V95.5Z" fill="white" stroke="black"/>
<path d="M21.0265 46.526H17.3703V56.6667H15.8781V46.526H12.2296V45.2917H21.0265V46.526ZM23.9328 49.237C24.5734 48.4505 25.4067 48.0573 26.4328 48.0573C28.2192 48.0573 29.1203 49.0651 29.1359 51.0807V56.6667H27.6906V51.0729C27.6854 50.4635 27.5447 50.013 27.2687 49.7213C26.9979 49.4297 26.5734 49.2838 25.9953 49.2838C25.5265 49.2838 25.1151 49.4088 24.7609 49.6588C24.4067 49.9088 24.1307 50.237 23.9328 50.6432V56.6667H22.4874V44.6667H23.9328V49.237ZM32.8703 56.6667H31.4249V48.2135H32.8703V56.6667ZM31.3078 45.9713C31.3078 45.737 31.3781 45.5391 31.5187 45.3776C31.6645 45.2161 31.8781 45.1354 32.1593 45.1354C32.4406 45.1354 32.6541 45.2161 32.7999 45.3776C32.9458 45.5391 33.0187 45.737 33.0187 45.9713C33.0187 46.2057 32.9458 46.401 32.7999 46.5573C32.6541 46.7135 32.4406 46.7917 32.1593 46.7917C31.8781 46.7917 31.6645 46.7135 31.5187 46.5573C31.3781 46.401 31.3078 46.2057 31.3078 45.9713ZM38.5812 55.6432C39.0968 55.6432 39.5473 55.487 39.9328 55.1745C40.3182 54.862 40.5317 54.4713 40.5734 54.0026H41.9406C41.9145 54.487 41.7479 54.9479 41.4406 55.3854C41.1333 55.8229 40.7218 56.1719 40.2062 56.4323C39.6958 56.6927 39.1541 56.8229 38.5812 56.8229C37.4302 56.8229 36.5135 56.4401 35.8312 55.6745C35.1541 54.9036 34.8156 53.8516 34.8156 52.5182V52.276C34.8156 51.4531 34.9666 50.7213 35.2687 50.0807C35.5708 49.4401 36.0031 48.9427 36.5656 48.5885C37.1333 48.2344 37.8026 48.0573 38.5734 48.0573C39.5213 48.0573 40.3078 48.3411 40.9328 48.9088C41.563 49.4766 41.8989 50.2135 41.9406 51.1198H40.5734C40.5317 50.5729 40.3234 50.125 39.9484 49.776C39.5786 49.4219 39.1203 49.2448 38.5734 49.2448C37.839 49.2448 37.2687 49.5104 36.8624 50.0417C36.4614 50.5677 36.2609 51.3307 36.2609 52.3307V52.6042C36.2609 53.5781 36.4614 54.3281 36.8624 54.8542C37.2635 55.3802 37.8364 55.6432 38.5812 55.6432ZM45.9249 52.7526L45.0187 53.6979V56.6667H43.5734V44.6667H45.0187V51.9245L45.7921 50.9948L48.4249 48.2135H50.1828L46.8937 51.7448L50.5656 56.6667H48.8703L45.9249 52.7526ZM62.1437 51.6432H57.3703V56.6667H55.8703V45.2917H62.9171V46.526H57.3703V50.4167H62.1437V51.6432ZM66.0578 56.6667H64.6124V48.2135H66.0578V56.6667ZM64.4953 45.9713C64.4953 45.737 64.5656 45.5391 64.7062 45.3776C64.852 45.2161 65.0656 45.1354 65.3468 45.1354C65.6281 45.1354 65.8416 45.2161 65.9874 45.3776C66.1333 45.5391 66.2062 45.737 66.2062 45.9713C66.2062 46.2057 66.1333 46.401 65.9874 46.5573C65.8416 46.7135 65.6281 46.7917 65.3468 46.7917C65.0656 46.7917 64.852 46.7135 64.7062 46.5573C64.5656 46.401 64.4953 46.2057 64.4953 45.9713ZM69.9484 56.6667H68.5031V44.6667H69.9484V56.6667ZM73.6281 48.2135L73.6671 49.151C74.2869 48.4219 75.1229 48.0573 76.1749 48.0573C77.3572 48.0573 78.1619 48.5104 78.589 49.4167C78.8703 49.0104 79.2348 48.6823 79.6828 48.4323C80.1359 48.1823 80.6697 48.0573 81.2843 48.0573C83.1385 48.0573 84.0812 49.0391 84.1124 51.0026V56.6667H82.6671V51.0885C82.6671 50.4844 82.5291 50.0338 82.2531 49.737C81.977 49.4349 81.5135 49.2838 80.8624 49.2838C80.326 49.2838 79.8807 49.4453 79.5265 49.7682C79.1723 50.0859 78.9666 50.5156 78.9093 51.0573V56.6667H77.4562V51.1276C77.4562 49.8984 76.8546 49.2838 75.6515 49.2838C74.7036 49.2838 74.0552 49.6875 73.7062 50.4948V56.6667H72.2609V48.2135H73.6281ZM94.6671 52.0651H91.9953V56.6667H90.4874V45.2917H94.2531C95.5343 45.2917 96.5187 45.5833 97.2062 46.1667C97.8989 46.75 98.2453 47.5989 98.2453 48.7135C98.2453 49.4219 98.0526 50.0391 97.6671 50.5651C97.2869 51.0911 96.7557 51.4844 96.0734 51.7448L98.7453 56.5729V56.6667H97.1359L94.6671 52.0651ZM91.9953 50.8385H94.2999C95.0447 50.8385 95.6359 50.6458 96.0734 50.2604C96.5161 49.875 96.7374 49.3594 96.7374 48.7135C96.7374 48.0104 96.5265 47.4713 96.1046 47.0963C95.688 46.7213 95.0838 46.5312 94.2921 46.526H91.9953V50.8385ZM103.636 56.8229C102.49 56.8229 101.558 56.4479 100.839 55.6979C100.12 54.9427 99.7609 53.9349 99.7609 52.6745V52.4088C99.7609 51.5703 99.9197 50.8229 100.237 50.1667C100.56 49.5052 101.008 48.9896 101.581 48.6198C102.159 48.2448 102.784 48.0573 103.456 48.0573C104.555 48.0573 105.409 48.4193 106.019 49.1432C106.628 49.8672 106.933 50.9036 106.933 52.2526V52.8542H101.206C101.227 53.6875 101.469 54.362 101.933 54.8776C102.402 55.388 102.995 55.6432 103.714 55.6432C104.224 55.6432 104.657 55.5391 105.011 55.3307C105.365 55.1224 105.675 54.8463 105.941 54.5026L106.823 55.1901C106.115 56.2786 105.053 56.8229 103.636 56.8229ZM103.456 49.2448C102.873 49.2448 102.383 49.4583 101.987 49.8854C101.592 50.3073 101.347 50.901 101.253 51.6667H105.487V51.5573C105.446 50.8229 105.248 50.2552 104.894 49.8542C104.54 49.4479 104.06 49.2448 103.456 49.2448ZM113.534 54.4245C113.534 54.0338 113.386 53.7318 113.089 53.5182C112.797 53.2995 112.284 53.112 111.55 52.9557C110.821 52.7995 110.24 52.612 109.808 52.3932C109.381 52.1745 109.063 51.9141 108.855 51.612C108.652 51.3099 108.55 50.9505 108.55 50.5338C108.55 49.8411 108.842 49.2552 109.425 48.776C110.013 48.2969 110.763 48.0573 111.675 48.0573C112.633 48.0573 113.409 48.3047 114.003 48.7995C114.602 49.2943 114.902 49.9271 114.902 50.6979H113.448C113.448 50.3021 113.279 49.9609 112.941 49.6745C112.607 49.388 112.185 49.2448 111.675 49.2448C111.149 49.2448 110.737 49.3594 110.441 49.5885C110.144 49.8177 109.995 50.1172 109.995 50.487C109.995 50.8359 110.133 51.0989 110.409 51.276C110.685 51.4531 111.183 51.6224 111.902 51.7838C112.625 51.9453 113.211 52.138 113.659 52.362C114.107 52.5859 114.438 52.8568 114.652 53.1745C114.87 53.487 114.98 53.8698 114.98 54.3229C114.98 55.0781 114.678 55.6849 114.073 56.1432C113.469 56.5963 112.685 56.8229 111.722 56.8229C111.045 56.8229 110.446 56.7031 109.925 56.4635C109.404 56.2239 108.995 55.8906 108.698 55.4635C108.407 55.0312 108.261 54.5651 108.261 54.0651H109.706C109.732 54.5495 109.925 54.9349 110.284 55.2213C110.649 55.5026 111.128 55.6432 111.722 55.6432C112.269 55.6432 112.706 55.5338 113.034 55.3151C113.368 55.0911 113.534 54.7943 113.534 54.4245ZM118.433 56.6667H116.987V48.2135H118.433V56.6667ZM116.87 45.9713C116.87 45.737 116.941 45.5391 117.081 45.3776C117.227 45.2161 117.441 45.1354 117.722 45.1354C118.003 45.1354 118.217 45.2161 118.362 45.3776C118.508 45.5391 118.581 45.737 118.581 45.9713C118.581 46.2057 118.508 46.401 118.362 46.5573C118.217 46.7135 118.003 46.7917 117.722 46.7917C117.441 46.7917 117.227 46.7135 117.081 46.5573C116.941 46.401 116.87 46.2057 116.87 45.9713ZM125.675 54.4245C125.675 54.0338 125.527 53.7318 125.23 53.5182C124.938 53.2995 124.425 53.112 123.691 52.9557C122.961 52.7995 122.381 52.612 121.948 52.3932C121.521 52.1745 121.204 51.9141 120.995 51.612C120.792 51.3099 120.691 50.9505 120.691 50.5338C120.691 49.8411 120.982 49.2552 121.566 48.776C122.154 48.2969 122.904 48.0573 123.816 48.0573C124.774 48.0573 125.55 48.3047 126.144 48.7995C126.743 49.2943 127.042 49.9271 127.042 50.6979H125.589C125.589 50.3021 125.42 49.9609 125.081 49.6745C124.748 49.388 124.326 49.2448 123.816 49.2448C123.29 49.2448 122.878 49.3594 122.581 49.5885C122.284 49.8177 122.136 50.1172 122.136 50.487C122.136 50.8359 122.274 51.0989 122.55 51.276C122.826 51.4531 123.323 51.6224 124.042 51.7838C124.766 51.9453 125.352 52.138 125.8 52.362C126.248 52.5859 126.579 52.8568 126.792 53.1745C127.011 53.487 127.12 53.8698 127.12 54.3229C127.12 55.0781 126.818 55.6849 126.214 56.1432C125.61 56.5963 124.826 56.8229 123.862 56.8229C123.185 56.8229 122.586 56.7031 122.066 56.4635C121.545 56.2239 121.136 55.8906 120.839 55.4635C120.547 55.0312 120.402 54.5651 120.402 54.0651H121.847C121.873 54.5495 122.066 54.9349 122.425 55.2213C122.79 55.5026 123.269 55.6432 123.862 55.6432C124.409 55.6432 124.847 55.5338 125.175 55.3151C125.508 55.0911 125.675 54.7943 125.675 54.4245ZM130.964 46.1667V48.2135H132.542V49.3307H130.964V54.5729C130.964 54.9114 131.034 55.1667 131.175 55.3385C131.316 55.5052 131.555 55.5885 131.894 55.5885C132.06 55.5885 132.29 55.5573 132.581 55.4948V56.6667C132.201 56.7708 131.831 56.8229 131.472 56.8229C130.826 56.8229 130.339 56.6276 130.011 56.237C129.683 55.8463 129.519 55.2917 129.519 54.5729V49.3307H127.98V48.2135H129.519V46.1667H130.964ZM133.698 52.362C133.698 51.5338 133.86 50.7891 134.183 50.1276C134.511 49.4661 134.964 48.9557 135.542 48.5963C136.125 48.237 136.79 48.0573 137.534 48.0573C138.685 48.0573 139.615 48.4557 140.323 49.2526C141.037 50.0495 141.394 51.1094 141.394 52.4323V52.5338C141.394 53.3568 141.235 54.0963 140.917 54.7526C140.605 55.4036 140.154 55.9114 139.566 56.276C138.982 56.6406 138.31 56.8229 137.55 56.8229C136.404 56.8229 135.474 56.4245 134.761 55.6276C134.053 54.8307 133.698 53.776 133.698 52.4635V52.362ZM135.152 52.5338C135.152 53.4713 135.368 54.2239 135.8 54.7917C136.237 55.3594 136.821 55.6432 137.55 55.6432C138.284 55.6432 138.868 55.3568 139.3 54.7838C139.732 54.2057 139.948 53.3984 139.948 52.362C139.948 51.4349 139.727 50.6849 139.284 50.112C138.847 49.5338 138.263 49.2448 137.534 49.2448C136.821 49.2448 136.245 49.5286 135.808 50.0963C135.37 50.6641 135.152 51.4766 135.152 52.5338ZM147.292 49.5104C147.073 49.4739 146.836 49.4557 146.581 49.4557C145.633 49.4557 144.99 49.8594 144.652 50.6667V56.6667H143.206V48.2135H144.612L144.636 49.1901C145.11 48.4349 145.782 48.0573 146.652 48.0573C146.933 48.0573 147.146 48.0937 147.292 48.1667V49.5104ZM155.605 52.4245H151.792V51.2448H155.605V52.4245ZM164.566 51.5963C163.279 51.2266 162.342 50.7734 161.753 50.237C161.17 49.6953 160.878 49.0286 160.878 48.237C160.878 47.3411 161.235 46.6016 161.948 46.0182C162.667 45.4297 163.599 45.1354 164.745 45.1354C165.527 45.1354 166.222 45.2864 166.831 45.5885C167.446 45.8906 167.92 46.3073 168.253 46.8385C168.592 47.3698 168.761 47.9505 168.761 48.5807H167.253C167.253 47.8932 167.034 47.3542 166.597 46.9635C166.159 46.5677 165.542 46.3698 164.745 46.3698C164.006 46.3698 163.428 46.5338 163.011 46.862C162.599 47.1849 162.394 47.6354 162.394 48.2135C162.394 48.6771 162.589 49.0703 162.98 49.3932C163.375 49.7109 164.045 50.0026 164.987 50.2682C165.935 50.5338 166.675 50.8281 167.206 51.151C167.743 51.4687 168.138 51.8411 168.394 52.2682C168.654 52.6953 168.784 53.1979 168.784 53.776C168.784 54.6979 168.425 55.4375 167.706 55.9948C166.987 56.5469 166.027 56.8229 164.823 56.8229C164.042 56.8229 163.313 56.6745 162.636 56.3776C161.959 56.0755 161.435 55.6641 161.066 55.1432C160.701 54.6224 160.519 54.0312 160.519 53.3698H162.027C162.027 54.0573 162.279 54.6016 162.784 55.0026C163.295 55.3984 163.974 55.5963 164.823 55.5963C165.615 55.5963 166.222 55.4349 166.644 55.112C167.066 54.7891 167.277 54.3489 167.277 53.7917C167.277 53.2344 167.081 52.8047 166.691 52.5026C166.3 52.1953 165.592 51.8932 164.566 51.5963ZM172.652 45.2917L176.37 54.5729L180.089 45.2917H182.034V56.6667H180.534V52.237L180.675 47.4557L176.941 56.6667H175.792L172.066 47.4792L172.214 52.237V56.6667H170.714V45.2917H172.652ZM184.683 56.6667V45.2917H187.894C188.883 45.2917 189.758 45.5104 190.519 45.9479C191.279 46.3854 191.865 47.0078 192.277 47.8151C192.693 48.6224 192.904 49.5495 192.909 50.5963V51.3229C192.909 52.3958 192.701 53.3359 192.284 54.1432C191.873 54.9505 191.282 55.5703 190.511 56.0026C189.745 56.4349 188.852 56.6562 187.831 56.6667H184.683ZM186.183 46.526V55.4401H187.761C188.917 55.4401 189.816 55.0807 190.456 54.362C191.102 53.6432 191.425 52.6198 191.425 51.2917V50.6276C191.425 49.3359 191.12 48.3333 190.511 47.6198C189.907 46.901 189.047 46.5364 187.933 46.526H186.183ZM203.527 56.6667H202.073V47.0338L199.159 48.1042V46.7917L203.3 45.237H203.527V56.6667ZM215.214 56.6667H207.761V55.6276L211.698 51.2526C212.282 50.5911 212.683 50.0547 212.902 49.6432C213.125 49.2266 213.237 48.7969 213.237 48.3542C213.237 47.7604 213.058 47.2734 212.698 46.8932C212.339 46.513 211.86 46.3229 211.261 46.3229C210.542 46.3229 209.982 46.5286 209.581 46.9401C209.185 47.3463 208.987 47.9141 208.987 48.6432H207.542C207.542 47.5963 207.878 46.75 208.55 46.1042C209.227 45.4583 210.131 45.1354 211.261 45.1354C212.318 45.1354 213.154 45.4141 213.769 45.9713C214.383 46.5234 214.691 47.2604 214.691 48.1823C214.691 49.3021 213.977 50.6354 212.55 52.1823L209.503 55.487H215.214V56.6667ZM223.878 51.8151C223.878 53.5078 223.589 54.7656 223.011 55.5885C222.433 56.4114 221.529 56.8229 220.3 56.8229C219.086 56.8229 218.188 56.4219 217.605 55.6198C217.021 54.8125 216.719 53.6094 216.698 52.0104V50.0807C216.698 48.4088 216.987 47.1667 217.566 46.3542C218.144 45.5417 219.05 45.1354 220.284 45.1354C221.508 45.1354 222.409 45.5286 222.987 46.3151C223.566 47.0963 223.862 48.3047 223.878 49.9401V51.8151ZM222.433 49.8385C222.433 48.6146 222.261 47.7239 221.917 47.1667C221.573 46.6042 221.029 46.3229 220.284 46.3229C219.545 46.3229 219.006 46.6016 218.667 47.1588C218.329 47.7161 218.154 48.5729 218.144 49.7292V52.0417C218.144 53.2708 218.321 54.1797 218.675 54.7682C219.034 55.3516 219.576 55.6432 220.3 55.6432C221.013 55.6432 221.542 55.3672 221.886 54.8151C222.235 54.263 222.417 53.3932 222.433 52.2057V49.8385ZM231.402 45.2838V46.5104H231.136C230.011 46.5312 229.115 46.8646 228.448 47.5104C227.782 48.1562 227.396 49.0651 227.292 50.237C227.891 49.5495 228.709 49.2057 229.745 49.2057C230.735 49.2057 231.524 49.5547 232.112 50.2526C232.706 50.9505 233.003 51.8516 233.003 52.9557C233.003 54.1276 232.683 55.0651 232.042 55.7682C231.407 56.4713 230.553 56.8229 229.48 56.8229C228.391 56.8229 227.508 56.4062 226.831 55.5729C226.154 54.7344 225.816 53.6562 225.816 52.3385V51.7838C225.816 49.6901 226.261 48.0911 227.152 46.987C228.047 45.8776 229.378 45.3099 231.144 45.2838H231.402ZM229.503 50.4088C229.008 50.4088 228.553 50.5573 228.136 50.8542C227.719 51.151 227.43 51.5234 227.269 51.9713V52.5026C227.269 53.4401 227.48 54.1953 227.902 54.7682C228.323 55.3411 228.849 55.6276 229.48 55.6276C230.131 55.6276 230.641 55.388 231.011 54.9088C231.386 54.4297 231.573 53.8021 231.573 53.026C231.573 52.2448 231.383 51.6146 231.003 51.1354C230.628 50.651 230.128 50.4088 229.503 50.4088ZM243.433 56.6667H241.98V47.0338L239.066 48.1042V46.7917L243.206 45.237H243.433V56.6667ZM254.8 51.8151C254.8 53.5078 254.511 54.7656 253.933 55.5885C253.355 56.4114 252.451 56.8229 251.222 56.8229C250.008 56.8229 249.11 56.4219 248.527 55.6198C247.943 54.8125 247.641 53.6094 247.62 52.0104V50.0807C247.62 48.4088 247.909 47.1667 248.487 46.3542C249.066 45.5417 249.972 45.1354 251.206 45.1354C252.43 45.1354 253.331 45.5286 253.909 46.3151C254.487 47.0963 254.784 48.3047 254.8 49.9401V51.8151ZM253.355 49.8385C253.355 48.6146 253.183 47.7239 252.839 47.1667C252.495 46.6042 251.951 46.3229 251.206 46.3229C250.467 46.3229 249.928 46.6016 249.589 47.1588C249.25 47.7161 249.076 48.5729 249.066 49.7292V52.0417C249.066 53.2708 249.243 54.1797 249.597 54.7682C249.956 55.3516 250.498 55.6432 251.222 55.6432C251.935 55.6432 252.464 55.3672 252.808 54.8151C253.157 54.263 253.339 53.3932 253.355 52.2057V49.8385ZM265.37 56.6667H263.917V47.0338L261.003 48.1042V46.7917L265.144 45.237H265.37V56.6667ZM269.48 47.4792C269.48 46.7969 269.696 46.2344 270.128 45.7917C270.566 45.3489 271.125 45.1276 271.808 45.1276C272.5 45.1276 273.06 45.3516 273.487 45.7995C273.92 46.2422 274.136 46.8177 274.136 47.526V48.0807C274.136 48.7682 273.917 49.3307 273.48 49.7682C273.047 50.2005 272.495 50.4167 271.823 50.4167C271.146 50.4167 270.586 50.2005 270.144 49.7682C269.701 49.3307 269.48 48.75 269.48 48.026V47.4792ZM270.558 48.0807C270.558 48.487 270.672 48.8229 270.902 49.0885C271.131 49.3489 271.438 49.4792 271.823 49.4792C272.193 49.4792 272.49 49.3516 272.714 49.0963C272.943 48.8411 273.058 48.4922 273.058 48.0495V47.4792C273.058 47.0729 272.946 46.737 272.722 46.4713C272.498 46.2057 272.193 46.0729 271.808 46.0729C271.422 46.0729 271.118 46.2057 270.894 46.4713C270.67 46.737 270.558 47.0833 270.558 47.5104V48.0807ZM275.019 53.8776C275.019 53.1953 275.235 52.6354 275.667 52.1979C276.105 51.7552 276.665 51.5338 277.347 51.5338C278.029 51.5338 278.589 51.7526 279.027 52.1901C279.464 52.6276 279.683 53.2083 279.683 53.9323V54.487C279.683 55.1693 279.464 55.7318 279.027 56.1745C278.594 56.612 278.04 56.8307 277.362 56.8307C276.685 56.8307 276.125 56.6146 275.683 56.1823C275.24 55.7448 275.019 55.1641 275.019 54.4401V53.8776ZM276.097 54.487C276.097 54.8984 276.211 55.237 276.441 55.5026C276.67 55.763 276.977 55.8932 277.362 55.8932C277.737 55.8932 278.037 55.7656 278.261 55.5104C278.485 55.25 278.597 54.8984 278.597 54.4557V53.8776C278.597 53.4661 278.482 53.1302 278.253 52.8698C278.029 52.6094 277.727 52.4792 277.347 52.4792C276.977 52.4792 276.675 52.6094 276.441 52.8698C276.211 53.125 276.097 53.4713 276.097 53.9088V54.487ZM272.152 55.8073L271.331 55.2917L276.886 46.401L277.706 46.9167L272.152 55.8073Z" fill="black"/>
<path d="M19.5968 81.4088H14.6671V85.4401H20.3937V86.6667H13.1671V75.2917H20.3156V76.526H14.6671V80.1823H19.5968V81.4088ZM26.4328 82.0651H23.7609V86.6667H22.2531V75.2917H26.0187C27.2999 75.2917 28.2843 75.5833 28.9718 76.1667C29.6645 76.75 30.0109 77.5989 30.0109 78.7135C30.0109 79.4219 29.8182 80.0391 29.4328 80.5651C29.0526 81.0911 28.5213 81.4844 27.839 81.7448L30.5109 86.5729V86.6667H28.9015L26.4328 82.0651ZM23.7609 80.8385H26.0656C26.8104 80.8385 27.4015 80.6458 27.839 80.2604C28.2817 79.875 28.5031 79.3594 28.5031 78.7135C28.5031 78.0104 28.2921 77.4713 27.8703 77.0963C27.4536 76.7213 26.8494 76.5312 26.0578 76.526H23.7609V80.8385ZM36.8859 75.2917H38.3937V83.3463C38.3937 84.4349 38.0656 85.2864 37.4093 85.901C36.7583 86.5156 35.8885 86.8229 34.7999 86.8229C33.6697 86.8229 32.7895 86.5338 32.1593 85.9557C31.5291 85.3776 31.214 84.5677 31.214 83.526H32.714C32.714 84.1771 32.8911 84.6849 33.2453 85.0495C33.6046 85.4141 34.1229 85.5963 34.7999 85.5963C35.4197 85.5963 35.9197 85.401 36.2999 85.0104C36.6854 84.6198 36.8807 84.0729 36.8859 83.3698V75.2917ZM48.2687 81.5963C46.9822 81.2266 46.0447 80.7734 45.4562 80.237C44.8729 79.6953 44.5812 79.0286 44.5812 78.237C44.5812 77.3411 44.938 76.6016 45.6515 76.0182C46.3703 75.4297 47.3026 75.1354 48.4484 75.1354C49.2296 75.1354 49.9249 75.2864 50.5343 75.5885C51.1489 75.8906 51.6229 76.3073 51.9562 76.8385C52.2947 77.3698 52.464 77.9505 52.464 78.5807H50.9562C50.9562 77.8932 50.7374 77.3542 50.2999 76.9635C49.8624 76.5677 49.2453 76.3698 48.4484 76.3698C47.7088 76.3698 47.1307 76.5338 46.714 76.862C46.3026 77.1849 46.0968 77.6354 46.0968 78.2135C46.0968 78.6771 46.2921 79.0703 46.6828 79.3932C47.0786 79.7109 47.7479 80.0026 48.6906 80.2682C49.6385 80.5338 50.3781 80.8281 50.9093 81.151C51.4458 81.4687 51.8416 81.8411 52.0968 82.2682C52.3572 82.6953 52.4874 83.1979 52.4874 83.776C52.4874 84.6979 52.1281 85.4375 51.4093 85.9948C50.6906 86.5469 49.7296 86.8229 48.5265 86.8229C47.7453 86.8229 47.0161 86.6745 46.339 86.3776C45.6619 86.0755 45.1385 85.6641 44.7687 85.1432C44.4041 84.6224 44.2218 84.0312 44.2218 83.3698H45.7296C45.7296 84.0573 45.9822 84.6016 46.4874 85.0026C46.9979 85.3984 47.6776 85.5963 48.5265 85.5963C49.3182 85.5963 49.9249 85.4349 50.3468 85.112C50.7687 84.7891 50.9796 84.3489 50.9796 83.7917C50.9796 83.2344 50.7843 82.8047 50.3937 82.5026C50.0031 82.1953 49.2947 81.8932 48.2687 81.5963ZM57.6984 86.8229C56.5526 86.8229 55.6203 86.4479 54.9015 85.6979C54.1828 84.9427 53.8234 83.9349 53.8234 82.6745V82.4088C53.8234 81.5703 53.9822 80.8229 54.2999 80.1667C54.6229 79.5052 55.0708 78.9896 55.6437 78.6198C56.2218 78.2448 56.8468 78.0573 57.5187 78.0573C58.6177 78.0573 59.4718 78.4193 60.0812 79.1432C60.6906 79.8672 60.9953 80.9036 60.9953 82.2526V82.8542H55.2687C55.2895 83.6875 55.5317 84.362 55.9953 84.8776C56.464 85.388 57.0578 85.6432 57.7765 85.6432C58.2869 85.6432 58.7192 85.5391 59.0734 85.3307C59.4276 85.1224 59.7374 84.8463 60.0031 84.5026L60.8859 85.1901C60.1776 86.2786 59.1151 86.8229 57.6984 86.8229ZM57.5187 79.2448C56.9354 79.2448 56.4458 79.4583 56.0499 79.8854C55.6541 80.3073 55.4093 80.901 55.3156 81.6667H59.5499V81.5573C59.5083 80.8229 59.3104 80.2552 58.9562 79.8542C58.602 79.4479 58.1229 79.2448 57.5187 79.2448ZM66.7609 79.5104C66.5421 79.4739 66.3052 79.4557 66.0499 79.4557C65.102 79.4557 64.4588 79.8594 64.1203 80.6667V86.6667H62.6749V78.2135H64.0812L64.1046 79.1901C64.5786 78.4349 65.2505 78.0573 66.1203 78.0573C66.4015 78.0573 66.6151 78.0937 66.7609 78.1667V79.5104ZM69.6671 86.6667H68.2218V78.2135H69.6671V86.6667ZM68.1046 75.9713C68.1046 75.737 68.1749 75.5391 68.3156 75.3776C68.4614 75.2161 68.6749 75.1354 68.9562 75.1354C69.2374 75.1354 69.451 75.2161 69.5968 75.3776C69.7427 75.5391 69.8156 75.737 69.8156 75.9713C69.8156 76.2057 69.7427 76.401 69.5968 76.5573C69.451 76.7135 69.2374 76.7917 68.9562 76.7917C68.6749 76.7917 68.4614 76.7135 68.3156 76.5573C68.1749 76.401 68.1046 76.2057 68.1046 75.9713ZM75.4953 86.8229C74.3494 86.8229 73.4171 86.4479 72.6984 85.6979C71.9796 84.9427 71.6203 83.9349 71.6203 82.6745V82.4088C71.6203 81.5703 71.7791 80.8229 72.0968 80.1667C72.4197 79.5052 72.8677 78.9896 73.4406 78.6198C74.0187 78.2448 74.6437 78.0573 75.3156 78.0573C76.4145 78.0573 77.2687 78.4193 77.8781 79.1432C78.4874 79.8672 78.7921 80.9036 78.7921 82.2526V82.8542H73.0656C73.0864 83.6875 73.3286 84.362 73.7921 84.8776C74.2609 85.388 74.8546 85.6432 75.5734 85.6432C76.0838 85.6432 76.5161 85.5391 76.8703 85.3307C77.2244 85.1224 77.5343 84.8463 77.7999 84.5026L78.6828 85.1901C77.9744 86.2786 76.9119 86.8229 75.4953 86.8229ZM75.3156 79.2448C74.7322 79.2448 74.2427 79.4583 73.8468 79.8854C73.451 80.3073 73.2062 80.901 73.1124 81.6667H77.3468V81.5573C77.3052 80.8229 77.1072 80.2552 76.7531 79.8542C76.3989 79.4479 75.9197 79.2448 75.3156 79.2448ZM85.3937 84.4245C85.3937 84.0338 85.2453 83.7318 84.9484 83.5182C84.6567 83.2995 84.1437 83.112 83.4093 82.9557C82.6802 82.7995 82.0994 82.612 81.6671 82.3932C81.2401 82.1745 80.9223 81.9141 80.714 81.612C80.5109 81.3099 80.4093 80.9505 80.4093 80.5338C80.4093 79.8411 80.701 79.2552 81.2843 78.776C81.8729 78.2969 82.6229 78.0573 83.5343 78.0573C84.4927 78.0573 85.2687 78.3047 85.8624 78.7995C86.4614 79.2943 86.7609 79.9271 86.7609 80.6979H85.3078C85.3078 80.3021 85.1385 79.9609 84.7999 79.6745C84.4666 79.388 84.0447 79.2448 83.5343 79.2448C83.0083 79.2448 82.5968 79.3594 82.2999 79.5885C82.0031 79.8177 81.8546 80.1172 81.8546 80.487C81.8546 80.8359 81.9927 81.0989 82.2687 81.276C82.5447 81.4531 83.0421 81.6224 83.7609 81.7838C84.4848 81.9453 85.0708 82.138 85.5187 82.362C85.9666 82.5859 86.2973 82.8568 86.5109 83.1745C86.7296 83.487 86.839 83.8698 86.839 84.3229C86.839 85.0781 86.5369 85.6849 85.9328 86.1432C85.3286 86.5963 84.5447 86.8229 83.5812 86.8229C82.9041 86.8229 82.3052 86.7031 81.7843 86.4635C81.2635 86.2239 80.8546 85.8906 80.5578 85.4635C80.2661 85.0312 80.1203 84.5651 80.1203 84.0651H81.5656C81.5916 84.5495 81.7843 84.9349 82.1437 85.2213C82.5083 85.5026 82.9874 85.6432 83.5812 85.6432C84.1281 85.6432 84.5656 85.5338 84.8937 85.3151C85.227 85.0911 85.3937 84.7943 85.3937 84.4245ZM97.2921 86.6667H95.839V77.0338L92.9249 78.1042V76.7917L97.0656 75.237H97.2921V86.6667ZM108.98 86.6667H101.527V85.6276L105.464 81.2526C106.047 80.5911 106.448 80.0547 106.667 79.6432C106.891 79.2266 107.003 78.7969 107.003 78.3542C107.003 77.7604 106.823 77.2734 106.464 76.8932C106.105 76.513 105.625 76.3229 105.027 76.3229C104.308 76.3229 103.748 76.5286 103.347 76.9401C102.951 77.3463 102.753 77.9141 102.753 78.6432H101.308C101.308 77.5963 101.644 76.75 102.316 76.1042C102.993 75.4583 103.896 75.1354 105.027 75.1354C106.084 75.1354 106.92 75.4141 107.534 75.9713C108.149 76.5234 108.456 77.2604 108.456 78.1823C108.456 79.3021 107.743 80.6354 106.316 82.1823L103.269 85.487H108.98V86.6667ZM117.644 81.8151C117.644 83.5078 117.355 84.7656 116.777 85.5885C116.198 86.4114 115.295 86.8229 114.066 86.8229C112.852 86.8229 111.954 86.4219 111.37 85.6198C110.787 84.8125 110.485 83.6094 110.464 82.0104V80.0807C110.464 78.4088 110.753 77.1667 111.331 76.3542C111.909 75.5417 112.816 75.1354 114.05 75.1354C115.274 75.1354 116.175 75.5286 116.753 76.3151C117.331 77.0963 117.628 78.3047 117.644 79.9401V81.8151ZM116.198 79.8385C116.198 78.6146 116.027 77.7239 115.683 77.1667C115.339 76.6042 114.795 76.3229 114.05 76.3229C113.31 76.3229 112.771 76.6016 112.433 77.1588C112.094 77.7161 111.92 78.5729 111.909 79.7292V82.0417C111.909 83.2708 112.086 84.1797 112.441 84.7682C112.8 85.3516 113.342 85.6432 114.066 85.6432C114.779 85.6432 115.308 85.3672 115.652 84.8151C116 84.263 116.183 83.3932 116.198 82.2057V79.8385ZM125.167 75.2838V76.5104H124.902C123.777 76.5312 122.881 76.8646 122.214 77.5104C121.547 78.1562 121.162 79.0651 121.058 80.237C121.657 79.5495 122.474 79.2057 123.511 79.2057C124.5 79.2057 125.29 79.5547 125.878 80.2526C126.472 80.9505 126.769 81.8516 126.769 82.9557C126.769 84.1276 126.448 85.0651 125.808 85.7682C125.172 86.4713 124.318 86.8229 123.245 86.8229C122.157 86.8229 121.274 86.4062 120.597 85.5729C119.92 84.7344 119.581 83.6562 119.581 82.3385V81.7838C119.581 79.6901 120.027 78.0911 120.917 76.987C121.813 75.8776 123.144 75.3099 124.909 75.2838H125.167ZM123.269 80.4088C122.774 80.4088 122.318 80.5573 121.902 80.8542C121.485 81.151 121.196 81.5234 121.034 81.9713V82.5026C121.034 83.4401 121.245 84.1953 121.667 84.7682C122.089 85.3411 122.615 85.6276 123.245 85.6276C123.896 85.6276 124.407 85.388 124.777 84.9088C125.152 84.4297 125.339 83.8021 125.339 83.026C125.339 82.2448 125.149 81.6146 124.769 81.1354C124.394 80.651 123.894 80.4088 123.269 80.4088ZM137.198 86.6667H135.745V77.0338L132.831 78.1042V76.7917L136.972 75.237H137.198V86.6667ZM148.566 81.8151C148.566 83.5078 148.277 84.7656 147.698 85.5885C147.12 86.4114 146.217 86.8229 144.987 86.8229C143.774 86.8229 142.875 86.4219 142.292 85.6198C141.709 84.8125 141.407 83.6094 141.386 82.0104V80.0807C141.386 78.4088 141.675 77.1667 142.253 76.3542C142.831 75.5417 143.737 75.1354 144.972 75.1354C146.196 75.1354 147.097 75.5286 147.675 76.3151C148.253 77.0963 148.55 78.3047 148.566 79.9401V81.8151ZM147.12 79.8385C147.12 78.6146 146.948 77.7239 146.605 77.1667C146.261 76.6042 145.717 76.3229 144.972 76.3229C144.232 76.3229 143.693 76.6016 143.355 77.1588C143.016 77.7161 142.842 78.5729 142.831 79.7292V82.0417C142.831 83.2708 143.008 84.1797 143.362 84.7682C143.722 85.3516 144.263 85.6432 144.987 85.6432C145.701 85.6432 146.23 85.3672 146.573 84.8151C146.922 84.263 147.105 83.3932 147.12 82.2057V79.8385ZM163.511 81.3463C163.511 82.4609 163.323 83.4349 162.948 84.2682C162.573 85.0963 162.042 85.7292 161.355 86.1667C160.667 86.6042 159.865 86.8229 158.948 86.8229C158.053 86.8229 157.258 86.6042 156.566 86.1667C155.873 85.7239 155.334 85.0963 154.948 84.2838C154.568 83.4661 154.373 82.5208 154.362 81.4479V80.6276C154.362 79.5338 154.553 78.5677 154.933 77.7292C155.313 76.8906 155.849 76.25 156.542 75.8073C157.24 75.3594 158.037 75.1354 158.933 75.1354C159.844 75.1354 160.646 75.3568 161.339 75.7995C162.037 76.237 162.573 76.875 162.948 77.7135C163.323 78.5469 163.511 79.5182 163.511 80.6276V81.3463ZM162.019 80.612C162.019 79.263 161.748 78.2292 161.206 77.5104C160.665 76.7864 159.907 76.4245 158.933 76.4245C157.985 76.4245 157.237 76.7864 156.691 77.5104C156.149 78.2292 155.87 79.2292 155.855 80.5104V81.3463C155.855 82.6536 156.128 83.6823 156.675 84.4323C157.227 85.1771 157.985 85.5495 158.948 85.5495C159.917 85.5495 160.667 85.1979 161.198 84.4948C161.73 83.7864 162.003 82.7734 162.019 81.4557V80.612ZM166.98 79.237C167.62 78.4505 168.454 78.0573 169.48 78.0573C171.266 78.0573 172.167 79.0651 172.183 81.0807V86.6667H170.737V81.0729C170.732 80.4635 170.592 80.013 170.316 79.7213C170.045 79.4297 169.62 79.2838 169.042 79.2838C168.573 79.2838 168.162 79.4088 167.808 79.6588C167.454 79.9088 167.178 80.237 166.98 80.6432V86.6667H165.534V74.6667H166.98V79.237ZM175.706 78.2135L175.745 79.151C176.365 78.4219 177.201 78.0573 178.253 78.0573C179.435 78.0573 180.24 78.5104 180.667 79.4167C180.948 79.0104 181.313 78.6823 181.761 78.4323C182.214 78.1823 182.748 78.0573 183.362 78.0573C185.217 78.0573 186.159 79.0391 186.191 81.0026V86.6667H184.745V81.0885C184.745 80.4844 184.607 80.0338 184.331 79.737C184.055 79.4349 183.592 79.2838 182.941 79.2838C182.404 79.2838 181.959 79.4453 181.605 79.7682C181.25 80.0859 181.045 80.5156 180.987 81.0573V86.6667H179.534V81.1276C179.534 79.8984 178.933 79.2838 177.73 79.2838C176.782 79.2838 176.133 79.6875 175.784 80.4948V86.6667H174.339V78.2135H175.706ZM199.331 81.8151C199.331 83.5078 199.042 84.7656 198.464 85.5885C197.886 86.4114 196.982 86.8229 195.753 86.8229C194.54 86.8229 193.641 86.4219 193.058 85.6198C192.474 84.8125 192.172 83.6094 192.152 82.0104V80.0807C192.152 78.4088 192.441 77.1667 193.019 76.3542C193.597 75.5417 194.503 75.1354 195.737 75.1354C196.961 75.1354 197.862 75.5286 198.441 76.3151C199.019 77.0963 199.316 78.3047 199.331 79.9401V81.8151ZM197.886 79.8385C197.886 78.6146 197.714 77.7239 197.37 77.1667C197.027 76.6042 196.482 76.3229 195.737 76.3229C194.998 76.3229 194.459 76.6016 194.12 77.1588C193.782 77.7161 193.607 78.5729 193.597 79.7292V82.0417C193.597 83.2708 193.774 84.1797 194.128 84.7682C194.487 85.3516 195.029 85.6432 195.753 85.6432C196.467 85.6432 196.995 85.3672 197.339 84.8151C197.688 84.263 197.87 83.3932 197.886 82.2057V79.8385ZM201.362 85.9088C201.362 85.6588 201.435 85.4505 201.581 85.2838C201.732 85.1172 201.956 85.0338 202.253 85.0338C202.55 85.0338 202.774 85.1172 202.925 85.2838C203.081 85.4505 203.159 85.6588 203.159 85.9088C203.159 86.1484 203.081 86.3489 202.925 86.5104C202.774 86.6719 202.55 86.7526 202.253 86.7526C201.956 86.7526 201.732 86.6719 201.581 86.5104C201.435 86.3489 201.362 86.1484 201.362 85.9088ZM212.855 86.6667H205.402V85.6276L209.339 81.2526C209.922 80.5911 210.323 80.0547 210.542 79.6432C210.766 79.2266 210.878 78.7969 210.878 78.3542C210.878 77.7604 210.698 77.2734 210.339 76.8932C209.98 76.513 209.5 76.3229 208.902 76.3229C208.183 76.3229 207.623 76.5286 207.222 76.9401C206.826 77.3463 206.628 77.9141 206.628 78.6432H205.183C205.183 77.5963 205.519 76.75 206.191 76.1042C206.868 75.4583 207.771 75.1354 208.902 75.1354C209.959 75.1354 210.795 75.4141 211.409 75.9713C212.024 76.5234 212.331 77.2604 212.331 78.1823C212.331 79.3021 211.618 80.6354 210.191 82.1823L207.144 85.487H212.855V86.6667ZM215.05 80.9635L215.628 75.2917H221.456V76.6276H216.855L216.511 79.7292C217.068 79.401 217.701 79.237 218.409 79.237C219.446 79.237 220.269 79.5807 220.878 80.2682C221.487 80.9505 221.792 81.875 221.792 83.0417C221.792 84.2135 221.474 85.138 220.839 85.8151C220.209 86.487 219.326 86.8229 218.191 86.8229C217.185 86.8229 216.365 86.5443 215.73 85.987C215.094 85.4297 214.732 84.6588 214.644 83.6745H216.011C216.099 84.3255 216.331 84.8177 216.706 85.151C217.081 85.4792 217.576 85.6432 218.191 85.6432C218.862 85.6432 219.388 85.4141 219.769 84.9557C220.154 84.4974 220.347 83.8646 220.347 83.0573C220.347 82.2969 220.138 81.6875 219.722 81.2292C219.31 80.7656 218.761 80.5338 218.073 80.5338C217.443 80.5338 216.948 80.6719 216.589 80.9479L216.206 81.2604L215.05 80.9635ZM226.198 83.0807L226.417 84.5807L226.737 83.2292L228.987 75.2917H230.253L232.448 83.2292L232.761 84.6042L233.003 83.0729L234.769 75.2917H236.277L233.519 86.6667H232.152L229.808 78.3776L229.628 77.5104L229.448 78.3776L227.019 86.6667H225.652L222.902 75.2917H224.402L226.198 83.0807ZM245.831 80.5651H249.003V81.9323H245.831V85.526H244.378V81.9323H241.206V80.5651H244.378V77.2448H245.831V80.5651ZM253.777 82.4245H249.964V81.2448H253.777V82.4245ZM259.792 86.6667H258.339V77.0338L255.425 78.1042V76.7917L259.566 75.237H259.792V86.6667ZM263.902 77.4792C263.902 76.7969 264.118 76.2344 264.55 75.7917C264.987 75.3489 265.547 75.1276 266.23 75.1276C266.922 75.1276 267.482 75.3516 267.909 75.7995C268.342 76.2422 268.558 76.8177 268.558 77.526V78.0807C268.558 78.7682 268.339 79.3307 267.902 79.7682C267.469 80.2005 266.917 80.4167 266.245 80.4167C265.568 80.4167 265.008 80.2005 264.566 79.7682C264.123 79.3307 263.902 78.75 263.902 78.026V77.4792ZM264.98 78.0807C264.98 78.487 265.094 78.8229 265.323 79.0885C265.553 79.3489 265.86 79.4792 266.245 79.4792C266.615 79.4792 266.912 79.3516 267.136 79.0963C267.365 78.8411 267.48 78.4922 267.48 78.0495V77.4792C267.48 77.0729 267.368 76.737 267.144 76.4713C266.92 76.2057 266.615 76.0729 266.23 76.0729C265.844 76.0729 265.54 76.2057 265.316 76.4713C265.092 76.737 264.98 77.0833 264.98 77.5104V78.0807ZM269.441 83.8776C269.441 83.1953 269.657 82.6354 270.089 82.1979C270.527 81.7552 271.086 81.5338 271.769 81.5338C272.451 81.5338 273.011 81.7526 273.448 82.1901C273.886 82.6276 274.105 83.2083 274.105 83.9323V84.487C274.105 85.1693 273.886 85.7318 273.448 86.1745C273.016 86.612 272.461 86.8307 271.784 86.8307C271.107 86.8307 270.547 86.6146 270.105 86.1823C269.662 85.7448 269.441 85.1641 269.441 84.4401V83.8776ZM270.519 84.487C270.519 84.8984 270.633 85.237 270.862 85.5026C271.092 85.763 271.399 85.8932 271.784 85.8932C272.159 85.8932 272.459 85.7656 272.683 85.5104C272.907 85.25 273.019 84.8984 273.019 84.4557V83.8776C273.019 83.4661 272.904 83.1302 272.675 82.8698C272.451 82.6094 272.149 82.4792 271.769 82.4792C271.399 82.4792 271.097 82.6094 270.862 82.8698C270.633 83.125 270.519 83.4713 270.519 83.9088V84.487ZM266.573 85.8073L265.753 85.2917L271.308 76.401L272.128 76.9167L266.573 85.8073ZM284.003 80.5651H287.175V81.9323H284.003V85.526H282.55V81.9323H279.378V80.5651H282.55V77.2448H284.003V80.5651ZM291.948 82.4245H288.136V81.2448H291.948V82.4245ZM297.964 86.6667H296.511V77.0338L293.597 78.1042V76.7917L297.737 75.237H297.964V86.6667ZM309.331 81.8151C309.331 83.5078 309.042 84.7656 308.464 85.5885C307.886 86.4114 306.982 86.8229 305.753 86.8229C304.54 86.8229 303.641 86.4219 303.058 85.6198C302.474 84.8125 302.172 83.6094 302.152 82.0104V80.0807C302.152 78.4088 302.441 77.1667 303.019 76.3542C303.597 75.5417 304.503 75.1354 305.737 75.1354C306.961 75.1354 307.862 75.5286 308.441 76.3151C309.019 77.0963 309.316 78.3047 309.331 79.9401V81.8151ZM307.886 79.8385C307.886 78.6146 307.714 77.7239 307.37 77.1667C307.027 76.6042 306.482 76.3229 305.737 76.3229C304.998 76.3229 304.459 76.6016 304.12 77.1588C303.782 77.7161 303.607 78.5729 303.597 79.7292V82.0417C303.597 83.2708 303.774 84.1797 304.128 84.7682C304.487 85.3516 305.029 85.6432 305.753 85.6432C306.467 85.6432 306.995 85.3672 307.339 84.8151C307.688 84.263 307.87 83.3932 307.886 82.2057V79.8385ZM318.316 81.8151C318.316 83.5078 318.027 84.7656 317.448 85.5885C316.87 86.4114 315.967 86.8229 314.737 86.8229C313.524 86.8229 312.625 86.4219 312.042 85.6198C311.459 84.8125 311.157 83.6094 311.136 82.0104V80.0807C311.136 78.4088 311.425 77.1667 312.003 76.3542C312.581 75.5417 313.487 75.1354 314.722 75.1354C315.946 75.1354 316.847 75.5286 317.425 76.3151C318.003 77.0963 318.3 78.3047 318.316 79.9401V81.8151ZM316.87 79.8385C316.87 78.6146 316.698 77.7239 316.355 77.1667C316.011 76.6042 315.467 76.3229 314.722 76.3229C313.982 76.3229 313.443 76.6016 313.105 77.1588C312.766 77.7161 312.592 78.5729 312.581 79.7292V82.0417C312.581 83.2708 312.758 84.1797 313.112 84.7682C313.472 85.3516 314.013 85.6432 314.737 85.6432C315.451 85.6432 315.98 85.3672 316.323 84.8151C316.672 84.263 316.855 83.3932 316.87 82.2057V79.8385ZM327.456 82.5338C327.456 83.8203 327.162 84.8568 326.573 85.6432C325.985 86.4297 325.188 86.8229 324.183 86.8229C323.157 86.8229 322.349 86.4974 321.761 85.8463V89.9167H320.316V78.2135H321.636L321.706 79.151C322.295 78.4219 323.112 78.0573 324.159 78.0573C325.175 78.0573 325.977 78.4401 326.566 79.2057C327.159 79.9713 327.456 81.0364 327.456 82.401V82.5338ZM326.011 82.3698C326.011 81.4167 325.808 80.6641 325.402 80.112C324.995 79.5599 324.438 79.2838 323.73 79.2838C322.855 79.2838 322.198 79.6719 321.761 80.4479V84.487C322.193 85.2578 322.855 85.6432 323.745 85.6432C324.438 85.6432 324.987 85.3698 325.394 84.8229C325.805 84.2708 326.011 83.4531 326.011 82.3698ZM336.441 82.5338C336.441 83.8203 336.146 84.8568 335.558 85.6432C334.969 86.4297 334.172 86.8229 333.167 86.8229C332.141 86.8229 331.334 86.4974 330.745 85.8463V89.9167H329.3V78.2135H330.62L330.691 79.151C331.279 78.4219 332.097 78.0573 333.144 78.0573C334.159 78.0573 334.961 78.4401 335.55 79.2057C336.144 79.9713 336.441 81.0364 336.441 82.401V82.5338ZM334.995 82.3698C334.995 81.4167 334.792 80.6641 334.386 80.112C333.98 79.5599 333.422 79.2838 332.714 79.2838C331.839 79.2838 331.183 79.6719 330.745 80.4479V84.487C331.178 85.2578 331.839 85.6432 332.73 85.6432C333.422 85.6432 333.972 85.3698 334.378 84.8229C334.79 84.2708 334.995 83.4531 334.995 82.3698ZM339.644 78.2135L339.683 79.151C340.303 78.4219 341.138 78.0573 342.191 78.0573C343.373 78.0573 344.178 78.5104 344.605 79.4167C344.886 79.0104 345.25 78.6823 345.698 78.4323C346.152 78.1823 346.685 78.0573 347.3 78.0573C349.154 78.0573 350.097 79.0391 350.128 81.0026V86.6667H348.683V81.0885C348.683 80.4844 348.545 80.0338 348.269 79.737C347.993 79.4349 347.529 79.2838 346.878 79.2838C346.342 79.2838 345.896 79.4453 345.542 79.7682C345.188 80.0859 344.982 80.5156 344.925 81.0573V86.6667H343.472V81.1276C343.472 79.8984 342.87 79.2838 341.667 79.2838C340.719 79.2838 340.071 79.6875 339.722 80.4948V86.6667H338.277V78.2135H339.644ZM352.605 87.6432H351.362L356.112 75.2917H357.347L352.605 87.6432ZM367.503 83.0573C367.362 84.2604 366.917 85.1901 366.167 85.8463C365.422 86.4974 364.43 86.8229 363.191 86.8229C361.847 86.8229 360.769 86.3411 359.956 85.3776C359.149 84.4141 358.745 83.125 358.745 81.5104V80.4167C358.745 79.3594 358.933 78.4297 359.308 77.6276C359.688 76.8255 360.224 76.2109 360.917 75.7838C361.61 75.3516 362.412 75.1354 363.323 75.1354C364.532 75.1354 365.5 75.4739 366.23 76.151C366.959 76.8229 367.383 77.7552 367.503 78.9479H365.995C365.865 78.0417 365.581 77.3854 365.144 76.9792C364.711 76.5729 364.105 76.3698 363.323 76.3698C362.365 76.3698 361.612 76.7239 361.066 77.4323C360.524 78.1406 360.253 79.1484 360.253 80.4557V81.5573C360.253 82.7917 360.511 83.7734 361.027 84.5026C361.542 85.2318 362.263 85.5963 363.191 85.5963C364.024 85.5963 364.662 85.4088 365.105 85.0338C365.553 84.6536 365.849 83.9948 365.995 83.0573H367.503ZM376.878 81.5963C375.592 81.2266 374.654 80.7734 374.066 80.237C373.482 79.6953 373.191 79.0286 373.191 78.237C373.191 77.3411 373.547 76.6016 374.261 76.0182C374.98 75.4297 375.912 75.1354 377.058 75.1354C377.839 75.1354 378.534 75.2864 379.144 75.5885C379.758 75.8906 380.232 76.3073 380.566 76.8385C380.904 77.3698 381.073 77.9505 381.073 78.5807H379.566C379.566 77.8932 379.347 77.3542 378.909 76.9635C378.472 76.5677 377.855 76.3698 377.058 76.3698C376.318 76.3698 375.74 76.5338 375.323 76.862C374.912 77.1849 374.706 77.6354 374.706 78.2135C374.706 78.6771 374.902 79.0703 375.292 79.3932C375.688 79.7109 376.357 80.0026 377.3 80.2682C378.248 80.5338 378.987 80.8281 379.519 81.151C380.055 81.4687 380.451 81.8411 380.706 82.2682C380.967 82.6953 381.097 83.1979 381.097 83.776C381.097 84.6979 380.737 85.4375 380.019 85.9948C379.3 86.5469 378.339 86.8229 377.136 86.8229C376.355 86.8229 375.625 86.6745 374.948 86.3776C374.271 86.0755 373.748 85.6641 373.378 85.1432C373.013 84.6224 372.831 84.0312 372.831 83.3698H374.339C374.339 84.0573 374.592 84.6016 375.097 85.0026C375.607 85.3984 376.287 85.5963 377.136 85.5963C377.928 85.5963 378.534 85.4349 378.956 85.112C379.378 84.7891 379.589 84.3489 379.589 83.7917C379.589 83.2344 379.394 82.8047 379.003 82.5026C378.612 82.1953 377.904 81.8932 376.878 81.5963ZM384.964 75.2917L388.683 84.5729L392.402 75.2917H394.347V86.6667H392.847V82.237L392.987 77.4557L389.253 86.6667H388.105L384.378 77.4792L384.527 82.237V86.6667H383.027V75.2917H384.964ZM404.62 76.526H400.964V86.6667H399.472V76.526H395.823V75.2917H404.62V76.526ZM417.511 76.526H413.855V86.6667H412.362V76.526H408.714V75.2917H417.511V76.526ZM420.417 79.237C421.058 78.4505 421.891 78.0573 422.917 78.0573C424.704 78.0573 425.605 79.0651 425.62 81.0807V86.6667H424.175V81.0729C424.17 80.4635 424.029 80.013 423.753 79.7213C423.482 79.4297 423.058 79.2838 422.48 79.2838C422.011 79.2838 421.599 79.4088 421.245 79.6588C420.891 79.9088 420.615 80.237 420.417 80.6432V86.6667H418.972V74.6667H420.417V79.237ZM429.355 86.6667H427.909V78.2135H429.355V86.6667ZM427.792 75.9713C427.792 75.737 427.862 75.5391 428.003 75.3776C428.149 75.2161 428.362 75.1354 428.644 75.1354C428.925 75.1354 429.138 75.2161 429.284 75.3776C429.43 75.5391 429.503 75.737 429.503 75.9713C429.503 76.2057 429.43 76.401 429.284 76.5573C429.138 76.7135 428.925 76.7917 428.644 76.7917C428.362 76.7917 428.149 76.7135 428.003 76.5573C427.862 76.401 427.792 76.2057 427.792 75.9713ZM435.066 85.6432C435.581 85.6432 436.032 85.487 436.417 85.1745C436.803 84.862 437.016 84.4713 437.058 84.0026H438.425C438.399 84.487 438.232 84.9479 437.925 85.3854C437.618 85.8229 437.206 86.1719 436.691 86.4323C436.18 86.6927 435.638 86.8229 435.066 86.8229C433.915 86.8229 432.998 86.4401 432.316 85.6745C431.638 84.9036 431.3 83.8516 431.3 82.5182V82.276C431.3 81.4531 431.451 80.7213 431.753 80.0807C432.055 79.4401 432.487 78.9427 433.05 78.5885C433.618 78.2344 434.287 78.0573 435.058 78.0573C436.006 78.0573 436.792 78.3411 437.417 78.9088C438.047 79.4766 438.383 80.2135 438.425 81.1198H437.058C437.016 80.5729 436.808 80.125 436.433 79.776C436.063 79.4219 435.605 79.2448 435.058 79.2448C434.323 79.2448 433.753 79.5104 433.347 80.0417C432.946 80.5677 432.745 81.3307 432.745 82.3307V82.6042C432.745 83.5781 432.946 84.3281 433.347 84.8542C433.748 85.3802 434.321 85.6432 435.066 85.6432ZM442.409 82.7526L441.503 83.6979V86.6667H440.058V74.6667H441.503V81.9245L442.277 80.9948L444.909 78.2135H446.667L443.378 81.7448L447.05 86.6667H445.355L442.409 82.7526ZM458.628 81.6432H453.855V86.6667H452.355V75.2917H459.402V76.526H453.855V80.4167H458.628V81.6432ZM462.542 86.6667H461.097V78.2135H462.542V86.6667ZM460.98 75.9713C460.98 75.737 461.05 75.5391 461.191 75.3776C461.336 75.2161 461.55 75.1354 461.831 75.1354C462.112 75.1354 462.326 75.2161 462.472 75.3776C462.618 75.5391 462.691 75.737 462.691 75.9713C462.691 76.2057 462.618 76.401 462.472 76.5573C462.326 76.7135 462.112 76.7917 461.831 76.7917C461.55 76.7917 461.336 76.7135 461.191 76.5573C461.05 76.401 460.98 76.2057 460.98 75.9713ZM466.433 86.6667H464.987V74.6667H466.433V86.6667ZM470.112 78.2135L470.152 79.151C470.771 78.4219 471.607 78.0573 472.659 78.0573C473.842 78.0573 474.646 78.5104 475.073 79.4167C475.355 79.0104 475.719 78.6823 476.167 78.4323C476.62 78.1823 477.154 78.0573 477.769 78.0573C479.623 78.0573 480.566 79.0391 480.597 81.0026V86.6667H479.152V81.0885C479.152 80.4844 479.013 80.0338 478.737 79.737C478.461 79.4349 477.998 79.2838 477.347 79.2838C476.81 79.2838 476.365 79.4453 476.011 79.7682C475.657 80.0859 475.451 80.5156 475.394 81.0573V86.6667H473.941V81.1276C473.941 79.8984 473.339 79.2838 472.136 79.2838C471.188 79.2838 470.54 79.6875 470.191 80.4948V86.6667H468.745V78.2135H470.112ZM499.316 83.0573C499.175 84.2604 498.73 85.1901 497.98 85.8463C497.235 86.4974 496.243 86.8229 495.003 86.8229C493.659 86.8229 492.581 86.3411 491.769 85.3776C490.961 84.4141 490.558 83.125 490.558 81.5104V80.4167C490.558 79.3594 490.745 78.4297 491.12 77.6276C491.5 76.8255 492.037 76.2109 492.73 75.7838C493.422 75.3516 494.224 75.1354 495.136 75.1354C496.344 75.1354 497.313 75.4739 498.042 76.151C498.771 76.8229 499.196 77.7552 499.316 78.9479H497.808C497.678 78.0417 497.394 77.3854 496.956 76.9792C496.524 76.5729 495.917 76.3698 495.136 76.3698C494.178 76.3698 493.425 76.7239 492.878 77.4323C492.336 78.1406 492.066 79.1484 492.066 80.4557V81.5573C492.066 82.7917 492.323 83.7734 492.839 84.5026C493.355 85.2318 494.076 85.5963 495.003 85.5963C495.836 85.5963 496.474 85.4088 496.917 85.0338C497.365 84.6536 497.662 83.9948 497.808 83.0573H499.316ZM502.589 79.237C503.23 78.4505 504.063 78.0573 505.089 78.0573C506.875 78.0573 507.777 79.0651 507.792 81.0807V86.6667H506.347V81.0729C506.342 80.4635 506.201 80.013 505.925 79.7213C505.654 79.4297 505.23 79.2838 504.652 79.2838C504.183 79.2838 503.771 79.4088 503.417 79.6588C503.063 79.9088 502.787 80.237 502.589 80.6432V86.6667H501.144V74.6667H502.589V79.237ZM511.527 86.6667H510.081V78.2135H511.527V86.6667ZM509.964 75.9713C509.964 75.737 510.034 75.5391 510.175 75.3776C510.321 75.2161 510.534 75.1354 510.816 75.1354C511.097 75.1354 511.31 75.2161 511.456 75.3776C511.602 75.5391 511.675 75.737 511.675 75.9713C511.675 76.2057 511.602 76.401 511.456 76.5573C511.31 76.7135 511.097 76.7917 510.816 76.7917C510.534 76.7917 510.321 76.7135 510.175 76.5573C510.034 76.401 509.964 76.2057 509.964 75.9713ZM520.987 82.5338C520.987 83.8203 520.693 84.8568 520.105 85.6432C519.516 86.4297 518.719 86.8229 517.714 86.8229C516.688 86.8229 515.881 86.4974 515.292 85.8463V89.9167H513.847V78.2135H515.167L515.237 79.151C515.826 78.4219 516.644 78.0573 517.691 78.0573C518.706 78.0573 519.508 78.4401 520.097 79.2057C520.691 79.9713 520.987 81.0364 520.987 82.401V82.5338ZM519.542 82.3698C519.542 81.4167 519.339 80.6641 518.933 80.112C518.527 79.5599 517.969 79.2838 517.261 79.2838C516.386 79.2838 515.73 79.6719 515.292 80.4479V84.487C515.724 85.2578 516.386 85.6432 517.277 85.6432C517.969 85.6432 518.519 85.3698 518.925 84.8229C519.336 84.2708 519.542 83.4531 519.542 82.3698ZM531.198 82.0651H528.527V86.6667H527.019V75.2917H530.784C532.066 75.2917 533.05 75.5833 533.737 76.1667C534.43 76.75 534.777 77.5989 534.777 78.7135C534.777 79.4219 534.584 80.0391 534.198 80.5651C533.818 81.0911 533.287 81.4844 532.605 81.7448L535.277 86.5729V86.6667H533.667L531.198 82.0651ZM528.527 80.8385H530.831C531.576 80.8385 532.167 80.6458 532.605 80.2604C533.047 79.875 533.269 79.3594 533.269 78.7135C533.269 78.0104 533.058 77.4713 532.636 77.0963C532.219 76.7213 531.615 76.5312 530.823 76.526H528.527V80.8385ZM540.167 86.8229C539.021 86.8229 538.089 86.4479 537.37 85.6979C536.652 84.9427 536.292 83.9349 536.292 82.6745V82.4088C536.292 81.5703 536.451 80.8229 536.769 80.1667C537.092 79.5052 537.54 78.9896 538.112 78.6198C538.691 78.2448 539.316 78.0573 539.987 78.0573C541.086 78.0573 541.941 78.4193 542.55 79.1432C543.159 79.8672 543.464 80.9036 543.464 82.2526V82.8542H537.737C537.758 83.6875 538 84.362 538.464 84.8776C538.933 85.388 539.527 85.6432 540.245 85.6432C540.756 85.6432 541.188 85.5391 541.542 85.3307C541.896 85.1224 542.206 84.8463 542.472 84.5026L543.355 85.1901C542.646 86.2786 541.584 86.8229 540.167 86.8229ZM539.987 79.2448C539.404 79.2448 538.915 79.4583 538.519 79.8854C538.123 80.3073 537.878 80.901 537.784 81.6667H542.019V81.5573C541.977 80.8229 541.779 80.2552 541.425 79.8542C541.071 79.4479 540.592 79.2448 539.987 79.2448ZM550.066 84.4245C550.066 84.0338 549.917 83.7318 549.62 83.5182C549.329 83.2995 548.816 83.112 548.081 82.9557C547.352 82.7995 546.771 82.612 546.339 82.3932C545.912 82.1745 545.594 81.9141 545.386 81.612C545.183 81.3099 545.081 80.9505 545.081 80.5338C545.081 79.8411 545.373 79.2552 545.956 78.776C546.545 78.2969 547.295 78.0573 548.206 78.0573C549.165 78.0573 549.941 78.3047 550.534 78.7995C551.133 79.2943 551.433 79.9271 551.433 80.6979H549.98C549.98 80.3021 549.81 79.9609 549.472 79.6745C549.138 79.388 548.717 79.2448 548.206 79.2448C547.68 79.2448 547.269 79.3594 546.972 79.5885C546.675 79.8177 546.527 80.1172 546.527 80.487C546.527 80.8359 546.665 81.0989 546.941 81.276C547.217 81.4531 547.714 81.6224 548.433 81.7838C549.157 81.9453 549.743 82.138 550.191 82.362C550.638 82.5859 550.969 82.8568 551.183 83.1745C551.402 83.487 551.511 83.8698 551.511 84.3229C551.511 85.0781 551.209 85.6849 550.605 86.1432C550 86.5963 549.217 86.8229 548.253 86.8229C547.576 86.8229 546.977 86.7031 546.456 86.4635C545.935 86.2239 545.527 85.8906 545.23 85.4635C544.938 85.0312 544.792 84.5651 544.792 84.0651H546.237C546.263 84.5495 546.456 84.9349 546.816 85.2213C547.18 85.5026 547.659 85.6432 548.253 85.6432C548.8 85.6432 549.237 85.5338 549.566 85.3151C549.899 85.0911 550.066 84.7943 550.066 84.4245ZM554.964 86.6667H553.519V78.2135H554.964V86.6667ZM553.402 75.9713C553.402 75.737 553.472 75.5391 553.612 75.3776C553.758 75.2161 553.972 75.1354 554.253 75.1354C554.534 75.1354 554.748 75.2161 554.894 75.3776C555.04 75.5391 555.112 75.737 555.112 75.9713C555.112 76.2057 555.04 76.401 554.894 76.5573C554.748 76.7135 554.534 76.7917 554.253 76.7917C553.972 76.7917 553.758 76.7135 553.612 76.5573C553.472 76.401 553.402 76.2057 553.402 75.9713ZM562.206 84.4245C562.206 84.0338 562.058 83.7318 561.761 83.5182C561.469 83.2995 560.956 83.112 560.222 82.9557C559.493 82.7995 558.912 82.612 558.48 82.3932C558.053 82.1745 557.735 81.9141 557.527 81.612C557.323 81.3099 557.222 80.9505 557.222 80.5338C557.222 79.8411 557.513 79.2552 558.097 78.776C558.685 78.2969 559.435 78.0573 560.347 78.0573C561.305 78.0573 562.081 78.3047 562.675 78.7995C563.274 79.2943 563.573 79.9271 563.573 80.6979H562.12C562.12 80.3021 561.951 79.9609 561.612 79.6745C561.279 79.388 560.857 79.2448 560.347 79.2448C559.821 79.2448 559.409 79.3594 559.112 79.5885C558.816 79.8177 558.667 80.1172 558.667 80.487C558.667 80.8359 558.805 81.0989 559.081 81.276C559.357 81.4531 559.855 81.6224 560.573 81.7838C561.297 81.9453 561.883 82.138 562.331 82.362C562.779 82.5859 563.11 82.8568 563.323 83.1745C563.542 83.487 563.652 83.8698 563.652 84.3229C563.652 85.0781 563.349 85.6849 562.745 86.1432C562.141 86.5963 561.357 86.8229 560.394 86.8229C559.717 86.8229 559.118 86.7031 558.597 86.4635C558.076 86.2239 557.667 85.8906 557.37 85.4635C557.079 85.0312 556.933 84.5651 556.933 84.0651H558.378C558.404 84.5495 558.597 84.9349 558.956 85.2213C559.321 85.5026 559.8 85.6432 560.394 85.6432C560.941 85.6432 561.378 85.5338 561.706 85.3151C562.04 85.0911 562.206 84.7943 562.206 84.4245ZM567.495 76.1667V78.2135H569.073V79.3307H567.495V84.5729C567.495 84.9114 567.566 85.1667 567.706 85.3385C567.847 85.5052 568.086 85.5885 568.425 85.5885C568.592 85.5885 568.821 85.5573 569.112 85.4948V86.6667C568.732 86.7708 568.362 86.8229 568.003 86.8229C567.357 86.8229 566.87 86.6276 566.542 86.237C566.214 85.8463 566.05 85.2917 566.05 84.5729V79.3307H564.511V78.2135H566.05V76.1667H567.495ZM570.23 82.362C570.23 81.5338 570.391 80.7891 570.714 80.1276C571.042 79.4661 571.495 78.9557 572.073 78.5963C572.657 78.237 573.321 78.0573 574.066 78.0573C575.217 78.0573 576.146 78.4557 576.855 79.2526C577.568 80.0495 577.925 81.1094 577.925 82.4323V82.5338C577.925 83.3568 577.766 84.0963 577.448 84.7526C577.136 85.4036 576.685 85.9114 576.097 86.276C575.513 86.6406 574.842 86.8229 574.081 86.8229C572.935 86.8229 572.006 86.4245 571.292 85.6276C570.584 84.8307 570.23 83.776 570.23 82.4635V82.362ZM571.683 82.5338C571.683 83.4713 571.899 84.2239 572.331 84.7917C572.769 85.3594 573.352 85.6432 574.081 85.6432C574.816 85.6432 575.399 85.3568 575.831 84.7838C576.263 84.2057 576.48 83.3984 576.48 82.362C576.48 81.4349 576.258 80.6849 575.816 80.112C575.378 79.5338 574.795 79.2448 574.066 79.2448C573.352 79.2448 572.777 79.5286 572.339 80.0963C571.902 80.6641 571.683 81.4766 571.683 82.5338ZM583.823 79.5104C583.605 79.4739 583.368 79.4557 583.112 79.4557C582.165 79.4557 581.521 79.8594 581.183 80.6667V86.6667H579.737V78.2135H581.144L581.167 79.1901C581.641 78.4349 582.313 78.0573 583.183 78.0573C583.464 78.0573 583.678 78.0937 583.823 78.1667V79.5104Z" fill="black"/>
<path d="M17.5421 113.333H16.089V103.701L13.1749 104.771V103.458L17.3156 101.904H17.5421V113.333ZM28.9093 108.482C28.9093 110.174 28.6203 111.432 28.0421 112.255C27.464 113.078 26.5604 113.49 25.3312 113.49C24.1177 113.49 23.2192 113.089 22.6359 112.286C22.0526 111.479 21.7505 110.276 21.7296 108.677V106.747C21.7296 105.076 22.0187 103.833 22.5968 103.021C23.1749 102.208 24.0812 101.802 25.3156 101.802C26.5395 101.802 27.4406 102.195 28.0187 102.982C28.5968 103.763 28.8937 104.971 28.9093 106.607V108.482ZM27.464 106.505C27.464 105.281 27.2921 104.391 26.9484 103.833C26.6046 103.271 26.0604 102.99 25.3156 102.99C24.576 102.99 24.0369 103.268 23.6984 103.826C23.3598 104.383 23.1854 105.24 23.1749 106.396V108.708C23.1749 109.938 23.352 110.846 23.7062 111.435C24.0656 112.018 24.6072 112.31 25.3312 112.31C26.0447 112.31 26.5734 112.034 26.9171 111.482C27.2661 110.93 27.4484 110.06 27.464 108.872V106.505ZM43.8546 108.013C43.8546 109.128 43.6671 110.102 43.2921 110.935C42.9171 111.763 42.3859 112.396 41.6984 112.833C41.0109 113.271 40.2088 113.49 39.2921 113.49C38.3963 113.49 37.602 113.271 36.9093 112.833C36.2166 112.391 35.6776 111.763 35.2921 110.951C34.9119 110.133 34.7166 109.188 34.7062 108.115V107.294C34.7062 106.201 34.8963 105.234 35.2765 104.396C35.6567 103.557 36.1932 102.917 36.8859 102.474C37.5838 102.026 38.3807 101.802 39.2765 101.802C40.188 101.802 40.9901 102.023 41.6828 102.466C42.3807 102.904 42.9171 103.542 43.2921 104.38C43.6671 105.214 43.8546 106.185 43.8546 107.294V108.013ZM42.3624 107.279C42.3624 105.93 42.0916 104.896 41.5499 104.177C41.0083 103.453 40.2505 103.091 39.2765 103.091C38.3286 103.091 37.5812 103.453 37.0343 104.177C36.4927 104.896 36.214 105.896 36.1984 107.177V108.013C36.1984 109.32 36.4718 110.349 37.0187 111.099C37.5708 111.844 38.3286 112.216 39.2921 112.216C40.2609 112.216 41.0109 111.865 41.5421 111.161C42.0734 110.453 42.3468 109.44 42.3624 108.122V107.279ZM47.3234 105.904C47.964 105.117 48.7973 104.724 49.8234 104.724C51.6098 104.724 52.5109 105.732 52.5265 107.747V113.333H51.0812V107.74C51.076 107.13 50.9354 106.68 50.6593 106.388C50.3885 106.096 49.964 105.951 49.3859 105.951C48.9171 105.951 48.5057 106.076 48.1515 106.326C47.7973 106.576 47.5213 106.904 47.3234 107.31V113.333H45.8781V101.333H47.3234V105.904ZM56.0499 104.88L56.089 105.818C56.7088 105.089 57.5447 104.724 58.5968 104.724C59.7791 104.724 60.5838 105.177 61.0109 106.083C61.2921 105.677 61.6567 105.349 62.1046 105.099C62.5578 104.849 63.0916 104.724 63.7062 104.724C65.5604 104.724 66.5031 105.706 66.5343 107.669V113.333H65.089V107.755C65.089 107.151 64.951 106.701 64.6749 106.404C64.3989 106.102 63.9354 105.951 63.2843 105.951C62.7479 105.951 62.3026 106.112 61.9484 106.435C61.5942 106.753 61.3885 107.182 61.3312 107.724V113.333H59.8781V107.794C59.8781 106.565 59.2765 105.951 58.0734 105.951C57.1255 105.951 56.477 106.354 56.1281 107.161V113.333H54.6828V104.88H56.0499ZM76.8312 107.232H80.0031V108.599H76.8312V112.193H75.3781V108.599H72.2062V107.232H75.3781V103.911H76.8312V107.232ZM84.7765 109.091H80.964V107.911H84.7765V109.091ZM90.7921 113.333H89.339V103.701L86.4249 104.771V103.458L90.5656 101.904H90.7921V113.333ZM94.9015 104.146C94.9015 103.464 95.1177 102.901 95.5499 102.458C95.9874 102.016 96.5473 101.794 97.2296 101.794C97.9223 101.794 98.4822 102.018 98.9093 102.466C99.3416 102.909 99.5578 103.484 99.5578 104.193V104.747C99.5578 105.435 99.339 105.997 98.9015 106.435C98.4692 106.867 97.9171 107.083 97.2453 107.083C96.5682 107.083 96.0083 106.867 95.5656 106.435C95.1229 105.997 94.9015 105.417 94.9015 104.693V104.146ZM95.9796 104.747C95.9796 105.154 96.0942 105.49 96.3234 105.755C96.5526 106.016 96.8598 106.146 97.2453 106.146C97.6151 106.146 97.9119 106.018 98.1359 105.763C98.3651 105.508 98.4796 105.159 98.4796 104.716V104.146C98.4796 103.74 98.3677 103.404 98.1437 103.138C97.9197 102.872 97.6151 102.74 97.2296 102.74C96.8442 102.74 96.5395 102.872 96.3156 103.138C96.0916 103.404 95.9796 103.75 95.9796 104.177V104.747ZM100.441 110.544C100.441 109.862 100.657 109.302 101.089 108.865C101.527 108.422 102.086 108.201 102.769 108.201C103.451 108.201 104.011 108.419 104.448 108.857C104.886 109.294 105.105 109.875 105.105 110.599V111.154C105.105 111.836 104.886 112.398 104.448 112.841C104.016 113.279 103.461 113.497 102.784 113.497C102.107 113.497 101.547 113.281 101.105 112.849C100.662 112.411 100.441 111.831 100.441 111.107V110.544ZM101.519 111.154C101.519 111.565 101.633 111.904 101.862 112.169C102.092 112.43 102.399 112.56 102.784 112.56C103.159 112.56 103.459 112.432 103.683 112.177C103.907 111.917 104.019 111.565 104.019 111.122V110.544C104.019 110.133 103.904 109.797 103.675 109.536C103.451 109.276 103.149 109.146 102.769 109.146C102.399 109.146 102.097 109.276 101.862 109.536C101.633 109.792 101.519 110.138 101.519 110.576V111.154ZM97.5734 112.474L96.7531 111.958L102.308 103.068L103.128 103.583L97.5734 112.474ZM117.847 108.482C117.847 110.174 117.558 111.432 116.98 112.255C116.402 113.078 115.498 113.49 114.269 113.49C113.055 113.49 112.157 113.089 111.573 112.286C110.99 111.479 110.688 110.276 110.667 108.677V106.747C110.667 105.076 110.956 103.833 111.534 103.021C112.112 102.208 113.019 101.802 114.253 101.802C115.477 101.802 116.378 102.195 116.956 102.982C117.534 103.763 117.831 104.971 117.847 106.607V108.482ZM116.402 106.505C116.402 105.281 116.23 104.391 115.886 103.833C115.542 103.271 114.998 102.99 114.253 102.99C113.513 102.99 112.974 103.268 112.636 103.826C112.297 104.383 112.123 105.24 112.112 106.396V108.708C112.112 109.938 112.29 110.846 112.644 111.435C113.003 112.018 113.545 112.31 114.269 112.31C114.982 112.31 115.511 112.034 115.855 111.482C116.204 110.93 116.386 110.06 116.402 108.872V106.505ZM119.878 112.576C119.878 112.326 119.951 112.117 120.097 111.951C120.248 111.784 120.472 111.701 120.769 111.701C121.066 111.701 121.29 111.784 121.441 111.951C121.597 112.117 121.675 112.326 121.675 112.576C121.675 112.815 121.597 113.016 121.441 113.177C121.29 113.339 121.066 113.419 120.769 113.419C120.472 113.419 120.248 113.339 120.097 113.177C119.951 113.016 119.878 112.815 119.878 112.576ZM131.37 113.333H123.917V112.294L127.855 107.919C128.438 107.258 128.839 106.721 129.058 106.31C129.282 105.893 129.394 105.464 129.394 105.021C129.394 104.427 129.214 103.94 128.855 103.56C128.495 103.18 128.016 102.99 127.417 102.99C126.698 102.99 126.138 103.195 125.737 103.607C125.342 104.013 125.144 104.581 125.144 105.31H123.698C123.698 104.263 124.034 103.417 124.706 102.771C125.383 102.125 126.287 101.802 127.417 101.802C128.474 101.802 129.31 102.081 129.925 102.638C130.54 103.19 130.847 103.927 130.847 104.849C130.847 105.969 130.133 107.302 128.706 108.849L125.659 112.154H131.37V113.333ZM133.566 107.63L134.144 101.958H139.972V103.294H135.37L135.027 106.396C135.584 106.068 136.217 105.904 136.925 105.904C137.961 105.904 138.784 106.247 139.394 106.935C140.003 107.617 140.308 108.542 140.308 109.708C140.308 110.88 139.99 111.805 139.355 112.482C138.724 113.154 137.842 113.49 136.706 113.49C135.701 113.49 134.881 113.211 134.245 112.654C133.61 112.096 133.248 111.326 133.159 110.341H134.527C134.615 110.992 134.847 111.484 135.222 111.818C135.597 112.146 136.092 112.31 136.706 112.31C137.378 112.31 137.904 112.081 138.284 111.622C138.67 111.164 138.862 110.531 138.862 109.724C138.862 108.964 138.654 108.354 138.237 107.896C137.826 107.432 137.277 107.201 136.589 107.201C135.959 107.201 135.464 107.339 135.105 107.615L134.722 107.927L133.566 107.63ZM144.714 109.747L144.933 111.247L145.253 109.896L147.503 101.958H148.769L150.964 109.896L151.277 111.271L151.519 109.74L153.284 101.958H154.792L152.034 113.333H150.667L148.323 105.044L148.144 104.177L147.964 105.044L145.534 113.333H144.167L141.417 101.958H142.917L144.714 109.747ZM155.222 115.599L154.402 115.036C154.891 114.354 155.146 113.651 155.167 112.927V111.622H156.581V112.755C156.581 113.281 156.451 113.807 156.191 114.333C155.935 114.859 155.612 115.281 155.222 115.599ZM166.98 113.333H165.527V103.701L162.612 104.771V103.458L166.753 101.904H166.98V113.333ZM171.652 114.31H170.409L175.159 101.958H176.394L171.652 114.31ZM183.909 109.513H185.487V110.693H183.909V113.333H182.456V110.693H177.277V109.841L182.37 101.958H183.909V109.513ZM178.917 109.513H182.456V103.935L182.284 104.247L178.917 109.513ZM189.62 109.747L189.839 111.247L190.159 109.896L192.409 101.958H193.675L195.87 109.896L196.183 111.271L196.425 109.74L198.191 101.958H199.698L196.941 113.333H195.573L193.23 105.044L193.05 104.177L192.87 105.044L190.441 113.333H189.073L186.323 101.958H187.823L189.62 109.747ZM213.706 109.724C213.566 110.927 213.12 111.857 212.37 112.513C211.625 113.164 210.633 113.49 209.394 113.49C208.05 113.49 206.972 113.008 206.159 112.044C205.352 111.081 204.948 109.792 204.948 108.177V107.083C204.948 106.026 205.136 105.096 205.511 104.294C205.891 103.492 206.428 102.878 207.12 102.451C207.813 102.018 208.615 101.802 209.527 101.802C210.735 101.802 211.704 102.141 212.433 102.818C213.162 103.49 213.586 104.422 213.706 105.615H212.198C212.068 104.708 211.784 104.052 211.347 103.646C210.915 103.24 210.308 103.036 209.527 103.036C208.568 103.036 207.816 103.391 207.269 104.099C206.727 104.807 206.456 105.815 206.456 107.122V108.224C206.456 109.458 206.714 110.44 207.23 111.169C207.745 111.898 208.467 112.263 209.394 112.263C210.227 112.263 210.865 112.076 211.308 111.701C211.756 111.32 212.053 110.661 212.198 109.724H213.706ZM216.98 105.904C217.62 105.117 218.454 104.724 219.48 104.724C221.266 104.724 222.167 105.732 222.183 107.747V113.333H220.737V107.74C220.732 107.13 220.592 106.68 220.316 106.388C220.045 106.096 219.62 105.951 219.042 105.951C218.573 105.951 218.162 106.076 217.808 106.326C217.454 106.576 217.178 106.904 216.98 107.31V113.333H215.534V101.333H216.98V105.904ZM225.917 113.333H224.472V104.88H225.917V113.333ZM224.355 102.638C224.355 102.404 224.425 102.206 224.566 102.044C224.711 101.883 224.925 101.802 225.206 101.802C225.487 101.802 225.701 101.883 225.847 102.044C225.993 102.206 226.066 102.404 226.066 102.638C226.066 102.872 225.993 103.068 225.847 103.224C225.701 103.38 225.487 103.458 225.206 103.458C224.925 103.458 224.711 103.38 224.566 103.224C224.425 103.068 224.355 102.872 224.355 102.638ZM235.378 109.201C235.378 110.487 235.084 111.523 234.495 112.31C233.907 113.096 233.11 113.49 232.105 113.49C231.079 113.49 230.271 113.164 229.683 112.513V116.583H228.237V104.88H229.558L229.628 105.818C230.217 105.089 231.034 104.724 232.081 104.724C233.097 104.724 233.899 105.107 234.487 105.872C235.081 106.638 235.378 107.703 235.378 109.068V109.201ZM233.933 109.036C233.933 108.083 233.73 107.331 233.323 106.779C232.917 106.227 232.36 105.951 231.652 105.951C230.777 105.951 230.12 106.339 229.683 107.115V111.154C230.115 111.924 230.777 112.31 231.667 112.31C232.36 112.31 232.909 112.036 233.316 111.49C233.727 110.938 233.933 110.12 233.933 109.036ZM245.589 108.732H242.917V113.333H241.409V101.958H245.175C246.456 101.958 247.441 102.25 248.128 102.833C248.821 103.417 249.167 104.266 249.167 105.38C249.167 106.089 248.974 106.706 248.589 107.232C248.209 107.758 247.678 108.151 246.995 108.411L249.667 113.24V113.333H248.058L245.589 108.732ZM242.917 107.505H245.222C245.967 107.505 246.558 107.313 246.995 106.927C247.438 106.542 247.659 106.026 247.659 105.38C247.659 104.677 247.448 104.138 247.027 103.763C246.61 103.388 246.006 103.198 245.214 103.193H242.917V107.505ZM254.558 113.49C253.412 113.49 252.48 113.115 251.761 112.365C251.042 111.609 250.683 110.602 250.683 109.341V109.076C250.683 108.237 250.842 107.49 251.159 106.833C251.482 106.172 251.93 105.656 252.503 105.286C253.081 104.911 253.706 104.724 254.378 104.724C255.477 104.724 256.331 105.086 256.941 105.81C257.55 106.534 257.855 107.57 257.855 108.919V109.521H252.128C252.149 110.354 252.391 111.029 252.855 111.544C253.323 112.055 253.917 112.31 254.636 112.31C255.146 112.31 255.579 112.206 255.933 111.997C256.287 111.789 256.597 111.513 256.862 111.169L257.745 111.857C257.037 112.945 255.974 113.49 254.558 113.49ZM254.378 105.911C253.795 105.911 253.305 106.125 252.909 106.552C252.513 106.974 252.269 107.568 252.175 108.333H256.409V108.224C256.368 107.49 256.17 106.922 255.816 106.521C255.461 106.115 254.982 105.911 254.378 105.911ZM264.456 111.091C264.456 110.701 264.308 110.398 264.011 110.185C263.719 109.966 263.206 109.779 262.472 109.622C261.743 109.466 261.162 109.279 260.73 109.06C260.303 108.841 259.985 108.581 259.777 108.279C259.573 107.977 259.472 107.617 259.472 107.201C259.472 106.508 259.763 105.922 260.347 105.443C260.935 104.964 261.685 104.724 262.597 104.724C263.555 104.724 264.331 104.971 264.925 105.466C265.524 105.961 265.823 106.594 265.823 107.365H264.37C264.37 106.969 264.201 106.628 263.862 106.341C263.529 106.055 263.107 105.911 262.597 105.911C262.071 105.911 261.659 106.026 261.362 106.255C261.066 106.484 260.917 106.784 260.917 107.154C260.917 107.503 261.055 107.766 261.331 107.943C261.607 108.12 262.105 108.289 262.823 108.451C263.547 108.612 264.133 108.805 264.581 109.029C265.029 109.253 265.36 109.523 265.573 109.841C265.792 110.154 265.902 110.536 265.902 110.99C265.902 111.745 265.599 112.352 264.995 112.81C264.391 113.263 263.607 113.49 262.644 113.49C261.967 113.49 261.368 113.37 260.847 113.13C260.326 112.891 259.917 112.557 259.62 112.13C259.329 111.698 259.183 111.232 259.183 110.732H260.628C260.654 111.216 260.847 111.602 261.206 111.888C261.571 112.169 262.05 112.31 262.644 112.31C263.191 112.31 263.628 112.201 263.956 111.982C264.29 111.758 264.456 111.461 264.456 111.091ZM269.355 113.333H267.909V104.88H269.355V113.333ZM267.792 102.638C267.792 102.404 267.862 102.206 268.003 102.044C268.149 101.883 268.362 101.802 268.644 101.802C268.925 101.802 269.138 101.883 269.284 102.044C269.43 102.206 269.503 102.404 269.503 102.638C269.503 102.872 269.43 103.068 269.284 103.224C269.138 103.38 268.925 103.458 268.644 103.458C268.362 103.458 268.149 103.38 268.003 103.224C267.862 103.068 267.792 102.872 267.792 102.638ZM276.597 111.091C276.597 110.701 276.448 110.398 276.152 110.185C275.86 109.966 275.347 109.779 274.612 109.622C273.883 109.466 273.303 109.279 272.87 109.06C272.443 108.841 272.125 108.581 271.917 108.279C271.714 107.977 271.612 107.617 271.612 107.201C271.612 106.508 271.904 105.922 272.487 105.443C273.076 104.964 273.826 104.724 274.737 104.724C275.696 104.724 276.472 104.971 277.066 105.466C277.665 105.961 277.964 106.594 277.964 107.365H276.511C276.511 106.969 276.342 106.628 276.003 106.341C275.67 106.055 275.248 105.911 274.737 105.911C274.211 105.911 273.8 106.026 273.503 106.255C273.206 106.484 273.058 106.784 273.058 107.154C273.058 107.503 273.196 107.766 273.472 107.943C273.748 108.12 274.245 108.289 274.964 108.451C275.688 108.612 276.274 108.805 276.722 109.029C277.17 109.253 277.5 109.523 277.714 109.841C277.933 110.154 278.042 110.536 278.042 110.99C278.042 111.745 277.74 112.352 277.136 112.81C276.532 113.263 275.748 113.49 274.784 113.49C274.107 113.49 273.508 113.37 272.987 113.13C272.467 112.891 272.058 112.557 271.761 112.13C271.469 111.698 271.323 111.232 271.323 110.732H272.769C272.795 111.216 272.987 111.602 273.347 111.888C273.711 112.169 274.191 112.31 274.784 112.31C275.331 112.31 275.769 112.201 276.097 111.982C276.43 111.758 276.597 111.461 276.597 111.091ZM281.886 102.833V104.88H283.464V105.997H281.886V111.24C281.886 111.578 281.956 111.833 282.097 112.005C282.237 112.172 282.477 112.255 282.816 112.255C282.982 112.255 283.211 112.224 283.503 112.161V113.333C283.123 113.438 282.753 113.49 282.394 113.49C281.748 113.49 281.261 113.294 280.933 112.904C280.605 112.513 280.441 111.958 280.441 111.24V105.997H278.902V104.88H280.441V102.833H281.886ZM284.62 109.029C284.62 108.201 284.782 107.456 285.105 106.794C285.433 106.133 285.886 105.622 286.464 105.263C287.047 104.904 287.711 104.724 288.456 104.724C289.607 104.724 290.537 105.122 291.245 105.919C291.959 106.716 292.316 107.776 292.316 109.099V109.201C292.316 110.023 292.157 110.763 291.839 111.419C291.527 112.07 291.076 112.578 290.487 112.943C289.904 113.307 289.232 113.49 288.472 113.49C287.326 113.49 286.396 113.091 285.683 112.294C284.974 111.497 284.62 110.443 284.62 109.13V109.029ZM286.073 109.201C286.073 110.138 286.29 110.891 286.722 111.458C287.159 112.026 287.743 112.31 288.472 112.31C289.206 112.31 289.79 112.023 290.222 111.451C290.654 110.872 290.87 110.065 290.87 109.029C290.87 108.102 290.649 107.352 290.206 106.779C289.769 106.201 289.185 105.911 288.456 105.911C287.743 105.911 287.167 106.195 286.73 106.763C286.292 107.331 286.073 108.143 286.073 109.201ZM298.214 106.177C297.995 106.141 297.758 106.122 297.503 106.122C296.555 106.122 295.912 106.526 295.573 107.333V113.333H294.128V104.88H295.534L295.558 105.857C296.032 105.102 296.704 104.724 297.573 104.724C297.855 104.724 298.068 104.76 298.214 104.833V106.177ZM308.12 113.333H306.667V103.701L303.753 104.771V103.458L307.894 101.904H308.12V113.333ZM319.808 113.333H312.355V112.294L316.292 107.919C316.875 107.258 317.277 106.721 317.495 106.31C317.719 105.893 317.831 105.464 317.831 105.021C317.831 104.427 317.652 103.94 317.292 103.56C316.933 103.18 316.454 102.99 315.855 102.99C315.136 102.99 314.576 103.195 314.175 103.607C313.779 104.013 313.581 104.581 313.581 105.31H312.136C312.136 104.263 312.472 103.417 313.144 102.771C313.821 102.125 314.724 101.802 315.855 101.802C316.912 101.802 317.748 102.081 318.362 102.638C318.977 103.19 319.284 103.927 319.284 104.849C319.284 105.969 318.571 107.302 317.144 108.849L314.097 112.154H319.808V113.333ZM328.472 108.482C328.472 110.174 328.183 111.432 327.605 112.255C327.027 113.078 326.123 113.49 324.894 113.49C323.68 113.49 322.782 113.089 322.198 112.286C321.615 111.479 321.313 110.276 321.292 108.677V106.747C321.292 105.076 321.581 103.833 322.159 103.021C322.737 102.208 323.644 101.802 324.878 101.802C326.102 101.802 327.003 102.195 327.581 102.982C328.159 103.763 328.456 104.971 328.472 106.607V108.482ZM327.027 106.505C327.027 105.281 326.855 104.391 326.511 103.833C326.167 103.271 325.623 102.99 324.878 102.99C324.138 102.99 323.599 103.268 323.261 103.826C322.922 104.383 322.748 105.24 322.737 106.396V108.708C322.737 109.938 322.915 110.846 323.269 111.435C323.628 112.018 324.17 112.31 324.894 112.31C325.607 112.31 326.136 112.034 326.48 111.482C326.829 110.93 327.011 110.06 327.027 108.872V106.505ZM335.995 101.951V103.177H335.73C334.605 103.198 333.709 103.531 333.042 104.177C332.375 104.823 331.99 105.732 331.886 106.904C332.485 106.216 333.303 105.872 334.339 105.872C335.329 105.872 336.118 106.221 336.706 106.919C337.3 107.617 337.597 108.518 337.597 109.622C337.597 110.794 337.277 111.732 336.636 112.435C336 113.138 335.146 113.49 334.073 113.49C332.985 113.49 332.102 113.073 331.425 112.24C330.748 111.401 330.409 110.323 330.409 109.005V108.451C330.409 106.357 330.855 104.758 331.745 103.654C332.641 102.544 333.972 101.977 335.737 101.951H335.995ZM334.097 107.076C333.602 107.076 333.146 107.224 332.73 107.521C332.313 107.818 332.024 108.19 331.862 108.638V109.169C331.862 110.107 332.073 110.862 332.495 111.435C332.917 112.008 333.443 112.294 334.073 112.294C334.724 112.294 335.235 112.055 335.605 111.576C335.98 111.096 336.167 110.469 336.167 109.693C336.167 108.911 335.977 108.281 335.597 107.802C335.222 107.318 334.722 107.076 334.097 107.076ZM343.37 108.716C343.37 107.539 343.527 106.409 343.839 105.326C344.157 104.242 344.628 103.258 345.253 102.372C345.878 101.487 346.527 100.862 347.198 100.497L347.495 101.451C346.735 102.034 346.11 102.924 345.62 104.122C345.136 105.32 344.87 106.661 344.823 108.146L344.816 108.81C344.816 110.82 345.183 112.565 345.917 114.044C346.36 114.93 346.886 115.622 347.495 116.122L347.198 117.005C346.506 116.62 345.844 115.974 345.214 115.068C343.985 113.297 343.37 111.18 343.37 108.716ZM350.847 106.943H351.933C352.615 106.932 353.152 106.753 353.542 106.404C353.933 106.055 354.128 105.583 354.128 104.99C354.128 103.656 353.464 102.99 352.136 102.99C351.511 102.99 351.011 103.169 350.636 103.529C350.266 103.883 350.081 104.354 350.081 104.943H348.636C348.636 104.042 348.964 103.294 349.62 102.701C350.282 102.102 351.12 101.802 352.136 101.802C353.209 101.802 354.05 102.086 354.659 102.654C355.269 103.221 355.573 104.01 355.573 105.021C355.573 105.516 355.412 105.995 355.089 106.458C354.771 106.922 354.336 107.268 353.784 107.497C354.409 107.695 354.891 108.023 355.23 108.482C355.573 108.94 355.745 109.5 355.745 110.161C355.745 111.182 355.412 111.992 354.745 112.591C354.079 113.19 353.211 113.49 352.144 113.49C351.076 113.49 350.206 113.201 349.534 112.622C348.868 112.044 348.534 111.281 348.534 110.333H349.987C349.987 110.932 350.183 111.411 350.573 111.771C350.964 112.13 351.487 112.31 352.144 112.31C352.842 112.31 353.375 112.128 353.745 111.763C354.115 111.398 354.3 110.875 354.3 110.193C354.3 109.531 354.097 109.023 353.691 108.669C353.284 108.315 352.698 108.133 351.933 108.122H350.847V106.943ZM362.48 113.333H361.027V103.701L358.112 104.771V103.458L362.253 101.904H362.48V113.333ZM374.167 113.333H366.714V112.294L370.652 107.919C371.235 107.258 371.636 106.721 371.855 106.31C372.079 105.893 372.191 105.464 372.191 105.021C372.191 104.427 372.011 103.94 371.652 103.56C371.292 103.18 370.813 102.99 370.214 102.99C369.495 102.99 368.935 103.195 368.534 103.607C368.138 104.013 367.941 104.581 367.941 105.31H366.495C366.495 104.263 366.831 103.417 367.503 102.771C368.18 102.125 369.084 101.802 370.214 101.802C371.271 101.802 372.107 102.081 372.722 102.638C373.336 103.19 373.644 103.927 373.644 104.849C373.644 105.969 372.93 107.302 371.503 108.849L368.456 112.154H374.167V113.333ZM381.37 101.951V103.177H381.105C379.98 103.198 379.084 103.531 378.417 104.177C377.75 104.823 377.365 105.732 377.261 106.904C377.86 106.216 378.678 105.872 379.714 105.872C380.704 105.872 381.493 106.221 382.081 106.919C382.675 107.617 382.972 108.518 382.972 109.622C382.972 110.794 382.652 111.732 382.011 112.435C381.375 113.138 380.521 113.49 379.448 113.49C378.36 113.49 377.477 113.073 376.8 112.24C376.123 111.401 375.784 110.323 375.784 109.005V108.451C375.784 106.357 376.23 104.758 377.12 103.654C378.016 102.544 379.347 101.977 381.112 101.951H381.37ZM379.472 107.076C378.977 107.076 378.521 107.224 378.105 107.521C377.688 107.818 377.399 108.19 377.237 108.638V109.169C377.237 110.107 377.448 110.862 377.87 111.435C378.292 112.008 378.818 112.294 379.448 112.294C380.099 112.294 380.61 112.055 380.98 111.576C381.355 111.096 381.542 110.469 381.542 109.693C381.542 108.911 381.352 108.281 380.972 107.802C380.597 107.318 380.097 107.076 379.472 107.076ZM390.964 101.958L394.683 111.24L398.402 101.958H400.347V113.333H398.847V108.904L398.987 104.122L395.253 113.333H394.105L390.378 104.146L390.527 108.904V113.333H389.027V101.958H390.964ZM406.277 113.49C405.131 113.49 404.198 113.115 403.48 112.365C402.761 111.609 402.402 110.602 402.402 109.341V109.076C402.402 108.237 402.56 107.49 402.878 106.833C403.201 106.172 403.649 105.656 404.222 105.286C404.8 104.911 405.425 104.724 406.097 104.724C407.196 104.724 408.05 105.086 408.659 105.81C409.269 106.534 409.573 107.57 409.573 108.919V109.521H403.847C403.868 110.354 404.11 111.029 404.573 111.544C405.042 112.055 405.636 112.31 406.355 112.31C406.865 112.31 407.297 112.206 407.652 111.997C408.006 111.789 408.316 111.513 408.581 111.169L409.464 111.857C408.756 112.945 407.693 113.49 406.277 113.49ZM406.097 105.911C405.513 105.911 405.024 106.125 404.628 106.552C404.232 106.974 403.987 107.568 403.894 108.333H408.128V108.224C408.086 107.49 407.888 106.922 407.534 106.521C407.18 106.115 406.701 105.911 406.097 105.911ZM413.214 102.833V104.88H414.792V105.997H413.214V111.24C413.214 111.578 413.284 111.833 413.425 112.005C413.566 112.172 413.805 112.255 414.144 112.255C414.31 112.255 414.54 112.224 414.831 112.161V113.333C414.451 113.438 414.081 113.49 413.722 113.49C413.076 113.49 412.589 113.294 412.261 112.904C411.933 112.513 411.769 111.958 411.769 111.24V105.997H410.23V104.88H411.769V102.833H413.214ZM420.573 106.177C420.355 106.141 420.118 106.122 419.862 106.122C418.915 106.122 418.271 106.526 417.933 107.333V113.333H416.487V104.88H417.894L417.917 105.857C418.391 105.102 419.063 104.724 419.933 104.724C420.214 104.724 420.428 104.76 420.573 104.833V106.177ZM423.48 113.333H422.034V104.88H423.48V113.333ZM421.917 102.638C421.917 102.404 421.987 102.206 422.128 102.044C422.274 101.883 422.487 101.802 422.769 101.802C423.05 101.802 423.263 101.883 423.409 102.044C423.555 102.206 423.628 102.404 423.628 102.638C423.628 102.872 423.555 103.068 423.409 103.224C423.263 103.38 423.05 103.458 422.769 103.458C422.487 103.458 422.274 103.38 422.128 103.224C421.987 103.068 421.917 102.872 421.917 102.638ZM429.191 112.31C429.706 112.31 430.157 112.154 430.542 111.841C430.928 111.529 431.141 111.138 431.183 110.669H432.55C432.524 111.154 432.357 111.615 432.05 112.052C431.743 112.49 431.331 112.839 430.816 113.099C430.305 113.359 429.763 113.49 429.191 113.49C428.04 113.49 427.123 113.107 426.441 112.341C425.763 111.57 425.425 110.518 425.425 109.185V108.943C425.425 108.12 425.576 107.388 425.878 106.747C426.18 106.107 426.612 105.609 427.175 105.255C427.743 104.901 428.412 104.724 429.183 104.724C430.131 104.724 430.917 105.008 431.542 105.576C432.172 106.143 432.508 106.88 432.55 107.786H431.183C431.141 107.24 430.933 106.792 430.558 106.443C430.188 106.089 429.73 105.911 429.183 105.911C428.448 105.911 427.878 106.177 427.472 106.708C427.071 107.234 426.87 107.997 426.87 108.997V109.271C426.87 110.245 427.071 110.995 427.472 111.521C427.873 112.047 428.446 112.31 429.191 112.31ZM437.511 108.794C437.511 109.956 437.357 111.07 437.05 112.138C436.748 113.201 436.282 114.182 435.652 115.083C435.027 115.984 434.37 116.625 433.683 117.005L433.378 116.122C434.18 115.508 434.823 114.555 435.308 113.263C435.797 111.966 436.047 110.529 436.058 108.951V108.701C436.058 107.607 435.943 106.591 435.714 105.654C435.485 104.711 435.165 103.867 434.753 103.122C434.347 102.378 433.888 101.797 433.378 101.38L433.683 100.497C434.37 100.878 435.024 101.513 435.644 102.404C436.269 103.294 436.735 104.276 437.042 105.349C437.355 106.422 437.511 107.57 437.511 108.794ZM451.48 103.193H447.823V113.333H446.331V103.193H442.683V101.958H451.48V103.193ZM454.386 105.904C455.027 105.117 455.86 104.724 456.886 104.724C458.672 104.724 459.573 105.732 459.589 107.747V113.333H458.144V107.74C458.138 107.13 457.998 106.68 457.722 106.388C457.451 106.096 457.027 105.951 456.448 105.951C455.98 105.951 455.568 106.076 455.214 106.326C454.86 106.576 454.584 106.904 454.386 107.31V113.333H452.941V101.333H454.386V105.904ZM463.323 113.333H461.878V104.88H463.323V113.333ZM461.761 102.638C461.761 102.404 461.831 102.206 461.972 102.044C462.118 101.883 462.331 101.802 462.612 101.802C462.894 101.802 463.107 101.883 463.253 102.044C463.399 102.206 463.472 102.404 463.472 102.638C463.472 102.872 463.399 103.068 463.253 103.224C463.107 103.38 462.894 103.458 462.612 103.458C462.331 103.458 462.118 103.38 461.972 103.224C461.831 103.068 461.761 102.872 461.761 102.638ZM469.034 112.31C469.55 112.31 470 112.154 470.386 111.841C470.771 111.529 470.985 111.138 471.027 110.669H472.394C472.368 111.154 472.201 111.615 471.894 112.052C471.586 112.49 471.175 112.839 470.659 113.099C470.149 113.359 469.607 113.49 469.034 113.49C467.883 113.49 466.967 113.107 466.284 112.341C465.607 111.57 465.269 110.518 465.269 109.185V108.943C465.269 108.12 465.42 107.388 465.722 106.747C466.024 106.107 466.456 105.609 467.019 105.255C467.586 104.901 468.256 104.724 469.027 104.724C469.974 104.724 470.761 105.008 471.386 105.576C472.016 106.143 472.352 106.88 472.394 107.786H471.027C470.985 107.24 470.777 106.792 470.402 106.443C470.032 106.089 469.573 105.911 469.027 105.911C468.292 105.911 467.722 106.177 467.316 106.708C466.915 107.234 466.714 107.997 466.714 108.997V109.271C466.714 110.245 466.915 110.995 467.316 111.521C467.717 112.047 468.29 112.31 469.034 112.31ZM476.378 109.419L475.472 110.365V113.333H474.027V101.333H475.472V108.591L476.245 107.661L478.878 104.88H480.636L477.347 108.411L481.019 113.333H479.323L476.378 109.419ZM492.597 108.31H487.823V113.333H486.323V101.958H493.37V103.193H487.823V107.083H492.597V108.31ZM496.511 113.333H495.066V104.88H496.511V113.333ZM494.948 102.638C494.948 102.404 495.019 102.206 495.159 102.044C495.305 101.883 495.519 101.802 495.8 101.802C496.081 101.802 496.295 101.883 496.441 102.044C496.586 102.206 496.659 102.404 496.659 102.638C496.659 102.872 496.586 103.068 496.441 103.224C496.295 103.38 496.081 103.458 495.8 103.458C495.519 103.458 495.305 103.38 495.159 103.224C495.019 103.068 494.948 102.872 494.948 102.638ZM500.402 113.333H498.956V101.333H500.402V113.333ZM504.081 104.88L504.12 105.818C504.74 105.089 505.576 104.724 506.628 104.724C507.81 104.724 508.615 105.177 509.042 106.083C509.323 105.677 509.688 105.349 510.136 105.099C510.589 104.849 511.123 104.724 511.737 104.724C513.592 104.724 514.534 105.706 514.566 107.669V113.333H513.12V107.755C513.12 107.151 512.982 106.701 512.706 106.404C512.43 106.102 511.967 105.951 511.316 105.951C510.779 105.951 510.334 106.112 509.98 106.435C509.625 106.753 509.42 107.182 509.362 107.724V113.333H507.909V107.794C507.909 106.565 507.308 105.951 506.105 105.951C505.157 105.951 504.508 106.354 504.159 107.161V113.333H502.714V104.88H504.081Z" fill="black"/>
</svg>
