<svg width="1440" height="639" viewBox="0 0 1440 639" fill="none" xmlns="http://www.w3.org/2000/svg">
<rect width="1440" height="629.674" fill="white"/>
<path d="M3.95791e-10 193.768C-0.000335919 182.011 213.827 245.473 463.158 193.768C712.488 142.062 981.273 323.842 1079.57 209.521C1177.87 95.1988 1440 100.867 1440 141.107C1440 181.348 1440 430.962 1440 430.962L3.9654e-10 412.034C3.9654e-10 412.034 0.000335919 205.524 3.95791e-10 193.768Z" fill="#FFC09C"/>
<path d="M-1.59348 372.203C16.7042 366.695 88.4554 403.494 283.546 377.711C478.637 351.929 478.811 352.573 692.43 403.494C906.05 454.414 1441.89 319.626 1441.89 358.433C1441.89 397.24 1572.28 700.696 1441.89 626.826C1311.5 552.957 1048.71 644.188 605.856 590.816C163.001 537.445 -1.59359 614.582 -1.59359 614.582C-1.59359 614.582 -19.8912 377.711 -1.59348 372.203Z" fill="#CEE5F5"/>
</svg>
