<svg width="1440" height="414" viewBox="0 0 1440 414" fill="none" xmlns="http://www.w3.org/2000/svg">
<path d="M-1 67.6441C-1.00034 57.5649 212.976 111.973 462.479 67.6441C711.983 23.3148 980.955 179.162 1079.32 81.1497C1177.69 -16.8626 1440 -12.0032 1440 22.4966C1440 56.9965 1440 271 1440 271L-1 254.772C-1 254.772 -0.999664 77.7233 -1 67.6441Z" fill="#FFC09C"/>
<path d="M1.13466 203.522C19.4376 199.166 91.2091 228.266 286.355 207.878C481.501 187.489 481.675 187.999 695.356 228.266C909.036 268.533 1445.03 161.945 1445.03 192.633C1445.03 223.321 1575.46 463.29 1445.03 404.875C1314.6 346.46 1051.74 418.604 608.756 376.399C165.776 334.194 1.13455 395.193 1.13455 395.193C1.13455 395.193 -17.1683 207.878 1.13466 203.522Z" fill="#CDEBFF"/>
</svg>
