<svg width="114" height="35" viewBox="0 0 114 35" fill="none" xmlns="http://www.w3.org/2000/svg">
<g filter="url(#filter0_b)">
<rect width="114" height="35" rx="2" fill="#003049" fill-opacity="0.05"/>
</g>
<path d="M33.3887 24V11.1152H37.8271C38.8291 11.1152 39.5938 11.1768 40.1211 11.2998C40.8594 11.4697 41.4893 11.7773 42.0107 12.2227C42.6904 12.7969 43.1973 13.5322 43.5312 14.4287C43.8711 15.3193 44.041 16.3389 44.041 17.4873C44.041 18.4658 43.9268 19.333 43.6982 20.0889C43.4697 20.8447 43.1768 21.4717 42.8193 21.9697C42.4619 22.4619 42.0693 22.8516 41.6416 23.1387C41.2197 23.4199 40.707 23.6338 40.1035 23.7803C39.5059 23.9268 38.8174 24 38.0381 24H33.3887ZM35.0938 22.4795H37.8447C38.6943 22.4795 39.3594 22.4004 39.8398 22.2422C40.3262 22.084 40.7129 21.8613 41 21.5742C41.4043 21.1699 41.7178 20.6279 41.9404 19.9482C42.1689 19.2627 42.2832 18.4336 42.2832 17.4609C42.2832 16.1133 42.0605 15.0791 41.6152 14.3584C41.1758 13.6318 40.6396 13.1455 40.0068 12.8994C39.5498 12.7236 38.8145 12.6357 37.8008 12.6357H35.0938V22.4795ZM52.584 20.9941L54.2188 21.1963C53.9609 22.1514 53.4834 22.8926 52.7861 23.4199C52.0889 23.9473 51.1982 24.2109 50.1143 24.2109C48.749 24.2109 47.665 23.792 46.8623 22.9541C46.0654 22.1104 45.667 20.9297 45.667 19.4121C45.667 17.8418 46.0713 16.623 46.8799 15.7559C47.6885 14.8887 48.7373 14.4551 50.0264 14.4551C51.2744 14.4551 52.2939 14.8799 53.085 15.7295C53.876 16.5791 54.2715 17.7744 54.2715 19.3154C54.2715 19.4092 54.2686 19.5498 54.2627 19.7373H47.3018C47.3604 20.7627 47.6504 21.5479 48.1719 22.0928C48.6934 22.6377 49.3438 22.9102 50.123 22.9102C50.7031 22.9102 51.1982 22.7578 51.6084 22.4531C52.0186 22.1484 52.3438 21.6621 52.584 20.9941ZM47.3896 18.4365H52.6016C52.5312 17.6514 52.332 17.0625 52.0039 16.6699C51.5 16.0605 50.8467 15.7559 50.0439 15.7559C49.3174 15.7559 48.7051 15.999 48.207 16.4854C47.7148 16.9717 47.4424 17.6221 47.3896 18.4365ZM56.2139 24V14.666H57.6289V15.9756C57.9219 15.5186 58.3115 15.1523 58.7979 14.877C59.2842 14.5957 59.8379 14.4551 60.459 14.4551C61.1504 14.4551 61.7158 14.5986 62.1553 14.8857C62.6006 15.1729 62.9141 15.5742 63.0957 16.0898C63.834 15 64.7949 14.4551 65.9785 14.4551C66.9043 14.4551 67.6162 14.7129 68.1143 15.2285C68.6123 15.7383 68.8613 16.5264 68.8613 17.5928V24H67.2881V18.1201C67.2881 17.4873 67.2354 17.0332 67.1299 16.7578C67.0303 16.4766 66.8457 16.251 66.5762 16.0811C66.3066 15.9111 65.9902 15.8262 65.627 15.8262C64.9707 15.8262 64.4258 16.0459 63.9922 16.4854C63.5586 16.9189 63.3418 17.6162 63.3418 18.5771V24H61.7598V17.9355C61.7598 17.2324 61.6309 16.7051 61.373 16.3535C61.1152 16.002 60.6934 15.8262 60.1074 15.8262C59.6621 15.8262 59.249 15.9434 58.8682 16.1777C58.4932 16.4121 58.2207 16.7549 58.0508 17.2061C57.8809 17.6572 57.7959 18.3076 57.7959 19.1572V24H56.2139ZM70.6191 19.333C70.6191 17.6045 71.0996 16.3242 72.0605 15.4922C72.8633 14.8008 73.8418 14.4551 74.9961 14.4551C76.2793 14.4551 77.3281 14.877 78.1426 15.7207C78.957 16.5586 79.3643 17.7188 79.3643 19.2012C79.3643 20.4023 79.1826 21.3486 78.8193 22.04C78.4619 22.7256 77.9375 23.2588 77.2461 23.6396C76.5605 24.0205 75.8105 24.2109 74.9961 24.2109C73.6895 24.2109 72.6318 23.792 71.8232 22.9541C71.0205 22.1162 70.6191 20.9092 70.6191 19.333ZM72.2451 19.333C72.2451 20.5283 72.5059 21.4248 73.0273 22.0225C73.5488 22.6143 74.2051 22.9102 74.9961 22.9102C75.7812 22.9102 76.4346 22.6113 76.9561 22.0137C77.4775 21.416 77.7383 20.5049 77.7383 19.2803C77.7383 18.126 77.4746 17.2529 76.9473 16.6611C76.4258 16.0635 75.7754 15.7646 74.9961 15.7646C74.2051 15.7646 73.5488 16.0605 73.0273 16.6523C72.5059 17.2441 72.2451 18.1377 72.2451 19.333Z" fill="#003049"/>
<defs>
<filter id="filter0_b" x="-18" y="-18" width="150" height="71" filterUnits="userSpaceOnUse" color-interpolation-filters="sRGB">
<feFlood flood-opacity="0" result="BackgroundImageFix"/>
<feGaussianBlur in="BackgroundImage" stdDeviation="9"/>
<feComposite in2="SourceAlpha" operator="in" result="effect1_backgroundBlur"/>
<feBlend mode="normal" in="SourceGraphic" in2="effect1_backgroundBlur" result="shape"/>
</filter>
</defs>
</svg>
