<svg width="38" height="38" viewBox="0 0 42 42" fill="none" xmlns="http://www.w3.org/2000/svg">
<path d="M24.9375 31.5H30.1875V36.75H24.9375V31.5Z" fill="#F77F00"/>
<path d="M34.125 31.5H39.375V36.75H34.125V31.5Z" fill="#F77F00"/>
<path d="M24.9375 22.3125H30.1875V27.5625H24.9375V22.3125Z" fill="#F77F00"/>
<path d="M34.125 22.3125H39.375V27.5625H34.125V22.3125Z" fill="#F77F00"/>
<path d="M22.3125 31.5H5.25V13.125H36.75V19.6875H39.375V13.125C39.3743 12.429 39.0975 11.7617 38.6054 11.2696C38.1133 10.7775 37.446 10.5007 36.75 10.5H28.875V5.25C28.8743 4.55402 28.5975 3.88674 28.1054 3.39461C27.6133 2.90248 26.946 2.62569 26.25 2.625H15.75C15.054 2.62569 14.3867 2.90248 13.8946 3.39461C13.4025 3.88674 13.1257 4.55402 13.125 5.25V10.5H5.25C4.55402 10.5007 3.88674 10.7775 3.39461 11.2696C2.90248 11.7617 2.62569 12.429 2.625 13.125V31.5C2.62569 32.196 2.90248 32.8633 3.39461 33.3554C3.88674 33.8475 4.55402 34.1243 5.25 34.125H22.3125V31.5ZM15.75 5.25H26.25V10.5H15.75V5.25Z" fill="#F77F00"/>
</svg>
