<svg width="21" height="21" viewBox="0 0 21 21" fill="none" xmlns="http://www.w3.org/2000/svg">
<path d="M10.5003 1.16675C8.65437 1.16675 6.84987 1.71414 5.31501 2.7397C3.78015 3.76526 2.58387 5.22293 1.87745 6.92837C1.17104 8.63381 0.986205 10.5104 1.34633 12.3209C1.70646 14.1314 2.59538 15.7945 3.90067 17.0997C5.20596 18.405 6.869 19.294 8.67949 19.6541C10.49 20.0142 12.3666 19.8294 14.072 19.123C15.7775 18.4165 17.2352 17.2203 18.2607 15.6854C19.2863 14.1505 19.8337 12.346 19.8337 10.5001C19.8337 8.02473 18.8503 5.65076 17.1 3.90042C15.3497 2.15008 12.9757 1.16675 10.5003 1.16675V1.16675ZM10.5003 18.6667C8.88512 18.6667 7.30617 18.1878 5.96317 17.2904C4.62017 16.3931 3.57343 15.1176 2.95531 13.6253C2.3372 12.1331 2.17547 10.491 2.49058 8.90684C2.8057 7.32267 3.5835 5.86751 4.72562 4.72538C5.86775 3.58325 7.32291 2.80545 8.90709 2.49034C10.4913 2.17522 12.1333 2.33695 13.6256 2.95507C15.1178 3.57318 16.3933 4.61992 17.2907 5.96292C18.188 7.30593 18.667 8.88487 18.667 10.5001C18.667 12.666 17.8066 14.7432 16.275 16.2748C14.7435 17.8063 12.6663 18.6667 10.5003 18.6667Z" fill="#003049"/>
<path d="M10.6688 5.20322C10.0367 5.19278 9.41004 5.32168 8.83336 5.58079C8.25668 5.83989 7.74414 6.22283 7.33217 6.70239C7.27494 6.75543 7.22893 6.81942 7.19687 6.89056C7.1648 6.9617 7.14734 7.03855 7.14551 7.11656C7.14547 7.18853 7.15991 7.25978 7.18797 7.32606C7.21602 7.39233 7.25713 7.45229 7.30883 7.50236C7.36053 7.55243 7.42178 7.59159 7.48892 7.61751C7.55607 7.64343 7.62774 7.65557 7.69967 7.65322C7.85378 7.6494 8.00113 7.58922 8.11384 7.48406C8.42561 7.11871 8.81283 6.82523 9.24886 6.62383C9.68489 6.42243 10.1594 6.31789 10.6397 6.31739C12.0163 6.31739 12.8738 7.20406 12.8738 8.30656V8.33572C12.8738 9.62489 11.8472 10.3424 10.2255 10.4649C10.1598 10.4674 10.0955 10.4838 10.0366 10.5129C9.97766 10.5421 9.92558 10.5833 9.88372 10.634C9.84187 10.6847 9.81119 10.7436 9.79369 10.8069C9.77619 10.8703 9.77227 10.9366 9.78217 11.0016V12.6057C9.79668 12.7501 9.86449 12.8839 9.97235 12.981C10.0802 13.0781 10.2204 13.1315 10.3655 13.1307H10.4297C10.5741 13.1162 10.7079 13.0484 10.8049 12.9405C10.902 12.8327 10.9554 12.6925 10.9547 12.5474V11.3457C12.7047 11.1007 14.1222 10.1791 14.1222 8.26572V8.23656C14.1047 6.48656 12.7397 5.20322 10.6688 5.20322V5.20322Z" fill="#003049"/>
<path d="M10.3717 16.0125C10.7745 16.0125 11.1009 15.6861 11.1009 15.2834C11.1009 14.8807 10.7745 14.5542 10.3717 14.5542C9.96904 14.5542 9.64258 14.8807 9.64258 15.2834C9.64258 15.6861 9.96904 16.0125 10.3717 16.0125Z" fill="#003049"/>
</svg>
