<svg width="38" height="38" viewBox="0 0 42 42" fill="none" xmlns="http://www.w3.org/2000/svg">
<path d="M26.25 15.75V2.625H28.875V15.75H26.25Z" fill="#18A40E"/>
<path d="M31.5 15.75V2.625H34.125V15.75H31.5Z" fill="#18A40E"/>
<path d="M36.75 15.75V2.625H39.375V15.75H36.75Z" fill="#18A40E"/>
<path d="M21 26.25C20.3062 26.2658 19.6165 26.1408 18.9724 25.8825C18.3283 25.6243 17.7432 25.2382 17.2525 24.7475C16.7618 24.2568 16.3757 23.6717 16.1175 23.0276C15.8592 22.3835 15.7342 21.6938 15.75 21C15.7342 20.3062 15.8592 19.6165 16.1175 18.9724C16.3757 18.3283 16.7618 17.7432 17.2525 17.2525C17.7432 16.7618 18.3283 16.3757 18.9724 16.1175C19.6165 15.8592 20.3062 15.7342 21 15.75V13.125C19.4425 13.125 17.9199 13.5869 16.6249 14.4522C15.3298 15.3175 14.3205 16.5474 13.7245 17.9864C13.1284 19.4253 12.9725 21.0087 13.2763 22.5363C13.5802 24.0639 14.3302 25.4671 15.4315 26.5685C16.5329 27.6698 17.9361 28.4198 19.4637 28.7237C20.9913 29.0275 22.5747 28.8716 24.0136 28.2756C25.4526 27.6795 26.6825 26.6702 27.5478 25.3751C28.4131 24.0801 28.875 22.5575 28.875 21H26.25C26.2658 21.6938 26.1408 22.3835 25.8825 23.0276C25.6243 23.6717 25.2382 24.2568 24.7475 24.7475C24.2568 25.2382 23.6717 25.6243 23.0276 25.8825C22.3835 26.1408 21.6938 26.2658 21 26.25V26.25Z" fill="#18A40E"/>
<path d="M37.9224 24.2209L34.254 21L32.5241 22.974L36.1886 26.1922L33.0911 31.5578L28.5931 30.0353C27.5345 30.9222 26.329 31.6174 25.031 32.0893L24.0978 36.75H17.9028L16.971 32.0906C15.6819 31.6118 14.4852 30.9137 13.4338 30.0274L8.90959 31.5578L5.81209 26.1922L9.38865 23.0488C9.14396 21.6915 9.14085 20.3017 9.37946 18.9433L5.81209 15.8064L8.90959 10.4422L13.4075 11.9648C14.4664 11.0771 15.6724 10.3815 16.971 9.90938L17.9028 5.25H21.0003V2.625H17.9028C17.296 2.62506 16.7079 2.83538 16.2387 3.22016C15.7694 3.60495 15.448 4.14043 15.329 4.7355L14.6675 8.04037C14.0647 8.3294 13.4827 8.66008 12.9258 9.03L9.74959 7.95506C9.17488 7.76047 8.55048 7.77118 7.98279 7.98538C7.4151 8.19958 6.93925 8.60401 6.63634 9.12975L3.53884 14.4952C3.2354 15.0206 3.12333 15.6349 3.22167 16.2336C3.32002 16.8323 3.62271 17.3784 4.07828 17.7791L6.61271 20.0064C6.5904 20.3372 6.56284 20.6653 6.56284 21C6.56284 21.3386 6.57596 21.6733 6.59959 22.0054L4.07959 24.2209C3.6236 24.6212 3.3204 25.1672 3.22158 25.7659C3.12275 26.3646 3.2344 26.9791 3.53753 27.5047L6.63503 32.8703C6.93804 33.3966 7.41432 33.8014 7.98259 34.0156C8.55085 34.2299 9.17585 34.2402 9.7509 34.0449L12.9455 32.9634C13.4959 33.3348 14.0713 33.6676 14.6675 33.9596L15.3277 37.2645C15.4467 37.8598 15.7683 38.3954 16.2379 38.7803C16.7074 39.1651 17.2958 39.3752 17.9028 39.375H24.0978C24.7047 39.3749 25.2928 39.1646 25.762 38.7798C26.2313 38.3951 26.5527 37.8596 26.6716 37.2645L27.3332 33.9583C27.936 33.6697 28.5179 33.3395 29.0748 32.97L32.2498 34.0436C32.8245 34.2387 33.4491 34.2283 34.0171 34.0144C34.585 33.8004 35.0612 33.396 35.3643 32.8703L38.4618 27.5047C38.7653 26.9794 38.8773 26.3651 38.779 25.7664C38.6807 25.1677 38.378 24.6216 37.9224 24.2209Z" fill="#18A40E"/>
</svg>
