<svg width="26" height="26" viewBox="0 0 26 26" fill="none" xmlns="http://www.w3.org/2000/svg">
<path d="M9.04492 13.1396L12.1521 16.2468L17.3306 10.0325" stroke="#003049" stroke-width="1.3" stroke-linecap="round" stroke-linejoin="round"/>
<path d="M18.4919 7.41083C18.1923 7.11532 18.2018 6.62095 18.5246 6.37772C18.7936 6.17504 19.1653 6.18587 19.4007 6.4158L19.4009 6.41596C20.9518 7.92375 21.9207 9.93064 22.1368 12.0829C22.3529 14.2352 21.8022 16.3946 20.5819 18.1806C19.3616 19.9666 17.55 21.2645 15.4664 21.8454C13.3828 22.4264 11.161 22.2532 9.1926 21.3563C7.22422 20.4594 5.63563 18.8965 4.70686 16.943C3.77808 14.9894 3.56875 12.7707 4.11575 10.678C4.66275 8.5852 5.93097 6.75271 7.69687 5.50351C9.46276 4.25431 11.613 3.6686 13.7685 3.84962L13.9912 3.86833L13.8567 3.68979L13.2099 2.83147C13.1024 2.6888 13.056 2.50927 13.0808 2.33237C13.1057 2.15547 13.1998 1.99569 13.3425 1.88818C13.4851 1.78068 13.6647 1.73424 13.8416 1.75911C14.0185 1.78397 14.1782 1.87809 14.2858 2.02075L16.1479 4.49192C16.2554 4.63459 16.3019 4.81412 16.277 4.99102C16.2521 5.16792 16.158 5.3277 16.0153 5.43521L13.5442 7.29737C13.4015 7.40488 13.222 7.45131 13.0451 7.42644C12.8682 7.40158 12.7084 7.30747 12.6009 7.1648C12.4934 7.02213 12.4469 6.8426 12.4718 6.6657C12.4967 6.4888 12.5908 6.32902 12.7335 6.22151L13.8455 5.38354L14.0487 5.23041L13.7956 5.20421C11.8295 5.00063 9.85942 5.55021 8.28263 6.74208C7.00565 7.70472 6.05379 9.03502 5.55487 10.5544C5.05593 12.0737 5.03384 13.7094 5.49154 15.2417C5.94925 16.7739 6.86485 18.1295 8.11537 19.1263C9.3659 20.1231 10.8915 20.7134 12.4873 20.8179C14.083 20.9224 15.6726 20.5361 17.0424 19.711C18.4123 18.8858 19.4969 17.6613 20.1505 16.2018C20.8042 14.7423 20.9956 13.1177 20.6991 11.5462C20.4026 9.97485 19.6324 8.53178 18.4919 7.41083Z" fill="#003049" stroke="white" stroke-width="0.2"/>
</svg>
